<svg width="33" height="33" viewBox="0 0 33 33" fill="none" xmlns="http://www.w3.org/2000/svg">
<ellipse cx="16.5" cy="16.5369" rx="16" ry="15.9627" fill="#CCE6FD"/>
<path d="M3.21875 25.3018H30.0588C30.0588 25.3018 27.9952 28.4702 24.9166 30.2874C20.8817 32.669 17.2477 32.5665 17.2477 32.5665C17.2477 32.5665 12.9643 32.8054 9.03059 30.6512C5.09691 28.497 3.21875 25.3018 3.21875 25.3018Z" fill="#AEBF3E"/>
<path d="M16.5859 10.2786H21.5226V12.823H16.5859V10.2786Z" fill="#41567F"/>
<path d="M19.0547 10.2786H21.5228V12.823H19.0547V10.2786Z" fill="#293E65"/>
<path d="M15.8906 9.72437H22.2254V10.8329H15.8906V9.72437Z" fill="#5D7198"/>
<path d="M19.0547 9.72437H22.2221V10.8329H19.0547V9.72437Z" fill="#41567F"/>
<path d="M24.3857 12.2688H8.62418L7.02344 13.8654V24.5021L8.62418 26.0987H24.3857L25.9864 24.5021V13.8654L24.3857 12.2688Z" fill="#CDDCEB"/>
<path d="M25.9858 13.8654V24.5021L24.3851 26.0987H19.0547V12.2688H24.3851L25.9858 13.8654Z" fill="#AFC8DB"/>
<path d="M24.8736 16.9858V24.0427L23.9239 24.9901H9.08244L8.13281 24.0427V16.9862L19.0536 16.4685L24.8736 16.9858Z" fill="#8ADB51"/>
<path d="M24.8747 16.9858V24.0427L23.9251 24.9901H19.0547V16.4685L24.8747 16.9858Z" fill="#4AB564"/>
<path d="M24.8736 14.3246V16.9858C24.2687 17.2515 24.0887 17.9114 23.1976 17.9114C22.0817 17.9114 22.0817 16.8768 20.9658 16.8768C19.9684 16.8768 19.8628 17.7041 19.0536 17.8789C18.958 17.9 18.8524 17.9114 18.7343 17.9114C17.6187 17.9114 17.6187 16.8768 16.5028 16.8768C15.3873 16.8768 15.3873 17.9114 14.2717 17.9114C13.1558 17.9114 13.1558 16.8768 12.0402 16.8768C10.9243 16.8768 10.9243 17.9114 9.80874 17.9114C8.91726 17.9114 8.73763 17.2515 8.13281 16.9862V14.3246L9.08244 13.3772H23.9239L24.8736 14.3246Z" fill="#EFF3F7"/>
<path d="M24.8747 14.3246V16.9858C24.2699 17.2515 24.0899 17.9114 23.1988 17.9114C22.0828 17.9114 22.0828 16.8768 20.9669 16.8768C19.9695 16.8768 19.8639 17.7041 19.0547 17.8789V13.3772H23.9251L24.8747 14.3246Z" fill="#CDDCEB"/>
</svg>
