<svg width="32" height="33" viewBox="0 0 32 33" fill="none" xmlns="http://www.w3.org/2000/svg">
<ellipse cx="16" cy="16.5775" rx="16" ry="15.9627" fill="#CCE6FD"/>
<path d="M2.71875 25.3423H29.5588C29.5588 25.3423 27.4952 28.5107 24.4166 30.3279C20.3817 32.7095 16.7477 32.607 16.7477 32.607C16.7477 32.607 12.4643 32.846 8.53059 30.6918C4.59691 28.5375 2.71875 25.3423 2.71875 25.3423Z" fill="#AEBF3E"/>
<path d="M24.3394 19.9402H23.2061C23.0727 18.1665 22.2949 16.5813 21.1062 15.4063C19.806 14.0982 18.0061 13.2891 16.0061 13.2891C14.3505 13.2891 12.8283 13.8433 11.6061 14.7855C10.0283 16.0049 8.97269 17.8451 8.80613 19.9402H7.67276L6.54688 21.0487C6.63573 22.5009 7.1061 23.9308 7.83947 25.2057L7.99502 25.4828H13.2283V24.3743H18.7839V25.4828H24.0172L24.1727 25.2057C24.9061 23.9308 25.3765 22.5009 25.4653 21.0487L24.3394 19.9402Z" fill="#F3F5F9"/>
<path d="M18.7856 24.3743V25.4828H24.0189L24.1744 25.2057C24.9078 23.9308 25.3782 22.5009 25.467 21.0487L24.3411 19.9402H23.2078C23.0744 18.1665 22.2966 16.5813 21.1079 15.4063C19.8077 14.0982 18.0078 13.2891 16.0078 13.2891V24.3743H18.7856Z" fill="#E1E6F0"/>
<path d="M11.0078 19.9402H14.8967V21.0487H11.0078V19.9402Z" fill="#4D5E80"/>
<path d="M16.0026 22.1574C15.0836 22.1574 14.3359 21.4115 14.3359 20.4946C14.3359 19.5777 15.0836 18.8318 16.0026 18.8318C16.9216 18.8318 17.6693 19.5777 17.6693 20.4946C17.6693 21.4115 16.9216 22.1574 16.0026 22.1574Z" fill="#4D5E80"/>
<path d="M22.6795 13.8322L22.6684 16.0604L20.324 16.1823C19.2128 15.0849 17.6906 14.3976 16.0017 14.3976L14.8906 12.7553L16.0017 11.072C18.6018 11.072 20.9684 12.1251 22.6795 13.8322Z" fill="#FF9F40"/>
<path d="M25.4874 20.4945C25.4874 20.6829 25.4763 20.8714 25.4651 21.0488H22.117V20.4945C22.117 18.8095 21.4281 17.2909 20.3281 16.1823L22.6837 13.8323C24.3948 15.5394 25.4874 17.9005 25.4874 20.4945Z" fill="#F25A3C"/>
<path d="M11.6827 16.1823C10.5827 17.2909 9.89381 18.8095 9.89381 20.4945V21.0488H6.5457C6.53455 20.8714 6.52344 20.6829 6.52344 20.4945C6.52344 17.9005 7.61599 15.5394 9.32714 13.8323L11.5605 13.8434L11.605 14.7856L11.6827 16.1823Z" fill="#8CD96B"/>
<path d="M16.0059 11.072V14.3976C14.317 14.3976 12.7948 15.0849 11.6837 16.1823L9.32812 13.8322C11.0393 12.1251 13.4058 11.072 16.0059 11.072Z" fill="#FFDF40"/>
<path d="M19.895 26.5917H12.1172V23.2661H19.895V26.5917Z" fill="#4D5E80"/>
<path d="M19.8967 24.9289V23.2661H16.0078V26.5917H19.8967V24.9289Z" fill="#3D4566"/>
<path d="M13.2266 24.3745H18.7821V25.483H13.2266V24.3745Z" fill="#C6F243"/>
<path d="M16.0078 24.3745H18.7856V25.483H16.0078V24.3745Z" fill="#8CD96B"/>
<path d="M17.6745 20.4946C17.6745 19.5777 16.9268 18.8318 16.0078 18.8318V22.1574C16.9268 22.1574 17.6745 21.4115 17.6745 20.4946Z" fill="#3D4566"/>
</svg>
