<svg width="33" height="33" viewBox="0 0 33 33" fill="none" xmlns="http://www.w3.org/2000/svg">
<ellipse cx="16.5" cy="16.5369" rx="16" ry="15.9627" fill="#CCE6FD"/>
<path d="M3.21875 25.3015H30.0588C30.0588 25.3015 27.9952 28.4699 24.9166 30.2871C20.8817 32.6687 17.2477 32.5662 17.2477 32.5662C17.2477 32.5662 12.9643 32.8052 9.03059 30.651C5.09691 28.4968 3.21875 25.3015 3.21875 25.3015Z" fill="#AEBF3E"/>
<path d="M14.3256 7.07813C13.1009 7.07813 12.1081 8.06863 12.1081 9.29044V11.3749L12.4785 11.9292L12.1081 12.4834V13.5L12.4785 14.0542L12.1081 14.6085V15.6251L12.4785 16.0981L12.1081 16.7336V17.7501L12.4785 18.3044L12.1081 18.8586V20.7015C11.5535 21.2633 11.2109 22.034 11.2109 22.8848C11.2109 24.6036 12.6075 25.9969 14.3303 25.9969L14.6485 20.5095L14.3303 7.07824C14.3287 7.07824 14.3272 7.07812 14.3256 7.07812V7.07813Z" fill="#EDF6FF"/>
<path d="M16.5409 20.6915V9.29033C16.5409 8.0701 15.5506 7.08071 14.3281 7.07812V25.9968C16.0509 25.9968 17.4475 24.6035 17.4475 22.8847C17.4475 22.029 17.1011 21.2541 16.5409 20.6915Z" fill="#94ACC8"/>
<path d="M12.1094 11.375H14.3316V12.4835H12.1094V11.375Z" fill="#94ACC8"/>
<path d="M12.1094 13.5H14.3316V14.6085H12.1094V13.5Z" fill="#94ACC8"/>
<path d="M12.1094 15.6252H14.3316V16.7338H12.1094V15.6252Z" fill="#94ACC8"/>
<path d="M12.1094 17.7502H14.3316V18.8588H12.1094V17.7502Z" fill="#94ACC8"/>
<path d="M13.7779 11.375V21.3891C13.178 21.6141 12.75 22.1921 12.75 22.8682C12.75 23.7393 13.4603 24.4479 14.3334 24.4479L14.6516 22.5411L14.3334 11.375H13.7779Z" fill="#FC8C5A"/>
<path d="M14.8837 21.3891V11.375H14.3281V24.4479C15.2012 24.4479 15.9115 23.7393 15.9115 22.8682C15.9115 22.1921 15.4835 21.6141 14.8837 21.3891Z" fill="#FB6867"/>
<path d="M18.9499 7.69824C16.7461 7.69824 14.9531 9.48703 14.9531 11.6857C14.9531 13.8845 16.7461 15.6732 18.9499 15.6732L19.2513 12.0626L18.9499 7.69824Z" fill="#FDDF5B"/>
<path d="M22.9499 11.6848C22.9499 9.48605 21.157 7.69727 18.9531 7.69727V15.6722C21.157 15.6723 22.9499 13.8835 22.9499 11.6848Z" fill="#FBC551"/>
<path d="M18.3594 9.54541L18.5549 12.421H18.9487L19.2406 11.1314L18.9487 9.54541H18.3594Z" fill="#FB6867"/>
<path d="M19.5369 9.54541H18.9531V12.421H19.3414L19.5369 9.54541Z" fill="#E2336C"/>
<path d="M15.5033 11.6848C15.5033 9.78813 17.0445 8.25053 18.9456 8.25053C18.976 8.25053 19.0063 8.25094 19.0365 8.25172L19.5294 7.69735L18.9456 7.07812C16.3995 7.07812 14.3281 9.14471 14.3281 11.6848C14.3281 14.225 16.3995 16.2916 18.9456 16.2916L19.5294 15.6723L19.0365 15.1179C19.0063 15.1187 18.976 15.1191 18.9456 15.1191C17.0445 15.1192 15.5033 13.5816 15.5033 11.6848Z" fill="#537983"/>
<path d="M18.9453 7.07812V8.25053C20.8465 8.25053 22.3876 9.78813 22.3876 11.6848C22.3876 13.5816 20.8465 15.1192 18.9453 15.1192V16.2916C21.4914 16.2916 23.5628 14.225 23.5628 11.6848C23.5628 9.14471 21.4914 7.07812 18.9453 7.07812Z" fill="#486A72"/>
<path d="M18.3828 13.4423C18.3828 13.7535 18.6345 14.0058 18.9458 14.0084L19.1652 13.4866L18.9458 12.8762C18.6345 12.8787 18.3828 13.1311 18.3828 13.4423Z" fill="#FB6867"/>
<path d="M19.5175 13.4425C19.5175 13.1298 19.2633 12.8762 18.9499 12.8762C18.9483 12.8762 18.9468 12.8764 18.9453 12.8764V14.0086C18.9469 14.0086 18.9483 14.0088 18.9499 14.0088C19.2633 14.0088 19.5175 13.7553 19.5175 13.4425Z" fill="#E2336C"/>
</svg>
