<svg width="201" height="51" viewBox="0 0 201 51" fill="none" xmlns="http://www.w3.org/2000/svg">
<path d="M182.527 2.26848L176.742 11.6719L164.955 11.6026C164.615 11.6021 164.281 11.6939 163.989 11.8682C163.697 12.0424 163.459 12.2924 163.3 12.5914C163.141 12.8903 163.067 13.2268 163.086 13.5646C163.105 13.9024 163.217 14.2288 163.409 14.5085L172.839 28.0904L165.467 28.0561C165.236 28.0535 165.01 27.9925 164.809 27.8788C164.609 27.7651 164.441 27.6025 164.321 27.4064L156.781 15.0582C156.659 14.8573 156.592 14.6284 156.586 14.3941C156.581 14.1598 156.636 13.9281 156.748 13.7217L163.669 0.872954C163.78 0.655992 163.95 0.474387 164.16 0.348714C164.37 0.223041 164.611 0.158324 164.857 0.161896L181.371 0.213828C181.611 0.217824 181.846 0.284554 182.052 0.407301C182.258 0.530047 182.427 0.704479 182.544 0.913038C182.661 1.1216 182.72 1.35692 182.716 1.59533C182.712 1.83373 182.645 2.0668 182.521 2.27108" fill="#27529A"/>
<path d="M182.472 28.1936L172.852 28.1344L163.278 14.4857C163.083 14.2042 162.97 13.8752 162.951 13.5345C162.932 13.1939 163.007 12.8546 163.168 12.5537C163.33 12.2528 163.572 12.0018 163.867 11.8281C164.162 11.6543 164.5 11.5645 164.844 11.5683L176.795 11.6491L175.706 13.396C175.568 13.6182 175.498 13.8753 175.504 14.1363C175.51 14.3973 175.592 14.6512 175.739 14.8674L183.606 26.0916C183.748 26.2946 183.831 26.5326 183.846 26.7793C183.86 27.0259 183.806 27.2717 183.688 27.4893C183.571 27.707 183.395 27.8881 183.18 28.0126C182.966 28.1372 182.721 28.2003 182.472 28.1951" fill="#FFCC6F"/>
<path d="M178.392 25.8544L174.992 21.3086C174.909 21.2138 174.791 21.1552 174.665 21.1455L171.813 21.0188C171.696 21.0142 171.65 21.0773 171.715 21.1665L175.116 25.7124C175.199 25.8067 175.317 25.8649 175.443 25.8747L178.294 26.0013C178.411 26.0068 178.458 25.9429 178.393 25.8584" fill="white"/>
<path d="M200.068 29.6031L189.706 12.6352C189.542 12.3628 189.31 12.1369 189.033 11.9793C188.755 11.8218 188.441 11.738 188.122 11.7359L176.741 11.6755L175.669 13.4122C175.533 13.6337 175.463 13.8893 175.469 14.1488C175.474 14.4084 175.554 14.661 175.699 14.8771L183.448 26.0439C183.588 26.2457 183.67 26.4819 183.685 26.7266C183.699 26.9714 183.645 27.2153 183.53 27.4316C183.414 27.648 183.24 27.8285 183.028 27.9535C182.816 28.0784 182.573 28.1429 182.327 28.14L172.839 28.0893L174.062 29.8608C174.256 30.1587 174.364 30.5043 174.373 30.8593C174.382 31.2142 174.291 31.5645 174.111 31.8709L164.675 47.1893C164.506 47.47 164.414 47.7904 164.409 48.118C164.404 48.4455 164.486 48.7687 164.647 49.0548C164.809 49.3408 165.043 49.5796 165.327 49.7471C165.61 49.9145 165.933 50.0045 166.263 50.0082L188.958 50.0804C189.296 50.0847 189.629 49.996 189.92 49.8241C190.211 49.6523 190.448 49.4039 190.606 49.1064L200.123 31.4443C200.264 31.1557 200.333 30.8374 200.324 30.5164C200.315 30.1955 200.227 29.8814 200.07 29.6009" fill="#00499B"/>
<path d="M1.08643 39.8071C0.96239 39.8172 0.838118 39.7908 0.729074 39.7312C0.620031 39.6716 0.531032 39.5815 0.473152 39.4721C0.414402 39.352 0.385523 39.2197 0.388944 39.0863C0.392364 38.9528 0.427984 38.8222 0.492808 38.7052L12.6073 14.1271C12.7309 13.8487 12.9383 13.6152 13.2009 13.4586C13.4511 13.3057 13.739 13.2246 14.0328 13.2244H16.25C16.5194 13.2263 16.7791 13.3241 16.982 13.5C17.0873 13.5802 17.1749 13.6808 17.2397 13.7957C17.3045 13.9106 17.3449 14.0375 17.3586 14.1685L20.7631 38.8247C20.7811 38.9514 20.7709 39.0805 20.7332 39.2028C20.6956 39.3252 20.6315 39.4379 20.5453 39.533C20.4562 39.6253 20.3484 39.6976 20.2289 39.7451C20.1095 39.7927 19.9812 39.8143 19.8526 39.8087H18.1905C17.921 39.8064 17.6611 39.7087 17.4577 39.533C17.3527 39.4527 17.2651 39.352 17.2004 39.2371C17.1356 39.1222 17.0951 38.9955 17.0811 38.8645L16.2893 32.6507H7.22231L4.17481 38.9419C4.06972 39.2033 3.88213 39.4239 3.64016 39.5705C3.39788 39.7242 3.11624 39.8055 2.82875 39.8048L1.08643 39.8071ZM8.68788 29.5028H15.9332L14.904 21.2843C14.7184 19.9729 14.5874 18.544 14.5108 16.9978C13.5081 19.3833 12.888 20.8121 12.6506 21.2843L8.68788 29.5028ZM24.9632 39.8071C24.8358 39.8235 24.7065 39.7951 24.598 39.7268C24.4894 39.6584 24.4083 39.5545 24.3688 39.4331C24.3348 39.2898 24.3386 39.1402 24.3799 38.9989C24.4213 38.8575 24.4987 38.7292 24.6047 38.6264L32.0481 29.3825L28.2474 20.6549C28.1824 20.538 28.1467 20.4074 28.1431 20.2739C28.1396 20.1405 28.1683 20.0081 28.2269 19.888C28.2918 19.7757 28.388 19.6844 28.5039 19.6252C28.6199 19.566 28.7506 19.5415 28.8803 19.5546H30.6226C30.9173 19.548 31.2071 19.6297 31.4545 19.7888C31.7018 19.9598 31.8832 20.2093 31.9687 20.4964L34.5822 26.4314L39.4129 20.4183C39.5835 20.1543 39.8178 19.937 40.0945 19.7858C40.3711 19.6347 40.6814 19.5547 40.9972 19.553H42.5406C42.6677 19.537 42.7966 19.5629 42.9076 19.6266C43.0185 19.6904 43.1053 19.7885 43.1547 19.906C43.1961 20.0413 43.2014 20.185 43.1701 20.323C43.1388 20.461 43.072 20.5885 42.9762 20.6931L36.1626 29.2263L40.3989 38.7037C40.4514 38.8213 40.4785 38.9486 40.4785 39.0773C40.4785 39.2061 40.4514 39.3333 40.3989 39.451C40.3311 39.5755 40.2263 39.6763 40.0989 39.7397C39.9715 39.8032 39.8275 39.8261 39.6865 39.8056H37.9072C37.612 39.8065 37.3239 39.7161 37.0828 39.5469C36.8417 39.3777 36.6597 39.1381 36.562 38.8614L33.6308 32.1775L28.1672 38.9809C28.0066 39.2333 27.7845 39.4413 27.5215 39.5858C27.2584 39.7302 26.9629 39.8063 26.6623 39.8071H24.9632ZM45.7886 38.7841L50.4605 12.2396C50.5002 11.9574 50.629 11.6949 50.8283 11.4899C51.0277 11.2849 51.2873 11.1479 51.5699 11.0987L53.1141 10.7441C53.9056 10.6129 54.2355 10.9539 54.104 11.7672L49.3503 38.7841C49.3002 39.0669 49.1536 39.3239 48.9352 39.5119C48.7242 39.7031 48.4486 39.8084 48.1631 39.8071H46.578C46.453 39.8154 46.3279 39.7927 46.2139 39.7412C46.0999 39.6897 46.0005 39.6109 45.9246 39.5119C45.8516 39.407 45.8015 39.288 45.7777 39.1626C45.7539 39.0372 45.7568 38.9083 45.7862 38.7841M56.7151 31.5879L57.4675 27.3802C57.6381 26.3702 57.9374 25.3859 58.3584 24.451C58.7951 23.4657 59.3976 22.5615 60.14 21.7771C60.9241 20.9547 61.8578 20.2873 62.8919 19.8099C64.0329 19.2863 65.2778 19.0242 66.5346 19.043C67.3216 19.0473 68.1031 19.1735 68.8509 19.4171C69.5963 19.6483 70.2887 20.0227 70.8888 20.519C71.8166 21.3127 72.4355 22.4039 72.6381 23.6033C72.8408 24.8027 72.6144 26.0348 71.9982 27.0858C71.4719 27.9077 70.7508 28.589 69.8981 29.0702C68.7613 29.7007 67.5327 30.1518 66.2562 30.4071C64.3133 30.8024 62.3411 31.039 60.3594 31.1146L60.2399 31.901C59.5799 35.3892 60.8736 37.1332 64.1208 37.1332C65.6121 37.1062 67.0918 36.8677 68.5151 36.4249C68.7752 36.3429 69.0564 36.3571 69.3069 36.4648C69.4108 36.5161 69.4987 36.5944 69.5616 36.6913C69.6244 36.7882 69.6597 36.9001 69.6638 37.0153L69.7425 38.3124C69.7732 38.5836 69.7024 38.8566 69.5435 39.0793C69.381 39.3053 69.1422 39.4658 68.8705 39.5315C67.1607 40.0387 65.3871 40.3026 63.6026 40.3155C62.4737 40.3353 61.3517 40.135 60.3004 39.7259C59.3732 39.359 58.5554 38.7634 57.9244 37.9954C57.283 37.1887 56.8544 36.2358 56.6774 35.2231C56.4667 34.0183 56.4803 32.7854 56.7175 31.5855M60.7926 28.5235C62.5138 28.4761 64.2225 28.2185 65.8804 27.7566C66.8581 27.5376 67.756 27.0546 68.475 26.3611C68.8607 25.9241 69.0829 25.3683 69.104 24.7875C69.1234 24.4302 69.0583 24.0734 68.914 23.7455C68.7697 23.4176 68.5502 23.1278 68.273 22.8993C67.6212 22.4235 66.8233 22.1875 66.0156 22.2316C65.1553 22.2279 64.3138 22.4812 63.6003 22.9586C62.8682 23.4364 62.2799 24.1021 61.8981 24.8852C61.5218 25.6279 61.2423 26.4151 61.0662 27.2279L60.7926 28.5235ZM76.1936 38.7841L78.3322 26.5931C78.6378 24.4776 79.6816 22.536 81.2814 21.107C82.8846 19.7187 84.9556 18.9815 87.0816 19.0423C87.612 19.0342 88.142 19.0739 88.6651 19.161C88.7908 19.1834 88.9103 19.2316 89.016 19.3026C89.1218 19.3736 89.2114 19.4658 89.2792 19.5733C89.3501 19.6792 89.3958 19.7998 89.413 19.9259C89.4302 20.052 89.4183 20.1803 89.3782 20.3011L89.0213 21.5592C88.9957 21.6872 88.9442 21.8088 88.8699 21.9164C88.7956 22.0241 88.7 22.1156 88.5889 22.1855C88.4779 22.2553 88.3537 22.302 88.2239 22.3226C88.0942 22.3433 87.9615 22.3376 87.834 22.3058L86.7246 22.2277C85.5499 22.2121 84.4147 22.6487 83.5569 23.4459C82.6526 24.2719 82.0648 25.3839 81.8939 26.5923L79.7561 38.7833C79.706 39.0661 79.5594 39.3231 79.341 39.5111C79.1298 39.7018 78.8543 39.8071 78.5689 39.8063H76.9862C76.8612 39.8146 76.7361 39.7919 76.6221 39.7404C76.508 39.6889 76.4087 39.6101 76.3328 39.5111C76.2594 39.4064 76.2091 39.2874 76.1851 39.162C76.1611 39.0366 76.164 38.9075 76.1936 38.7833M97.1393 40.3155C96.2405 40.3207 95.3504 40.1398 94.5258 39.7845C93.7033 39.4269 92.9775 38.8813 92.4077 38.1922C91.7822 37.4154 91.3605 36.4967 91.1803 35.5183C90.9561 34.2954 90.9631 33.0417 91.2008 31.8214L91.9524 27.4958C92.2742 25.1119 93.4125 22.9108 95.176 21.2624C96.871 19.7745 99.0711 18.9805 101.332 19.0407C102.344 19.0542 103.341 19.2752 104.263 19.6897C105.253 20.1106 106.099 20.807 106.7 21.6951C107.298 22.5416 107.678 23.5204 107.808 24.5462C107.928 25.5273 107.908 26.5202 107.749 27.4958L105.768 38.7818C105.73 39.0665 105.588 39.3275 105.369 39.5158C105.151 39.7041 104.87 39.8068 104.581 39.8048H103.512C103.369 39.8154 103.226 39.7945 103.092 39.7434C102.959 39.6924 102.838 39.6125 102.74 39.5096C102.65 39.3967 102.585 39.2671 102.548 39.1284C102.51 38.9898 102.501 38.845 102.522 38.7029L102.601 37.7587C101.925 38.4994 101.12 39.1124 100.225 39.5682C99.2731 40.0669 98.212 40.3237 97.1362 40.3155M98.0073 37.0903C99.6176 37.0903 101.267 36.1729 102.956 34.3383L104.145 27.6918C104.302 26.8288 104.322 25.9465 104.204 25.0773C104.111 24.2746 103.715 23.5368 103.096 23.0133C102.447 22.4786 101.623 22.1986 100.78 22.2261C100.154 22.231 99.5349 22.3605 98.9601 22.6071C98.3853 22.8536 97.8662 23.2121 97.4334 23.6615C96.3691 24.767 95.6834 26.178 95.474 27.6934L94.801 31.6246C94.5894 32.649 94.5824 33.7048 94.7806 34.7319C94.8403 35.1019 94.9768 35.4556 95.1814 35.7704C95.3861 36.0853 95.6544 36.3544 95.9694 36.5608C96.587 36.9218 97.2932 37.1058 98.0097 37.0926L98.0073 37.0903ZM112.979 38.7451L115.909 22.1894H114.128C113.573 22.1894 113.256 21.8747 113.177 21.2453L113.099 20.4987C113.08 20.3779 113.086 20.2544 113.116 20.136C113.147 20.0176 113.202 19.9066 113.277 19.8099C113.353 19.7241 113.448 19.6566 113.554 19.6125C113.66 19.5684 113.775 19.5489 113.89 19.5553H116.385L117.256 14.7573C117.295 14.464 117.427 14.1908 117.634 13.9781C117.841 13.7654 118.111 13.6246 118.405 13.5766L119.83 13.2642C119.976 13.2302 120.128 13.2285 120.275 13.2591C120.422 13.2898 120.561 13.352 120.681 13.4415C120.786 13.5529 120.858 13.6906 120.889 13.8396C120.92 13.9887 120.91 14.1435 120.86 14.2872L119.948 19.5569H122.997C123.099 19.5513 123.201 19.5678 123.297 19.6052C123.392 19.6425 123.477 19.6998 123.548 19.7732C123.617 19.8574 123.667 19.9554 123.694 20.0606C123.721 20.1658 123.725 20.2756 123.705 20.3823L123.507 21.3265C123.499 21.4468 123.467 21.5644 123.413 21.6724C123.359 21.7804 123.284 21.8768 123.192 21.9559C123.017 22.1085 122.792 22.1919 122.559 22.1902H119.47L116.542 38.7458C116.496 39.0462 116.341 39.3193 116.105 39.5127C115.885 39.7021 115.604 39.8069 115.313 39.8079H113.809C113.681 39.8147 113.553 39.7914 113.437 39.7402C113.32 39.6889 113.216 39.611 113.136 39.5127C113.055 39.4037 113 39.2787 112.972 39.1464C112.945 39.014 112.947 38.8774 112.978 38.7458M125.45 31.5879L126.202 27.3802C126.372 26.3701 126.671 25.3856 127.093 24.451C127.53 23.4657 128.132 22.5615 128.875 21.7771C129.659 20.9547 130.592 20.2873 131.627 19.8099C132.767 19.2862 134.012 19.0241 135.268 19.043C136.055 19.0471 136.837 19.1733 137.585 19.4171C138.33 19.648 139.023 20.0224 139.623 20.519C140.551 21.3127 141.17 22.4039 141.373 23.6033C141.575 24.8027 141.349 26.0348 140.733 27.0858C140.207 27.9079 139.486 28.5896 138.634 29.0717C137.498 29.7023 136.269 30.1533 134.992 30.4087C133.05 30.8039 131.077 31.0406 129.096 31.1162L128.976 31.9026C128.316 35.3907 129.61 37.1348 132.856 37.1348C134.348 37.1078 135.828 36.8693 137.251 36.4265C137.511 36.3445 137.793 36.3586 138.043 36.4663C138.147 36.5177 138.235 36.596 138.298 36.6929C138.361 36.7898 138.396 36.9017 138.4 37.0169L138.479 38.314C138.509 38.5852 138.438 38.858 138.28 39.0809C138.117 39.3066 137.878 39.4671 137.607 39.533C135.897 40.041 134.123 40.3057 132.339 40.3194C131.21 40.3392 130.088 40.1389 129.037 39.7298C128.109 39.3629 127.292 38.7673 126.661 37.9993C126.019 37.1926 125.591 36.2397 125.414 35.227C125.201 34.022 125.213 32.7886 125.448 31.5879H125.45ZM129.526 28.5235C131.248 28.4761 132.956 28.2185 134.614 27.7566C135.592 27.5383 136.491 27.0549 137.209 26.3603C137.597 25.9245 137.821 25.3688 137.843 24.7875C137.862 24.4301 137.797 24.0732 137.653 23.7453C137.508 23.4173 137.288 23.1276 137.011 22.8993C136.359 22.4231 135.562 22.1867 134.754 22.2308C133.894 22.2279 133.053 22.4814 132.339 22.9586C131.607 23.4361 131.018 24.1019 130.637 24.8852C130.26 25.6279 129.981 26.4151 129.805 27.2279L129.526 28.5235Z" fill="#00499B"/>
</svg>