<svg width="16" height="14" viewBox="0 0 16 14" fill="none" xmlns="http://www.w3.org/2000/svg">
<path fill-rule="evenodd" clip-rule="evenodd" d="M1.49604 4.59759H14.5005C14.9882 4.59759 15.3872 4.19859 15.3872 3.71092C15.3872 2.01886 14.0128 0.644531 12.3208 0.644531H3.66838C1.97632 0.644531 0.609375 2.01148 0.609375 3.70353V3.71092C0.609375 4.19859 1.00838 4.59759 1.49604 4.59759ZM3.66838 13.3545C1.97632 13.3545 0.609375 11.9876 0.609375 10.2955V6.5937C0.609375 6.10603 1.00838 5.70703 1.49604 5.70703H14.5005C14.9882 5.70703 15.3872 6.10603 15.3872 6.5937V10.2881C15.3872 11.9802 14.0128 13.3545 12.3208 13.3545H3.66838ZM3.01076 10.3251C3.01076 10.628 3.26199 10.8793 3.56493 10.8793H5.04271C5.34565 10.8793 5.59688 10.628 5.59688 10.3251C5.59688 10.0221 5.34565 9.77092 5.04271 9.77092H3.56493C3.26199 9.77092 3.01076 10.0221 3.01076 10.3251ZM6.33576 10.3251C6.33576 10.628 6.58699 10.8793 6.88993 10.8793H9.84549C10.1484 10.8793 10.3997 10.628 10.3997 10.3251C10.3997 10.0221 10.1484 9.77092 9.84549 9.77092H6.88993C6.58699 9.77092 6.33576 10.0221 6.33576 10.3251Z" fill="#009F82"/>
</svg>
