<svg width="662" height="218" viewBox="0 0 662 218" fill="none" xmlns="http://www.w3.org/2000/svg">
<g clip-path="url(#clip0_4932_62511)">
<path d="M527.945 83.622C527.423 83.622 527.004 83.2012 527.004 82.6781V61.6718L520.942 68.5231C520.597 68.9125 520.001 68.9479 519.613 68.6018C519.225 68.2557 519.189 67.6579 519.534 67.2685L527.239 58.5608C527.294 58.4978 527.356 58.4428 527.431 58.3956C527.498 58.3523 527.568 58.3169 527.643 58.2933C527.741 58.2579 527.843 58.2422 527.945 58.2422C528.039 58.2501 528.133 58.254 528.223 58.2855C528.325 58.3169 528.423 58.368 528.513 58.4349C528.564 58.4742 528.611 58.5175 528.65 58.5647L536.359 67.2724C536.704 67.6618 536.669 68.2596 536.28 68.6057C535.892 68.9518 535.296 68.9164 534.951 68.5271L528.89 61.6757V82.682C528.89 83.2051 528.47 83.626 527.949 83.626L527.945 83.622Z" fill="#2D425E"/>
<path d="M659.233 217.982L660.927 213.966L655.222 211.532C655.873 207.732 655.889 203.917 655.316 200.216L661.06 197.88L655.05 182.927L649.305 185.263C647.161 182.203 644.51 179.469 641.417 177.196L643.836 171.458L629.074 165.161L626.654 170.899C622.879 170.247 619.083 170.227 615.405 170.801L613.084 165.023L605.164 168.245C606.227 170.522 606.823 173.063 606.823 175.745V182.813C606.823 185.31 606.305 187.686 605.376 189.841C608.661 186.592 612.986 184.35 617.907 183.705C629.921 182.132 640.927 190.651 642.495 202.733C643.216 208.31 641.797 213.671 638.884 217.986H659.241L659.233 217.982Z" fill="#23529A"/>
<path d="M661.294 213.099L656.267 210.955C656.773 207.589 656.8 204.187 656.353 200.816L661.415 198.759C661.898 198.562 662.129 198.012 661.933 197.528L655.922 182.575C655.828 182.343 655.648 182.158 655.416 182.059C655.185 181.961 654.926 181.961 654.695 182.055L649.637 184.112C647.633 181.379 645.261 178.952 642.571 176.887L644.704 171.83C644.908 171.35 644.685 170.795 644.206 170.591L629.44 164.294C629.209 164.196 628.95 164.192 628.719 164.286C628.488 164.38 628.303 164.561 628.205 164.793L626.072 169.851C622.728 169.344 619.344 169.312 616 169.765L613.953 164.675C613.859 164.443 613.678 164.259 613.447 164.16C613.216 164.062 612.957 164.062 612.726 164.156L604.805 167.377C604.566 167.476 604.378 167.668 604.284 167.908C604.19 168.148 604.198 168.42 604.307 168.656C605.35 170.886 605.88 173.273 605.88 175.755V182.822C605.88 185.131 605.417 187.369 604.507 189.477C604.327 189.894 604.468 190.378 604.841 190.633C605.213 190.889 605.711 190.846 606.033 190.527C609.311 187.286 613.459 185.253 618.023 184.655C623.586 183.928 629.091 185.418 633.538 188.86C637.984 192.301 640.831 197.276 641.556 202.869C642.222 208.002 640.991 213.185 638.098 217.468C637.984 217.638 637.933 217.826 637.937 218.015H639.988C642.901 213.453 644.124 208.013 643.426 202.625C642.638 196.529 639.533 191.109 634.69 187.361C629.848 183.613 623.841 181.989 617.78 182.779C613.937 183.283 610.369 184.714 607.299 186.968C607.605 185.619 607.762 184.23 607.762 182.822V175.755C607.762 173.332 607.307 170.984 606.409 168.766L612.557 166.264L614.529 171.165C614.694 171.574 615.117 171.81 615.549 171.747C619.179 171.181 622.861 171.212 626.492 171.841C626.923 171.912 627.351 171.684 627.519 171.279L629.574 166.41L642.603 171.967L640.548 176.84C640.38 177.245 640.505 177.709 640.858 177.969C643.834 180.156 646.414 182.799 648.531 185.819C648.782 186.177 649.249 186.315 649.657 186.15L654.526 184.168L659.835 197.371L654.961 199.353C654.558 199.518 654.318 199.939 654.385 200.372C654.95 204.025 654.918 207.73 654.291 211.384C654.216 211.817 654.448 212.241 654.852 212.415L659.694 214.479L658.365 217.626C658.31 217.752 658.29 217.881 658.29 218.011H660.247L661.792 214.346C661.996 213.866 661.772 213.311 661.294 213.107V213.099Z" fill="#2D425E"/>
<path d="M272.391 93.8005V83.4173H281.064L252.042 49.1016L223.023 83.4173H231.696V93.8005H272.391Z" fill="#F0F1F7"/>
<path d="M272.392 94.7477C271.87 94.7477 271.451 94.3269 271.451 93.8038V83.4167C271.451 82.8936 271.874 82.4728 272.392 82.4728H279.03L252.042 50.5641L225.055 82.4728H231.693C232.214 82.4728 232.634 82.8936 232.634 83.4167V93.8038C232.634 94.3269 232.21 94.7477 231.693 94.7477C231.175 94.7477 230.752 94.3269 230.752 93.8038V84.3606H223.02C222.651 84.3606 222.318 84.1482 222.165 83.8139C222.012 83.4796 222.063 83.0863 222.302 82.8071L251.325 48.4953C251.681 48.0745 252.403 48.0745 252.76 48.4953L281.782 82.8071C282.021 83.0863 282.072 83.4796 281.919 83.8139C281.767 84.1482 281.433 84.3606 281.065 84.3606H273.333V93.8038C273.333 94.3269 272.909 94.7477 272.392 94.7477V94.7477Z" fill="#2D425E"/>
<path d="M475.308 183.7C474.787 183.7 474.367 183.28 474.367 182.756V168.405C474.367 167.882 474.787 167.461 475.308 167.461C475.83 167.461 476.249 167.882 476.249 168.405V182.756C476.249 183.28 475.83 183.7 475.308 183.7Z" fill="#2D425E"/>
<path d="M108.725 121.237C112.486 115.656 113.721 113.823 117.747 107.849L113.387 110.889C110.933 108.671 108.169 106.909 105.22 105.627L106.169 100.349L92.5517 97.8906L91.6028 103.169C88.3955 103.338 85.1922 104.022 82.1182 105.241L79.0677 100.836L67.705 108.758L70.7554 113.163C68.544 115.625 66.7875 118.397 65.5093 121.355L60.2474 120.403L57.7969 134.063L63.0587 135.014C63.1842 137.429 63.5998 139.84 64.3173 142.196H75.5664C73.006 137.02 72.7159 130.771 75.3194 125.119C79.8833 115.212 91.5871 110.889 101.464 115.467C104.408 116.832 106.855 118.838 108.721 121.237H108.725Z" fill="#23529A"/>
<path d="M410.156 217.999H499.949C498.768 194.149 479.121 175.18 455.054 175.18C430.988 175.18 411.34 194.153 410.16 217.999H410.156Z" fill="#23529A"/>
<path d="M418.637 218.003H491.475C490.307 198.842 474.451 183.664 455.054 183.664C435.657 183.664 419.805 198.842 418.633 218.003H418.637Z" fill="white"/>
<path d="M544.341 91.7105C542.831 91.7105 541.396 92.0369 540.106 92.6151C538.636 86.0194 533.539 81.1542 527.477 81.1542C524.195 81.1542 521.199 82.5819 518.906 84.9378C515.675 81.3784 511.111 79.1562 506.045 79.1562C497.529 79.1562 490.42 85.4334 488.703 93.8068C493.636 95.6514 498.082 98.4832 501.819 102.062H554.582C554.582 101.98 554.59 101.897 554.59 101.81C554.59 96.2295 550.002 91.7105 544.345 91.7105H544.341Z" fill="#23529A"/>
<path d="M554.582 103.009H501.818C501.575 103.009 501.344 102.914 501.167 102.745C497.45 99.1858 493.149 96.4759 488.377 94.6903C487.942 94.5291 487.691 94.0728 487.785 93.6166C489.616 84.6926 497.297 78.2109 506.053 78.2109C510.911 78.2109 515.451 80.1185 518.941 83.5992C521.383 81.4046 524.383 80.205 527.484 80.205C533.538 80.205 538.871 84.7319 540.761 91.3433C541.913 90.9579 543.113 90.7612 544.348 90.7612C550.516 90.7612 555.534 95.7169 555.534 101.809C555.534 101.876 555.534 101.939 555.531 102.006V102.084C555.515 102.596 555.099 103.005 554.586 103.005L554.582 103.009ZM502.195 101.121H553.621C553.26 96.3933 549.237 92.657 544.344 92.657C543.003 92.657 541.709 92.9323 540.494 93.479C540.235 93.593 539.941 93.5891 539.686 93.4593C539.435 93.3334 539.251 93.0975 539.188 92.8221C537.781 86.5096 532.966 82.1007 527.48 82.1007C524.587 82.1007 521.779 83.3435 519.584 85.6011C519.403 85.786 519.16 85.8882 518.894 85.8843C518.635 85.8803 518.388 85.7702 518.215 85.5775C515.012 82.0496 510.691 80.1067 506.053 80.1067C498.446 80.1067 491.734 85.5775 489.808 93.2233C494.4 95.0482 498.56 97.703 502.199 101.125L502.195 101.121Z" fill="#2D425E"/>
<path d="M195.593 157.163V109.149C195.593 100.673 202.443 93.7981 210.896 93.7981H215.554C208.873 84.1898 196.832 78.0346 183.309 78.892C165.904 79.9971 151.804 92.9683 150.616 108.972C150.095 115.98 152 122.556 155.631 128.055C161.442 136.857 164.731 146.867 164.731 157.163H195.593V157.163Z" fill="#FDC52D"/>
<path d="M69.4669 217.998L70.0472 216.735L65.2088 214.501C65.4794 213.164 65.6519 211.819 65.742 210.478H45.5416V174.848L43.9497 174.113L41.7226 178.966C38.4997 178.31 35.2414 178.195 32.0655 178.593L30.2187 173.586L17.2994 178.38L19.1461 183.387C16.4799 185.157 14.0764 187.367 12.0572 189.971L7.21877 187.737L1.4629 200.291L6.30128 202.525C5.64649 205.758 5.53279 209.026 5.9288 212.212L0.9375 214.065L2.38823 217.998H69.4669Z" fill="#FDC52D"/>
<path d="M70.9326 216.404C70.8464 216.168 70.6699 215.979 70.4425 215.873L66.2746 213.949C66.4706 212.836 66.6079 211.692 66.6824 210.539C66.6981 210.28 66.6079 210.024 66.4314 209.831C66.255 209.643 66.0041 209.533 65.7453 209.533H46.4858V174.851C46.4858 174.481 46.2702 174.147 45.9369 173.994L44.345 173.258C43.8706 173.042 43.3138 173.246 43.0943 173.722L41.177 177.903C38.3735 177.4 35.5269 177.29 32.6961 177.573L31.1042 173.258C31.0179 173.022 30.8415 172.833 30.6141 172.727C30.3867 172.621 30.1279 172.613 29.8926 172.7L16.9733 177.494C16.4871 177.675 16.2361 178.218 16.4165 178.709L18.0084 183.024C15.6755 184.656 13.5856 186.595 11.782 188.809L7.61409 186.886C7.14359 186.666 6.5829 186.874 6.36333 187.35L0.607456 199.905C0.501592 200.133 0.49375 200.392 0.58001 200.628C0.666269 200.864 0.84271 201.053 1.07012 201.159L5.23803 203.082C4.73616 205.895 4.62637 208.75 4.90868 211.59L0.607456 213.186C0.121265 213.367 -0.129672 213.91 0.0506888 214.402L1.37987 218.008H3.32464C3.32464 217.898 3.30895 217.788 3.26974 217.682L2.14837 214.634L6.25747 213.108C6.66916 212.954 6.9201 212.541 6.8652 212.105C6.47704 208.978 6.59858 205.82 7.22593 202.725C7.31219 202.296 7.09262 201.859 6.69661 201.678L2.7169 199.842L7.68859 189.006L11.6683 190.843C12.0643 191.028 12.5348 190.91 12.8054 190.564C14.7423 188.07 17.0517 185.927 19.6708 184.184C20.0355 183.94 20.1845 183.48 20.0355 183.067L18.5142 178.945L29.6691 174.808L31.1904 178.93C31.3434 179.343 31.755 179.59 32.1903 179.539C35.3074 179.15 38.4559 179.272 41.5416 179.901C41.969 179.988 42.4003 179.767 42.5846 179.37L44.4156 175.378L44.5999 175.465V210.488C44.5999 211.011 45.0234 211.432 45.5409 211.432H64.718C64.62 212.415 64.4749 213.383 64.2867 214.323C64.2005 214.752 64.42 215.188 64.816 215.369L68.7957 217.206L68.6115 217.611C68.5526 217.741 68.5291 217.875 68.5291 218.004H70.5053L70.9052 217.135C71.011 216.907 71.0189 216.647 70.9326 216.411V216.404Z" fill="#2D425E"/>
<path d="M57.0252 217.997C58.0642 215.656 58.7308 213.12 58.9504 210.48H45.5487V187.339C41.8945 185.636 37.754 184.857 33.4528 185.289C20.6628 186.572 11.3311 198.009 12.6093 210.834C12.8642 213.379 13.5189 215.782 14.4992 217.997H57.0252Z" fill="white"/>
<path d="M59.6416 209.841C59.4652 209.648 59.2103 209.534 58.9476 209.534H46.487V187.336C46.487 186.971 46.2753 186.636 45.942 186.479C42.0211 184.65 37.665 183.915 33.3559 184.347C26.9217 184.992 21.1188 188.111 17.0254 193.134C12.9281 198.152 11.0264 204.473 11.6695 210.931C11.9126 213.369 12.5242 215.745 13.477 217.998H15.4374C15.4374 217.868 15.4139 217.739 15.359 217.613C14.3906 215.43 13.7789 213.117 13.5436 210.738C12.9516 204.783 14.7042 198.958 18.484 194.325C22.2598 189.696 27.6118 186.817 33.5441 186.223C37.3239 185.846 41.135 186.44 44.605 187.946V210.478C44.605 211.001 45.0284 211.422 45.546 211.422H57.9007C57.6223 213.558 57.0381 215.634 56.1638 217.609C56.1089 217.735 56.0814 217.865 56.0854 217.994H58.0458C59.0496 215.627 59.673 213.125 59.8886 210.557C59.9122 210.293 59.822 210.034 59.6416 209.837V209.841Z" fill="#2D425E"/>
<path d="M185.809 190.96C180.617 190.96 176.391 186.284 176.391 180.538C176.391 180.015 176.814 179.594 177.332 179.594C177.849 179.594 178.273 180.015 178.273 180.538C178.273 185.242 181.652 189.072 185.805 189.072C189.957 189.072 193.337 185.246 193.337 180.538C193.337 180.015 193.76 179.594 194.278 179.594C194.795 179.594 195.219 180.015 195.219 180.538C195.219 186.284 190.992 190.96 185.801 190.96H185.809Z" fill="#2D425E"/>
<path d="M180.423 157.828C179.902 157.828 179.482 157.408 179.482 156.885V121.967C174.675 121.397 171.334 120.103 169.515 118.101C168.398 116.87 167.884 115.364 168.033 113.739C168.221 111.674 169.441 108.292 175.467 108.831C177.133 108.98 178.49 109.684 179.502 110.927C181.846 113.818 181.431 118.683 181.368 119.301V120.252C182.689 120.355 184.164 120.414 185.81 120.414C186.332 120.414 186.751 120.834 186.751 121.357C186.751 121.881 186.328 122.301 185.81 122.301C184.226 122.301 182.748 122.25 181.368 122.148V156.885C181.368 157.408 180.945 157.828 180.427 157.828H180.423ZM174.244 110.668C170.205 110.668 169.982 113.082 169.907 113.916C169.805 115.025 170.131 115.977 170.907 116.831C172.013 118.046 174.389 119.434 179.482 120.067V119.253C179.482 119.218 179.482 119.179 179.49 119.143C179.494 119.1 179.992 114.522 178.039 112.119C177.357 111.277 176.459 110.821 175.302 110.715C174.926 110.679 174.573 110.664 174.248 110.664L174.244 110.668Z" fill="#2D425E"/>
<path d="M185.808 122.299C185.287 122.299 184.867 121.878 184.867 121.355C184.867 120.832 185.291 120.411 185.808 120.411C189.517 120.411 192.67 120.112 195.171 119.526C195.677 119.404 196.183 119.723 196.304 120.23C196.422 120.737 196.108 121.245 195.603 121.367C192.96 121.988 189.662 122.303 185.808 122.303V122.299Z" fill="#2D425E"/>
<path d="M191.191 157.831C190.67 157.831 190.25 157.41 190.25 156.887V119.307C190.164 118.477 189.478 110.45 195.104 109.014C195.606 108.884 196.12 109.191 196.249 109.695C196.379 110.202 196.073 110.713 195.571 110.843C191.34 111.925 192.121 119.075 192.128 119.146C192.132 119.181 192.136 119.22 192.136 119.256V156.887C192.136 157.41 191.713 157.831 191.195 157.831H191.191Z" fill="#2D425E"/>
<path d="M137.935 147.875H135.712H133.489L125.992 164.956H135.712H145.432L137.935 147.875Z" fill="#FDC52D"/>
<path d="M247.098 162.086H208.297V180.882H247.098V162.086Z" fill="#23529A"/>
<path d="M286.191 129.898H270.617V145.402H286.191V129.898Z" fill="#FDC52D"/>
<path d="M95.1929 211.431H45.5426C45.0211 211.431 44.6016 211.01 44.6016 210.487V142.202C44.6016 141.679 45.025 141.258 45.5426 141.258H95.1929C95.7144 141.258 96.1339 141.679 96.1339 142.202V210.487C96.1339 211.01 95.7104 211.431 95.1929 211.431ZM46.4836 209.543H94.2519V143.146H46.4836V209.543Z" fill="#2D425E"/>
<path d="M87.6486 147.219H53.0938V154.853H87.6486V147.219Z" fill="#23529A"/>
<path d="M84.7608 165.586C83.165 165.586 81.8672 164.285 81.8672 162.684C81.8672 161.083 83.165 159.781 84.7608 159.781C86.3566 159.781 87.6544 161.083 87.6544 162.684C87.6544 164.285 86.3566 165.586 84.7608 165.586ZM84.7608 161.669C84.204 161.669 83.7492 162.125 83.7492 162.684C83.7492 163.242 84.204 163.699 84.7608 163.699C85.3176 163.699 85.7724 163.242 85.7724 162.684C85.7724 162.125 85.3176 161.669 84.7608 161.669Z" fill="#2D425E"/>
<path d="M75.2764 165.586C73.6806 165.586 72.3828 164.285 72.3828 162.684C72.3828 161.083 73.6806 159.781 75.2764 159.781C76.8722 159.781 78.1701 161.083 78.1701 162.684C78.1701 164.285 76.8722 165.586 75.2764 165.586ZM75.2764 161.669C74.7197 161.669 74.2648 162.125 74.2648 162.684C74.2648 163.242 74.7197 163.699 75.2764 163.699C75.8332 163.699 76.288 163.242 76.288 162.684C76.288 162.125 75.8332 161.669 75.2764 161.669Z" fill="#2D425E"/>
<path d="M65.7999 165.586C64.2041 165.586 62.9062 164.285 62.9062 162.684C62.9062 161.083 64.2041 159.781 65.7999 159.781C67.3957 159.781 68.6935 161.083 68.6935 162.684C68.6935 164.285 67.3957 165.586 65.7999 165.586ZM65.7999 161.669C65.2431 161.669 64.7883 162.125 64.7883 162.684C64.7883 163.242 65.2431 163.699 65.7999 163.699C66.3566 163.699 66.8115 163.242 66.8115 162.684C66.8115 162.125 66.3566 161.669 65.7999 161.669Z" fill="#2D425E"/>
<path d="M84.7608 175.625C83.165 175.625 81.8672 174.324 81.8672 172.723C81.8672 171.122 83.165 169.82 84.7608 169.82C86.3566 169.82 87.6544 171.122 87.6544 172.723C87.6544 174.324 86.3566 175.625 84.7608 175.625ZM84.7608 171.708C84.204 171.708 83.7492 172.164 83.7492 172.723C83.7492 173.281 84.204 173.738 84.7608 173.738C85.3176 173.738 85.7724 173.281 85.7724 172.723C85.7724 172.164 85.3176 171.708 84.7608 171.708Z" fill="#2D425E"/>
<path d="M75.2764 175.625C73.6806 175.625 72.3828 174.324 72.3828 172.723C72.3828 171.122 73.6806 169.82 75.2764 169.82C76.8722 169.82 78.1701 171.122 78.1701 172.723C78.1701 174.324 76.8722 175.625 75.2764 175.625ZM75.2764 171.708C74.7197 171.708 74.2648 172.164 74.2648 172.723C74.2648 173.281 74.7197 173.738 75.2764 173.738C75.8332 173.738 76.288 173.281 76.288 172.723C76.288 172.164 75.8332 171.708 75.2764 171.708Z" fill="#2D425E"/>
<path d="M65.7999 175.625C64.2041 175.625 62.9062 174.324 62.9062 172.723C62.9062 171.122 64.2041 169.82 65.7999 169.82C67.3957 169.82 68.6935 171.122 68.6935 172.723C68.6935 174.324 67.3957 175.625 65.7999 175.625ZM65.7999 171.708C65.2431 171.708 64.7883 172.164 64.7883 172.723C64.7883 173.281 65.2431 173.738 65.7999 173.738C66.3566 173.738 66.8115 173.281 66.8115 172.723C66.8115 172.164 66.3566 171.708 65.7999 171.708Z" fill="#2D425E"/>
<path d="M84.7608 185.665C83.165 185.665 81.8672 184.363 81.8672 182.762C81.8672 181.161 83.165 179.859 84.7608 179.859C86.3566 179.859 87.6544 181.161 87.6544 182.762C87.6544 184.363 86.3566 185.665 84.7608 185.665ZM84.7608 181.747C84.204 181.747 83.7492 182.203 83.7492 182.762C83.7492 183.32 84.204 183.777 84.7608 183.777C85.3176 183.777 85.7724 183.32 85.7724 182.762C85.7724 182.203 85.3176 181.747 84.7608 181.747Z" fill="#2D425E"/>
<path d="M75.2764 185.665C73.6806 185.665 72.3828 184.363 72.3828 182.762C72.3828 181.161 73.6806 179.859 75.2764 179.859C76.8722 179.859 78.1701 181.161 78.1701 182.762C78.1701 184.363 76.8722 185.665 75.2764 185.665ZM75.2764 181.747C74.7197 181.747 74.2648 182.203 74.2648 182.762C74.2648 183.32 74.7197 183.777 75.2764 183.777C75.8332 183.777 76.288 183.32 76.288 182.762C76.288 182.203 75.8332 181.747 75.2764 181.747Z" fill="#2D425E"/>
<path d="M65.7999 185.665C64.2041 185.665 62.9062 184.363 62.9062 182.762C62.9062 181.161 64.2041 179.859 65.7999 179.859C67.3957 179.859 68.6935 181.161 68.6935 182.762C68.6935 184.363 67.3957 185.665 65.7999 185.665ZM65.7999 181.747C65.2431 181.747 64.7883 182.203 64.7883 182.762C64.7883 183.32 65.2431 183.777 65.7999 183.777C66.3566 183.777 66.8115 183.32 66.8115 182.762C66.8115 182.203 66.3566 181.747 65.7999 181.747Z" fill="#2D425E"/>
<path d="M56.3155 185.665C54.7197 185.665 53.4219 184.363 53.4219 182.762C53.4219 181.161 54.7197 179.859 56.3155 179.859C57.9113 179.859 59.2091 181.161 59.2091 182.762C59.2091 184.363 57.9113 185.665 56.3155 185.665ZM56.3155 181.747C55.7587 181.747 55.3039 182.203 55.3039 182.762C55.3039 183.32 55.7587 183.777 56.3155 183.777C56.8723 183.777 57.3271 183.32 57.3271 182.762C57.3271 182.203 56.8723 181.747 56.3155 181.747Z" fill="#2D425E"/>
<path d="M84.7608 195.704C83.165 195.704 81.8672 194.402 81.8672 192.801C81.8672 191.2 83.165 189.898 84.7608 189.898C86.3566 189.898 87.6544 191.2 87.6544 192.801C87.6544 194.402 86.3566 195.704 84.7608 195.704ZM84.7608 191.786C84.204 191.786 83.7492 192.243 83.7492 192.801C83.7492 193.36 84.204 193.816 84.7608 193.816C85.3176 193.816 85.7724 193.36 85.7724 192.801C85.7724 192.243 85.3176 191.786 84.7608 191.786Z" fill="#2D425E"/>
<path d="M75.2764 195.704C73.6806 195.704 72.3828 194.402 72.3828 192.801C72.3828 191.2 73.6806 189.898 75.2764 189.898C76.8722 189.898 78.1701 191.2 78.1701 192.801C78.1701 194.402 76.8722 195.704 75.2764 195.704ZM75.2764 191.786C74.7197 191.786 74.2648 192.243 74.2648 192.801C74.2648 193.36 74.7197 193.816 75.2764 193.816C75.8332 193.816 76.288 193.36 76.288 192.801C76.288 192.243 75.8332 191.786 75.2764 191.786Z" fill="#2D425E"/>
<path d="M65.7999 195.704C64.2041 195.704 62.9062 194.402 62.9062 192.801C62.9062 191.2 64.2041 189.898 65.7999 189.898C67.3957 189.898 68.6935 191.2 68.6935 192.801C68.6935 194.402 67.3957 195.704 65.7999 195.704ZM65.7999 191.786C65.2431 191.786 64.7883 192.243 64.7883 192.801C64.7883 193.36 65.2431 193.816 65.7999 193.816C66.3566 193.816 66.8115 193.36 66.8115 192.801C66.8115 192.243 66.3566 191.786 65.7999 191.786Z" fill="#2D425E"/>
<path d="M56.3155 195.704C54.7197 195.704 53.4219 194.402 53.4219 192.801C53.4219 191.2 54.7197 189.898 56.3155 189.898C57.9113 189.898 59.2091 191.2 59.2091 192.801C59.2091 194.402 57.9113 195.704 56.3155 195.704ZM56.3155 191.786C55.7587 191.786 55.3039 192.243 55.3039 192.801C55.3039 193.36 55.7587 193.816 56.3155 193.816C56.8723 193.816 57.3271 193.36 57.3271 192.801C57.3271 192.243 56.8723 191.786 56.3155 191.786Z" fill="#2D425E"/>
<path d="M65.7999 205.735C64.2041 205.735 62.9062 204.433 62.9062 202.832C62.9062 201.232 64.2041 199.93 65.7999 199.93C67.3957 199.93 68.6935 201.232 68.6935 202.832C68.6935 204.433 67.3957 205.735 65.7999 205.735ZM65.7999 201.818C65.2431 201.818 64.7883 202.274 64.7883 202.832C64.7883 203.391 65.2431 203.847 65.7999 203.847C66.3566 203.847 66.8115 203.391 66.8115 202.832C66.8115 202.274 66.3566 201.818 65.7999 201.818Z" fill="#2D425E"/>
<path d="M56.3155 205.735C54.7197 205.735 53.4219 204.433 53.4219 202.832C53.4219 201.232 54.7197 199.93 56.3155 199.93C57.9113 199.93 59.2091 201.232 59.2091 202.832C59.2091 204.433 57.9113 205.735 56.3155 205.735ZM56.3155 201.818C55.7587 201.818 55.3039 202.274 55.3039 202.832C55.3039 203.391 55.7587 203.847 56.3155 203.847C56.8723 203.847 57.3271 203.391 57.3271 202.832C57.3271 202.274 56.8723 201.818 56.3155 201.818Z" fill="#2D425E"/>
<path d="M59.5358 160.727H53.0938V174.681H59.5358V160.727Z" fill="#FDC52D"/>
<path d="M87.0656 199.273H73.6797V205.46H87.0656V199.273Z" fill="#FDC52D"/>
<path d="M111.397 132.012C111.397 131.489 110.974 131.068 110.456 131.068H103.238L125.999 97.2875L148.76 131.068H141.541C141.02 131.068 140.6 131.489 140.6 132.012V144.854C140.6 145.377 141.024 145.797 141.541 145.797C142.059 145.797 142.482 145.377 142.482 144.854V132.956H150.532C150.881 132.956 151.198 132.763 151.363 132.453C151.528 132.146 151.508 131.768 151.312 131.481L126.779 95.0653C126.603 94.8058 126.312 94.6484 125.999 94.6484C125.685 94.6484 125.395 94.8058 125.219 95.0653L100.685 131.481C100.489 131.772 100.47 132.146 100.635 132.453C100.799 132.763 101.117 132.956 101.466 132.956H109.515V217.996H111.397V132.012V132.012Z" fill="#2D425E"/>
<path d="M145.438 217.994V164.953H125.998V217.994H145.438Z" fill="#FDC52D"/>
<path d="M146.377 164.952C146.377 164.429 145.953 164.008 145.436 164.008H125.996C125.474 164.008 125.055 164.429 125.055 164.952V217.993H126.937V165.896H144.491V217.993H146.373V164.952H146.377Z" fill="#2D425E"/>
<path d="M132.835 170.71C132.835 170.186 132.412 169.766 131.894 169.766C131.377 169.766 130.953 170.186 130.953 170.71V217.992H132.835V170.71V170.71Z" fill="#2D425E"/>
<path d="M139.702 186.444C139.702 185.921 139.279 185.5 138.761 185.5C138.244 185.5 137.82 185.921 137.82 186.444V218.003H139.702V186.444V186.444Z" fill="#2D425E"/>
<path d="M137.643 148.814H133.773C133.303 148.814 132.903 148.464 132.84 147.996C132.816 147.843 132.805 147.725 132.805 147.603V143.434C132.805 141.829 134.106 140.523 135.71 140.523C137.314 140.523 138.612 141.829 138.612 143.434V147.603C138.612 147.725 138.6 147.839 138.58 147.957C138.517 148.425 138.114 148.814 137.643 148.814V148.814ZM134.687 146.926H136.726V143.438C136.726 142.875 136.267 142.415 135.706 142.415C135.145 142.415 134.687 142.875 134.687 143.438V146.926V146.926Z" fill="#2D425E"/>
<path d="M176.56 210.078C176.039 210.078 175.619 209.657 175.619 209.134C175.619 198.385 166.903 189.638 156.183 189.638C155.662 189.638 155.242 189.217 155.242 188.694C155.242 188.171 155.666 187.75 156.183 187.75C167.938 187.75 177.501 197.343 177.501 209.134C177.501 209.657 177.078 210.078 176.56 210.078V210.078Z" fill="#2D425E"/>
<path d="M166.856 210.078C166.334 210.078 165.915 209.657 165.915 209.134C165.915 203.75 161.551 199.372 156.183 199.372C155.662 199.372 155.242 198.951 155.242 198.428C155.242 197.905 155.666 197.484 156.183 197.484C162.586 197.484 167.797 202.711 167.797 209.134C167.797 209.657 167.373 210.078 166.856 210.078V210.078Z" fill="#2D425E"/>
<path d="M196.534 109.15C196.534 101.209 202.976 94.7472 210.893 94.7472H227.953C228.474 94.7472 228.894 94.3264 228.894 93.8033C228.894 93.2802 228.47 92.8594 227.953 92.8594H210.893C201.937 92.8594 194.648 100.167 194.648 109.154V218.004H196.53V109.154L196.534 109.15Z" fill="#2D425E"/>
<path d="M313.64 109.146C313.64 100.163 306.355 92.8516 297.396 92.8516H246.769C246.248 92.8516 245.828 93.2724 245.828 93.7955C245.828 94.3186 246.252 94.7394 246.769 94.7394H297.396C305.312 94.7394 311.754 101.201 311.754 109.142V217.993H313.636V109.142L313.64 109.146Z" fill="#2D425E"/>
<path d="M195.597 157.164H162.512C161.316 157.164 160.344 158.136 160.344 159.339V162.784C160.344 163.984 161.312 164.959 162.512 164.959H195.597V157.168V157.164Z" fill="#F0F1F7"/>
<path d="M195.592 165.902H162.508C160.794 165.902 159.398 164.502 159.398 162.783V159.338C159.398 157.619 160.794 156.219 162.508 156.219H195.592C196.114 156.219 196.533 156.64 196.533 157.163V164.954C196.533 165.477 196.11 165.898 195.592 165.898V165.902ZM162.508 158.111C161.833 158.111 161.284 158.661 161.284 159.338V162.783C161.284 163.459 161.833 164.01 162.508 164.01H194.651V158.107H162.508V158.111Z" fill="#2D425E"/>
<path d="M195.597 173.691H167.437C165.724 173.691 164.328 172.291 164.328 170.572V167.127C164.328 165.408 165.724 164.008 167.437 164.008H195.597C196.119 164.008 196.538 164.429 196.538 164.952V172.747C196.538 173.27 196.115 173.691 195.597 173.691V173.691ZM167.437 165.9C166.763 165.9 166.214 166.45 166.214 167.127V170.572C166.214 171.249 166.763 171.799 167.437 171.799H194.656V165.896H167.437V165.9Z" fill="#2D425E"/>
<path d="M195.597 172.75H172.934C171.738 172.75 170.766 173.721 170.766 174.925V178.37C170.766 179.57 171.734 180.545 172.934 180.545H195.597V172.754V172.75Z" fill="#F0F1F7"/>
<path d="M195.592 181.488H172.93C171.216 181.488 169.82 180.088 169.82 178.369V174.924C169.82 173.205 171.216 171.805 172.93 171.805H195.592C196.114 171.805 196.533 172.226 196.533 172.749V180.54C196.533 181.063 196.11 181.484 195.592 181.484V181.488ZM172.93 173.696C172.255 173.696 171.706 174.247 171.706 174.924V178.369C171.706 179.045 172.255 179.596 172.93 179.596H194.651V173.693H172.93V173.696Z" fill="#2D425E"/>
<path d="M312.699 118.161H195.597C195.076 118.161 194.656 117.74 194.656 117.217C194.656 116.694 195.08 116.273 195.597 116.273H312.699C313.22 116.273 313.64 116.698 313.64 117.217C313.64 117.737 313.216 118.161 312.699 118.161Z" fill="#2D425E"/>
<path d="M299.991 154.103H208.3C207.779 154.103 207.359 153.682 207.359 153.159V124.499C207.359 123.976 207.783 123.555 208.3 123.555H299.991C300.512 123.555 300.932 123.979 300.932 124.499V153.159C300.932 153.682 300.508 154.103 299.991 154.103ZM209.241 152.215H299.05V125.443H209.241V152.215Z" fill="#2D425E"/>
<path d="M258.674 131.669H216.168C215.646 131.669 215.227 131.248 215.227 130.725C215.227 130.202 215.65 129.781 216.168 129.781H258.674C259.195 129.781 259.615 130.202 259.615 130.725C259.615 131.248 259.192 131.669 258.674 131.669Z" fill="#2D425E"/>
<path d="M239.932 138.599H216.16C215.638 138.599 215.219 138.178 215.219 137.655C215.219 137.132 215.642 136.711 216.16 136.711H239.932C240.454 136.711 240.873 137.132 240.873 137.655C240.873 138.178 240.45 138.599 239.932 138.599Z" fill="#2D425E"/>
<path d="M250.119 145.528H216.16C215.638 145.528 215.219 145.108 215.219 144.585C215.219 144.061 215.642 143.641 216.16 143.641H250.119C250.64 143.641 251.06 144.061 251.06 144.585C251.06 145.108 250.636 145.528 250.119 145.528Z" fill="#2D425E"/>
<path d="M220.362 166.961H212.281V176.007H220.362V166.961Z" fill="white"/>
<path d="M220.358 176.949H212.277C211.755 176.949 211.336 176.529 211.336 176.006V166.96C211.336 166.436 211.759 166.016 212.277 166.016H220.358C220.879 166.016 221.299 166.436 221.299 166.96V176.006C221.299 176.529 220.875 176.949 220.358 176.949ZM213.218 175.062H219.413V167.907H213.218V175.062Z" fill="#2D425E"/>
<path d="M299.989 162.086H261.188V180.882H299.989V162.086Z" fill="#FDC52D"/>
<path d="M273.253 166.961H265.172V176.007H273.253V166.961Z" fill="white"/>
<path d="M273.249 176.949H265.168C264.646 176.949 264.227 176.529 264.227 176.006V166.96C264.227 166.436 264.65 166.016 265.168 166.016H273.249C273.77 166.016 274.19 166.436 274.19 166.96V176.006C274.19 176.529 273.766 176.949 273.249 176.949ZM266.109 175.062H272.304V167.907H266.109V175.062Z" fill="#2D425E"/>
<path d="M300.932 190.022C300.932 189.499 300.508 189.078 299.991 189.078H208.3C207.779 189.078 207.359 189.499 207.359 190.022V218.002H209.241V190.966H299.05V218.002H300.932V190.022Z" fill="#2D425E"/>
<path d="M238.532 210.078H220.363C219.841 210.078 219.422 209.657 219.422 209.134V196.741C219.422 196.218 219.845 195.797 220.363 195.797H238.532C239.054 195.797 239.473 196.218 239.473 196.741V209.134C239.473 209.657 239.05 210.078 238.532 210.078ZM221.304 208.19H237.591V197.685H221.304V208.19Z" fill="#2D425E"/>
<path d="M258.265 197.685H244.683C244.162 197.685 243.742 197.264 243.742 196.741C243.742 196.218 244.166 195.797 244.683 195.797H258.265C258.787 195.797 259.206 196.218 259.206 196.741C259.206 197.264 258.783 197.685 258.265 197.685Z" fill="#2D425E"/>
<path d="M258.265 203.88H244.683C244.162 203.88 243.742 203.459 243.742 202.936C243.742 202.413 244.166 201.992 244.683 201.992H258.265C258.787 201.992 259.206 202.413 259.206 202.936C259.206 203.459 258.783 203.88 258.265 203.88Z" fill="#2D425E"/>
<path d="M258.265 210.075H244.683C244.162 210.075 243.742 209.655 243.742 209.131C243.742 208.608 244.166 208.188 244.683 208.188H258.265C258.787 208.188 259.206 208.608 259.206 209.131C259.206 209.655 258.783 210.075 258.265 210.075Z" fill="#2D425E"/>
<path d="M283.304 212.06C287.735 210.219 289.839 205.123 288.004 200.678C286.168 196.233 281.088 194.122 276.657 195.963C272.225 197.804 270.121 202.9 271.956 207.345C273.792 211.79 278.872 213.901 283.304 212.06Z" fill="#FDC52D"/>
<path d="M279.98 210.311C279.459 210.311 279.039 209.89 279.039 209.367V198.319C279.039 197.796 279.463 197.375 279.98 197.375C280.498 197.375 280.921 197.796 280.921 198.319V209.367C280.921 209.89 280.498 210.311 279.98 210.311Z" fill="#2D425E"/>
<path d="M285.494 204.786H274.48C273.959 204.786 273.539 204.365 273.539 203.842C273.539 203.319 273.963 202.898 274.48 202.898H285.494C286.015 202.898 286.435 203.319 286.435 203.842C286.435 204.365 286.011 204.786 285.494 204.786Z" fill="#2D425E"/>
<path d="M329.659 70.681C325.695 70.681 321.793 69.4263 318.417 66.9918C313.265 63.2711 310.188 57.2536 310.188 50.8978V27.2642C310.188 26.7411 310.611 26.3203 311.129 26.3203C311.646 26.3203 312.07 26.7411 312.07 27.2642V50.8978C312.07 56.7305 314.783 62.0401 319.515 65.4579C324.126 68.7892 329.827 69.6741 335.16 67.8846C337.112 67.2317 338.602 66.3428 339.586 65.2494C339.935 64.864 340.531 64.8325 340.916 65.1826C341.3 65.5326 341.331 66.1304 340.982 66.5159C339.775 67.857 338.018 68.919 335.756 69.678C333.748 70.3506 331.694 70.6849 329.655 70.6849L329.659 70.681Z" fill="#2D425E"/>
<path d="M278.351 72.3951C278.084 72.3951 277.822 72.2849 277.637 72.0686L258.174 49.3908C257.833 48.9935 257.88 48.3996 258.272 48.0575C258.664 47.7153 259.26 47.7625 259.601 48.1558L279.064 70.8336C279.406 71.2309 279.359 71.8248 278.966 72.1669C278.79 72.3203 278.57 72.3951 278.351 72.3951V72.3951Z" fill="#2D425E"/>
<path d="M235.122 104.21C233.855 104.21 232.828 103.18 232.828 101.909V93.4336C232.828 92.1633 233.855 91.1328 235.122 91.1328C236.388 91.1328 237.416 92.1633 237.416 93.4336V101.909C237.416 103.18 236.388 104.21 235.122 104.21Z" fill="white"/>
<path d="M235.125 105.16C233.341 105.16 231.891 103.705 231.891 101.916V93.4401C231.891 91.6505 233.341 90.1953 235.125 90.1953C236.909 90.1953 238.36 91.6505 238.36 93.4401V101.916C238.36 103.705 236.909 105.16 235.125 105.16ZM235.125 92.0832C234.38 92.0832 233.773 92.6928 233.773 93.4401V101.916C233.773 102.663 234.38 103.273 235.125 103.273C235.87 103.273 236.478 102.663 236.478 101.916V93.4401C236.478 92.6928 235.87 92.0832 235.125 92.0832Z" fill="#2D425E"/>
<path d="M239.716 105.787C238.449 105.787 237.422 104.757 237.422 103.486V93.4415C237.422 92.1711 238.449 91.1406 239.716 91.1406C240.982 91.1406 242.009 92.1711 242.009 93.4415V103.486C242.009 104.757 240.982 105.787 239.716 105.787Z" fill="white"/>
<path d="M239.711 106.73C237.927 106.73 236.477 105.275 236.477 103.485V93.4401C236.477 91.6505 237.927 90.1953 239.711 90.1953C241.495 90.1953 242.946 91.6505 242.946 93.4401V103.485C242.946 105.275 241.495 106.73 239.711 106.73ZM239.711 92.0871C238.966 92.0871 238.359 92.6967 238.359 93.444V103.489C238.359 104.236 238.966 104.846 239.711 104.846C240.456 104.846 241.064 104.236 241.064 103.489V93.444C241.064 92.6967 240.456 92.0871 239.711 92.0871Z" fill="#2D425E"/>
<path d="M244.294 104.651C243.027 104.651 242 103.62 242 102.35V93.4414C242 92.1711 243.027 91.1406 244.294 91.1406C245.56 91.1406 246.587 92.1711 246.587 93.4414V102.35C246.587 103.62 245.56 104.651 244.294 104.651Z" fill="white"/>
<path d="M244.297 105.593C242.513 105.593 241.062 104.138 241.062 102.348V93.4401C241.062 91.6505 242.513 90.1953 244.297 90.1953C246.081 90.1953 247.532 91.6505 247.532 93.4401V102.348C247.532 104.138 246.081 105.593 244.297 105.593ZM244.297 92.0832C243.552 92.0832 242.945 92.6928 242.945 93.4401V102.348C242.945 103.096 243.552 103.705 244.297 103.705C245.042 103.705 245.65 103.096 245.65 102.348V93.4401C245.65 92.6928 245.042 92.0832 244.297 92.0832Z" fill="#2D425E"/>
<path d="M230.544 102.448C229.277 102.448 228.25 101.418 228.25 100.147V93.4336C228.25 92.1633 229.277 91.1328 230.544 91.1328C231.81 91.1328 232.837 92.1633 232.837 93.4336V100.147C232.837 101.418 231.81 102.448 230.544 102.448Z" fill="white"/>
<path d="M230.539 103.398C228.755 103.398 227.305 101.943 227.305 100.154V93.4401C227.305 91.6505 228.755 90.1953 230.539 90.1953C232.323 90.1953 233.774 91.6505 233.774 93.4401V100.154C233.774 101.943 232.323 103.398 230.539 103.398ZM230.539 92.0832C229.794 92.0832 229.187 92.6928 229.187 93.4401V100.154C229.187 100.901 229.794 101.511 230.539 101.511C231.284 101.511 231.892 100.901 231.892 100.154V93.4401C231.892 92.6928 231.284 92.0832 230.539 92.0832V92.0832Z" fill="#2D425E"/>
<path d="M259.901 105.161H250.652C250.13 105.161 249.711 104.74 249.711 104.217C249.711 103.694 250.134 103.273 250.652 103.273H259.901C260.423 103.273 260.842 103.694 260.842 104.217C260.842 104.74 260.419 105.161 259.901 105.161Z" fill="#2D425E"/>
<path d="M342.111 42.8085C342.181 39.4497 341.087 36.1539 338.954 33.6446C336.441 30.6948 332.148 27.7529 325.039 27.863C310.9 28.0833 301.047 27.7568 300.424 15.4307C299.796 3.1046 305.431 0.9375 305.431 0.9375C305.431 0.9375 303.145 8.41026 318.785 8.41026C334.426 8.41026 354.442 7.18708 355.442 27.8591V56.3578C355.442 57.9743 354.191 59.2879 352.646 59.2879C351.011 59.2879 349.686 57.8996 349.686 56.1848V44.2244C349.686 42.84 348.615 41.7191 347.294 41.7191C346.196 41.7191 345.306 42.6512 345.306 43.7997C345.306 44.7515 344.573 45.5184 343.663 45.5184C342.781 45.5184 342.068 44.7554 342.087 43.8311L342.107 42.8046L342.111 42.8085Z" fill="#23529A"/>
<path d="M352.646 60.2382C350.494 60.2382 348.745 58.4211 348.745 56.1911V44.2307C348.745 43.3694 348.094 42.6693 347.294 42.6693C346.718 42.6693 346.251 43.1806 346.251 43.806C346.251 45.2769 345.091 46.4726 343.667 46.4726C342.997 46.4726 342.366 46.2051 341.891 45.7174C341.405 45.2179 341.135 44.5257 341.15 43.8178L341.17 42.7913C341.236 39.5898 340.193 36.5574 338.237 34.2605C335.155 30.6421 330.846 28.8093 325.423 28.8093C325.302 28.8093 325.176 28.8093 325.055 28.8093C323.839 28.829 322.408 28.8487 320.985 28.8487C309.595 28.8487 300.114 27.8418 299.487 15.4842C298.836 2.62322 304.843 0.161145 305.098 0.062819C305.435 -0.066971 305.815 0.00775655 306.078 0.255537C306.341 0.503318 306.442 0.876956 306.337 1.22306C306.321 1.27419 305.937 2.70188 307.027 4.1453C308.172 5.66345 311.14 7.47265 318.789 7.47265C319.609 7.47265 320.436 7.47265 321.275 7.46478C322.134 7.46478 323 7.45691 323.875 7.45691C330.928 7.45691 338.974 7.67716 345.161 10.332C352.293 13.3919 355.963 19.1105 356.387 27.8182C356.387 27.8339 356.387 27.8497 356.387 27.8654V56.3641C356.387 58.4998 354.713 60.2382 352.65 60.2382H352.646ZM347.294 40.7775C349.133 40.7775 350.627 42.3272 350.627 44.2307V56.1911C350.627 57.3828 351.533 58.3503 352.646 58.3503C353.67 58.3503 354.501 57.4615 354.501 56.3681V27.8929C353.658 10.7685 339.531 9.35264 323.871 9.35264C323 9.35264 322.134 9.35263 321.279 9.3605C320.436 9.3605 319.605 9.36837 318.785 9.36837C311.975 9.36837 307.501 7.98001 305.482 5.23869C304.874 4.41275 304.58 3.57895 304.458 2.8592C303.027 4.36949 300.988 7.86988 301.369 15.3938C301.867 25.1752 308.364 26.9647 320.989 26.9647C322.4 26.9647 323.824 26.9451 325.031 26.9254C332.732 26.8035 337.257 30.1977 339.676 33.0373C341.934 35.6882 343.134 39.1689 343.06 42.8345L343.04 43.861C343.036 44.0656 343.111 44.2583 343.244 44.3999C343.362 44.5218 343.515 44.5887 343.671 44.5887C344.056 44.5887 344.373 44.2386 344.373 43.8138C344.373 42.1462 345.687 40.7854 347.302 40.7854L347.294 40.7775Z" fill="#2D425E"/>
<path d="M333.777 88.7928C333.75 88.7928 333.726 88.7928 333.699 88.7928C333.416 88.7692 333.158 88.6197 332.997 88.3838C330.856 85.2295 327.292 80.5492 326.069 80.03C325.72 79.8805 325.492 79.5384 325.492 79.1608V69.7412C325.492 69.2181 325.916 68.7973 326.433 68.7973C326.951 68.7973 327.374 69.2181 327.374 69.7412V78.6259C329.315 80.0025 332.42 84.2619 333.887 86.3622L346.414 73.1472V65.6941C346.414 65.6666 346.414 65.6351 346.418 65.6076C346.877 60.711 349.265 57.4465 349.367 57.3089C349.676 56.892 350.268 56.8055 350.684 57.1162C351.1 57.4269 351.186 58.0208 350.876 58.4377C350.829 58.5006 348.712 61.4425 348.296 65.7413V73.5287C348.296 73.7725 348.202 74.0046 348.037 74.1777L334.455 88.5096C334.275 88.6984 334.028 88.8046 333.773 88.8046L333.777 88.7928Z" fill="#2D425E"/>
<path d="M337.949 17.0598C337.769 17.0598 337.589 17.0086 337.432 16.9024C334.362 14.8651 327.853 14.987 320.964 15.1129C319.501 15.1404 318 15.168 316.486 15.1798C307.025 15.2427 304.7 11.1799 304.606 11.0068C304.359 10.5467 304.528 9.97637 304.982 9.72465C305.433 9.47687 306.002 9.64206 306.253 10.0904C306.304 10.173 308.296 13.2919 316.271 13.2919C316.337 13.2919 316.404 13.2919 316.471 13.2919C317.976 13.284 319.466 13.2526 320.925 13.229C328.429 13.0874 334.907 12.9694 338.467 15.3292C338.902 15.6163 339.02 16.2024 338.733 16.6389C338.553 16.9142 338.251 17.0637 337.945 17.0637L337.949 17.0598Z" fill="#2D425E"/>
<path d="M341.112 98.2654H341.088C340.806 98.2576 340.539 98.1238 340.367 97.8996L333.627 89.1998L324.381 96.9675C324.158 97.1563 323.864 97.231 323.581 97.1681C323.299 97.1091 323.056 96.9203 322.93 96.6568C322.793 96.3736 319.555 89.7071 318.774 87.9058L318.712 87.7603C317.923 85.9511 316.606 82.9266 320.872 79.7251C324.35 77.1136 326.624 78.1834 326.871 78.3132C327.33 78.557 327.51 79.1273 327.267 79.5875C327.028 80.0437 326.471 80.2207 326.016 79.9926C325.922 79.9493 324.483 79.3711 322.001 81.2354C318.931 83.5402 319.664 85.2196 320.441 87.0012L320.507 87.1507C321.084 88.484 323.126 92.7199 324.103 94.7375L333.172 87.1153C333.368 86.9501 333.623 86.8714 333.878 86.899C334.132 86.9265 334.364 87.0563 334.521 87.2608L341.151 95.8191L356.983 77.1922C354.847 75.3359 350.467 72.3822 347.922 74.27C347.503 74.5807 346.915 74.4903 346.605 74.0734C346.295 73.6525 346.385 73.0626 346.801 72.7519C351.51 69.2593 358.646 76.1421 358.948 76.4371C359.305 76.7832 359.328 77.3496 359.007 77.7271L341.833 97.9311C341.653 98.1435 341.39 98.2615 341.116 98.2615L341.112 98.2654Z" fill="#2D425E"/>
<path d="M303.987 96.2317C303.893 96.2317 303.795 96.2159 303.697 96.1845C303.207 96.0232 302.937 95.5041 303.09 95.0124C303.152 94.8079 303.787 92.9633 306.532 90.9417C309.069 89.0775 319.581 80.8417 319.687 80.7552C320.098 80.4327 320.687 80.5074 321.008 80.9204C321.33 81.3294 321.255 81.9233 320.847 82.2458C320.412 82.5841 310.206 90.5838 307.65 92.4638C305.407 94.1157 304.893 95.567 304.885 95.5827C304.752 95.976 304.383 96.2277 303.987 96.2277V96.2317Z" fill="#2D425E"/>
<path d="M402.628 152.694C402.479 152.694 402.33 152.659 402.192 152.588C401.694 152.329 389.849 146.052 375.53 129.663C369.484 122.741 366.849 112.806 367.908 100.932C368.704 92.0314 371.241 85.2745 371.347 84.9913C371.531 84.5036 372.076 84.2597 372.562 84.4446C373.048 84.6294 373.291 85.1761 373.107 85.6638C373.005 85.9313 363.125 112.601 376.946 128.42C389.869 143.216 400.965 149.749 402.796 150.771L409.509 149.725C410.026 149.646 410.505 149.996 410.583 150.512C410.662 151.027 410.313 151.511 409.799 151.589L402.773 152.687C402.726 152.694 402.675 152.698 402.628 152.698V152.694Z" fill="#2D425E"/>
<path d="M378.742 215.654C378.546 215.654 378.346 215.591 378.178 215.465L367.423 207.359C367.015 207.052 366.925 206.474 367.223 206.057L374.582 195.678C374.884 195.253 375.472 195.155 375.896 195.454C376.319 195.757 376.417 196.347 376.119 196.771L369.293 206.403L379.315 213.955C379.73 214.27 379.813 214.859 379.503 215.276C379.319 215.524 379.036 215.654 378.75 215.654H378.742Z" fill="#2D425E"/>
<path d="M383.504 215.654C383.319 215.654 383.135 215.599 382.974 215.489C382.543 215.194 382.433 214.608 382.727 214.175L388.581 205.562C388.875 205.129 389.459 205.019 389.891 205.314C390.322 205.609 390.432 206.195 390.138 206.627L384.284 215.241C384.104 215.508 383.806 215.654 383.504 215.654Z" fill="#2D425E"/>
<path d="M376.918 190.964C376.546 190.964 376.197 190.744 376.048 190.378C369.21 173.631 375.06 130.726 375.315 128.909C375.385 128.394 375.864 128.032 376.377 128.103C376.891 128.173 377.252 128.653 377.181 129.168C377.118 129.609 371.147 173.388 377.793 189.662C377.989 190.146 377.757 190.697 377.279 190.893C377.161 190.941 377.04 190.964 376.922 190.964H376.918Z" fill="#2D425E"/>
<path d="M366.562 179.635C366.119 179.635 365.723 179.32 365.636 178.868C363.139 165.723 366.891 132.049 367.052 130.621C367.111 130.102 367.577 129.728 368.095 129.787C368.612 129.846 368.985 130.314 368.926 130.834C368.887 131.18 365.048 165.649 367.491 178.518C367.589 179.029 367.252 179.524 366.742 179.623C366.683 179.635 366.624 179.639 366.566 179.639L366.562 179.635Z" fill="#2D425E"/>
<path d="M389.361 207.045C389.208 207.045 389.055 207.009 388.914 206.931C383.248 203.879 378.002 200.079 373.328 195.647L373.101 195.43C372.768 195.112 372.709 194.6 372.967 194.215L401.853 151.223C402.143 150.79 402.727 150.676 403.158 150.967C403.59 151.259 403.703 151.845 403.413 152.277L374.975 194.604C379.28 198.632 384.068 202.109 389.224 204.948C400.555 194.522 418.728 165.091 424.092 156.214C424.817 155.015 424.806 153.532 424.065 152.34C408.35 127.133 389.227 98.4458 382.703 93.5374C374.657 87.4844 362.554 80.5859 358.911 78.5446C357.253 85.0774 348.807 114.638 331.775 114.638C331.68 114.638 331.586 114.638 331.492 114.638C327.195 114.555 323.784 112.978 321.353 109.95C314.589 101.529 317.781 84.8375 317.918 84.1295C318.02 83.6183 318.514 83.2839 319.024 83.3862C319.534 83.4885 319.867 83.984 319.765 84.4953C319.734 84.6605 316.605 101.034 322.819 108.766C324.886 111.334 327.814 112.675 331.524 112.746C348.94 113.073 357.284 77.2703 357.366 76.9085C357.433 76.6214 357.629 76.3775 357.896 76.2556C358.166 76.1337 358.476 76.1455 358.735 76.2871C358.888 76.3697 374.206 84.7824 383.832 92.0231C392.305 98.3947 417.987 139.031 425.66 151.333C426.782 153.131 426.797 155.372 425.704 157.186C420.23 166.247 401.472 196.614 389.984 206.797C389.808 206.954 389.584 207.033 389.361 207.033V207.045Z" fill="#2D425E"/>
<path d="M330.986 121.535C321.277 121.535 314.659 117.107 311.808 108.682C311.64 108.187 311.906 107.652 312.397 107.483C312.891 107.314 313.424 107.577 313.592 108.073C316.278 116.014 322.422 119.888 331.88 119.628C352.633 119.03 359.032 92.8204 359.094 92.5569C359.212 92.0496 359.726 91.7349 360.228 91.8529C360.733 91.9709 361.047 92.4822 360.929 92.9896C360.863 93.2727 359.251 100.018 354.911 106.94C349.1 116.21 341.152 121.252 331.934 121.516C331.617 121.524 331.299 121.532 330.989 121.532L330.986 121.535Z" fill="#2D425E"/>
<path d="M311.222 103.513C310.744 103.513 310.336 103.148 310.285 102.66C309.556 95.2974 311.144 87.9505 311.21 87.6397C311.324 87.1324 311.822 86.8099 312.332 86.92C312.841 87.0341 313.159 87.5375 313.049 88.0448C313.033 88.1196 311.457 95.4153 312.159 102.471C312.21 102.99 311.834 103.454 311.316 103.506C311.285 103.506 311.253 103.51 311.222 103.51V103.513Z" fill="#2D425E"/>
<path d="M409.653 139.225C409.331 139.225 409.018 139.06 408.845 138.765C408.798 138.687 404.14 130.895 395.941 119.895C387.225 108.206 378.141 98.4203 378.05 98.322C377.694 97.9405 377.717 97.3427 378.097 96.9887C378.478 96.6308 379.074 96.6544 379.427 97.0359C379.517 97.1342 388.672 106.994 397.447 118.766C405.712 129.853 410.413 137.719 410.461 137.798C410.727 138.246 410.582 138.824 410.135 139.092C409.982 139.182 409.818 139.225 409.653 139.225V139.225Z" fill="#2D425E"/>
<path d="M337.211 195.292C324.95 195.292 316.391 193.338 316.226 193.298C315.897 193.22 315.634 192.968 315.536 192.641L311.788 179.733C311.643 179.234 311.929 178.707 312.427 178.561C312.929 178.416 313.45 178.703 313.595 179.206L317.187 191.576C321.363 192.437 349.287 197.515 375.432 185.845C375.906 185.633 376.463 185.845 376.675 186.325C376.886 186.801 376.675 187.359 376.196 187.572C362.501 193.688 348.33 195.296 337.207 195.296L337.211 195.292Z" fill="#2D425E"/>
<path d="M316.444 211.349C316.369 211.349 316.299 211.341 316.224 211.321C315.718 211.199 315.405 210.692 315.526 210.184C316.342 206.759 315.51 192.58 315.503 192.439C315.471 191.92 315.867 191.471 316.385 191.44C316.902 191.404 317.349 191.805 317.381 192.325C317.416 192.918 318.239 206.928 317.357 210.621C317.255 211.054 316.867 211.345 316.444 211.345V211.349Z" fill="#2D425E"/>
<path d="M338.823 209.892C326.018 209.892 316.78 207.914 316.623 207.882C316.113 207.772 315.792 207.269 315.906 206.757C316.015 206.246 316.517 205.927 317.027 206.038C317.294 206.097 343.799 211.756 369.175 203.631C369.669 203.473 370.198 203.745 370.359 204.244C370.516 204.74 370.245 205.275 369.747 205.432C358.961 208.885 347.983 209.896 338.823 209.896V209.892Z" fill="#2D425E"/>
<path d="M321.91 205.94C321.388 205.94 320.969 205.52 320.969 204.997V196.694C320.969 196.171 321.392 195.75 321.91 195.75C322.427 195.75 322.851 196.171 322.851 196.694V204.997C322.851 205.52 322.427 205.94 321.91 205.94Z" fill="#2D425E"/>
<path d="M329.558 206.878C329.037 206.878 328.617 206.457 328.617 205.934V197.631C328.617 197.108 329.041 196.688 329.558 196.688C330.076 196.688 330.499 197.108 330.499 197.631V205.934C330.499 206.457 330.08 206.878 329.558 206.878Z" fill="#2D425E"/>
<path d="M337.207 206.878C336.685 206.878 336.266 206.457 336.266 205.934V197.631C336.266 197.108 336.685 196.688 337.207 196.688C337.728 196.688 338.148 197.108 338.148 197.631V205.934C338.148 206.457 337.728 206.878 337.207 206.878Z" fill="#2D425E"/>
<path d="M344.855 206.878C344.334 206.878 343.914 206.457 343.914 205.934V197.631C343.914 197.108 344.334 196.688 344.855 196.688C345.377 196.688 345.796 197.108 345.796 197.631V205.934C345.796 206.457 345.377 206.878 344.855 206.878Z" fill="#2D425E"/>
<path d="M352.511 205.94C351.99 205.94 351.57 205.52 351.57 204.997V196.694C351.57 196.171 351.99 195.75 352.511 195.75C353.033 195.75 353.452 196.171 353.452 196.694V204.997C353.452 205.52 353.033 205.94 352.511 205.94Z" fill="#2D425E"/>
<path d="M360.16 204.534C359.638 204.534 359.219 204.113 359.219 203.59V195.288C359.219 194.765 359.638 194.344 360.16 194.344C360.681 194.344 361.101 194.769 361.101 195.288V203.59C361.101 204.113 360.681 204.534 360.16 204.534Z" fill="#2D425E"/>
<path d="M367.808 202.183C367.287 202.183 366.867 201.762 366.867 201.239V192.936C366.867 192.413 367.287 191.992 367.808 191.992C368.33 191.992 368.749 192.413 368.749 192.936V201.239C368.749 201.762 368.33 202.183 367.808 202.183Z" fill="#2D425E"/>
<path d="M475.313 92.3348C474.792 92.3348 474.372 91.914 474.372 91.3909V53.0832H379.687V89.5581C379.687 90.0812 379.267 90.502 378.746 90.502C378.224 90.502 377.805 90.0812 377.805 89.5581V52.1392C377.805 51.6162 378.224 51.1953 378.746 51.1953H475.317C475.839 51.1953 476.258 51.6162 476.258 52.1392V91.3909C476.258 91.914 475.839 92.3348 475.317 92.3348H475.313Z" fill="#2D425E"/>
<path d="M475.597 155.246C475.087 155.246 474.593 155.136 474.311 155.073C473.837 154.967 473.48 154.931 473.162 154.896C471.845 154.758 471.233 154.53 469.539 152.532C468.834 151.702 468.32 150.806 467.865 150.011C466.697 147.97 466.422 147.781 465.434 148.296C462.388 149.893 460.823 149.205 460.541 149.052C460.192 148.859 459.988 148.556 460.047 148.167C460.031 148.021 459.866 147.085 458.149 146.118C457.161 145.559 456.926 145.838 456.236 146.672C455.836 147.152 455.385 147.695 454.707 147.966C454.467 148.064 454.169 148.359 453.911 148.623C453.409 149.13 452.785 149.756 451.911 149.559C451.005 149.354 450.543 148.355 450.209 147.404C449.645 145.791 449.723 144.682 449.805 144.029C449.602 144.017 449.445 144.006 449.327 143.998C449.296 143.998 449.268 143.994 449.245 143.994C448.994 144.143 448.621 144.32 447.892 144.564C445.465 145.378 444.246 144.725 444.022 144.588C443.975 144.56 443.932 144.525 443.893 144.489C443.375 144.017 438.898 139.785 440.838 136.383C441.395 135.404 442.16 134.448 442.83 133.603C443.434 132.844 444.332 131.719 444.402 131.266C444.383 131.255 444.355 131.239 444.316 131.223C442.356 130.381 442.481 129.005 442.567 128.002C442.615 127.467 442.666 126.913 442.489 126.283C442.462 126.189 442.117 126.094 441.544 126.169C439.741 126.409 437.898 127.79 437.894 128.427C437.89 128.946 437.466 129.363 436.953 129.363H436.941C436.42 129.359 436.004 128.93 436.008 128.407C436.031 126.323 439.156 124.58 441.297 124.297C443.614 123.99 444.187 125.351 444.304 125.776C444.571 126.74 444.501 127.534 444.446 128.171C444.363 129.107 444.355 129.186 445.057 129.489C445.853 129.831 446.135 130.37 446.234 130.763C446.535 131.97 445.547 133.209 444.297 134.783C443.638 135.612 442.956 136.47 442.469 137.319C441.493 139.034 443.967 141.956 445.053 142.991C445.261 143.058 445.971 143.215 447.292 142.771C448.088 142.503 448.276 142.373 448.339 142.33C448.723 142.063 448.998 142.082 449.449 142.114C449.586 142.122 449.766 142.133 450.017 142.149C450.547 142.177 451.088 142.263 451.444 142.696C451.821 143.152 451.75 143.679 451.691 144.104C451.621 144.635 451.511 145.437 451.982 146.778C452.115 147.16 452.225 147.4 452.307 147.549C452.397 147.467 452.491 147.368 452.57 147.29C452.938 146.92 453.397 146.456 453.997 146.216C454.236 146.121 454.514 145.787 454.781 145.461C455.503 144.592 456.71 143.14 459.067 144.47C460.909 145.512 461.572 146.664 461.803 147.435C462.282 147.455 463.18 147.345 464.552 146.625C467.269 145.197 468.5 147.345 469.488 149.071C469.924 149.826 470.371 150.609 470.963 151.309C472.319 152.91 472.539 152.933 473.347 153.02C473.672 153.055 474.072 153.095 474.593 153.205C474.578 153.189 474.558 153.177 474.542 153.162C472.907 151.852 472.962 150.641 473.021 149.358C473.049 148.78 473.076 148.127 472.974 147.313C472.872 146.495 472.845 145.921 472.825 145.461C472.782 144.47 472.774 144.261 471.888 143.062C470.876 141.689 470.755 141.15 471.19 140.017C471.347 139.616 471.559 139.066 471.688 137.992C471.762 137.355 471.7 137.252 470.449 136.875C469.183 136.489 467.269 135.911 466.932 133.217C466.728 131.592 466.489 130.518 466.214 129.996C465.948 129.489 465.54 128.718 464.873 127.141C463.819 124.655 463.144 124.466 462.211 124.207C461.607 124.038 460.855 123.829 460.012 123.145C458.694 122.071 457.428 122.331 452.927 125.921C451.123 127.365 450.374 127.963 449.531 127.833C448.88 127.735 448.543 127.239 448.245 126.799C447.872 126.252 447.316 125.43 445.841 124.545C442.811 122.72 443.908 120.738 444.438 119.79C444.559 119.57 444.744 119.235 444.748 119.117C444.622 117.992 445.151 117.591 445.689 117.347C445.9 117.253 446.081 117.17 446.328 116.557C446.453 116.242 446.52 116.046 446.555 115.928C446.386 115.692 446.257 115.377 446.257 114.877C446.257 113.446 447.951 112.203 448.292 111.967C448.5 111.822 448.759 111.77 449.01 111.818C450.131 112.042 451.433 112.093 451.738 111.924C451.911 111.825 452.052 111.759 452.178 111.7C452.53 111.534 452.762 111.424 454.707 108.793C454.797 108.671 454.875 108.561 454.942 108.463C454.895 108.467 454.848 108.471 454.805 108.475C453.793 108.569 452.413 108.695 451.335 108.018C449.292 106.736 449.296 104.805 449.602 103.893C449.727 103.342 450.488 100.872 454.314 98.3037C457.114 96.4237 458.255 97.4817 459.267 98.8347C459.776 99.5151 460.259 100.16 461.305 100.396C462.443 100.648 462.94 100.691 463.156 100.675C463.184 100.463 463.176 100.074 463.168 99.7471C463.168 99.5465 463.16 99.3263 463.16 99.0903C463.16 97.643 463.889 96.6361 465.269 96.1759C466.277 95.8416 467.512 95.8259 468.602 95.8416H468.743C468.787 95.409 468.41 94.2763 467.908 93.3599C467.657 92.9036 467.826 92.3294 468.281 92.0777C468.736 91.826 469.308 91.9951 469.559 92.4514C470.053 93.352 471.116 95.586 470.351 96.8878C470.163 97.2025 469.708 97.7334 468.736 97.7334H468.602C467.618 97.7334 466.579 97.7334 465.862 97.9733C465.258 98.1739 465.042 98.4689 465.042 99.0942C465.042 99.3184 465.042 99.5269 465.05 99.7196C465.066 100.73 465.081 101.607 464.399 102.166C463.701 102.736 462.67 102.642 460.89 102.245C459.165 101.859 458.349 100.77 457.753 99.9752C457.036 99.0156 456.906 98.8425 455.357 99.8808C451.923 102.186 451.433 104.321 451.429 104.341C451.421 104.388 451.401 104.447 451.386 104.49C451.327 104.663 451.076 105.643 452.327 106.429C452.864 106.768 453.84 106.677 454.628 106.606C455.581 106.52 456.565 106.429 457.024 107.243C457.494 108.081 456.855 109.068 456.22 109.93C454.099 112.801 453.734 113.068 452.981 113.422C452.891 113.466 452.797 113.509 452.676 113.58C451.75 114.111 449.998 113.918 449.068 113.764C448.578 114.17 448.147 114.681 448.143 114.893V114.909C448.7 115.578 448.465 116.321 448.072 117.285C447.61 118.429 447.018 118.818 446.626 119.011C446.673 119.664 446.359 120.226 446.081 120.726C445.559 121.67 445.34 122.059 446.81 122.944C448.633 124.041 449.362 125.115 449.798 125.752C449.825 125.792 449.853 125.835 449.88 125.874C450.307 125.611 451.123 124.962 451.746 124.462C455.663 121.336 458.435 119.452 461.192 121.697C461.729 122.134 462.18 122.26 462.705 122.405C464.16 122.81 465.289 123.333 466.599 126.421C467.238 127.927 467.618 128.651 467.873 129.135C468.445 130.224 468.465 130.381 468.794 133.005C468.971 134.413 469.704 134.704 470.986 135.089C472.115 135.431 473.825 135.951 473.55 138.24C473.394 139.545 473.119 140.253 472.939 140.721C472.888 140.851 472.825 141.012 472.821 141.064C472.833 141.115 472.923 141.319 473.394 141.96C474.574 143.561 474.64 144.139 474.695 145.402C474.715 145.826 474.738 146.357 474.833 147.097C474.958 148.072 474.923 148.843 474.891 149.465C474.836 150.641 474.821 150.994 475.707 151.706C476.252 152.147 477.707 153.311 477.154 154.471C476.856 155.101 476.205 155.266 475.578 155.266L475.597 155.246Z" fill="#2D425E"/>
<path d="M475.311 169.358C453.624 169.358 435.977 151.659 435.977 129.905C435.977 108.152 453.621 90.4531 475.311 90.4531C497.001 90.4531 514.641 108.152 514.641 129.905C514.641 151.659 496.997 169.358 475.311 169.358ZM475.311 92.337C454.664 92.337 437.862 109.19 437.862 129.901C437.862 150.613 454.664 167.466 475.311 167.466C495.958 167.466 512.759 150.613 512.759 129.901C512.759 109.19 495.958 92.337 475.311 92.337V92.337Z" fill="#2D425E"/>
<path d="M512.803 139.155C512.685 139.155 512.568 139.132 512.45 139.088C512.325 139.037 509.321 137.802 507.165 134.99C505.836 133.26 505.965 132.005 506.059 131.092C506.13 130.42 506.169 130.015 505.722 129.378C505.02 128.371 504.659 127.439 504.342 126.617C503.981 125.681 503.695 124.945 503.005 124.269C502.283 123.561 501.907 122.924 501.578 122.357C501.166 121.657 500.868 121.15 499.958 120.623C499.139 120.147 498.186 120.351 497.178 120.572C496.335 120.753 495.465 120.945 494.626 120.717C494.336 120.638 494.018 120.568 493.677 120.489C492.199 120.151 490.176 119.683 488.047 118.381C486.172 117.236 485.921 116.505 485.671 115.408C485.572 114.987 485.463 114.507 485.129 113.838C484.612 112.8 484.126 111.978 483.651 111.183C483.142 110.33 482.663 109.52 482.271 108.623C481.212 106.196 482.393 104.863 485.443 102.794C486.557 102.039 487.176 101.437 487.725 100.906C488.709 99.9546 489.486 99.2034 491.987 98.5033C492.724 98.2988 493.206 98.0117 493.281 97.7364C493.367 97.41 492.983 96.8397 492.756 96.6076C492.395 96.2379 492.395 95.6401 492.763 95.2743C493.132 94.9086 493.724 94.9086 494.089 95.2743C494.234 95.4199 495.488 96.7296 495.1 98.2123C494.841 99.2034 493.963 99.9114 492.489 100.324C490.446 100.895 489.913 101.41 489.031 102.263C488.458 102.818 487.745 103.51 486.498 104.356C483.389 106.468 483.604 106.963 483.996 107.864C484.341 108.655 484.773 109.378 485.271 110.216C485.737 111.003 486.27 111.895 486.815 112.997C487.247 113.866 487.396 114.515 487.505 114.987C487.674 115.71 487.733 115.982 489.027 116.772C490.897 117.917 492.673 118.326 494.1 118.652C494.469 118.735 494.806 118.814 495.116 118.896C495.516 119.002 496.131 118.869 496.786 118.727C497.978 118.471 499.456 118.149 500.911 118.99C502.248 119.765 502.738 120.595 503.209 121.401C503.507 121.909 503.793 122.389 504.334 122.924C505.314 123.883 505.718 124.929 506.11 125.94C506.404 126.699 506.706 127.482 507.279 128.3C508.125 129.515 508.027 130.502 507.945 131.293C507.863 132.087 507.8 132.713 508.67 133.846C510.517 136.253 513.14 137.33 513.164 137.342C513.646 137.539 513.881 138.089 513.685 138.573C513.536 138.943 513.183 139.167 512.811 139.167L512.803 139.155Z" fill="#2D425E"/>
<path d="M477.853 169.273C477.571 169.273 477.289 169.143 477.104 168.899C477.01 168.773 476.708 168.305 476.849 167.586C477.034 166.657 477.849 165.78 479.343 164.907C480.406 164.286 481.355 163.893 482.119 163.578C483.37 163.063 483.817 162.842 483.899 162.418C484.35 160.164 485.758 159.983 487.553 159.983C489.189 159.983 489.902 160.239 490.655 160.506C490.733 160.534 490.812 160.561 490.89 160.589C491.231 160.447 491.992 159.865 492.462 159.503C493.843 158.445 495.035 157.537 496.066 158.013C496.536 158.229 498.563 158.327 500.163 158.28C500.677 158.26 501.116 158.677 501.132 159.196C501.147 159.72 500.736 160.152 500.218 160.168C499.371 160.192 496.615 160.235 495.423 159.786C495.042 159.908 494.152 160.589 493.607 161.006C492.298 162.009 491.349 162.736 490.443 162.433C490.294 162.382 490.157 162.335 490.024 162.288C489.353 162.048 488.867 161.875 487.557 161.875C485.93 161.875 485.915 161.961 485.75 162.791C485.46 164.25 484.244 164.75 482.837 165.332C482.088 165.639 481.241 165.989 480.292 166.543C478.994 167.302 478.747 167.798 478.704 167.932C478.888 168.325 478.782 168.809 478.422 169.084C478.253 169.214 478.049 169.277 477.853 169.277V169.273Z" fill="#2D425E"/>
<path d="M464.304 46.1925H425.582C425.06 46.1925 424.641 45.7717 424.641 45.2486C424.641 44.7255 425.06 44.3047 425.582 44.3047H464.304C464.826 44.3047 465.245 44.7255 465.245 45.2486C465.245 45.7717 464.826 46.1925 464.304 46.1925Z" fill="#2D425E"/>
<path d="M421.331 63.8828H390.297V79.9768H421.331V63.8828Z" fill="#FDC52D"/>
<path d="M459.036 64.8332H426.363C425.841 64.8332 425.422 64.4123 425.422 63.8892C425.422 63.3662 425.841 62.9453 426.363 62.9453H459.036C459.557 62.9453 459.977 63.3662 459.977 63.8892C459.977 64.4123 459.557 64.8332 459.036 64.8332Z" fill="#2D425E"/>
<path d="M445.332 72.8722H426.363C425.841 72.8722 425.422 72.4514 425.422 71.9283C425.422 71.4052 425.841 70.9844 426.363 70.9844H445.332C445.854 70.9844 446.273 71.4091 446.273 71.9283C446.273 72.4475 445.854 72.8722 445.332 72.8722Z" fill="#2D425E"/>
<path d="M464.305 80.9191H426.363C425.841 80.9191 425.422 80.4983 425.422 79.9752C425.422 79.4521 425.841 79.0312 426.363 79.0312H464.305C464.827 79.0312 465.246 79.4521 465.246 79.9752C465.246 80.4983 464.827 80.9191 464.305 80.9191Z" fill="#2D425E"/>
<path d="M458.14 89.3488H390.3C389.779 89.3488 389.359 88.928 389.359 88.4049C389.359 87.8818 389.779 87.4609 390.3 87.4609H458.14C458.661 87.4609 459.081 87.8818 459.081 88.4049C459.081 88.928 458.661 89.3488 458.14 89.3488Z" fill="#2D425E"/>
<path d="M443.85 99.4816H397.011C396.49 99.4816 396.07 99.0608 396.07 98.5377C396.07 98.0146 396.49 97.5938 397.011 97.5938H443.85C444.372 97.5938 444.791 98.0185 444.791 98.5377C444.791 99.0568 444.372 99.4816 443.85 99.4816Z" fill="#2D425E"/>
<path d="M436.951 109.614H403.879C403.357 109.614 402.938 109.19 402.938 108.67C402.938 108.151 403.357 107.727 403.879 107.727H436.951C437.473 107.727 437.892 108.147 437.892 108.67C437.892 109.194 437.469 109.614 436.951 109.614Z" fill="#2D425E"/>
<path d="M432.925 119.755H410.129C409.607 119.755 409.188 119.334 409.188 118.811C409.188 118.288 409.607 117.867 410.129 117.867H432.925C433.446 117.867 433.866 118.288 433.866 118.811C433.866 119.334 433.442 119.755 432.925 119.755Z" fill="#2D425E"/>
<path d="M431.596 129.896H417.386C416.865 129.896 416.445 129.475 416.445 128.952C416.445 128.429 416.865 128.008 417.386 128.008H431.596C432.117 128.008 432.537 128.429 432.537 128.952C432.537 129.475 432.117 129.896 431.596 129.896Z" fill="#2D425E"/>
<path d="M432.919 140.028H425.113C424.591 140.028 424.172 139.608 424.172 139.085C424.172 138.561 424.595 138.141 425.113 138.141H432.919C433.441 138.141 433.86 138.561 433.86 139.085C433.86 139.608 433.437 140.028 432.919 140.028Z" fill="#2D425E"/>
<path d="M436.924 150.161H429.879C429.357 150.161 428.938 149.74 428.938 149.217C428.938 148.694 429.357 148.273 429.879 148.273H436.924C437.446 148.273 437.865 148.694 437.865 149.217C437.865 149.74 437.446 150.161 436.924 150.161Z" fill="#2D425E"/>
<path d="M392.011 150.161H381.746C381.224 150.161 380.805 149.74 380.805 149.217C380.805 148.694 381.224 148.273 381.746 148.273H392.011C392.532 148.273 392.952 148.694 392.952 149.217C392.952 149.74 392.528 150.161 392.011 150.161Z" fill="#2D425E"/>
<path d="M442.639 160.302H426.363C425.841 160.302 425.422 159.881 425.422 159.358C425.422 158.835 425.841 158.414 426.363 158.414H442.639C443.16 158.414 443.58 158.835 443.58 159.358C443.58 159.881 443.16 160.302 442.639 160.302Z" fill="#2D425E"/>
<path d="M389.905 160.302H381.746C381.224 160.302 380.805 159.881 380.805 159.358C380.805 158.835 381.224 158.414 381.746 158.414H389.905C390.427 158.414 390.846 158.835 390.846 159.358C390.846 159.881 390.427 160.302 389.905 160.302Z" fill="#2D425E"/>
<path d="M455.05 170.435H423.902C423.38 170.435 422.961 170.014 422.961 169.491C422.961 168.968 423.38 168.547 423.902 168.547H455.05C455.571 168.547 455.991 168.968 455.991 169.491C455.991 170.014 455.571 170.435 455.05 170.435Z" fill="#2D425E"/>
<path d="M396.458 53.0861C395.937 53.0861 395.517 52.6653 395.517 52.1422V35.8359L390.997 40.9449C390.652 41.3342 390.056 41.3696 389.667 41.0235C389.279 40.6774 389.244 40.0796 389.589 39.6902L395.753 32.7248C395.811 32.658 395.878 32.599 395.953 32.5518C396.019 32.5085 396.086 32.477 396.16 32.4534C396.258 32.422 396.36 32.4062 396.458 32.4062C396.552 32.4062 396.65 32.422 396.745 32.4495C396.835 32.477 396.925 32.5203 397.003 32.5793C397.062 32.6226 397.117 32.6737 397.164 32.7248L403.328 39.6902C403.673 40.0796 403.638 40.6774 403.249 41.0235C402.861 41.3696 402.265 41.3342 401.92 40.9449L397.399 35.8359V52.1422C397.399 52.6653 396.98 53.0861 396.458 53.0861V53.0861Z" fill="#2D425E"/>
<path d="M487.176 80.925C487.074 80.925 486.968 80.9093 486.866 80.8739C486.376 80.7008 486.117 80.162 486.286 79.6704C486.325 79.5524 490.638 67.7415 507.42 69.6058C507.937 69.6648 508.31 70.1289 508.251 70.648C508.192 71.1672 507.729 71.5448 507.212 71.4818C491.897 69.7828 488.101 80.1856 488.062 80.2918C487.929 80.6812 487.564 80.925 487.172 80.925H487.176Z" fill="#2D425E"/>
<path d="M490.972 177.049C490.58 177.049 490.216 176.801 490.082 176.408C489.914 175.913 490.176 175.378 490.67 175.209C502.433 171.197 512.38 162.493 517.964 151.327C518.195 150.859 518.764 150.67 519.226 150.906C519.693 151.138 519.881 151.709 519.646 152.173C513.839 163.779 503.5 172.825 491.274 176.994C491.172 177.03 491.07 177.045 490.972 177.045V177.049Z" fill="#2D425E"/>
<path d="M558.064 139.16H532.379C531.857 139.16 531.438 138.739 531.438 138.216V133.272C531.438 132.749 531.857 132.328 532.379 132.328H558.064C558.586 132.328 559.005 132.749 559.005 133.272V138.216C559.005 138.739 558.586 139.16 558.064 139.16ZM533.323 137.272H557.123V134.216H533.323V137.272Z" fill="#2D425E"/>
<path d="M546.373 127.885H537.472C536.951 127.885 536.531 127.464 536.531 126.941C536.531 126.418 536.951 125.997 537.472 125.997H546.373C547.941 125.997 549.215 124.719 549.215 123.146C549.215 121.572 547.941 120.294 546.373 120.294C545.851 120.294 545.432 119.873 545.432 119.35C545.432 118.827 545.851 118.406 546.373 118.406C548.98 118.406 551.101 120.534 551.101 123.149C551.101 125.765 548.98 127.893 546.373 127.893V127.885Z" fill="#2D425E"/>
<path d="M546.373 120.284H530.807C528.713 120.284 527.008 118.573 527.008 116.473C527.008 114.373 528.713 112.662 530.807 112.662H537.873C538.963 112.662 539.849 111.773 539.849 110.68V105.874C539.849 105.351 540.268 104.93 540.79 104.93C541.311 104.93 541.731 105.351 541.731 105.874V110.68C541.731 112.815 539.998 114.554 537.869 114.554H530.803C529.749 114.554 528.886 115.415 528.886 116.477C528.886 117.539 529.745 118.4 530.803 118.4H546.369C546.891 118.4 547.31 118.821 547.31 119.344C547.31 119.867 546.891 120.288 546.369 120.288L546.373 120.284Z" fill="#2D425E"/>
<path d="M594.506 153.984H576.266C574.494 153.984 573.055 152.541 573.055 150.763V149.737C573.055 147.959 574.494 146.516 576.266 146.516H594.506C596.278 146.516 597.717 147.959 597.717 149.737V150.763C597.717 152.541 596.278 153.984 594.506 153.984ZM576.266 148.403C575.533 148.403 574.941 149.001 574.941 149.737V150.763C574.941 151.499 575.537 152.097 576.266 152.097H594.506C595.239 152.097 595.835 151.499 595.835 150.763V149.737C595.835 149.001 595.239 148.403 594.506 148.403H576.266Z" fill="#2D425E"/>
<path d="M145.363 97.7367C145.237 97.7367 145.112 97.7131 144.99 97.658C144.512 97.4496 144.292 96.895 144.5 96.4152C149.911 83.9003 160.96 74.3116 174.06 70.7679C174.562 70.6302 175.079 70.9292 175.213 71.4326C175.35 71.936 175.052 72.4552 174.55 72.5889C161.999 75.9831 151.409 85.1707 146.225 97.1625C146.073 97.5204 145.724 97.7328 145.359 97.7328L145.363 97.7367Z" fill="#2D425E"/>
<path d="M157.816 115.302C157.295 115.302 156.875 114.881 156.875 114.358C156.875 98.3543 169.853 85.3359 185.807 85.3359C186.329 85.3359 186.748 85.7607 186.748 86.2799C186.748 86.799 186.325 87.2238 185.807 87.2238C170.892 87.2238 158.761 99.3965 158.761 114.354C158.761 114.877 158.337 115.298 157.82 115.298L157.816 115.302Z" fill="#2D425E"/>
<path d="M595.452 144.981C594.938 144.981 594.518 144.568 594.511 144.049C594.503 143.526 594.918 143.097 595.44 143.089L599.216 143.038L599.071 132.682L595.295 132.733C594.871 132.741 594.475 132.442 594.369 132.017C593.695 129.312 592.597 126.751 591.103 124.407C590.868 124.037 590.915 123.554 591.221 123.239L593.852 120.525L586.449 113.304L583.818 116.018C583.513 116.333 583.034 116.395 582.658 116.167C580.282 114.736 577.702 113.705 574.985 113.104C574.557 113.009 574.251 112.632 574.244 112.195L574.193 108.408L563.869 108.553L563.924 112.341C563.932 112.781 563.634 113.163 563.21 113.269C560.513 113.945 557.96 115.046 555.623 116.545C555.184 116.828 554.604 116.698 554.321 116.258C554.039 115.817 554.169 115.235 554.608 114.952C556.905 113.477 559.399 112.36 562.03 111.625L561.975 107.629C561.975 107.377 562.069 107.137 562.242 106.956C562.414 106.775 562.653 106.673 562.904 106.669L575.11 106.5H575.122C575.635 106.5 576.055 106.913 576.063 107.432L576.118 111.424C578.525 112.026 580.827 112.942 582.979 114.162L585.755 111.298C585.928 111.117 586.167 111.015 586.418 111.011H586.43C586.677 111.011 586.912 111.106 587.084 111.279L595.836 119.817C596.208 120.183 596.216 120.781 595.855 121.154L593.079 124.018C594.354 126.145 595.334 128.427 596.001 130.822L599.984 130.767H599.996C600.239 130.767 600.478 130.861 600.651 131.034C600.831 131.207 600.933 131.447 600.937 131.699L601.106 143.942C601.113 144.466 600.698 144.894 600.176 144.902L595.46 144.969H595.448L595.452 144.981Z" fill="#2D425E"/>
<path d="M589.119 144.981C589.032 144.981 588.942 144.969 588.856 144.942C588.358 144.796 588.068 144.273 588.217 143.77C588.758 141.905 589.021 139.963 588.993 138C588.844 127.279 580.1 118.661 569.447 118.661C569.353 118.661 569.263 118.661 569.169 118.661C564.934 118.72 560.923 120.113 557.571 122.689C557.155 123.007 556.567 122.925 556.25 122.512C555.932 122.099 556.011 121.505 556.426 121.186C560.104 118.362 564.499 116.836 569.142 116.773C569.244 116.773 569.345 116.773 569.443 116.773C581.124 116.773 590.707 126.221 590.871 137.976C590.903 140.128 590.616 142.256 590.02 144.301C589.899 144.714 589.526 144.981 589.115 144.981H589.119Z" fill="#2D425E"/>
<path d="M584.563 139.013C584.05 139.013 583.63 138.6 583.622 138.081C583.513 130.305 577.173 124.052 569.441 124.052C569.374 124.052 569.307 124.052 569.241 124.052C567.033 124.083 564.928 124.606 562.979 125.609C562.516 125.845 561.948 125.664 561.712 125.2C561.477 124.736 561.658 124.166 562.12 123.93C564.328 122.793 566.716 122.199 569.217 122.164C569.292 122.164 569.37 122.164 569.444 122.164C578.2 122.164 585.387 129.247 585.508 138.057C585.516 138.581 585.101 139.009 584.579 139.017H584.567L584.563 139.013Z" fill="#2D425E"/>
<path d="M437.37 202.178C435.86 202.178 434.633 200.947 434.633 199.433C434.633 197.919 435.86 196.688 437.37 196.688C438.879 196.688 440.106 197.919 440.106 199.433C440.106 200.947 438.879 202.178 437.37 202.178ZM437.37 198.579C436.899 198.579 436.519 198.965 436.519 199.433C436.519 199.901 436.903 200.286 437.37 200.286C437.836 200.286 438.22 199.901 438.22 199.433C438.22 198.965 437.836 198.579 437.37 198.579Z" fill="#2D425E"/>
<path d="M472.581 202.178C471.071 202.178 469.844 200.947 469.844 199.433C469.844 197.919 471.071 196.688 472.581 196.688C474.09 196.688 475.317 197.919 475.317 199.433C475.317 200.947 474.09 202.178 472.581 202.178ZM472.581 198.579C472.11 198.579 471.73 198.965 471.73 199.433C471.73 199.901 472.114 200.286 472.581 200.286C473.047 200.286 473.431 199.901 473.431 199.433C473.431 198.965 473.047 198.579 472.581 198.579Z" fill="#2D425E"/>
<path d="M428.627 213.147C427.118 213.147 425.891 211.916 425.891 210.402C425.891 208.887 427.118 207.656 428.627 207.656C430.137 207.656 431.364 208.887 431.364 210.402C431.364 211.916 430.137 213.147 428.627 213.147ZM428.627 209.548C428.157 209.548 427.777 209.933 427.777 210.402C427.777 210.87 428.161 211.255 428.627 211.255C429.094 211.255 429.478 210.87 429.478 210.402C429.478 209.933 429.094 209.548 428.627 209.548Z" fill="#2D425E"/>
<path d="M481.893 213.147C480.383 213.147 479.156 211.916 479.156 210.402C479.156 208.887 480.383 207.656 481.893 207.656C483.403 207.656 484.63 208.887 484.63 210.402C484.63 211.916 483.403 213.147 481.893 213.147ZM481.893 209.548C481.423 209.548 481.042 209.933 481.042 210.402C481.042 210.87 481.426 211.255 481.893 211.255C482.36 211.255 482.744 210.87 482.744 210.402C482.744 209.933 482.36 209.548 481.893 209.548Z" fill="#2D425E"/>
<path d="M82.3941 135.079C81.8727 135.079 81.4531 134.659 81.4531 134.136C81.4531 127.591 86.762 122.266 93.2864 122.266C93.8079 122.266 94.2274 122.686 94.2274 123.21C94.2274 123.733 93.8039 124.153 93.2864 124.153C87.8011 124.153 83.3391 128.629 83.3391 134.132C83.3391 134.655 82.9156 135.076 82.3981 135.076L82.3941 135.079Z" fill="#2D425E"/>
<path d="M21.8872 216.272C21.5186 216.272 21.1697 216.056 21.0207 215.694C20.1267 213.574 19.6719 211.32 19.6719 209C19.6719 199.517 27.3608 191.805 36.814 191.805C37.3355 191.805 37.755 192.226 37.755 192.749C37.755 193.272 37.3316 193.693 36.814 193.693C28.3998 193.693 21.5578 200.56 21.5578 208.996C21.5578 211.065 21.9617 213.067 22.7576 214.955C22.9615 215.434 22.738 215.989 22.2557 216.193C22.1342 216.245 22.0127 216.268 21.8911 216.268L21.8872 216.272Z" fill="#2D425E"/>
<path d="M630.801 213.559C630.613 213.559 630.425 213.504 630.256 213.386C629.833 213.083 629.731 212.493 630.032 212.068C631.691 209.72 632.401 206.853 632.028 203.998C631.217 197.752 625.496 193.339 619.266 194.149C618.756 194.216 618.278 193.851 618.211 193.335C618.144 192.816 618.509 192.344 619.023 192.277C626.272 191.326 632.95 196.478 633.895 203.754C634.326 207.081 633.503 210.424 631.57 213.162C631.385 213.421 631.095 213.559 630.801 213.559V213.559Z" fill="#2D425E"/>
<path d="M40.8589 193.994C40.4002 193.994 40.0002 193.667 39.9101 193.215C39.8042 192.688 40.1414 192.173 40.6668 192.067C40.7334 192.055 40.7962 192.047 40.8628 192.047C41.3216 192.047 41.7215 192.373 41.8117 192.826C41.8627 193.081 41.8117 193.341 41.6705 193.557C41.5294 193.773 41.3098 193.923 41.055 193.974C40.9883 193.986 40.9256 193.994 40.8589 193.994V193.994Z" fill="#2D425E"/>
<path d="M103.726 140.658C103.267 140.658 102.867 140.331 102.777 139.879C102.671 139.352 103.009 138.837 103.534 138.731C103.601 138.719 103.663 138.711 103.73 138.711C104.189 138.711 104.589 139.037 104.679 139.49C104.73 139.745 104.679 140.005 104.538 140.221C104.397 140.438 104.177 140.587 103.922 140.638C103.855 140.65 103.793 140.658 103.726 140.658Z" fill="#2D425E"/>
<path d="M138.757 181.517C138.298 181.517 137.899 181.191 137.808 180.738C137.757 180.483 137.808 180.223 137.95 180.007C138.091 179.791 138.31 179.641 138.565 179.59C138.632 179.578 138.694 179.57 138.761 179.57C139.22 179.57 139.62 179.897 139.71 180.349C139.816 180.876 139.479 181.391 138.953 181.497C138.887 181.509 138.824 181.517 138.757 181.517Z" fill="#2D425E"/>
<path d="M156.187 210.103C155.728 210.103 155.328 209.777 155.238 209.324C155.132 208.797 155.47 208.282 155.995 208.176C156.062 208.164 156.124 208.156 156.191 208.156C156.65 208.156 157.05 208.483 157.14 208.935C157.191 209.191 157.14 209.45 156.999 209.667C156.858 209.883 156.638 210.032 156.383 210.083C156.316 210.095 156.254 210.103 156.187 210.103Z" fill="#2D425E"/>
<path d="M180.64 72.1031C180.181 72.1031 179.781 71.7767 179.691 71.3244C179.585 70.7973 179.923 70.2821 180.448 70.1759C180.515 70.1641 180.577 70.1562 180.644 70.1562C181.103 70.1562 181.503 70.4827 181.593 70.935C181.644 71.1906 181.593 71.4502 181.452 71.6665C181.311 71.8829 181.091 72.0323 180.836 72.0834C180.77 72.0952 180.707 72.1031 180.644 72.1031H180.64Z" fill="#2D425E"/>
<path d="M267.336 105.545C266.713 105.545 266.168 105.097 266.042 104.483C265.897 103.768 266.36 103.064 267.073 102.918C267.16 102.898 267.25 102.891 267.34 102.891C267.963 102.891 268.508 103.339 268.634 103.953C268.705 104.299 268.634 104.653 268.442 104.948C268.246 105.243 267.948 105.443 267.603 105.514C267.516 105.534 267.426 105.541 267.336 105.541V105.545Z" fill="#2D425E"/>
<path d="M281.187 75.275C280.728 75.275 280.328 74.9485 280.238 74.4962C280.132 73.9692 280.47 73.454 280.995 73.3478C281.062 73.336 281.124 73.3281 281.187 73.3281C281.646 73.3281 282.046 73.6546 282.136 74.1069C282.187 74.3625 282.136 74.6221 281.995 74.8384C281.854 75.0547 281.634 75.2042 281.379 75.2553C281.313 75.2671 281.25 75.275 281.183 75.275H281.187Z" fill="#2D425E"/>
<path d="M341.851 19.3453C341.392 19.3453 340.992 19.0188 340.902 18.5665C340.796 18.0395 341.134 17.5243 341.659 17.4181C341.726 17.4063 341.788 17.3984 341.855 17.3984C342.314 17.3984 342.714 17.7249 342.804 18.1772C342.855 18.4328 342.804 18.6924 342.663 18.9087C342.518 19.125 342.302 19.2745 342.047 19.3256C341.98 19.3374 341.918 19.3453 341.855 19.3453H341.851Z" fill="#2D425E"/>
<path d="M361.273 88.8218C360.814 88.8218 360.414 88.4954 360.324 88.0431C360.218 87.5161 360.555 87.0009 361.081 86.8947C361.148 86.8829 361.21 86.875 361.273 86.875C361.732 86.875 362.132 87.2014 362.222 87.6537C362.328 88.1808 361.991 88.696 361.465 88.8022C361.398 88.814 361.336 88.8218 361.269 88.8218H361.273Z" fill="#2D425E"/>
<path d="M411.906 143.369C411.447 143.369 411.047 143.042 410.957 142.59C410.906 142.334 410.957 142.075 411.098 141.858C411.243 141.642 411.459 141.493 411.714 141.442C411.78 141.43 411.843 141.422 411.906 141.422C412.364 141.422 412.764 141.748 412.855 142.201C412.96 142.728 412.623 143.239 412.098 143.349C412.031 143.361 411.968 143.369 411.902 143.369H411.906Z" fill="#2D425E"/>
<path d="M367.765 184.752C367.306 184.752 366.906 184.425 366.816 183.973C366.71 183.446 367.048 182.931 367.573 182.824C367.64 182.813 367.702 182.805 367.769 182.805C368.228 182.805 368.628 183.131 368.718 183.583C368.824 184.11 368.483 184.622 367.961 184.732C367.895 184.744 367.832 184.752 367.765 184.752Z" fill="#2D425E"/>
<path d="M469.929 46.2203C469.47 46.2203 469.07 45.8938 468.98 45.4415C468.929 45.1859 468.98 44.9263 469.121 44.71C469.266 44.4937 469.482 44.3442 469.737 44.2931C469.804 44.2813 469.866 44.2734 469.929 44.2734C470.388 44.2734 470.788 44.5999 470.878 45.0522C470.984 45.5792 470.647 46.0944 470.121 46.2006C470.055 46.2124 469.992 46.2203 469.925 46.2203H469.929Z" fill="#2D425E"/>
<path d="M514.445 73.8687C513.986 73.8687 513.586 73.5423 513.496 73.09C513.39 72.563 513.727 72.0477 514.253 71.9415C514.319 71.9297 514.382 71.9219 514.445 71.9219C514.904 71.9219 515.304 72.2483 515.394 72.7006C515.5 73.2276 515.162 73.7389 514.637 73.8491C514.57 73.8609 514.508 73.8687 514.441 73.8687H514.445Z" fill="#2D425E"/>
<path d="M583.304 144.173C582.845 144.173 582.446 143.847 582.355 143.395C582.25 142.868 582.587 142.352 583.112 142.246C583.179 142.234 583.242 142.227 583.304 142.227C583.763 142.227 584.163 142.553 584.253 143.005C584.359 143.532 584.022 144.044 583.496 144.154C583.43 144.166 583.367 144.173 583.3 144.173H583.304Z" fill="#2D425E"/>
<path d="M600.695 189.728C600.236 189.728 599.836 189.402 599.746 188.949C599.64 188.422 599.977 187.907 600.503 187.801C600.569 187.789 600.632 187.781 600.699 187.781C601.158 187.781 601.557 188.108 601.648 188.56C601.699 188.816 601.648 189.075 601.506 189.292C601.365 189.508 601.146 189.657 600.891 189.708C600.824 189.72 600.762 189.728 600.699 189.728H600.695Z" fill="#2D425E"/>
<path d="M620.812 178.298C620.353 178.298 619.953 177.972 619.863 177.52C619.757 176.993 620.094 176.477 620.62 176.371C620.687 176.359 620.749 176.352 620.816 176.352C621.275 176.352 621.675 176.678 621.765 177.13C621.816 177.386 621.765 177.646 621.624 177.862C621.483 178.078 621.263 178.228 621.008 178.279C620.941 178.291 620.879 178.298 620.816 178.298H620.812Z" fill="#2D425E"/>
<path d="M641.89 186.931C641.431 186.931 641.031 186.605 640.941 186.152C640.835 185.625 641.173 185.11 641.698 185.004C641.765 184.992 641.827 184.984 641.894 184.984C642.353 184.984 642.753 185.311 642.843 185.763C642.894 186.019 642.843 186.278 642.702 186.495C642.561 186.711 642.341 186.86 642.086 186.912C642.02 186.923 641.957 186.931 641.894 186.931H641.89Z" fill="#2D425E"/>
<path d="M649.531 206.736C649.072 206.736 648.672 206.409 648.582 205.957C648.476 205.43 648.813 204.915 649.339 204.809C649.405 204.797 649.468 204.789 649.535 204.789C649.993 204.789 650.393 205.115 650.484 205.568C650.535 205.823 650.484 206.083 650.342 206.299C650.201 206.516 649.982 206.665 649.727 206.716C649.66 206.728 649.597 206.736 649.535 206.736H649.531Z" fill="#2D425E"/>
<path d="M509.484 210.252C509.025 210.252 508.625 209.925 508.535 209.473C508.484 209.217 508.535 208.958 508.676 208.741C508.817 208.525 509.037 208.375 509.292 208.324C509.358 208.313 509.421 208.305 509.484 208.305C509.943 208.305 510.342 208.631 510.433 209.083C510.538 209.61 510.201 210.126 509.676 210.232C509.609 210.244 509.547 210.252 509.48 210.252H509.484Z" fill="#2D425E"/>
<path d="M520.328 147.462C519.869 147.462 519.469 147.136 519.379 146.684C519.273 146.157 519.61 145.641 520.136 145.535C520.202 145.523 520.265 145.516 520.328 145.516C520.786 145.516 521.186 145.842 521.277 146.294C521.327 146.55 521.277 146.81 521.135 147.026C520.99 147.242 520.775 147.392 520.52 147.443C520.453 147.455 520.39 147.462 520.328 147.462V147.462Z" fill="#2D425E"/>
<path d="M448.523 201.137V189.319L445.508 189.688V188.013L450.409 187.273V201.137H448.523Z" fill="#2D425E"/>
<path d="M455.081 201.137V199.756L459.37 194.734C460.092 193.88 460.594 193.176 460.864 192.646C461.119 192.142 461.248 191.643 461.248 191.163C461.248 190.486 461.08 189.979 460.735 189.609C460.398 189.247 459.892 189.07 459.19 189.07C458.394 189.07 457.81 189.291 457.398 189.747C456.979 190.211 456.771 190.801 456.771 191.54V191.957H455.073L454.94 191.56V191.497C454.904 190.345 455.285 189.35 456.061 188.547C456.837 187.745 457.888 187.336 459.186 187.336C460.382 187.336 461.35 187.686 462.056 188.374C462.766 189.066 463.127 190.006 463.127 191.167C463.127 191.93 462.899 192.701 462.444 193.452C462.021 194.156 461.394 195.017 460.582 196.012L457.68 199.41H463.66V201.133H455.077L455.081 201.137Z" fill="#2D425E"/>
<path d="M104.671 144.67C104.671 144.147 104.248 143.727 103.73 143.727C103.213 143.727 102.789 144.147 102.789 144.67V217.998H104.671V144.67V144.67Z" fill="#2D425E"/>
<path d="M319.496 172.026C318.974 172.026 318.555 171.605 318.555 171.082V129.038C318.555 128.515 318.978 128.094 319.496 128.094C320.013 128.094 320.437 128.515 320.437 129.038V171.082C320.437 171.605 320.013 172.026 319.496 172.026Z" fill="#2D425E"/>
<path d="M591.123 234H544.877C544.391 234 544 233.61 544 233.126V169.874C544 169.39 544.394 169 544.877 169H591.123C591.609 169 592 169.39 592 169.874V233.126C592 233.61 591.606 234 591.123 234ZM545.753 232.251H590.247V170.749H545.753V232.251Z" fill="#2D425E"/>
<path d="M583.608 174.477H551.477V181.575H583.608V174.477Z" fill="#23529A"/>
<path d="M580.917 191.554C579.433 191.554 578.227 190.344 578.227 188.855C578.227 187.367 579.433 186.156 580.917 186.156C582.401 186.156 583.608 187.367 583.608 188.855C583.608 190.344 582.401 191.554 580.917 191.554ZM580.917 187.912C580.4 187.912 579.977 188.336 579.977 188.855C579.977 189.375 580.4 189.799 580.917 189.799C581.435 189.799 581.858 189.375 581.858 188.855C581.858 188.336 581.435 187.912 580.917 187.912Z" fill="#2D425E"/>
<path d="M572.105 191.554C570.621 191.554 569.414 190.344 569.414 188.855C569.414 187.367 570.621 186.156 572.105 186.156C573.589 186.156 574.795 187.367 574.795 188.855C574.795 190.344 573.589 191.554 572.105 191.554ZM572.105 187.912C571.587 187.912 571.164 188.336 571.164 188.855C571.164 189.375 571.587 189.799 572.105 189.799C572.622 189.799 573.045 189.375 573.045 188.855C573.045 188.336 572.622 187.912 572.105 187.912Z" fill="#2D425E"/>
<path d="M563.292 191.554C561.808 191.554 560.602 190.344 560.602 188.855C560.602 187.367 561.808 186.156 563.292 186.156C564.776 186.156 565.983 187.367 565.983 188.855C565.983 190.344 564.776 191.554 563.292 191.554ZM563.292 187.912C562.775 187.912 562.352 188.336 562.352 188.855C562.352 189.375 562.775 189.799 563.292 189.799C563.81 189.799 564.233 189.375 564.233 188.855C564.233 188.336 563.81 187.912 563.292 187.912Z" fill="#2D425E"/>
<path d="M580.917 200.89C579.433 200.89 578.227 199.68 578.227 198.191C578.227 196.703 579.433 195.492 580.917 195.492C582.401 195.492 583.608 196.703 583.608 198.191C583.608 199.68 582.401 200.89 580.917 200.89ZM580.917 197.248C580.4 197.248 579.977 197.672 579.977 198.191C579.977 198.711 580.4 199.135 580.917 199.135C581.435 199.135 581.858 198.711 581.858 198.191C581.858 197.672 581.435 197.248 580.917 197.248Z" fill="#2D425E"/>
<path d="M572.105 200.89C570.621 200.89 569.414 199.68 569.414 198.191C569.414 196.703 570.621 195.492 572.105 195.492C573.589 195.492 574.795 196.703 574.795 198.191C574.795 199.68 573.589 200.89 572.105 200.89ZM572.105 197.248C571.587 197.248 571.164 197.672 571.164 198.191C571.164 198.711 571.587 199.135 572.105 199.135C572.622 199.135 573.045 198.711 573.045 198.191C573.045 197.672 572.622 197.248 572.105 197.248Z" fill="#2D425E"/>
<path d="M563.292 200.89C561.808 200.89 560.602 199.68 560.602 198.191C560.602 196.703 561.808 195.492 563.292 195.492C564.776 195.492 565.983 196.703 565.983 198.191C565.983 199.68 564.776 200.89 563.292 200.89ZM563.292 197.248C562.775 197.248 562.352 197.672 562.352 198.191C562.352 198.711 562.775 199.135 563.292 199.135C563.81 199.135 564.233 198.711 564.233 198.191C564.233 197.672 563.81 197.248 563.292 197.248Z" fill="#2D425E"/>
<path d="M580.917 210.226C579.433 210.226 578.227 209.016 578.227 207.527C578.227 206.039 579.433 204.828 580.917 204.828C582.401 204.828 583.608 206.039 583.608 207.527C583.608 209.016 582.401 210.226 580.917 210.226ZM580.917 206.584C580.4 206.584 579.977 207.008 579.977 207.527C579.977 208.046 580.4 208.471 580.917 208.471C581.435 208.471 581.858 208.046 581.858 207.527C581.858 207.008 581.435 206.584 580.917 206.584Z" fill="#2D425E"/>
<path d="M572.105 210.226C570.621 210.226 569.414 209.016 569.414 207.527C569.414 206.039 570.621 204.828 572.105 204.828C573.589 204.828 574.795 206.039 574.795 207.527C574.795 209.016 573.589 210.226 572.105 210.226ZM572.105 206.584C571.587 206.584 571.164 207.008 571.164 207.527C571.164 208.046 571.587 208.471 572.105 208.471C572.622 208.471 573.045 208.046 573.045 207.527C573.045 207.008 572.622 206.584 572.105 206.584Z" fill="#2D425E"/>
<path d="M563.292 210.226C561.808 210.226 560.602 209.016 560.602 207.527C560.602 206.039 561.808 204.828 563.292 204.828C564.776 204.828 565.983 206.039 565.983 207.527C565.983 209.016 564.776 210.226 563.292 210.226ZM563.292 206.584C562.775 206.584 562.352 207.008 562.352 207.527C562.352 208.046 562.775 208.471 563.292 208.471C563.81 208.471 564.233 208.046 564.233 207.527C564.233 207.008 563.81 206.584 563.292 206.584Z" fill="#2D425E"/>
<path d="M554.472 210.226C552.988 210.226 551.781 209.016 551.781 207.527C551.781 206.039 552.988 204.828 554.472 204.828C555.956 204.828 557.163 206.039 557.163 207.527C557.163 209.016 555.956 210.226 554.472 210.226ZM554.472 206.584C553.954 206.584 553.531 207.008 553.531 207.527C553.531 208.046 553.954 208.471 554.472 208.471C554.99 208.471 555.413 208.046 555.413 207.527C555.413 207.008 554.99 206.584 554.472 206.584Z" fill="#2D425E"/>
<path d="M580.917 219.562C579.433 219.562 578.227 218.352 578.227 216.863C578.227 215.375 579.433 214.164 580.917 214.164C582.401 214.164 583.608 215.375 583.608 216.863C583.608 218.352 582.401 219.562 580.917 219.562ZM580.917 215.92C580.4 215.92 579.977 216.344 579.977 216.863C579.977 217.382 580.4 217.807 580.917 217.807C581.435 217.807 581.858 217.382 581.858 216.863C581.858 216.344 581.435 215.92 580.917 215.92Z" fill="#2D425E"/>
<path d="M572.105 219.562C570.621 219.562 569.414 218.352 569.414 216.863C569.414 215.375 570.621 214.164 572.105 214.164C573.589 214.164 574.795 215.375 574.795 216.863C574.795 218.352 573.589 219.562 572.105 219.562ZM572.105 215.92C571.587 215.92 571.164 216.344 571.164 216.863C571.164 217.382 571.587 217.807 572.105 217.807C572.622 217.807 573.045 217.382 573.045 216.863C573.045 216.344 572.622 215.92 572.105 215.92Z" fill="#2D425E"/>
<path d="M563.292 219.562C561.808 219.562 560.602 218.352 560.602 216.863C560.602 215.375 561.808 214.164 563.292 214.164C564.776 214.164 565.983 215.375 565.983 216.863C565.983 218.352 564.776 219.562 563.292 219.562ZM563.292 215.92C562.775 215.92 562.352 216.344 562.352 216.863C562.352 217.382 562.775 217.807 563.292 217.807C563.81 217.807 564.233 217.382 564.233 216.863C564.233 216.344 563.81 215.92 563.292 215.92Z" fill="#2D425E"/>
<path d="M554.472 219.562C552.988 219.562 551.781 218.352 551.781 216.863C551.781 215.375 552.988 214.164 554.472 214.164C555.956 214.164 557.163 215.375 557.163 216.863C557.163 218.352 555.956 219.562 554.472 219.562ZM554.472 215.92C553.954 215.92 553.531 216.344 553.531 216.863C553.531 217.382 553.954 217.807 554.472 217.807C554.99 217.807 555.413 217.382 555.413 216.863C555.413 216.344 554.99 215.92 554.472 215.92Z" fill="#2D425E"/>
<path d="M557.467 187.031H551.477V200.007H557.467V187.031Z" fill="#FDC52D"/>
<path d="M526.881 170.344H524.657H522.434L514.938 187.425H524.657H534.377L526.881 170.344Z" fill="#FDC52D"/>
<path d="M534.383 240.471V187.43H514.943V240.471H534.383Z" fill="#FDC52D"/>
<path d="M535.322 187.428C535.322 186.905 534.898 186.484 534.381 186.484H514.941C514.42 186.484 514 186.905 514 187.428V240.469H515.882V188.372H533.436V240.469H535.318V187.428H535.322Z" fill="#2D425E"/>
<path d="M521.78 193.186C521.78 192.663 521.357 192.242 520.839 192.242C520.322 192.242 519.898 192.663 519.898 193.186V240.469H521.78V193.186V193.186Z" fill="#2D425E"/>
<path d="M528.648 208.913C528.648 208.39 528.224 207.969 527.707 207.969C527.189 207.969 526.766 208.39 526.766 208.913V240.471H528.648V208.913V208.913Z" fill="#2D425E"/>
<path d="M526.596 171.291H522.726C522.256 171.291 521.856 170.941 521.793 170.473C521.77 170.319 521.758 170.201 521.758 170.079V165.91C521.758 164.306 523.06 163 524.663 163C526.267 163 527.565 164.306 527.565 165.91V170.079C527.565 170.201 527.553 170.315 527.533 170.433C527.471 170.901 527.067 171.291 526.596 171.291V171.291ZM523.64 169.403H525.679V165.914C525.679 165.352 525.22 164.892 524.659 164.892C524.099 164.892 523.64 165.352 523.64 165.914V169.403V169.403Z" fill="#2D425E"/>
<path d="M527.703 203.994C527.244 203.994 526.844 203.667 526.754 203.215C526.703 202.959 526.754 202.7 526.895 202.483C527.036 202.267 527.256 202.118 527.51 202.067C527.577 202.055 527.64 202.047 527.706 202.047C528.165 202.047 528.565 202.373 528.655 202.826C528.761 203.353 528.424 203.868 527.899 203.974C527.832 203.986 527.769 203.994 527.703 203.994Z" fill="#2D425E"/>
<path d="M556.514 145.776C556.514 146.209 556.165 146.557 555.731 146.557C546.818 146.557 539.565 153.784 539.565 162.673C539.565 163.105 539.216 163.453 538.783 163.453C538.349 163.453 538 163.102 538 162.673C538 152.926 545.954 144.996 555.731 144.996C556.165 144.996 556.514 145.347 556.514 145.776V145.776Z" fill="#2D425E"/>
<path d="M556.513 153.823C556.513 154.255 556.164 154.603 555.73 154.603C551.266 154.603 547.636 158.222 547.636 162.673C547.636 163.105 547.287 163.453 546.853 163.453C546.419 163.453 546.07 163.102 546.07 162.673C546.07 157.364 550.405 153.043 555.73 153.043C556.164 153.043 556.513 153.394 556.513 153.823V153.823Z" fill="#2D425E"/>
<path d="M556.536 162.674C556.536 163.054 556.266 163.386 555.89 163.46C555.453 163.548 555.026 163.269 554.938 162.833C554.928 162.778 554.922 162.726 554.922 162.67C554.922 162.29 555.193 161.958 555.568 161.884C555.78 161.841 555.995 161.884 556.174 162.001C556.354 162.118 556.478 162.3 556.52 162.511C556.53 162.566 556.536 162.618 556.536 162.674Z" fill="#2D425E"/>
</g>
<defs>
<clipPath id="clip0_4932_62511">
<rect width="662" height="218" fill="white"/>
</clipPath>
</defs>
</svg>
