<svg width="16" height="16" viewBox="0 0 16 16" fill="none" xmlns="http://www.w3.org/2000/svg">
<path d="M11.93 13.1453C11.33 13.1453 10.76 13.3778 10.34 13.7978L9.05748 15.0653C8.47248 15.6428 7.52001 15.6428 6.93501 15.0653L5.6525 13.7978C5.2325 13.3778 4.655 13.1453 4.0625 13.1453H3.5C2.255 13.1453 1.25 12.1478 1.25 10.9178V2.73529C1.25 1.50529 2.255 0.507812 3.5 0.507812H12.5C13.745 0.507812 14.75 1.50529 14.75 2.73529V10.9178C14.75 12.1403 13.745 13.1453 12.5 13.1453H11.93Z" stroke="white" stroke-linecap="round" stroke-linejoin="round"/>
<path fill-rule="evenodd" clip-rule="evenodd" d="M7.99947 6.49986C7.03435 6.49986 6.25195 5.71747 6.25195 4.75235C6.25195 3.78723 7.03435 3.00488 7.99947 3.00488C8.96458 3.00488 9.74698 3.78723 9.74698 4.75235C9.74698 5.71747 8.96458 6.49986 7.99947 6.49986Z" stroke="white" stroke-linecap="round" stroke-linejoin="round"/>
<path d="M11 10.7448C11 9.39477 9.6575 8.2998 8 8.2998C6.3425 8.2998 5 9.39477 5 10.7448" stroke="white" stroke-linecap="round" stroke-linejoin="round"/>
</svg>