<svg width="40" height="40" viewBox="0 0 40 40" fill="none" xmlns="http://www.w3.org/2000/svg">
<circle cx="20" cy="20" r="18" fill="#CCE6FD"/>
<path fill-rule="evenodd" clip-rule="evenodd" d="M35.089 29.8081C31.8782 34.7393 26.3167 37.9995 19.9937 37.9995C13.6707 37.9995 8.10917 34.7393 4.89844 29.8081H35.089Z" fill="#AEBF3E"/>
<path d="M12.5156 12.3847V22.9464C12.5156 23.035 12.5875 23.107 12.6762 23.107H19.8854C19.974 23.107 20.046 23.0351 20.046 22.9464V12.3847C20.046 12.296 19.9741 12.2241 19.8854 12.2241H12.6762C12.5875 12.2241 12.5156 12.296 12.5156 12.3847Z" fill="#8CBAFA"/>
<path d="M13.9844 12.2241H15.4258V23.1069H13.9844V12.2241Z" fill="#575B7A"/>
<path d="M21.9816 11.7692L16.8259 19.1323C16.7751 19.205 16.7927 19.3051 16.8654 19.356L22.931 23.6032C23.0038 23.6541 23.1038 23.6365 23.1547 23.5639L28.3105 16.2008C28.3614 16.1281 28.3436 16.028 28.271 15.9771L22.2053 11.7297C22.1327 11.6788 22.0325 11.6966 21.9816 11.7692Z" fill="#AED559"/>
<path d="M28.2806 15.9766L27.5352 15.4546C27.5991 15.4993 27.6097 15.5945 27.5588 15.6672L22.4032 23.0303C22.3523 23.1029 22.2591 23.1255 22.1953 23.0807L22.9407 23.6027C23.0135 23.6536 23.1134 23.636 23.1643 23.5633L28.3201 16.2002C28.371 16.1276 28.3532 16.0273 28.2806 15.9766Z" fill="#7FAB38"/>
<path d="M21.5425 14.3713C21.483 14.3713 21.4228 14.3536 21.3704 14.3169C21.2344 14.2217 21.2014 14.0342 21.2965 13.8982L21.7348 13.2726C21.7804 13.2073 21.8503 13.1627 21.9287 13.1489C22.0072 13.1351 22.0881 13.153 22.1533 13.1988C22.2201 13.2454 22.301 13.2635 22.381 13.2494C22.4613 13.2352 22.5312 13.1906 22.578 13.1238C22.5804 13.1202 22.5828 13.1169 22.5848 13.1134C22.6269 13.0401 22.6977 12.988 22.7801 12.9696C22.8624 12.9512 22.9488 12.9684 23.0179 13.0167L23.6772 13.4785C23.8132 13.5736 23.8462 13.761 23.7511 13.897C23.6558 14.033 23.4683 14.0661 23.3325 13.9709L22.8895 13.6607C22.7732 13.7526 22.6354 13.8149 22.4854 13.8412C22.3496 13.8652 22.213 13.8581 22.0838 13.8219L21.789 14.243C21.7305 14.3266 21.6372 14.3713 21.5425 14.3713Z" fill="#575B7A"/>
<path d="M26.2947 17.6975C26.2351 17.6975 26.1751 17.6799 26.1225 17.6431C25.9865 17.548 25.9536 17.3605 26.0488 17.2245L26.3436 16.8034C26.2654 16.6944 26.2121 16.5685 26.188 16.4326C26.1616 16.2826 26.1728 16.1319 26.2195 15.9912L25.7767 15.681C25.6407 15.5859 25.6076 15.3985 25.7028 15.2625C25.7981 15.1265 25.9855 15.0934 26.1215 15.1887L26.7808 15.6503C26.85 15.6988 26.8956 15.7742 26.9065 15.8581C26.9173 15.9418 26.8924 16.0263 26.8378 16.0909C26.8352 16.0937 26.8331 16.0968 26.8308 16.1C26.7839 16.1671 26.7659 16.2481 26.7801 16.3282C26.7942 16.4084 26.8387 16.4783 26.9054 16.525C27.0414 16.6203 27.0746 16.8076 26.9793 16.9436L26.5412 17.5694C26.4827 17.6528 26.3894 17.6975 26.2947 17.6975Z" fill="#575B7A"/>
<path d="M23.4624 16.404C22.6582 15.841 21.3725 16.2901 20.5906 17.4068C19.8086 18.5235 19.8265 19.8852 20.6307 20.4482C21.4347 21.0114 22.7204 20.5623 23.5024 19.4456C24.2843 18.3289 24.2664 16.967 23.4624 16.404Z" fill="#FFEB96"/>
<path d="M21.4218 20.9937C21.0626 20.9937 20.7292 20.8934 20.4463 20.6952C19.976 20.3659 19.7122 19.8136 19.7034 19.1399C19.695 18.5029 19.9184 17.8264 20.3325 17.2351C20.7464 16.6439 21.3056 16.2026 21.907 15.9926C22.5431 15.7706 23.1525 15.8295 23.6226 16.1587C24.0928 16.488 24.3567 17.0403 24.3656 17.7141C24.3739 18.351 24.1505 19.0275 23.7365 19.6187C23.3225 20.21 22.7632 20.6513 22.1619 20.8613C21.9086 20.9497 21.6595 20.9937 21.4218 20.9937ZM22.6443 16.4624C22.474 16.4624 22.2924 16.4948 22.1052 16.5602C21.6218 16.729 21.1672 17.0911 20.8248 17.5799C20.1392 18.5592 20.124 19.7358 20.7911 20.2027C21.4582 20.6698 22.5585 20.2532 23.2441 19.274C23.5865 18.7851 23.7712 18.234 23.7644 17.722C23.7582 17.2468 23.5854 16.8665 23.2778 16.6512C23.0987 16.5257 22.8823 16.4624 22.6443 16.4624ZM23.4903 19.4464H23.4907H23.4903Z" fill="#575B7A"/>
<path d="M11.7031 19.5451V28.594C11.7031 29.2466 12.2322 29.7757 12.8849 29.7757H25.9437C26.5963 29.7757 27.1254 29.2466 27.1254 28.594V19.5451C27.1254 18.8924 26.5963 18.3633 25.9437 18.3633H12.8849C12.2322 18.3633 11.7031 18.8924 11.7031 19.5451H11.7031Z" fill="#F28F88"/>
<path d="M25.9431 18.3633H24.9453C25.598 18.3633 26.1271 18.8924 26.1271 19.5451V28.594C26.1271 29.2466 25.598 29.7757 24.9453 29.7757H25.9431C26.5957 29.7757 27.1248 29.2466 27.1248 28.594V19.5451C27.1248 18.8924 26.5957 18.3633 25.9431 18.3633Z" fill="#CE675D"/>
<path d="M27.067 25.928H24.6708C23.6445 25.928 22.8125 25.096 22.8125 24.0697C22.8125 23.0435 23.6445 22.2114 24.6708 22.2114H27.067C27.7537 22.2114 28.3105 22.7682 28.3105 23.455V24.6845C28.3105 25.3712 27.7537 25.928 27.067 25.928Z" fill="#FFD2C0"/>
<path d="M27.067 25.0338H24.6708C23.7986 25.0338 23.0672 24.4329 22.8671 23.6226C22.8316 23.7659 22.8125 23.9155 22.8125 24.0696C22.8125 25.0959 23.6445 25.9279 24.6708 25.9279H27.067C27.7537 25.9279 28.3105 25.3711 28.3105 24.6844V23.7903C28.3105 24.477 27.7537 25.0338 27.067 25.0338Z" fill="#EDAA9D"/>
<path d="M25.5653 24.0693C25.5653 24.5189 25.2009 24.8833 24.7514 24.8833C24.3019 24.8833 23.9375 24.5189 23.9375 24.0693C23.9375 23.6198 24.3019 23.2554 24.7514 23.2554C25.2009 23.2554 25.5653 23.6198 25.5653 24.0693Z" fill="#CE675D"/>
<path d="M22.7473 28.2867C22.7473 30.1263 21.2561 31.6174 19.4167 31.6174C17.5771 31.6174 16.0859 30.1263 16.0859 28.2867C16.0859 26.4472 17.5771 24.9561 19.4167 24.9561C21.2561 24.9561 22.7473 26.4472 22.7473 28.2867Z" fill="#FFCD34"/>
<path d="M20.8762 25.2964C21.5116 25.9028 21.908 26.7576 21.908 27.7052C21.908 29.5447 20.4169 31.036 18.5773 31.036C18.0503 31.036 17.5523 30.913 17.1094 30.6951C17.7072 31.2659 18.5163 31.6171 19.4082 31.6171C21.2476 31.6171 22.7388 30.1259 22.7388 28.2863C22.7388 26.9738 21.9793 25.8392 20.8762 25.2964Z" fill="#E69012"/>
<path d="M20.5186 28.8609C20.5186 28.3832 20.1301 27.9946 19.6523 27.9946H19.1397C18.9838 27.9946 18.857 27.8679 18.857 27.712C18.857 27.5561 18.9838 27.4292 19.1397 27.4292H20.1208C20.2819 27.4292 20.4125 27.2985 20.4125 27.1374C20.4125 26.9763 20.2819 26.8457 20.1208 26.8457H19.743V26.5828C19.743 26.4217 19.6123 26.291 19.4513 26.291C19.2902 26.291 19.1595 26.4217 19.1595 26.5828V26.8457H19.1397C18.662 26.8457 18.2734 27.2342 18.2734 27.712C18.2734 28.1896 18.662 28.5781 19.1397 28.5781H19.6523C19.8082 28.5781 19.9351 28.705 19.9351 28.8609C19.9351 29.0168 19.8082 29.1437 19.6523 29.1437H18.6713C18.5102 29.1437 18.3795 29.2742 18.3795 29.4355C18.3795 29.5965 18.5102 29.7272 18.6713 29.7272H19.1595V29.99C19.1595 30.1512 19.2902 30.2817 19.4513 30.2817C19.6123 30.2817 19.743 30.1512 19.743 29.99V29.7224C20.1782 29.6769 20.5186 29.308 20.5186 28.8609Z" fill="#E69012"/>
</svg>
