<svg width="40" height="40" viewBox="0 0 40 40" fill="none" xmlns="http://www.w3.org/2000/svg">
<circle cx="20" cy="20" r="18" fill="#CCE6FD"/>
<path d="M25.4511 10.7592C25.4511 10.4527 25.2026 10.2041 24.896 10.2041H17.1411C16.8345 10.2041 16.5859 10.4526 16.5859 10.7592V25.1837C16.5859 25.4903 16.8344 25.7389 17.1411 25.7389H24.896C25.2026 25.7389 25.4511 25.4904 25.4511 25.1837V10.7592Z" fill="#BED8FB"/>
<path d="M24.896 10.2041H23.9781V23.7107C23.9781 24.0172 23.7295 24.2658 23.4229 24.2658H16.5859V25.1837C16.5859 25.4903 16.8344 25.7389 17.1411 25.7389H24.896C25.2026 25.7389 25.4511 25.4903 25.4511 25.1837V10.7592C25.4511 10.4527 25.2026 10.2041 24.896 10.2041Z" fill="#80B4FB"/>
<path d="M23.2728 10.2046H18.7109L19.4796 11.3815C19.6033 11.5708 19.8141 11.6849 20.0402 11.6849H21.9435C22.1696 11.6849 22.3804 11.5708 22.5041 11.3815L23.2728 10.2046Z" fill="#695E66"/>
<path d="M22.3605 10.2046L21.5918 11.3815C21.4682 11.5708 21.2574 11.6849 21.0312 11.6849H21.9631C22.1892 11.6849 22.4001 11.5708 22.5237 11.3815L23.2924 10.2046H22.3605Z" fill="#453E43"/>
<path d="M24.887 26.0739H17.1321C16.6414 26.0739 16.2422 25.6747 16.2422 25.184V10.7595C16.2422 10.2688 16.6414 9.86963 17.1321 9.86963H24.887C25.3777 9.86963 25.7769 10.2688 25.7769 10.7595V25.184C25.7769 25.6747 25.3777 26.0739 24.887 26.0739ZM17.1321 10.5391C17.0105 10.5391 16.9117 10.638 16.9117 10.7595V25.184C16.9117 25.3055 17.0106 25.4043 17.1321 25.4043H24.887C25.0085 25.4043 25.1074 25.3055 25.1074 25.184V10.7595C25.1074 10.638 25.0085 10.5392 24.887 10.5392H17.1321V10.5391Z" fill="#463E43"/>
<path d="M20.9048 17.528C21.088 17.5225 21.2291 17.3627 21.2291 17.1794V17.1205C21.5612 17.0012 21.8146 16.7115 21.8759 16.3465C21.9518 15.895 21.7074 15.4872 21.2678 15.3318C21.0523 15.2557 20.8148 15.1643 20.6871 15.0641C20.677 15.0562 20.662 15.0154 20.673 14.957C20.6784 14.9286 20.7029 14.834 20.7944 14.8064C21.0106 14.7414 21.1478 14.8484 21.1628 14.8608L21.1569 14.8556L21.2311 14.8871C21.5553 15.0248 21.8424 14.629 21.6108 14.3636C21.535 14.2937 21.4019 14.2092 21.2291 14.1594V14.1427C21.2291 13.9594 21.088 13.7996 20.9048 13.7941C20.7153 13.7884 20.5598 13.9404 20.5598 14.1286V14.1797C20.2799 14.2806 20.0729 14.527 20.0152 14.833C19.9591 15.1311 20.0582 15.4215 20.274 15.5907C20.4773 15.7501 20.7646 15.8638 21.0447 15.9628C21.214 16.0227 21.2312 16.1442 21.2158 16.2355C21.1988 16.337 21.1115 16.5091 20.8923 16.5105C20.6718 16.5119 20.6156 16.504 20.4591 16.4029C20.3058 16.304 20.0962 16.3334 19.991 16.4825C19.8813 16.6381 19.9232 16.8523 20.0812 16.9556C20.2612 17.0734 20.4036 17.1315 20.5598 17.1586V17.1934C20.5598 17.3817 20.7153 17.5336 20.9048 17.528Z" fill="#F9F6F9"/>
<path d="M31.2727 25.1819L29.7871 19.5557C29.6764 19.1361 29.4722 18.7471 29.1899 18.4176C29.0099 18.2075 28.8611 17.9725 28.7482 17.7199L26.3929 12.454C26.2741 12.1883 26.0463 12.0063 25.7861 11.936V16.368C26.0567 17.1099 26.2833 17.7312 26.3747 17.982C26.4035 18.0608 26.418 18.1438 26.4179 18.2277L26.4136 20.882C26.4125 21.5136 25.895 22.0304 25.2634 22.0304C24.916 22.0272 24.5891 21.8662 24.3748 21.5929C23.9935 21.1064 23.428 20.3833 23.428 20.3833C23.1091 19.9726 22.5982 19.7167 22.0777 19.7157C21.6958 19.7109 21.3097 19.8309 20.9854 20.0846C20.7541 20.2654 20.7133 20.5995 20.8941 20.8308L23.2591 23.8549C23.3922 24.0251 23.4587 24.2359 23.4593 24.4519C23.4618 25.3736 24.103 26.1706 25.0032 26.3701L26.031 26.5977C26.1332 26.6204 26.206 26.711 26.206 26.8158V29.8675C26.206 30.1119 26.4041 30.31 26.6485 30.31L31.0131 30.3012C31.2575 30.3012 31.4555 30.1031 31.4555 29.8587V27.0861C31.4555 26.5186 31.4095 25.9521 31.318 25.3922C31.3065 25.3214 31.291 25.2512 31.2727 25.1819Z" fill="#FFCBBE"/>
<path d="M31.2678 25.1819L29.7822 19.5557C29.6723 19.1392 29.4723 18.7508 29.191 18.4246C29.0083 18.2127 28.8575 17.9753 28.7433 17.72L26.388 12.454C26.2692 12.1883 26.0414 12.0063 25.7812 11.936V13.4826L27.6945 17.7602C27.8082 18.0145 27.958 18.251 28.1393 18.4626C28.4235 18.7944 28.6291 19.1862 28.7406 19.6086L30.2367 25.2746C30.255 25.344 30.2705 25.414 30.282 25.4848C30.3743 26.0489 30.4206 26.6196 30.4206 27.1912V29.9831C30.4206 30.1086 30.3686 30.2217 30.2852 30.3027L31.0082 30.3012C31.2526 30.3012 31.4507 30.1031 31.4507 29.8587V27.0861C31.4507 26.5186 31.4047 25.9521 31.3131 25.3922C31.3017 25.3214 31.2861 25.2512 31.2678 25.1819Z" fill="#FDAD9D"/>
<path d="M14.6775 17.67C14.5893 17.67 14.5012 17.6353 14.4354 17.5664C14.1798 17.2988 14.0391 16.9478 14.0391 16.5782C14.0391 16.2085 14.1798 15.8575 14.4355 15.5899C14.5631 15.4562 14.775 15.4513 14.9087 15.579C15.0425 15.7067 15.0473 15.9187 14.9196 16.0523C14.7836 16.1948 14.7086 16.3816 14.7086 16.5782C14.7086 16.7748 14.7835 16.9615 14.9196 17.104C15.0473 17.2377 15.0424 17.4496 14.9087 17.5773C14.8439 17.6392 14.7606 17.67 14.6775 17.67Z" fill="#C3BEC6"/>
<path d="M13.4571 18.6264C13.3623 18.6264 13.2681 18.5863 13.2019 18.5085C12.7442 17.9704 12.4922 17.2848 12.4922 16.5778C12.4922 15.8709 12.7442 15.1852 13.2019 14.6472C13.3217 14.5063 13.5329 14.4893 13.6738 14.6091C13.8146 14.7289 13.8316 14.9401 13.7119 15.081C13.3571 15.4981 13.1617 16.0297 13.1617 16.5779C13.1617 17.126 13.3571 17.6577 13.7119 18.0748C13.8316 18.2156 13.8146 18.4268 13.6738 18.5466C13.6108 18.6001 13.5337 18.6264 13.4571 18.6264Z" fill="#C3BEC6"/>
<path fill-rule="evenodd" clip-rule="evenodd" d="M35.0968 29.8081C31.8861 34.7393 26.3245 37.9995 20.0015 37.9995C13.6785 37.9995 8.11698 34.7393 4.90625 29.8081H35.0968Z" fill="#AEBF3E"/>
<path d="M20.8361 28.6491H10.4297V24.5783C10.4297 24.1902 10.7444 23.8755 11.1325 23.8755H20.1333C20.5214 23.8755 20.8361 24.1902 20.8361 24.5783V28.6491Z" fill="#695E66"/>
<path d="M20.1414 23.8755H19.4609V28.6491H20.8438V24.5779C20.8438 24.1899 20.5293 23.8755 20.1414 23.8755Z" fill="#453E43"/>
<path d="M19.1902 28.3398V20.1922C19.1902 20.1031 19.0865 20.0541 19.0177 20.1107L18.5443 20.4998C18.5053 20.5318 18.4492 20.5318 18.4103 20.4998L17.8314 20.024C17.7924 19.992 17.7363 19.992 17.6974 20.024L17.1186 20.4998C17.0797 20.5318 17.0235 20.5318 16.9846 20.4998L16.4058 20.024C16.3669 19.992 16.3107 19.992 16.2718 20.024L15.693 20.4998C15.654 20.5318 15.5979 20.5318 15.559 20.4998L14.9802 20.024C14.9412 19.992 14.8851 19.992 14.8462 20.024L14.2675 20.4998C14.2286 20.5318 14.1724 20.5318 14.1335 20.4998L13.5548 20.024C13.5159 19.992 13.4597 19.992 13.4208 20.024L12.8422 20.4998C12.8033 20.5318 12.7471 20.5318 12.7082 20.4998L12.235 20.1108C12.1661 20.0542 12.0625 20.1031 12.0625 20.1923V28.3398H19.1902Z" fill="#EFECEF"/>
<path d="M14.7985 24.9358H13.734C13.54 24.9358 13.3828 24.7785 13.3828 24.5846C13.3828 24.3906 13.5401 24.2334 13.734 24.2334H14.7985C14.9924 24.2334 15.1496 24.3907 15.1496 24.5846C15.1496 24.7786 14.9924 24.9358 14.7985 24.9358Z" fill="#C3BEC6"/>
<path d="M15.6681 26.532H13.734C13.54 26.532 13.3828 26.3747 13.3828 26.1808C13.3828 25.9868 13.5401 25.8296 13.734 25.8296H15.6681C15.8621 25.8296 16.0193 25.9868 16.0193 26.1808C16.0193 26.3747 15.862 26.532 15.6681 26.532Z" fill="#C3BEC6"/>
<path d="M15.6681 23.3274H13.734C13.54 23.3274 13.3828 23.1701 13.3828 22.9762C13.3828 22.7822 13.5401 22.625 13.734 22.625H15.6681C15.8621 22.625 16.0193 22.7823 16.0193 22.9762C16.0193 23.1701 15.862 23.3274 15.6681 23.3274Z" fill="#C3BEC6"/>
<path d="M19.019 20.1106L18.5456 20.4998C18.5066 20.5318 18.4506 20.5318 18.4116 20.4998L17.9844 20.1486V28.3397H19.1915V20.1922C19.1915 20.103 19.0879 20.054 19.019 20.1106Z" fill="#D3CED5"/>
<path d="M21.9364 30.76V28.7591C21.9364 28.3913 21.6383 28.0933 21.2706 28.0933H20.8285L20.1778 28.1108L19.4448 28.0933H9.97829C9.6106 28.0933 9.3125 28.3913 9.3125 28.7591V30.76C9.3125 30.8893 9.41732 30.9941 9.54664 30.9941H21.7023C21.8316 30.9941 21.9364 30.8893 21.9364 30.76Z" fill="#695E66"/>
<path d="M20.1267 28.7581V30.9932H21.71C21.8393 30.9932 21.9442 30.8883 21.9442 30.759V28.7581C21.9442 28.3903 21.6461 28.0923 21.2784 28.0923H19.4609C19.8286 28.0923 20.1267 28.3903 20.1267 28.7581Z" fill="#453E43"/>
</svg>
