<svg width="47" height="48" viewBox="0 0 47 48" fill="none" xmlns="http://www.w3.org/2000/svg">
<path opacity="0.4" d="M36.1734 13.8059C36.013 13.783 35.8525 13.783 35.6921 13.8059C32.14 13.6914 29.3213 10.7809 29.3213 7.20592C29.3213 3.56217 32.2775 0.583008 35.9442 0.583008C39.588 0.583008 42.5671 3.53926 42.5671 7.20592C42.5442 10.7809 39.7255 13.6914 36.1734 13.8059Z" fill="#DB5AEE"/>
<path opacity="0.4" d="M43.6441 29.6884C41.0774 31.4072 37.4795 32.0488 34.1566 31.6134C35.0274 29.7342 35.4857 27.6488 35.5087 25.4488C35.5087 23.1572 35.0045 20.9801 34.042 19.078C37.4337 18.6197 41.0316 19.2613 43.6212 20.9801C47.242 23.3634 47.242 27.2822 43.6441 29.6884Z" fill="#DB5AEE"/>
<path opacity="0.4" d="M10.758 13.8059C10.9184 13.783 11.0788 13.783 11.2393 13.8059C14.7913 13.6914 17.6101 10.7809 17.6101 7.20592C17.6101 3.56217 14.6538 0.583008 10.9872 0.583008C7.34342 0.583008 4.36426 3.53926 4.36426 7.20592C4.38717 10.7809 7.20592 13.6914 10.758 13.8059Z" fill="#DB5AEE"/>
<path opacity="0.4" d="M11.0103 25.4464C11.0103 27.6693 11.4916 29.7776 12.3624 31.6797C9.13115 32.0234 5.7624 31.3359 3.2874 29.7089C-0.333431 27.3026 -0.333431 23.3838 3.2874 20.9776C5.73949 19.3276 9.1999 18.663 12.4541 19.0297C11.5145 20.9547 11.0103 23.1318 11.0103 25.4464Z" fill="#DB5AEE"/>
<path d="M23.774 32.3687C23.5907 32.3458 23.3844 32.3458 23.1782 32.3687C18.9615 32.2312 15.5928 28.7708 15.5928 24.5083C15.5928 20.1542 19.099 16.625 23.4761 16.625C27.8303 16.625 31.3594 20.1542 31.3594 24.5083C31.3594 28.7708 28.0136 32.2312 23.774 32.3687Z" fill="#DB5AEE"/>
<path d="M16.3263 37.1113C12.8659 39.4259 12.8659 43.2301 16.3263 45.5217C20.2679 48.1572 26.7304 48.1572 30.6721 45.5217C34.1325 43.2072 34.1325 39.403 30.6721 37.1113C26.7534 34.4759 20.2909 34.4759 16.3263 37.1113Z" fill="#DB5AEE"/>
</svg>
