<svg width="45" height="45" viewBox="0 0 45 45" fill="none" xmlns="http://www.w3.org/2000/svg">
<path d="M31.7149 4.63885C30.081 6.30996 28.9152 8.07033 27.2391 9.78454C25.2358 11.8334 23.2099 13.9053 21.179 15.9825C20.3004 16.8811 18.7155 16.8392 17.8364 17.7382C16.7075 18.8927 16.2848 20.988 15.1606 22.1378C13.1465 24.1978 11.1445 26.2452 9.17249 28.2621C8.97691 28.4622 8.35753 28.2316 8.16265 28.4309C7.9345 28.6642 8.13095 29.3274 7.90376 29.5598C7.48126 29.9919 7.06024 30.4225 6.64104 30.8512L1.73438 27.9965C2.21139 27.5095 2.69119 27.02 3.17334 26.5278C3.62728 26.0646 6.87346 24.2459 7.58305 23.5218C8.41926 22.6685 8.33576 21.2594 9.18006 20.3978C11.1742 18.3628 13.1871 16.3085 15.1992 14.2552C16.1229 13.3127 17.7783 12.8621 18.6997 11.9219C19.7741 10.8256 20.1134 9.24031 21.1791 8.1527C23.2279 6.06196 25.2551 3.99308 27.2393 1.96799C27.6205 1.57901 28.4718 1.57065 28.8495 1.18507C29.9076 0.110096 31.1402 0.282684 32.1983 1.35766C33.257 2.4336 32.7738 3.56291 31.7149 4.63885Z" fill="#EAEAEA"/>
<path d="M31.3929 4.98278C29.759 6.65398 28.9216 8.07074 27.2456 9.78495C25.2455 11.8306 23.2229 13.8992 21.1952 15.9731C20.3411 16.8466 18.6975 16.8646 17.8429 17.7387C16.7004 18.9071 16.3473 20.9312 15.2096 22.0949C13.1738 24.177 11.1503 26.2464 9.1573 28.2847C8.93525 28.5117 8.39023 28.2049 8.16897 28.4312C7.97444 28.6302 8.10357 29.3623 7.90974 29.5605C7.48732 29.9925 7.06647 30.423 6.64737 30.8516L5.04688 29.9202C9.90983 24.9484 25.3072 9.20501 32.5505 1.7959C33.0197 2.81654 32.2226 4.13969 31.3929 4.98278Z" fill="#C7C2C9"/>
<path d="M9.18006 20.397V28.2539C8.32809 29.1255 7.48143 29.9918 6.64104 30.8509L1.73438 27.9962C4.15915 25.5205 6.65445 22.9744 9.18006 20.397Z" fill="#D82F3D"/>
<path d="M8.96324 28.4755C8.18441 29.2721 7.41003 30.0652 6.64104 30.8512L1.73438 27.9964C2.66036 27.0508 3.59628 26.0954 4.54098 25.1318C6.55545 25.336 8.24154 26.6635 8.96324 28.4755Z" fill="#C42330"/>
<path d="M21.2232 8.11182V15.942C19.2159 17.9947 17.2032 20.0529 15.2031 22.0994V14.255C17.2175 12.1995 19.231 10.1449 21.2232 8.11182Z" fill="#D82F3D"/>
<path d="M32.2122 4.70123C30.5788 6.37217 28.9185 8.06993 27.2422 9.78458V1.96777C27.6232 1.57879 28.0032 1.19164 28.3806 0.806233C29.4386 -0.268744 31.1542 -0.268744 32.2122 0.806233C33.2712 1.88208 33.2712 3.6253 32.2122 4.70123Z" fill="#D82F3D"/>
<path d="M21.2232 13.3765V15.9413C19.2159 17.9941 17.2032 20.0523 15.2031 22.0988V19.5322C17.1515 17.54 19.199 15.4461 21.2232 13.3765Z" fill="#C42330"/>
<path d="M7.69127 26.5825C6.85532 25.7845 5.76179 25.2539 4.5488 25.1309C3.604 26.0944 2.66817 27.0498 1.74219 27.9955L6.64886 30.8502C7.48925 29.9911 8.3359 29.1249 9.18788 28.2532V25.6866C8.88946 25.9918 8.59984 26.288 8.31953 26.5746C8.1479 26.7502 7.86873 26.7521 7.69127 26.5825Z" fill="#C42330"/>
<path d="M7.5615 44.249H0.4461C0.199757 44.249 0 44.0492 0 43.8029V30.4461C0 28.2349 1.79259 26.4424 4.00376 26.4424C6.21493 26.4424 8.00751 28.235 8.00751 30.4461V43.8029C8.00751 44.0493 7.80776 44.249 7.5615 44.249Z" fill="#F3D333"/>
<path d="M4.80679 26.5226C2.98059 26.8946 1.60589 28.5102 1.60589 30.4461V44.2491H0.4461C0.199757 44.2491 0 44.0494 0 43.803V30.513C0 28.314 1.74496 26.475 3.94385 26.4428C4.23956 26.4385 4.52823 26.4662 4.80679 26.5226Z" fill="#E8A42B"/>
<path d="M3.99871 32.2296C4.73581 32.2296 5.33335 31.6317 5.33335 30.8941C5.33335 30.1565 4.73581 29.5586 3.99871 29.5586C3.2616 29.5586 2.66406 30.1565 2.66406 30.8941C2.66406 31.6317 3.2616 32.2296 3.99871 32.2296Z" fill="#E8A42B"/>
<path d="M23.181 41.3544V43.0853C23.181 43.7225 22.6644 44.2391 22.0272 44.2391H18.9117C18.2744 44.2391 17.7578 43.7225 17.7578 43.0853V41.3544L20.5206 40.4414L23.181 41.3544Z" fill="#5F6C76"/>
<path d="M42.7357 41.3544V43.0853C42.7357 43.7225 42.2191 44.2391 41.5818 44.2391H38.4664C37.8291 44.2391 37.3125 43.7225 37.3125 43.0853V41.3544L40.0544 40.4414L42.7357 41.3544Z" fill="#5F6C76"/>
<path d="M20.428 44.2392H18.9113C18.2744 44.2392 17.7578 43.7226 17.7578 43.0848V41.354H19.2744V43.0848C19.2744 43.7226 19.791 44.2392 20.428 44.2392Z" fill="#4F5A61"/>
<path d="M39.9834 44.2392H38.4669C37.8299 44.2392 37.3125 43.7226 37.3125 43.0848V41.354H38.8291V43.0848C38.829 43.7226 39.3465 44.2392 39.9834 44.2392Z" fill="#4F5A61"/>
<path d="M41.09 28.4312L43.3241 30.2775C44.1198 30.9351 44.5805 31.9136 44.5805 32.9458V34.1683L43.6407 35.7259L44.5805 37.2836V39.6238C44.5805 40.5797 43.8056 41.3547 42.8497 41.3547H17.6371C16.6812 41.3547 15.9062 40.5797 15.9062 39.6238V37.2836L16.4537 35.7964L15.9062 34.1304V32.9458C15.9062 31.9135 16.367 30.9351 17.1627 30.2775L19.3968 28.4312H41.09Z" fill="#6E9CD3"/>
<path d="M19.4212 41.3545H17.637C16.6806 41.3545 15.9062 40.5801 15.9062 39.6237V37.2837L16.4533 35.7965L15.9062 34.1684V32.9461C15.9062 31.9139 16.3665 30.9353 17.1623 30.2778L19.3962 28.4312H21.1805L18.9466 30.2778C18.1508 30.9353 17.6905 31.914 17.6905 32.9461V39.6237C17.6906 40.5801 18.4649 41.3545 19.4212 41.3545Z" fill="#5276B9"/>
<path d="M23.1498 21.6226H37.3308C38.6826 21.6226 39.8532 22.5614 40.1468 23.8812L40.9924 27.6841C41.0994 28.1657 41.0361 28.6695 40.8131 29.1096C40.4501 29.8257 39.7156 30.2769 38.913 30.2769H21.5677C20.765 30.2769 20.0305 29.8257 19.6676 29.1096C19.4446 28.6696 19.3812 28.1658 19.4883 27.6841L20.3339 23.8812C20.6273 22.5614 21.7979 21.6226 23.1498 21.6226Z" fill="#F5FAFF"/>
<path d="M40.8975 28.9196C40.8725 28.9838 40.844 29.0471 40.8128 29.1096C40.6317 29.4682 40.3569 29.76 40.0277 29.9624C39.6985 30.164 39.3149 30.2774 38.9134 30.2774H21.5679C20.7649 30.2774 20.0308 29.826 19.6676 29.1096C19.5151 28.8089 19.4375 28.4789 19.4375 28.1461C19.4375 27.9918 19.4545 27.8365 19.4884 27.6839L20.3341 23.8817C20.5669 22.8343 21.351 22.0279 22.3395 21.7388C22.1986 21.985 22.0933 22.2553 22.0291 22.5435L21.1834 26.3457C21.1495 26.4983 21.1326 26.6535 21.1326 26.8078C21.1326 27.1406 21.2101 27.4707 21.3627 27.7714C21.7258 28.4877 22.4601 28.9392 23.2629 28.9392H40.6085C40.7057 28.9392 40.803 28.932 40.8975 28.9196Z" fill="#D7E1F2"/>
<path d="M33.2177 21.6226V23.7418C33.2177 24.0605 32.9084 24.3188 32.5269 24.3188H28.0814C27.6998 24.3188 27.3906 24.0605 27.3906 23.7418V21.6226H33.2177Z" fill="#7E8A94"/>
<path d="M35.3031 34.7879L34.9284 37.268C34.9069 37.4098 34.7856 37.5142 34.6429 37.5142H25.8501C25.7083 37.5142 25.587 37.4098 25.5656 37.268L25.1909 34.7879C25.1641 34.6131 25.2997 34.4561 25.4763 34.4561H35.0176C35.1942 34.4561 35.3289 34.6131 35.3031 34.7879Z" fill="#5F6C76"/>
<path d="M15.9063 34.168H16.5801C17.3608 34.168 18.1405 34.2226 18.9136 34.3315L20.68 34.5803C21.3504 34.6747 21.8488 35.2483 21.8488 35.9253C21.8488 36.6754 21.2407 37.2835 20.4906 37.2835H15.9062L15.9063 34.168Z" fill="#F3D333"/>
<path d="M17.6905 34.2059V37.2838H15.9062V34.1685H16.5798C16.95 34.1685 17.3211 34.181 17.6905 34.2059Z" fill="#E8A42B"/>
<path d="M44.5861 34.168H43.8547C43.0739 34.168 42.2942 34.2226 41.5212 34.3315L39.7547 34.5803C39.0844 34.6747 38.5859 35.2483 38.5859 35.9253C38.5859 36.6754 39.194 37.2835 39.9442 37.2835H44.5861V34.168Z" fill="#F3D333"/>
<path d="M29.5391 34.4565H30.8773V37.5147H29.5391V34.4565Z" fill="#4F5A61"/>
<path d="M33.4701 34.4565C33.4701 34.4771 33.4692 34.4976 33.4674 34.519L33.1846 37.5147H31.8438C31.8438 37.4942 31.8446 37.4728 31.8464 37.4514L32.1283 34.4565H33.4701Z" fill="#4F5A61"/>
<path d="M28.5717 37.5147H27.2299L26.948 34.519C26.9462 34.4976 26.9453 34.477 26.9453 34.4565H28.2861L28.569 37.4514C28.5707 37.4728 28.5717 37.4942 28.5717 37.5147Z" fill="#4F5A61"/>
<path d="M32.7552 1.59424L27.2422 7.22148V9.78453C28.9185 8.06988 30.5788 6.37212 32.2122 4.70118C33.0395 3.86062 33.2204 2.61288 32.7552 1.59424Z" fill="#C42330"/>
</svg>
