<svg width="100" height="82" viewBox="0 0 100 82" fill="none" xmlns="http://www.w3.org/2000/svg">
<path d="M7.41666 34.2915H72.5833C73.3658 34.2915 74 34.963 74 35.7915V70.2915H7.41666C6.63422 70.2915 6 69.62 6 68.7915V35.7915C6 34.963 6.63422 34.2915 7.41666 34.2915Z" fill="#96C3F0"/>
<path d="M74.125 70.6458H7.41926C6.63538 70.6458 6 70.0104 6 69.2265V64.9688H74.125V70.6458Z" fill="#7DA5D7"/>
<path d="M93.1633 59.8795L91.1563 57.8725L87.8446 47.9376H88.3178C89.1017 47.9376 89.737 47.3021 89.737 46.5184C89.737 45.7345 89.1017 45.0991 88.3178 45.0991H75.5443C74.7604 45.0991 74.125 45.7345 74.125 46.5184V70.646H79.802V74.9038L92.5756 74.9045C93.3594 74.9045 93.9948 74.2691 93.9948 73.4852V61.8869C93.9948 61.1341 93.6958 60.4121 93.1633 59.8795Z" fill="#FFD164"/>
<path d="M93.1633 59.8795L91.1563 57.8725L87.8446 47.9376H88.3178C89.1017 47.9376 89.737 47.3021 89.737 46.5184C89.737 45.7345 89.1017 45.0991 88.3178 45.0991H75.5443C74.7604 45.0991 74.125 45.7345 74.125 46.5184V74.9038L92.5756 74.9045C93.3594 74.9045 93.9948 74.2691 93.9948 73.4852V61.8871C93.9948 61.1341 93.6958 60.4121 93.1633 59.8795Z" fill="#DBD9DC"/>
<path d="M74.125 74.9038H92.5756C93.3594 74.9038 93.9948 74.2684 93.9948 73.4845V70.646H74.125V74.9038Z" fill="#C9C6CA"/>
<path d="M76.9609 49.3568V56.4531C76.9609 57.2369 77.5963 57.8723 78.3802 57.8723H91.1537L87.842 47.9375H78.3802C77.5963 47.9373 76.9609 48.5729 76.9609 49.3568Z" fill="#C9C6CA"/>
<path d="M79.7969 52.1951V56.4529C79.7969 57.2368 80.4323 57.8722 81.2161 57.8722H91.151L88.7856 50.7759H81.2161C80.4324 50.7757 79.7969 51.4111 79.7969 52.1951Z" fill="#5D5360"/>
<path d="M88.7934 50.7754H81.2239C80.4401 50.7754 79.8047 51.4108 79.8047 52.1947V53.6139H89.7395L88.7934 50.7754Z" fill="#4B3F4E"/>
<path d="M79.8021 76.323H11.6771C10.8932 76.323 10.2578 75.6877 10.2578 74.9038V70.646H79.8021V76.323Z" fill="#6F6571"/>
<path d="M79.8017 81.9999C82.9369 81.9999 85.4784 79.4583 85.4784 76.3232C85.4784 73.188 82.9369 70.6465 79.8017 70.6465C76.6665 70.6465 74.125 73.188 74.125 76.3232C74.125 79.4583 76.6665 81.9999 79.8017 81.9999Z" fill="#4B3F4E"/>
<path d="M79.8073 79.1614C81.3749 79.1614 82.6458 77.8906 82.6458 76.3229C82.6458 74.7552 81.3749 73.4844 79.8073 73.4844C78.2396 73.4844 76.9688 74.7552 76.9688 76.3229C76.9688 77.8906 78.2396 79.1614 79.8073 79.1614Z" fill="#6F6571"/>
<path d="M32.9658 81.9999C36.1009 81.9999 38.6425 79.4583 38.6425 76.3232C38.6425 73.188 36.1009 70.6465 32.9658 70.6465C29.8306 70.6465 27.2891 73.188 27.2891 76.3232C27.2891 79.4583 29.8306 81.9999 32.9658 81.9999Z" fill="#4B3F4E"/>
<path d="M32.9713 79.1614C34.539 79.1614 35.8099 77.8906 35.8099 76.3229C35.8099 74.7552 34.539 73.4844 32.9713 73.4844C31.4037 73.4844 30.1328 74.7552 30.1328 76.3229C30.1328 77.8906 31.4037 79.1614 32.9713 79.1614Z" fill="#6F6571"/>
<path d="M21.6142 81.9999C24.7494 81.9999 27.2909 79.4583 27.2909 76.3232C27.2909 73.188 24.7494 70.6465 21.6142 70.6465C18.479 70.6465 15.9375 73.188 15.9375 76.3232C15.9375 79.4583 18.479 81.9999 21.6142 81.9999Z" fill="#4B3F4E"/>
<path d="M21.612 79.1614C23.1796 79.1614 24.4505 77.8906 24.4505 76.3229C24.4505 74.7552 23.1796 73.4844 21.612 73.4844C20.0443 73.4844 18.7734 74.7552 18.7734 76.3229C18.7734 77.8906 20.0443 79.1614 21.612 79.1614Z" fill="#6F6571"/>
<path d="M94 67.8066H91.1614C90.3776 67.8066 89.7422 67.1712 89.7422 66.3873V64.9681C89.7422 64.1842 90.3776 63.5488 91.1614 63.5488H94V67.8066Z" fill="#FAEBC8"/>
</svg>
