<svg width="44" height="44" viewBox="0 0 44 44" fill="none" xmlns="http://www.w3.org/2000/svg">
<g clip-path="url(#clip0_3233_51376)">
<path d="M28.3438 37.6568V17.3936H37.3301C37.8166 17.3936 38.2111 17.788 38.2111 18.2746V36.7759C38.2111 37.2625 37.8166 37.6569 37.3301 37.6569H28.3438V37.6568Z" fill="#FFE07D"/>
<path d="M37.3301 17.3936H36.0967V34.6614C36.0967 35.148 35.7022 35.5424 35.2157 35.5424H28.3438V37.6568H37.3301C37.8166 37.6568 38.2111 37.2624 38.2111 36.7758V18.2745C38.2112 17.788 37.8167 17.3936 37.3301 17.3936Z" fill="#FFD064"/>
<path d="M31.1641 17.3936V37.6568H28.3448V17.3936H31.1641Z" fill="#407093"/>
<path d="M28.3438 35.5425H31.163V37.6569H28.3438V35.5425Z" fill="#365E7D"/>
<path d="M7.55113 10.1689H23.7618C24.7349 10.1689 25.5238 10.9579 25.5238 11.931V42.2379C25.5238 43.2111 24.7349 44 23.7618 44H7.55113C6.57797 44 5.78906 43.2111 5.78906 42.2379V11.931C5.78915 10.9579 6.57806 10.1689 7.55113 10.1689Z" fill="#BED8FB"/>
<path d="M23.7607 10.1689H21.7344C22.7075 10.1689 23.4964 10.9579 23.4964 11.931V42.2379C23.4964 43.2111 22.7075 44 21.7344 44H23.7607C24.7339 44 25.5228 43.2111 25.5228 42.2379V11.931C25.5227 10.9579 24.7338 10.1689 23.7607 10.1689Z" fill="#9DC6FB"/>
<path d="M16.3715 24.2656H14.9477C14.5624 24.2656 14.25 23.9532 14.25 23.5678V22.144C14.25 21.7587 14.5624 21.4463 14.9477 21.4463H16.3715C16.7569 21.4463 17.0693 21.7587 17.0693 22.144V23.5678C17.0693 23.9532 16.7569 24.2656 16.3715 24.2656Z" fill="#F9F6F6"/>
<path d="M10.7309 24.2656H9.3071C8.92176 24.2656 8.60938 23.9532 8.60938 23.5678V22.144C8.60938 21.7587 8.92176 21.4463 9.3071 21.4463H10.7309C11.1163 21.4463 11.4286 21.7587 11.4286 22.144V23.5678C11.4286 23.9532 11.1163 24.2656 10.7309 24.2656Z" fill="#F9F6F6"/>
<path d="M16.3715 29.9042H14.9477C14.5624 29.9042 14.25 29.5918 14.25 29.2065V27.7827C14.25 27.3973 14.5624 27.085 14.9477 27.085H16.3715C16.7569 27.085 17.0693 27.3973 17.0693 27.7827V29.2065C17.0693 29.5918 16.7569 29.9042 16.3715 29.9042Z" fill="#F9F6F6"/>
<path d="M10.7309 29.9042H9.3071C8.92176 29.9042 8.60938 29.5918 8.60938 29.2065V27.7827C8.60938 27.3973 8.92176 27.085 9.3071 27.085H10.7309C11.1163 27.085 11.4286 27.3973 11.4286 27.7827V29.2065C11.4286 29.5918 11.1163 29.9042 10.7309 29.9042Z" fill="#F9F6F6"/>
<path d="M16.3715 35.5424H14.9477C14.5624 35.5424 14.25 35.23 14.25 34.8447V33.4209C14.25 33.0355 14.5624 32.7231 14.9477 32.7231H16.3715C16.7569 32.7231 17.0693 33.0355 17.0693 33.4209V34.8447C17.0693 35.23 16.7569 35.5424 16.3715 35.5424Z" fill="#F9F6F6"/>
<path d="M10.7309 35.5424H9.3071C8.92176 35.5424 8.60938 35.23 8.60938 34.8447V33.4209C8.60938 33.0355 8.92176 32.7231 9.3071 32.7231H10.7309C11.1163 32.7231 11.4286 33.0355 11.4286 33.4209V34.8447C11.4286 35.23 11.1163 35.5424 10.7309 35.5424Z" fill="#F9F6F6"/>
<path d="M16.3715 41.1806H14.9477C14.5624 41.1806 14.25 40.8682 14.25 40.4829V39.0591C14.25 38.6737 14.5624 38.3613 14.9477 38.3613H16.3715C16.7569 38.3613 17.0693 38.6737 17.0693 39.0591V40.4829C17.0693 40.8682 16.7569 41.1806 16.3715 41.1806Z" fill="#FFE07D"/>
<path d="M10.7309 41.1806H9.3071C8.92176 41.1806 8.60938 40.8682 8.60938 40.4829V39.0591C8.60938 38.6737 8.92176 38.3613 9.3071 38.3613H10.7309C11.1163 38.3613 11.4286 38.6737 11.4286 39.0591V40.4829C11.4286 40.8682 11.1163 41.1806 10.7309 41.1806Z" fill="#D57080"/>
<path d="M20.5805 24.2656H22.0044C22.3897 24.2656 22.7021 23.9532 22.7021 23.5678V22.144C22.7021 21.7587 22.3897 21.4463 22.0044 21.4463H20.5805C20.1952 21.4463 19.8828 21.7587 19.8828 22.144V23.5678C19.8828 23.9532 20.1952 24.2656 20.5805 24.2656Z" fill="#F9F6F6"/>
<path d="M22.0079 18.6268H9.3071C8.92176 18.6268 8.60938 18.3144 8.60938 17.9291V13.686C8.60938 13.3007 8.92176 12.9883 9.3071 12.9883H22.0079C22.3932 12.9883 22.7056 13.3007 22.7056 13.686V17.9291C22.7055 18.3144 22.3931 18.6268 22.0079 18.6268Z" fill="#F9F6F6"/>
<path d="M23.6726 0.654297H13.1005C11.5435 0.654297 10.2812 1.91655 10.2812 3.47356V7.35003H20.8535V3.47356C20.8535 1.91655 22.1156 0.654297 23.6726 0.654297Z" fill="#F9F6F6"/>
<path d="M20.8516 3.47356C20.8516 1.93493 22.0842 0.68411 23.6159 0.654805C25.1965 0.624555 26.4901 1.94842 26.4901 3.52924V9.29711C26.4901 9.77879 26.0996 10.1693 25.6179 10.1693H20.8516V3.47356H20.8516Z" fill="#CBE2FF"/>
<path d="M23.7654 10.1689H7.55469V8.23064C7.55469 7.74406 7.94914 7.34961 8.43572 7.34961H22.8844C23.371 7.34961 23.7654 7.74406 23.7654 8.23064V10.1689Z" fill="#407093"/>
<path d="M25.5234 39.4189V14.7505H27.4617C27.9483 14.7505 28.3427 15.1449 28.3427 15.6315V38.5379C28.3427 39.0245 27.9483 39.4189 27.4617 39.4189H25.5234Z" fill="#D0CEE7"/>
<path d="M22.8835 7.34961H20.9453C21.4319 7.34961 21.8263 7.74406 21.8263 8.23064V10.1689H23.7646V8.23064C23.7646 7.74406 23.3701 7.34961 22.8835 7.34961Z" fill="#365E7D"/>
<path d="M20.5805 29.9037H22.0044C22.3897 29.9037 22.7021 29.5914 22.7021 29.206V27.7822C22.7021 27.3969 22.3897 27.0845 22.0044 27.0845H20.5805C20.1952 27.0845 19.8828 27.3969 19.8828 27.7822V29.206C19.8828 29.5914 20.1952 29.9037 20.5805 29.9037Z" fill="#F9F6F6"/>
<path d="M20.5805 35.5424H22.0044C22.3897 35.5424 22.7021 35.23 22.7021 34.8447V33.4209C22.7021 33.0355 22.3897 32.7231 22.0044 32.7231H20.5805C20.1952 32.7231 19.8828 33.0355 19.8828 33.4209V34.8447C19.8828 35.23 20.1952 35.5424 20.5805 35.5424Z" fill="#F9F6F6"/>
<path d="M20.5805 41.1806H22.0044C22.3897 41.1806 22.7021 40.8682 22.7021 40.4829V39.0591C22.7021 38.6737 22.3897 38.3613 22.0044 38.3613H20.5805C20.1952 38.3613 19.8828 38.6737 19.8828 39.0591V40.4829C19.8828 40.8682 20.1952 41.1806 20.5805 41.1806Z" fill="#B3E59F"/>
<path d="M31.1619 10.6471C30.8006 10.6471 30.5078 10.3542 30.5078 9.993V4.88307C30.5078 4.52179 30.8007 4.229 31.1619 4.229C31.5231 4.229 31.816 4.52188 31.816 4.88307V9.99292C31.816 10.3542 31.5232 10.6471 31.1619 10.6471Z" fill="#B3E59F"/>
<path d="M31.1619 15.2283C30.8006 15.2283 30.5078 14.9354 30.5078 14.5742V12.8123C30.5078 12.451 30.8007 12.1582 31.1619 12.1582C31.5231 12.1582 31.816 12.4511 31.816 12.8123V14.5742C31.816 14.9354 31.5232 15.2283 31.1619 15.2283Z" fill="#B3E59F"/>
<path d="M33.9823 8.88499C33.621 8.88499 33.3281 8.59212 33.3281 8.23092V0.65407C33.3281 0.292789 33.621 0 33.9823 0C34.3436 0 34.6364 0.292875 34.6364 0.65407V8.23084C34.6364 8.59212 34.3435 8.88499 33.9823 8.88499Z" fill="#B3E59F"/>
<path d="M33.9823 15.2282C33.621 15.2282 33.3281 14.9353 33.3281 14.5741V11.0501C33.3281 10.6888 33.621 10.396 33.9823 10.396C34.3436 10.396 34.6364 10.6889 34.6364 11.0501V14.5741C34.6364 14.9353 34.3435 15.2282 33.9823 15.2282Z" fill="#B3E59F"/>
<path d="M36.8026 10.6471C36.4413 10.6471 36.1484 10.3542 36.1484 9.993V4.88307C36.1484 4.52179 36.4413 4.229 36.8026 4.229C37.1639 4.229 37.4567 4.52188 37.4567 4.88307V9.99292C37.4567 10.3542 37.1639 10.6471 36.8026 10.6471Z" fill="#B3E59F"/>
<path d="M36.8026 15.2283C36.4413 15.2283 36.1484 14.9354 36.1484 14.5742V12.8123C36.1484 12.451 36.4413 12.1582 36.8026 12.1582C37.1639 12.1582 37.4567 12.4511 37.4567 12.8123V14.5742C37.4567 14.9354 37.1639 15.2283 36.8026 15.2283Z" fill="#B3E59F"/>
</g>
<defs>
<clipPath id="clip0_3233_51376">
<rect width="44" height="44" fill="white"/>
</clipPath>
</defs>
</svg>
