<svg width="19" height="22" viewBox="0 0 19 22" fill="none" xmlns="http://www.w3.org/2000/svg">
<path d="M11.8042 18.0698C11.8042 18.6798 11.4242 19.4798 10.9397 19.7898L9.60023 20.6998C8.35573 21.5098 6.62673 20.5998 6.62673 18.9798V13.6298C6.62673 12.9198 6.24673 12.0098 5.85723 11.5098L2.2092 7.46976C1.7247 6.95976 1.34473 6.05977 1.34473 5.44977V3.12976C1.34473 1.91976 2.20925 1.00977 3.26375 1.00977H15.9367C16.9912 1.00977 17.8557 1.91975 17.8557 3.02975V5.24976C17.8557 6.05976 17.3712 7.06976 16.8962 7.56976" stroke="#004F9F" stroke-width="1.5" stroke-linecap="round" stroke-linejoin="round"/>
<path fill-rule="evenodd" clip-rule="evenodd" d="M13.4668 15.5201C11.7878 15.5201 10.4268 14.0874 10.4268 12.3201C10.4268 10.5528 11.7878 9.12012 13.4668 9.12012C15.1457 9.12012 16.5068 10.5528 16.5068 12.3201C16.5068 14.0874 15.1457 15.5201 13.4668 15.5201Z" stroke="#004F9F" stroke-width="1.5" stroke-linecap="round" stroke-linejoin="round"/>
<path d="M17.077 16.1201L16.127 15.1201" stroke="#004F9F" stroke-width="1.5" stroke-linecap="round" stroke-linejoin="round"/>
</svg>