<svg width="108" height="108" viewBox="0 0 108 108" fill="none" xmlns="http://www.w3.org/2000/svg">
<circle cx="54" cy="54" r="54" fill="#CCE6FD"/>
<path fill-rule="evenodd" clip-rule="evenodd" d="M99.2826 83.4219C89.6504 98.2154 72.9658 107.996 53.9967 107.996C35.0277 107.996 18.3431 98.2154 8.71094 83.4219H99.2826Z" fill="#AEBF3E"/>
<path fill-rule="evenodd" clip-rule="evenodd" d="M73.3963 54.5501C72.602 54.1637 71.6144 54.4642 71.228 55.2586C70.8201 56.0743 71.1421 57.0404 71.9365 57.4268L75.3498 59.1228V69.4059L67.2994 69.4274V47.4013C67.2994 43.1077 64.4227 40.9609 60.859 40.9609H43.6847C40.121 40.9609 37.2443 43.1077 37.2443 47.4013V82.2866H34.0242C33.144 82.2866 32.4141 83.0165 32.4141 83.8967C32.4141 84.7769 33.144 85.5068 34.0242 85.5068H70.5196C71.3998 85.5068 72.1297 84.7769 72.1297 83.8967C72.1297 83.0165 71.3998 82.2866 70.5196 82.2866H67.2994V72.6475L76.9599 72.6261C77.8616 72.6261 78.57 71.8962 78.57 71.016V58.1353C78.57 57.5341 78.2265 56.976 77.6898 56.6969L73.3963 54.5501ZM46.6687 47.4013H57.8965C60.1076 47.4013 61.9324 48.4747 61.9324 51.4587V54.0993C61.9324 57.0619 60.1076 58.1353 57.875 58.1353H46.6687C44.4361 58.1353 42.6113 57.0619 42.6113 54.0778V51.4587C42.6113 48.4747 44.4361 47.4013 46.6687 47.4013ZM50.1251 62.9655C51.0053 62.9655 51.7352 63.6954 51.7352 64.5756C51.7352 65.4558 51.0053 66.1857 50.1251 66.1857H43.6847C42.8045 66.1857 42.0746 65.4558 42.0746 64.5756C42.0746 63.6954 42.8045 62.9655 43.6847 62.9655H50.1251Z" fill="#004F9F"/>
</svg>
