<svg width="109" height="108" viewBox="0 0 109 108" fill="none" xmlns="http://www.w3.org/2000/svg">
<circle cx="54.2031" cy="54" r="54" fill="#CCE6FD"/>
<path d="M8.89844 83.4243H99.4836C99.4836 83.4243 92.519 94.1427 82.1287 100.29C68.511 108.347 56.246 108 56.246 108C56.246 108 41.7895 108.808 28.5134 101.521C15.2372 94.2335 8.89844 83.4243 8.89844 83.4243Z" fill="#AEBF3E"/>
<path fill-rule="evenodd" clip-rule="evenodd" d="M73.8025 53.5433C73.0082 53.1569 72.0207 53.4574 71.6343 54.2517C71.2264 55.0675 71.5484 56.0336 72.3427 56.42L75.7561 58.1159V68.3991L67.7056 68.4205V46.3945C67.7056 42.1009 64.8289 39.9541 61.2653 39.9541H44.091C40.5273 39.9541 37.6506 42.1009 37.6506 46.3945V81.2798H34.4304C33.5502 81.2798 32.8203 82.0097 32.8203 82.8899C32.8203 83.7701 33.5502 84.5 34.4304 84.5H70.9258C71.806 84.5 72.5359 83.7701 72.5359 82.8899C72.5359 82.0097 71.806 81.2798 70.9258 81.2798H67.7056V71.6407L77.3662 71.6192C78.2678 71.6192 78.9763 70.8893 78.9763 70.0091V57.1284C78.9763 56.5273 78.6328 55.9691 78.0961 55.6901L73.8025 53.5433Z" fill="#292D32"/>
<path fill-rule="evenodd" clip-rule="evenodd" d="M47.075 46.3945H58.3027C60.5139 46.3945 62.3387 47.4679 62.3387 50.4519V53.0925C62.3387 56.055 60.5139 57.1284 58.2812 57.1284H47.075C44.8423 57.1284 43.0176 56.055 43.0176 53.071V50.4519C43.0176 47.4679 44.8423 46.3945 47.075 46.3945Z" fill="#292D32"/>
<path fill-rule="evenodd" clip-rule="evenodd" d="M50.5313 61.9587C51.4115 61.9587 52.1414 62.6886 52.1414 63.5688C52.1414 64.449 51.4115 65.1789 50.5313 65.1789H44.091C43.2108 65.1789 42.4809 64.449 42.4809 63.5688C42.4809 62.6886 43.2108 61.9587 44.091 61.9587H50.5313Z" fill="#292D32"/>
</svg>