<svg width="17" height="17" viewBox="0 0 17 17" fill="none" xmlns="http://www.w3.org/2000/svg">
<path d="M12.752 4.24999H5.25203C5.04203 4.24999 4.83953 4.26498 4.64453 4.29498C4.74953 4.08498 4.89953 3.89001 5.07953 3.71001L7.51703 1.265C8.54453 0.245 10.2095 0.245 11.237 1.265L12.5495 2.59247C13.0295 3.06497 13.2845 3.66498 13.3145 4.28748C13.1345 4.25748 12.947 4.24999 12.752 4.24999Z" stroke="white" stroke-linecap="round" stroke-linejoin="round"/>
<path d="M6.315 14.795C5.7975 15.665 4.845 16.25 3.75 16.25C2.655 16.25 1.7025 15.665 1.185 14.795C0.9075 14.345 0.75 13.8125 0.75 13.25C0.75 11.5925 2.0925 10.25 3.75 10.25C5.4075 10.25 6.75 11.5925 6.75 13.25C6.75 13.8125 6.5925 14.345 6.315 14.795Z" stroke="white" stroke-linecap="round" stroke-linejoin="round"/>
<path d="M4.86781 13.2344H2.63281" stroke="white" stroke-linecap="round" stroke-linejoin="round"/>
<path d="M3.75 12.1396V14.3821" stroke="white" stroke-linecap="round" stroke-linejoin="round"/>
<path d="M16.5 11.75C16.5 14 15 15.5 12.75 15.5H5.7225C5.955 15.305 6.1575 15.065 6.315 14.795C6.5925 14.345 6.75 13.8125 6.75 13.25C6.75 11.5925 5.4075 10.25 3.75 10.25C2.85 10.25 2.0475 10.6475 1.5 11.27V8C1.5 5.96 2.73 4.535 4.6425 4.295C4.8375 4.265 5.04 4.25 5.25 4.25H12.75C12.945 4.25 13.1325 4.25749 13.3125 4.28749C15.2475 4.51249 16.5 5.945 16.5 8V11.75Z" stroke="white" stroke-linecap="round" stroke-linejoin="round"/>
<path d="M16.5 8.375H14.25C13.425 8.375 12.75 9.05 12.75 9.875C12.75 10.7 13.425 11.375 14.25 11.375H16.5" stroke="white" stroke-linecap="round" stroke-linejoin="round"/>
</svg>