<svg width="22" height="22" viewBox="0 0 22 22" fill="none" xmlns="http://www.w3.org/2000/svg">
<path opacity="0.4" d="M10.0022 19.0102C14.9783 19.0102 19.0122 14.9763 19.0122 10.0002C19.0122 5.02415 14.9783 0.990234 10.0022 0.990234C5.0261 0.990234 0.992188 5.02415 0.992188 10.0002C0.992188 14.9763 5.0261 19.0102 10.0022 19.0102Z" fill="#004F9F"/>
<path d="M13 9.25H7C6.59 9.25 6.25 8.91 6.25 8.5C6.25 8.09 6.59 7.75 7 7.75H13C13.41 7.75 13.75 8.09 13.75 8.5C13.75 8.91 13.41 9.25 13 9.25Z" fill="#004F9F"/>
<path d="M10 12.25H7C6.59 12.25 6.25 11.91 6.25 11.5C6.25 11.09 6.59 10.75 7 10.75H10C10.41 10.75 10.75 11.09 10.75 11.5C10.75 11.91 10.41 12.25 10 12.25Z" fill="#004F9F"/>
<path d="M20.992 17.95C20.662 17.34 19.962 17 19.022 17C18.312 17 17.702 17.29 17.342 17.79C16.982 18.29 16.902 18.96 17.122 19.63C17.552 20.93 18.302 21.22 18.712 21.27C18.772 21.28 18.832 21.28 18.902 21.28C19.342 21.28 20.022 21.09 20.682 20.1C21.212 19.33 21.312 18.56 20.992 17.95Z" fill="#004F9F"/>
</svg>
