<svg width="18" height="21" viewBox="0 0 18 21" fill="none" xmlns="http://www.w3.org/2000/svg">
<path opacity="0.4" d="M13.9688 0.130127H4.32875C2.19875 0.130127 0.46875 1.87013 0.46875 3.99013V18.0801C0.46875 19.8801 1.75875 20.6401 3.33875 19.7701L8.21875 17.0601C8.73875 16.7701 9.57875 16.7701 10.0887 17.0601L14.9688 19.7701C16.5487 20.6501 17.8388 19.8901 17.8388 18.0801V3.99013C17.8288 1.87013 16.0988 0.130127 13.9688 0.130127Z" fill="#004F9F"/>
<path d="M9.14527 8.41018C8.12527 8.41018 7.10527 8.23018 6.13527 7.88018C5.74527 7.74018 5.54527 7.31018 5.68527 6.92018C5.83527 6.53018 6.26527 6.33018 6.65527 6.47018C8.26527 7.05018 10.0353 7.05018 11.6453 6.47018C12.0353 6.33018 12.4653 6.53018 12.6053 6.92018C12.7453 7.31018 12.5453 7.74018 12.1553 7.88018C11.1853 8.23018 10.1653 8.41018 9.14527 8.41018Z" fill="#004F9F"/>
</svg>