<svg width="20" height="20" viewBox="0 0 20 20" fill="none" xmlns="http://www.w3.org/2000/svg">
<path d="M5.24 0H3.34C1.15 0 0 1.15 0 3.33V5.23C0 7.41 1.15 8.56 3.33 8.56H5.23C7.41 8.56 8.56 7.41 8.56 5.23V3.33C8.57 1.15 7.42 0 5.24 0Z" fill="#004F9F"/>
<path opacity="0.4" d="M16.6675 0H14.7675C12.5875 0 11.4375 1.15 11.4375 3.33V5.23C11.4375 7.41 12.5875 8.56 14.7675 8.56H16.6675C18.8475 8.56 19.9975 7.41 19.9975 5.23V3.33C19.9975 1.15 18.8475 0 16.6675 0Z" fill="#004F9F"/>
<path d="M16.6675 11.4302H14.7675C12.5875 11.4302 11.4375 12.5802 11.4375 14.7602V16.6602C11.4375 18.8402 12.5875 19.9902 14.7675 19.9902H16.6675C18.8475 19.9902 19.9975 18.8402 19.9975 16.6602V14.7602C19.9975 12.5802 18.8475 11.4302 16.6675 11.4302Z" fill="#004F9F"/>
<path opacity="0.4" d="M5.24 11.4302H3.34C1.15 11.4302 0 12.5802 0 14.7602V16.6602C0 18.8502 1.15 20.0002 3.33 20.0002H5.23C7.41 20.0002 8.56 18.8502 8.56 16.6702V14.7702C8.57 12.5802 7.42 11.4302 5.24 11.4302Z" fill="#004F9F"/>
</svg>
