<svg width="21" height="21" viewBox="0 0 21 21" fill="none" xmlns="http://www.w3.org/2000/svg">
<path opacity="0.4" d="M17.7926 2.21982C14.8326 -0.730176 10.0326 -0.730176 7.09259 2.21982C5.02259 4.26982 4.40259 7.21982 5.20259 9.81982L0.502588 14.5198C0.172588 14.8598 -0.0574123 15.5298 0.0125877 16.0098L0.312588 18.1898C0.422588 18.9098 1.09259 19.5898 1.81259 19.6898L3.99259 19.9898C4.47259 20.0598 5.14259 19.8398 5.48259 19.4898L6.30259 18.6698C6.50259 18.4798 6.50259 18.1598 6.30259 17.9598L4.36259 16.0198C4.07259 15.7298 4.07259 15.2498 4.36259 14.9598C4.65259 14.6698 5.13259 14.6698 5.42259 14.9598L7.37259 16.9098C7.56259 17.0998 7.88259 17.0998 8.07259 16.9098L10.1926 14.7998C12.7826 15.6098 15.7326 14.9798 17.7926 12.9298C20.7426 9.97983 20.7426 5.16982 17.7926 2.21982ZM12.5026 9.99982C11.1226 9.99982 10.0026 8.87982 10.0026 7.49982C10.0026 6.11982 11.1226 4.99982 12.5026 4.99982C13.8826 4.99982 15.0026 6.11982 15.0026 7.49982C15.0026 8.87982 13.8826 9.99982 12.5026 9.99982Z" fill="#809FB8"/>
<path d="M12.5 10C13.8807 10 15 8.88071 15 7.5C15 6.11929 13.8807 5 12.5 5C11.1193 5 10 6.11929 10 7.5C10 8.88071 11.1193 10 12.5 10Z" fill="#809FB8"/>
</svg>
