<svg width="38" height="20" viewBox="0 0 38 20" fill="none" xmlns="http://www.w3.org/2000/svg">
<path opacity="0.4" d="M15.61 8.19C13.24 8.19 11.31 6.26 11.31 3.89V1C11.31 0.45 10.86 0 10.31 0H6.07C2.99 0 0.5 2 0.5 5.57V14.43C0.5 18 2.99 20 6.07 20H13.93C17.01 20 19.5 18 19.5 14.43V9.19C19.5 8.64 19.05 8.19 18.5 8.19H15.61Z" fill="#0176E3"/>
<path d="M12.6797 0.649993V4.13999C12.6797 5.59999 13.9197 6.80999 15.4297 6.80999C16.3797 6.81999 17.6997 6.81999 18.8297 6.81999C19.3997 6.81999 19.6997 6.14999 19.2997 5.74999C17.8597 4.29999 15.2797 1.68999 13.7997 0.209993C13.3897 -0.200007 12.6797 0.0799931 12.6797 0.649993Z" fill="#0176E3"/>
<path d="M7.52945 8.47C7.51945 8.46 7.50945 8.46 7.50945 8.45C7.44945 8.39 7.36945 8.34 7.28945 8.3C7.27945 8.3 7.27945 8.3 7.26945 8.3C7.18945 8.27 7.10945 8.26 7.02945 8.25C6.99945 8.25 6.97945 8.25 6.94945 8.25C6.88945 8.25 6.81945 8.27 6.75945 8.29C6.72945 8.3 6.70945 8.31 6.68945 8.32C6.60945 8.36 6.52945 8.4 6.46945 8.47L4.46945 10.47C4.17945 10.76 4.17945 11.24 4.46945 11.53C4.75945 11.82 5.23945 11.82 5.52945 11.53L6.24945 10.81V15C6.24945 15.41 6.58945 15.75 6.99945 15.75C7.40945 15.75 7.74945 15.41 7.74945 15V10.81L8.46945 11.53C8.61945 11.68 8.80945 11.75 8.99945 11.75C9.18945 11.75 9.37945 11.68 9.52945 11.53C9.81945 11.24 9.81945 10.76 9.52945 10.47L7.52945 8.47Z" fill="#0176E3"/>
<line x1="37.5" y1="0.5" x2="37.5" y2="19.5" stroke="#92C4F4" stroke-linecap="round"/>
</svg>
