<svg width="18" height="21" viewBox="0 0 18 21" fill="none" xmlns="http://www.w3.org/2000/svg">
<path opacity="0.4" d="M13.8203 0H4.18031C2.05031 0 0.320312 1.74 0.320312 3.86V17.95C0.320312 19.75 1.61031 20.51 3.19031 19.64L8.07031 16.93C8.59031 16.64 9.43031 16.64 9.94031 16.93L14.8203 19.64C16.4003 20.52 17.6903 19.76 17.6903 17.95V3.86C17.6803 1.74 15.9503 0 13.8203 0Z" fill="#004F9F"/>
<path d="M8.99683 8.28005C7.97683 8.28005 6.95683 8.10005 5.98683 7.75005C5.59683 7.61005 5.39683 7.18005 5.53683 6.79005C5.68683 6.40005 6.11683 6.20005 6.50683 6.34005C8.11683 6.92005 9.88683 6.92005 11.4968 6.34005C11.8868 6.20005 12.3168 6.40005 12.4568 6.79005C12.5968 7.18005 12.3968 7.61005 12.0068 7.75005C11.0368 8.10005 10.0168 8.28005 8.99683 8.28005Z" fill="#004F9F"/>
</svg>
