<svg width="64" height="69" viewBox="0 0 64 69" fill="none" xmlns="http://www.w3.org/2000/svg">
<g filter="url(#filter0_f_0_1)">
<path d="M62 57.5002C62 59.5002 61.5 64.5002 48.5 63.5002C47.0852 63.584 44 66.0002 38 66.0002C22.2599 66.0002 8.50024 61.5002 4.00149 57.5002C1.00024 53.5002 9.00149 46.5003 32.5015 50.0002C48.2416 50.0002 62 53.3581 62 57.5002Z" fill="#E0E0E0"/>
</g>
<path d="M56.5898 25.4723L36.3398 16.4723C36.1959 16.4085 36.0402 16.3755 35.8828 16.3755C35.7254 16.3755 35.5697 16.4085 35.4257 16.4723L15.1757 25.4723C14.9769 25.5607 14.808 25.7049 14.6895 25.8873C14.5709 26.0698 14.5078 26.2827 14.5078 26.5003V51.2503C14.5078 51.4679 14.5709 51.6808 14.6895 51.8633C14.808 52.0457 14.9769 52.1899 15.1757 52.2783L35.4257 61.2783C35.5696 61.3422 35.7253 61.3752 35.8828 61.3752C36.0402 61.3752 36.196 61.3422 36.3398 61.2783L56.5898 52.2783C56.7887 52.1899 56.9576 52.0457 57.0761 51.8633C57.1946 51.6808 57.2578 51.4679 57.2578 51.2503V26.5003C57.2578 26.2827 57.1946 26.0698 57.0761 25.8873C56.9576 25.7049 56.7887 25.5607 56.5898 25.4723Z" fill="#FF9500"/>
<path d="M36.3243 61.278L56.5743 52.278C56.7731 52.1896 56.942 52.0454 57.0605 51.863C57.1791 51.6805 57.2422 51.4676 57.2422 51.25V26.5C57.2422 26.2824 57.1791 26.0695 57.0605 25.887C56.942 25.7046 56.7731 25.5604 56.5743 25.472L36.3243 16.472C36.1804 16.4081 36.0247 16.3751 35.8672 16.375V61.375C36.0247 61.3749 36.1804 61.3419 36.3243 61.278Z" fill="#FBAB01"/>
<path d="M35.8692 35.4999L57.137 26.0475C57.0282 25.7926 56.8283 25.5873 56.5763 25.4718L36.3263 16.4718C36.1824 16.408 36.0267 16.375 35.8693 16.375C35.7118 16.375 35.5562 16.408 35.4122 16.4718L15.1622 25.4719C14.9103 25.5874 14.7104 25.7927 14.6016 26.0476L35.8692 35.4999Z" fill="#FAC100"/>
<path d="M26.5045 31.334L48.1396 21.7184L45.3695 20.4873L23.7344 30.1029L26.5045 31.334Z" fill="#FBAB01"/>
<path d="M49.3672 61.375C54.9591 61.375 59.4922 56.8419 59.4922 51.25C59.4922 45.6581 54.9591 41.125 49.3672 41.125C43.7753 41.125 39.2422 45.6581 39.2422 51.25C39.2422 56.8419 43.7753 61.375 49.3672 61.375Z" fill="#08A773"/>
<path d="M51.0547 59.1252C49.0675 59.1265 47.1293 58.5082 45.5099 57.3565C43.8904 56.2048 42.6703 54.5769 42.0194 52.6993C41.3684 50.8217 41.3189 48.7879 41.8779 46.8809C42.4368 44.9739 43.5764 43.2886 45.1379 42.0596C43.6551 42.7407 42.3589 43.7702 41.36 45.0605C40.3611 46.3508 39.689 47.8635 39.401 49.4697C39.113 51.0758 39.2178 52.7278 39.7062 54.2847C40.1947 55.8417 41.0524 57.2574 42.2062 58.4112C43.3601 59.5651 44.7758 60.4228 46.3328 60.9112C47.8898 61.3996 49.5417 61.5043 51.1479 61.2163C52.754 60.9283 54.2667 60.2561 55.557 59.2572C56.8472 58.2582 57.8768 56.962 58.5578 55.4792C57.6651 56.6156 56.5258 57.5344 55.226 58.166C53.9262 58.7976 52.4998 59.1256 51.0547 59.1252Z" fill="#07855C"/>
<path d="M48.2487 55.7504C48.1009 55.7505 47.9546 55.7215 47.818 55.665C47.6815 55.6084 47.5576 55.5254 47.4532 55.4208L44.6407 52.6082C44.4337 52.3965 44.3186 52.1116 44.3203 51.8155C44.322 51.5194 44.4404 51.2359 44.6498 51.0266C44.8592 50.8172 45.1427 50.6988 45.4388 50.6971C45.7349 50.6954 46.0197 50.8105 46.2315 51.0175L48.2486 53.0342L53.0782 48.2049C53.1822 48.0985 53.3063 48.0137 53.4433 47.9556C53.5803 47.8975 53.7274 47.8671 53.8763 47.8662C54.0251 47.8654 54.1726 47.8941 54.3102 47.9506C54.4479 48.0072 54.573 48.0905 54.6782 48.1957C54.7834 48.3009 54.8667 48.426 54.9233 48.5636C54.9798 48.7013 55.0085 48.8488 55.0077 48.9976C55.0068 49.1464 54.9764 49.2936 54.9183 49.4306C54.8601 49.5676 54.7754 49.6917 54.669 49.7957L49.044 55.4207C48.9397 55.5253 48.8157 55.6083 48.6792 55.6649C48.5427 55.7215 48.3964 55.7505 48.2487 55.7504Z" fill="#EAEFF0"/>
<path d="M19.25 0.375L21.0729 3.70834L24.4062 5.53125L21.0729 7.35416L19.25 10.6875L17.4271 7.35416L14.0938 5.53125L17.4271 3.70834L19.25 0.375Z" fill="#F9BE19"/>
<path d="M26.4688 8.96875L27.6842 11.1908L29.9062 12.4062L27.6842 13.6217L26.4688 15.8438L25.2533 13.6217L23.0312 12.4062L25.2533 11.1908L26.4688 8.96875Z" fill="#F9BE19"/>
<path d="M19.25 16.1875L19.8577 17.2985L20.9688 17.9062L19.8577 18.514L19.25 19.625L18.6423 18.514L17.5312 17.9062L18.6423 17.2985L19.25 16.1875Z" fill="#F9BE19"/>
<defs>
<filter id="filter0_f_0_1" x="0.398438" y="46.0498" width="64.6016" height="22.9502" filterUnits="userSpaceOnUse" color-interpolation-filters="sRGB">
<feFlood flood-opacity="0" result="BackgroundImageFix"/>
<feBlend mode="normal" in="SourceGraphic" in2="BackgroundImageFix" result="shape"/>
<feGaussianBlur stdDeviation="1.5" result="effect1_foregroundBlur_0_1"/>
</filter>
</defs>
</svg>
