<svg width="15" height="16" viewBox="0 0 15 16" fill="none" xmlns="http://www.w3.org/2000/svg">
<path fill-rule="evenodd" clip-rule="evenodd" d="M7 8C4.92893 8 3.25 6.32107 3.25 4.25C3.25 2.17893 4.92893 0.5 7 0.5C9.07107 0.5 10.75 2.17893 10.75 4.25C10.75 6.32107 9.07107 8 7 8Z" stroke="white" stroke-linecap="round" stroke-linejoin="round"/>
<path d="M9.75325 13.4598C9.64825 13.5648 9.55076 13.7598 9.52826 13.9023L9.38576 14.9148C9.33326 15.2823 9.58826 15.5373 9.95576 15.4848L10.9682 15.3423C11.1107 15.3198 11.3133 15.2223 11.4108 15.1173L14.0657 12.4623C14.5232 12.0048 14.7407 11.4723 14.0657 10.7973C13.3982 10.1298 12.8658 10.3473 12.4083 10.8048L9.75325 13.4598Z" stroke="white" stroke-linecap="round" stroke-linejoin="round"/>
<path d="M12.0254 11.1875C12.2504 11.9975 12.8804 12.6275 13.6904 12.8525" stroke="white" stroke-linecap="round" stroke-linejoin="round"/>
<path d="M0.556641 15.5C0.556641 12.5975 3.44416 10.25 6.99916 10.25C7.77916 10.25 8.52914 10.3625 9.22664 10.5725" stroke="white" stroke-linecap="round" stroke-linejoin="round"/>
</svg>