<svg width="18" height="18" viewBox="0 0 18 18" fill="none" xmlns="http://www.w3.org/2000/svg">
<path d="M4.58269 14.0003H2.4577C1.26604 14.0003 0.666016 13.4003 0.666016 12.2086V2.45868C0.666016 1.26701 1.26604 0.666992 2.4577 0.666992H6.04103C7.23269 0.666992 7.83266 1.26701 7.83266 2.45868V4.00033" stroke="#2196F3" stroke-width="1.2" stroke-linecap="round" stroke-linejoin="round"/>
<path d="M13.4756 15.3167C13.4756 16.6583 12.809 17.3333 11.4673 17.3333H6.60064C5.25897 17.3333 4.58398 16.6583 4.58398 15.3167V6.01665C4.58398 4.67499 5.25897 4 6.60064 4H11.4673C12.809 4 13.4756 4.67499 13.4756 6.01665V15.3167Z" stroke="#2196F3" stroke-width="1.2" stroke-linecap="round" stroke-linejoin="round"/>
<path d="M10.166 4.00033V2.45868C10.166 1.26701 10.766 0.666992 11.9577 0.666992H15.541C16.7326 0.666992 17.3327 1.26701 17.3327 2.45868V12.2086C17.3327 13.4003 16.7326 14.0003 15.541 14.0003H13.4743" stroke="#2196F3" stroke-width="1.2" stroke-linecap="round" stroke-linejoin="round"/>
<path d="M7.33398 8.16699H10.6673" stroke="#2196F3" stroke-width="1.2" stroke-linecap="round" stroke-linejoin="round"/>
<path d="M7.33398 10.667H10.6673" stroke="#2196F3" stroke-width="1.2" stroke-linecap="round" stroke-linejoin="round"/>
<path d="M9 17.333V14.833" stroke="#2196F3" stroke-width="1.2" stroke-linecap="round" stroke-linejoin="round"/>
</svg>