<svg width="70" height="63" viewBox="0 0 70 63" fill="none" xmlns="http://www.w3.org/2000/svg">
<path d="M66.9153 29.0397L62.5857 28.7081C62.0057 28.6643 61.5117 28.268 61.3509 27.7088C60.8158 25.8461 60.0879 24.0655 59.1917 22.3875C58.9183 21.8753 58.9957 21.2446 59.3808 20.8099L62.2962 17.5158C63.4679 16.194 63.4055 14.1897 62.1579 12.9411L57.6905 8.47316C56.4552 7.23842 54.4787 7.16365 53.1548 8.29959L49.8586 11.1274C49.4164 11.5071 48.7856 11.575 48.2761 11.2924C46.6125 10.3696 44.8416 9.61604 42.9874 9.05154C42.4314 8.88385 42.0415 8.3829 42.0063 7.80292L41.7398 3.4167C41.6325 1.65431 40.1718 0.28125 38.4062 0.28125H32.0872C30.3414 0.28125 28.8909 1.6244 28.7585 3.36597L28.4268 7.69557C28.383 8.27396 27.9878 8.76956 27.4303 8.92871C25.4238 9.50336 23.5103 10.3018 21.7191 11.2941C21.2128 11.576 20.582 11.5055 20.1414 11.1274L16.8452 8.29959C15.5213 7.16365 13.5442 7.23842 12.3095 8.47316L7.84157 12.9411C6.59401 14.1897 6.53366 16.1935 7.70325 17.5158L10.6192 20.8094C11.0043 21.2441 11.0817 21.8748 10.8083 22.3875C9.91211 24.0655 9.18365 25.8461 8.64906 27.7088C8.48831 28.2675 7.99431 28.6643 7.41432 28.7081L3.08472 29.0397C1.34315 29.1722 0 30.6232 0 32.3685V38.688C0 40.4531 1.37306 41.9137 3.13545 42.0211L7.52167 42.2881C8.10165 42.3233 8.6026 42.7127 8.77029 43.2686C9.33479 45.1229 10.0883 46.8943 11.0112 48.5579C11.2937 49.0674 11.2259 49.6981 10.8462 50.1398L8.01834 53.436C6.8824 54.7599 6.95717 56.737 8.19191 57.9718L12.6598 62.4397C13.9085 63.6872 15.9128 63.7492 17.2346 62.578L20.5286 59.6626C20.9628 59.277 21.5941 59.1996 22.1062 59.4735C22.6184 59.747 25.3266 59.8362 28.8546 59.8372C32.7975 59.8388 37.7659 59.7315 41.8375 59.6551C46.0598 59.575 49.3181 59.5253 49.4719 59.6626L52.7654 62.578C54.0878 63.7492 56.0915 63.6872 57.3407 62.4397L61.8086 57.9718C63.0434 56.737 63.1181 54.7599 61.9822 53.436L59.1538 50.1398C58.7746 49.6981 58.7068 49.0674 58.9888 48.5579C59.9117 46.8943 60.6652 45.1229 61.2297 43.2686C61.3974 42.7127 61.8983 42.3233 62.4789 42.2881L66.8645 42.0211C68.6269 41.9137 70 40.4531 70 38.688V32.3685C70 30.6232 68.6568 29.1722 66.9153 29.0397ZM36.16 57.5515C22.9287 58.2228 12.0585 47.3526 12.7303 34.1213C13.3034 22.7912 22.5095 13.5846 33.84 13.0116C47.0713 12.3397 57.9415 23.2105 57.2697 36.4428C56.6966 47.7718 47.4905 56.9784 36.16 57.5515Z" fill="#A7C7D3"/>
<path d="M34.9998 9.97266C21.0219 9.97266 9.69189 21.3032 9.69189 35.2806C9.69189 47.1388 17.8454 57.092 28.8544 59.8365C30.8214 60.3279 32.8801 60.5885 34.9998 60.5885C37.3689 60.5885 39.6621 60.2627 41.8368 59.6544C52.4929 56.6712 60.3077 46.8889 60.3077 35.2806C60.3077 21.3032 48.9777 9.97266 34.9998 9.97266ZM36.1598 57.5508C22.9285 58.2221 12.0583 47.3519 12.7301 34.1206C13.3032 22.7906 22.5093 13.584 33.8398 13.0109C47.0711 12.3391 57.9413 23.2098 57.2695 36.4422C56.6964 47.7711 47.4904 56.9777 36.1598 57.5508Z" fill="#89B4C9"/>
<path d="M41.7529 52.6981C42.1593 52.5614 42.522 52.3424 42.8226 52.0626C43.4112 51.512 43.7669 50.7328 43.7669 49.8895V47.3789H48.7074V49.8895C48.7074 50.6719 49.0118 51.4004 49.5283 51.9403C49.8519 52.2789 50.2567 52.5432 50.7208 52.6987H41.7529V52.6981Z" fill="#FEDFC5"/>
<path d="M48.7077 47.2637V48.8402L47.5829 49.5265C46.7557 50.0306 45.7185 50.0306 44.8918 49.5265L43.7671 48.8402V47.2637H48.7077Z" fill="#FECBAA"/>
<path d="M51.0638 38.4612V44.4614C51.0638 45.3666 50.5927 46.2067 49.8221 46.6767L47.5828 48.0422C46.7555 48.5464 45.7184 48.5464 44.8917 48.0422L42.6518 46.6767C41.8801 46.2067 41.4102 45.3666 41.4102 44.4614V38.4612C41.4102 36.8105 42.7448 35.4727 44.3918 35.4727H48.0821C49.7292 35.4732 51.0638 36.8105 51.0638 38.4612Z" fill="#FEDFC5"/>
<path d="M48.0821 35.4727H46.2118C47.8583 35.4727 49.1934 36.8099 49.1934 38.4607V44.4608C49.1934 45.3661 48.7219 46.2061 47.9518 46.6767L45.7119 48.0422C45.58 48.1223 45.4427 48.1886 45.3018 48.243C46.0441 48.532 46.8874 48.4657 47.5827 48.0422L49.822 46.6767C50.5927 46.2061 51.0637 45.3661 51.0637 44.4608V38.4607C51.0637 36.8099 49.7291 35.4727 48.0821 35.4727Z" fill="#FECBAA"/>
<path d="M51.0638 38.4612V41.2485L45.0113 39.2981C44.7875 39.226 44.544 39.2468 44.3357 39.3558L41.4102 40.8843V38.4612C41.4102 36.8105 42.7453 35.4727 44.3918 35.4727H48.0821C49.7292 35.4732 51.0638 36.8105 51.0638 38.4612Z" fill="#C97F4C"/>
<path d="M48.0821 35.4727H46.2124C47.8594 35.4727 49.194 36.8099 49.194 38.4607V40.6455L51.0638 41.248V38.4607C51.0638 36.8099 49.7292 35.4727 48.0821 35.4727Z" fill="#AA6344"/>
<path d="M36.9972 63.61C36.5368 63.61 36.1641 63.2367 36.1641 62.7764V58.5867C36.1641 56.1941 37.6872 54.0686 39.9505 53.3059L41.753 52.6987C42.1599 52.562 42.522 52.3425 42.8222 52.0626C43.7899 52.414 44.929 52.6512 46.2172 52.6239C47.485 52.5962 48.5943 52.3174 49.5283 51.9414C49.8509 52.28 50.2568 52.5433 50.7209 52.6987L52.5238 53.3059C54.7856 54.0686 56.3103 56.1941 56.3103 58.5867V62.6728C56.3103 63.1908 55.8911 63.61 55.3736 63.61H36.9972Z" fill="#69D998"/>
<path d="M46.1207 52.6406L44.0005 60.1383C43.9461 60.3321 43.9941 60.5399 44.1282 60.6894L45.7058 62.4497C45.9306 62.7007 46.3205 62.7103 46.5576 62.471L48.3131 60.7001C48.4658 60.5457 48.5213 60.3193 48.4562 60.1121L46.1207 52.6406Z" fill="#3DC5A1"/>
<path d="M20.5703 50.1775C21.0707 50.0093 21.5172 49.7396 21.8873 49.3957C22.6115 48.7174 23.0494 47.7577 23.0494 46.72V43.6289H29.1318V46.72C29.1318 47.6829 29.5072 48.5802 30.1428 49.244C30.5406 49.6616 31.0394 49.9869 31.6109 50.1781H20.5703V50.1775Z" fill="#FEDFC5"/>
<path d="M29.1317 43.4844V45.4246L27.7469 46.27C26.729 46.8906 25.452 46.8906 24.4341 46.27L23.0493 45.4246V43.4844H29.1317Z" fill="#FECBAA"/>
<path d="M32.0334 32.6493V40.0364C32.0334 41.151 31.4529 42.1854 30.5044 42.7643L27.7471 44.4456C26.7291 45.0661 25.4522 45.0661 24.4343 44.4456L21.677 42.7643C20.7269 42.1854 20.1479 41.151 20.1479 40.0364V32.6493C20.1479 30.6172 21.7918 28.9707 23.8191 28.9707H28.3623C30.3896 28.9707 32.0334 30.6172 32.0334 32.6493Z" fill="#FEDFC5"/>
<path d="M28.3623 28.9707H26.0594C28.0867 28.9707 29.7305 30.6172 29.7305 32.6493V40.0364C29.7305 41.151 29.15 42.1854 28.2015 42.7643L25.4442 44.4456C25.2824 44.5444 25.1125 44.6261 24.939 44.6934C25.8533 45.0485 26.8915 44.9673 27.747 44.4456L30.5044 42.7643C31.4529 42.1854 32.0334 41.151 32.0334 40.0364V32.6493C32.0334 30.6172 30.3896 28.9707 28.3623 28.9707Z" fill="#FECBAA"/>
<path d="M32.0334 32.6493V36.0811L24.5822 33.68C24.3061 33.5914 24.0065 33.617 23.7496 33.7511L20.1479 35.6325V32.6493C20.1479 30.6172 21.7918 28.9707 23.8191 28.9707H28.3623C30.3896 28.9707 32.0334 30.6172 32.0334 32.6493Z" fill="#C97F4C"/>
<path d="M28.3623 28.9707H26.0605C28.0878 28.9707 29.7317 30.6172 29.7317 32.6493V35.3393L32.0334 36.0811V32.6493C32.0334 30.6172 30.3896 28.9707 28.3623 28.9707Z" fill="#AA6344"/>
<path d="M14.2876 63.6098C13.957 63.6098 13.6895 63.3422 13.6895 63.0116V57.4254C13.6895 54.48 15.5651 51.8632 18.3512 50.9243L20.5703 50.1766C21.0712 50.0084 21.5166 49.7381 21.8867 49.3937C23.0777 49.8263 24.4801 50.1184 26.0662 50.0842C27.6273 50.05 28.9929 49.7077 30.1422 49.2441C30.54 49.6612 31.0394 49.9854 31.6108 50.1771L33.8304 50.9248C36.6149 51.8637 38.4922 54.48 38.4922 57.4254V63.6103H14.2876V63.6098Z" fill="#83D9FF"/>
<path d="M25.9467 50.1035L23.3373 59.3347C23.27 59.5729 23.3293 59.8287 23.4943 60.013L25.4367 62.1802C25.7133 62.4894 26.1934 62.5011 26.4856 62.2063L28.6464 60.0258C28.8349 59.8362 28.9027 59.5574 28.8226 59.3021L25.9467 50.1035Z" fill="#43A3F9"/>
</svg>