<svg width="108" height="108" viewBox="0 0 108 108" fill="none" xmlns="http://www.w3.org/2000/svg">
<circle cx="54" cy="54" r="54" fill="#CCE6FD"/>
<path fill-rule="evenodd" clip-rule="evenodd" d="M13.0888 89.2427C11.5051 87.406 10.0429 85.4616 8.71484 83.4219H99.2841C99.2841 83.4219 94.8162 90.2979 87.6988 96.1939C78.462 103.58 66.7471 107.996 54.0007 107.996C53.5589 107.996 53.1183 107.991 52.6791 107.98C48.4454 107.805 40.7721 106.995 32.8871 103.713C30.7821 102.817 28.7455 101.793 26.7875 100.648C20.6244 96.9982 16.0808 92.6549 13.0888 89.2427Z" fill="#AEBF3E"/>
<path d="M51.3583 71.601C51.3583 68.5037 50.1278 65.5329 47.9376 63.3426C45.7473 61.1524 42.7768 59.9219 39.6792 59.9219C36.5818 59.9219 33.611 61.1524 31.4208 63.3426C29.2305 65.5329 28 68.5038 28 71.601C28 74.6983 29.2305 77.6692 31.4208 79.8594C33.611 82.0497 36.5819 83.2802 39.6792 83.2802C42.7756 83.2766 45.7442 82.0453 47.934 79.8555C50.1234 77.6661 51.3552 74.6975 51.3584 71.601H51.3583ZM37.3745 66.8898L39.3922 64.8628V64.8632C40.321 63.9252 41.5865 63.3984 42.9067 63.4007H42.9129C44.2312 63.4007 45.4959 63.9252 46.4277 64.8583C47.3591 65.7915 47.8814 67.057 47.8796 68.3759C47.8774 69.6946 47.3511 70.9579 46.4166 71.8885L44.3895 73.9062C44.2506 74.0518 44.059 74.1357 43.8575 74.1379C43.6565 74.1405 43.4626 74.0611 43.3206 73.9187C43.1786 73.7758 43.1005 73.5819 43.1036 73.3809C43.1067 73.1794 43.191 72.9882 43.3379 72.8501L45.3649 70.8307C46.0185 70.1793 46.3864 69.2953 46.3877 68.3728C46.3886 67.4503 46.0234 66.565 45.3716 65.9119C44.7197 65.2591 43.8349 64.8921 42.9124 64.8917H42.9084C41.9845 64.8899 41.0984 65.2587 40.4483 65.9154L38.4306 67.9424C38.2922 68.088 38.1009 68.1714 37.9004 68.1741C37.6998 68.1767 37.5063 68.0986 37.3643 67.9571C37.2219 67.8155 37.1429 67.6225 37.1447 67.4215C37.1469 67.2209 37.2294 67.0297 37.3745 66.8908L37.3745 66.8898ZM37.1442 75.1895C36.8518 75.4739 36.3854 75.4708 36.097 75.1824C35.809 74.8939 35.8054 74.4276 36.0899 74.1351L42.2153 68.0097C42.5077 67.7257 42.9741 67.7288 43.2625 68.0173C43.5509 68.3053 43.554 68.7721 43.2696 69.0641L37.1442 75.1895ZM36.4462 79.8013C35.1275 79.8013 33.8632 79.2768 32.9314 78.3436C31.9995 77.4104 31.4772 76.1449 31.4795 74.8261C31.4813 73.5073 32.008 72.2435 32.9425 71.3134L34.9696 69.2957C35.1084 69.1506 35.2997 69.0672 35.5007 69.065C35.7017 69.0627 35.8952 69.1422 36.0372 69.2846C36.1787 69.427 36.2573 69.6205 36.2542 69.8215C36.2511 70.0225 36.1672 70.2138 36.0212 70.3518L33.9937 72.3695C33.1156 73.2477 32.7726 74.5274 33.0938 75.7273C33.4155 76.9272 34.3523 77.864 35.5522 78.1857C36.7517 78.507 38.0318 78.1639 38.91 77.2858L40.9273 75.2588C41.2179 74.9672 41.6901 74.9659 41.9816 75.2565C42.2736 75.5467 42.2749 76.0189 41.9843 76.3109L39.9674 78.3379C39.0387 79.276 37.7727 79.8031 36.4526 79.8014L36.4462 79.8013Z" fill="#004F9F"/>
<path d="M65.1949 56.6171C65.1966 54.9818 65.8472 53.4142 67.0031 52.2582C68.1595 51.1018 69.7268 50.4513 71.3619 50.4495H78.9691V43.9665C78.9682 42.8465 78.5227 41.7727 77.7307 40.9806C76.9386 40.1885 75.8647 39.743 74.7448 39.7422H63.5953L63.5838 39.7537L63.5722 39.7422H47.0779L47.0664 39.7537L47.0548 39.7422H40.6384C39.5184 39.7431 38.445 40.1886 37.653 40.9806C36.861 41.7727 36.4153 42.8466 36.4141 43.9665V58.8341C40.681 57.7434 45.2108 58.8572 48.4849 61.8023C51.7597 64.7474 53.3456 69.1342 52.7115 73.4926H74.7447C75.8647 73.4913 76.9385 73.0458 77.7306 72.2537C78.5227 71.4616 78.9678 70.3882 78.9691 69.2683V62.7848H71.3619C69.7267 62.783 68.1595 62.1325 67.0031 60.9761C65.8471 59.8202 65.1967 58.2517 65.1949 56.6171Z" fill="#004F9F"/>
<path fill-rule="evenodd" clip-rule="evenodd" d="M59.7849 38.5275L52.1457 30.8882C51.9895 30.732 51.7362 30.732 51.58 30.8882L43.9407 38.5275L59.7849 38.5275Z" fill="#004F9F"/>
<path fill-rule="evenodd" clip-rule="evenodd" d="M67.4487 38.5503L60.6897 31.7913C60.5335 31.6351 60.2802 31.6351 60.124 31.7913L57.6247 34.2906L61.8844 38.5503L67.4487 38.5503Z" fill="#004F9F"/>
<path d="M66.6875 56.6141C66.6888 57.8534 67.1818 59.0422 68.0586 59.9191C68.9355 60.7954 70.1238 61.2889 71.3636 61.2902H79.0272L79.0277 51.9375H71.3636C70.1238 51.9388 68.9355 52.4323 68.0586 53.3086C67.1818 54.1855 66.6887 55.3743 66.6875 56.6141ZM74.3455 56.6141C74.3455 57.3507 74.0527 58.0575 73.5317 58.5785C73.0108 59.0999 72.3039 59.3923 71.5668 59.3923C70.8302 59.3928 70.1234 59.0999 69.6024 58.579C69.081 58.0576 68.7881 57.3507 68.7881 56.6141C68.7881 55.877 69.081 55.1701 69.602 54.6492C70.1233 54.1282 70.8298 53.8353 71.5668 53.8353C72.3035 53.8358 73.0099 54.1291 73.5308 54.6501C74.0518 55.171 74.3447 55.8771 74.3455 56.6141Z" fill="#004F9F"/>
<path fill-rule="evenodd" clip-rule="evenodd" d="M75.9798 58.2594C75.3571 59.7625 73.89 60.7428 72.2622 60.7428C70.0408 60.74 68.2411 58.9406 68.2383 56.7207C68.2383 55.0926 69.2186 53.6256 70.7231 53.0017C72.2263 52.3791 73.9567 52.7229 75.1076 53.8738C76.2585 55.0245 76.6024 56.7564 75.9798 58.2594ZM72.1601 57.2326C71.9525 57.7337 71.4635 58.0604 70.9209 58.0604C70.1804 58.0595 69.5805 57.4597 69.5796 56.7197C69.5796 56.177 69.9064 55.688 70.4078 55.48C70.9089 55.2725 71.4857 55.3871 71.8694 55.7708C72.253 56.1543 72.3676 56.7316 72.1601 57.2326Z" fill="#004F9F"/>
</svg>
