<svg width="36" height="36" viewBox="0 0 36 36" fill="none" xmlns="http://www.w3.org/2000/svg">
<circle cx="18" cy="17.9375" r="17.5" fill="#829FAA"/>
<path fill-rule="evenodd" clip-rule="evenodd" d="M26.47 7.4375C27.74 7.4375 28.5 8.1975 28.5 9.4675L28.5 12.4075C28.5 13.6775 27.74 14.4375 26.47 14.4375L23.53 14.4375C22.26 14.4375 21.5 13.6775 21.5 12.4075L21.5 9.4675C21.5 8.1975 22.26 7.4375 23.53 7.4375L26.47 7.4375Z" fill="#292D32"/>
<path fill-rule="evenodd" clip-rule="evenodd" d="M23.75 10.9275C23.91 10.9275 24.07 10.8675 24.19 10.7475L24.37 10.5675L24.37 12.8075C24.37 13.1575 24.65 13.4375 25 13.4375C25.35 13.4375 25.63 13.1575 25.63 12.8075L25.63 10.5675L25.81 10.7475C26.05 10.9875 26.45 10.9875 26.69 10.7475C26.93 10.5075 26.93 10.1075 26.69 9.8675L25.44 8.6175C25.39 8.5675 25.32 8.5275 25.25 8.4975C25.23 8.4875 25.21 8.4875 25.19 8.4775C25.14 8.4575 25.09 8.4475 25.03 8.4475C25.01 8.4475 24.99 8.4475 24.97 8.4475C24.9 8.4475 24.84 8.4575 24.77 8.4875C24.76 8.4875 24.76 8.4875 24.75 8.4875C24.68 8.5175 24.62 8.5575 24.57 8.6075C24.56 8.6175 24.56 8.6175 24.55 8.6175L23.3 9.8675C23.06 10.1075 23.06 10.5075 23.31 10.7475C23.43 10.8675 23.59 10.9275 23.75 10.9275Z" fill="#292D32"/>
<path opacity="0.4" d="M27.5 15.4359H7.5V13.9759C7.5 11.6859 9.36 9.83594 11.65 9.83594H21.5V12.4059C21.5 13.6759 22.26 14.4359 23.53 14.4359H26.47C26.87 14.4359 27.21 14.3659 27.5 14.2059V15.4359Z" fill="white"/>
<path fill-rule="evenodd" clip-rule="evenodd" d="M7.5 22.8975C7.5 25.1875 9.36 27.0375 11.65 27.0375H23.35C25.64 27.0375 27.5 25.1875 27.5 22.8975V15.4375H7.5V22.8975Z" fill="#292D32"/>
<path fill-rule="evenodd" clip-rule="evenodd" d="M11.5 23.6875C11.09 23.6875 10.75 23.3475 10.75 22.9375C10.75 22.5275 11.09 22.1875 11.5 22.1875H13.5C13.91 22.1875 14.25 22.5275 14.25 22.9375C14.25 23.3475 13.91 23.6875 13.5 23.6875H11.5Z" fill="#292D32"/>
<path fill-rule="evenodd" clip-rule="evenodd" d="M16 23.6875C15.59 23.6875 15.25 23.3475 15.25 22.9375C15.25 22.5275 15.59 22.1875 16 22.1875H20C20.41 22.1875 20.75 22.5275 20.75 22.9375C20.75 23.3475 20.41 23.6875 20 23.6875H16Z" fill="#292D32"/>
</svg>
