<svg width="59" height="59" viewBox="0 0 59 59" fill="none" xmlns="http://www.w3.org/2000/svg">
<path d="M14.6416 0C6.8476 0 0.5 6.3431 0.5 14.1416V39.8584C0.5 47.6524 6.8431 54 14.6416 54H33.5557C32.8852 52.6005 32.4274 51.093 32.1934 49.5H14.6416C13.0306 49.5 11.5308 49.0682 10.1943 48.3662C12.6198 41.0087 19.4006 35.9648 27.2891 35.9648C30.0476 35.9648 32.7294 36.605 35.1729 37.793C38.0484 33.977 42.5669 31.4648 47.7149 31.4648C50.1539 31.4648 52.439 32.0702 54.5 33.0557V14.1416C54.5 6.3476 48.1569 0 40.3584 0H14.6416ZM27.4297 13.377C32.2987 13.377 36.2539 17.341 36.2539 22.21C36.2539 27.07 32.2987 31.0254 27.4297 31.0254C22.5607 31.0254 18.5967 27.07 18.5967 22.21C18.5967 17.341 22.5607 13.377 27.4297 13.377ZM47.7149 35.9648C41.5004 35.9648 36.4648 41.0004 36.4648 47.2149C36.4648 53.4294 41.5004 58.4649 47.7149 58.4649C53.9294 58.4649 58.9649 53.4294 58.9649 47.2149C58.9649 41.0004 53.9249 35.9648 47.7149 35.9648ZM47.5391 40.5527L55.6778 46.2481L53.0938 49.9307L49.8155 47.6367V54.7471H45.3155V47.707L42.2305 49.9219L39.6026 46.2568L47.5391 40.5527Z" fill="#004F9F"/>
</svg>
