<svg width="21" height="18" viewBox="0 0 21 18" fill="none" xmlns="http://www.w3.org/2000/svg">
<path d="M1.33398 17.333H19.6673" stroke="#673AB7" stroke-width="1.2" stroke-linecap="round" stroke-linejoin="round"/>
<path d="M16.9824 17.3417V13.625" stroke="#673AB7" stroke-width="1.2" stroke-linecap="round" stroke-linejoin="round"/>
<path d="M15.166 9.90854V11.8002C15.166 12.8168 15.9827 13.6335 16.9994 13.6335C18.016 13.6335 18.8327 12.8168 18.8327 11.8002V9.90854C18.8327 8.89187 18.016 8.0752 16.9994 8.0752C15.9827 8.0752 15.166 8.89187 15.166 9.90854Z" stroke="#673AB7" stroke-width="1.2" stroke-linecap="round" stroke-linejoin="round"/>
<path d="M2.25 17.3338V4.02547C2.25 2.35047 3.08338 1.50879 4.74171 1.50879H9.93336C11.5917 1.50879 12.4167 2.35047 12.4167 4.02547V17.3338" stroke="#673AB7" stroke-width="1.2" stroke-linecap="round" stroke-linejoin="round"/>
<path d="M5.33398 5.875H9.45899" stroke="#673AB7" stroke-width="1.2" stroke-linecap="round" stroke-linejoin="round"/>
<path d="M5.33398 9H9.45899" stroke="#673AB7" stroke-width="1.2" stroke-linecap="round" stroke-linejoin="round"/>
<path d="M7.375 17.333V14.208" stroke="#673AB7" stroke-width="1.2" stroke-linecap="round" stroke-linejoin="round"/>
</svg>