<svg width="22" height="21" viewBox="0 0 22 21" fill="none" xmlns="http://www.w3.org/2000/svg">
<path opacity="0.4" d="M18.1031 19.3002C17.9031 19.3002 17.7031 19.2002 17.6031 19.1002C17.3031 18.8002 17.3031 18.3002 17.6031 18.0002C19.3031 16.3002 20.2031 14.0002 20.2031 11.5002C20.2031 6.4002 16.1031 2.3002 11.0031 2.3002C5.90313 2.3002 1.80312 6.4002 1.80312 11.5002C1.80312 13.9002 2.70312 16.2002 4.40312 18.0002C4.70312 18.3002 4.70312 18.8002 4.40312 19.1002C4.10312 19.4002 3.60313 19.4002 3.30313 19.1002C1.30313 17.1002 0.203125 14.4002 0.203125 11.6002C0.203125 5.6002 5.10313 0.700195 11.0031 0.700195C16.9031 0.700195 21.8031 5.5002 21.8031 11.5002C21.8031 14.3002 20.7031 17.0002 18.7031 19.0002C18.5031 19.2002 18.3031 19.3002 18.1031 19.3002Z" fill="#809FB8"/>
<path d="M11.0016 21.0002C13.1555 21.0002 14.9016 19.2541 14.9016 17.1002C14.9016 14.9463 13.1555 13.2002 11.0016 13.2002C8.84765 13.2002 7.10156 14.9463 7.10156 17.1002C7.10156 19.2541 8.84765 21.0002 11.0016 21.0002Z" fill="#809FB8"/>
<path d="M15 7.5C13.9 7.5 13 8.4 13 9.5V10.3C13 11 13.6 11.5 14.2 11.5H15C16.1 11.5 17 10.6 17 9.5C17 8.4 16.1 7.5 15 7.5Z" fill="#809FB8"/>
</svg>
