<svg width="19" height="15" viewBox="0 0 19 15" fill="none" xmlns="http://www.w3.org/2000/svg">
<rect y="0.263672" width="12.3464" height="1.67947" rx="0.839737" fill="#009F82"/>
<path d="M0 13.75C0 13.3358 0.335786 13 0.75 13H18.25C18.6642 13 19 13.3358 19 13.75C19 14.1642 18.6642 14.5 18.25 14.5H0.750001C0.335787 14.5 0 14.1642 0 13.75Z" fill="#009F82"/>
<rect x="1.76367" y="0.263672" width="8.81886" height="13.4358" fill="#009F82"/>
<rect x="4.40918" y="6.14258" width="3.52754" height="2.51921" rx="1" fill="#009F82"/>
<path d="M12.3467 7.64384C12.3467 7.27855 12.6428 6.98242 13.0081 6.98242C13.3734 6.98242 13.6695 7.27855 13.6695 7.64384V14.0401C13.6695 14.3162 13.4457 14.5401 13.1695 14.5401H12.8467C12.5705 14.5401 12.3467 14.3162 12.3467 14.0401V7.64384Z" fill="#009F82"/>
<path d="M17.6404 0.465966C17.8409 0.209021 18.2196 0.154192 18.4848 0.343728C18.748 0.531896 18.8 0.890027 18.601 1.14512L13.4868 7.70147C13.2863 7.95842 12.9076 8.01325 12.6425 7.82371C12.3792 7.63554 12.3273 7.27741 12.5262 7.02232L17.6404 0.465966Z" fill="#009F82"/>
</svg>