<svg width="12" height="12" viewBox="0 0 12 12" fill="none" xmlns="http://www.w3.org/2000/svg">
<path fill-rule="evenodd" clip-rule="evenodd" d="M3.33398 2.83259C3.33398 1.36044 4.52744 0.166992 5.99958 0.166992C7.47173 0.166992 8.66518 1.36044 8.66518 2.83259C8.66518 4.30474 7.47173 5.49819 5.99958 5.49819C4.52744 5.49819 3.33398 4.30474 3.33398 2.83259Z" fill="#217EFD"/>
<path fill-rule="evenodd" clip-rule="evenodd" d="M0.483856 11.8302C0.240382 11.7494 0.056862 11.5472 0 11.2971C0.257953 8.11638 2.83895 6.49902 5.98572 6.49902C9.17642 6.49902 11.7981 8.02706 11.9933 11.2971C12.0178 11.4387 11.9744 11.5836 11.8759 11.6884C11.7776 11.7932 11.6357 11.8458 11.4929 11.8302H0.483856Z" fill="#217EFD" fill-opacity="0.4"/>
</svg>