<svg width="16" height="14" viewBox="0 0 16 14" fill="none" xmlns="http://www.w3.org/2000/svg">
<path opacity="0.4" d="M11.75 13.375H4.25C2 13.375 0.5 12.25 0.5 9.625V4.375C0.5 1.75 2 0.625 4.25 0.625H11.75C14 0.625 15.5 1.75 15.5 4.375V9.625C15.5 12.25 14 13.375 11.75 13.375Z" fill="#809FB8"/>
<path d="M7.99812 7.65247C7.36812 7.65247 6.73063 7.45748 6.24313 7.05998L3.89562 5.18498C3.65562 4.98998 3.61063 4.63748 3.80563 4.39748C4.00063 4.15748 4.35313 4.11248 4.59313 4.30748L6.94062 6.18248C7.51062 6.63998 8.47812 6.63998 9.04812 6.18248L11.3956 4.30748C11.6356 4.11248 11.9956 4.14998 12.1831 4.39748C12.3781 4.63748 12.3406 4.99748 12.0931 5.18498L9.74563 7.05998C9.26563 7.45748 8.62812 7.65247 7.99812 7.65247Z" fill="#809FB8"/>
</svg>