<svg width="12" height="16" viewBox="0 0 12 16" fill="none" xmlns="http://www.w3.org/2000/svg">
<path opacity="0.4" d="M9.18 0.5H2.82C0.75 0.5 0 1.25 0 3.3575V12.6425C0 14.75 0.75 15.5 2.82 15.5H9.1725C11.25 15.5 12 14.75 12 12.6425V3.3575C12 1.25 11.25 0.5 9.18 0.5Z" fill="#809FB8"/>
<path d="M7.5 3.6875H4.5C4.1925 3.6875 3.9375 3.4325 3.9375 3.125C3.9375 2.8175 4.1925 2.5625 4.5 2.5625H7.5C7.8075 2.5625 8.0625 2.8175 8.0625 3.125C8.0625 3.4325 7.8075 3.6875 7.5 3.6875Z" fill="#809FB8"/>
<path d="M6 13.4751C6.72487 13.4751 7.3125 12.8875 7.3125 12.1626C7.3125 11.4377 6.72487 10.8501 6 10.8501C5.27513 10.8501 4.6875 11.4377 4.6875 12.1626C4.6875 12.8875 5.27513 13.4751 6 13.4751Z" fill="#809FB8"/>
</svg>
