<svg width="22" height="20" viewBox="0 0 22 20" fill="none" xmlns="http://www.w3.org/2000/svg">
<path opacity="0.4" d="M22 12V15C22 16.66 20.66 18 19 18H18C18 16.9 17.1 16 16 16C14.9 16 14 16.9 14 18H10C10 16.9 9.1 16 8 16C6.9 16 6 16.9 6 18H5C3.34 18 2 16.66 2 15V12H13C14.1 12 15 11.1 15 10V3H16.84C17.56 3 18.22 3.39001 18.58 4.01001L20.29 7H19C18.45 7 18 7.45 18 8V11C18 11.55 18.45 12 19 12H22Z" fill="#809FB8"/>
<path d="M8 20C9.10457 20 10 19.1046 10 18C10 16.8954 9.10457 16 8 16C6.89543 16 6 16.8954 6 18C6 19.1046 6.89543 20 8 20Z" fill="#809FB8"/>
<path d="M16 20C17.1046 20 18 19.1046 18 18C18 16.8954 17.1046 16 16 16C14.8954 16 14 16.8954 14 18C14 19.1046 14.8954 20 16 20Z" fill="#809FB8"/>
<path d="M22 10.53V12H19C18.45 12 18 11.55 18 11V8C18 7.45 18.45 7 19 7H20.29L21.74 9.53998C21.91 9.83998 22 10.18 22 10.53Z" fill="#809FB8"/>
<path d="M14 0H6C4.05 0 2.43002 1.4 2.08002 3.25H7C7.41 3.25 7.75 3.59 7.75 4C7.75 4.41 7.41 4.75 7 4.75H2V6.25H5C5.41 6.25 5.75 6.59 5.75 7C5.75 7.41 5.41 7.75 5 7.75H2V9.25H3C3.41 9.25 3.75 9.59 3.75 10C3.75 10.41 3.41 10.75 3 10.75H2V12H13C14.1 12 15 11.1 15 10V1C15 0.45 14.55 0 14 0Z" fill="#809FB8"/>
<path d="M2.08002 3.25H1C0.59 3.25 0.25 3.59 0.25 4C0.25 4.41 0.59 4.75 1 4.75H2V4C2 3.74 2.03002 3.49 2.08002 3.25Z" fill="#809FB8"/>
<path d="M1 6.25C0.59 6.25 0.25 6.59 0.25 7C0.25 7.41 0.59 7.75 1 7.75H2V6.25H1Z" fill="#809FB8"/>
<path d="M1 9.25C0.59 9.25 0.25 9.59 0.25 10C0.25 10.41 0.59 10.75 1 10.75H2V9.25H1Z" fill="#809FB8"/>
</svg>
