<svg width="12" height="12" viewBox="0 0 12 12" fill="none" xmlns="http://www.w3.org/2000/svg">
<path d="M7.74837 0.750326V6.00033C7.74837 6.64199 7.22337 7.16699 6.58171 7.16699H0.165039V2.50033C0.165039 1.21116 1.20921 0.166992 2.49837 0.166992H7.16504C7.48587 0.166992 7.74837 0.429492 7.74837 0.750326Z" fill="#217EFD"/>
<path opacity="0.4" d="M11.8317 7.16699V8.91699C11.8317 9.88533 11.05 10.667 10.0817 10.667H9.49837C9.49837 10.0253 8.97337 9.50033 8.33171 9.50033C7.69004 9.50033 7.16504 10.0253 7.16504 10.667H4.83171C4.83171 10.0253 4.30671 9.50033 3.66504 9.50033C3.02337 9.50033 2.49837 10.0253 2.49837 10.667H1.91504C0.946706 10.667 0.165039 9.88533 0.165039 8.91699V7.16699H6.58171C7.22337 7.16699 7.74837 6.64199 7.74837 6.00033V1.91699H8.8217C9.2417 1.91699 9.6267 2.1445 9.8367 2.50616L10.8342 4.25033H10.0817C9.76087 4.25033 9.49837 4.51283 9.49837 4.83366V6.58366C9.49837 6.90449 9.76087 7.16699 10.0817 7.16699H11.8317Z" fill="#217EFD"/>
<path d="M3.66471 11.8333C4.30905 11.8333 4.83138 11.311 4.83138 10.6667C4.83138 10.0223 4.30905 9.5 3.66471 9.5C3.02038 9.5 2.49805 10.0223 2.49805 10.6667C2.49805 11.311 3.02038 11.8333 3.66471 11.8333Z" fill="#217EFD"/>
<path d="M8.33171 11.8333C8.97604 11.8333 9.49837 11.311 9.49837 10.6667C9.49837 10.0223 8.97604 9.5 8.33171 9.5C7.68737 9.5 7.16504 10.0223 7.16504 10.6667C7.16504 11.311 7.68737 11.8333 8.33171 11.8333Z" fill="#217EFD"/>
<path d="M11.8314 6.30918V7.16667H10.0814C9.76055 7.16667 9.49805 6.90417 9.49805 6.58333V4.83333C9.49805 4.5125 9.76055 4.25 10.0814 4.25H10.8339L11.6797 5.73165C11.7789 5.90665 11.8314 6.10502 11.8314 6.30918Z" fill="#217EFD"/>
</svg>