<svg width="33" height="21" viewBox="0 0 33 21" fill="none" xmlns="http://www.w3.org/2000/svg">
<path d="M13.5272 5.26178V8.50506C13.5272 8.74848 13.4305 8.98193 13.2584 9.15405C13.0862 9.32617 12.8528 9.42287 12.6094 9.42287H4.875L8.0925 4.35943H12.5991C12.8416 4.35667 13.0754 4.45004 13.2493 4.61912C13.4232 4.7882 13.5231 5.01925 13.5272 5.26178Z" fill="#7EDEE8"/>
<path d="M11.875 4.34863L8.97203 9.29348H7.87891L10.7819 4.34863H11.875Z" fill="white"/>
<path d="M31.4278 3.48754V16.0688C31.4278 16.5173 31.2496 16.9475 30.9325 17.2647C30.6153 17.5819 30.1851 17.76 29.7366 17.76H26.9522C26.9254 17.2194 26.6918 16.7098 26.2998 16.3367C25.9077 15.9635 25.3871 15.7554 24.8459 15.7554C24.3046 15.7554 23.784 15.9635 23.392 16.3367C22.9999 16.7098 22.7663 17.2194 22.7395 17.76H9.36422C9.34273 17.2202 9.11031 16.7104 8.71692 16.3402C8.32353 15.9699 7.80057 15.7688 7.26047 15.78C6.71684 15.7633 6.18861 15.962 5.79074 16.3328C5.39288 16.7036 5.15759 17.2166 5.13609 17.76H3.02719C2.80509 17.76 2.58517 17.7163 2.37997 17.6313C2.17478 17.5463 1.98834 17.4217 1.83129 17.2647C1.67425 17.1076 1.54967 16.9212 1.46468 16.716C1.37968 16.5108 1.33594 16.2909 1.33594 16.0688V12.6502C1.33594 12.2248 1.4199 11.8035 1.58302 11.4106C1.74613 11.0177 1.98519 10.6608 2.2865 10.3605C2.5878 10.0601 2.94542 9.82222 3.33885 9.66036C3.73228 9.49849 4.15379 9.41587 4.57922 9.41723H12.6075C12.728 9.41723 12.8474 9.39349 12.9587 9.34736C13.0701 9.30124 13.1713 9.23363 13.2565 9.14841C13.3417 9.06318 13.4093 8.962 13.4554 8.85065C13.5016 8.73929 13.5253 8.61995 13.5253 8.49942V5.26129C13.5239 5.01877 13.4267 4.78664 13.2547 4.61563C13.0827 4.44462 12.85 4.34863 12.6075 4.34863H8.11641L9.42609 2.28613C9.62757 1.96966 9.90572 1.7092 10.2347 1.52892C10.5637 1.34864 10.933 1.25438 11.3081 1.25488H29.2003C29.4933 1.25488 29.7833 1.31267 30.0539 1.42494C30.3245 1.5372 30.5703 1.70174 30.7772 1.90913C30.9841 2.11652 31.1481 2.36268 31.2597 2.63353C31.3714 2.90438 31.4285 3.19459 31.4278 3.48754Z" fill="#DCE0DF" stroke="#06498D" stroke-width="1.2" stroke-linecap="round" stroke-linejoin="round"/>
<path d="M31.1739 12H1.08203V14.7122H31.1739V12Z" fill="#004F9F"/>
<path d="M26.9522 17.7601C26.9779 18.1813 26.8768 18.6006 26.6617 18.9637C26.4467 19.3267 26.1277 19.617 25.7459 19.7968C25.3642 19.9766 24.9372 20.0378 24.5204 19.9724C24.1035 19.907 23.7158 19.718 23.4074 19.43C23.0991 19.1419 22.8843 18.7679 22.7907 18.3564C22.6972 17.9449 22.7293 17.5148 22.8828 17.1218C23.0363 16.7287 23.3042 16.3907 23.6519 16.1515C23.9995 15.9124 24.411 15.783 24.8329 15.7801C25.3757 15.7648 25.9026 15.964 26.2993 16.3347C26.6961 16.7054 26.9307 17.2176 26.9522 17.7601Z" stroke="#06498D" stroke-width="1.2" stroke-linecap="round" stroke-linejoin="round"/>
<path d="M9.36192 17.7599C9.34175 18.3006 9.1099 18.8117 8.71637 19.1831C8.32284 19.5544 7.79914 19.7563 7.25817 19.7451C6.98931 19.7588 6.72047 19.7177 6.46799 19.6242C6.21552 19.5308 5.98469 19.387 5.78954 19.2015C5.59439 19.0161 5.439 18.7929 5.33282 18.5455C5.22663 18.2981 5.17188 18.0317 5.17188 17.7625C5.17188 17.4933 5.22663 17.2269 5.33282 16.9795C5.439 16.7321 5.59439 16.5089 5.78954 16.3235C5.98469 16.138 6.21552 15.9942 6.46799 15.9008C6.72047 15.8073 6.98931 15.7662 7.25817 15.7799C7.79828 15.7687 8.32123 15.9698 8.71462 16.3401C9.10801 16.7103 9.34043 17.2201 9.36192 17.7599V17.7599Z" stroke="#06498D" stroke-width="1.2" stroke-linecap="round" stroke-linejoin="round"/>
<path d="M8.10172 4.34863H8.11719L8.11203 4.35895L4.89453 9.42238" stroke="#06498D" stroke-width="1.2" stroke-linecap="round" stroke-linejoin="round"/>
<path d="M31.4261 8.91211H12.5078V9.9382H31.4261V8.91211Z" fill="#004F9F"/>
<path d="M31.4278 3.48754V16.0688C31.4278 16.5173 31.2496 16.9475 30.9325 17.2647C30.6153 17.5819 30.1851 17.76 29.7366 17.76H26.9522C26.9254 17.2194 26.6918 16.7098 26.2998 16.3367C25.9077 15.9635 25.3871 15.7554 24.8459 15.7554C24.3046 15.7554 23.784 15.9635 23.392 16.3367C22.9999 16.7098 22.7663 17.2194 22.7395 17.76H9.36422C9.34273 17.2202 9.11031 16.7104 8.71692 16.3402C8.32353 15.9699 7.80057 15.7688 7.26047 15.78C6.71684 15.7633 6.18861 15.962 5.79074 16.3328C5.39288 16.7036 5.15759 17.2166 5.13609 17.76H3.02719C2.80509 17.76 2.58517 17.7163 2.37997 17.6313C2.17478 17.5463 1.98834 17.4217 1.83129 17.2647C1.67425 17.1076 1.54967 16.9212 1.46468 16.716C1.37968 16.5108 1.33594 16.2909 1.33594 16.0688V12.6502C1.33594 12.2248 1.4199 11.8035 1.58302 11.4106C1.74613 11.0177 1.98519 10.6608 2.2865 10.3605C2.5878 10.0601 2.94542 9.82222 3.33885 9.66036C3.73228 9.49849 4.15379 9.41587 4.57922 9.41723H12.6075C12.728 9.41723 12.8474 9.39349 12.9587 9.34736C13.0701 9.30124 13.1713 9.23363 13.2565 9.14841C13.3417 9.06318 13.4093 8.962 13.4554 8.85065C13.5016 8.73929 13.5253 8.61995 13.5253 8.49942V5.26129C13.5239 5.01877 13.4267 4.78664 13.2547 4.61563C13.0827 4.44462 12.85 4.34863 12.6075 4.34863H8.11641L9.42609 2.28613C9.62757 1.96966 9.90572 1.7092 10.2347 1.52892C10.5637 1.34864 10.933 1.25438 11.3081 1.25488H29.2003C29.4933 1.25488 29.7833 1.31267 30.0539 1.42494C30.3245 1.5372 30.5703 1.70174 30.7772 1.90913C30.9841 2.11652 31.1481 2.36268 31.2597 2.63353C31.3714 2.90438 31.4285 3.19459 31.4278 3.48754V3.48754Z" stroke="#06498D" stroke-width="1.2" stroke-linecap="round" stroke-linejoin="round"/>
</svg>