<svg width="108" height="109" viewBox="0 0 108 109" fill="none" xmlns="http://www.w3.org/2000/svg">
<circle cx="54" cy="54.25" r="54" fill="#CCE6FD"/>
<path fill-rule="evenodd" clip-rule="evenodd" d="M99.2865 83.6719C89.6543 98.4654 72.9697 108.246 54.0007 108.246C35.0316 108.246 18.347 98.4654 8.71484 83.6719H99.2865Z" fill="#AEBF3E"/>
<rect x="25.7617" y="41.6719" width="37.4733" height="5.09748" rx="2.54874" fill="#004F9F"/>
<path d="M25.7617 82.6045C25.7617 81.3473 26.7809 80.3281 28.0381 80.3281H81.1534C82.4106 80.3281 83.4298 81.3473 83.4298 82.6045V82.6045C83.4298 83.8617 82.4106 84.8809 81.1534 84.8809H28.0381C26.7809 84.8809 25.7617 83.8617 25.7617 82.6045V82.6045Z" fill="#004F9F"/>
<rect x="31.1211" y="41.6719" width="26.7667" height="40.7798" fill="#004F9F"/>
<path d="M41.2091 75C40.8796 74.72 40.6113 74.3693 40.3194 74.0469C39.5627 73.215 38.8125 72.376 38.059 71.5406C38.0419 71.5218 38.0193 71.51 38 71.4959L38.0129 71.4759C38.0301 71.4759 38.0472 71.4723 38.0633 71.4723C38.7438 71.47 39.4243 71.4676 40.1047 71.4676C40.1477 71.4676 40.1723 71.4523 40.196 71.4159C42.1665 68.5013 44.1392 65.5867 46.1109 62.672C47.7498 60.2493 49.3887 57.8265 51.0276 55.4038C51.3238 54.966 51.6211 54.5307 51.9184 54.0941C51.942 54.06 51.9678 54.0282 52 54C51.9925 54.0153 51.985 54.0294 51.9775 54.0447C50.5886 56.744 49.1987 59.4433 47.8109 62.1437C46.4607 64.7712 45.1105 67.3987 43.7614 70.0274C42.9243 71.6571 42.0903 73.2891 41.2542 74.92C41.2413 74.9459 41.2306 74.9741 41.2188 75H41.2091Z" fill="#F0FFFC"/>
<rect x="63.2266" y="62.0703" width="4.015" height="22.9386" rx="2.0075" fill="#004F9F"/>
<path d="M79.2874 42.2893C79.8957 41.5094 81.0452 41.343 81.8501 41.9183V41.9183C82.6491 42.4894 82.8068 43.5764 82.2028 44.3506L66.6804 64.2502C66.0721 65.0301 64.9226 65.1965 64.1177 64.6212V64.6212C63.3187 64.0501 63.1611 62.9631 63.765 62.1889L79.2874 42.2893Z" fill="#004F9F"/>
</svg>
