<svg width="230" height="190" viewBox="0 0 230 190" fill="none" xmlns="http://www.w3.org/2000/svg">
<path d="M78.5419 162.415H175.83C178.507 162.415 180.676 160.25 180.676 157.578L180.669 22.2621C180.599 18.6386 178.85 16.5601 175.829 16.5601H78.5408C76.1352 16.5601 74.0857 18.3095 73.7005 20.6892L73.6953 157.578C73.6953 160.249 75.8642 162.415 78.5408 162.415H78.5419Z" fill="#F3C521"/>
<path d="M74.5193 162.54H171.821C174.498 162.54 176.668 160.37 176.668 157.694L176.661 22.1044C176.591 18.4726 174.842 16.4075 171.821 16.4075H74.5173C72.1116 16.4075 70.0611 18.1632 69.6769 20.548L69.6738 157.694C69.6738 160.37 71.8438 162.54 74.5204 162.54H74.5193Z" fill="white"/>
<path d="M176.665 126.319C176.54 126.319 176.437 126.217 176.437 126.09L176.433 22.1043C176.364 18.5795 174.727 16.6358 171.82 16.6358H74.517C72.2184 16.6358 70.281 18.2877 69.9051 20.5667V80.0605C69.9041 80.1862 69.8013 80.289 69.6757 80.289C69.5501 80.289 69.4473 80.1872 69.4473 80.0605V20.549C69.4483 20.5366 69.4493 20.5251 69.4514 20.5127C69.8563 18.0022 71.9868 16.1801 74.517 16.1801H171.82C174.969 16.1801 176.816 18.3375 176.889 22.1002L176.893 126.09C176.893 126.216 176.791 126.319 176.664 126.319H176.665Z" fill="#F3C521"/>
<path d="M146.909 12.1517H102.165C100.854 12.1517 99.791 13.2148 99.791 14.5262V24.4986C99.791 25.81 100.854 26.8731 102.165 26.8731H146.909C148.22 26.8731 149.283 25.81 149.283 24.4986V14.5262C149.283 13.2148 148.22 12.1517 146.909 12.1517Z" fill="white"/>
<path d="M146.909 27.1004H102.165C100.731 27.1004 99.5625 25.9334 99.5625 24.4975V14.5251C99.5625 13.0903 100.729 11.9222 102.165 11.9222H146.909C148.344 11.9222 149.512 13.0892 149.512 14.5251V24.4975C149.512 25.9324 148.345 27.1004 146.909 27.1004ZM102.165 12.3791C100.982 12.3791 100.019 13.3415 100.019 14.5251V24.4975C100.019 25.6811 100.982 26.6436 102.165 26.6436H146.909C148.092 26.6436 149.055 25.6811 149.055 24.4975V14.5251C149.055 13.3415 148.092 12.3791 146.909 12.3791H102.165Z" fill="#F3C521"/>
<path d="M124.511 0.228394C119.832 0.228394 116.057 4.02216 116.057 8.70156V21.4015C116.057 22.5435 116.982 23.4686 118.124 23.4686H130.899C132.042 23.4686 132.967 22.5435 132.967 21.4015V8.70156C132.967 4.02216 129.192 0.228394 124.511 0.228394ZM124.984 11.834C122.732 12.1174 120.838 10.2236 121.122 7.97271C121.315 6.43818 122.555 5.19954 124.089 5.00643C126.341 4.72298 128.233 6.61676 127.95 8.86768C127.757 10.4022 126.517 11.6409 124.984 11.834Z" fill="white"/>
<path d="M130.899 23.6971H118.124C116.858 23.6971 115.828 22.6671 115.828 21.4015V8.70158C115.828 3.90383 119.724 0 124.511 0C129.298 0 133.194 3.90383 133.194 8.70158V21.4015C133.194 22.6671 132.164 23.6971 130.898 23.6971H130.899ZM124.511 0.456831C119.975 0.456831 116.284 4.15612 116.284 8.70158V21.4015C116.284 22.4158 117.109 23.2402 118.123 23.2402H130.898C131.913 23.2402 132.737 22.4148 132.737 21.4015V8.70158C132.737 4.15508 129.046 0.456831 124.51 0.456831H124.511ZM124.537 12.0904C123.563 12.0904 122.636 11.7115 121.94 11.0158C121.132 10.207 120.752 9.08782 120.896 7.94366C121.101 6.31568 122.432 4.98465 124.06 4.78011C125.204 4.63579 126.324 5.01683 127.132 5.82563C127.939 6.63339 128.32 7.75366 128.176 8.89678C127.97 10.5248 126.64 11.8558 125.011 12.0614C124.853 12.0811 124.694 12.0915 124.536 12.0915L124.537 12.0904ZM124.534 5.20683C124.396 5.20683 124.257 5.21514 124.118 5.23279C122.693 5.41241 121.528 6.57628 121.349 8.00077C121.222 9.00372 121.555 9.98486 122.263 10.693C122.971 11.401 123.951 11.7343 124.954 11.6077C126.379 11.428 127.544 10.2642 127.723 8.83863C127.85 7.83568 127.517 6.85454 126.809 6.14749C126.199 5.53803 125.387 5.20579 124.534 5.20579V5.20683Z" fill="#F3C521"/>
<path d="M162.088 65.742H154.37C153.096 65.742 152.059 64.7058 152.059 63.4309V55.7125C152.059 54.4386 153.096 53.4014 154.37 53.4014H162.088C163.362 53.4014 164.399 54.4375 164.399 55.7125V63.4309C164.399 64.7048 163.362 65.742 162.088 65.742ZM154.37 53.8572C153.347 53.8572 152.514 54.6888 152.514 55.7115V63.4298C152.514 64.4525 153.346 65.2841 154.37 65.2841H162.088C163.111 65.2841 163.942 64.4525 163.942 63.4298V55.7115C163.942 54.6888 163.111 53.8572 162.088 53.8572H154.37Z" fill="#F3C521"/>
<path d="M157.343 63.0674C157.302 63.0674 157.259 63.0633 157.217 63.056C156.975 63.0103 156.785 62.8442 156.709 62.6106L155.286 58.902C155.242 58.7836 155.3 58.6517 155.418 58.6071C155.536 58.5625 155.668 58.6206 155.713 58.7379L157.14 62.458C157.178 62.5732 157.266 62.6013 157.303 62.6075C157.337 62.6137 157.424 62.62 157.493 62.5442L161.423 56.271C161.489 56.1641 161.63 56.1319 161.737 56.1984C161.844 56.2648 161.876 56.406 161.81 56.513L157.871 62.8006C157.866 62.8089 157.859 62.8162 157.853 62.8245C157.724 62.9813 157.541 63.0674 157.344 63.0674H157.343Z" fill="#F3C521"/>
<path d="M162.088 80.2132H154.37C153.096 80.2132 152.059 79.176 152.059 77.9021V70.1837C152.059 68.9098 153.096 67.8726 154.37 67.8726H162.088C163.362 67.8726 164.399 68.9087 164.399 70.1837V77.9021C164.399 79.176 163.362 80.2132 162.088 80.2132ZM154.37 68.3284C153.347 68.3284 152.514 69.16 152.514 70.1827V77.901C152.514 78.9237 153.346 79.7564 154.37 79.7564H162.088C163.111 79.7564 163.942 78.9247 163.942 77.901V70.1827C163.942 69.16 163.111 68.3284 162.088 68.3284H154.37Z" fill="#F3C521"/>
<path d="M157.343 77.5386C157.302 77.5386 157.259 77.5345 157.217 77.5272C156.975 77.4815 156.785 77.3154 156.709 77.0818L155.286 73.3732C155.242 73.2548 155.3 73.1229 155.418 73.0783C155.536 73.0326 155.668 73.0918 155.713 73.2091L157.14 76.9292C157.178 77.0444 157.266 77.0725 157.303 77.0787C157.337 77.0849 157.424 77.0911 157.493 77.0154L161.423 70.7422C161.489 70.6353 161.63 70.6031 161.737 70.6696C161.844 70.736 161.876 70.8772 161.81 70.9841L157.871 77.2718C157.866 77.2801 157.859 77.2874 157.853 77.2957C157.724 77.4525 157.541 77.5386 157.344 77.5386H157.343Z" fill="#F3C521"/>
<path d="M162.088 94.6843H154.37C153.096 94.6843 152.059 93.6471 152.059 92.3731V84.6548C152.059 83.3808 153.096 82.3436 154.37 82.3436H162.088C163.362 82.3436 164.399 83.3798 164.399 84.6548V92.3731C164.399 93.6471 163.362 94.6843 162.088 94.6843ZM154.37 82.7994C153.347 82.7994 152.514 83.6311 152.514 84.6537V92.3721C152.514 93.3948 153.346 94.2275 154.37 94.2275H162.088C163.111 94.2275 163.942 93.3958 163.942 92.3721V84.6537C163.942 83.6311 163.111 82.7994 162.088 82.7994H154.37Z" fill="#F3C521"/>
<path d="M157.343 92.0097C157.302 92.0097 157.259 92.0055 157.217 91.9983C156.975 91.9526 156.785 91.7865 156.709 91.5529L155.286 87.8442C155.242 87.7259 155.3 87.594 155.418 87.5494C155.536 87.5047 155.668 87.5629 155.713 87.6802L157.14 91.4002C157.178 91.5155 157.266 91.5435 157.303 91.5498C157.337 91.556 157.424 91.5622 157.493 91.4864L161.423 85.2133C161.489 85.1064 161.63 85.0742 161.737 85.1406C161.844 85.2071 161.876 85.3483 161.81 85.4552L157.871 91.7429C157.866 91.7512 157.859 91.7584 157.853 91.7667C157.724 91.9235 157.541 92.0097 157.344 92.0097H157.343Z" fill="#F3C521"/>
<path d="M128.744 61.9368H82.2649C81.1841 61.9368 80.3047 61.0574 80.3047 59.9766C80.3047 58.8958 81.1841 58.0164 82.2649 58.0164H128.744C129.825 58.0164 130.705 58.8958 130.705 59.9766C130.705 61.0574 129.825 61.9368 128.744 61.9368ZM82.2649 58.4732C81.4353 58.4732 80.7615 59.1481 80.7615 59.9776C80.7615 60.8072 81.4364 61.481 82.2649 61.481H128.744C129.574 61.481 130.248 60.8061 130.248 59.9776C130.248 59.1491 129.573 58.4732 128.744 58.4732H82.2649Z" fill="#F3C521"/>
<path d="M99.7636 76.409H82.2649C81.1841 76.409 80.3047 75.5296 80.3047 74.4487C80.3047 73.3679 81.1841 72.4885 82.2649 72.4885H99.7636C100.844 72.4885 101.724 73.3679 101.724 74.4487C101.724 75.5296 100.844 76.409 99.7636 76.409ZM82.2649 72.9454C81.4353 72.9454 80.7615 73.6202 80.7615 74.4498C80.7615 75.2793 81.4364 75.9532 82.2649 75.9532H99.7636C100.593 75.9532 101.267 75.2783 101.267 74.4498C101.267 73.6213 100.592 72.9454 99.7636 72.9454H82.2649Z" fill="#F3C521"/>
<path d="M116.408 90.5324H82.2649C81.1841 90.5324 80.3047 89.653 80.3047 88.5722C80.3047 87.4913 81.1841 86.6119 82.2649 86.6119H116.408C117.489 86.6119 118.368 87.4913 118.368 88.5722C118.368 89.653 117.489 90.5324 116.408 90.5324ZM82.2649 87.0688C81.4353 87.0688 80.7615 87.7436 80.7615 88.5722C80.7615 89.4007 81.4364 90.0755 82.2649 90.0755H116.408C117.237 90.0755 117.911 89.4007 117.911 88.5722C117.911 87.7436 117.236 87.0688 116.408 87.0688H82.2649Z" fill="#F3C521"/>
<path d="M138.376 76.409H109.406C108.325 76.409 107.445 75.5296 107.445 74.4487C107.445 73.3679 108.325 72.4885 109.406 72.4885H138.376C139.457 72.4885 140.336 73.3679 140.336 74.4487C140.336 75.5296 139.457 76.409 138.376 76.409ZM109.406 72.9454C108.576 72.9454 107.902 73.6202 107.902 74.4498C107.902 75.2793 108.577 75.9532 109.406 75.9532H138.376C139.205 75.9532 139.879 75.2783 139.879 74.4498C139.879 73.6213 139.204 72.9454 138.376 72.9454H109.406Z" fill="#F3C521"/>
<path d="M140.059 154.04H133.86C131.326 154.04 129.273 160.121 129.273 167.546C129.273 174.971 131.326 181.055 133.86 181.055H140.059C142.591 181.055 144.644 174.973 144.644 167.548C144.644 160.123 142.591 154.04 140.059 154.04Z" fill="white"/>
<path d="M140.059 181.38H133.866C131.109 181.38 128.951 175.303 128.951 167.546C128.951 159.79 131.107 153.716 133.861 153.716H140.059C142.813 153.716 144.969 159.791 144.969 167.548C144.969 175.305 142.813 181.38 140.059 181.38ZM133.868 154.364C131.803 154.364 129.6 159.661 129.6 167.546C129.6 175.431 131.803 180.731 133.862 180.731H140.052C142.118 180.731 144.322 175.434 144.322 167.548C144.322 159.661 142.118 154.364 140.059 154.364H133.868Z" fill="#00499B"/>
<path d="M133.86 180.834C136.393 180.834 138.446 174.815 138.446 167.39C138.446 159.965 136.393 153.946 133.86 153.946C131.328 153.946 129.275 159.965 129.275 167.39C129.275 174.815 131.328 180.834 133.86 180.834Z" fill="#00499B"/>
<path d="M133.861 181.16C131.107 181.16 128.951 175.113 128.951 167.392C128.951 159.67 131.107 153.623 133.861 153.623C136.614 153.623 138.77 159.672 138.77 167.392C138.77 175.111 136.614 181.16 133.861 181.16ZM133.861 154.27C131.803 154.27 129.598 159.542 129.598 167.392C129.598 175.241 131.802 180.512 133.861 180.512C135.919 180.512 138.123 175.24 138.123 167.392C138.123 159.543 135.919 154.27 133.861 154.27Z" fill="#00499B"/>
<path d="M121.209 155.034H115.01C112.477 155.034 110.424 161.115 110.424 168.54C110.424 175.965 112.477 182.049 115.01 182.049H121.209C123.741 182.049 125.794 175.967 125.794 168.542C125.794 161.117 123.741 155.034 121.209 155.034Z" fill="white"/>
<path d="M121.21 182.373H115.017C112.259 182.373 110.102 176.297 110.102 168.54C110.102 160.783 112.258 154.71 115.011 154.71H121.21C123.963 154.71 126.119 160.785 126.119 168.541C126.119 176.298 123.963 182.373 121.21 182.373ZM115.018 155.358C112.953 155.358 110.75 160.655 110.75 168.54C110.75 176.425 112.953 181.725 115.012 181.725H121.202C123.269 181.725 125.472 176.428 125.472 168.541C125.472 160.655 123.269 155.358 121.21 155.358H115.018Z" fill="#00499B"/>
<path d="M115.011 181.83C117.543 181.83 119.596 175.81 119.596 168.385C119.596 160.96 117.543 154.941 115.011 154.941C112.479 154.941 110.426 160.96 110.426 168.385C110.426 175.81 112.479 181.83 115.011 181.83Z" fill="#00499B"/>
<path d="M115.011 182.154C112.258 182.154 110.102 176.105 110.102 168.385C110.102 160.665 112.258 154.617 115.011 154.617C117.764 154.617 119.92 160.665 119.92 168.385C119.92 176.105 117.764 182.154 115.011 182.154ZM115.011 155.264C112.953 155.264 110.749 160.536 110.749 168.385C110.749 176.235 112.952 181.507 115.011 181.507C117.07 181.507 119.273 176.235 119.273 168.385C119.273 160.536 117.07 155.264 115.011 155.264Z" fill="#00499B"/>
<path d="M70.6501 155.306H65.3369C63.166 155.306 61.4062 160.484 61.4062 166.848C61.4062 173.212 63.166 178.392 65.3369 178.392H70.6501C72.821 178.392 74.5808 173.213 74.5808 166.849C74.5808 160.485 72.821 155.306 70.6501 155.306Z" fill="#00499B"/>
<path d="M70.6501 178.716H65.3414C62.9508 178.716 61.082 173.504 61.082 166.848C61.082 160.192 62.9508 154.982 65.337 154.982H70.6501C73.0362 154.982 74.9051 160.195 74.9051 166.849C74.9051 173.504 73.0362 178.716 70.6501 178.716ZM65.3429 155.629C63.5964 155.629 61.7305 160.136 61.7305 166.848C61.7305 173.56 63.5949 178.069 65.337 178.069H70.6428C72.3907 178.069 74.2566 173.561 74.2566 166.849C74.2566 160.137 72.3922 155.629 70.6501 155.629H65.3429Z" fill="#00499B"/>
<path d="M138.536 174.408L138.383 92.0111L5.58203 108.827V167.776L138.536 174.408Z" fill="white"/>
<path d="M138.536 174.733C138.536 174.733 138.526 174.733 138.52 174.733L5.56585 168.101C5.39341 168.092 5.25781 167.95 5.25781 167.776V108.828C5.25781 108.664 5.37867 108.527 5.54079 108.506L138.342 91.6914C138.433 91.6811 138.526 91.7076 138.597 91.7695C138.666 91.8314 138.706 91.9198 138.707 92.0127L138.86 174.408C138.86 174.497 138.823 174.582 138.76 174.643C138.7 174.7 138.62 174.733 138.536 174.733ZM5.9063 167.468L138.212 174.068L138.06 92.3796L5.9063 109.113V167.468Z" fill="#00499B"/>
<path d="M156.51 153.293H94.4961V73.3234L156.51 76.2386V153.293Z" fill="white"/>
<path d="M156.511 153.617C156.332 153.617 156.187 153.473 156.187 153.293V76.5479L94.4803 73.6474C94.302 73.6386 94.1634 73.4868 94.1723 73.3084C94.1811 73.1301 94.3388 72.9916 94.5113 73.0004L156.527 75.9156C156.699 75.9245 156.835 76.066 156.835 76.2399V153.295C156.835 153.473 156.691 153.619 156.511 153.619V153.617Z" fill="#00499B"/>
<path d="M94.4967 153.293V73.3234L0.435547 79.1686V152.406L94.4967 153.293Z" fill="white"/>
<path d="M88.8062 79.0167V112.546L59.0039 113.317V80.7455L88.8062 79.0167Z" fill="white"/>
<path d="M59.0044 113.641C58.9204 113.641 58.8393 113.609 58.7789 113.55C58.717 113.489 58.6816 113.405 58.6816 113.318V80.7483C58.6816 80.5759 58.8158 80.4344 58.9867 80.4255L88.789 78.6967C88.8789 78.6908 88.9659 78.7233 89.0307 78.7837C89.0956 78.8456 89.1324 78.9296 89.1324 79.0195V112.549C89.1324 112.724 88.9924 112.869 88.817 112.873L59.0147 113.644H59.0059L59.0044 113.641ZM59.3286 81.0519V112.985L88.4839 112.232V79.3614L59.3286 81.0534V81.0519Z" fill="#00499B"/>
<path d="M94.4956 79.0165H88.8066V112.546H94.4956V79.0165Z" fill="white"/>
<path d="M94.4976 112.87H88.8086C88.6303 112.87 88.4844 112.726 88.4844 112.546V79.0164C88.4844 78.838 88.6288 78.6921 88.8086 78.6921H94.4976C94.6759 78.6921 94.8218 78.8366 94.8218 79.0164V112.546C94.8218 112.724 94.6774 112.87 94.4976 112.87ZM89.1329 112.222H94.1748V79.3406H89.1329V112.222Z" fill="#00499B"/>
<path d="M88.8062 115.56V149.09H59.0039V116.134L88.8062 115.56Z" fill="white"/>
<path d="M88.8082 149.413H59.0059C58.8275 149.413 58.6816 149.268 58.6816 149.088V116.132C58.6816 115.955 58.8231 115.812 59 115.808L88.8023 115.234C88.8922 115.242 88.9732 115.267 89.0351 115.327C89.097 115.388 89.1324 115.472 89.1324 115.559V149.088C89.1324 149.267 88.988 149.413 88.8082 149.413ZM59.3301 148.764H88.4854V115.889L59.3301 116.45V148.766V148.764Z" fill="#00499B"/>
<path d="M94.4956 115.56H88.8066V149.09H94.4956V115.56Z" fill="white"/>
<path d="M94.4976 149.413H88.8086C88.6303 149.413 88.4844 149.268 88.4844 149.088V115.559C88.4844 115.381 88.6288 115.235 88.8086 115.235H94.4976C94.6759 115.235 94.8218 115.379 94.8218 115.559V149.088C94.8218 149.267 94.6774 149.413 94.4976 149.413ZM89.1329 148.764H94.1748V115.883H89.1329V148.764Z" fill="#00499B"/>
<path d="M58.8296 117.021H53.1406V149.09H58.8296V117.021Z" fill="white"/>
<path d="M58.8296 149.413H53.1407C52.9623 149.413 52.8164 149.268 52.8164 149.088V117.019C52.8164 116.841 52.9608 116.695 53.1407 116.695H58.8296C59.008 116.695 59.1539 116.84 59.1539 117.019V149.088C59.1539 149.267 59.0094 149.413 58.8296 149.413ZM53.4649 148.764H58.5069V117.344H53.4649V148.764Z" fill="#00499B"/>
<path d="M53.088 117.021V149.09H24.2422V117.948L53.088 117.021Z" fill="white"/>
<path d="M53.0875 149.413H24.2403C24.0619 149.413 23.916 149.268 23.916 149.088V117.946C23.916 117.771 24.0546 117.628 24.2299 117.622L53.0772 116.694C53.1656 116.685 53.2496 116.723 53.313 116.785C53.3764 116.845 53.4117 116.931 53.4117 117.018V149.087C53.4117 149.265 53.2673 149.411 53.0875 149.411V149.413ZM24.5645 148.764H52.7633V117.354L24.5645 118.262V148.766V148.764Z" fill="#00499B"/>
<path d="M58.8296 81.2347H53.1406V113.304H58.8296V81.2347Z" fill="white"/>
<path d="M58.8296 113.628H53.1407C52.9623 113.628 52.8164 113.483 52.8164 113.304V81.2346C52.8164 81.0563 52.9608 80.9104 53.1407 80.9104H58.8296C59.008 80.9104 59.1539 81.0548 59.1539 81.2346V113.304C59.1539 113.482 59.0094 113.628 58.8296 113.628ZM53.4649 112.979H58.5069V81.5574H53.4649V112.979Z" fill="#00499B"/>
<path d="M53.088 81.2349V113.304L24.2422 114.075V82.1634L53.088 81.2349Z" fill="white"/>
<path d="M24.2427 114.399C24.1587 114.399 24.0776 114.366 24.0172 114.307C23.9538 114.247 23.9199 114.163 23.9199 114.075V82.1632C23.9199 81.9878 24.0585 81.8448 24.2338 81.8389L53.0811 80.9104C53.1695 80.906 53.2535 80.9399 53.3169 81.0018C53.3803 81.0622 53.4156 81.1477 53.4156 81.2347V113.304C53.4156 113.479 53.2756 113.624 53.1002 113.628L24.253 114.399H24.2442H24.2427ZM24.5669 82.4771V113.741L52.7657 112.988V81.5692L24.5669 82.4771Z" fill="#00499B"/>
<path d="M84.0682 157.256H78.0992C75.66 157.256 73.6836 163.112 73.6836 170.261C73.6836 177.411 75.66 183.269 78.0992 183.269H84.0682C86.5074 183.269 88.4838 177.412 88.4838 170.263C88.4838 163.113 86.5074 157.256 84.0682 157.256Z" fill="white"/>
<path d="M84.0687 183.593H78.1056C75.4424 183.593 73.3613 177.738 73.3613 170.261C73.3613 162.784 75.4438 156.932 78.1012 156.932H84.0702C86.7275 156.932 88.81 162.787 88.81 170.262C88.81 177.738 86.7275 183.593 84.0702 183.593H84.0687ZM78.1056 157.58C76.1233 157.58 74.0083 162.675 74.0083 170.261C74.0083 177.847 76.1248 182.945 78.0997 182.945H84.0613C86.0451 182.945 88.16 177.848 88.16 170.262C88.16 162.677 86.0436 157.58 84.0687 157.58H78.1056Z" fill="#00499B"/>
<path d="M78.0992 183.058C80.5378 183.058 82.5148 177.262 82.5148 170.112C82.5148 162.962 80.5378 157.166 78.0992 157.166C75.6605 157.166 73.6836 162.962 73.6836 170.112C73.6836 177.262 75.6605 183.058 78.0992 183.058Z" fill="white"/>
<path d="M78.0992 183.383C75.4419 183.383 73.3594 177.554 73.3594 170.112C73.3594 162.671 75.4419 156.842 78.0992 156.842C80.7565 156.842 82.839 162.671 82.839 170.112C82.839 177.554 80.7565 183.383 78.0992 183.383ZM78.0992 157.49C76.1228 157.49 74.0079 162.562 74.0079 170.112C74.0079 177.663 76.1243 182.734 78.0992 182.734C80.0741 182.734 82.1905 177.663 82.1905 170.112C82.1905 162.562 80.0741 157.49 78.0992 157.49Z" fill="#00499B"/>
<path d="M102.659 157.656H96.4596C93.9261 157.656 91.873 163.737 91.873 171.162C91.873 178.587 93.9261 184.671 96.4596 184.671H102.659C105.191 184.671 107.244 178.588 107.244 171.163C107.244 163.738 105.191 157.656 102.659 157.656Z" fill="white"/>
<path d="M102.659 184.995H96.466C93.7085 184.995 91.5508 178.918 91.5508 171.162C91.5508 163.405 93.707 157.331 96.4601 157.331H102.659C105.412 157.331 107.568 163.406 107.568 171.163C107.568 178.92 105.412 184.995 102.659 184.995ZM96.4675 157.98C94.4026 157.98 92.1993 163.277 92.1993 171.162C92.1993 179.047 94.4026 184.346 96.4616 184.346H102.652C104.718 184.346 106.921 179.05 106.921 171.163C106.921 163.277 104.718 157.98 102.659 157.98H96.4675Z" fill="#00499B"/>
<path d="M96.4601 184.451C98.9923 184.451 101.045 178.432 101.045 171.007C101.045 163.582 98.9923 157.563 96.4601 157.563C93.9278 157.563 91.875 163.582 91.875 171.007C91.875 178.432 93.9278 184.451 96.4601 184.451Z" fill="white"/>
<path d="M96.4601 184.775C93.707 184.775 91.5508 178.727 91.5508 171.007C91.5508 163.287 93.707 157.238 96.4601 157.238C99.2132 157.238 101.369 163.287 101.369 171.007C101.369 178.727 99.2132 184.775 96.4601 184.775ZM96.4601 157.885C94.4026 157.885 92.1978 163.157 92.1978 171.007C92.1978 178.857 94.4012 184.128 96.4601 184.128C98.519 184.128 100.722 178.857 100.722 171.007C100.722 163.157 98.519 157.885 96.4601 157.885Z" fill="#00499B"/>
<path d="M18.8668 155.631H13.7496C11.6583 155.631 9.96484 160.474 9.96484 166.522C9.96484 172.571 11.6597 177.417 13.7496 177.417H18.8668C20.9567 177.417 22.6516 172.572 22.6516 166.524C22.6516 160.475 20.9567 155.631 18.8668 155.631Z" fill="white"/>
<path d="M18.8668 177.741H13.7541C11.4461 177.741 9.64062 172.814 9.64062 166.522C9.64062 160.23 11.4461 155.306 13.7497 155.306H18.8668C21.1704 155.306 22.9758 160.233 22.9758 166.524C22.9758 172.814 21.1704 177.741 18.8668 177.741ZM13.7556 155.955C12.0783 155.955 10.2891 160.201 10.2891 166.522C10.2891 172.843 12.0783 177.092 13.7511 177.092H18.8609C20.5396 177.092 22.3288 172.845 22.3288 166.524C22.3288 160.202 20.5396 155.955 18.8668 155.955H13.7556Z" fill="#00499B"/>
<path d="M13.7516 177.291C15.8419 177.291 17.5364 172.387 17.5364 166.338C17.5364 160.288 15.8419 155.384 13.7516 155.384C11.6613 155.384 9.9668 160.288 9.9668 166.338C9.9668 172.387 11.6613 177.291 13.7516 177.291Z" fill="white"/>
<path d="M13.7516 177.616C11.448 177.616 9.64258 172.662 9.64258 166.339C9.64258 160.017 11.448 155.063 13.7516 155.063C16.0552 155.063 17.8606 160.017 17.8606 166.339C17.8606 172.662 16.0552 177.616 13.7516 177.616ZM13.7516 155.71C12.0803 155.71 10.2896 159.981 10.2896 166.339C10.2896 172.697 12.0788 176.968 13.7516 176.968C15.4244 176.968 17.2136 172.697 17.2136 166.339C17.2136 159.981 15.4244 155.71 13.7516 155.71Z" fill="#00499B"/>
<path d="M28.5582 156.281H23.441C21.3497 156.281 19.6562 161.124 19.6562 167.172C19.6562 173.221 21.3512 178.067 23.441 178.067H28.5582C30.6481 178.067 32.343 173.222 32.343 167.174C32.343 161.125 30.6481 156.281 28.5582 156.281Z" fill="#00499B"/>
<path d="M23.441 177.943C25.5313 177.943 27.2258 173.039 27.2258 166.989C27.2258 160.94 25.5313 156.036 23.441 156.036C21.3508 156.036 19.6562 160.94 19.6562 166.989C19.6562 173.039 21.3508 177.943 23.441 177.943Z" fill="white"/>
<path d="M38.6696 156.281H33.3565C31.1855 156.281 29.4258 161.458 29.4258 167.822C29.4258 174.186 31.1855 179.367 33.3565 179.367H38.6696C40.8406 179.367 42.6003 174.188 42.6003 167.824C42.6003 161.46 40.8406 156.281 38.6696 156.281Z" fill="white"/>
<path d="M38.6697 179.692H33.3609C30.9704 179.692 29.1016 174.479 29.1016 167.824C29.1016 161.168 30.9704 155.958 33.3565 155.958H38.6697C41.0558 155.958 42.9246 161.171 42.9246 167.825C42.9246 174.479 41.0558 179.692 38.6697 179.692ZM33.3624 156.605C31.6159 156.605 29.7501 161.112 29.7501 167.822C29.7501 174.533 31.6144 179.044 33.3565 179.044H38.6623C40.4102 179.044 42.2761 174.535 42.2761 167.824C42.2761 161.112 40.4117 156.603 38.6697 156.603H33.3624V156.605Z" fill="#00499B"/>
<path d="M33.3565 179.162C35.5273 179.162 37.2872 174.002 37.2872 167.638C37.2872 161.274 35.5273 156.114 33.3565 156.114C31.1856 156.114 29.4258 161.274 29.4258 167.638C29.4258 174.002 31.1856 179.162 33.3565 179.162Z" fill="white"/>
<path d="M33.3565 179.486C30.9704 179.486 29.1016 174.282 29.1016 167.638C29.1016 160.994 30.9704 155.79 33.3565 155.79C35.7426 155.79 37.6114 160.994 37.6114 167.638C37.6114 174.282 35.7426 179.486 33.3565 179.486ZM33.3565 156.438C31.6144 156.438 29.7501 160.938 29.7501 167.638C29.7501 174.338 31.6144 178.838 33.3565 178.838C35.0986 178.838 36.963 174.338 36.963 167.638C36.963 160.938 35.0986 156.438 33.3565 156.438Z" fill="#00499B"/>
<path d="M94.4961 153.452H94.4932L32.3389 152.976C32.1605 152.976 32.0161 152.829 32.0176 152.649C32.0176 152.471 32.1635 152.328 32.3418 152.328H32.3448L94.1719 152.802V73.671L56.0056 76.1736C55.8243 76.1765 55.6725 76.0498 55.6607 75.8715C55.6489 75.6931 55.7845 75.5384 55.9629 75.5266L94.474 73.0004C94.5654 72.996 94.6509 73.0255 94.7172 73.0874C94.782 73.1478 94.8204 73.2348 94.8204 73.3232V153.127C94.8204 153.214 94.7865 153.296 94.7246 153.356C94.6641 153.417 94.5816 153.451 94.4961 153.451V153.452Z" fill="#00499B"/>
<path d="M11.5718 152.815H11.5689L0.432633 152.73C0.2543 152.73 0.109865 152.583 0.111339 152.404C0.111339 152.226 0.257246 152.083 0.435579 152.083H0.438529L11.5748 152.168C11.7531 152.168 11.8975 152.316 11.8961 152.494C11.8961 152.672 11.7502 152.815 11.5718 152.815Z" fill="#00499B"/>
<path d="M136.207 145.714L140.009 149.125L141.38 174.599H162.845V145.783L136.207 145.714Z" fill="#00499B"/>
<path d="M161.354 152.644H153.344C150.071 152.644 147.418 160.446 147.418 170.042C147.418 179.638 150.071 187.445 153.344 187.445H161.354C164.628 187.445 167.281 179.641 167.281 170.045C167.281 160.449 164.628 152.645 161.354 152.645V152.644Z" fill="white"/>
<path d="M161.354 187.768H153.35C149.838 187.768 147.092 179.981 147.092 170.042C147.092 160.102 149.838 152.319 153.342 152.319H161.353C164.857 152.319 167.603 160.105 167.603 170.043C167.603 179.981 164.857 187.768 161.353 187.768H161.354ZM153.351 152.966C150.306 152.966 147.74 160.785 147.74 170.04C147.74 179.296 150.306 187.119 153.344 187.119H161.344C164.392 187.119 166.956 179.299 166.956 170.043C166.956 160.788 164.39 152.966 161.354 152.966H153.351Z" fill="#00499B"/>
<path d="M153.344 187.166C156.617 187.166 159.271 179.386 159.271 169.79C159.271 160.193 156.617 152.413 153.344 152.413C150.071 152.413 147.418 160.193 147.418 169.79C147.418 179.386 150.071 187.166 153.344 187.166Z" fill="white"/>
<path d="M153.344 187.49C149.839 187.49 147.094 179.716 147.094 169.79C147.094 159.864 149.839 152.091 153.344 152.091C156.849 152.091 159.595 159.865 159.595 169.79C159.595 179.715 156.849 187.49 153.344 187.49ZM153.344 152.739C150.307 152.739 147.742 160.547 147.742 169.791C147.742 179.035 150.308 186.843 153.344 186.843C156.38 186.843 158.946 179.035 158.946 169.791C158.946 160.547 156.38 152.739 153.344 152.739Z" fill="#00499B"/>
<path d="M195.242 121.482H194.035C193.348 121.482 192.791 120.925 192.791 120.238V110.761C192.791 109.924 193.469 109.245 194.308 109.245H194.854C195.949 109.245 196.837 110.132 196.837 111.227V119.887C196.837 120.767 196.123 121.481 195.243 121.481L195.242 121.482Z" fill="#00499B"/>
<path d="M212.212 148.866H204.202C200.928 148.866 198.275 156.668 198.275 166.264C198.275 175.86 200.928 183.667 204.202 183.667H212.212C215.485 183.667 218.138 175.863 218.138 166.267C218.138 156.671 215.485 148.867 212.212 148.867V148.866Z" fill="white"/>
<path d="M212.211 183.99H204.207C200.695 183.99 197.949 176.204 197.949 166.264C197.949 156.325 200.695 148.542 204.2 148.542H212.21C215.715 148.542 218.46 156.328 218.46 166.266C218.46 176.204 215.715 183.99 212.21 183.99H212.211ZM204.209 149.189C201.164 149.189 198.598 157.007 198.598 166.263C198.598 175.518 201.164 183.342 204.201 183.342H212.201C215.248 183.342 217.813 175.521 217.813 166.266C217.813 157.01 215.248 149.189 212.211 149.189H204.209Z" fill="#00499B"/>
<path d="M204.2 183.389C207.473 183.389 210.126 175.609 210.126 166.012C210.126 156.415 207.473 148.636 204.2 148.636C200.927 148.636 198.273 156.415 198.273 166.012C198.273 175.609 200.927 183.389 204.2 183.389Z" fill="#00499B"/>
<path d="M204.2 183.713C200.695 183.713 197.949 175.939 197.949 166.014C197.949 156.089 200.695 148.313 204.2 148.313C207.704 148.313 210.45 156.088 210.45 166.014C210.45 175.94 207.704 183.713 204.2 183.713ZM204.2 148.962C201.162 148.962 198.598 156.77 198.598 166.014C198.598 175.258 201.164 183.066 204.2 183.066C207.236 183.066 209.802 175.258 209.802 166.014C209.802 156.77 207.236 148.962 204.2 148.962Z" fill="#00499B"/>
<path d="M97.4668 153.267L138.38 153.88L138.536 174.407H141.71C141.652 171.735 141.609 169.181 141.609 167.362C141.609 156.416 146.735 147.544 153.058 147.544C157.186 147.544 160.805 151.329 162.819 157.003C170.797 157.395 183.017 157.2 194.84 156.822C212.711 156.25 229.671 155.264 229.671 155.264C229.896 145.73 220.383 141.794 220.383 141.794C220.383 141.794 219.46 134.018 218.11 132.667C216.758 131.315 195.213 123.671 195.213 123.671L185.336 98.651C184.308 96.1839 182.872 93.9009 181.052 91.9333C176.597 87.1139 168.026 81.195 152.516 80.4611C150.138 80.3491 120.526 77.9762 105.732 77.3056C101.543 77.1155 98.2641 77.5311 97.4683 77.5989V153.267H97.4668Z" fill="white"/>
<path d="M141.71 174.733H138.537C138.359 174.733 138.214 174.59 138.213 174.412L138.059 154.201L97.4629 153.592C97.286 153.589 97.1445 153.445 97.1445 153.268V77.6003C97.1445 77.4323 97.2728 77.2923 97.4408 77.2776C97.5395 77.2687 97.6751 77.2555 97.8476 77.2378C99.1077 77.111 102.057 76.8148 105.746 76.9828C116.416 77.4677 135.073 78.856 145.098 79.6033C149.031 79.8966 151.871 80.1073 152.531 80.1383C168.139 80.8767 176.786 86.8412 181.29 91.7137C183.109 93.6813 184.571 95.9746 185.636 98.5272L195.461 123.416C198.24 124.403 217.001 131.099 218.34 132.439C219.656 133.755 220.514 140.203 220.684 141.575C221.998 142.185 230.206 146.354 229.995 155.273C229.991 155.441 229.858 155.579 229.69 155.588C229.521 155.598 212.532 156.581 194.865 157.146C194.861 157.146 194.856 157.146 194.852 157.146C180.484 157.606 169.703 157.666 162.805 157.327C162.674 157.32 162.56 157.236 162.516 157.112C160.462 151.324 156.927 147.868 153.062 147.868C146.927 147.868 141.937 156.614 141.937 167.364C141.937 168.987 141.971 171.355 142.037 174.401C142.039 174.488 142.006 174.572 141.944 174.634C141.883 174.696 141.8 174.731 141.713 174.731L141.71 174.733ZM138.858 174.084H141.379C141.317 171.191 141.286 168.932 141.286 167.364C141.286 156.257 146.566 147.221 153.059 147.221C157.165 147.221 160.889 150.757 163.051 156.692C169.94 157.019 180.628 156.954 194.83 156.5C211.201 155.977 226.992 155.094 229.35 154.959C229.365 145.976 220.351 142.133 220.258 142.095C220.15 142.051 220.074 141.951 220.06 141.834C219.808 139.702 218.923 133.94 217.879 132.897C216.925 131.943 203.736 127.041 195.103 123.977C195.014 123.946 194.943 123.879 194.909 123.792L185.033 98.7719C184 96.2944 182.579 94.0659 180.812 92.1544C176.389 87.3703 167.887 81.5133 152.499 80.7867C151.831 80.7558 148.986 80.5436 145.048 80.2503C135.028 79.5045 116.375 78.1147 105.715 77.6313C102.073 77.4662 99.1563 77.758 97.9094 77.8833C97.8667 77.8877 97.8269 77.8921 97.7886 77.8951V152.95L138.384 153.558C138.559 153.561 138.701 153.704 138.702 153.88L138.855 174.086L138.858 174.084Z" fill="#00499B"/>
<path d="M225.766 145.523L225.127 146.039C223.999 146.945 223.29 148.273 223.163 149.713L223.015 151.385C222.922 152.44 223.788 153.33 224.845 153.264L229.527 152.973C229.059 149.749 227.476 147.295 225.765 145.522L225.766 145.523Z" fill="white"/>
<path d="M224.739 153.591C224.187 153.591 223.656 153.368 223.268 152.969C222.85 152.54 222.641 151.952 222.694 151.355L222.843 149.684C222.977 148.163 223.737 146.742 224.925 145.786L225.565 145.27C225.696 145.165 225.884 145.177 226.001 145.298C228.142 147.516 229.436 150.083 229.851 152.928C229.864 153.018 229.839 153.109 229.781 153.178C229.724 153.248 229.64 153.292 229.55 153.298L224.868 153.588C224.825 153.591 224.782 153.592 224.739 153.592V153.591ZM225.739 145.962L225.332 146.291C224.279 147.139 223.607 148.396 223.488 149.741L223.339 151.413C223.302 151.821 223.447 152.225 223.733 152.518C224.019 152.811 224.42 152.968 224.828 152.941L229.155 152.673C228.725 150.194 227.576 147.939 225.739 145.962Z" fill="#00499B"/>
<path d="M185.036 133.855L149.192 123.672L141.023 97.6445C140 94.3844 138.302 91.3631 135.984 88.8546C130.653 83.0875 119.427 75.7449 97.4668 77.599V153.267L138.212 153.702L138.536 174.141L141.708 174.599C141.651 171.927 141.611 169.183 141.611 167.364C141.611 156.418 146.737 147.545 153.06 147.545C157.188 147.545 160.806 151.33 162.821 157.004C170.799 157.396 183.018 157.202 194.841 156.823C195.991 156.786 198.277 156.708 198.277 156.708L190.513 138.663C189.504 136.318 187.494 134.554 185.039 133.855H185.036Z" fill="#00499B"/>
<path d="M186.974 135.002C186.919 135.002 186.863 134.988 186.811 134.957C186.226 134.617 185.599 134.352 184.949 134.167L149.105 123.985C149 123.955 148.918 123.874 148.884 123.77L140.715 97.7418C139.69 94.4802 137.973 91.4824 135.746 89.0742C132.233 85.2732 127.651 82.358 122.127 80.4096C121.957 80.3506 121.869 80.1649 121.929 79.9954C121.988 79.8274 122.174 79.739 122.342 79.7979C127.966 81.7817 132.635 84.7544 136.221 88.6335C138.513 91.1125 140.28 94.1943 141.332 97.5472L149.448 123.409L185.124 133.544C185.827 133.743 186.503 134.03 187.136 134.397C187.29 134.487 187.344 134.686 187.254 134.84C187.193 134.943 187.084 135 186.974 135V135.002Z" fill="#00499B"/>
<path d="M158.801 137.022C149.174 138.571 141.409 148.514 138.383 153.64L138.536 174.409L141.708 174.599C141.65 171.927 141.61 169.183 141.61 167.364C141.61 156.418 146.736 147.545 153.059 147.545C157.187 147.545 160.806 151.33 162.82 157.004C170.798 157.396 183.018 157.202 194.841 156.823C195.99 156.786 197.137 156.748 198.276 156.708C182.512 137.705 168.321 135.491 158.803 137.022H158.801Z" fill="white"/>
<path d="M141.708 174.923C141.708 174.923 141.695 174.923 141.689 174.923L138.517 174.733C138.347 174.723 138.213 174.583 138.212 174.412L138.059 153.643C138.059 153.584 138.073 153.526 138.103 153.476C139 151.955 147.207 138.561 158.748 136.704C164.587 135.764 170.498 136.492 176.316 138.866C183.915 141.967 191.388 147.901 198.522 156.503C198.602 156.599 198.62 156.73 198.568 156.842C198.518 156.954 198.407 157.03 198.284 157.034C197.149 157.074 196.007 157.112 194.861 157.149C194.857 157.149 194.853 157.149 194.848 157.149C180.48 157.609 169.699 157.669 162.801 157.33C162.67 157.323 162.557 157.239 162.512 157.115C160.458 151.327 156.924 147.871 153.058 147.871C146.924 147.871 141.933 156.617 141.933 167.367C141.933 169.085 141.97 171.787 142.031 174.595C142.032 174.685 141.997 174.772 141.932 174.835C141.871 174.892 141.79 174.925 141.708 174.925V174.923ZM138.859 174.104L141.376 174.256C141.319 171.572 141.286 169.016 141.286 167.366C141.286 156.259 146.567 147.223 153.059 147.223C157.165 147.223 160.89 150.758 163.052 156.694C169.94 157.021 180.629 156.956 194.83 156.502C195.757 156.472 196.683 156.442 197.603 156.409C185.165 141.621 172.132 135.207 158.854 137.344C147.777 139.126 139.793 151.911 138.71 153.728L138.86 174.105L138.859 174.104Z" fill="#00499B"/>
<path d="M142.795 124.697H127.984C127.806 124.697 127.66 124.552 127.66 124.372V106.355C127.66 106.176 127.805 106.031 127.984 106.031H138.841C139.835 106.031 140.712 106.701 140.972 107.661C141.812 110.754 143.703 118.078 144.755 122.169C144.913 122.779 144.78 123.414 144.394 123.912C144.008 124.411 143.424 124.697 142.793 124.697H142.795ZM128.307 124.048H142.795C143.224 124.048 143.62 123.854 143.884 123.515C144.146 123.176 144.236 122.744 144.129 122.33C143.281 119.037 141.218 111.034 140.347 107.83C140.163 107.152 139.544 106.679 138.841 106.679H128.309V124.05L128.307 124.048Z" fill="white"/>
<path d="M220.344 144.872C220.516 142.707 220.382 140.527 219.934 138.402C219.443 136.075 218.666 133.494 217.785 132.669C217.173 132.095 216.79 131.891 215.274 131.242H194.263C192.667 131.242 191.168 132.01 190.235 133.304C188.97 135.058 188.59 137.298 189.203 139.372L191.495 147.111C191.896 148.465 193.141 149.395 194.555 149.395H216.693C218.553 149.395 220.099 147.966 220.246 146.113L220.345 144.872H220.344Z" fill="white"/>
<path d="M216.692 149.719H194.553C193.007 149.719 191.622 148.685 191.183 147.202L188.891 139.463C188.253 137.31 188.656 134.935 189.97 133.114C190.962 131.739 192.565 130.918 194.26 130.918H215.271C215.315 130.918 215.358 130.926 215.398 130.944C216.891 131.584 217.342 131.812 218.003 132.431C219.087 133.447 219.875 136.565 220.248 138.334C220.7 140.477 220.84 142.685 220.664 144.895L220.565 146.136C220.406 148.144 218.703 149.718 216.689 149.718L216.692 149.719ZM194.261 131.566C192.774 131.566 191.367 132.287 190.496 133.494C189.299 135.155 188.931 137.317 189.513 139.28L191.805 147.019C192.163 148.228 193.293 149.072 194.553 149.072H216.692C218.37 149.072 219.79 147.762 219.922 146.088L220.021 144.847C220.192 142.696 220.056 140.551 219.617 138.47C219.017 135.628 218.249 133.548 217.563 132.906C217.006 132.384 216.69 132.203 215.206 131.568H194.261V131.566Z" fill="#00499B"/>
<path d="M131.158 117.428H127.465C126.778 117.428 126.221 116.871 126.221 116.184V106.707C126.221 105.87 126.899 105.19 127.737 105.19H130.77C131.865 105.19 132.753 106.078 132.753 107.173V115.833C132.753 116.713 132.039 117.426 131.16 117.426L131.158 117.428Z" fill="white"/>
<path d="M131.158 125.142H127.465C126.778 125.142 126.221 124.585 126.221 123.898V120.107C126.221 119.27 126.899 118.591 127.737 118.591H130.77C131.865 118.591 132.753 119.478 132.753 120.573V123.547C132.753 124.427 132.039 125.14 131.16 125.14L131.158 125.142Z" fill="white"/>
<path d="M171.956 177.032L223.07 174.634C225.822 174.504 228.06 172.37 228.318 169.628L229.67 155.267L162.818 157.006L166.055 172.463C166.634 175.228 169.135 177.165 171.958 177.032H171.956Z" fill="white"/>
<path d="M171.678 177.362C168.804 177.362 166.331 175.37 165.737 172.53L162.501 157.072C162.482 156.978 162.504 156.881 162.564 156.805C162.623 156.73 162.713 156.685 162.81 156.683L229.662 154.944C229.753 154.944 229.843 154.979 229.906 155.047C229.97 155.115 230.001 155.206 229.992 155.299L228.64 169.66C228.369 172.546 225.98 174.824 223.086 174.96L171.972 177.358C171.873 177.362 171.776 177.365 171.678 177.365V177.362ZM163.216 157.318L166.373 172.396C166.922 175.019 169.263 176.83 171.942 176.708L223.056 174.31C225.631 174.189 227.755 172.163 227.996 169.595L229.314 155.598L163.216 157.318Z" fill="#00499B"/>
<path d="M189.068 123.32C189.047 123.32 189.027 123.32 189.005 123.32L154.128 122.299C152.72 122.257 151.507 121.321 151.111 119.971L146.778 105.218C146.603 104.62 146.723 103.995 147.11 103.506C147.496 103.016 148.073 102.757 148.698 102.787L182.328 103.525C183.764 103.556 185.018 104.446 185.522 105.79L191.009 120.419C191.282 121.069 191.205 121.818 190.798 122.409C190.405 122.982 189.761 123.32 189.068 123.32ZM147.401 105.034L151.734 119.787C152.051 120.869 153.023 121.618 154.149 121.65L189.025 122.671C189.522 122.689 189.985 122.45 190.266 122.042C190.548 121.632 190.601 121.117 190.409 120.658L184.918 106.017C184.506 104.922 183.487 104.197 182.316 104.172L148.678 103.434C148.256 103.41 147.876 103.584 147.622 103.907C147.367 104.229 147.288 104.641 147.404 105.034H147.401Z" fill="#00499B"/>
<path d="M162.429 116.456H150.325C150.18 116.456 150.055 116.362 150.014 116.224L146.782 105.217C146.606 104.619 146.727 103.995 147.113 103.506C147.5 103.017 148.077 102.756 148.702 102.787L182.332 103.525C183.768 103.556 185.022 104.446 185.526 105.79L186.952 109.596C186.989 109.696 186.976 109.807 186.916 109.893C186.855 109.98 186.756 110.033 186.649 110.033H177.912C175.078 110.033 172.413 111.137 170.409 113.142C168.264 115.286 165.438 116.458 162.429 116.458V116.456ZM150.567 115.808H162.429C165.264 115.808 167.928 114.704 169.933 112.7C172.077 110.555 174.904 109.384 177.912 109.384H186.182L184.919 106.016C184.507 104.921 183.488 104.196 182.317 104.171L148.679 103.432C148.26 103.412 147.877 103.583 147.622 103.905C147.367 104.228 147.287 104.639 147.404 105.033L150.568 115.806L150.567 115.808Z" fill="#00499B"/>
<path d="M189.068 123.32C189.047 123.32 189.027 123.32 189.005 123.32L154.128 122.299C152.72 122.257 151.507 121.321 151.111 119.971L146.778 105.218C146.603 104.62 146.723 103.995 147.11 103.506C147.496 103.016 148.073 102.757 148.698 102.787L182.328 103.525C183.764 103.556 185.018 104.446 185.522 105.79L191.009 120.419C191.282 121.069 191.205 121.818 190.798 122.409C190.405 122.982 189.761 123.32 189.068 123.32ZM147.401 105.034L151.734 119.787C152.051 120.869 153.023 121.618 154.149 121.65L189.025 122.671C189.522 122.689 189.985 122.45 190.266 122.042C190.548 121.632 190.601 121.117 190.409 120.658L184.918 106.017C184.506 104.922 183.487 104.197 182.316 104.172L148.678 103.434C148.256 103.41 147.876 103.584 147.622 103.907C147.367 104.229 147.288 104.641 147.404 105.034H147.401Z" fill="#00499B"/>
<path d="M189.903 152.615L184.198 148.956C181.757 147.389 178.917 146.558 176.017 146.558H174.623C172.623 146.558 171 148.179 171 150.18V150.256C171 152.443 172.773 154.216 174.96 154.216H189.435C190.301 154.216 190.633 153.085 189.903 152.617V152.615Z" fill="white"/>
<path d="M189.435 154.537H174.962C172.6 154.537 170.678 152.615 170.678 150.253V150.177C170.678 148.002 172.448 146.232 174.625 146.232H176.019C178.987 146.232 181.877 147.08 184.375 148.682L190.081 152.341C190.538 152.634 190.734 153.161 190.58 153.681C190.427 154.201 189.979 154.537 189.437 154.537H189.435ZM174.623 146.881C172.804 146.881 171.325 148.36 171.325 150.179V150.254C171.325 152.259 172.956 153.89 174.961 153.89H189.434C189.734 153.89 189.901 153.688 189.955 153.5C190.011 153.309 189.98 153.05 189.727 152.888L184.022 149.228C181.628 147.693 178.859 146.881 176.016 146.881H174.622H174.623Z" fill="#00499B"/>
<path d="M141.71 174.733H138.537C138.359 174.733 138.214 174.59 138.213 174.412L138.059 154.201L97.4629 153.592C97.286 153.589 97.1445 153.445 97.1445 153.268V77.6003C97.1445 77.4323 97.2728 77.2923 97.4408 77.2776C97.5395 77.2687 97.6751 77.2555 97.8476 77.2378C99.1077 77.111 102.057 76.8148 105.746 76.9828C116.416 77.4677 135.073 78.856 145.098 79.6033C149.031 79.8966 151.871 80.1073 152.531 80.1383C168.139 80.8767 176.786 86.8412 181.29 91.7137C183.109 93.6813 184.571 95.9746 185.636 98.5272L195.461 123.417C198.208 124.403 216.71 131.074 218.021 132.444C220.178 134.701 220.626 140.416 220.697 141.582C222.053 142.213 230.206 146.384 229.995 155.274C229.991 155.442 229.858 155.581 229.69 155.589C229.521 155.6 212.532 156.583 194.865 157.147C194.861 157.147 194.856 157.147 194.852 157.147C180.484 157.607 169.703 157.668 162.805 157.329C162.674 157.321 162.56 157.237 162.516 157.113C160.462 151.326 156.927 147.87 153.062 147.87C146.927 147.87 141.937 156.615 141.937 167.365C141.937 168.988 141.971 171.356 142.037 174.403C142.039 174.49 142.006 174.574 141.944 174.636C141.883 174.698 141.8 174.733 141.713 174.733H141.71ZM138.858 174.084H141.379C141.317 171.191 141.286 168.932 141.286 167.364C141.286 156.257 146.566 147.221 153.059 147.221C157.165 147.221 160.889 150.757 163.051 156.692C169.94 157.019 180.628 156.954 194.83 156.5C211.201 155.977 226.992 155.094 229.35 154.959C229.365 145.976 220.351 142.133 220.258 142.095C220.141 142.046 220.063 141.936 220.059 141.811C220.056 141.744 219.74 135.183 217.552 132.892C216.622 131.92 203.617 127.028 195.104 123.979C195.016 123.948 194.946 123.88 194.912 123.793L185.036 98.7733C184.003 96.2958 182.582 94.0674 180.815 92.1558C176.392 87.3718 167.89 81.5148 152.502 80.7882C151.834 80.7573 148.989 80.545 145.051 80.2517C135.031 79.506 116.378 78.1162 105.718 77.6328C102.076 77.4677 99.1593 77.7595 97.9124 77.8848C97.8697 77.8892 97.8299 77.8936 97.7915 77.8966V152.951L138.387 153.56C138.562 153.563 138.704 153.706 138.705 153.881L138.858 174.087V174.084Z" fill="#00499B"/>
<path d="M194.815 136.421C194.638 136.421 194.493 136.279 194.49 136.103C194.487 135.924 194.63 135.777 194.809 135.774L214.095 135.45H214.101C214.278 135.45 214.422 135.591 214.425 135.768C214.428 135.946 214.285 136.094 214.107 136.097L194.82 136.421H194.815Z" fill="#00499B"/>
<path d="M194.815 140.642C194.638 140.642 194.493 140.501 194.49 140.324C194.487 140.145 194.63 139.998 194.809 139.995L216.038 139.671H216.042C216.219 139.671 216.363 139.812 216.366 139.989C216.369 140.168 216.226 140.315 216.048 140.318L194.819 140.642H194.815Z" fill="#00499B"/>
<path d="M199.024 144.863C198.848 144.863 198.704 144.723 198.699 144.546C198.695 144.368 198.838 144.219 199.016 144.214L214.09 143.89C214.261 143.884 214.418 144.029 214.422 144.207C214.427 144.385 214.284 144.534 214.105 144.539L199.031 144.863H199.024Z" fill="#00499B"/>
<path d="M117.468 146.881H105.574C105.396 146.881 105.25 146.736 105.25 146.556V133.209C105.25 133.031 105.394 132.885 105.574 132.885H117.468C117.646 132.885 117.792 133.03 117.792 133.209V146.556C117.792 146.735 117.648 146.881 117.468 146.881ZM105.898 146.232H117.145V133.534H105.898V146.232Z" fill="white"/>
<path d="M32.4761 121.961C32.4761 121.961 21.1955 121.161 22.1756 115.125C23.1557 109.09 30.8896 105.357 36.3425 104.374C41.7954 103.392 59.047 109.484 51.8094 115.771C44.5717 122.06 32.475 121.961 32.475 121.961H32.4761Z" fill="#003F85"/>
<path d="M48.8848 169.867L50.5107 180.263L55.2648 180.861L53.832 169.433L48.8848 169.867Z" fill="white"/>
<path d="M55.2652 181.089C55.2558 181.089 55.2465 181.089 55.2372 181.087L50.482 180.488C50.3813 180.476 50.3013 180.398 50.2847 180.297L48.6588 169.901C48.6495 169.839 48.6661 169.776 48.7045 169.726C48.7439 169.676 48.801 169.645 48.8644 169.64L53.8116 169.206C53.9352 169.194 54.0432 169.283 54.0577 169.405L55.4915 180.832C55.4998 180.902 55.476 180.972 55.4261 181.022C55.3836 181.065 55.3254 181.089 55.2652 181.089ZM50.7093 180.058L55.0025 180.598L53.6331 169.679L49.1489 170.073L50.7104 180.058H50.7093Z" fill="#003F85"/>
<path d="M49.4067 179.318C49.2676 180.31 49.0423 182.15 49.0236 183.799C49.0121 184.836 49.7856 185.709 50.8073 185.841C53.6957 186.213 60.2471 186.621 65.8287 186.112C66.2108 186.076 66.8867 185.797 67.0746 184.838C67.7059 181.616 62.1336 180.827 56.0245 178.49C55.7847 178.399 55.5147 178.452 55.3299 178.632L54.6716 179.274C54.0124 179.915 53.0343 180.098 52.1902 179.736L50.1864 178.876C49.8448 178.73 49.4596 178.949 49.4077 179.318H49.4067Z" fill="white"/>
<path d="M60.0143 186.581C56.2621 186.581 52.7611 186.323 50.7791 186.067C49.6359 185.92 48.7835 184.944 48.797 183.796C48.8157 182.123 49.0462 180.252 49.1822 179.286C49.2175 179.038 49.3618 178.825 49.5788 178.704C49.7948 178.582 50.0492 178.569 50.2765 178.666L52.2804 179.526C53.0414 179.852 53.9177 179.689 54.5126 179.111L55.1709 178.469C55.4169 178.23 55.7834 178.154 56.1053 178.278C57.5318 178.823 58.9023 179.276 60.2282 179.713C64.4705 181.112 67.8209 182.218 67.2987 184.882C67.1035 185.878 66.3964 186.29 65.8493 186.34C63.9534 186.513 61.9496 186.582 60.0133 186.582L60.0143 186.581ZM49.4075 179.318L49.6339 179.351C49.4999 180.306 49.2715 182.154 49.2528 183.803C49.2424 184.718 49.9235 185.497 50.8372 185.615C53.8232 186.001 60.2728 186.391 65.8077 185.885C65.9489 185.873 66.6612 185.76 66.8501 184.794C67.2956 182.524 64.2711 181.527 60.0849 180.146C58.7539 179.707 57.3782 179.253 55.9423 178.704C55.7855 178.644 55.608 178.68 55.4886 178.796L54.8303 179.438C54.1025 180.146 53.031 180.345 52.0997 179.945L50.0959 179.086C50.0004 179.045 49.8934 179.05 49.8021 179.101C49.7097 179.153 49.6484 179.245 49.6328 179.351L49.4065 179.318H49.4075Z" fill="#003F85"/>
<path d="M49.0277 183.551C49.0277 183.551 49.0246 183.719 49.0236 183.8C49.0121 184.836 49.7856 185.709 50.8073 185.841C53.6957 186.213 60.2471 186.622 65.8287 186.112C66.2108 186.076 66.8867 185.797 67.0746 184.838C67.1327 184.544 67.0964 184.013 67.0964 184.013L66.7008 184.033C61.061 184.313 55.4098 184.176 49.7898 183.626L49.0288 183.551H49.0277Z" fill="white"/>
<path d="M60.0143 186.581C56.2621 186.581 52.7611 186.324 50.7791 186.067C49.6359 185.92 48.7835 184.944 48.797 183.796C48.797 183.715 48.8012 183.546 48.8012 183.546C48.8022 183.483 48.8303 183.423 48.878 183.38C48.9258 183.338 48.9891 183.318 49.0514 183.324L49.8124 183.399C55.4024 183.947 61.0806 184.084 66.6903 183.805L67.0858 183.785C67.2063 183.781 67.3163 183.873 67.3246 183.998C67.3267 184.021 67.361 184.562 67.2987 184.881C67.1035 185.877 66.3964 186.289 65.8493 186.339C63.9534 186.512 61.9496 186.581 60.0133 186.581H60.0143ZM49.2528 183.803C49.2424 184.717 49.9235 185.497 50.8372 185.614C53.8232 186 60.2728 186.39 65.8077 185.884C65.9489 185.872 66.6612 185.759 66.8501 184.793C66.8782 184.652 66.8813 184.429 66.8782 184.252L66.7121 184.261C61.0806 184.54 55.3795 184.403 49.7678 183.852L49.2528 183.802V183.803Z" fill="#003F85"/>
<path d="M57.4252 182.196C57.367 182.196 57.3089 182.175 57.2642 182.13C57.1749 182.042 57.1749 181.896 57.2642 181.807L59.4082 179.651C59.4975 179.561 59.6418 179.561 59.7311 179.651C59.8204 179.739 59.8204 179.884 59.7311 179.973L57.5871 182.13C57.5425 182.175 57.4843 182.197 57.4252 182.197V182.196Z" fill="#003F85"/>
<path d="M59.5312 182.421C59.4741 182.421 59.418 182.4 59.3734 182.357C59.282 182.27 59.2789 182.126 59.3661 182.034L61.0792 180.244C61.1665 180.153 61.3108 180.15 61.4021 180.237C61.4935 180.324 61.4966 180.469 61.4094 180.56L59.6963 182.35C59.6516 182.397 59.5914 182.421 59.5312 182.421Z" fill="#003F85"/>
<path d="M26.8125 171.783L26.0266 180.223H22.6211L22.6813 171.922L26.8125 171.783Z" fill="white"/>
<path d="M26.0265 180.451H22.621C22.5597 180.451 22.5016 180.427 22.459 180.384C22.4165 180.341 22.3926 180.282 22.3926 180.222L22.4528 171.921C22.4528 171.798 22.5514 171.699 22.6729 171.695L26.8041 171.555C26.8685 171.548 26.9329 171.579 26.9775 171.627C27.0221 171.675 27.045 171.739 27.0388 171.805L26.2518 180.246C26.2403 180.363 26.1427 180.452 26.0244 180.452L26.0265 180.451ZM22.8504 179.994H25.8178L26.5612 172.019L22.9076 172.141L22.8504 179.993V179.994Z" fill="#003F85"/>
<path d="M22.2618 188.439C20.7263 188.184 19.8604 187.075 19.8136 186.119C19.6735 183.278 20.4189 180.579 21.8175 178.746C21.9701 178.546 22.2753 178.564 22.4093 178.777L22.4456 178.81C22.6865 179.031 23.0457 179.015 23.2938 178.804C23.4994 178.628 23.7621 178.524 24.0435 178.52L24.4338 178.515C24.872 178.509 25.3049 178.755 25.5344 179.123C25.6413 179.295 25.8874 179.304 26.0203 179.153L26.2414 178.903C26.392 178.758 26.6422 178.861 26.6484 179.07L26.8883 186.842C26.772 188.363 24.2698 188.772 22.2597 188.44L22.2618 188.439Z" fill="white"/>
<path d="M23.5757 188.773C23.1085 188.773 22.6465 188.733 22.225 188.664C20.5607 188.389 19.6377 187.181 19.5857 186.132C19.4425 183.245 20.19 180.504 21.6363 178.609C21.7526 178.457 21.9374 178.367 22.1284 178.38C22.3112 178.388 22.4783 178.48 22.5842 178.627L22.6008 178.643C22.7493 178.779 22.9798 178.773 23.1469 178.63C23.3961 178.417 23.7138 178.297 24.0409 178.292L24.4313 178.286C24.9452 178.29 25.4529 178.561 25.7291 179.002C25.7395 179.018 25.7561 179.028 25.7779 179.03C25.8059 179.033 25.8319 179.022 25.8506 179.001L26.0717 178.751C26.2191 178.607 26.4112 178.57 26.5846 178.641C26.759 178.711 26.8712 178.873 26.8774 179.062L27.1172 186.833C27.1172 186.842 27.1172 186.85 27.1172 186.858C27.0819 187.318 26.8618 187.711 26.4631 188.023C25.78 188.559 24.6649 188.773 23.5757 188.773ZM22.1014 178.835C22.0755 178.835 22.0319 178.842 21.9986 178.886C20.6167 180.696 19.9034 183.328 20.0405 186.109C20.0831 186.977 20.8732 187.979 22.2987 188.214C23.8457 188.47 25.4425 188.244 26.1818 187.665C26.4725 187.437 26.6334 187.158 26.6614 186.835L26.4216 179.078L26.406 179.063L26.1911 179.305C26.0779 179.433 25.9087 179.501 25.7395 179.486C25.5733 179.472 25.428 179.384 25.3408 179.245C25.1508 178.941 24.7863 178.751 24.4365 178.744L24.0461 178.75C23.8249 178.753 23.611 178.834 23.4418 178.978C23.0971 179.273 22.6122 179.274 22.2914 178.98L22.2541 178.946C22.2395 178.932 22.226 178.917 22.2146 178.899C22.1803 178.844 22.1274 178.837 22.1056 178.836H22.0994L22.1014 178.835Z" fill="#003F85"/>
<path d="M26.8257 184.762C26.7821 184.932 26.7105 185.095 26.6087 185.238C26.263 185.722 25.3192 186.671 23.3019 186.506C20.9129 186.311 19.8186 184.637 19.8186 184.637C19.7895 185.124 19.7874 185.619 19.8113 186.118C19.8591 187.073 20.7239 188.183 22.2595 188.437C24.2696 188.77 26.7717 188.362 26.888 186.84L26.8237 184.761L26.8257 184.762Z" fill="white"/>
<path d="M23.5755 188.773C23.1083 188.773 22.6463 188.733 22.2247 188.664C20.5604 188.389 19.6374 187.181 19.5855 186.132C19.5606 185.629 19.5627 185.122 19.5928 184.626C19.599 184.527 19.6665 184.444 19.762 184.418C19.8575 184.393 19.9582 184.432 20.0112 184.514C20.0216 184.529 21.0806 186.096 23.3222 186.28C25.1848 186.436 26.0652 185.609 26.4245 185.106C26.5065 184.992 26.5667 184.857 26.6062 184.706C26.6342 184.596 26.7391 184.524 26.8522 184.536C26.9654 184.548 27.0516 184.642 27.0547 184.756L27.1191 186.834C27.1191 186.843 27.1191 186.851 27.1191 186.859C27.0838 187.319 26.8637 187.712 26.465 188.024C25.7818 188.56 24.6667 188.774 23.5776 188.774L23.5755 188.773ZM20.0257 185.239C20.0216 185.528 20.0257 185.819 20.0403 186.108C20.0828 186.976 20.8729 187.978 22.2985 188.213C23.8455 188.469 25.4423 188.243 26.1815 187.664C26.4722 187.436 26.6332 187.157 26.6612 186.834L26.6228 185.585C26.168 186.102 25.1578 186.885 23.2838 186.734C21.6132 186.597 20.5521 185.777 20.0257 185.238V185.239Z" fill="#003F85"/>
<path d="M25.1804 182.835H22.4061C22.2805 182.835 22.1777 182.733 22.1777 182.607C22.1777 182.48 22.2795 182.378 22.4061 182.378H25.1804C25.306 182.378 25.4088 182.48 25.4088 182.607C25.4088 182.733 25.307 182.835 25.1804 182.835Z" fill="#003F85"/>
<path d="M25.4675 181.427H22.6933C22.5676 181.427 22.4648 181.325 22.4648 181.199C22.4648 181.072 22.5666 180.97 22.6933 180.97H25.4675C25.5931 180.97 25.6959 181.072 25.6959 181.199C25.6959 181.325 25.5941 181.427 25.4675 181.427Z" fill="#003F85"/>
<path d="M50.738 107.417C50.738 107.417 56.9914 148.792 55.7113 176.059L49.0239 176.231C49.0239 176.231 41.5962 134.392 38.0184 127.514C38.0184 127.514 28.0294 165.846 27.6546 175.825L21.6047 175.641C21.6047 175.641 20.6848 154.441 20.6381 148.182C20.5052 130.27 22.2329 122.135 23.1797 118.275C24.0488 114.731 24.9821 111.851 25.6632 109.903L27.9391 103.471L50.738 107.417Z" fill="#003F85"/>
<path d="M37.929 129.407C37.9104 129.407 37.8917 129.405 37.874 129.4C37.7515 129.37 37.6778 129.246 37.7079 129.123L38.8417 124.578C39.176 123.308 40.1862 122.35 41.4778 122.076L42.1973 121.923C42.3208 121.897 42.4413 121.976 42.4683 122.098C42.4942 122.222 42.4153 122.342 42.2928 122.369L41.5733 122.522C40.451 122.761 39.5747 123.591 39.285 124.691L38.1523 129.233C38.1263 129.337 38.0339 129.407 37.9311 129.407H37.929Z" fill="white"/>
<path d="M8.33094 59.9757C8.33094 59.9757 7.51902 55.4281 7.23039 54.2082C6.90334 52.8211 9.08678 54.0929 9.88001 58.3799L8.33094 59.9757Z" fill="white"/>
<path d="M8.33154 60.2041C8.30974 60.2041 8.2869 60.201 8.2651 60.1937C8.18307 60.1688 8.12182 60.1003 8.10728 60.0162C8.09898 59.9705 7.29225 55.4603 7.00985 54.2601C6.93198 53.9289 6.9704 53.6891 7.12406 53.5489C7.19362 53.4845 7.34936 53.3911 7.60373 53.4762C8.31389 53.715 9.55876 55.3814 10.1059 58.3373C10.1194 58.41 10.0966 58.4847 10.0457 58.5377L8.49663 60.1335C8.45302 60.1781 8.39384 60.2031 8.33258 60.2031L8.33154 60.2041ZM7.43138 53.8998C7.42411 53.9331 7.41892 54.0099 7.45318 54.1563C7.68887 55.1582 8.2651 58.3238 8.4769 59.4981L9.63351 58.3062C9.04171 55.2433 7.75739 53.9372 7.43034 53.8998H7.43138Z" fill="#003F85"/>
<path d="M24.5534 83.2979C24.5534 83.2979 26.2208 78.3517 23.9377 74.7645C23.0531 73.3743 16.0459 80.7262 15.5839 79.4543C13.74 74.371 12.3581 67.0327 12.33 66.5987C12.1847 64.3124 12.5782 65.2905 13.3693 62.9959C14.1605 60.7004 13.2375 58.6322 12.7848 58.3809C12.3321 58.1296 11.6157 58.8201 11.6157 58.8201C11.6157 58.8201 11.2451 57.4662 10.4311 57.4268C10.0044 57.406 9.89534 57.8348 9.61501 58.1151L8.49058 59.2977C8.37014 59.4243 8.24763 59.55 8.11993 59.6694C7.90293 59.8698 7.42222 60.3899 7.48867 61.0015C7.55408 61.5974 8.49266 63.6625 8.94222 64.627C9.09588 64.9572 9.18102 65.3133 9.1914 65.6767C9.20075 66.0017 9.09692 67.367 9.02217 68.291C8.76364 69.784 8.5726 89.0508 14.0888 90.9176C16.6201 91.7742 24.5534 83.2969 24.5534 83.2969V83.2979Z" fill="white"/>
<path d="M14.4744 91.2042C14.3093 91.2042 14.1556 91.1814 14.0155 91.1347C11.5995 90.3165 9.96734 86.3992 9.16373 79.4907C8.56362 74.3368 8.65811 69.0614 8.79827 68.2526C8.91144 66.8427 8.97166 65.9228 8.96439 65.683C8.95505 65.3507 8.87821 65.0278 8.73597 64.7236C8.09849 63.3583 7.32603 61.6089 7.26166 61.0264C7.18275 60.309 7.72679 59.7213 7.96455 59.5023C8.09226 59.3839 8.21373 59.2583 8.32483 59.1409L9.44821 57.9584C9.52401 57.8826 9.58423 57.7964 9.6486 57.705C9.81368 57.4704 10.0203 57.1828 10.4408 57.1994C11.1343 57.2337 11.5413 57.9885 11.722 58.436C12.0179 58.2211 12.4986 57.9615 12.8952 58.1826C13.5036 58.5211 14.3955 60.7181 13.5846 63.0718C13.2679 63.9906 13.0136 64.3987 12.8267 64.6966C12.5692 65.1088 12.4726 65.2635 12.5567 66.5852C12.5837 67.0109 13.9418 74.2631 15.7971 79.3775C16.1325 79.5031 17.9245 78.0932 19.1102 77.1608C21.3673 75.3875 22.904 74.2371 23.7128 74.3731C23.8913 74.4032 24.0346 74.4977 24.1281 74.6431C26.4423 78.2801 24.8372 83.1661 24.7676 83.3717C24.7572 83.4028 24.7406 83.4308 24.7178 83.4547C23.9401 84.2864 17.3763 91.2053 14.4723 91.2053L14.4744 91.2042ZM10.4013 57.6531C10.257 57.6531 10.1802 57.7424 10.0234 57.9656C9.95384 58.0643 9.87494 58.1764 9.7763 58.2761L8.65603 59.4545C8.53974 59.577 8.41204 59.7089 8.27499 59.8355C8.08811 60.0079 7.65931 60.4647 7.71537 60.9755C7.75898 61.3701 8.29472 62.699 9.1492 64.5295C9.31739 64.8908 9.40876 65.2749 9.42018 65.6695C9.42953 65.9976 9.33297 67.286 9.24991 68.3087C8.93843 70.1111 8.93013 88.9305 14.1619 90.7017C16.1107 91.3631 22.144 85.5323 24.3513 83.1785C24.5081 82.675 25.8266 78.1576 23.7449 74.886C23.7273 74.858 23.7024 74.832 23.638 74.8206C22.9673 74.7075 20.9873 76.2648 19.3936 77.518C17.3919 79.091 16.2311 79.9745 15.6642 79.8105C15.5251 79.771 15.4202 79.6713 15.3694 79.5312C13.5005 74.3783 12.13 67.0441 12.103 66.6122C12.0137 65.2147 12.1207 64.9666 12.4405 64.4526C12.6149 64.1734 12.8537 63.7902 13.1537 62.9202C13.9034 60.7451 13.0291 58.7765 12.6741 58.5793C12.4674 58.464 12.0148 58.7526 11.7739 58.9831C11.7158 59.0382 11.6327 59.06 11.5548 59.0382C11.477 59.0174 11.4167 58.9561 11.3949 58.8793C11.3036 58.5471 10.9485 57.6791 10.419 57.6531C10.4128 57.6531 10.4065 57.6531 10.4003 57.6531H10.4013Z" fill="#003F85"/>
<path d="M10.1177 63.1341C9.98999 63.1341 9.87371 63.1112 9.77404 63.0718C9.42207 62.9326 9.22065 62.5838 9.24868 62.1602C9.3089 61.2611 9.85087 60.7232 9.87475 60.7004C9.96507 60.6132 10.1094 60.6142 10.1976 60.7045C10.2859 60.7949 10.2838 60.9392 10.1935 61.0274C10.1893 61.0306 9.75327 61.4718 9.70447 62.1903C9.68994 62.4156 9.77611 62.5817 9.94223 62.6471C10.2059 62.752 10.6825 62.6004 11.1508 62.0262C11.9814 61.0088 11.3761 58.816 11.3698 58.7942C11.3356 58.6727 11.4062 58.5471 11.5276 58.5128C11.6502 58.4796 11.7747 58.5491 11.809 58.6706C11.837 58.7703 12.4849 61.1136 11.5048 62.3159C11.0106 62.9212 10.5102 63.1351 10.1187 63.1351L10.1177 63.1341Z" fill="#003F85"/>
<path d="M20.7825 91.6507C24.8234 88.6211 29.7904 85.6839 29.7904 85.6839L27.0618 71.8772C27.0618 71.8772 21.8 74.0835 18.1484 77.5326L20.7814 91.6507H20.7825Z" fill="white"/>
<path d="M20.7831 91.8791C20.7551 91.8791 20.7271 91.8739 20.7001 91.8635C20.6263 91.8355 20.5734 91.7701 20.5589 91.6932L17.9259 77.5751C17.9113 77.4993 17.9373 77.4204 17.9933 77.3674C21.6324 73.9298 26.9223 71.6892 26.9753 71.6674C27.0386 71.6405 27.1102 71.6436 27.1704 71.6768C27.2307 71.71 27.2732 71.7671 27.2867 71.8336L30.0153 85.6402C30.0339 85.7357 29.9914 85.8313 29.9073 85.8811C29.8574 85.9102 24.9039 88.8474 20.9202 91.8344C20.8797 91.8645 20.8319 91.8801 20.7831 91.8801V91.8791ZM18.3972 77.6135L20.9399 91.2489C24.5104 88.6044 28.7237 86.0566 29.5356 85.5696L26.8932 72.2001C25.8072 72.686 21.512 74.7095 18.3962 77.6135H18.3972Z" fill="#003F85"/>
<path d="M63.1163 89.5202C59.0755 86.4906 54.1895 85.3018 54.1895 85.3018L55.6482 76.5555C55.6482 76.5555 63.1163 81.5194 66.2685 86.8529L63.1163 89.5202Z" fill="white"/>
<path d="M63.1163 89.7476C63.0685 89.7476 63.0197 89.732 62.9792 89.7019C59.0214 86.7346 54.1842 85.5343 54.1354 85.5229C54.0191 85.4949 53.9444 85.3817 53.9641 85.2634L55.4228 76.5171C55.4353 76.4403 55.4862 76.3759 55.5568 76.3458C55.6274 76.3147 55.7094 76.3219 55.7738 76.3645C55.8485 76.4143 63.3219 81.4187 66.4636 86.7366C66.5207 86.8321 66.4999 86.9547 66.4148 87.0273L63.2627 89.6946C63.2201 89.7309 63.1682 89.7486 63.1152 89.7486L63.1163 89.7476ZM54.449 85.1336C55.4124 85.3962 59.5738 86.6307 63.1069 89.2284L65.9725 86.8031C63.19 82.2317 57.2055 77.9125 55.8143 76.9449L54.4479 85.1336H54.449Z" fill="#003F85"/>
<path d="M55.3027 90.0589C51.2618 87.0293 47.8086 86.4749 47.8086 86.4749L50.5371 72.6682C50.5371 72.6682 55.799 74.8745 59.4505 78.3236L55.3037 90.0579L55.3027 90.0589Z" fill="white"/>
<path d="M55.303 90.2874C55.2542 90.2874 55.2064 90.2718 55.1659 90.2417C51.2164 87.2806 47.8058 86.7065 47.7725 86.7013C47.7113 86.6919 47.6573 86.6566 47.621 86.6068C47.5857 86.5559 47.5722 86.4926 47.5846 86.4324L50.3131 72.6257C50.3266 72.5582 50.3692 72.5011 50.4294 72.4689C50.4896 72.4367 50.5613 72.4326 50.6246 72.4596C50.6776 72.4814 55.9664 74.7219 59.6065 78.1596C59.6719 78.2219 59.6948 78.3164 59.6647 78.4015L55.5179 90.1358C55.494 90.2043 55.438 90.2573 55.3684 90.2781C55.3466 90.2843 55.3248 90.2874 55.3019 90.2874H55.303ZM48.0768 86.2953C48.9053 86.4708 51.8051 87.2225 55.1908 89.6925L59.185 78.389C56.0692 75.4923 51.7895 73.4771 50.7056 72.9922L48.0768 86.2953Z" fill="#003F85"/>
<path d="M25.1543 72.199L27.0564 93.1208L44.7004 92.9578C44.7004 92.9578 55.057 75.5016 46.6347 70.3633C39.9712 68.3896 30.4182 69.1455 25.1543 72.199Z" fill="white"/>
<path d="M27.0582 93.3492C26.9398 93.3492 26.8412 93.2599 26.8308 93.1415L24.9287 72.2197C24.9204 72.1315 24.9651 72.0463 25.0419 72.0017C30.3349 68.9316 39.8494 68.1165 46.7019 70.1453C46.7206 70.1505 46.7393 70.1588 46.7559 70.1692C50.2984 72.3298 51.0906 76.9936 49.0463 83.655C47.52 88.6303 44.9244 93.0315 44.8984 93.0751C44.858 93.1436 44.7842 93.1862 44.7043 93.1872L27.0603 93.3502H27.0582V93.3492ZM25.3959 72.3246L27.2658 92.8913L44.5693 92.7314C45.4228 91.2446 54.2884 75.3459 46.542 70.5751C39.9636 68.6377 30.529 69.4237 25.3959 72.3256V72.3246Z" fill="#003F85"/>
<path d="M34.3536 59.524L33.6092 69.1933C33.3154 72.1886 39.8647 72.8988 39.8834 68.6565L39.5823 60.2197L34.3547 59.524H34.3536Z" fill="white"/>
<path d="M36.678 71.8709C35.8765 71.8709 35.0708 71.6549 34.4385 71.2313C33.6775 70.7215 33.3037 69.9906 33.3837 69.1714L34.1281 59.5064C34.1333 59.4441 34.1634 59.3859 34.2122 59.3465C34.261 59.307 34.3243 59.2894 34.3856 59.2977L39.6132 59.9933C39.7232 60.0078 39.8073 60.1002 39.8115 60.2113L40.1126 68.6482C40.1074 69.9096 39.5446 70.896 38.5272 71.4359C37.979 71.7276 37.3301 71.8709 36.678 71.8709ZM34.5642 59.7825L33.8384 69.2109C33.7574 70.0405 34.2579 70.5606 34.6929 70.8513C35.6917 71.521 37.248 71.5989 38.3143 71.033C38.9238 70.7101 39.6505 70.0342 39.6568 68.6565L39.3629 60.4211L34.5652 59.7825H34.5642Z" fill="#003F85"/>
<path d="M44.2236 50.4321C42.5417 50.0458 44.3856 52.1379 38.4115 49.2557C36.0318 48.1084 36.8115 51.2107 36.1938 50.9148C33.9117 49.8216 33.2856 49.5464 32.0636 49.6523C31.2548 49.7219 29.36 50.9595 29.442 52.0382C29.712 55.5569 31.3773 54.9215 31.912 58.0424C32.2879 60.2342 32.7686 60.963 33.5556 61.4074C34.3519 61.857 35.1659 60.8384 36.0723 61.2641C37.2455 61.8154 36.6475 63.8816 37.6992 64.9593C38.3617 65.6383 40.0758 66.1937 43.12 65.3164C43.6131 65.1742 43.9339 64.7018 43.881 64.192C43.8125 63.54 43.7221 62.7156 43.5695 61.9359C42.8407 58.2179 41.7162 57.2139 42.3236 56.3864C43.2549 55.1187 45.7727 56.3646 46.4029 55.3004C47.058 54.1947 46.5265 50.9605 44.2236 50.4321Z" fill="#003F85"/>
<path d="M37.2871 55.4405L37.6225 56.4206C37.7803 56.8826 37.9059 57.3529 37.9983 57.8316C38.1717 58.7286 38.5299 60.258 38.7209 61.1207C39.3356 63.8929 43.038 61.5921 43.038 61.5921L43.3827 60.9162L43.8457 60.8155C43.935 60.7958 44.0212 60.7584 44.0887 60.6961C44.2579 60.5424 44.2974 60.3078 44.2081 60.1147C43.7201 59.0577 42.7255 56.703 42.5614 54.7127C42.5614 54.7127 39.9139 53.5353 37.2881 55.4405H37.2871Z" fill="white"/>
<path d="M40.3601 62.7156C40.0746 62.7156 39.7963 62.6719 39.543 62.565C39.0041 62.3387 38.6522 61.8694 38.4975 61.1706C38.4445 60.9329 38.3791 60.6432 38.3085 60.3317C38.1268 59.5281 37.8994 58.5283 37.7738 57.8752C37.6835 57.4091 37.5599 56.945 37.4063 56.4944L37.0709 55.5142C37.0387 55.4198 37.0709 55.3149 37.1529 55.2557C39.8534 53.2955 42.5394 54.4532 42.6525 54.503C42.7283 54.5373 42.7802 54.6099 42.7875 54.693C42.9516 56.6781 43.9805 59.0786 44.4145 60.0182C44.5484 60.3079 44.4788 60.6484 44.2411 60.8644C44.1497 60.9474 44.0293 61.0076 43.8933 61.0377L43.5361 61.1156L43.2412 61.695C43.2225 61.7323 43.1935 61.7635 43.1582 61.7853C43.0845 61.831 41.6444 62.7156 40.3601 62.7156ZM37.5578 55.5288L37.8371 56.3469C37.9981 56.8173 38.1268 57.3021 38.2213 57.7891C38.3459 58.4348 38.5722 59.4305 38.7529 60.231C38.8235 60.5446 38.8899 60.8342 38.9429 61.072C39.0654 61.6254 39.3198 61.9763 39.7195 62.1445C40.7889 62.5951 42.5373 61.6212 42.8633 61.4302L43.1779 60.8124C43.209 60.7512 43.2661 60.7076 43.3326 60.693L43.7957 60.5923C43.8528 60.5799 43.9016 60.557 43.9337 60.528C44.023 60.4459 44.05 60.3193 44.0002 60.2113C43.4613 59.0453 42.5425 56.8256 42.3463 54.8747C41.8219 54.6888 39.6863 54.0752 37.5589 55.5288H37.5578Z" fill="#003F85"/>
<path d="M37.4455 58.6893C37.4455 58.6893 36.6429 56.3325 35.6441 56.9181C34.6453 57.5047 35.5943 60.0775 37.4455 58.6893Z" fill="white"/>
<path d="M38.5293 75.5441L41.3118 90.6237L34.5352 90.5728L36.7653 75.5961L35.1332 72.4761L36.947 70.3363L38.2864 70.2896L39.9237 72.5228L38.5293 75.5441Z" fill="#003F85"/>
<path d="M32.8453 75.4549C31.5516 73.2134 30.4833 70.3146 31.8756 68.4665L33.7849 66.3661C33.7849 66.3661 34.8616 69.5151 37.4167 70.3114L32.8463 75.4539L32.8453 75.4549Z" fill="white"/>
<path d="M32.8452 75.6823C32.8379 75.6823 32.8296 75.6823 32.8224 75.6812C32.7497 75.674 32.6843 75.6314 32.6479 75.5681C31.3792 73.3701 30.1842 70.3311 31.6938 68.3283L33.6166 66.2114C33.6706 66.1522 33.7516 66.1252 33.8316 66.1418C33.9105 66.1584 33.9748 66.2155 34.0018 66.2913C34.0122 66.3214 35.0733 69.3417 37.4852 70.0934C37.5589 70.1162 37.616 70.1754 37.6367 70.2502C37.6575 70.3249 37.6388 70.4049 37.5879 70.463L33.0165 75.6055C32.9729 75.6543 32.9106 75.6823 32.8463 75.6823H32.8452ZM33.7059 66.7907L32.0437 68.6191C30.7002 70.4028 31.9191 73.3161 32.8867 75.0635L37.0211 70.4121C35.0878 69.6345 34.0569 67.613 33.7059 66.7907Z" fill="#003F85"/>
<path d="M37.877 70.2627C39.6119 69.3438 39.8901 66.5385 39.8901 66.5385C39.8901 66.5385 41.9158 68.0169 42.3767 70.2222C43.0537 73.4636 41.76 75.6605 41.76 75.6605L37.878 70.2627H37.877Z" fill="white"/>
<path d="M41.7584 75.8879C41.6857 75.8879 41.6161 75.8526 41.5735 75.7934L37.6915 70.3956C37.6531 70.3416 37.6396 70.2741 37.6541 70.2107C37.6687 70.1464 37.7112 70.0924 37.7694 70.0612C39.3735 69.2109 39.66 66.5426 39.6621 66.5156C39.6704 66.4346 39.7213 66.363 39.7961 66.3298C39.8708 66.2965 39.957 66.3059 40.0234 66.3536C40.1096 66.4159 42.1259 67.91 42.5983 70.1754C43.2846 73.4657 42.0086 75.6834 41.9546 75.7758C41.9151 75.8422 41.8456 75.8848 41.7687 75.8879C41.7656 75.8879 41.7615 75.8879 41.7584 75.8879ZM38.2065 70.3312L41.721 75.2172C42.0335 74.5029 42.6544 72.6735 42.1518 70.2689C41.8206 68.6824 40.6225 67.4698 40.0556 66.9714C39.9113 67.7677 39.4628 69.5058 38.2065 70.3322V70.3312Z" fill="#003F85"/>
<path d="M51.6315 72.116L53.2221 94.0864C53.2221 94.0864 54.6227 109.687 54.4026 111.537C54.1814 113.387 52.1797 116.534 45.0728 113.952C43.1625 113.258 41.6165 112.698 39.1403 112.335C38.6782 112.267 38.1176 108.394 37.6493 108.341C37.2143 108.291 36.0535 112.06 35.6175 112.022C29.687 111.52 23.8084 112.24 22.4473 115.015L23.7212 100.462C23.9725 97.5915 24.0213 94.7073 23.8697 91.8292C23.5187 85.1959 22.9612 73.0628 23.5364 72.523C24.8394 71.2989 26.7415 70.4184 28.9042 69.7685C28.9249 69.7622 28.9675 69.7498 28.9675 69.7498C28.9675 69.7498 34.8367 88.3438 37.5684 88.266C39.7736 88.2026 44.7676 69.2192 44.7904 69.2234C48.1232 69.7633 51.6315 72.117 51.6315 72.117V72.116Z" fill="white"/>
<path d="M22.4489 115.243C22.4282 115.243 22.4084 115.24 22.3877 115.234C22.2818 115.205 22.2122 115.105 22.2215 114.995L23.4955 100.441C23.7447 97.5935 23.7945 94.6999 23.6429 91.8406C22.6493 73.0431 23.1996 72.526 23.3813 72.3557C24.6106 71.2012 26.3964 70.2834 28.8404 69.5493L28.9037 69.5307C29.0231 69.4964 29.1488 69.5618 29.1861 69.6812C31.4298 76.7901 35.6783 88.0385 37.5503 88.0385C37.5544 88.0385 37.5586 88.0385 37.5638 88.0385C38.4484 88.0136 40.7201 83.165 44.4412 69.6334C44.6177 68.9908 44.6249 68.9669 44.8284 68.9991C48.1726 69.541 51.6155 71.8314 51.7608 71.928C51.819 71.9674 51.8564 72.0308 51.8615 72.1014L53.4521 94.0718C53.5093 94.7062 54.8527 109.714 54.6316 111.566C54.5652 112.122 54.2526 113.511 52.7856 114.414C51.033 115.493 48.4135 115.411 44.9977 114.169C43.0821 113.474 41.5683 112.923 39.1097 112.563C38.7609 112.512 38.5885 111.963 38.1826 110.408C38.0248 109.801 37.7943 108.92 37.6323 108.631C37.435 108.895 37.0851 109.712 36.8443 110.276C36.2068 111.764 35.9545 112.287 35.6015 112.253C30.2451 111.799 24.0323 112.313 22.6555 115.118C22.6161 115.198 22.5361 115.246 22.451 115.246L22.4489 115.243ZM39.2115 112.115C41.694 112.482 43.2212 113.037 45.1524 113.738C48.3844 114.913 50.9417 115.011 52.5458 114.023C53.8436 113.224 54.1197 111.999 54.1779 111.51C54.3938 109.705 53.0109 94.2628 52.9974 94.1071L51.4141 72.2457C50.8534 71.8854 47.8445 70.0134 44.9551 69.4829C44.9354 69.5545 44.9105 69.6449 44.8803 69.7528C44.4661 71.2604 43.2036 75.8495 41.7791 80.126C39.2935 87.589 38.1899 88.4756 37.5762 88.4933C37.1142 88.5068 35.7074 88.5462 32.032 79.1189C30.4601 75.0863 29.1301 71.0008 28.8196 70.0321C26.5531 70.7288 24.8286 71.6227 23.6938 72.688C23.5733 72.8884 23.2058 74.9057 24.0987 91.8167C24.2513 94.6979 24.2005 97.6133 23.9502 100.482L22.7531 114.156C25.3373 111.207 33.0547 111.579 35.588 111.791C35.7697 111.617 36.1611 110.705 36.4227 110.093C37.0779 108.564 37.3188 108.074 37.6759 108.113C38.0341 108.154 38.2106 108.71 38.6228 110.289C38.7941 110.948 39.0516 111.932 39.2115 112.113V112.115Z" fill="#003F85"/>
<path d="M70.0316 82.1921H54.8253C54.3457 82.1921 53.8919 82.5908 53.811 83.083L50.3598 104.196C50.2799 104.688 50.6028 105.087 51.0824 105.087H66.2887C66.7683 105.087 67.222 104.688 67.303 104.196L70.7542 83.083C70.8341 82.5908 70.5112 82.1921 70.0316 82.1921Z" fill="#003F85"/>
<path d="M69.4128 91.2591L69.0535 93.3741L63.3463 92.3825C62.497 92.2455 61.683 92.83 61.5916 93.6783C61.5241 94.3106 61.6923 95.0384 62.498 95.6364C63.4449 96.3403 66.3696 97.391 68.7213 97.824C71.3533 98.3078 71.5474 94.5006 70.8964 92.5974C70.3887 91.1138 69.4128 91.2581 69.4128 91.2581V91.2591Z" fill="white"/>
<path d="M69.1553 98.094C69.0017 98.094 68.8428 98.0795 68.6788 98.0483C66.3708 97.6237 63.3598 96.5615 62.361 95.8192C61.6166 95.2658 61.2719 94.5162 61.3643 93.6534C61.4141 93.1934 61.6467 92.7823 62.0215 92.4968C62.4067 92.203 62.903 92.0794 63.3816 92.1562L68.8657 93.1083L69.1865 91.2197C69.2031 91.1221 69.2799 91.0463 69.3786 91.0318C69.4253 91.0256 70.5487 90.8782 71.1114 92.5227C71.5412 93.7801 71.6897 96.2065 70.6421 97.4212C70.26 97.8645 69.7513 98.0919 69.1553 98.0919V98.094ZM63.0982 92.5902C62.8116 92.5902 62.5282 92.6837 62.2977 92.8591C62.0236 93.0678 61.8533 93.3679 61.817 93.7022C61.7412 94.4061 62.0163 94.9948 62.632 95.4537C63.4917 96.0933 66.296 97.1471 68.7598 97.5998C69.4035 97.7182 69.9205 97.5593 70.2943 97.1243C71.1851 96.0912 71.0896 93.8745 70.6774 92.6712C70.3587 91.7389 69.8572 91.5333 69.6018 91.4918L69.2758 93.4104C69.2654 93.4707 69.2322 93.5236 69.1823 93.5589C69.1325 93.5942 69.0702 93.6077 69.0121 93.5973L63.3048 92.6058C63.2363 92.5944 63.1667 92.5892 63.0971 92.5892L63.0982 92.5902Z" fill="#003F85"/>
<path d="M22.7981 118.904C22.7773 118.904 22.7566 118.901 22.7358 118.895C22.6143 118.861 22.5448 118.734 22.579 118.614L23.6142 114.975C23.6484 114.853 23.7751 114.783 23.8966 114.818C24.0181 114.852 24.0876 114.979 24.0534 115.101L23.0182 118.74C22.9902 118.84 22.8978 118.906 22.7992 118.906L22.7981 118.904Z" fill="white"/>
<path d="M55.8232 31.0697C54.4464 31.0697 53.3262 29.9495 53.3262 28.5727C53.3262 27.196 54.4464 26.0768 55.8232 26.0768C57.1999 26.0768 58.3191 27.1971 58.3191 28.5727C58.3191 29.9484 57.1989 31.0697 55.8232 31.0697ZM55.8232 26.5326C54.6977 26.5326 53.783 27.4473 53.783 28.5727C53.783 29.6982 54.6977 30.6129 55.8232 30.6129C56.9486 30.6129 57.8633 29.6982 57.8633 28.5727C57.8633 27.4473 56.9486 26.5326 55.8232 26.5326Z" fill="#F3C521"/>
<path d="M46.2643 18.754C46.2051 18.754 46.147 18.7311 46.1023 18.6865L45.0952 17.669C45.007 17.5797 45.007 17.4354 45.0973 17.3461C45.1866 17.2578 45.3309 17.2578 45.4202 17.3482L46.4273 18.3656C46.5156 18.4549 46.5156 18.5993 46.4252 18.6885C46.3806 18.7321 46.3224 18.755 46.2643 18.755V18.754Z" fill="#F3C521"/>
<path d="M49.7897 22.3172C49.7305 22.3172 49.6724 22.2943 49.6277 22.2497L48.6206 21.2322C48.5324 21.1429 48.5324 20.9986 48.6227 20.9093C48.712 20.8211 48.8563 20.8211 48.9456 20.9114L49.9527 21.9289C50.0409 22.0182 50.0409 22.1625 49.9506 22.2518C49.906 22.2954 49.8478 22.3182 49.7897 22.3182V22.3172Z" fill="#F3C521"/>
<path d="M45.2455 22.3058C45.1873 22.3058 45.1292 22.284 45.0845 22.2393C44.9953 22.15 44.9953 22.0057 45.0845 21.9164L46.0968 20.9041C46.1861 20.8148 46.3304 20.8148 46.4197 20.9041C46.509 20.9934 46.509 21.1377 46.4197 21.227L45.4074 22.2393C45.3628 22.284 45.3047 22.3058 45.2455 22.3058Z" fill="#F3C521"/>
<path d="M48.7884 18.7602C48.7303 18.7602 48.6722 18.7384 48.6275 18.6938C48.5382 18.6045 48.5382 18.4602 48.6275 18.3709L49.6398 17.3586C49.7291 17.2693 49.8734 17.2693 49.9627 17.3586C50.052 17.4479 50.052 17.5922 49.9627 17.6815L48.9504 18.6938C48.9058 18.7384 48.8476 18.7602 48.7895 18.7602H48.7884Z" fill="#F3C521"/>
<path d="M24.7549 25.6822C23.1145 25.6822 21.7793 24.347 21.7793 22.7066C21.7793 21.0661 23.1145 19.731 24.7549 19.731C26.3954 19.731 27.7306 21.0661 27.7306 22.7066C27.7306 24.347 26.3954 25.6822 24.7549 25.6822ZM24.7549 20.1867C23.3657 20.1867 22.2351 21.3174 22.2351 22.7066C22.2351 24.0958 23.3657 25.2264 24.7549 25.2264C26.1441 25.2264 27.2748 24.0958 27.2748 22.7066C27.2748 21.3174 26.1441 20.1867 24.7549 20.1867Z" fill="#F3C521"/>
</svg>
