<svg width="40" height="40" viewBox="0 0 40 40" fill="none" xmlns="http://www.w3.org/2000/svg">
<path d="M6.4331 24.4087V11.6146C6.4331 7.31008 9.89463 3.82063 14.1887 3.82063L9.47404 3.82056C5.16768 3.82056 1.67676 7.31156 1.67676 11.6178V24.4054C1.67676 28.7118 5.16768 32.2027 9.47404 32.2027H14.2082C9.91412 32.2027 6.4331 28.7132 6.4331 24.4087Z" fill="#CEE1F2"/>
<path d="M30.6044 33.7622H9.39417C4.23572 33.7622 0.0390625 29.5655 0.0390625 24.4071V11.618C0.0390625 6.45867 4.2365 2.26123 9.39581 2.26123H14.542C16.6089 2.33788 16.6074 5.3042 14.542 5.38015H9.39581C5.95627 5.38015 3.15798 8.17844 3.15798 11.618V24.4071C3.15798 27.8458 5.95557 30.6433 9.39417 30.6433H30.6044C34.044 30.6433 36.8423 27.845 36.8423 24.4054V10.2144C36.9189 8.14748 39.8852 8.14904 39.9612 10.2144V24.4054C39.9612 29.5648 35.7637 33.7622 30.6044 33.7622ZM16.4134 22.5341C15.3368 22.5341 14.464 23.4068 14.464 24.4834C14.5596 27.0663 18.2675 27.0656 18.3627 24.4834C18.3627 23.4068 17.4899 22.5341 16.4134 22.5341ZM11.3451 24.4834C11.3451 25.56 10.4724 26.4327 9.39581 26.4327C6.81288 26.3371 6.81358 22.6293 9.39581 22.5341C10.4724 22.5341 11.3451 23.4068 11.3451 24.4834ZM25.3802 24.4834C25.3802 25.56 24.5075 26.4327 23.4309 26.4327C20.848 26.3371 20.8487 22.6293 23.4309 22.5341C24.5075 22.5341 25.3802 23.4068 25.3802 24.4834ZM32.3978 24.4834C32.3978 25.56 31.5251 26.4327 30.4485 26.4327C27.8656 26.3371 27.8663 22.6293 30.4485 22.5341C31.5251 22.5341 32.3978 23.4068 32.3978 24.4834Z" fill="#023874"/>
<path d="M27.2263 12.6316C25.6481 12.6316 24.1656 12.0084 23.052 10.877L19.1199 6.86099C17.7287 5.33046 19.8493 3.25638 21.3484 4.67899L25.2777 8.6921C26.3056 9.77959 28.1494 9.77904 29.1778 8.68922L37.2916 0.464248C37.8965 -0.148775 38.8837 -0.155636 39.497 0.449277C40.1101 1.05411 40.1168 2.04148 39.512 2.65466L31.3994 10.8782C30.2871 12.0084 28.8046 12.6316 27.2263 12.6316Z" fill="#F3C521"/>
</svg>
