<svg width="230" height="244" viewBox="0 0 230 244" fill="none" xmlns="http://www.w3.org/2000/svg">
<path d="M78.5419 162.415H175.83C178.507 162.415 180.676 160.25 180.676 157.578L180.669 22.2621C180.599 18.6386 178.85 16.5601 175.829 16.5601H78.5408C76.1352 16.5601 74.0857 18.3095 73.7005 20.6892L73.6953 157.578C73.6953 160.249 75.8642 162.415 78.5408 162.415H78.5419Z" fill="#F3C521"/>
<path d="M74.5193 162.54H171.821C174.498 162.54 176.668 160.37 176.668 157.694L176.661 22.1044C176.591 18.4726 174.842 16.4075 171.821 16.4075H74.5173C72.1116 16.4075 70.0611 18.1632 69.6769 20.548L69.6738 157.694C69.6738 160.37 71.8438 162.54 74.5204 162.54H74.5193Z" fill="white"/>
<path d="M176.665 126.319C176.54 126.319 176.437 126.217 176.437 126.09L176.433 22.1044C176.364 18.5796 174.727 16.636 171.82 16.636H74.517C72.2184 16.636 70.281 18.2878 69.9051 20.5668V80.0607C69.9041 80.1863 69.8013 80.2891 69.6757 80.2891C69.5501 80.2891 69.4473 80.1873 69.4473 80.0607V20.5491C69.4483 20.5367 69.4493 20.5253 69.4514 20.5128C69.8563 18.0023 71.9868 16.1802 74.517 16.1802H171.82C174.969 16.1802 176.816 18.3377 176.889 22.1003L176.893 126.09C176.893 126.216 176.791 126.319 176.664 126.319H176.665Z" fill="#F3C521"/>
<path d="M146.909 12.1519H102.165C100.854 12.1519 99.791 13.2149 99.791 14.5263V24.4987C99.791 25.8101 100.854 26.8732 102.165 26.8732H146.909C148.22 26.8732 149.283 25.8101 149.283 24.4987V14.5263C149.283 13.2149 148.22 12.1519 146.909 12.1519Z" fill="white"/>
<path d="M146.909 27.1006H102.165C100.731 27.1006 99.5625 25.9336 99.5625 24.4977V14.5253C99.5625 13.0904 100.729 11.9224 102.165 11.9224H146.909C148.344 11.9224 149.512 13.0894 149.512 14.5253V24.4977C149.512 25.9325 148.345 27.1006 146.909 27.1006ZM102.165 12.3792C100.982 12.3792 100.019 13.3417 100.019 14.5253V24.4977C100.019 25.6813 100.982 26.6437 102.165 26.6437H146.909C148.092 26.6437 149.055 25.6813 149.055 24.4977V14.5253C149.055 13.3417 148.092 12.3792 146.909 12.3792H102.165Z" fill="#F3C521"/>
<path d="M124.511 0.228516C119.832 0.228516 116.057 4.02229 116.057 8.70168V21.4016C116.057 22.5437 116.982 23.4687 118.124 23.4687H130.899C132.042 23.4687 132.967 22.5437 132.967 21.4016V8.70168C132.967 4.02229 129.192 0.228516 124.511 0.228516ZM124.984 11.8341C122.732 12.1175 120.838 10.2238 121.122 7.97283C121.315 6.4383 122.555 5.19966 124.089 5.00655C126.341 4.72311 128.233 6.61688 127.95 8.86781C127.757 10.4023 126.517 11.641 124.984 11.8341Z" fill="white"/>
<path d="M130.899 23.6971H118.124C116.858 23.6971 115.828 22.6671 115.828 21.4015V8.70158C115.828 3.90383 119.724 0 124.511 0C129.298 0 133.194 3.90383 133.194 8.70158V21.4015C133.194 22.6671 132.164 23.6971 130.898 23.6971H130.899ZM124.511 0.456831C119.975 0.456831 116.284 4.15612 116.284 8.70158V21.4015C116.284 22.4158 117.109 23.2402 118.123 23.2402H130.898C131.913 23.2402 132.737 22.4148 132.737 21.4015V8.70158C132.737 4.15508 129.046 0.456831 124.51 0.456831H124.511ZM124.537 12.0904C123.563 12.0904 122.636 11.7115 121.94 11.0158C121.132 10.207 120.752 9.08782 120.896 7.94366C121.101 6.31568 122.432 4.98465 124.06 4.78011C125.204 4.63579 126.324 5.01683 127.132 5.82563C127.939 6.63339 128.32 7.75366 128.176 8.89678C127.97 10.5248 126.64 11.8558 125.011 12.0614C124.853 12.0811 124.694 12.0915 124.536 12.0915L124.537 12.0904ZM124.534 5.20683C124.396 5.20683 124.257 5.21514 124.118 5.23279C122.693 5.41241 121.528 6.57628 121.349 8.00077C121.222 9.00372 121.555 9.98486 122.263 10.693C122.971 11.401 123.951 11.7343 124.954 11.6077C126.379 11.428 127.544 10.2642 127.723 8.83863C127.85 7.83568 127.517 6.85454 126.809 6.14749C126.199 5.53803 125.387 5.20579 124.534 5.20579V5.20683Z" fill="#F3C521"/>
<path d="M162.088 65.742H154.37C153.096 65.742 152.059 64.7058 152.059 63.4309V55.7125C152.059 54.4386 153.096 53.4014 154.37 53.4014H162.088C163.362 53.4014 164.399 54.4375 164.399 55.7125V63.4309C164.399 64.7048 163.362 65.742 162.088 65.742ZM154.37 53.8572C153.347 53.8572 152.514 54.6888 152.514 55.7115V63.4298C152.514 64.4525 153.346 65.2841 154.37 65.2841H162.088C163.111 65.2841 163.942 64.4525 163.942 63.4298V55.7115C163.942 54.6888 163.111 53.8572 162.088 53.8572H154.37Z" fill="#F3C521"/>
<path d="M157.343 63.0674C157.302 63.0674 157.259 63.0633 157.217 63.056C156.975 63.0103 156.785 62.8442 156.709 62.6106L155.286 58.902C155.242 58.7836 155.3 58.6517 155.418 58.6071C155.536 58.5625 155.668 58.6206 155.713 58.7379L157.14 62.458C157.178 62.5732 157.266 62.6013 157.303 62.6075C157.337 62.6137 157.424 62.62 157.493 62.5442L161.423 56.271C161.489 56.1641 161.63 56.1319 161.737 56.1984C161.844 56.2648 161.876 56.406 161.81 56.513L157.871 62.8006C157.866 62.8089 157.859 62.8162 157.853 62.8245C157.724 62.9813 157.541 63.0674 157.344 63.0674H157.343Z" fill="#F3C521"/>
<path d="M162.088 80.2132H154.37C153.096 80.2132 152.059 79.176 152.059 77.9021V70.1837C152.059 68.9098 153.096 67.8726 154.37 67.8726H162.088C163.362 67.8726 164.399 68.9087 164.399 70.1837V77.9021C164.399 79.176 163.362 80.2132 162.088 80.2132ZM154.37 68.3284C153.347 68.3284 152.514 69.16 152.514 70.1827V77.901C152.514 78.9237 153.346 79.7564 154.37 79.7564H162.088C163.111 79.7564 163.942 78.9247 163.942 77.901V70.1827C163.942 69.16 163.111 68.3284 162.088 68.3284H154.37Z" fill="#F3C521"/>
<path d="M157.343 77.5386C157.302 77.5386 157.259 77.5345 157.217 77.5272C156.975 77.4815 156.785 77.3154 156.709 77.0818L155.286 73.3732C155.242 73.2548 155.3 73.1229 155.418 73.0783C155.536 73.0326 155.668 73.0918 155.713 73.2091L157.14 76.9292C157.178 77.0444 157.266 77.0725 157.303 77.0787C157.337 77.0849 157.424 77.0911 157.493 77.0154L161.423 70.7422C161.489 70.6353 161.63 70.6031 161.737 70.6696C161.844 70.736 161.876 70.8772 161.81 70.9841L157.871 77.2718C157.866 77.2801 157.859 77.2874 157.853 77.2957C157.724 77.4525 157.541 77.5386 157.344 77.5386H157.343Z" fill="#F3C521"/>
<path d="M162.088 94.6844H154.37C153.096 94.6844 152.059 93.6472 152.059 92.3733V84.6549C152.059 83.381 153.096 82.3438 154.37 82.3438H162.088C163.362 82.3438 164.399 83.3799 164.399 84.6549V92.3733C164.399 93.6472 163.362 94.6844 162.088 94.6844ZM154.37 82.7995C153.347 82.7995 152.514 83.6312 152.514 84.6539V92.3722C152.514 93.3949 153.346 94.2276 154.37 94.2276H162.088C163.111 94.2276 163.942 93.3959 163.942 92.3722V84.6539C163.942 83.6312 163.111 82.7995 162.088 82.7995H154.37Z" fill="#F3C521"/>
<path d="M157.343 92.0098C157.302 92.0098 157.259 92.0057 157.217 91.9984C156.975 91.9527 156.785 91.7866 156.709 91.553L155.286 87.8444C155.242 87.726 155.3 87.5941 155.418 87.5495C155.536 87.5048 155.668 87.563 155.713 87.6803L157.14 91.4004C157.178 91.5156 157.266 91.5436 157.303 91.5499C157.337 91.5561 157.424 91.5623 157.493 91.4865L161.423 85.2134C161.489 85.1065 161.63 85.0743 161.737 85.1407C161.844 85.2072 161.876 85.3484 161.81 85.4553L157.871 91.743C157.866 91.7513 157.859 91.7586 157.853 91.7669C157.724 91.9236 157.541 92.0098 157.344 92.0098H157.343Z" fill="#F3C521"/>
<path d="M128.744 61.9368H82.2649C81.1841 61.9368 80.3047 61.0574 80.3047 59.9766C80.3047 58.8958 81.1841 58.0164 82.2649 58.0164H128.744C129.825 58.0164 130.705 58.8958 130.705 59.9766C130.705 61.0574 129.825 61.9368 128.744 61.9368ZM82.2649 58.4732C81.4353 58.4732 80.7615 59.1481 80.7615 59.9776C80.7615 60.8072 81.4364 61.481 82.2649 61.481H128.744C129.574 61.481 130.248 60.8061 130.248 59.9776C130.248 59.1491 129.573 58.4732 128.744 58.4732H82.2649Z" fill="#F3C521"/>
<path d="M99.7636 76.409H82.2649C81.1841 76.409 80.3047 75.5296 80.3047 74.4487C80.3047 73.3679 81.1841 72.4885 82.2649 72.4885H99.7636C100.844 72.4885 101.724 73.3679 101.724 74.4487C101.724 75.5296 100.844 76.409 99.7636 76.409ZM82.2649 72.9454C81.4353 72.9454 80.7615 73.6202 80.7615 74.4498C80.7615 75.2793 81.4364 75.9532 82.2649 75.9532H99.7636C100.593 75.9532 101.267 75.2783 101.267 74.4498C101.267 73.6213 100.592 72.9454 99.7636 72.9454H82.2649Z" fill="#F3C521"/>
<path d="M116.408 90.5322H82.2649C81.1841 90.5322 80.3047 89.6529 80.3047 88.572C80.3047 87.4912 81.1841 86.6118 82.2649 86.6118H116.408C117.489 86.6118 118.368 87.4912 118.368 88.572C118.368 89.6529 117.489 90.5322 116.408 90.5322ZM82.2649 87.0686C81.4353 87.0686 80.7615 87.7435 80.7615 88.572C80.7615 89.4006 81.4364 90.0754 82.2649 90.0754H116.408C117.237 90.0754 117.911 89.4006 117.911 88.572C117.911 87.7435 117.236 87.0686 116.408 87.0686H82.2649Z" fill="#F3C521"/>
<path d="M138.376 76.409H109.406C108.325 76.409 107.445 75.5296 107.445 74.4487C107.445 73.3679 108.325 72.4885 109.406 72.4885H138.376C139.457 72.4885 140.336 73.3679 140.336 74.4487C140.336 75.5296 139.457 76.409 138.376 76.409ZM109.406 72.9454C108.576 72.9454 107.902 73.6202 107.902 74.4498C107.902 75.2793 108.577 75.9532 109.406 75.9532H138.376C139.205 75.9532 139.879 75.2783 139.879 74.4498C139.879 73.6213 139.204 72.9454 138.376 72.9454H109.406Z" fill="#F3C521"/>
<path d="M140.059 154.04H133.86C131.326 154.04 129.273 160.121 129.273 167.546C129.273 174.972 131.326 181.056 133.86 181.056H140.059C142.591 181.056 144.644 174.973 144.644 167.548C144.644 160.123 142.591 154.04 140.059 154.04Z" fill="white"/>
<path d="M140.059 181.38H133.866C131.109 181.38 128.951 175.303 128.951 167.546C128.951 159.79 131.107 153.716 133.861 153.716H140.059C142.813 153.716 144.969 159.791 144.969 167.548C144.969 175.305 142.813 181.38 140.059 181.38ZM133.868 154.365C131.803 154.365 129.6 159.661 129.6 167.546C129.6 175.431 131.803 180.731 133.862 180.731H140.052C142.118 180.731 144.322 175.434 144.322 167.548C144.322 159.661 142.118 154.365 140.059 154.365H133.868Z" fill="#00499B"/>
<path d="M133.86 180.834C136.393 180.834 138.446 174.815 138.446 167.39C138.446 159.965 136.393 153.946 133.86 153.946C131.328 153.946 129.275 159.965 129.275 167.39C129.275 174.815 131.328 180.834 133.86 180.834Z" fill="#00499B"/>
<path d="M133.861 181.16C131.107 181.16 128.951 175.113 128.951 167.392C128.951 159.67 131.107 153.623 133.861 153.623C136.614 153.623 138.77 159.672 138.77 167.392C138.77 175.111 136.614 181.16 133.861 181.16ZM133.861 154.27C131.803 154.27 129.598 159.542 129.598 167.392C129.598 175.241 131.802 180.512 133.861 180.512C135.919 180.512 138.123 175.24 138.123 167.392C138.123 159.543 135.919 154.27 133.861 154.27Z" fill="#00499B"/>
<path d="M121.209 155.034H115.01C112.477 155.034 110.424 161.115 110.424 168.54C110.424 175.965 112.477 182.049 115.01 182.049H121.209C123.741 182.049 125.794 175.967 125.794 168.542C125.794 161.116 123.741 155.034 121.209 155.034Z" fill="white"/>
<path d="M121.21 182.373H115.017C112.259 182.373 110.102 176.297 110.102 168.54C110.102 160.783 112.258 154.709 115.011 154.709H121.21C123.963 154.709 126.119 160.785 126.119 168.541C126.119 176.298 123.963 182.373 121.21 182.373ZM115.018 155.358C112.953 155.358 110.75 160.655 110.75 168.54C110.75 176.425 112.953 181.725 115.012 181.725H121.202C123.269 181.725 125.472 176.428 125.472 168.541C125.472 160.655 123.269 155.358 121.21 155.358H115.018Z" fill="#00499B"/>
<path d="M115.011 181.83C117.543 181.83 119.596 175.81 119.596 168.385C119.596 160.96 117.543 154.941 115.011 154.941C112.479 154.941 110.426 160.96 110.426 168.385C110.426 175.81 112.479 181.83 115.011 181.83Z" fill="#00499B"/>
<path d="M115.011 182.154C112.258 182.154 110.102 176.105 110.102 168.385C110.102 160.665 112.258 154.617 115.011 154.617C117.764 154.617 119.92 160.665 119.92 168.385C119.92 176.105 117.764 182.154 115.011 182.154ZM115.011 155.264C112.953 155.264 110.749 160.536 110.749 168.385C110.749 176.235 112.952 181.507 115.011 181.507C117.07 181.507 119.273 176.235 119.273 168.385C119.273 160.536 117.07 155.264 115.011 155.264Z" fill="#00499B"/>
<path d="M70.6501 155.306H65.3369C63.166 155.306 61.4062 160.484 61.4062 166.848C61.4062 173.212 63.166 178.392 65.3369 178.392H70.6501C72.821 178.392 74.5808 173.213 74.5808 166.849C74.5808 160.485 72.821 155.306 70.6501 155.306Z" fill="#00499B"/>
<path d="M70.6501 178.716H65.3414C62.9508 178.716 61.082 173.504 61.082 166.848C61.082 160.192 62.9508 154.982 65.337 154.982H70.6501C73.0362 154.982 74.9051 160.195 74.9051 166.849C74.9051 173.504 73.0362 178.716 70.6501 178.716ZM65.3429 155.629C63.5964 155.629 61.7305 160.136 61.7305 166.848C61.7305 173.56 63.5949 178.069 65.337 178.069H70.6428C72.3907 178.069 74.2566 173.561 74.2566 166.849C74.2566 160.137 72.3922 155.629 70.6501 155.629H65.3429Z" fill="#00499B"/>
<path d="M138.536 174.409L138.383 92.0112L5.58203 108.828V167.776L138.536 174.409Z" fill="white"/>
<path d="M138.536 174.733C138.536 174.733 138.526 174.733 138.52 174.733L5.56585 168.101C5.39341 168.092 5.25781 167.95 5.25781 167.776V108.828C5.25781 108.664 5.37867 108.527 5.54079 108.506L138.342 91.6914C138.433 91.6811 138.526 91.7076 138.597 91.7695C138.666 91.8314 138.706 91.9198 138.707 92.0127L138.86 174.408C138.86 174.497 138.823 174.582 138.76 174.643C138.7 174.7 138.62 174.733 138.536 174.733ZM5.9063 167.468L138.212 174.068L138.06 92.3796L5.9063 109.113V167.468Z" fill="#00499B"/>
<path d="M156.51 153.293H94.4961V73.3232L156.51 76.2385V153.293Z" fill="white"/>
<path d="M156.511 153.617C156.332 153.617 156.187 153.473 156.187 153.293V76.5479L94.4803 73.6474C94.302 73.6386 94.1634 73.4868 94.1723 73.3084C94.1811 73.1301 94.3388 72.9916 94.5113 73.0004L156.527 75.9156C156.699 75.9245 156.835 76.066 156.835 76.2399V153.295C156.835 153.473 156.691 153.619 156.511 153.619V153.617Z" fill="#00499B"/>
<path d="M94.4967 153.293V73.3232L0.435547 79.1684V152.406L94.4967 153.293Z" fill="white"/>
<path d="M88.8062 79.0166V112.546L59.0039 113.317V80.7454L88.8062 79.0166Z" fill="white"/>
<path d="M59.0044 113.641C58.9204 113.641 58.8393 113.609 58.7789 113.55C58.717 113.489 58.6816 113.405 58.6816 113.318V80.7483C58.6816 80.5759 58.8158 80.4344 58.9867 80.4255L88.789 78.6967C88.8789 78.6908 88.9659 78.7233 89.0307 78.7837C89.0956 78.8456 89.1324 78.9296 89.1324 79.0195V112.549C89.1324 112.724 88.9924 112.869 88.817 112.873L59.0147 113.644H59.0059L59.0044 113.641ZM59.3286 81.0519V112.985L88.4839 112.232V79.3614L59.3286 81.0534V81.0519Z" fill="#00499B"/>
<path d="M94.4956 79.0166H88.8066V112.546H94.4956V79.0166Z" fill="white"/>
<path d="M94.4976 112.87H88.8086C88.6303 112.87 88.4844 112.726 88.4844 112.546V79.0166C88.4844 78.8383 88.6288 78.6924 88.8086 78.6924H94.4976C94.6759 78.6924 94.8218 78.8368 94.8218 79.0166V112.546C94.8218 112.725 94.6774 112.87 94.4976 112.87ZM89.1329 112.222H94.1748V79.3409H89.1329V112.222Z" fill="#00499B"/>
<path d="M88.8062 115.56V149.09H59.0039V116.134L88.8062 115.56Z" fill="white"/>
<path d="M88.8082 149.412H59.0059C58.8275 149.412 58.6816 149.268 58.6816 149.088V116.132C58.6816 115.955 58.8231 115.812 59 115.808L88.8023 115.234C88.8922 115.242 88.9732 115.267 89.0351 115.327C89.097 115.388 89.1324 115.472 89.1324 115.559V149.088C89.1324 149.267 88.988 149.412 88.8082 149.412ZM59.3301 148.764H88.4854V115.889L59.3301 116.45V148.765V148.764Z" fill="#00499B"/>
<path d="M94.4956 115.56H88.8066V149.09H94.4956V115.56Z" fill="white"/>
<path d="M94.4976 149.412H88.8086C88.6303 149.412 88.4844 149.268 88.4844 149.088V115.559C88.4844 115.38 88.6288 115.234 88.8086 115.234H94.4976C94.6759 115.234 94.8218 115.379 94.8218 115.559V149.088C94.8218 149.267 94.6774 149.412 94.4976 149.412ZM89.1329 148.764H94.1748V115.883H89.1329V148.764Z" fill="#00499B"/>
<path d="M58.8296 117.021H53.1406V149.09H58.8296V117.021Z" fill="white"/>
<path d="M58.8296 149.413H53.1407C52.9623 149.413 52.8164 149.268 52.8164 149.089V117.02C52.8164 116.841 52.9608 116.695 53.1407 116.695H58.8296C59.008 116.695 59.1539 116.84 59.1539 117.02V149.089C59.1539 149.267 59.0094 149.413 58.8296 149.413ZM53.4649 148.764H58.5069V117.344H53.4649V148.764Z" fill="#00499B"/>
<path d="M53.088 117.021V149.09H24.2422V117.948L53.088 117.021Z" fill="white"/>
<path d="M53.0875 149.413H24.2403C24.0619 149.413 23.916 149.268 23.916 149.088V117.946C23.916 117.771 24.0546 117.628 24.2299 117.622L53.0772 116.694C53.1656 116.685 53.2496 116.723 53.313 116.785C53.3764 116.845 53.4117 116.931 53.4117 117.018V149.087C53.4117 149.265 53.2673 149.411 53.0875 149.411V149.413ZM24.5645 148.764H52.7633V117.354L24.5645 118.262V148.766V148.764Z" fill="#00499B"/>
<path d="M58.8296 81.2346H53.1406V113.304H58.8296V81.2346Z" fill="white"/>
<path d="M58.8296 113.628H53.1407C52.9623 113.628 52.8164 113.483 52.8164 113.304V81.2346C52.8164 81.0563 52.9608 80.9104 53.1407 80.9104H58.8296C59.008 80.9104 59.1539 81.0548 59.1539 81.2346V113.304C59.1539 113.482 59.0094 113.628 58.8296 113.628ZM53.4649 112.979H58.5069V81.5574H53.4649V112.979Z" fill="#00499B"/>
<path d="M53.088 81.2346V113.304L24.2422 114.074V82.1631L53.088 81.2346Z" fill="white"/>
<path d="M24.2427 114.399C24.1587 114.399 24.0776 114.366 24.0172 114.307C23.9538 114.247 23.9199 114.163 23.9199 114.074V82.1631C23.9199 81.9877 24.0585 81.8447 24.2338 81.8388L53.0811 80.9103C53.1695 80.9059 53.2535 80.9398 53.3169 81.0017C53.3803 81.0621 53.4156 81.1476 53.4156 81.2345V113.304C53.4156 113.479 53.2756 113.623 53.1002 113.628L24.253 114.399H24.2442H24.2427ZM24.5669 82.477V113.741L52.7657 112.988V81.5691L24.5669 82.477Z" fill="#00499B"/>
<path d="M84.0682 157.256H78.0992C75.66 157.256 73.6836 163.112 73.6836 170.261C73.6836 177.411 75.66 183.269 78.0992 183.269H84.0682C86.5074 183.269 88.4838 177.412 88.4838 170.263C88.4838 163.113 86.5074 157.256 84.0682 157.256Z" fill="white"/>
<path d="M84.0687 183.593H78.1056C75.4424 183.593 73.3613 177.738 73.3613 170.261C73.3613 162.784 75.4438 156.932 78.1012 156.932H84.0702C86.7275 156.932 88.81 162.787 88.81 170.262C88.81 177.738 86.7275 183.593 84.0702 183.593H84.0687ZM78.1056 157.58C76.1233 157.58 74.0083 162.675 74.0083 170.261C74.0083 177.847 76.1248 182.945 78.0997 182.945H84.0613C86.0451 182.945 88.16 177.848 88.16 170.262C88.16 162.677 86.0436 157.58 84.0687 157.58H78.1056Z" fill="#00499B"/>
<path d="M78.0992 183.058C80.5378 183.058 82.5148 177.262 82.5148 170.112C82.5148 162.962 80.5378 157.166 78.0992 157.166C75.6605 157.166 73.6836 162.962 73.6836 170.112C73.6836 177.262 75.6605 183.058 78.0992 183.058Z" fill="white"/>
<path d="M78.0992 183.383C75.4419 183.383 73.3594 177.554 73.3594 170.112C73.3594 162.671 75.4419 156.842 78.0992 156.842C80.7565 156.842 82.839 162.671 82.839 170.112C82.839 177.554 80.7565 183.383 78.0992 183.383ZM78.0992 157.491C76.1228 157.491 74.0079 162.562 74.0079 170.112C74.0079 177.663 76.1243 182.734 78.0992 182.734C80.0741 182.734 82.1905 177.663 82.1905 170.112C82.1905 162.562 80.0741 157.491 78.0992 157.491Z" fill="#00499B"/>
<path d="M102.659 157.656H96.4596C93.9261 157.656 91.873 163.737 91.873 171.162C91.873 178.587 93.9261 184.671 96.4596 184.671H102.659C105.191 184.671 107.244 178.589 107.244 171.163C107.244 163.738 105.191 157.656 102.659 157.656Z" fill="white"/>
<path d="M102.659 184.995H96.466C93.7085 184.995 91.5508 178.918 91.5508 171.162C91.5508 163.405 93.707 157.331 96.4601 157.331H102.659C105.412 157.331 107.568 163.406 107.568 171.163C107.568 178.92 105.412 184.995 102.659 184.995ZM96.4675 157.98C94.4026 157.98 92.1993 163.277 92.1993 171.162C92.1993 179.047 94.4026 184.347 96.4616 184.347H102.652C104.718 184.347 106.921 179.05 106.921 171.163C106.921 163.277 104.718 157.98 102.659 157.98H96.4675Z" fill="#00499B"/>
<path d="M96.4601 184.451C98.9923 184.451 101.045 178.432 101.045 171.007C101.045 163.582 98.9923 157.563 96.4601 157.563C93.9278 157.563 91.875 163.582 91.875 171.007C91.875 178.432 93.9278 184.451 96.4601 184.451Z" fill="white"/>
<path d="M96.4601 184.776C93.707 184.776 91.5508 178.727 91.5508 171.007C91.5508 163.287 93.707 157.239 96.4601 157.239C99.2132 157.239 101.369 163.287 101.369 171.007C101.369 178.727 99.2132 184.776 96.4601 184.776ZM96.4601 157.886C94.4026 157.886 92.1978 163.157 92.1978 171.007C92.1978 178.857 94.4012 184.129 96.4601 184.129C98.519 184.129 100.722 178.857 100.722 171.007C100.722 163.157 98.519 157.886 96.4601 157.886Z" fill="#00499B"/>
<path d="M18.8668 155.631H13.7496C11.6583 155.631 9.96484 160.474 9.96484 166.522C9.96484 172.571 11.6597 177.417 13.7496 177.417H18.8668C20.9567 177.417 22.6516 172.572 22.6516 166.524C22.6516 160.475 20.9567 155.631 18.8668 155.631Z" fill="white"/>
<path d="M18.8668 177.741H13.7541C11.4461 177.741 9.64062 172.814 9.64062 166.522C9.64062 160.23 11.4461 155.306 13.7497 155.306H18.8668C21.1704 155.306 22.9758 160.233 22.9758 166.524C22.9758 172.814 21.1704 177.741 18.8668 177.741ZM13.7556 155.955C12.0783 155.955 10.2891 160.201 10.2891 166.522C10.2891 172.843 12.0783 177.093 13.7511 177.093H18.8609C20.5396 177.093 22.3288 172.845 22.3288 166.524C22.3288 160.202 20.5396 155.955 18.8668 155.955H13.7556Z" fill="#00499B"/>
<path d="M13.7516 177.291C15.8419 177.291 17.5364 172.387 17.5364 166.338C17.5364 160.288 15.8419 155.384 13.7516 155.384C11.6613 155.384 9.9668 160.288 9.9668 166.338C9.9668 172.387 11.6613 177.291 13.7516 177.291Z" fill="white"/>
<path d="M13.7516 177.616C11.448 177.616 9.64258 172.662 9.64258 166.339C9.64258 160.017 11.448 155.063 13.7516 155.063C16.0552 155.063 17.8606 160.017 17.8606 166.339C17.8606 172.662 16.0552 177.616 13.7516 177.616ZM13.7516 155.71C12.0803 155.71 10.2896 159.981 10.2896 166.339C10.2896 172.697 12.0788 176.968 13.7516 176.968C15.4244 176.968 17.2136 172.697 17.2136 166.339C17.2136 159.981 15.4244 155.71 13.7516 155.71Z" fill="#00499B"/>
<path d="M28.5582 156.281H23.441C21.3497 156.281 19.6562 161.124 19.6562 167.172C19.6562 173.221 21.3512 178.067 23.441 178.067H28.5582C30.6481 178.067 32.343 173.222 32.343 167.174C32.343 161.125 30.6481 156.281 28.5582 156.281Z" fill="#00499B"/>
<path d="M23.441 177.943C25.5313 177.943 27.2258 173.039 27.2258 166.989C27.2258 160.94 25.5313 156.036 23.441 156.036C21.3508 156.036 19.6562 160.94 19.6562 166.989C19.6562 173.039 21.3508 177.943 23.441 177.943Z" fill="white"/>
<path d="M38.6696 156.281H33.3565C31.1855 156.281 29.4258 161.458 29.4258 167.822C29.4258 174.186 31.1855 179.367 33.3565 179.367H38.6696C40.8406 179.367 42.6003 174.188 42.6003 167.824C42.6003 161.46 40.8406 156.281 38.6696 156.281Z" fill="white"/>
<path d="M38.6697 179.692H33.3609C30.9704 179.692 29.1016 174.479 29.1016 167.824C29.1016 161.168 30.9704 155.958 33.3565 155.958H38.6697C41.0558 155.958 42.9246 161.171 42.9246 167.825C42.9246 174.479 41.0558 179.692 38.6697 179.692ZM33.3624 156.605C31.6159 156.605 29.7501 161.112 29.7501 167.822C29.7501 174.532 31.6144 179.044 33.3565 179.044H38.6623C40.4102 179.044 42.2761 174.535 42.2761 167.824C42.2761 161.112 40.4117 156.603 38.6697 156.603H33.3624V156.605Z" fill="#00499B"/>
<path d="M33.3565 179.162C35.5273 179.162 37.2872 174.003 37.2872 167.638C37.2872 161.274 35.5273 156.114 33.3565 156.114C31.1856 156.114 29.4258 161.274 29.4258 167.638C29.4258 174.003 31.1856 179.162 33.3565 179.162Z" fill="white"/>
<path d="M33.3565 179.486C30.9704 179.486 29.1016 174.282 29.1016 167.638C29.1016 160.994 30.9704 155.79 33.3565 155.79C35.7426 155.79 37.6114 160.994 37.6114 167.638C37.6114 174.282 35.7426 179.486 33.3565 179.486ZM33.3565 156.438C31.6144 156.438 29.7501 160.938 29.7501 167.638C29.7501 174.338 31.6144 178.838 33.3565 178.838C35.0986 178.838 36.963 174.338 36.963 167.638C36.963 160.938 35.0986 156.438 33.3565 156.438Z" fill="#00499B"/>
<path d="M94.4961 153.452H94.4932L32.3389 152.976C32.1605 152.976 32.0161 152.829 32.0176 152.649C32.0176 152.471 32.1635 152.328 32.3418 152.328H32.3448L94.1719 152.802V73.671L56.0056 76.1736C55.8243 76.1765 55.6725 76.0498 55.6607 75.8715C55.6489 75.6931 55.7845 75.5384 55.9629 75.5266L94.474 73.0004C94.5654 72.996 94.6509 73.0255 94.7172 73.0874C94.782 73.1478 94.8204 73.2348 94.8204 73.3232V153.127C94.8204 153.214 94.7865 153.296 94.7246 153.356C94.6641 153.417 94.5816 153.451 94.4961 153.451V153.452Z" fill="#00499B"/>
<path d="M11.5718 152.815H11.5689L0.432633 152.73C0.2543 152.73 0.109865 152.583 0.111339 152.404C0.111339 152.226 0.257246 152.083 0.435579 152.083H0.438529L11.5748 152.168C11.7531 152.168 11.8975 152.316 11.8961 152.494C11.8961 152.673 11.7502 152.815 11.5718 152.815Z" fill="#00499B"/>
<path d="M136.207 145.713L140.009 149.125L141.38 174.599H162.845V145.783L136.207 145.713Z" fill="#00499B"/>
<path d="M161.354 152.643H153.344C150.071 152.643 147.418 160.446 147.418 170.042C147.418 179.638 150.071 187.445 153.344 187.445H161.354C164.628 187.445 167.281 179.641 167.281 170.045C167.281 160.449 164.628 152.645 161.354 152.645V152.643Z" fill="white"/>
<path d="M161.354 187.767H153.35C149.838 187.767 147.092 179.981 147.092 170.042C147.092 160.102 149.838 152.319 153.342 152.319H161.353C164.857 152.319 167.603 160.105 167.603 170.043C167.603 179.981 164.857 187.767 161.353 187.767H161.354ZM153.351 152.966C150.306 152.966 147.74 160.785 147.74 170.04C147.74 179.296 150.306 187.119 153.344 187.119H161.344C164.392 187.119 166.956 179.299 166.956 170.043C166.956 160.787 164.39 152.966 161.354 152.966H153.351Z" fill="#00499B"/>
<path d="M153.344 187.166C156.617 187.166 159.271 179.386 159.271 169.79C159.271 160.193 156.617 152.413 153.344 152.413C150.071 152.413 147.418 160.193 147.418 169.79C147.418 179.386 150.071 187.166 153.344 187.166Z" fill="white"/>
<path d="M153.344 187.49C149.839 187.49 147.094 179.716 147.094 169.79C147.094 159.864 149.839 152.091 153.344 152.091C156.849 152.091 159.595 159.865 159.595 169.79C159.595 179.715 156.849 187.49 153.344 187.49ZM153.344 152.739C150.307 152.739 147.742 160.547 147.742 169.791C147.742 179.035 150.308 186.843 153.344 186.843C156.38 186.843 158.946 179.035 158.946 169.791C158.946 160.547 156.38 152.739 153.344 152.739Z" fill="#00499B"/>
<path d="M195.242 121.482H194.035C193.348 121.482 192.791 120.925 192.791 120.238V110.761C192.791 109.924 193.469 109.245 194.308 109.245H194.854C195.949 109.245 196.837 110.132 196.837 111.227V119.887C196.837 120.767 196.123 121.481 195.243 121.481L195.242 121.482Z" fill="#00499B"/>
<path d="M212.212 148.866H204.202C200.928 148.866 198.275 156.668 198.275 166.264C198.275 175.86 200.928 183.667 204.202 183.667H212.212C215.485 183.667 218.138 175.863 218.138 166.267C218.138 156.671 215.485 148.867 212.212 148.867V148.866Z" fill="white"/>
<path d="M212.211 183.99H204.207C200.695 183.99 197.949 176.204 197.949 166.264C197.949 156.325 200.695 148.542 204.2 148.542H212.21C215.715 148.542 218.46 156.328 218.46 166.266C218.46 176.204 215.715 183.99 212.21 183.99H212.211ZM204.209 149.189C201.164 149.189 198.598 157.007 198.598 166.263C198.598 175.518 201.164 183.342 204.201 183.342H212.201C215.248 183.342 217.813 175.521 217.813 166.266C217.813 157.01 215.248 149.189 212.211 149.189H204.209Z" fill="#00499B"/>
<path d="M204.2 183.389C207.473 183.389 210.126 175.609 210.126 166.012C210.126 156.415 207.473 148.636 204.2 148.636C200.927 148.636 198.273 156.415 198.273 166.012C198.273 175.609 200.927 183.389 204.2 183.389Z" fill="#00499B"/>
<path d="M204.2 183.713C200.695 183.713 197.949 175.938 197.949 166.014C197.949 156.089 200.695 148.313 204.2 148.313C207.704 148.313 210.45 156.087 210.45 166.014C210.45 175.94 207.704 183.713 204.2 183.713ZM204.2 148.961C201.162 148.961 198.598 156.77 198.598 166.014C198.598 175.258 201.164 183.066 204.2 183.066C207.236 183.066 209.802 175.258 209.802 166.014C209.802 156.77 207.236 148.961 204.2 148.961Z" fill="#00499B"/>
<path d="M97.4668 153.267L138.38 153.88L138.536 174.407H141.71C141.652 171.735 141.609 169.181 141.609 167.362C141.609 156.416 146.735 147.544 153.058 147.544C157.186 147.544 160.805 151.328 162.819 157.003C170.797 157.395 183.017 157.2 194.84 156.821C212.711 156.25 229.671 155.264 229.671 155.264C229.896 145.729 220.383 141.794 220.383 141.794C220.383 141.794 219.46 134.018 218.11 132.667C216.758 131.315 195.213 123.671 195.213 123.671L185.336 98.6509C184.308 96.1837 182.872 93.9008 181.052 91.9332C176.597 87.1138 168.026 81.1949 152.516 80.4609C150.138 80.3489 120.526 77.9761 105.732 77.3055C101.543 77.1153 98.2641 77.531 97.4683 77.5988V153.267H97.4668Z" fill="white"/>
<path d="M141.71 174.733H138.537C138.359 174.733 138.214 174.59 138.213 174.412L138.059 154.201L97.4629 153.592C97.286 153.589 97.1445 153.445 97.1445 153.268V77.6002C97.1445 77.4322 97.2728 77.2922 97.4408 77.2774C97.5395 77.2686 97.6751 77.2553 97.8476 77.2376C99.1077 77.1109 102.057 76.8147 105.746 76.9827C116.416 77.4676 135.073 78.8559 145.098 79.6031C149.031 79.8964 151.871 80.1072 152.531 80.1381C168.139 80.8765 176.786 86.8411 181.29 91.7136C183.109 93.6811 184.571 95.9744 185.636 98.5271L195.461 123.416C198.24 124.403 217.001 131.099 218.34 132.438C219.656 133.755 220.514 140.203 220.684 141.575C221.998 142.185 230.206 146.354 229.995 155.272C229.991 155.44 229.858 155.579 229.69 155.588C229.521 155.598 212.532 156.581 194.865 157.146C194.861 157.146 194.856 157.146 194.852 157.146C180.484 157.605 169.703 157.666 162.805 157.327C162.674 157.32 162.56 157.236 162.516 157.112C160.462 151.324 156.927 147.868 153.062 147.868C146.927 147.868 141.937 156.614 141.937 167.364C141.937 168.986 141.971 171.355 142.037 174.401C142.039 174.488 142.006 174.572 141.944 174.634C141.883 174.696 141.8 174.731 141.713 174.731L141.71 174.733ZM138.858 174.084H141.379C141.317 171.191 141.286 168.932 141.286 167.364C141.286 156.257 146.566 147.221 153.059 147.221C157.165 147.221 160.889 150.757 163.051 156.692C169.94 157.019 180.628 156.954 194.83 156.5C211.201 155.977 226.992 155.094 229.35 154.959C229.365 145.976 220.351 142.133 220.258 142.095C220.15 142.051 220.074 141.95 220.06 141.834C219.808 139.701 218.923 133.94 217.879 132.897C216.925 131.943 203.736 127.041 195.103 123.977C195.014 123.946 194.943 123.878 194.909 123.791L185.033 98.7717C184 96.2942 182.579 94.0658 180.812 92.1543C176.389 87.3702 167.887 81.5132 152.499 80.7866C151.831 80.7557 148.986 80.5434 145.048 80.2501C135.028 79.5044 116.375 78.1146 105.715 77.6312C102.073 77.4661 99.1563 77.7579 97.9094 77.8832C97.8667 77.8876 97.8269 77.892 97.7886 77.895V152.95L138.384 153.558C138.559 153.561 138.701 153.704 138.702 153.88L138.855 174.086L138.858 174.084Z" fill="#00499B"/>
<path d="M225.766 145.523L225.127 146.039C223.999 146.945 223.29 148.273 223.163 149.713L223.015 151.385C222.922 152.44 223.788 153.33 224.845 153.264L229.527 152.973C229.059 149.749 227.476 147.295 225.765 145.522L225.766 145.523Z" fill="white"/>
<path d="M224.739 153.591C224.187 153.591 223.656 153.368 223.268 152.969C222.85 152.54 222.641 151.952 222.694 151.355L222.843 149.684C222.977 148.163 223.737 146.742 224.925 145.786L225.565 145.27C225.696 145.165 225.884 145.177 226.001 145.298C228.142 147.516 229.436 150.083 229.851 152.928C229.864 153.018 229.839 153.109 229.781 153.178C229.724 153.248 229.64 153.292 229.55 153.298L224.868 153.588C224.825 153.591 224.782 153.592 224.739 153.592V153.591ZM225.739 145.962L225.332 146.291C224.279 147.139 223.607 148.396 223.488 149.741L223.339 151.413C223.302 151.821 223.447 152.225 223.733 152.518C224.019 152.811 224.42 152.968 224.828 152.941L229.155 152.673C228.725 150.194 227.576 147.939 225.739 145.962Z" fill="#00499B"/>
<path d="M185.036 133.855L149.192 123.672L141.023 97.6444C140 94.3843 138.302 91.363 135.984 88.8545C130.653 83.0874 119.427 75.7448 97.4668 77.5989V153.267L138.212 153.701L138.536 174.141L141.708 174.599C141.651 171.927 141.611 169.183 141.611 167.364C141.611 156.418 146.737 147.545 153.06 147.545C157.188 147.545 160.806 151.33 162.821 157.004C170.799 157.396 183.018 157.202 194.841 156.823C195.991 156.786 198.277 156.708 198.277 156.708L190.513 138.663C189.504 136.318 187.494 134.553 185.039 133.855H185.036Z" fill="#00499B"/>
<path d="M186.974 135.002C186.919 135.002 186.863 134.988 186.811 134.957C186.226 134.617 185.599 134.352 184.949 134.167L149.105 123.985C149 123.955 148.918 123.874 148.884 123.769L140.715 97.7417C139.69 94.4801 137.973 91.4823 135.746 89.0741C132.233 85.2731 127.651 82.3578 122.127 80.4094C121.957 80.3505 121.869 80.1648 121.929 79.9953C121.988 79.8273 122.174 79.7389 122.342 79.7978C127.966 81.7816 132.635 84.7543 136.221 88.6334C138.513 91.1124 140.28 94.1942 141.332 97.5471L149.448 123.408L185.124 133.544C185.827 133.743 186.503 134.03 187.136 134.397C187.29 134.487 187.344 134.686 187.254 134.839C187.193 134.943 187.084 135 186.974 135V135.002Z" fill="#00499B"/>
<path d="M158.801 137.022C149.174 138.571 141.409 148.514 138.383 153.64L138.536 174.409L141.708 174.599C141.65 171.927 141.61 169.183 141.61 167.364C141.61 156.418 146.736 147.545 153.059 147.545C157.187 147.545 160.806 151.33 162.82 157.004C170.798 157.396 183.018 157.202 194.841 156.823C195.99 156.786 197.137 156.748 198.276 156.708C182.512 137.705 168.321 135.491 158.803 137.022H158.801Z" fill="white"/>
<path d="M141.708 174.923C141.708 174.923 141.695 174.923 141.689 174.923L138.517 174.733C138.347 174.723 138.213 174.583 138.212 174.412L138.059 153.643C138.059 153.584 138.073 153.526 138.103 153.476C139 151.955 147.207 138.561 158.748 136.704C164.587 135.764 170.498 136.492 176.316 138.866C183.915 141.967 191.388 147.901 198.522 156.503C198.602 156.599 198.62 156.73 198.568 156.842C198.518 156.954 198.407 157.029 198.284 157.034C197.149 157.074 196.007 157.112 194.861 157.149C194.857 157.149 194.853 157.149 194.848 157.149C180.48 157.609 169.699 157.669 162.801 157.33C162.67 157.323 162.557 157.239 162.512 157.115C160.458 151.327 156.924 147.871 153.058 147.871C146.924 147.871 141.933 156.617 141.933 167.367C141.933 169.085 141.97 171.787 142.031 174.595C142.032 174.684 141.997 174.771 141.932 174.835C141.871 174.892 141.79 174.925 141.708 174.925V174.923ZM138.859 174.104L141.376 174.256C141.319 171.572 141.286 169.016 141.286 167.365C141.286 156.259 146.567 147.223 153.059 147.223C157.165 147.223 160.89 150.758 163.052 156.693C169.94 157.021 180.629 156.956 194.83 156.502C195.757 156.472 196.683 156.441 197.603 156.409C185.165 141.621 172.132 135.206 158.854 137.344C147.777 139.125 139.793 151.911 138.71 153.728L138.86 174.105L138.859 174.104Z" fill="#00499B"/>
<path d="M142.795 124.696H127.984C127.806 124.696 127.66 124.552 127.66 124.372V106.355C127.66 106.176 127.805 106.03 127.984 106.03H138.841C139.835 106.03 140.712 106.701 140.972 107.66C141.812 110.754 143.703 118.077 144.755 122.169C144.913 122.779 144.78 123.414 144.394 123.912C144.008 124.41 143.424 124.696 142.793 124.696H142.795ZM128.307 124.048H142.795C143.224 124.048 143.62 123.853 143.884 123.514C144.146 123.175 144.236 122.743 144.129 122.329C143.281 119.037 141.218 111.034 140.347 107.83C140.163 107.152 139.544 106.679 138.841 106.679H128.309V124.049L128.307 124.048Z" fill="white"/>
<path d="M220.344 144.872C220.516 142.707 220.382 140.527 219.934 138.402C219.443 136.075 218.666 133.494 217.785 132.669C217.173 132.095 216.79 131.89 215.274 131.242H194.263C192.667 131.242 191.168 132.01 190.235 133.304C188.97 135.058 188.59 137.298 189.203 139.372L191.495 147.111C191.896 148.465 193.141 149.395 194.555 149.395H216.693C218.553 149.395 220.099 147.965 220.246 146.113L220.345 144.872H220.344Z" fill="white"/>
<path d="M216.692 149.719H194.553C193.007 149.719 191.622 148.684 191.183 147.202L188.891 139.463C188.253 137.309 188.656 134.935 189.97 133.113C190.962 131.738 192.565 130.917 194.26 130.917H215.271C215.315 130.917 215.358 130.926 215.398 130.944C216.891 131.584 217.342 131.812 218.003 132.431C219.087 133.447 219.875 136.565 220.248 138.334C220.7 140.477 220.84 142.685 220.664 144.895L220.565 146.136C220.406 148.144 218.703 149.718 216.689 149.718L216.692 149.719ZM194.261 131.566C192.774 131.566 191.367 132.287 190.496 133.494C189.299 135.155 188.931 137.317 189.513 139.28L191.805 147.019C192.163 148.228 193.293 149.072 194.553 149.072H216.692C218.37 149.072 219.79 147.762 219.922 146.088L220.021 144.847C220.192 142.696 220.056 140.55 219.617 138.469C219.017 135.628 218.249 133.548 217.563 132.906C217.006 132.384 216.69 132.203 215.206 131.567H194.261V131.566Z" fill="#00499B"/>
<path d="M131.158 117.427H127.465C126.778 117.427 126.221 116.87 126.221 116.183V106.707C126.221 105.87 126.899 105.19 127.737 105.19H130.77C131.865 105.19 132.753 106.077 132.753 107.172V115.833C132.753 116.713 132.039 117.426 131.16 117.426L131.158 117.427Z" fill="white"/>
<path d="M131.158 125.142H127.465C126.778 125.142 126.221 124.585 126.221 123.898V120.107C126.221 119.27 126.899 118.591 127.737 118.591H130.77C131.865 118.591 132.753 119.478 132.753 120.573V123.547C132.753 124.427 132.039 125.14 131.16 125.14L131.158 125.142Z" fill="white"/>
<path d="M171.956 177.032L223.07 174.634C225.822 174.504 228.06 172.37 228.318 169.627L229.67 155.266L162.818 157.005L166.055 172.463C166.634 175.228 169.135 177.164 171.958 177.032H171.956Z" fill="white"/>
<path d="M171.678 177.362C168.804 177.362 166.331 175.37 165.737 172.53L162.501 157.072C162.482 156.978 162.504 156.88 162.564 156.805C162.623 156.73 162.713 156.684 162.81 156.683L229.662 154.944C229.753 154.944 229.843 154.979 229.906 155.047C229.97 155.115 230.001 155.206 229.992 155.299L228.64 169.66C228.369 172.546 225.98 174.824 223.086 174.96L171.972 177.358C171.873 177.362 171.776 177.365 171.678 177.365V177.362ZM163.216 157.318L166.373 172.395C166.922 175.019 169.263 176.83 171.942 176.708L223.056 174.31C225.631 174.189 227.755 172.163 227.996 169.595L229.314 155.598L163.216 157.318Z" fill="#00499B"/>
<path d="M189.068 123.32C189.047 123.32 189.027 123.32 189.005 123.32L154.128 122.298C152.72 122.257 151.507 121.321 151.111 119.971L146.778 105.218C146.603 104.62 146.723 103.995 147.11 103.506C147.496 103.016 148.073 102.757 148.698 102.786L182.328 103.525C183.764 103.556 185.018 104.446 185.522 105.79L191.009 120.419C191.282 121.069 191.205 121.818 190.798 122.409C190.405 122.982 189.761 123.32 189.068 123.32ZM147.401 105.034L151.734 119.787C152.051 120.869 153.023 121.618 154.149 121.65L189.025 122.671C189.522 122.689 189.985 122.45 190.266 122.042C190.548 121.632 190.601 121.116 190.409 120.658L184.918 106.017C184.506 104.922 183.487 104.197 182.316 104.172L148.678 103.433C148.256 103.41 147.876 103.584 147.622 103.907C147.367 104.229 147.288 104.641 147.404 105.034H147.401Z" fill="#00499B"/>
<path d="M162.429 116.456H150.325C150.18 116.456 150.055 116.362 150.014 116.224L146.782 105.217C146.606 104.619 146.727 103.995 147.113 103.506C147.5 103.017 148.077 102.756 148.702 102.787L182.332 103.525C183.768 103.556 185.022 104.446 185.526 105.79L186.952 109.596C186.989 109.696 186.976 109.807 186.916 109.893C186.855 109.98 186.756 110.033 186.649 110.033H177.912C175.078 110.033 172.413 111.137 170.409 113.142C168.264 115.286 165.438 116.458 162.429 116.458V116.456ZM150.567 115.808H162.429C165.264 115.808 167.928 114.704 169.933 112.7C172.077 110.555 174.904 109.384 177.912 109.384H186.182L184.919 106.016C184.507 104.921 183.488 104.196 182.317 104.171L148.679 103.432C148.26 103.412 147.877 103.583 147.622 103.905C147.367 104.228 147.287 104.639 147.404 105.033L150.568 115.806L150.567 115.808Z" fill="#00499B"/>
<path d="M189.068 123.32C189.047 123.32 189.027 123.32 189.005 123.32L154.128 122.298C152.72 122.257 151.507 121.321 151.111 119.971L146.778 105.218C146.603 104.62 146.723 103.995 147.11 103.506C147.496 103.016 148.073 102.757 148.698 102.786L182.328 103.525C183.764 103.556 185.018 104.446 185.522 105.79L191.009 120.419C191.282 121.069 191.205 121.818 190.798 122.409C190.405 122.982 189.761 123.32 189.068 123.32ZM147.401 105.034L151.734 119.787C152.051 120.869 153.023 121.618 154.149 121.65L189.025 122.671C189.522 122.689 189.985 122.45 190.266 122.042C190.548 121.632 190.601 121.116 190.409 120.658L184.918 106.017C184.506 104.922 183.487 104.197 182.316 104.172L148.678 103.433C148.256 103.41 147.876 103.584 147.622 103.907C147.367 104.229 147.288 104.641 147.404 105.034H147.401Z" fill="#00499B"/>
<path d="M189.903 152.615L184.198 148.956C181.757 147.389 178.917 146.558 176.017 146.558H174.623C172.623 146.558 171 148.179 171 150.18V150.255C171 152.443 172.773 154.216 174.96 154.216H189.435C190.301 154.216 190.633 153.085 189.903 152.617V152.615Z" fill="white"/>
<path d="M189.435 154.537H174.962C172.6 154.537 170.678 152.615 170.678 150.253V150.177C170.678 148.002 172.448 146.232 174.625 146.232H176.019C178.987 146.232 181.877 147.079 184.375 148.681L190.081 152.341C190.538 152.634 190.734 153.16 190.58 153.681C190.427 154.201 189.979 154.537 189.437 154.537H189.435ZM174.623 146.88C172.804 146.88 171.325 148.36 171.325 150.179V150.254C171.325 152.258 172.956 153.89 174.961 153.89H189.434C189.734 153.89 189.901 153.688 189.955 153.499C190.011 153.309 189.98 153.05 189.727 152.888L184.022 149.228C181.628 147.693 178.859 146.88 176.016 146.88H174.622H174.623Z" fill="#00499B"/>
<path d="M141.71 174.733H138.537C138.359 174.733 138.214 174.59 138.213 174.412L138.059 154.201L97.4629 153.592C97.286 153.589 97.1445 153.445 97.1445 153.268V77.6002C97.1445 77.4322 97.2728 77.2922 97.4408 77.2774C97.5395 77.2686 97.6751 77.2553 97.8476 77.2376C99.1077 77.1109 102.057 76.8147 105.746 76.9827C116.416 77.4676 135.073 78.8559 145.098 79.6031C149.031 79.8964 151.871 80.1072 152.531 80.1381C168.139 80.8765 176.786 86.8411 181.29 91.7136C183.109 93.6811 184.571 95.9744 185.636 98.5271L195.461 123.417C198.208 124.403 216.71 131.074 218.021 132.444C220.178 134.701 220.626 140.416 220.697 141.582C222.053 142.213 230.206 146.384 229.995 155.274C229.991 155.442 229.858 155.58 229.69 155.589C229.521 155.6 212.532 156.583 194.865 157.147C194.861 157.147 194.856 157.147 194.852 157.147C180.484 157.607 169.703 157.667 162.805 157.328C162.674 157.321 162.56 157.237 162.516 157.113C160.462 151.326 156.927 147.869 153.062 147.869C146.927 147.869 141.937 156.615 141.937 167.365C141.937 168.988 141.971 171.356 142.037 174.403C142.039 174.49 142.006 174.574 141.944 174.636C141.883 174.697 141.8 174.733 141.713 174.733H141.71ZM138.858 174.084H141.379C141.317 171.191 141.286 168.932 141.286 167.364C141.286 156.257 146.566 147.221 153.059 147.221C157.165 147.221 160.889 150.757 163.051 156.692C169.94 157.019 180.628 156.954 194.83 156.5C211.201 155.977 226.992 155.094 229.35 154.959C229.365 145.976 220.351 142.133 220.258 142.095C220.141 142.046 220.063 141.936 220.059 141.81C220.056 141.744 219.74 135.183 217.552 132.892C216.622 131.92 203.617 127.028 195.104 123.979C195.016 123.948 194.946 123.88 194.912 123.793L185.036 98.7732C184.003 96.2957 182.582 94.0673 180.815 92.1557C176.392 87.3717 167.89 81.5147 152.502 80.7881C151.834 80.7571 148.989 80.5449 145.051 80.2516C135.031 79.5059 116.378 78.1161 105.718 77.6326C102.076 77.4676 99.1593 77.7594 97.9124 77.8847C97.8697 77.8891 97.8299 77.8935 97.7915 77.8964V152.951L138.387 153.56C138.562 153.563 138.704 153.706 138.705 153.881L138.858 174.087V174.084Z" fill="#00499B"/>
<path d="M194.815 136.421C194.638 136.421 194.493 136.279 194.49 136.102C194.487 135.924 194.63 135.777 194.809 135.774L214.095 135.449H214.101C214.278 135.449 214.422 135.591 214.425 135.768C214.428 135.946 214.285 136.094 214.107 136.096L194.82 136.421H194.815Z" fill="#00499B"/>
<path d="M194.815 140.642C194.638 140.642 194.493 140.5 194.49 140.324C194.487 140.145 194.63 139.998 194.809 139.995L216.038 139.671H216.042C216.219 139.671 216.363 139.812 216.366 139.989C216.369 140.167 216.226 140.315 216.048 140.318L194.819 140.642H194.815Z" fill="#00499B"/>
<path d="M199.024 144.863C198.848 144.863 198.704 144.723 198.699 144.546C198.695 144.368 198.838 144.219 199.016 144.214L214.09 143.89C214.261 143.884 214.418 144.029 214.422 144.207C214.427 144.385 214.284 144.534 214.105 144.539L199.031 144.863H199.024Z" fill="#00499B"/>
<path d="M117.468 146.88H105.574C105.396 146.88 105.25 146.736 105.25 146.556V133.209C105.25 133.031 105.394 132.885 105.574 132.885H117.468C117.646 132.885 117.792 133.029 117.792 133.209V146.556C117.792 146.735 117.648 146.88 117.468 146.88ZM105.898 146.232H117.145V133.533H105.898V146.232Z" fill="white"/>
<path d="M32.4761 121.961C32.4761 121.961 21.1955 121.161 22.1756 115.126C23.1557 109.09 30.8896 105.357 36.3425 104.374C41.7954 103.392 59.047 109.484 51.8094 115.771C44.5717 122.06 32.475 121.961 32.475 121.961H32.4761Z" fill="#003F85"/>
<path d="M48.8848 169.867L50.5107 180.263L55.2648 180.861L53.832 169.433L48.8848 169.867Z" fill="white"/>
<path d="M55.2652 181.089C55.2558 181.089 55.2465 181.089 55.2372 181.087L50.482 180.489C50.3813 180.476 50.3013 180.398 50.2847 180.298L48.6588 169.902C48.6495 169.839 48.6661 169.776 48.7045 169.726C48.7439 169.676 48.801 169.645 48.8644 169.64L53.8116 169.206C53.9352 169.195 54.0432 169.283 54.0577 169.405L55.4915 180.832C55.4998 180.902 55.476 180.973 55.4261 181.022C55.3836 181.065 55.3254 181.089 55.2652 181.089ZM50.7093 180.058L55.0025 180.598L53.6331 169.68L49.1489 170.073L50.7104 180.058H50.7093Z" fill="#003F85"/>
<path d="M49.4067 179.319C49.2676 180.31 49.0423 182.15 49.0236 183.8C49.0121 184.836 49.7856 185.709 50.8073 185.841C53.6957 186.214 60.2471 186.622 65.8287 186.112C66.2108 186.077 66.8867 185.797 67.0746 184.838C67.7059 181.616 62.1336 180.827 56.0245 178.49C55.7847 178.399 55.5147 178.453 55.3299 178.632L54.6716 179.274C54.0124 179.916 53.0343 180.098 52.1902 179.736L50.1864 178.876C49.8448 178.73 49.4596 178.949 49.4077 179.319H49.4067Z" fill="white"/>
<path d="M60.0143 186.581C56.2621 186.581 52.7611 186.324 50.7791 186.067C49.6359 185.92 48.7835 184.944 48.797 183.797C48.8157 182.123 49.0462 180.252 49.1822 179.286C49.2175 179.038 49.3618 178.825 49.5788 178.704C49.7948 178.582 50.0492 178.569 50.2765 178.667L52.2804 179.526C53.0414 179.852 53.9177 179.689 54.5126 179.111L55.1709 178.469C55.4169 178.231 55.7834 178.155 56.1053 178.278C57.5318 178.823 58.9023 179.276 60.2282 179.713C64.4705 181.113 67.8209 182.218 67.2987 184.883C67.1035 185.878 66.3964 186.29 65.8493 186.34C63.9534 186.514 61.9496 186.582 60.0133 186.582L60.0143 186.581ZM49.4075 179.319L49.6339 179.351C49.4999 180.306 49.2715 182.154 49.2528 183.803C49.2424 184.719 49.9235 185.497 50.8372 185.616C53.8232 186.001 60.2728 186.391 65.8077 185.886C65.9489 185.873 66.6612 185.76 66.8501 184.794C67.2956 182.525 64.2711 181.527 60.0849 180.146C58.7539 179.707 57.3782 179.253 55.9423 178.704C55.7855 178.644 55.608 178.68 55.4886 178.796L54.8303 179.438C54.1025 180.146 53.031 180.345 52.0997 179.946L50.0959 179.086C50.0004 179.046 49.8934 179.051 49.8021 179.102C49.7097 179.154 49.6484 179.245 49.6328 179.351L49.4065 179.319H49.4075Z" fill="#003F85"/>
<path d="M49.0277 183.552C49.0277 183.552 49.0246 183.719 49.0236 183.8C49.0121 184.836 49.7856 185.709 50.8073 185.841C53.6957 186.214 60.2471 186.622 65.8287 186.112C66.2108 186.077 66.8867 185.797 67.0746 184.838C67.1327 184.544 67.0964 184.014 67.0964 184.014L66.7008 184.033C61.061 184.314 55.4098 184.177 49.7898 183.626L49.0288 183.552H49.0277Z" fill="white"/>
<path d="M60.0143 186.581C56.2621 186.581 52.7611 186.324 50.7791 186.067C49.6359 185.92 48.7835 184.944 48.797 183.797C48.797 183.716 48.8012 183.546 48.8012 183.546C48.8022 183.483 48.8303 183.423 48.878 183.38C48.9258 183.338 48.9891 183.318 49.0514 183.324L49.8124 183.399C55.4024 183.947 61.0806 184.084 66.6903 183.805L67.0858 183.785C67.2063 183.781 67.3163 183.873 67.3246 183.998C67.3267 184.021 67.361 184.562 67.2987 184.882C67.1035 185.877 66.3964 186.289 65.8493 186.339C63.9534 186.513 61.9496 186.581 60.0133 186.581H60.0143ZM49.2528 183.803C49.2424 184.717 49.9235 185.497 50.8372 185.615C53.8232 186 60.2728 186.39 65.8077 185.884C65.9489 185.872 66.6612 185.759 66.8501 184.793C66.8782 184.652 66.8813 184.429 66.8782 184.252L66.7121 184.261C61.0806 184.54 55.3795 184.403 49.7678 183.853L49.2528 183.802V183.803Z" fill="#003F85"/>
<path d="M57.4252 182.197C57.367 182.197 57.3089 182.175 57.2642 182.13C57.1749 182.042 57.1749 181.897 57.2642 181.807L59.4082 179.651C59.4975 179.562 59.6418 179.562 59.7311 179.651C59.8204 179.739 59.8204 179.885 59.7311 179.974L57.5871 182.13C57.5425 182.175 57.4843 182.198 57.4252 182.198V182.197Z" fill="#003F85"/>
<path d="M59.5312 182.421C59.4741 182.421 59.418 182.4 59.3734 182.358C59.282 182.27 59.2789 182.126 59.3661 182.035L61.0792 180.245C61.1665 180.153 61.3108 180.15 61.4021 180.237C61.4935 180.325 61.4966 180.469 61.4094 180.56L59.6963 182.35C59.6516 182.397 59.5914 182.421 59.5312 182.421Z" fill="#003F85"/>
<path d="M26.8125 171.783L26.0266 180.223H22.6211L22.6813 171.922L26.8125 171.783Z" fill="white"/>
<path d="M26.0265 180.451H22.621C22.5597 180.451 22.5016 180.427 22.459 180.384C22.4165 180.341 22.3926 180.282 22.3926 180.222L22.4528 171.921C22.4528 171.798 22.5514 171.699 22.6729 171.695L26.8041 171.555C26.8685 171.548 26.9329 171.579 26.9775 171.627C27.0221 171.675 27.045 171.739 27.0388 171.805L26.2518 180.246C26.2403 180.363 26.1427 180.452 26.0244 180.452L26.0265 180.451ZM22.8504 179.994H25.8178L26.5612 172.019L22.9076 172.141L22.8504 179.993V179.994Z" fill="#003F85"/>
<path d="M22.2618 188.438C20.7263 188.184 19.8604 187.075 19.8136 186.119C19.6735 183.278 20.4189 180.579 21.8175 178.746C21.9701 178.546 22.2753 178.564 22.4093 178.776L22.4456 178.81C22.6865 179.031 23.0457 179.015 23.2938 178.803C23.4994 178.628 23.7621 178.524 24.0435 178.52L24.4338 178.515C24.872 178.509 25.3049 178.755 25.5344 179.123C25.6413 179.295 25.8874 179.304 26.0203 179.153L26.2414 178.903C26.392 178.758 26.6422 178.861 26.6484 179.07L26.8883 186.842C26.772 188.363 24.2698 188.772 22.2597 188.439L22.2618 188.438Z" fill="white"/>
<path d="M23.5757 188.773C23.1085 188.773 22.6465 188.733 22.225 188.664C20.5607 188.389 19.6377 187.181 19.5857 186.131C19.4425 183.245 20.19 180.504 21.6363 178.609C21.7526 178.457 21.9374 178.367 22.1284 178.38C22.3112 178.388 22.4783 178.479 22.5842 178.627L22.6008 178.643C22.7493 178.779 22.9798 178.773 23.1469 178.63C23.3961 178.417 23.7138 178.297 24.0409 178.292L24.4313 178.286C24.9452 178.289 25.4529 178.56 25.7291 179.002C25.7395 179.018 25.7561 179.028 25.7779 179.03C25.8059 179.033 25.8319 179.021 25.8506 179.001L26.0717 178.75C26.2191 178.607 26.4112 178.57 26.5846 178.64C26.759 178.711 26.8712 178.873 26.8774 179.062L27.1172 186.833C27.1172 186.842 27.1172 186.85 27.1172 186.858C27.0819 187.318 26.8618 187.711 26.4631 188.023C25.78 188.559 24.6649 188.773 23.5757 188.773ZM22.1014 178.835C22.0755 178.835 22.0319 178.842 21.9986 178.885C20.6167 180.696 19.9034 183.328 20.0405 186.109C20.0831 186.977 20.8732 187.978 22.2987 188.214C23.8457 188.47 25.4425 188.244 26.1818 187.665C26.4725 187.436 26.6334 187.158 26.6614 186.835L26.4216 179.078L26.406 179.063L26.1911 179.305C26.0779 179.433 25.9087 179.501 25.7395 179.486C25.5733 179.472 25.428 179.384 25.3408 179.245C25.1508 178.94 24.7863 178.75 24.4365 178.744L24.0461 178.749C23.8249 178.753 23.611 178.834 23.4418 178.978C23.0971 179.273 22.6122 179.274 22.2914 178.98L22.2541 178.946C22.2395 178.932 22.226 178.917 22.2146 178.899C22.1803 178.844 22.1274 178.837 22.1056 178.836H22.0994L22.1014 178.835Z" fill="#003F85"/>
<path d="M26.8257 184.762C26.7821 184.932 26.7105 185.095 26.6087 185.238C26.263 185.722 25.3192 186.671 23.3019 186.506C20.9129 186.311 19.8186 184.637 19.8186 184.637C19.7895 185.124 19.7874 185.619 19.8113 186.118C19.8591 187.073 20.7239 188.183 22.2595 188.437C24.2696 188.77 26.7717 188.362 26.888 186.84L26.8237 184.761L26.8257 184.762Z" fill="white"/>
<path d="M23.5755 188.773C23.1083 188.773 22.6463 188.733 22.2247 188.664C20.5604 188.389 19.6374 187.181 19.5855 186.132C19.5606 185.629 19.5627 185.122 19.5928 184.626C19.599 184.527 19.6665 184.444 19.762 184.418C19.8575 184.393 19.9582 184.432 20.0112 184.514C20.0216 184.529 21.0806 186.096 23.3222 186.28C25.1848 186.436 26.0652 185.609 26.4245 185.106C26.5065 184.992 26.5667 184.857 26.6062 184.706C26.6342 184.596 26.7391 184.524 26.8522 184.536C26.9654 184.548 27.0516 184.642 27.0547 184.756L27.1191 186.834C27.1191 186.843 27.1191 186.851 27.1191 186.859C27.0838 187.319 26.8637 187.712 26.465 188.024C25.7818 188.56 24.6667 188.774 23.5776 188.774L23.5755 188.773ZM20.0257 185.239C20.0216 185.528 20.0257 185.819 20.0403 186.108C20.0828 186.976 20.8729 187.978 22.2985 188.213C23.8455 188.469 25.4423 188.243 26.1815 187.664C26.4722 187.436 26.6332 187.157 26.6612 186.834L26.6228 185.585C26.168 186.102 25.1578 186.885 23.2838 186.734C21.6132 186.597 20.5521 185.777 20.0257 185.238V185.239Z" fill="#003F85"/>
<path d="M25.1804 182.835H22.4061C22.2805 182.835 22.1777 182.733 22.1777 182.607C22.1777 182.48 22.2795 182.378 22.4061 182.378H25.1804C25.306 182.378 25.4088 182.48 25.4088 182.607C25.4088 182.733 25.307 182.835 25.1804 182.835Z" fill="#003F85"/>
<path d="M25.4675 181.427H22.6933C22.5676 181.427 22.4648 181.325 22.4648 181.199C22.4648 181.072 22.5666 180.97 22.6933 180.97H25.4675C25.5931 180.97 25.6959 181.072 25.6959 181.199C25.6959 181.325 25.5941 181.427 25.4675 181.427Z" fill="#003F85"/>
<path d="M50.738 107.418C50.738 107.418 56.9914 148.792 55.7113 176.06L49.0239 176.231C49.0239 176.231 41.5962 134.392 38.0184 127.514C38.0184 127.514 28.0294 165.846 27.6546 175.825L21.6047 175.641C21.6047 175.641 20.6848 154.441 20.6381 148.182C20.5052 130.271 22.2329 122.135 23.1797 118.276C24.0488 114.731 24.9821 111.851 25.6632 109.903L27.9391 103.471L50.738 107.418Z" fill="#003F85"/>
<path d="M37.929 129.407C37.9104 129.407 37.8917 129.405 37.874 129.4C37.7515 129.37 37.6778 129.246 37.7079 129.123L38.8417 124.578C39.176 123.308 40.1862 122.35 41.4778 122.076L42.1973 121.923C42.3208 121.897 42.4413 121.976 42.4683 122.098C42.4942 122.222 42.4153 122.342 42.2928 122.369L41.5733 122.522C40.451 122.761 39.5747 123.591 39.285 124.691L38.1523 129.233C38.1263 129.337 38.0339 129.407 37.9311 129.407H37.929Z" fill="white"/>
<path d="M8.33094 59.9757C8.33094 59.9757 7.51902 55.4281 7.23039 54.2082C6.90334 52.8211 9.08678 54.0929 9.88001 58.3799L8.33094 59.9757Z" fill="white"/>
<path d="M8.33154 60.2041C8.30974 60.2041 8.2869 60.201 8.2651 60.1937C8.18307 60.1688 8.12182 60.1003 8.10728 60.0162C8.09898 59.9705 7.29225 55.4603 7.00985 54.2601C6.93198 53.9289 6.9704 53.6891 7.12406 53.5489C7.19362 53.4845 7.34936 53.3911 7.60373 53.4762C8.31389 53.715 9.55876 55.3814 10.1059 58.3373C10.1194 58.41 10.0966 58.4847 10.0457 58.5377L8.49663 60.1335C8.45302 60.1781 8.39384 60.2031 8.33258 60.2031L8.33154 60.2041ZM7.43138 53.8998C7.42411 53.9331 7.41892 54.0099 7.45318 54.1563C7.68887 55.1582 8.2651 58.3238 8.4769 59.4981L9.63351 58.3062C9.04171 55.2433 7.75739 53.9372 7.43034 53.8998H7.43138Z" fill="#003F85"/>
<path d="M24.5534 83.2979C24.5534 83.2979 26.2208 78.3517 23.9377 74.7645C23.0531 73.3743 16.0459 80.7262 15.5839 79.4543C13.74 74.371 12.3581 67.0327 12.33 66.5987C12.1847 64.3124 12.5782 65.2905 13.3693 62.9959C14.1605 60.7004 13.2375 58.6322 12.7848 58.3809C12.3321 58.1296 11.6157 58.8201 11.6157 58.8201C11.6157 58.8201 11.2451 57.4662 10.4311 57.4268C10.0044 57.406 9.89534 57.8348 9.61501 58.1151L8.49058 59.2977C8.37014 59.4243 8.24763 59.55 8.11993 59.6694C7.90293 59.8698 7.42222 60.3899 7.48867 61.0015C7.55408 61.5974 8.49266 63.6625 8.94222 64.627C9.09588 64.9572 9.18102 65.3133 9.1914 65.6767C9.20075 66.0017 9.09692 67.367 9.02217 68.291C8.76364 69.784 8.5726 89.0508 14.0888 90.9176C16.6201 91.7742 24.5534 83.2969 24.5534 83.2969V83.2979Z" fill="white"/>
<path d="M14.4744 91.2042C14.3093 91.2042 14.1556 91.1814 14.0155 91.1347C11.5995 90.3165 9.96734 86.3992 9.16373 79.4907C8.56362 74.3368 8.65811 69.0614 8.79827 68.2526C8.91144 66.8427 8.97166 65.9228 8.96439 65.683C8.95505 65.3507 8.87821 65.0278 8.73597 64.7236C8.09849 63.3583 7.32603 61.6089 7.26166 61.0264C7.18275 60.309 7.72679 59.7213 7.96455 59.5023C8.09226 59.3839 8.21373 59.2583 8.32483 59.1409L9.44821 57.9584C9.52401 57.8826 9.58423 57.7964 9.6486 57.705C9.81368 57.4704 10.0203 57.1828 10.4408 57.1994C11.1343 57.2337 11.5413 57.9885 11.722 58.436C12.0179 58.2211 12.4986 57.9615 12.8952 58.1826C13.5036 58.5211 14.3955 60.7181 13.5846 63.0718C13.2679 63.9906 13.0136 64.3987 12.8267 64.6966C12.5692 65.1088 12.4726 65.2635 12.5567 66.5852C12.5837 67.0109 13.9418 74.2631 15.7971 79.3775C16.1325 79.5031 17.9245 78.0932 19.1102 77.1608C21.3673 75.3875 22.904 74.2371 23.7128 74.3731C23.8913 74.4032 24.0346 74.4977 24.1281 74.6431C26.4423 78.2801 24.8372 83.1661 24.7676 83.3717C24.7572 83.4028 24.7406 83.4308 24.7178 83.4547C23.9401 84.2864 17.3763 91.2053 14.4723 91.2053L14.4744 91.2042ZM10.4013 57.6531C10.257 57.6531 10.1802 57.7424 10.0234 57.9656C9.95384 58.0643 9.87494 58.1764 9.7763 58.2761L8.65603 59.4545C8.53974 59.577 8.41204 59.7089 8.27499 59.8355C8.08811 60.0079 7.65931 60.4647 7.71537 60.9755C7.75898 61.3701 8.29472 62.699 9.1492 64.5295C9.31739 64.8908 9.40876 65.2749 9.42018 65.6695C9.42953 65.9976 9.33297 67.286 9.24991 68.3087C8.93843 70.1111 8.93013 88.9305 14.1619 90.7017C16.1107 91.3631 22.144 85.5323 24.3513 83.1785C24.5081 82.675 25.8266 78.1576 23.7449 74.886C23.7273 74.858 23.7024 74.832 23.638 74.8206C22.9673 74.7075 20.9873 76.2648 19.3936 77.518C17.3919 79.091 16.2311 79.9745 15.6642 79.8105C15.5251 79.771 15.4202 79.6713 15.3694 79.5312C13.5005 74.3783 12.13 67.0441 12.103 66.6122C12.0137 65.2147 12.1207 64.9666 12.4405 64.4526C12.6149 64.1734 12.8537 63.7902 13.1537 62.9202C13.9034 60.7451 13.0291 58.7765 12.6741 58.5793C12.4674 58.464 12.0148 58.7526 11.7739 58.9831C11.7158 59.0382 11.6327 59.06 11.5548 59.0382C11.477 59.0174 11.4167 58.9561 11.3949 58.8793C11.3036 58.5471 10.9485 57.6791 10.419 57.6531C10.4128 57.6531 10.4065 57.6531 10.4003 57.6531H10.4013Z" fill="#003F85"/>
<path d="M10.1177 63.1339C9.98999 63.1339 9.87371 63.1111 9.77404 63.0716C9.42207 62.9325 9.22065 62.5837 9.24868 62.1601C9.3089 61.2609 9.85087 60.7231 9.87475 60.7003C9.96507 60.6131 10.1094 60.6141 10.1976 60.7044C10.2859 60.7948 10.2838 60.9391 10.1935 61.0273C10.1893 61.0304 9.75327 61.4717 9.70447 62.1902C9.68994 62.4155 9.77611 62.5816 9.94223 62.647C10.2059 62.7519 10.6825 62.6003 11.1508 62.0261C11.9814 61.0086 11.3761 58.8158 11.3698 58.794C11.3356 58.6726 11.4062 58.5469 11.5276 58.5127C11.6502 58.4795 11.7747 58.549 11.809 58.6705C11.837 58.7702 12.4849 61.1135 11.5048 62.3158C11.0106 62.9211 10.5102 63.135 10.1187 63.135L10.1177 63.1339Z" fill="#003F85"/>
<path d="M20.7825 91.6505C24.8234 88.6208 29.7904 85.6836 29.7904 85.6836L27.0618 71.877C27.0618 71.877 21.8 74.0832 18.1484 77.5323L20.7814 91.6505H20.7825Z" fill="white"/>
<path d="M20.7831 91.879C20.7551 91.879 20.7271 91.8738 20.7001 91.8634C20.6263 91.8354 20.5734 91.7699 20.5589 91.6931L17.9259 77.575C17.9113 77.4992 17.9373 77.4203 17.9933 77.3673C21.6324 73.9297 26.9223 71.6891 26.9753 71.6673C27.0386 71.6403 27.1102 71.6434 27.1704 71.6767C27.2307 71.7099 27.2732 71.767 27.2867 71.8334L30.0153 85.6401C30.0339 85.7356 29.9914 85.8311 29.9073 85.881C29.8574 85.9101 24.9039 88.8473 20.9202 91.8343C20.8797 91.8644 20.8319 91.88 20.7831 91.88V91.879ZM18.3972 77.6134L20.9399 91.2487C24.5104 88.6043 28.7237 86.0564 29.5356 85.5695L26.8932 72.1999C25.8072 72.6858 21.512 74.7094 18.3962 77.6134H18.3972Z" fill="#003F85"/>
<path d="M63.1163 89.5201C59.0755 86.4904 54.1895 85.3016 54.1895 85.3016L55.6482 76.5554C55.6482 76.5554 63.1163 81.5193 66.2685 86.8528L63.1163 89.5201Z" fill="white"/>
<path d="M63.1163 89.7476C63.0685 89.7476 63.0197 89.732 62.9792 89.7019C59.0214 86.7346 54.1842 85.5343 54.1354 85.5229C54.0191 85.4949 53.9444 85.3817 53.9641 85.2634L55.4228 76.5171C55.4353 76.4403 55.4862 76.3759 55.5568 76.3458C55.6274 76.3147 55.7094 76.3219 55.7738 76.3645C55.8485 76.4143 63.3219 81.4187 66.4636 86.7366C66.5207 86.8321 66.4999 86.9547 66.4148 87.0273L63.2627 89.6946C63.2201 89.7309 63.1682 89.7486 63.1152 89.7486L63.1163 89.7476ZM54.449 85.1336C55.4124 85.3962 59.5738 86.6307 63.1069 89.2284L65.9725 86.8031C63.19 82.2317 57.2055 77.9125 55.8143 76.9449L54.4479 85.1336H54.449Z" fill="#003F85"/>
<path d="M55.3027 90.0592C51.2618 87.0295 47.8086 86.4751 47.8086 86.4751L50.5371 72.6685C50.5371 72.6685 55.799 74.8747 59.4505 78.3238L55.3037 90.0581L55.3027 90.0592Z" fill="white"/>
<path d="M55.303 90.2875C55.2542 90.2875 55.2064 90.2719 55.1659 90.2418C51.2164 87.2807 47.8058 86.7066 47.7725 86.7014C47.7113 86.6921 47.6573 86.6568 47.621 86.6069C47.5857 86.556 47.5722 86.4927 47.5846 86.4325L50.3131 72.6258C50.3266 72.5583 50.3692 72.5012 50.4294 72.469C50.4896 72.4369 50.5613 72.4327 50.6246 72.4597C50.6776 72.4815 55.9664 74.7221 59.6065 78.1597C59.6719 78.222 59.6948 78.3165 59.6647 78.4016L55.5179 90.1359C55.494 90.2045 55.438 90.2574 55.3684 90.2782C55.3466 90.2844 55.3248 90.2875 55.3019 90.2875H55.303ZM48.0768 86.2954C48.9053 86.4709 51.8051 87.2226 55.1908 89.6926L59.185 78.3892C56.0692 75.4924 51.7895 73.4772 50.7056 72.9923L48.0768 86.2954Z" fill="#003F85"/>
<path d="M25.1543 72.1988L27.0564 93.1206L44.7004 92.9576C44.7004 92.9576 55.057 75.5015 46.6347 70.3632C39.9712 68.3895 30.4182 69.1453 25.1543 72.1988Z" fill="white"/>
<path d="M27.0582 93.3492C26.9398 93.3492 26.8412 93.2599 26.8308 93.1415L24.9287 72.2197C24.9204 72.1315 24.9651 72.0463 25.0419 72.0017C30.3349 68.9316 39.8494 68.1165 46.7019 70.1453C46.7206 70.1505 46.7393 70.1588 46.7559 70.1692C50.2984 72.3298 51.0906 76.9936 49.0463 83.655C47.52 88.6303 44.9244 93.0315 44.8984 93.0751C44.858 93.1436 44.7842 93.1862 44.7043 93.1872L27.0603 93.3502H27.0582V93.3492ZM25.3959 72.3246L27.2658 92.8913L44.5693 92.7314C45.4228 91.2446 54.2884 75.3459 46.542 70.5751C39.9636 68.6377 30.529 69.4237 25.3959 72.3256V72.3246Z" fill="#003F85"/>
<path d="M34.3536 59.5239L33.6092 69.1932C33.3154 72.1885 39.8647 72.8987 39.8834 68.6564L39.5823 60.2196L34.3547 59.5239H34.3536Z" fill="white"/>
<path d="M36.678 71.8709C35.8765 71.8709 35.0708 71.6549 34.4385 71.2313C33.6775 70.7215 33.3037 69.9906 33.3837 69.1714L34.1281 59.5064C34.1333 59.4441 34.1634 59.3859 34.2122 59.3465C34.261 59.307 34.3243 59.2894 34.3856 59.2977L39.6132 59.9933C39.7232 60.0078 39.8073 60.1002 39.8115 60.2113L40.1126 68.6482C40.1074 69.9096 39.5446 70.896 38.5272 71.4359C37.979 71.7276 37.3301 71.8709 36.678 71.8709ZM34.5642 59.7825L33.8384 69.2109C33.7574 70.0405 34.2579 70.5606 34.6929 70.8513C35.6917 71.521 37.248 71.5989 38.3143 71.033C38.9238 70.7101 39.6505 70.0342 39.6568 68.6565L39.3629 60.4211L34.5652 59.7825H34.5642Z" fill="#003F85"/>
<path d="M44.2236 50.4321C42.5417 50.0458 44.3856 52.1379 38.4115 49.2557C36.0318 48.1084 36.8115 51.2107 36.1938 50.9148C33.9117 49.8216 33.2856 49.5464 32.0636 49.6523C31.2548 49.7219 29.36 50.9595 29.442 52.0382C29.712 55.5569 31.3773 54.9215 31.912 58.0424C32.2879 60.2342 32.7686 60.963 33.5556 61.4074C34.3519 61.857 35.1659 60.8384 36.0723 61.2641C37.2455 61.8154 36.6475 63.8816 37.6992 64.9593C38.3617 65.6383 40.0758 66.1937 43.12 65.3164C43.6131 65.1742 43.9339 64.7018 43.881 64.192C43.8125 63.54 43.7221 62.7156 43.5695 61.9359C42.8407 58.2179 41.7162 57.2139 42.3236 56.3864C43.2549 55.1187 45.7727 56.3646 46.4029 55.3004C47.058 54.1947 46.5265 50.9605 44.2236 50.4321Z" fill="#003F85"/>
<path d="M37.2871 55.4406L37.6225 56.4207C37.7803 56.8827 37.9059 57.3531 37.9983 57.8317C38.1717 58.7287 38.5299 60.2581 38.7209 61.1209C39.3356 63.893 43.038 61.5922 43.038 61.5922L43.3827 60.9163L43.8457 60.8156C43.935 60.7959 44.0212 60.7585 44.0887 60.6962C44.2579 60.5426 44.2974 60.3079 44.2081 60.1148C43.7201 59.0579 42.7255 56.7031 42.5614 54.7128C42.5614 54.7128 39.9139 53.5354 37.2881 55.4406H37.2871Z" fill="white"/>
<path d="M40.3601 62.7156C40.0746 62.7156 39.7963 62.6719 39.543 62.565C39.0041 62.3387 38.6522 61.8694 38.4975 61.1706C38.4445 60.9329 38.3791 60.6432 38.3085 60.3317C38.1268 59.5281 37.8994 58.5283 37.7738 57.8752C37.6835 57.4091 37.5599 56.945 37.4063 56.4944L37.0709 55.5142C37.0387 55.4198 37.0709 55.3149 37.1529 55.2557C39.8534 53.2955 42.5394 54.4532 42.6525 54.503C42.7283 54.5373 42.7802 54.6099 42.7875 54.693C42.9516 56.6781 43.9805 59.0786 44.4145 60.0182C44.5484 60.3079 44.4788 60.6484 44.2411 60.8644C44.1497 60.9474 44.0293 61.0076 43.8933 61.0377L43.5361 61.1156L43.2412 61.695C43.2225 61.7323 43.1935 61.7635 43.1582 61.7853C43.0845 61.831 41.6444 62.7156 40.3601 62.7156ZM37.5578 55.5288L37.8371 56.3469C37.9981 56.8173 38.1268 57.3021 38.2213 57.7891C38.3459 58.4348 38.5722 59.4305 38.7529 60.231C38.8235 60.5446 38.8899 60.8342 38.9429 61.072C39.0654 61.6254 39.3198 61.9763 39.7195 62.1445C40.7889 62.5951 42.5373 61.6212 42.8633 61.4302L43.1779 60.8124C43.209 60.7512 43.2661 60.7076 43.3326 60.693L43.7957 60.5923C43.8528 60.5799 43.9016 60.557 43.9337 60.528C44.023 60.4459 44.05 60.3193 44.0002 60.2113C43.4613 59.0453 42.5425 56.8256 42.3463 54.8747C41.8219 54.6888 39.6863 54.0752 37.5589 55.5288H37.5578Z" fill="#003F85"/>
<path d="M37.4455 58.6892C37.4455 58.6892 36.6429 56.3324 35.6441 56.9179C34.6453 57.5046 35.5943 60.0773 37.4455 58.6892Z" fill="white"/>
<path d="M38.5293 75.5441L41.3118 90.6237L34.5352 90.5728L36.7653 75.5961L35.1332 72.4761L36.947 70.3363L38.2864 70.2896L39.9237 72.5228L38.5293 75.5441Z" fill="#003F85"/>
<path d="M32.8453 75.4548C31.5516 73.2132 30.4833 70.3144 31.8756 68.4663L33.7849 66.366C33.7849 66.366 34.8616 69.515 37.4167 70.3113L32.8463 75.4538L32.8453 75.4548Z" fill="white"/>
<path d="M32.8452 75.6823C32.8379 75.6823 32.8296 75.6823 32.8224 75.6812C32.7497 75.674 32.6843 75.6314 32.6479 75.5681C31.3792 73.3701 30.1842 70.3311 31.6938 68.3283L33.6166 66.2114C33.6706 66.1522 33.7516 66.1252 33.8316 66.1418C33.9105 66.1584 33.9748 66.2155 34.0018 66.2913C34.0122 66.3214 35.0733 69.3417 37.4852 70.0934C37.5589 70.1162 37.616 70.1754 37.6367 70.2502C37.6575 70.3249 37.6388 70.4049 37.5879 70.463L33.0165 75.6055C32.9729 75.6543 32.9106 75.6823 32.8463 75.6823H32.8452ZM33.7059 66.7907L32.0437 68.6191C30.7002 70.4028 31.9191 73.3161 32.8867 75.0635L37.0211 70.4121C35.0878 69.6345 34.0569 67.613 33.7059 66.7907Z" fill="#003F85"/>
<path d="M37.877 70.2625C39.6119 69.3437 39.8901 66.5383 39.8901 66.5383C39.8901 66.5383 41.9158 68.0168 42.3767 70.222C43.0537 73.4635 41.76 75.6604 41.76 75.6604L37.878 70.2625H37.877Z" fill="white"/>
<path d="M41.7584 75.8879C41.6857 75.8879 41.6161 75.8526 41.5735 75.7934L37.6915 70.3956C37.6531 70.3416 37.6396 70.2741 37.6541 70.2107C37.6687 70.1464 37.7112 70.0924 37.7694 70.0612C39.3735 69.2109 39.66 66.5426 39.6621 66.5156C39.6704 66.4346 39.7213 66.363 39.7961 66.3298C39.8708 66.2965 39.957 66.3059 40.0234 66.3536C40.1096 66.4159 42.1259 67.91 42.5983 70.1754C43.2846 73.4657 42.0086 75.6834 41.9546 75.7758C41.9151 75.8422 41.8456 75.8848 41.7687 75.8879C41.7656 75.8879 41.7615 75.8879 41.7584 75.8879ZM38.2065 70.3312L41.721 75.2172C42.0335 74.5029 42.6544 72.6735 42.1518 70.2689C41.8206 68.6824 40.6225 67.4698 40.0556 66.9714C39.9113 67.7677 39.4628 69.5058 38.2065 70.3322V70.3312Z" fill="#003F85"/>
<path d="M51.6315 72.116L53.2221 94.0864C53.2221 94.0864 54.6227 109.687 54.4026 111.537C54.1814 113.387 52.1797 116.534 45.0728 113.952C43.1625 113.258 41.6165 112.698 39.1403 112.335C38.6782 112.267 38.1176 108.394 37.6493 108.341C37.2143 108.291 36.0535 112.06 35.6175 112.022C29.687 111.52 23.8084 112.24 22.4473 115.015L23.7212 100.462C23.9725 97.5915 24.0213 94.7073 23.8697 91.8292C23.5187 85.1959 22.9612 73.0628 23.5364 72.523C24.8394 71.2989 26.7415 70.4184 28.9042 69.7685C28.9249 69.7622 28.9675 69.7498 28.9675 69.7498C28.9675 69.7498 34.8367 88.3438 37.5684 88.266C39.7736 88.2026 44.7676 69.2192 44.7904 69.2234C48.1232 69.7633 51.6315 72.117 51.6315 72.117V72.116Z" fill="white"/>
<path d="M22.4489 115.243C22.4282 115.243 22.4084 115.24 22.3877 115.234C22.2818 115.205 22.2122 115.105 22.2215 114.995L23.4955 100.441C23.7447 97.5935 23.7945 94.6999 23.6429 91.8406C22.6493 73.0431 23.1996 72.526 23.3813 72.3557C24.6106 71.2012 26.3964 70.2834 28.8404 69.5493L28.9037 69.5307C29.0231 69.4964 29.1488 69.5618 29.1861 69.6812C31.4298 76.7901 35.6783 88.0385 37.5503 88.0385C37.5544 88.0385 37.5586 88.0385 37.5638 88.0385C38.4484 88.0136 40.7201 83.165 44.4412 69.6334C44.6177 68.9908 44.6249 68.9669 44.8284 68.9991C48.1726 69.541 51.6155 71.8314 51.7608 71.928C51.819 71.9674 51.8564 72.0308 51.8615 72.1014L53.4521 94.0718C53.5093 94.7062 54.8527 109.714 54.6316 111.566C54.5652 112.122 54.2526 113.511 52.7856 114.414C51.033 115.493 48.4135 115.411 44.9977 114.169C43.0821 113.474 41.5683 112.923 39.1097 112.563C38.7609 112.512 38.5885 111.963 38.1826 110.408C38.0248 109.801 37.7943 108.92 37.6323 108.631C37.435 108.895 37.0851 109.712 36.8443 110.276C36.2068 111.764 35.9545 112.287 35.6015 112.253C30.2451 111.799 24.0323 112.313 22.6555 115.118C22.6161 115.198 22.5361 115.246 22.451 115.246L22.4489 115.243ZM39.2115 112.115C41.694 112.482 43.2212 113.037 45.1524 113.738C48.3844 114.913 50.9417 115.011 52.5458 114.023C53.8436 113.224 54.1197 111.999 54.1779 111.51C54.3938 109.705 53.0109 94.2628 52.9974 94.1071L51.4141 72.2457C50.8534 71.8854 47.8445 70.0134 44.9551 69.4829C44.9354 69.5545 44.9105 69.6449 44.8803 69.7528C44.4661 71.2604 43.2036 75.8495 41.7791 80.126C39.2935 87.589 38.1899 88.4756 37.5762 88.4933C37.1142 88.5068 35.7074 88.5462 32.032 79.1189C30.4601 75.0863 29.1301 71.0008 28.8196 70.0321C26.5531 70.7288 24.8286 71.6227 23.6938 72.688C23.5733 72.8884 23.2058 74.9057 24.0987 91.8167C24.2513 94.6979 24.2005 97.6133 23.9502 100.482L22.7531 114.156C25.3373 111.207 33.0547 111.579 35.588 111.791C35.7697 111.617 36.1611 110.705 36.4227 110.093C37.0779 108.564 37.3188 108.074 37.6759 108.113C38.0341 108.154 38.2106 108.71 38.6228 110.289C38.7941 110.948 39.0516 111.932 39.2115 112.113V112.115Z" fill="#003F85"/>
<path d="M70.0316 82.1921H54.8253C54.3457 82.1921 53.8919 82.5908 53.811 83.083L50.3598 104.196C50.2799 104.688 50.6028 105.087 51.0824 105.087H66.2887C66.7683 105.087 67.222 104.688 67.303 104.196L70.7542 83.083C70.8341 82.5908 70.5112 82.1921 70.0316 82.1921Z" fill="#003F85"/>
<path d="M69.4128 91.2593L69.0535 93.3742L63.3463 92.3826C62.497 92.2456 61.683 92.8301 61.5916 93.6784C61.5241 94.3107 61.6923 95.0385 62.498 95.6365C63.4449 96.3405 66.3696 97.3912 68.7213 97.8241C71.3533 98.3079 71.5474 94.5007 70.8964 92.5976C70.3887 91.1139 69.4128 91.2582 69.4128 91.2582V91.2593Z" fill="white"/>
<path d="M69.1553 98.094C69.0017 98.094 68.8428 98.0795 68.6788 98.0483C66.3708 97.6237 63.3598 96.5615 62.361 95.8192C61.6166 95.2658 61.2719 94.5162 61.3643 93.6534C61.4141 93.1934 61.6467 92.7823 62.0215 92.4968C62.4067 92.203 62.903 92.0794 63.3816 92.1562L68.8657 93.1083L69.1865 91.2197C69.2031 91.1221 69.2799 91.0463 69.3786 91.0318C69.4253 91.0256 70.5487 90.8782 71.1114 92.5227C71.5412 93.7801 71.6897 96.2065 70.6421 97.4212C70.26 97.8645 69.7513 98.0919 69.1553 98.0919V98.094ZM63.0982 92.5902C62.8116 92.5902 62.5282 92.6837 62.2977 92.8591C62.0236 93.0678 61.8533 93.3679 61.817 93.7022C61.7412 94.4061 62.0163 94.9948 62.632 95.4537C63.4917 96.0933 66.296 97.1471 68.7598 97.5998C69.4035 97.7182 69.9205 97.5593 70.2943 97.1243C71.1851 96.0912 71.0896 93.8745 70.6774 92.6712C70.3587 91.7389 69.8572 91.5333 69.6018 91.4918L69.2758 93.4104C69.2654 93.4707 69.2322 93.5236 69.1823 93.5589C69.1325 93.5942 69.0702 93.6077 69.0121 93.5973L63.3048 92.6058C63.2363 92.5944 63.1667 92.5892 63.0971 92.5892L63.0982 92.5902Z" fill="#003F85"/>
<path d="M22.7981 118.904C22.7773 118.904 22.7566 118.901 22.7358 118.895C22.6143 118.861 22.5448 118.734 22.579 118.614L23.6142 114.975C23.6484 114.853 23.7751 114.783 23.8966 114.818C24.0181 114.852 24.0876 114.979 24.0534 115.101L23.0182 118.74C22.9902 118.84 22.8978 118.906 22.7992 118.906L22.7981 118.904Z" fill="white"/>
<path d="M55.8232 31.0696C54.4464 31.0696 53.3262 29.9493 53.3262 28.5726C53.3262 27.1959 54.4464 26.0767 55.8232 26.0767C57.1999 26.0767 58.3191 27.1969 58.3191 28.5726C58.3191 29.9483 57.1989 31.0696 55.8232 31.0696ZM55.8232 26.5325C54.6977 26.5325 53.783 27.4472 53.783 28.5726C53.783 29.6981 54.6977 30.6128 55.8232 30.6128C56.9486 30.6128 57.8633 29.6981 57.8633 28.5726C57.8633 27.4472 56.9486 26.5325 55.8232 26.5325Z" fill="#F3C521"/>
<path d="M46.2643 18.7538C46.2051 18.7538 46.147 18.731 46.1023 18.6863L45.0952 17.6689C45.007 17.5796 45.007 17.4353 45.0973 17.346C45.1866 17.2577 45.3309 17.2577 45.4202 17.348L46.4273 18.3655C46.5156 18.4548 46.5156 18.5991 46.4252 18.6884C46.3806 18.732 46.3224 18.7549 46.2643 18.7549V18.7538Z" fill="#F3C521"/>
<path d="M49.7897 22.3171C49.7305 22.3171 49.6724 22.2942 49.6277 22.2496L48.6206 21.2321C48.5324 21.1428 48.5324 20.9985 48.6227 20.9092C48.712 20.8209 48.8563 20.8209 48.9456 20.9113L49.9527 21.9288C50.0409 22.018 50.0409 22.1624 49.9506 22.2517C49.906 22.2953 49.8478 22.3181 49.7897 22.3181V22.3171Z" fill="#F3C521"/>
<path d="M45.2455 22.3058C45.1873 22.3058 45.1292 22.284 45.0845 22.2393C44.9953 22.15 44.9953 22.0057 45.0845 21.9164L46.0968 20.9041C46.1861 20.8148 46.3304 20.8148 46.4197 20.9041C46.509 20.9934 46.509 21.1377 46.4197 21.227L45.4074 22.2393C45.3628 22.284 45.3047 22.3058 45.2455 22.3058Z" fill="#F3C521"/>
<path d="M48.7884 18.7601C48.7303 18.7601 48.6722 18.7383 48.6275 18.6937C48.5382 18.6044 48.5382 18.4601 48.6275 18.3708L49.6398 17.3585C49.7291 17.2692 49.8734 17.2692 49.9627 17.3585C50.052 17.4478 50.052 17.5921 49.9627 17.6814L48.9504 18.6937C48.9058 18.7383 48.8476 18.7601 48.7895 18.7601H48.7884Z" fill="#F3C521"/>
<path d="M24.7549 25.682C23.1145 25.682 21.7793 24.3468 21.7793 22.7063C21.7793 21.0659 23.1145 19.7307 24.7549 19.7307C26.3954 19.7307 27.7306 21.0659 27.7306 22.7063C27.7306 24.3468 26.3954 25.682 24.7549 25.682ZM24.7549 20.1865C23.3657 20.1865 22.2351 21.3172 22.2351 22.7063C22.2351 24.0955 23.3657 25.2262 24.7549 25.2262C26.1441 25.2262 27.2748 24.0955 27.2748 22.7063C27.2748 21.3172 26.1441 20.1865 24.7549 20.1865Z" fill="#F3C521"/>
<path d="M40.08 208.66L37.32 213.976V217H35.952V213.976L33.18 208.66H34.704L36.636 212.752L38.568 208.66H40.08ZM44.0336 217.108C43.4096 217.108 42.8456 216.968 42.3416 216.688C41.8376 216.4 41.4416 216 41.1536 215.488C40.8656 214.968 40.7216 214.368 40.7216 213.688C40.7216 213.016 40.8696 212.42 41.1656 211.9C41.4616 211.38 41.8656 210.98 42.3776 210.7C42.8896 210.42 43.4616 210.28 44.0936 210.28C44.7256 210.28 45.2976 210.42 45.8096 210.7C46.3216 210.98 46.7256 211.38 47.0216 211.9C47.3176 212.42 47.4656 213.016 47.4656 213.688C47.4656 214.36 47.3136 214.956 47.0096 215.476C46.7056 215.996 46.2896 216.4 45.7616 216.688C45.2416 216.968 44.6656 217.108 44.0336 217.108ZM44.0336 215.92C44.3856 215.92 44.7136 215.836 45.0176 215.668C45.3296 215.5 45.5816 215.248 45.7736 214.912C45.9656 214.576 46.0616 214.168 46.0616 213.688C46.0616 213.208 45.9696 212.804 45.7856 212.476C45.6016 212.14 45.3576 211.888 45.0536 211.72C44.7496 211.552 44.4216 211.468 44.0696 211.468C43.7176 211.468 43.3896 211.552 43.0856 211.72C42.7896 211.888 42.5536 212.14 42.3776 212.476C42.2016 212.804 42.1136 213.208 42.1136 213.688C42.1136 214.4 42.2936 214.952 42.6536 215.344C43.0216 215.728 43.4816 215.92 44.0336 215.92ZM54.806 210.388V217H53.438V216.22C53.222 216.492 52.938 216.708 52.586 216.868C52.242 217.02 51.874 217.096 51.482 217.096C50.962 217.096 50.494 216.988 50.078 216.772C49.67 216.556 49.346 216.236 49.106 215.812C48.874 215.388 48.758 214.876 48.758 214.276V210.388H50.114V214.072C50.114 214.664 50.262 215.12 50.558 215.44C50.854 215.752 51.258 215.908 51.77 215.908C52.282 215.908 52.686 215.752 52.982 215.44C53.286 215.12 53.438 214.664 53.438 214.072V210.388H54.806ZM63.0641 210.28C63.5841 210.28 64.0481 210.388 64.4561 210.604C64.8721 210.82 65.1961 211.14 65.4281 211.564C65.6601 211.988 65.7761 212.5 65.7761 213.1V217H64.4201V213.304C64.4201 212.712 64.2721 212.26 63.9761 211.948C63.6801 211.628 63.2761 211.468 62.7641 211.468C62.2521 211.468 61.8441 211.628 61.5401 211.948C61.2441 212.26 61.0961 212.712 61.0961 213.304V217H59.7281V210.388H61.0961V211.144C61.3201 210.872 61.6041 210.66 61.9481 210.508C62.3001 210.356 62.6721 210.28 63.0641 210.28ZM73.5811 213.532C73.5811 213.78 73.5651 214.004 73.5331 214.204H68.4811C68.5211 214.732 68.7171 215.156 69.0691 215.476C69.4211 215.796 69.8531 215.956 70.3651 215.956C71.1011 215.956 71.6211 215.648 71.9251 215.032H73.4011C73.2011 215.64 72.8371 216.14 72.3091 216.532C71.7891 216.916 71.1411 217.108 70.3651 217.108C69.7331 217.108 69.1651 216.968 68.6611 216.688C68.1651 216.4 67.7731 216 67.4851 215.488C67.2051 214.968 67.0651 214.368 67.0651 213.688C67.0651 213.008 67.2011 212.412 67.4731 211.9C67.7531 211.38 68.1411 210.98 68.6371 210.7C69.1411 210.42 69.7171 210.28 70.3651 210.28C70.9891 210.28 71.5451 210.416 72.0331 210.688C72.5211 210.96 72.9011 211.344 73.1731 211.84C73.4451 212.328 73.5811 212.892 73.5811 213.532ZM72.1531 213.1C72.1451 212.596 71.9651 212.192 71.6131 211.888C71.2611 211.584 70.8251 211.432 70.3051 211.432C69.8331 211.432 69.4291 211.584 69.0931 211.888C68.7571 212.184 68.5571 212.588 68.4931 213.1H72.1531ZM80.9873 213.532C80.9873 213.78 80.9713 214.004 80.9393 214.204H75.8873C75.9273 214.732 76.1233 215.156 76.4753 215.476C76.8273 215.796 77.2593 215.956 77.7713 215.956C78.5073 215.956 79.0273 215.648 79.3313 215.032H80.8073C80.6073 215.64 80.2433 216.14 79.7153 216.532C79.1953 216.916 78.5473 217.108 77.7713 217.108C77.1393 217.108 76.5713 216.968 76.0673 216.688C75.5713 216.4 75.1793 216 74.8913 215.488C74.6113 214.968 74.4713 214.368 74.4713 213.688C74.4713 213.008 74.6073 212.412 74.8793 211.9C75.1593 211.38 75.5473 210.98 76.0433 210.7C76.5473 210.42 77.1233 210.28 77.7713 210.28C78.3953 210.28 78.9513 210.416 79.4393 210.688C79.9273 210.96 80.3073 211.344 80.5793 211.84C80.8513 212.328 80.9873 212.892 80.9873 213.532ZM79.5593 213.1C79.5513 212.596 79.3713 212.192 79.0193 211.888C78.6673 211.584 78.2313 211.432 77.7113 211.432C77.2393 211.432 76.8353 211.584 76.4993 211.888C76.1633 212.184 75.9633 212.588 75.8993 213.1H79.5593ZM81.8776 213.664C81.8776 213 82.0136 212.412 82.2856 211.9C82.5656 211.388 82.9416 210.992 83.4136 210.712C83.8936 210.424 84.4256 210.28 85.0096 210.28C85.4416 210.28 85.8656 210.376 86.2816 210.568C86.7056 210.752 87.0416 211 87.2896 211.312V208.12H88.6696V217H87.2896V216.004C87.0656 216.324 86.7536 216.588 86.3536 216.796C85.9616 217.004 85.5096 217.108 84.9976 217.108C84.4216 217.108 83.8936 216.964 83.4136 216.676C82.9416 216.38 82.5656 215.972 82.2856 215.452C82.0136 214.924 81.8776 214.328 81.8776 213.664ZM87.2896 213.688C87.2896 213.232 87.1936 212.836 87.0016 212.5C86.8176 212.164 86.5736 211.908 86.2696 211.732C85.9656 211.556 85.6376 211.468 85.2856 211.468C84.9336 211.468 84.6056 211.556 84.3016 211.732C83.9976 211.9 83.7496 212.152 83.5576 212.488C83.3736 212.816 83.2816 213.208 83.2816 213.664C83.2816 214.12 83.3736 214.52 83.5576 214.864C83.7496 215.208 83.9976 215.472 84.3016 215.656C84.6136 215.832 84.9416 215.92 85.2856 215.92C85.6376 215.92 85.9656 215.832 86.2696 215.656C86.5736 215.48 86.8176 215.224 87.0016 214.888C87.1936 214.544 87.2896 214.144 87.2896 213.688ZM95.1796 211.504V215.164C95.1796 215.412 95.2356 215.592 95.3476 215.704C95.4676 215.808 95.6676 215.86 95.9476 215.86H96.7876V217H95.7076C95.0916 217 94.6196 216.856 94.2916 216.568C93.9636 216.28 93.7996 215.812 93.7996 215.164V211.504H93.0196V210.388H93.7996V208.744H95.1796V210.388H96.7876V211.504H95.1796ZM100.916 217.108C100.292 217.108 99.7284 216.968 99.2244 216.688C98.7204 216.4 98.3244 216 98.0364 215.488C97.7484 214.968 97.6044 214.368 97.6044 213.688C97.6044 213.016 97.7524 212.42 98.0484 211.9C98.3444 211.38 98.7484 210.98 99.2604 210.7C99.7724 210.42 100.344 210.28 100.976 210.28C101.608 210.28 102.18 210.42 102.692 210.7C103.204 210.98 103.608 211.38 103.904 211.9C104.2 212.42 104.348 213.016 104.348 213.688C104.348 214.36 104.196 214.956 103.892 215.476C103.588 215.996 103.172 216.4 102.644 216.688C102.124 216.968 101.548 217.108 100.916 217.108ZM100.916 215.92C101.268 215.92 101.596 215.836 101.9 215.668C102.212 215.5 102.464 215.248 102.656 214.912C102.848 214.576 102.944 214.168 102.944 213.688C102.944 213.208 102.852 212.804 102.668 212.476C102.484 212.14 102.24 211.888 101.936 211.72C101.632 211.552 101.304 211.468 100.952 211.468C100.6 211.468 100.272 211.552 99.9684 211.72C99.6724 211.888 99.4364 212.14 99.2604 212.476C99.0844 212.804 98.9964 213.208 98.9964 213.688C98.9964 214.4 99.1764 214.952 99.5364 215.344C99.9044 215.728 100.364 215.92 100.916 215.92ZM114.878 213.532C114.878 213.78 114.862 214.004 114.83 214.204H109.778C109.818 214.732 110.014 215.156 110.366 215.476C110.718 215.796 111.15 215.956 111.662 215.956C112.398 215.956 112.918 215.648 113.222 215.032H114.698C114.498 215.64 114.134 216.14 113.606 216.532C113.086 216.916 112.438 217.108 111.662 217.108C111.03 217.108 110.462 216.968 109.958 216.688C109.462 216.4 109.07 216 108.782 215.488C108.502 214.968 108.362 214.368 108.362 213.688C108.362 213.008 108.498 212.412 108.77 211.9C109.05 211.38 109.438 210.98 109.934 210.7C110.438 210.42 111.014 210.28 111.662 210.28C112.286 210.28 112.842 210.416 113.33 210.688C113.818 210.96 114.198 211.344 114.47 211.84C114.742 212.328 114.878 212.892 114.878 213.532ZM113.45 213.1C113.442 212.596 113.262 212.192 112.91 211.888C112.558 211.584 112.122 211.432 111.602 211.432C111.13 211.432 110.726 211.584 110.39 211.888C110.054 212.184 109.854 212.588 109.79 213.1H113.45ZM119.56 210.28C120.08 210.28 120.544 210.388 120.952 210.604C121.368 210.82 121.692 211.14 121.924 211.564C122.156 211.988 122.272 212.5 122.272 213.1V217H120.916V213.304C120.916 212.712 120.768 212.26 120.472 211.948C120.176 211.628 119.772 211.468 119.26 211.468C118.748 211.468 118.34 211.628 118.036 211.948C117.74 212.26 117.592 212.712 117.592 213.304V217H116.224V210.388H117.592V211.144C117.816 210.872 118.1 210.66 118.444 210.508C118.796 210.356 119.168 210.28 119.56 210.28ZM125.613 211.504V215.164C125.613 215.412 125.669 215.592 125.781 215.704C125.901 215.808 126.101 215.86 126.381 215.86H127.221V217H126.141C125.525 217 125.053 216.856 124.725 216.568C124.397 216.28 124.233 215.812 124.233 215.164V211.504H123.453V210.388H124.233V208.744H125.613V210.388H127.221V211.504H125.613ZM134.542 213.532C134.542 213.78 134.526 214.004 134.494 214.204H129.442C129.482 214.732 129.678 215.156 130.03 215.476C130.382 215.796 130.814 215.956 131.326 215.956C132.062 215.956 132.582 215.648 132.886 215.032H134.362C134.162 215.64 133.798 216.14 133.27 216.532C132.75 216.916 132.102 217.108 131.326 217.108C130.694 217.108 130.126 216.968 129.622 216.688C129.126 216.4 128.734 216 128.446 215.488C128.166 214.968 128.026 214.368 128.026 213.688C128.026 213.008 128.162 212.412 128.434 211.9C128.714 211.38 129.102 210.98 129.598 210.7C130.102 210.42 130.678 210.28 131.326 210.28C131.95 210.28 132.506 210.416 132.994 210.688C133.482 210.96 133.862 211.344 134.134 211.84C134.406 212.328 134.542 212.892 134.542 213.532ZM133.114 213.1C133.106 212.596 132.926 212.192 132.574 211.888C132.222 211.584 131.786 211.432 131.266 211.432C130.794 211.432 130.39 211.584 130.054 211.888C129.718 212.184 129.518 212.588 129.454 213.1H133.114ZM137.256 211.348C137.456 211.012 137.72 210.752 138.048 210.568C138.384 210.376 138.78 210.28 139.236 210.28V211.696H138.888C138.352 211.696 137.944 211.832 137.664 212.104C137.392 212.376 137.256 212.848 137.256 213.52V217H135.888V210.388H137.256V211.348ZM149.563 210.388L145.507 220.108H144.091L145.435 216.892L142.831 210.388H144.355L146.215 215.428L148.147 210.388H149.563ZM153.463 217.108C152.839 217.108 152.275 216.968 151.771 216.688C151.267 216.4 150.871 216 150.583 215.488C150.295 214.968 150.151 214.368 150.151 213.688C150.151 213.016 150.299 212.42 150.595 211.9C150.891 211.38 151.295 210.98 151.807 210.7C152.319 210.42 152.891 210.28 153.523 210.28C154.155 210.28 154.727 210.42 155.239 210.7C155.751 210.98 156.155 211.38 156.451 211.9C156.747 212.42 156.895 213.016 156.895 213.688C156.895 214.36 156.743 214.956 156.439 215.476C156.135 215.996 155.719 216.4 155.191 216.688C154.671 216.968 154.095 217.108 153.463 217.108ZM153.463 215.92C153.815 215.92 154.143 215.836 154.447 215.668C154.759 215.5 155.011 215.248 155.203 214.912C155.395 214.576 155.491 214.168 155.491 213.688C155.491 213.208 155.399 212.804 155.215 212.476C155.031 212.14 154.787 211.888 154.483 211.72C154.179 211.552 153.851 211.468 153.499 211.468C153.147 211.468 152.819 211.552 152.515 211.72C152.219 211.888 151.983 212.14 151.807 212.476C151.631 212.804 151.543 213.208 151.543 213.688C151.543 214.4 151.723 214.952 152.083 215.344C152.451 215.728 152.911 215.92 153.463 215.92ZM164.236 210.388V217H162.868V216.22C162.652 216.492 162.368 216.708 162.016 216.868C161.672 217.02 161.304 217.096 160.912 217.096C160.392 217.096 159.924 216.988 159.508 216.772C159.1 216.556 158.776 216.236 158.536 215.812C158.304 215.388 158.188 214.876 158.188 214.276V210.388H159.544V214.072C159.544 214.664 159.692 215.12 159.988 215.44C160.284 215.752 160.688 215.908 161.2 215.908C161.712 215.908 162.116 215.752 162.412 215.44C162.716 215.12 162.868 214.664 162.868 214.072V210.388H164.236ZM167.409 211.348C167.609 211.012 167.873 210.752 168.201 210.568C168.537 210.376 168.933 210.28 169.389 210.28V211.696H169.041C168.505 211.696 168.097 211.832 167.817 212.104C167.545 212.376 167.409 212.848 167.409 213.52V217H166.041V210.388H167.409V211.348Z" fill="white"/>
<path d="M11.446 236.606H6.442L5.614 239H2.968L7.486 226.418H10.42L14.938 239H12.274L11.446 236.606ZM10.762 234.59L8.944 229.334L7.126 234.59H10.762ZM15.9788 233.978C15.9788 232.97 16.1768 232.076 16.5728 231.296C16.9808 230.516 17.5268 229.916 18.2108 229.496C18.9068 229.076 19.6808 228.866 20.5328 228.866C21.2768 228.866 21.9248 229.016 22.4768 229.316C23.0408 229.616 23.4908 229.994 23.8268 230.45V229.028H26.3648V239H23.8268V237.542C23.5028 238.01 23.0528 238.4 22.4768 238.712C21.9128 239.012 21.2588 239.162 20.5148 239.162C19.6748 239.162 18.9068 238.946 18.2108 238.514C17.5268 238.082 16.9808 237.476 16.5728 236.696C16.1768 235.904 15.9788 234.998 15.9788 233.978ZM23.8268 234.014C23.8268 233.402 23.7068 232.88 23.4668 232.448C23.2268 232.004 22.9028 231.668 22.4948 231.44C22.0868 231.2 21.6488 231.08 21.1808 231.08C20.7128 231.08 20.2808 231.194 19.8848 231.422C19.4888 231.65 19.1648 231.986 18.9128 232.43C18.6728 232.862 18.5528 233.378 18.5528 233.978C18.5528 234.578 18.6728 235.106 18.9128 235.562C19.1648 236.006 19.4888 236.348 19.8848 236.588C20.2928 236.828 20.7248 236.948 21.1808 236.948C21.6488 236.948 22.0868 236.834 22.4948 236.606C22.9028 236.366 23.2268 236.03 23.4668 235.598C23.7068 235.154 23.8268 234.626 23.8268 234.014ZM28.178 233.978C28.178 232.97 28.376 232.076 28.772 231.296C29.18 230.516 29.732 229.916 30.428 229.496C31.124 229.076 31.898 228.866 32.75 228.866C33.398 228.866 34.016 229.01 34.604 229.298C35.192 229.574 35.66 229.946 36.008 230.414V225.68H38.564V239H36.008V237.524C35.696 238.016 35.258 238.412 34.694 238.712C34.13 239.012 33.476 239.162 32.732 239.162C31.892 239.162 31.124 238.946 30.428 238.514C29.732 238.082 29.18 237.476 28.772 236.696C28.376 235.904 28.178 234.998 28.178 233.978ZM36.026 234.014C36.026 233.402 35.906 232.88 35.666 232.448C35.426 232.004 35.102 231.668 34.694 231.44C34.286 231.2 33.848 231.08 33.38 231.08C32.912 231.08 32.48 231.194 32.084 231.422C31.688 231.65 31.364 231.986 31.112 232.43C30.872 232.862 30.752 233.378 30.752 233.978C30.752 234.578 30.872 235.106 31.112 235.562C31.364 236.006 31.688 236.348 32.084 236.588C32.492 236.828 32.924 236.948 33.38 236.948C33.848 236.948 34.286 236.834 34.694 236.606C35.102 236.366 35.426 236.03 35.666 235.598C35.906 235.154 36.026 234.626 36.026 234.014ZM46.6412 228.884C47.3972 228.884 48.0692 229.052 48.6572 229.388C49.2452 229.712 49.7012 230.198 50.0252 230.846C50.3612 231.482 50.5292 232.25 50.5292 233.15V239H48.0092V233.492C48.0092 232.7 47.8112 232.094 47.4152 231.674C47.0192 231.242 46.4792 231.026 45.7952 231.026C45.0992 231.026 44.5472 231.242 44.1392 231.674C43.7432 232.094 43.5452 232.7 43.5452 233.492V239H41.0252V225.68H43.5452V230.27C43.8692 229.838 44.3012 229.502 44.8412 229.262C45.3812 229.01 45.9812 228.884 46.6412 228.884ZM52.2776 233.978C52.2776 232.97 52.4756 232.076 52.8716 231.296C53.2796 230.516 53.8256 229.916 54.5096 229.496C55.2056 229.076 55.9796 228.866 56.8316 228.866C57.5756 228.866 58.2236 229.016 58.7756 229.316C59.3396 229.616 59.7896 229.994 60.1256 230.45V229.028H62.6636V239H60.1256V237.542C59.8016 238.01 59.3516 238.4 58.7756 238.712C58.2116 239.012 57.5576 239.162 56.8136 239.162C55.9736 239.162 55.2056 238.946 54.5096 238.514C53.8256 238.082 53.2796 237.476 52.8716 236.696C52.4756 235.904 52.2776 234.998 52.2776 233.978ZM60.1256 234.014C60.1256 233.402 60.0056 232.88 59.7656 232.448C59.5256 232.004 59.2016 231.668 58.7936 231.44C58.3856 231.2 57.9476 231.08 57.4796 231.08C57.0116 231.08 56.5796 231.194 56.1836 231.422C55.7876 231.65 55.4636 231.986 55.2116 232.43C54.9716 232.862 54.8516 233.378 54.8516 233.978C54.8516 234.578 54.9716 235.106 55.2116 235.562C55.4636 236.006 55.7876 236.348 56.1836 236.588C56.5916 236.828 57.0236 236.948 57.4796 236.948C57.9476 236.948 58.3856 236.834 58.7936 236.606C59.2016 236.366 59.5256 236.03 59.7656 235.598C60.0056 235.154 60.1256 234.626 60.1256 234.014ZM67.6448 230.576C67.9688 230.048 68.3888 229.634 68.9048 229.334C69.4328 229.034 70.0328 228.884 70.7048 228.884V231.53H70.0388C69.2468 231.53 68.6468 231.716 68.2388 232.088C67.8428 232.46 67.6448 233.108 67.6448 234.032V239H65.1248V229.028H67.6448V230.576ZM76.0792 232.7C76.0792 231.464 76.3552 230.36 76.9072 229.388C77.4712 228.404 78.2332 227.642 79.1932 227.102C80.1652 226.55 81.2512 226.274 82.4512 226.274C83.8552 226.274 85.0852 226.634 86.1412 227.354C87.1972 228.074 87.9352 229.07 88.3552 230.342H85.4572C85.1692 229.742 84.7612 229.292 84.2332 228.992C83.7172 228.692 83.1172 228.542 82.4332 228.542C81.7012 228.542 81.0472 228.716 80.4712 229.064C79.9072 229.4 79.4632 229.88 79.1392 230.504C78.8272 231.128 78.6712 231.86 78.6712 232.7C78.6712 233.528 78.8272 234.26 79.1392 234.896C79.4632 235.52 79.9072 236.006 80.4712 236.354C81.0472 236.69 81.7012 236.858 82.4332 236.858C83.1172 236.858 83.7172 236.708 84.2332 236.408C84.7612 236.096 85.1692 235.64 85.4572 235.04H88.3552C87.9352 236.324 87.1972 237.326 86.1412 238.046C85.0972 238.754 83.8672 239.108 82.4512 239.108C81.2512 239.108 80.1652 238.838 79.1932 238.298C78.2332 237.746 77.4712 236.984 76.9072 236.012C76.3552 235.04 76.0792 233.936 76.0792 232.7ZM89.8596 233.978C89.8596 232.97 90.0576 232.076 90.4536 231.296C90.8616 230.516 91.4076 229.916 92.0916 229.496C92.7876 229.076 93.5616 228.866 94.4136 228.866C95.1576 228.866 95.8056 229.016 96.3576 229.316C96.9216 229.616 97.3716 229.994 97.7076 230.45V229.028H100.246V239H97.7076V237.542C97.3836 238.01 96.9336 238.4 96.3576 238.712C95.7936 239.012 95.1396 239.162 94.3956 239.162C93.5556 239.162 92.7876 238.946 92.0916 238.514C91.4076 238.082 90.8616 237.476 90.4536 236.696C90.0576 235.904 89.8596 234.998 89.8596 233.978ZM97.7076 234.014C97.7076 233.402 97.5876 232.88 97.3476 232.448C97.1076 232.004 96.7836 231.668 96.3756 231.44C95.9676 231.2 95.5296 231.08 95.0616 231.08C94.5936 231.08 94.1616 231.194 93.7656 231.422C93.3696 231.65 93.0456 231.986 92.7936 232.43C92.5536 232.862 92.4336 233.378 92.4336 233.978C92.4336 234.578 92.5536 235.106 92.7936 235.562C93.0456 236.006 93.3696 236.348 93.7656 236.588C94.1736 236.828 94.6056 236.948 95.0616 236.948C95.5296 236.948 95.9676 236.834 96.3756 236.606C96.7836 236.366 97.1076 236.03 97.3476 235.598C97.5876 235.154 97.7076 234.626 97.7076 234.014ZM105.227 230.576C105.551 230.048 105.971 229.634 106.487 229.334C107.015 229.034 107.615 228.884 108.287 228.884V231.53H107.621C106.829 231.53 106.229 231.716 105.821 232.088C105.425 232.46 105.227 233.108 105.227 234.032V239H102.707V229.028H105.227V230.576ZM109.336 233.978C109.336 232.97 109.534 232.076 109.93 231.296C110.338 230.516 110.89 229.916 111.586 229.496C112.282 229.076 113.056 228.866 113.908 228.866C114.556 228.866 115.174 229.01 115.762 229.298C116.35 229.574 116.818 229.946 117.166 230.414V225.68H119.722V239H117.166V237.524C116.854 238.016 116.416 238.412 115.852 238.712C115.288 239.012 114.634 239.162 113.89 239.162C113.05 239.162 112.282 238.946 111.586 238.514C110.89 238.082 110.338 237.476 109.93 236.696C109.534 235.904 109.336 234.998 109.336 233.978ZM117.184 234.014C117.184 233.402 117.064 232.88 116.824 232.448C116.584 232.004 116.26 231.668 115.852 231.44C115.444 231.2 115.006 231.08 114.538 231.08C114.07 231.08 113.638 231.194 113.242 231.422C112.846 231.65 112.522 231.986 112.27 232.43C112.03 232.862 111.91 233.378 111.91 233.978C111.91 234.578 112.03 235.106 112.27 235.562C112.522 236.006 112.846 236.348 113.242 236.588C113.65 236.828 114.082 236.948 114.538 236.948C115.006 236.948 115.444 236.834 115.852 236.606C116.26 236.366 116.584 236.03 116.824 235.598C117.064 235.154 117.184 234.626 117.184 234.014ZM137.218 239H134.698L128.992 230.378V239H126.472V226.418H128.992L134.698 235.058V226.418H137.218V239ZM149.123 229.028V239H146.585V237.74C146.261 238.172 145.835 238.514 145.307 238.766C144.791 239.006 144.227 239.126 143.615 239.126C142.835 239.126 142.145 238.964 141.545 238.64C140.945 238.304 140.471 237.818 140.123 237.182C139.787 236.534 139.619 235.766 139.619 234.878V229.028H142.139V234.518C142.139 235.31 142.337 235.922 142.733 236.354C143.129 236.774 143.669 236.984 144.353 236.984C145.049 236.984 145.595 236.774 145.991 236.354C146.387 235.922 146.585 235.31 146.585 234.518V229.028H149.123ZM163.993 228.884C165.217 228.884 166.201 229.262 166.945 230.018C167.701 230.762 168.079 231.806 168.079 233.15V239H165.559V233.492C165.559 232.712 165.361 232.118 164.965 231.71C164.569 231.29 164.029 231.08 163.345 231.08C162.661 231.08 162.115 231.29 161.707 231.71C161.311 232.118 161.113 232.712 161.113 233.492V239H158.593V233.492C158.593 232.712 158.395 232.118 157.999 231.71C157.603 231.29 157.063 231.08 156.379 231.08C155.683 231.08 155.131 231.29 154.723 231.71C154.327 232.118 154.129 232.712 154.129 233.492V239H151.609V229.028H154.129V230.234C154.453 229.814 154.867 229.484 155.371 229.244C155.887 229.004 156.451 228.884 157.063 228.884C157.843 228.884 158.539 229.052 159.151 229.388C159.763 229.712 160.237 230.18 160.573 230.792C160.897 230.216 161.365 229.754 161.977 229.406C162.601 229.058 163.273 228.884 163.993 228.884ZM172.991 230.486C173.315 230.006 173.759 229.616 174.323 229.316C174.899 229.016 175.553 228.866 176.285 228.866C177.137 228.866 177.905 229.076 178.589 229.496C179.285 229.916 179.831 230.516 180.227 231.296C180.635 232.064 180.839 232.958 180.839 233.978C180.839 234.998 180.635 235.904 180.227 236.696C179.831 237.476 179.285 238.082 178.589 238.514C177.905 238.946 177.137 239.162 176.285 239.162C175.541 239.162 174.887 239.018 174.323 238.73C173.771 238.43 173.327 238.046 172.991 237.578V239H170.471V225.68H172.991V230.486ZM178.265 233.978C178.265 233.378 178.139 232.862 177.887 232.43C177.647 231.986 177.323 231.65 176.915 231.422C176.519 231.194 176.087 231.08 175.619 231.08C175.163 231.08 174.731 231.2 174.323 231.44C173.927 231.668 173.603 232.004 173.351 232.448C173.111 232.892 172.991 233.414 172.991 234.014C172.991 234.614 173.111 235.136 173.351 235.58C173.603 236.024 173.927 236.366 174.323 236.606C174.731 236.834 175.163 236.948 175.619 236.948C176.087 236.948 176.519 236.828 176.915 236.588C177.323 236.348 177.647 236.006 177.887 235.562C178.139 235.118 178.265 234.59 178.265 233.978ZM191.94 233.798C191.94 234.158 191.916 234.482 191.868 234.77H184.578C184.638 235.49 184.89 236.054 185.334 236.462C185.778 236.87 186.324 237.074 186.972 237.074C187.908 237.074 188.574 236.672 188.97 235.868H191.688C191.4 236.828 190.848 237.62 190.032 238.244C189.216 238.856 188.214 239.162 187.026 239.162C186.066 239.162 185.202 238.952 184.434 238.532C183.678 238.1 183.084 237.494 182.652 236.714C182.232 235.934 182.022 235.034 182.022 234.014C182.022 232.982 182.232 232.076 182.652 231.296C183.072 230.516 183.66 229.916 184.416 229.496C185.172 229.076 186.042 228.866 187.026 228.866C187.974 228.866 188.82 229.07 189.564 229.478C190.32 229.886 190.902 230.468 191.31 231.224C191.73 231.968 191.94 232.826 191.94 233.798ZM189.33 233.078C189.318 232.43 189.084 231.914 188.628 231.53C188.172 231.134 187.614 230.936 186.954 230.936C186.33 230.936 185.802 231.128 185.37 231.512C184.95 231.884 184.692 232.406 184.596 233.078H189.33ZM196.299 230.576C196.623 230.048 197.043 229.634 197.559 229.334C198.087 229.034 198.687 228.884 199.359 228.884V231.53H198.693C197.901 231.53 197.301 231.716 196.893 232.088C196.497 232.46 196.299 233.108 196.299 234.032V239H193.779V229.028H196.299V230.576Z" fill="white"/>
</svg>
