<svg width="24" height="26" viewBox="0 0 24 26" fill="none" xmlns="http://www.w3.org/2000/svg">
<path d="M12.7542 24.276L10.1916 22.521C6.87399 20.249 4.89062 16.4867 4.89062 12.4656V5.07812C4.89062 4.13217 5.53722 3.33724 6.41259 3.11127L13.5234 1.27527L13.0151 1.144C12.6905 1.06021 12.3503 1.01562 12 1.01562C11.6497 1.01562 11.3095 1.06021 10.9849 1.144L3.36571 3.11121C2.49035 3.33724 1.84375 4.13217 1.84375 5.07812V12.4657C1.84375 16.4867 3.82711 20.249 7.1447 22.5211L9.70728 24.2761C10.3598 24.723 11.1494 24.9844 12 24.9844C12.5388 24.9844 13.0529 24.8792 13.5234 24.6887C13.2511 24.5785 12.9934 24.4398 12.7542 24.276Z" fill="#CEE1F2"/>
<path d="M20.6343 3.11127L13.0151 1.14405C12.6905 1.06021 12.3503 1.01562 12 1.01562C11.6497 1.01562 11.3095 1.06021 10.9849 1.144L3.36571 3.11127C2.49035 3.33724 1.84375 4.13217 1.84375 5.07812V12.4657C1.84375 16.4867 3.82711 20.249 7.1447 22.5211L9.70728 24.2761C10.3598 24.723 11.1494 24.9844 12 24.9844C12.8506 24.9844 13.6402 24.723 14.2927 24.276L16.8553 22.521C20.1729 20.249 22.1562 16.4867 22.1562 12.4657V5.07812C22.1562 4.13217 21.5097 3.33724 20.6343 3.11127Z" stroke="#00499B" stroke-width="2" stroke-miterlimit="10" stroke-linecap="round" stroke-linejoin="round"/>
<path d="M12.0273 15.0312L14.0449 12.9863" stroke="#F3C521" stroke-width="2" stroke-miterlimit="10" stroke-linecap="round" stroke-linejoin="round"/>
<path d="M17.7478 14.9926C17.9704 14.3529 18.1121 13.675 18.1073 12.9589C18.0846 9.59348 15.338 6.88369 11.9726 6.90639C8.60715 6.92909 5.89736 9.67565 5.92006 13.0411C5.92489 13.7571 6.07576 14.4331 6.30692 15.0698" stroke="#F3C521" stroke-width="2" stroke-miterlimit="10" stroke-linecap="round" stroke-linejoin="round"/>
</svg>
