<svg width="206" height="259" viewBox="0 0 206 259" fill="none" xmlns="http://www.w3.org/2000/svg">
<g filter="url(#filter0_d_37_5205)">
<g clip-path="url(#clip0_37_5205)">
<path d="M16 28C16 19.7157 22.7157 13 31 13H174C182.284 13 189 19.7157 189 28V238H31C22.7157 238 16 231.284 16 223V28Z" fill="#D8F3FF"/>
<path d="M42.5946 168.316H111.564C113.461 168.316 114.999 166.783 114.999 164.894L114.995 69.1346C114.945 66.5703 113.705 65.0994 111.564 65.0994L42.5946 65.3936C40.8894 65.3936 39.4361 66.6311 39.1638 68.3157L39.1602 164.894C39.1602 166.784 40.6977 168.316 42.5953 168.316H42.5946Z" fill="#1F4168"/>
<path d="M39.985 168.486H108.964C110.861 168.486 112.4 166.954 112.399 165.065L112.395 69.3438C112.345 66.7803 111.105 65.3225 108.963 65.3225H39.9835C39.2019 65.3225 38.473 65.583 37.8868 66.0272C37.0233 66.6815 36.552 67.7258 36.552 68.8023L36.5498 165.066C36.5498 166.955 38.0881 168.487 39.985 168.487V168.486Z" fill="white"/>
<path d="M108.964 168.649H39.9853C39.0244 168.649 38.1206 168.276 37.4415 167.599C36.7617 166.922 36.3877 166.022 36.3877 165.065L36.3899 68.8017C36.3899 67.6469 36.9131 66.5609 37.7891 65.8971C38.4258 65.4148 39.1847 65.1594 39.9838 65.1594H108.963C111.196 65.1594 112.506 66.6831 112.557 69.3403L112.562 165.064C112.562 166.021 112.188 166.922 111.508 167.598C110.829 168.275 109.925 168.648 108.964 168.648V168.649ZM39.9838 65.4851C39.2564 65.4851 38.5656 65.7171 37.9853 66.1569C37.1898 66.7599 36.7148 67.7486 36.7148 68.8024L36.7126 165.066C36.7126 165.936 37.0529 166.754 37.6706 167.369C38.289 167.985 39.1108 168.324 39.9853 168.324H108.964C109.839 168.324 110.661 167.985 111.279 167.369C111.897 166.754 112.237 165.936 112.237 165.066L112.233 69.3447C112.184 66.8572 111.024 65.4858 108.963 65.4858H39.9838V65.4851Z" fill="#1F4168"/>
<path d="M91.3853 62.9561H59.3017C58.4728 62.9561 57.8008 63.6281 57.8008 64.457V71.953C57.8008 72.782 58.4728 73.454 59.3017 73.454H91.3853C92.2143 73.454 92.8863 72.782 92.8863 71.953V64.457C92.8863 63.6281 92.2143 62.9561 91.3853 62.9561Z" fill="white"/>
<path d="M91.3857 73.617H59.3028C58.3851 73.617 57.6387 72.8706 57.6387 71.9529V64.4569C57.6387 63.5392 58.3851 62.7927 59.3028 62.7927H91.3857C92.3034 62.7927 93.0499 63.5392 93.0499 64.4569V71.9529C93.0499 72.8706 92.3034 73.617 91.3857 73.617ZM59.3028 63.1184C58.5644 63.1184 57.9643 63.7192 57.9643 64.4569V71.9529C57.9643 72.6913 58.5652 73.2914 59.3028 73.2914H91.3857C92.1241 73.2914 92.7242 72.6906 92.7242 71.9529V64.4569C92.7242 63.7185 92.1234 63.1184 91.3857 63.1184H59.3028Z" fill="#1F4168"/>
<path d="M75.2192 54.7078C71.9018 54.7078 69.2256 57.4133 69.2256 60.7504V69.8074C69.2256 70.6211 69.8813 71.2812 70.6907 71.2812H79.7477C80.557 71.2812 81.2128 70.6211 81.2128 69.8074V60.7504C81.2128 57.4133 78.5365 54.7078 75.2192 54.7078ZM75.5543 62.9846C73.9582 63.1873 72.6154 61.8364 72.8166 60.2308C72.9535 59.1367 73.8324 58.2534 74.9199 58.1151C76.5159 57.9131 77.8581 59.2633 77.6576 60.8689C77.5207 61.963 76.6426 62.8463 75.5543 62.9846Z" fill="white"/>
<path d="M79.7478 71.4443H70.6908C69.7929 71.4443 69.0625 70.7103 69.0625 69.808V60.751C69.0625 57.329 71.8244 54.5459 75.2193 54.5459C78.6142 54.5459 81.3761 57.3297 81.3761 60.751V69.808C81.3761 70.7103 80.6457 71.4443 79.7485 71.4443H79.7478ZM75.2193 54.8708C72.0037 54.8708 69.3882 57.509 69.3882 60.751V69.808C69.3882 70.531 69.9729 71.1194 70.6908 71.1194H79.7478C80.4664 71.1194 81.0504 70.531 81.0504 69.808V60.751C81.0504 57.5083 78.4342 54.8708 75.2193 54.8708ZM75.2383 63.1674C74.5504 63.1674 73.8962 62.8996 73.4029 62.4071C72.8248 61.8304 72.5525 61.0298 72.6557 60.2102C72.8014 59.0488 73.7447 58.1003 74.8995 57.954C75.7067 57.8515 76.4985 58.1208 77.0708 58.6924C77.6482 59.269 77.9212 60.0697 77.8187 60.8893C77.6731 62.0507 76.7298 62.9991 75.5749 63.1462C75.4622 63.1609 75.3503 63.1674 75.2383 63.1674ZM75.2354 58.2584C75.1381 58.2584 75.0393 58.2643 74.9405 58.2774C73.9306 58.4055 73.1058 59.2354 72.9785 60.2519C72.8884 60.9705 73.127 61.6731 73.6327 62.178C74.134 62.6786 74.827 62.9142 75.534 62.8242C76.5439 62.6961 77.3686 61.8655 77.496 60.8498C77.586 60.1311 77.3474 59.4286 76.841 58.9236C76.41 58.4933 75.8369 58.2584 75.2347 58.2584H75.2354Z" fill="#1F4168"/>
<path d="M104.004 91.2128C104.004 91.5011 103.684 92.1729 103.172 92.1729H99.3618C98.8496 92.1729 98.3373 91.8209 97.6172 91.8209H76.5269C76.071 91.8209 74.9821 91.5326 74.502 91.2128C74.0219 90.8922 73.9736 90.8125 73.9736 90.6046V89.3401C73.9736 89.1483 74.5496 88.9398 74.5496 88.6038V86.7472C74.5496 86.2672 78.8717 83.1935 80.2482 82.8576C81.6248 82.5217 87.6601 82.4895 89.2767 82.6337C90.8933 82.7778 94.3672 84.4903 96.5604 86.1076C98.914 86.1076 101.442 86.6989 102.547 87.3634C103.652 88.0286 104.004 89.1652 104.004 89.6452V91.2142V91.2128Z" fill="white"/>
<path d="M81.9277 91.9834H76.5269C76.4244 91.9834 76.2927 91.9703 76.1353 91.9439C76.0673 91.9329 76.0131 91.8795 76.0014 91.8115C75.9714 91.6358 75.9561 91.4587 75.9561 91.2846C75.9561 89.5794 77.3428 88.1926 79.048 88.1926C80.7531 88.1926 82.1399 89.5794 82.1399 91.2846C82.1399 91.4719 82.1224 91.6622 82.0872 91.8503C82.0726 91.9271 82.006 91.9834 81.9277 91.9834ZM76.3044 91.641C76.3922 91.6527 76.4683 91.6585 76.5269 91.6585H81.7894C81.8062 91.5334 81.815 91.4082 81.815 91.2846C81.815 89.7587 80.5738 88.5176 79.048 88.5176C77.5221 88.5176 76.281 89.7587 76.281 91.2846C76.281 91.4024 76.289 91.5217 76.3044 91.641Z" fill="#1F4168"/>
<path d="M100.761 92.3354H99.3623C99.1025 92.3354 98.8537 92.2571 98.5902 92.1744C98.2916 92.0808 97.9828 91.9834 97.6169 91.9834H95.0892C95.0109 91.9834 94.9436 91.9278 94.9297 91.8503C94.8945 91.6622 94.877 91.4719 94.877 91.2846C94.877 89.5794 96.2637 88.1926 97.9689 88.1926C99.674 88.1926 101.061 89.5794 101.061 91.2846C101.061 91.6036 101.012 91.919 100.916 92.222C100.895 92.2893 100.832 92.3354 100.761 92.3354H100.761ZM95.2282 91.6585H97.6169C98.0326 91.6585 98.3802 91.7676 98.6875 91.8642C98.9371 91.9425 99.1522 92.0105 99.3615 92.0105H100.639C100.704 91.7741 100.736 91.5304 100.736 91.2846C100.736 89.7587 99.4947 88.5176 97.9689 88.5176C96.443 88.5176 95.2019 89.7587 95.2019 91.2846C95.2019 91.4082 95.2107 91.5334 95.2275 91.6585H95.2282Z" fill="#1F4168"/>
<path d="M102.204 87.998C102.367 88.0427 102.509 88.1422 102.608 88.279C102.684 88.3844 102.763 88.5066 102.79 88.5871C102.847 88.7555 102.79 88.9472 102.559 88.9472H101.198C100.982 88.9472 100.582 88.6193 100.358 88.3552C100.134 88.091 99.7974 87.6585 99.894 87.6028C99.984 87.5509 101.071 87.687 102.205 87.998H102.204Z" fill="#F3C521"/>
<path d="M102.467 90.7564C102.547 90.5975 102.741 90.468 102.9 90.468H104.005V91.2123C104.005 91.292 103.98 91.4004 103.934 91.5167H102.372C102.212 91.5167 102.149 91.3879 102.229 91.2284L102.467 90.7564Z" fill="#1F4168"/>
<path d="M94.1052 85.987C94.245 86.0961 94.4016 86.3954 94.1052 86.4115C93.8088 86.4276 88.0465 86.2036 87.7743 86.1992C87.502 86.1948 87.4223 86.0353 87.374 85.8509C87.3257 85.6665 86.9897 83.9862 86.9736 83.8421C86.9575 83.6979 86.9576 83.5618 87.2056 83.5618C87.4537 83.5618 89.3667 83.6335 90.4388 83.9782C91.5117 84.3221 92.9358 85.0744 94.1045 85.987H94.1052Z" fill="#F3C521"/>
<path d="M86.262 83.8574C86.262 83.8574 86.3337 85.7623 86.3337 85.8582C86.3337 85.954 86.2854 86.1143 86.1017 86.1143C85.918 86.1143 80.0906 85.9782 79.8505 85.9701C79.6105 85.9621 79.4985 85.8823 79.5381 85.714C79.5783 85.5457 80.8824 83.9613 81.9553 83.681C83.0281 83.4007 85.8214 83.561 85.9568 83.561C86.0922 83.561 86.2518 83.6181 86.2613 83.8574H86.262Z" fill="#F3C521"/>
<path d="M78.8262 83.5442C79.1643 83.6415 79.5778 84.246 79.2221 84.448C78.9572 84.5987 78.1097 85.3123 77.7731 85.6247C77.4372 85.9372 77.2125 86.0331 76.9725 86.0331H75.3164C76.1295 85.3723 77.7636 84.1721 78.8255 83.5442H78.8262Z" fill="#F3C521"/>
<path d="M74.551 88.6041V86.8909H75.9195C76.1193 86.8909 76.224 86.967 76.1193 87.2531C76.0154 87.5393 75.5031 88.3077 75.3589 88.4196C75.2148 88.5316 75.0867 88.6202 74.903 88.6202H74.5488C74.5488 88.615 74.5503 88.6099 74.5503 88.6041H74.551Z" fill="#F3C521"/>
<path d="M99.3622 92.3355C99.1031 92.3355 98.8528 92.2564 98.5909 92.1745C98.2923 92.0808 97.9835 91.9834 97.6175 91.9834H76.5273C76.0201 91.9834 74.9034 91.6754 74.4124 91.3475C73.9323 91.0277 73.8115 90.9062 73.8115 90.604V89.3394C73.8115 89.1784 73.952 89.0657 74.1013 88.9464C74.2294 88.844 74.3882 88.7166 74.3882 88.6032V86.7458C74.3882 86.0711 78.9943 82.9953 80.2105 82.6982C81.5937 82.3608 87.6502 82.3242 89.2917 82.4698C90.6345 82.5891 93.0393 83.7124 94.8271 84.7721C95.9936 85.4637 97.278 85.9042 98.6436 86.0813C100.289 86.2943 101.817 86.7312 102.631 87.2215C103.75 87.8948 104.167 89.0635 104.167 89.6424V91.2114C104.167 91.4741 103.979 91.9059 103.678 92.1466C103.477 92.3069 103.248 92.3655 103.017 92.3186L99.5649 92.3172C99.4969 92.3289 99.4295 92.334 99.3622 92.334V92.3355ZM74.1365 89.3526V90.604C74.1365 90.7306 74.1365 90.773 74.5924 91.0767C75.0249 91.3651 76.0824 91.6578 76.5273 91.6578H97.6175C98.0332 91.6578 98.3808 91.7668 98.6882 91.8634C98.9956 91.96 99.2619 92.0435 99.5203 91.9952C99.5298 91.9937 99.54 91.9922 99.5503 91.9922L103.034 91.9937C103.047 91.9937 103.059 91.9952 103.07 91.9981C103.212 92.0303 103.348 91.9952 103.475 91.8934C103.703 91.7127 103.842 91.3746 103.842 91.2121V89.6431C103.842 89.215 103.505 88.1275 102.464 87.5011C101.685 87.0327 100.205 86.6126 98.6011 86.4048C97.1916 86.2219 95.8656 85.7674 94.661 85.0524C92.5504 83.801 90.3813 82.8935 89.2624 82.794C87.6356 82.6491 81.6471 82.682 80.2874 83.0143C78.9328 83.3451 74.8449 86.2914 74.7109 86.7597L74.7124 88.6032C74.7124 88.8725 74.4855 89.054 74.304 89.2003C74.2455 89.2472 74.1577 89.3174 74.1365 89.3526Z" fill="#1F4168"/>
<path d="M98.3736 93.768C99.748 93.5449 100.681 92.2499 100.458 90.8755C100.235 89.5011 98.9401 88.5678 97.5657 88.7909C96.1913 89.014 95.258 90.309 95.4811 91.6834C95.7042 93.0577 96.9992 93.9911 98.3736 93.768Z" fill="#1F4168"/>
<path d="M99.6172 91.9677C99.9943 91.0573 99.562 90.0136 98.6516 89.6365C97.7412 89.2595 96.6976 89.6918 96.3205 90.6021C95.9434 91.5125 96.3757 92.5562 97.2861 92.9333C98.1964 93.3103 99.2401 92.878 99.6172 91.9677Z" fill="white"/>
<path d="M79.6266 93.7426C80.9817 93.4227 81.821 92.0649 81.5012 90.7098C81.1813 89.3546 79.8235 88.5153 78.4683 88.8352C77.1132 89.155 76.2739 90.5129 76.5938 91.868C76.9136 93.2231 78.2715 94.0624 79.6266 93.7426Z" fill="#1F4168"/>
<path d="M80.6963 91.9682C81.0734 91.0578 80.6411 90.0141 79.7307 89.637C78.8203 89.2599 77.7767 89.6923 77.3996 90.6026C77.0225 91.513 77.4548 92.5567 78.3652 92.9337C79.2755 93.3108 80.3192 92.8785 80.6963 91.9682Z" fill="white"/>
<path d="M104.305 97.5534H73.6739C72.582 97.5534 71.6943 96.6649 71.6943 95.5738V80.7838C71.6943 79.6919 72.5828 78.8042 73.6739 78.8042H104.305C105.397 78.8042 106.284 79.6919 106.284 80.7838V95.5738C106.284 96.6657 105.396 97.5534 104.305 97.5534ZM73.6739 79.1291C72.7613 79.1291 72.0193 79.8712 72.0193 80.7838V95.5738C72.0193 96.4864 72.7613 97.2284 73.6739 97.2284H104.305C105.217 97.2284 105.959 96.4864 105.959 95.5738V80.7838C105.959 79.8712 105.217 79.1291 104.305 79.1291H73.6739Z" fill="#1F4168"/>
<path d="M62.3366 104.844H51.2115C50.4607 104.844 49.8496 104.233 49.8496 103.483C49.8496 102.732 50.4607 102.121 51.2115 102.121H61.8939C61.9839 102.121 62.0563 102.193 62.0563 102.283C62.0563 102.373 61.9839 102.446 61.8939 102.446H51.2115C50.64 102.446 50.1745 102.911 50.1745 103.483C50.1745 104.054 50.64 104.52 51.2115 104.52H62.3366C62.4266 104.52 62.4991 104.592 62.4991 104.682C62.4991 104.772 62.4266 104.844 62.3366 104.844Z" fill="#F3C521"/>
<path d="M92.6347 104.844H74.0912C74.0012 104.844 73.9287 104.772 73.9287 104.682C73.9287 104.592 74.0012 104.52 74.0912 104.52H92.6347C93.2063 104.52 93.6717 104.054 93.6717 103.483C93.6717 102.911 93.2063 102.446 92.6347 102.446H74.2295C74.1395 102.446 74.067 102.373 74.067 102.283C74.067 102.193 74.1395 102.121 74.2295 102.121H92.6347C93.3855 102.121 93.9966 102.732 93.9966 103.483C93.9966 104.233 93.3855 104.844 92.6347 104.844Z" fill="#F3C521"/>
<path d="M92.6345 110.49H83.9742C83.2234 110.49 82.6123 109.879 82.6123 109.128C82.6123 108.377 83.2234 107.766 83.9742 107.766H92.6345C93.3854 107.766 93.9965 108.377 93.9965 109.128C93.9965 109.879 93.3854 110.49 92.6345 110.49ZM83.9742 108.092C83.4027 108.092 82.9372 108.557 82.9372 109.129C82.9372 109.7 83.4027 110.166 83.9742 110.166H92.6345C93.2061 110.166 93.6715 109.7 93.6715 109.129C93.6715 108.557 93.2061 108.092 92.6345 108.092H83.9742Z" fill="#F3C521"/>
<path d="M92.6346 116.577H51.2115C50.4607 116.577 49.8496 115.966 49.8496 115.215C49.8496 114.464 50.4607 113.853 51.2115 113.853H92.6346C93.3854 113.853 93.9965 114.464 93.9965 115.215C93.9965 115.966 93.3854 116.577 92.6346 116.577ZM51.2115 114.179C50.64 114.179 50.1745 114.644 50.1745 115.216C50.1745 115.787 50.64 116.253 51.2115 116.253H92.6346C93.2061 116.253 93.6716 115.787 93.6716 115.216C93.6716 114.644 93.2061 114.179 92.6346 114.179H51.2115Z" fill="#F3C521"/>
<path d="M92.6342 122.222H88.315C87.5642 122.222 86.9531 121.611 86.9531 120.86C86.9531 120.109 87.5642 119.498 88.315 119.498H92.6342C93.3851 119.498 93.9961 120.109 93.9961 120.86C93.9961 121.611 93.3851 122.222 92.6342 122.222ZM88.315 119.824C87.7435 119.824 87.278 120.289 87.278 120.861C87.278 121.432 87.7435 121.898 88.315 121.898H92.6342C93.2058 121.898 93.6712 121.432 93.6712 120.861C93.6712 120.289 93.2058 119.824 92.6342 119.824H88.315Z" fill="#1F4168"/>
<path d="M92.6345 128.005H85.1041C84.3533 128.005 83.7422 127.394 83.7422 126.643C83.7422 125.892 84.3533 125.281 85.1041 125.281H92.6345C93.3853 125.281 93.9964 125.892 93.9964 126.643C93.9964 127.394 93.3853 128.005 92.6345 128.005ZM85.1041 125.607C84.5325 125.607 84.0671 126.072 84.0671 126.644C84.0671 127.215 84.5325 127.681 85.1041 127.681H92.6345C93.2061 127.681 93.6715 127.215 93.6715 126.644C93.6715 126.072 93.2061 125.607 92.6345 125.607H85.1041Z" fill="#1F4168"/>
<path d="M66.8459 81.3005H51.6402C50.8894 81.3005 50.2783 80.6894 50.2783 79.9386C50.2783 79.1877 50.8894 78.5767 51.6402 78.5767H66.8459C67.5968 78.5767 68.2078 79.1877 68.2078 79.9386C68.2078 80.6894 67.5968 81.3005 66.8459 81.3005ZM51.6402 78.9023C51.0687 78.9023 50.6032 79.3678 50.6032 79.9393C50.6032 80.5109 51.0687 80.9763 51.6402 80.9763H66.8459C67.4175 80.9763 67.8829 80.5109 67.8829 79.9393C67.8829 79.3678 67.4175 78.9023 66.8459 78.9023H51.6402Z" fill="#F3C521"/>
<path d="M66.8459 86.3828H51.6402C50.8894 86.3828 50.2783 85.7717 50.2783 85.0208C50.2783 84.27 50.8894 83.6589 51.6402 83.6589H66.8459C67.5968 83.6589 68.2078 84.27 68.2078 85.0208C68.2078 85.7717 67.5968 86.3828 66.8459 86.3828ZM51.6402 83.9846C51.0687 83.9846 50.6032 84.45 50.6032 85.0216C50.6032 85.5931 51.0687 86.0586 51.6402 86.0586H66.8459C67.4175 86.0586 67.8829 85.5931 67.8829 85.0216C67.8829 84.45 67.4175 83.9846 66.8459 83.9846H51.6402Z" fill="#F3C521"/>
<path d="M59.9764 91.4645H51.6402C50.8894 91.4645 50.2783 90.8535 50.2783 90.1026C50.2783 89.3518 50.8894 88.7407 51.6402 88.7407H59.9764C60.7272 88.7407 61.3383 89.3518 61.3383 90.1026C61.3383 90.8535 60.7272 91.4645 59.9764 91.4645ZM51.6402 89.0664C51.0687 89.0664 50.6032 89.5318 50.6032 90.1034C50.6032 90.6749 51.0687 91.1404 51.6402 91.1404H59.9764C60.5479 91.1404 61.0133 90.6749 61.0133 90.1034C61.0133 89.5318 60.5479 89.0664 59.9764 89.0664H51.6402Z" fill="#F3C521"/>
<path d="M104.564 110.292H99.8345C98.8854 110.292 98.1133 109.52 98.1133 108.571V103.842C98.1133 102.893 98.8854 102.121 99.8345 102.121H104.564C105.513 102.121 106.285 102.893 106.285 103.842V108.571C106.285 109.52 105.513 110.292 104.564 110.292ZM99.8345 102.446C99.0646 102.446 98.4382 103.072 98.4382 103.841V108.57C98.4382 109.34 99.0646 109.966 99.8345 109.966H104.564C105.333 109.966 105.96 109.34 105.96 108.57V103.841C105.96 103.071 105.333 102.446 104.564 102.446H99.8345Z" fill="#1F4168"/>
<path d="M101.552 107.974C101.528 107.974 101.505 107.972 101.48 107.968C101.341 107.942 101.227 107.842 101.183 107.707L100.446 105.785C100.414 105.701 100.456 105.607 100.54 105.575C100.624 105.543 100.718 105.584 100.75 105.669L101.49 107.599C101.503 107.638 101.527 107.647 101.541 107.65C101.554 107.652 101.577 107.652 101.597 107.633L103.633 104.381C103.681 104.305 103.782 104.282 103.857 104.33C103.934 104.378 103.956 104.478 103.909 104.554L101.865 107.817C101.861 107.823 101.857 107.829 101.852 107.834C101.778 107.925 101.667 107.976 101.552 107.976V107.974Z" fill="#1F4168"/>
<path d="M104.564 121.943H99.8345C98.8854 121.943 98.1133 121.171 98.1133 120.221V115.492C98.1133 114.543 98.8854 113.771 99.8345 113.771H104.564C105.513 113.771 106.285 114.543 106.285 115.492V120.221C106.285 121.171 105.513 121.943 104.564 121.943ZM99.8345 114.096C99.0646 114.096 98.4382 114.723 98.4382 115.492V120.221C98.4382 120.991 99.0646 121.618 99.8345 121.618H104.564C105.333 121.618 105.96 120.991 105.96 120.221V115.492C105.96 114.723 105.333 114.096 104.564 114.096H99.8345Z" fill="#1F4168"/>
<path d="M101.527 119.752C101.502 119.752 101.477 119.749 101.452 119.744C101.307 119.717 101.189 119.613 101.143 119.474L100.357 117.423C100.324 117.339 100.366 117.245 100.45 117.213C100.534 117.181 100.628 117.222 100.66 117.307L101.449 119.365C101.465 119.413 101.498 119.423 101.512 119.425C101.525 119.427 101.556 119.43 101.582 119.404L103.754 115.935C103.802 115.859 103.903 115.836 103.978 115.884C104.054 115.932 104.077 116.032 104.03 116.108L101.85 119.588C101.847 119.594 101.842 119.599 101.838 119.605C101.76 119.699 101.645 119.752 101.526 119.752H101.527Z" fill="#1F4168"/>
<path d="M104.564 133.592H99.8345C98.8854 133.592 98.1133 132.82 98.1133 131.871V127.142C98.1133 126.193 98.8854 125.421 99.8345 125.421H104.564C105.513 125.421 106.285 126.193 106.285 127.142V131.871C106.285 132.82 105.513 133.592 104.564 133.592ZM99.8345 125.746C99.0646 125.746 98.4382 126.372 98.4382 127.142V131.871C98.4382 132.641 99.0646 133.267 99.8345 133.267H104.564C105.333 133.267 105.96 132.641 105.96 131.871V127.142C105.96 126.372 105.333 125.746 104.564 125.746H99.8345Z" fill="#1F4168"/>
<path d="M101.522 131.43C101.497 131.43 101.472 131.428 101.447 131.423C101.301 131.395 101.182 131.291 101.136 131.15L100.338 129.07C100.306 128.986 100.348 128.892 100.432 128.86C100.516 128.827 100.61 128.869 100.642 128.953L101.442 131.04C101.458 131.09 101.493 131.101 101.507 131.103C101.521 131.106 101.553 131.108 101.58 131.08L103.783 127.563C103.831 127.487 103.932 127.464 104.007 127.512C104.083 127.559 104.106 127.659 104.059 127.736L101.848 131.264C101.845 131.27 101.84 131.275 101.836 131.281C101.758 131.376 101.642 131.429 101.522 131.429V131.43Z" fill="#1F4168"/>
<path d="M38.8105 88.7599L39.445 91.4889C39.4889 91.6777 39.6082 91.8402 39.7758 91.9382L41.0104 92.6635C41.1772 92.7615 41.2973 92.924 41.3412 93.1128L41.6676 94.5157C41.7129 94.7125 41.6727 94.9189 41.5563 95.0843L40.7806 96.1828C40.6642 96.3474 40.624 96.5545 40.6694 96.7514L40.8911 97.7042C40.9797 98.0848 41.3595 98.3211 41.74 98.2326C42.1206 98.144 42.5004 98.3811 42.5889 98.761L42.7887 99.6216C42.8773 100.002 42.6401 100.382 42.2603 100.47C41.8798 100.559 41.6434 100.939 41.732 101.319L41.9427 102.226C41.9896 102.427 42.122 102.598 42.305 102.693L43.4547 103.292C43.6376 103.387 43.7701 103.557 43.8169 103.759L44.1638 105.249C44.2084 105.442 44.1704 105.646 44.0577 105.81L43.2768 106.947C43.1641 107.111 43.1261 107.314 43.1707 107.508L43.4715 108.801C43.53 109.052 43.7188 109.251 43.9662 109.321L46.2773 109.981C46.5129 110.049 46.7669 109.989 46.9484 109.824L48.7084 108.219C48.8972 108.046 48.9784 107.786 48.9206 107.536L44.2589 87.491L38.8113 88.7577L38.8105 88.7599Z" fill="white"/>
<path d="M46.4737 110.173C46.3932 110.173 46.3127 110.162 46.2329 110.139L43.9219 109.479C43.6181 109.393 43.3854 109.148 43.3137 108.84L43.0129 107.546C42.9573 107.309 43.0049 107.058 43.1432 106.857L43.9241 105.72C44.0104 105.594 44.0397 105.437 44.0053 105.288L43.6584 103.797C43.6225 103.641 43.5208 103.51 43.3796 103.437L42.2299 102.839C42.0045 102.722 41.842 102.512 41.7842 102.264L41.5735 101.357C41.5208 101.131 41.5595 100.897 41.6825 100.7C41.8054 100.503 41.9972 100.365 42.224 100.313C42.5168 100.245 42.699 99.9517 42.6309 99.6589L42.4311 98.7983C42.3982 98.6563 42.3119 98.5363 42.1882 98.4595C42.0645 98.3826 41.9189 98.3585 41.7769 98.3914C41.5508 98.4441 41.3173 98.4053 41.1205 98.2824C40.9229 98.1594 40.7853 97.9677 40.7333 97.7408L40.5116 96.788C40.4552 96.5465 40.505 96.2918 40.6484 96.0891L41.4242 94.9907C41.5134 94.8641 41.5449 94.7045 41.5098 94.553L41.1834 93.1502C41.1497 93.0053 41.0568 92.8794 40.9287 92.804L39.6941 92.0788C39.4892 91.9588 39.3414 91.7568 39.2873 91.5262L38.6528 88.7973C38.6323 88.7102 38.6864 88.6224 38.7743 88.6026C38.8613 88.5814 38.9492 88.6363 38.9689 88.7241L39.6034 91.4531C39.6371 91.598 39.73 91.7238 39.8581 91.7992L41.0926 92.5244C41.2976 92.6445 41.4454 92.8464 41.4995 93.077L41.8259 94.4799C41.8823 94.7214 41.8325 94.976 41.6891 95.1787L40.9134 96.2772C40.8241 96.4038 40.7926 96.5633 40.8277 96.7148L41.0495 97.6677C41.0824 97.8096 41.1688 97.9297 41.2924 98.0065C41.4161 98.0833 41.5617 98.1075 41.7037 98.0745C41.9306 98.0219 42.1633 98.0606 42.3602 98.1836C42.5577 98.3065 42.6953 98.4983 42.7473 98.7251L42.9471 99.5858C43.0561 100.053 42.7641 100.521 42.2972 100.63C42.1553 100.663 42.0352 100.749 41.9584 100.873C41.8816 100.997 41.8574 101.142 41.8903 101.284L42.1011 102.192C42.137 102.347 42.2387 102.478 42.3799 102.551L43.5296 103.15C43.755 103.267 43.9175 103.476 43.9753 103.724L44.3222 105.216C44.377 105.453 44.3302 105.704 44.1919 105.905L43.411 107.042C43.3247 107.168 43.2947 107.325 43.3298 107.474L43.6306 108.768C43.6752 108.96 43.8216 109.114 44.0119 109.168L46.3229 109.828C46.5059 109.881 46.6991 109.836 46.8396 109.707L48.5989 108.102C48.7445 107.969 48.8067 107.768 48.7628 107.576L44.1012 87.5305C44.0807 87.4434 44.1348 87.3556 44.2226 87.3359C44.3097 87.3146 44.3975 87.3695 44.4173 87.4573L49.079 107.503C49.15 107.808 49.0504 108.13 48.8177 108.342L47.0584 109.947C46.8952 110.095 46.6881 110.174 46.4744 110.174L46.4737 110.173Z" fill="#1F4168"/>
<path d="M42.221 90.2953L46.0586 106.796C46.1348 107.125 46.4633 107.329 46.7919 107.253C47.1205 107.177 47.3247 106.848 47.2486 106.52L43.4109 90.0187C43.3348 89.6901 43.0062 89.4859 42.6776 89.5621C42.3491 89.6382 42.1449 89.9668 42.221 90.2953Z" fill="#F3C521"/>
<path d="M40.147 74.4691L36.7521 75.2587C33.6177 75.9876 31.5803 79.0627 32.3092 82.1978L33.5387 87.4845C33.8285 88.73 35.1589 89.557 36.4045 89.2672L46.6397 86.8866C47.8852 86.5968 48.6068 85.2927 48.317 84.0471L47.0876 78.7605C46.3587 75.6254 43.2814 73.7402 40.147 74.4691ZM42.1493 78.8102C42.2254 79.1388 42.0834 79.4974 41.7548 79.5735L37.5622 80.5483C37.2336 80.6244 36.8399 80.391 36.7638 80.0624L36.665 79.6365C36.4726 78.8102 37.0551 78.0265 37.882 77.834L40.2714 77.2785C41.0976 77.0861 41.8587 77.5581 42.0512 78.3843L42.15 78.8102H42.1493Z" fill="white"/>
<path d="M35.9008 89.4858C35.4273 89.4858 34.9465 89.3497 34.5271 89.0885C33.9461 88.7269 33.5282 88.1554 33.3804 87.5202L32.1509 82.2335C31.4118 79.0567 33.4594 75.8565 36.7153 75.0998L40.1102 74.3101C41.6697 73.9472 43.2665 74.2018 44.605 75.0266C45.9464 75.8535 46.8846 77.1664 47.2461 78.723L48.4756 84.0096C48.7939 85.3781 47.9867 86.7393 46.6768 87.0445L36.4416 89.4251C36.2652 89.4661 36.0837 89.4866 35.9008 89.4866V89.4858ZM40.1834 74.627L36.7885 75.4167C35.3043 75.7621 34.0368 76.649 33.2179 77.9143C32.3932 79.1884 32.1268 80.6967 32.4671 82.1611L33.6965 87.4477C33.8246 87.9995 34.1905 88.4979 34.6984 88.814C35.207 89.1302 35.8151 89.2378 36.3669 89.1097L46.6021 86.7291C47.7379 86.4649 48.4361 85.2786 48.158 84.0843L46.9285 78.7976C46.586 77.326 45.6998 76.0855 44.433 75.3047C43.1684 74.5246 41.6587 74.2845 40.1826 74.6278L40.1834 74.627ZM37.4325 80.7253C37.281 80.7253 37.1236 80.6806 36.9839 80.5965C36.7892 80.4786 36.6509 80.2979 36.6048 80.0995L36.506 79.6736C36.4043 79.2353 36.4928 78.7845 36.757 78.4047C37.0117 78.0388 37.3981 77.7797 37.8437 77.6758L40.2331 77.1203C41.1472 76.9066 41.9953 77.435 42.2076 78.3476L42.3064 78.7735C42.3532 78.9747 42.3327 79.1819 42.2493 79.3568C42.1563 79.5514 41.9931 79.6853 41.7904 79.7322L37.5979 80.707C37.5437 80.7194 37.4888 80.726 37.4317 80.726L37.4325 80.7253ZM40.6408 77.3969C40.5324 77.3969 40.4205 77.4101 40.3063 77.4365L37.9169 77.9919C37.5547 78.0761 37.229 78.2942 37.0234 78.5898C36.8126 78.8928 36.7409 79.2514 36.8221 79.599L36.9209 80.0249C36.9473 80.1383 37.0314 80.2452 37.1514 80.3176C37.2722 80.3908 37.4083 80.4172 37.5247 80.3893L41.7173 79.4146C41.8512 79.3831 41.9214 79.2887 41.9566 79.2155C42.0078 79.1087 42.0202 78.974 41.9902 78.8459L41.8914 78.42C41.7451 77.7899 41.2438 77.3962 40.6415 77.3962L40.6408 77.3969Z" fill="#1F4168"/>
<path d="M34.5298 76.2847C33.225 74.8744 32.4844 72.9929 32.4844 71.0675C32.4844 66.6781 36.2196 63.1449 40.6785 63.48C44.3991 63.7596 47.4025 66.763 47.682 70.4835C48.0165 74.9425 44.4833 78.6777 40.0945 78.6777C39.1864 78.6777 38.2979 78.5196 37.4534 78.2071C37.4534 78.2071 37.4044 77.9949 37.8815 77.8339L40.1904 77.2968L41.1886 77.0362C44.2688 76.4757 46.4453 73.6494 46.1335 70.4587C45.8474 67.5263 43.4375 65.2005 40.4978 65.0095C36.9697 64.7805 34.0256 67.5855 34.0256 71.0653C34.0256 72.7251 34.7325 74.3592 35.9261 75.5133L35.8742 75.5338C35.3948 75.7226 34.9425 75.9751 34.5305 76.2839L34.5298 76.2847Z" fill="white"/>
<path d="M41.2661 77.1841C41.19 77.1841 41.1219 77.1307 41.1066 77.0524C41.0897 76.9646 41.1468 76.879 41.2346 76.8621C43.9958 76.3228 46.0002 73.8851 46.0002 71.0661C46.0002 67.8088 43.3503 65.1596 40.0937 65.1596C36.8371 65.1596 34.1872 67.8096 34.1872 71.0661C34.1872 72.3754 34.6036 73.6121 35.3903 74.6418C35.4452 74.7128 35.4313 74.8152 35.3603 74.8694C35.2893 74.9243 35.1869 74.9104 35.1327 74.8394C34.3021 73.7526 33.8623 72.4478 33.8623 71.0669C33.8623 67.631 36.6578 64.8354 40.0937 64.8354C43.5296 64.8354 46.3252 67.631 46.3252 71.0669C46.3252 74.041 44.2102 76.6126 41.2968 77.1819C41.2866 77.1841 41.2756 77.1849 41.2654 77.1849L41.2661 77.1841Z" fill="#1F4168"/>
<path d="M40.0942 78.8402C39.5307 78.8402 38.9686 78.7794 38.4242 78.6602C38.3363 78.6411 38.2807 78.554 38.3005 78.467C38.3195 78.3791 38.4059 78.3235 38.4937 78.3433C39.0155 78.4574 39.5534 78.5153 40.0942 78.5153C44.2004 78.5153 47.5411 75.1745 47.5411 71.0683C47.5411 66.9621 44.2004 63.6213 40.0942 63.6213C35.9879 63.6213 32.6472 66.9621 32.6472 71.0683C32.6472 72.7193 33.1748 74.2817 34.1738 75.5873C34.2287 75.6582 34.2147 75.7607 34.1438 75.8149C34.0728 75.8697 33.9703 75.8558 33.9162 75.7849C32.8733 74.4222 32.3223 72.7917 32.3223 71.0683C32.3223 66.7828 35.8086 63.2957 40.0949 63.2957C44.3812 63.2957 47.8675 66.782 47.8675 71.0683C47.8675 75.3545 44.3812 78.8409 40.0949 78.8409L40.0942 78.8402Z" fill="#1F4168"/>
<path d="M196.074 207.835C196.074 207.888 162.947 207.933 122.093 207.933C81.2395 207.933 48.1045 207.888 48.1045 207.835C48.1045 207.783 81.2247 207.738 122.093 207.738C162.962 207.738 196.074 207.783 196.074 207.835Z" fill="#263238"/>
<path d="M107.295 75.9431C108.366 72.3928 110.92 69.3219 114.203 67.6366C117.809 65.7828 122.104 65.6255 126.049 66.5393C129.993 67.4531 133.637 69.3668 137.084 71.509C139.017 72.7111 140.939 74.0256 142.3 75.8569C144.784 79.1975 147.182 84.6353 147.312 88.811C147.416 92.1852 145.899 100.582 144.397 103.6C143.862 104.675 142.612 105.626 141.107 106.424C139.486 109.401 137.37 112.097 134.819 114.322C134.109 112.038 133.399 109.753 132.685 107.469L107.295 75.9431Z" fill="#263238"/>
<path d="M148.777 117.595C150.409 111.513 149.692 104.023 149.435 98.8177C149.179 93.6121 150.32 91.3689 146.431 82.6505C143.516 76.1229 138.701 72.1681 134.11 69.7676L115.572 71.8011C115.702 71.4716 115.836 71.1495 115.969 70.8499L109.344 71.8461C106.909 71.5465 105.224 72.7149 104.046 74.5949C103.644 75.0518 103.295 75.5574 103.02 76.0967C102.142 77.8156 101.852 79.763 101.573 81.6767C101.317 83.4407 101.201 85.3656 101.172 87.3804C101.116 88.1369 101.071 88.7998 101.019 89.3166C100.952 89.9907 101.042 90.8446 101.224 91.792C101.495 99.8139 102.518 108.656 101.547 115.315C101.447 116.011 101.35 116.756 101.655 117.389C101.982 118.063 102.685 118.457 103.362 118.779C111.582 122.711 117.397 117.992 125.525 113.865C127.105 113.06 128.722 112.09 130.492 112.157C132.366 112.229 133.916 117.168 135.63 117.929" fill="#263238"/>
<path d="M140.181 87.1294C139.969 82.0698 136.843 77.8342 132.009 76.4448L116.94 72.1081C110.4 71.2055 105.79 79.2087 105.172 85.8261C104.488 93.1813 103.971 100.945 104.67 106.469C106.076 117.576 114.445 119.243 114.445 119.243C114.445 119.228 114.296 124.501 114.211 127.733L121.524 163.15L137.426 126.19L140.215 87.2642C140.226 87.0769 140.189 87.3803 140.181 87.1294Z" fill="#FFC89F"/>
<path d="M129.116 115.734C129.116 115.734 125.328 123.224 114.378 121.85L114.449 119.25C114.449 119.25 121.669 119.936 129.116 115.734Z" fill="#FF9A6C"/>
<path d="M108.44 75.8158C109.158 74.1718 110.998 73.2243 112.783 73.1868C114.568 73.1456 116.285 73.8759 117.802 74.8197C124.231 78.8118 127.331 88.1032 133.678 92.2265C135.24 93.2414 137.333 92.4138 138.645 93.7358C139.962 95.0577 140.78 97.1325 139.984 98.8215C140.887 97.6493 141.798 96.4509 142.334 95.069C142.865 93.6833 142.973 92.0617 142.274 90.7547C141.743 89.7623 140.776 88.9908 140.538 87.8898C140.326 86.9236 140.731 85.9274 140.72 84.935C140.705 83.9275 140.263 82.9763 139.794 82.085C137.392 77.5048 134.028 73.3291 129.618 70.6664C126.737 68.925 123.416 67.8614 120.055 67.8801C116.694 67.8989 113.307 69.0448 110.786 71.2806C109.303 72.5951 107.745 73.9546 108.44 75.8196" fill="#263238"/>
<path d="M138.453 95.099C138.575 94.7844 144.361 92.8669 144.264 99.0013C144.167 104.96 138.237 103.615 138.23 103.443C138.222 103.271 138.453 95.099 138.453 95.099Z" fill="#FFC89F"/>
<path d="M140.096 101.218C140.122 101.2 140.196 101.293 140.371 101.376C140.539 101.458 140.832 101.518 141.141 101.405C141.769 101.188 142.316 100.196 142.364 99.1248C142.39 98.5817 142.286 98.0649 142.104 97.6343C141.933 97.1961 141.658 96.8853 141.345 96.8216C141.033 96.7429 140.806 96.9264 140.732 97.095C140.65 97.2598 140.684 97.3796 140.654 97.3908C140.635 97.4058 140.527 97.2897 140.583 97.0425C140.609 96.9227 140.68 96.7841 140.821 96.6755C140.966 96.5632 141.174 96.507 141.394 96.5332C141.851 96.5744 142.253 97.0051 142.453 97.477C142.68 97.9526 142.807 98.5368 142.78 99.1435C142.721 100.342 142.089 101.454 141.23 101.686C140.814 101.787 140.468 101.653 140.289 101.51C140.107 101.361 140.081 101.226 140.1 101.214L140.096 101.218Z" fill="#FF9A6C"/>
<path d="M140.891 92.1065C140.891 92.1065 140.765 92.0428 140.542 91.8967C140.319 91.7469 139.977 91.541 139.568 91.2339C138.757 90.6084 137.638 89.6235 136.46 88.2154C135.27 86.8147 134.039 85.0096 132.701 82.9948C131.362 80.9837 129.894 78.7592 127.994 76.7369C127.027 75.7482 126.005 74.8531 124.915 74.1416C123.829 73.4225 122.684 72.887 121.558 72.49C119.301 71.6886 117.122 71.4639 115.319 71.535C113.508 71.5987 112.066 71.9433 111.099 72.2429C110.608 72.3777 110.244 72.5312 109.991 72.6211C109.738 72.711 109.604 72.7559 109.601 72.7484C109.601 72.7409 109.723 72.6773 109.969 72.5724C110.214 72.4676 110.575 72.2953 111.065 72.1455C112.028 71.8122 113.478 71.4339 115.308 71.3478C117.13 71.2504 119.346 71.4564 121.64 72.2578C122.785 72.6548 123.952 73.1941 125.056 73.9244C126.168 74.6472 127.205 75.5535 128.183 76.5571C130.102 78.6056 131.574 80.8489 132.901 82.8675C134.225 84.8898 135.437 86.6986 136.601 88.103C137.753 89.5149 138.843 90.5148 139.627 91.1627C140.021 91.481 140.356 91.6982 140.568 91.863C140.784 92.0241 140.895 92.1102 140.888 92.1214L140.891 92.1065Z" fill="#455A64"/>
<path d="M140.739 102.293C141.319 102.203 141.929 102.622 142.055 103.199C142.182 103.776 141.803 104.416 141.241 104.581C140.68 104.746 140.018 104.401 139.821 103.847C139.624 103.293 139.921 102.607 140.46 102.375" fill="white"/>
<path d="M140.46 102.372C140.493 102.409 140.069 102.566 139.906 103.158C139.828 103.439 139.857 103.817 140.11 104.098C140.352 104.379 140.794 104.562 141.203 104.446C141.609 104.327 141.891 103.933 141.943 103.566C142.01 103.192 141.835 102.858 141.62 102.66C141.17 102.248 140.727 102.342 140.735 102.293C140.735 102.278 140.828 102.233 141.014 102.237C141.196 102.237 141.478 102.3 141.742 102.518C142.006 102.72 142.256 103.132 142.185 103.604C142.129 104.061 141.806 104.547 141.27 104.712C140.735 104.858 140.199 104.619 139.913 104.263C139.605 103.896 139.601 103.416 139.716 103.106C139.828 102.78 140.032 102.578 140.188 102.476C140.345 102.375 140.449 102.36 140.456 102.375L140.46 102.372Z" fill="#263238"/>
<path d="M139.356 93.7468C139.404 95.3759 139.426 97.0948 138.642 98.518C137.854 99.9411 135.946 100.87 134.563 100.023C133.437 99.3306 133.135 97.8439 132.979 96.5256C132.526 92.7169 132.377 88.8745 131.894 85.0696L139.356 93.7468Z" fill="#263238"/>
<path d="M109.976 73.0257C109.979 73.0594 110.5 72.9433 111.448 72.9396C112.392 72.9396 113.779 73.1081 115.341 73.771C116.118 74.1005 116.943 74.5349 117.757 75.1117C118.572 75.6884 119.397 76.3737 120.23 77.1302C121.884 78.6545 123.591 80.482 125.03 82.6467C125.751 83.729 126.383 84.8412 127.079 85.8749C127.763 86.9085 128.532 87.8485 129.373 88.6275C131.049 90.1816 132.789 91.2864 134.273 92.1365C135.764 92.9867 137.009 93.5859 137.872 94.0016C138.277 94.1888 138.608 94.3424 138.872 94.4659C139.103 94.5671 139.225 94.6157 139.229 94.6045C139.233 94.5933 139.121 94.5259 138.902 94.4023C138.649 94.2675 138.326 94.0952 137.931 93.8817C137.087 93.4323 135.857 92.7994 134.392 91.9306C132.931 91.058 131.22 89.942 129.581 88.399C128.766 87.6313 128.023 86.7138 127.346 85.6876C126.666 84.6652 126.034 83.553 125.305 82.4594C123.848 80.2611 122.115 78.426 120.434 76.898C119.587 76.1416 118.746 75.4562 117.914 74.8795C117.077 74.299 116.229 73.8721 115.43 73.5463C113.827 72.8946 112.403 72.7635 111.448 72.801C110.968 72.8197 110.596 72.8721 110.351 72.9246C110.102 72.977 109.976 73.0107 109.979 73.0219L109.976 73.0257Z" fill="#455A64"/>
<path d="M94.5311 208L152.495 207.929L151.893 196.6L152.975 155.854L151.796 129.313C146.959 127.31 137.746 124.224 137.746 124.224C137.746 124.224 134.329 132.493 125.402 132.493C117.096 132.493 114.01 125.171 114.01 125.171L109.898 126.804C109.898 126.804 102.413 127.883 94.5273 131.152L96.5797 159.48C96.5797 159.48 100.893 183.313 100.153 187.533C99.4128 191.754 94.5273 208.004 94.5273 208.004L94.5311 208Z" fill="#023874"/>
<g opacity="0.3">
<path d="M119.78 167.022C119.293 170.25 118.947 173.965 121.133 176.373C122.393 177.763 124.249 178.396 125.892 179.291C129.268 181.129 131.845 184.144 134.18 187.211C136.511 190.279 138.716 193.507 141.638 196.012C144.56 198.518 148.382 200.263 152.182 199.72L151.39 192.102L131.726 171.935L119.78 167.022Z" fill="black"/>
</g>
<path d="M95.2781 130.871C95.2781 130.871 90.6566 132.47 86.5296 141.009C83.9827 146.282 74.7509 178.459 74.4088 182.489C74.3865 182.74 74.4125 183.032 74.3791 183.347C73.1707 194.582 83.86 202.341 92.9134 196.286C95.6164 194.477 97.587 191.75 98.5871 188.638L102.086 177.748L95.2781 130.871Z" fill="#023874"/>
<path d="M122.074 183.47C122.044 183.515 118.092 181.092 113.244 178.058C108.395 175.021 104.488 172.523 104.514 172.478C104.544 172.433 108.496 174.856 113.344 177.89C118.192 180.923 122.1 183.421 122.07 183.47H122.074Z" fill="#F9A21B"/>
<path d="M151.796 129.31C151.796 129.31 162.824 131.433 165.189 139.069C167.282 145.829 172.141 176.048 172.799 182.339C173.695 190.934 171.825 200.562 162.701 201.532C153.577 202.502 136.448 186.608 136.448 186.608L147.692 171.932L152.183 174.362L151.358 153.413L151.796 129.306V129.31Z" fill="#023874"/>
<path d="M155.421 199.967C155.421 199.967 155.384 199.956 155.313 199.929C155.235 199.899 155.131 199.858 155.001 199.806C154.729 199.686 154.309 199.547 153.803 199.289C152.774 198.798 151.324 197.993 149.576 196.873C146.092 194.608 141.437 191.084 136.388 186.683L136.321 186.627L136.377 186.556C137.756 184.755 139.218 182.845 140.723 180.878C143.166 177.691 145.501 174.65 147.624 171.883L147.669 171.823L147.736 171.857C150.23 173.137 152.48 174.433 154.484 175.598C156.484 176.763 158.235 177.811 159.678 178.684C161.121 179.556 162.262 180.261 163.035 180.744C163.415 180.983 163.712 181.171 163.92 181.302C164.013 181.362 164.087 181.41 164.147 181.448C164.199 181.481 164.221 181.5 164.221 181.504C164.221 181.504 164.192 181.493 164.14 181.463C164.08 181.429 164.002 181.384 163.905 181.328C163.693 181.201 163.392 181.025 163.006 180.792C162.21 180.32 161.065 179.635 159.622 178.778C158.172 177.916 156.417 176.883 154.409 175.729C152.402 174.576 150.149 173.291 147.658 172.018L147.769 171.992C145.65 174.763 143.319 177.808 140.88 180.995C139.374 182.957 137.909 184.867 136.529 186.668L136.518 186.541C141.553 190.945 146.189 194.484 149.647 196.772C151.383 197.907 152.822 198.723 153.837 199.233C154.339 199.499 154.752 199.649 155.019 199.776C155.149 199.836 155.25 199.881 155.328 199.914C155.395 199.948 155.432 199.963 155.432 199.967H155.421Z" fill="#263238"/>
<path d="M97.1185 156.023C97.1185 156.023 97.0367 156.023 96.8768 156.008C96.7058 155.989 96.4715 155.963 96.1778 155.929C95.5532 155.854 94.6608 155.746 93.5454 155.607C91.2812 155.319 88.1023 154.911 84.3768 154.435L84.4735 154.371C83.8414 156.57 83.1647 158.993 82.4732 161.528C80.9971 166.955 79.759 171.89 78.941 175.482C78.5321 177.28 78.2272 178.736 78.0227 179.747C77.926 180.242 77.8479 180.631 77.7922 180.912C77.7661 181.036 77.7438 181.137 77.729 181.216C77.7141 181.283 77.7029 181.317 77.6992 181.317C77.6992 181.317 77.6992 181.279 77.7067 181.212C77.7178 181.133 77.7327 181.032 77.7513 180.905C77.7996 180.624 77.8628 180.231 77.9446 179.733C78.1268 178.718 78.4094 177.253 78.8035 175.452C79.5843 171.849 80.8075 166.902 82.2835 161.476C82.9751 158.936 83.6518 156.517 84.295 154.319L84.3173 154.244L84.3954 154.255C88.1134 154.761 91.2923 155.191 93.5529 155.498C94.6646 155.656 95.5532 155.783 96.1778 155.869C96.4715 155.914 96.702 155.948 96.8731 155.974C97.0329 156 97.111 156.015 97.111 156.019L97.1185 156.023Z" fill="#F9A21B"/>
<path d="M99.2789 151.181C99.331 151.181 99.647 158.865 99.9779 168.348C100.313 177.834 100.539 185.522 100.484 185.522C100.432 185.522 100.115 177.838 99.7846 168.351C99.45 158.869 99.2232 151.181 99.2789 151.177V151.181Z" fill="#F9A21B"/>
<path d="M151.398 154.645C151.398 154.645 151.409 154.716 151.413 154.847C151.413 155.001 151.413 155.192 151.413 155.424C151.413 155.922 151.416 156.645 151.439 157.536C151.476 159.322 151.569 161.787 151.699 164.509C151.84 167.217 151.967 169.67 152.063 171.479C152.108 172.347 152.145 173.063 152.171 173.591C152.179 173.823 152.186 174.014 152.193 174.168C152.193 174.299 152.193 174.37 152.19 174.37C152.182 174.37 152.171 174.302 152.156 174.171C152.141 174.018 152.123 173.831 152.101 173.598C152.06 173.07 152 172.359 151.933 171.49C151.803 169.707 151.643 167.243 151.513 164.52C151.383 161.798 151.309 159.33 151.309 157.54C151.309 156.645 151.32 155.922 151.346 155.424C151.361 155.192 151.372 155.001 151.379 154.851C151.39 154.72 151.398 154.652 151.405 154.652L151.398 154.645Z" fill="#F9A21B"/>
<path d="M159.138 137.406C159.183 137.436 157.346 140.406 155.034 144.035C152.721 147.668 150.81 150.589 150.765 150.562C150.721 150.533 152.558 147.566 154.874 143.93C157.186 140.297 159.098 137.376 159.142 137.406H159.138Z" fill="#F9A21B"/>
<path d="M102.48 130.062C101.205 130.119 101.079 129.418 99.6732 131.512C98.2677 133.605 99.0671 136.047 96.7248 136.455C94.3824 136.863 92.8803 131.819 92.6535 131.339C92.5494 131.122 91.9545 129.804 91.1738 128.074C90.2257 125.973 88.9987 123.261 88.0395 121.168C86.292 117.352 84.5259 118.884 84.5259 118.884L87.6007 130.021C87.6007 130.021 83.1651 121.734 81.2838 119.902C79.4025 118.071 78.1458 119.674 78.1458 119.674L84.1541 131.456C84.1541 131.456 79.4099 124.831 78.0566 122.928C76.7032 121.026 75.5878 121.089 75.2048 121.707C74.8219 122.325 75.0933 123.542 75.5469 124.501C76.0005 125.46 81.7597 134.306 81.5441 134.276C81.3284 134.246 76.666 130.68 75.4279 130.055C74.1898 129.433 73.1562 129.954 73 131.044C72.8439 132.133 81.8861 140.193 81.8861 140.193L85.8161 150.488L85.1282 154.502L96.4794 155.839L96.6764 149.866C96.6764 149.866 99.2158 145.945 100.134 143.103C101.053 140.26 102.462 132.886 102.938 132.137C103.413 131.388 103.752 129.999 102.477 130.055L102.48 130.062Z" fill="#FFC89F"/>
<path d="M96.3637 143.095C96.3637 143.095 96.1294 143.05 95.7056 142.979C95.2817 142.908 94.6608 142.833 93.8949 142.867C93.5119 142.882 93.0992 142.934 92.6493 143.009C92.2032 143.076 91.6975 143.155 91.177 143.009C90.6602 142.867 90.1992 142.515 89.8199 142.099C89.4333 141.683 89.1061 141.2 88.7454 140.74C87.3028 138.871 85.7041 137.436 84.4808 136.496C83.8674 136.025 83.3543 135.672 82.9936 135.433C82.633 135.193 82.4322 135.062 82.4397 135.051C82.4397 135.043 82.4991 135.07 82.5995 135.126C82.6999 135.182 82.8486 135.261 83.0345 135.373C83.4063 135.594 83.9343 135.931 84.5626 136.392C85.8156 137.305 87.4404 138.74 88.8979 140.623C89.2659 141.092 89.5894 141.571 89.9612 141.975C90.3256 142.38 90.7532 142.709 91.2253 142.84C91.6975 142.979 92.1809 142.915 92.627 142.852C93.0732 142.781 93.5045 142.736 93.8912 142.728C94.672 142.713 95.2966 142.81 95.7204 142.904C95.9324 142.953 96.096 142.998 96.2038 143.031C96.3116 143.069 96.3674 143.088 96.3674 143.095H96.3637Z" fill="#FF9A6C"/>
<path d="M119.367 147.424L119.865 173.235C119.891 174.553 120.973 175.598 122.282 175.572L133.079 175.34C134.343 175.313 135.362 174.287 135.392 173.014L136.013 147.435C136.046 146.098 134.975 144.994 133.648 144.994H121.736C120.412 144.994 119.345 146.087 119.371 147.424H119.367Z" fill="#263238"/>
<path d="M128.867 149.937C128.867 150.491 128.421 150.941 127.87 150.941C127.32 150.941 126.874 150.491 126.874 149.937C126.874 149.383 127.32 148.933 127.87 148.933C128.421 148.933 128.867 149.383 128.867 149.937Z" fill="white"/>
<path d="M135.746 153.345C135.746 153.345 138.835 157.03 139.973 158.667C141.111 160.303 141.52 165.629 141.52 165.629L142.252 171.771L146.569 174.298L138.489 184.556L131.838 178.321L125.428 175.946C125.428 175.946 121.115 171.853 120.383 169.969C119.65 168.085 119.732 166.61 119.732 166.61C119.732 166.61 117.698 162.187 117.293 160.633C116.888 159.075 116.888 156.292 116.888 156.292C116.888 156.292 118.025 155.967 119.003 157.85L117.457 154.656C117.457 154.656 118.271 152.199 120.383 154.573C122.498 156.948 125.993 160.962 125.993 160.962L129.979 164.157L130.466 163.584C130.466 163.584 123.391 154.903 123.554 153.345C123.718 151.787 125.179 151.709 126.726 153.345C128.272 154.982 134.612 163.172 135.426 163.254C136.24 163.337 136.482 162.191 136.482 162.191L135.913 159.079L135.589 158.423L135.753 153.345H135.746Z" fill="#FFC89F"/>
<path d="M124.778 166.288C124.778 166.288 124.666 166.187 124.491 165.981C124.317 165.775 124.075 165.475 123.777 165.093C123.186 164.337 122.398 163.266 121.576 162.052C120.755 160.835 120.056 159.708 119.572 158.876C119.331 158.461 119.141 158.124 119.015 157.884C118.888 157.648 118.825 157.513 118.836 157.506C118.847 157.498 118.933 157.622 119.082 157.846C119.249 158.109 119.453 158.427 119.691 158.805C120.204 159.618 120.922 160.73 121.74 161.944C122.562 163.153 123.331 164.232 123.893 165.011C124.153 165.374 124.376 165.681 124.555 165.932C124.711 166.153 124.789 166.277 124.781 166.284L124.778 166.288Z" fill="#FF9A6C"/>
<path d="M122.873 170.392C122.829 170.422 121.97 169.295 120.951 167.876C119.932 166.453 119.144 165.277 119.185 165.243C119.23 165.213 120.089 166.34 121.107 167.76C122.126 169.183 122.914 170.359 122.873 170.392Z" fill="#FF9A6C"/>
<path d="M16 203C16 197.477 20.4772 193 26 193H179C184.523 193 189 197.477 189 203V238H26C20.4771 238 16 233.523 16 228V203Z" fill="#A9E4FF"/>
<path d="M32.518 206.614C32.518 205.662 32.7373 204.808 33.176 204.052C33.624 203.296 34.226 202.708 34.982 202.288C35.7473 201.859 36.5827 201.644 37.488 201.644C38.524 201.644 39.4433 201.901 40.246 202.414C41.058 202.918 41.646 203.637 42.01 204.57H40.092C39.84 204.057 39.49 203.674 39.042 203.422C38.594 203.17 38.076 203.044 37.488 203.044C36.844 203.044 36.27 203.189 35.766 203.478C35.262 203.767 34.8653 204.183 34.576 204.724C34.296 205.265 34.156 205.895 34.156 206.614C34.156 207.333 34.296 207.963 34.576 208.504C34.8653 209.045 35.262 209.465 35.766 209.764C36.27 210.053 36.844 210.198 37.488 210.198C38.076 210.198 38.594 210.072 39.042 209.82C39.49 209.568 39.84 209.185 40.092 208.672H42.01C41.646 209.605 41.058 210.324 40.246 210.828C39.4433 211.332 38.524 211.584 37.488 211.584C36.5733 211.584 35.738 211.374 34.982 210.954C34.226 210.525 33.624 209.932 33.176 209.176C32.7373 208.42 32.518 207.566 32.518 206.614ZM47.8681 203.66C48.4561 203.66 48.9788 203.786 49.4361 204.038C49.9028 204.29 50.2668 204.663 50.5281 205.158C50.7988 205.653 50.9341 206.25 50.9341 206.95V211.5H49.3521V207.188C49.3521 206.497 49.1795 205.97 48.8341 205.606C48.4888 205.233 48.0175 205.046 47.4201 205.046C46.8228 205.046 46.3468 205.233 45.9921 205.606C45.6468 205.97 45.4741 206.497 45.4741 207.188V211.5H43.8781V201.14H45.4741V204.682C45.7448 204.355 46.0855 204.103 46.4961 203.926C46.9161 203.749 47.3735 203.66 47.8681 203.66ZM52.4379 207.608C52.4379 206.833 52.5966 206.147 52.9139 205.55C53.2406 204.953 53.6793 204.491 54.2299 204.164C54.7899 203.828 55.4059 203.66 56.0779 203.66C56.6846 203.66 57.2119 203.781 57.6599 204.024C58.1173 204.257 58.4813 204.551 58.7519 204.906V203.786H60.3619V211.5H58.7519V210.352C58.4813 210.716 58.1126 211.019 57.6459 211.262C57.1793 211.505 56.6473 211.626 56.0499 211.626C55.3873 211.626 54.7806 211.458 54.2299 211.122C53.6793 210.777 53.2406 210.301 52.9139 209.694C52.5966 209.078 52.4379 208.383 52.4379 207.608ZM58.7519 207.636C58.7519 207.104 58.6399 206.642 58.4159 206.25C58.2013 205.858 57.9166 205.559 57.5619 205.354C57.2073 205.149 56.8246 205.046 56.4139 205.046C56.0033 205.046 55.6206 205.149 55.2659 205.354C54.9113 205.55 54.6219 205.844 54.3979 206.236C54.1833 206.619 54.0759 207.076 54.0759 207.608C54.0759 208.14 54.1833 208.607 54.3979 209.008C54.6219 209.409 54.9113 209.717 55.2659 209.932C55.6299 210.137 56.0126 210.24 56.4139 210.24C56.8246 210.24 57.2073 210.137 57.5619 209.932C57.9166 209.727 58.2013 209.428 58.4159 209.036C58.6399 208.635 58.7519 208.168 58.7519 207.636ZM64.0542 201.14V211.5H62.4582V201.14H64.0542ZM67.7456 201.14V211.5H66.1496V201.14H67.7456ZM69.309 207.608C69.309 206.833 69.4677 206.147 69.785 205.55C70.1117 204.953 70.5503 204.491 71.101 204.164C71.661 203.828 72.277 203.66 72.949 203.66C73.5557 203.66 74.083 203.781 74.531 204.024C74.9883 204.257 75.3523 204.551 75.623 204.906V203.786H77.233V211.5H75.623V210.352C75.3523 210.716 74.9837 211.019 74.517 211.262C74.0503 211.505 73.5183 211.626 72.921 211.626C72.2583 211.626 71.6517 211.458 71.101 211.122C70.5503 210.777 70.1117 210.301 69.785 209.694C69.4677 209.078 69.309 208.383 69.309 207.608ZM75.623 207.636C75.623 207.104 75.511 206.642 75.287 206.25C75.0723 205.858 74.7877 205.559 74.433 205.354C74.0783 205.149 73.6957 205.046 73.285 205.046C72.8743 205.046 72.4917 205.149 72.137 205.354C71.7823 205.55 71.493 205.844 71.269 206.236C71.0543 206.619 70.947 207.076 70.947 207.608C70.947 208.14 71.0543 208.607 71.269 209.008C71.493 209.409 71.7823 209.717 72.137 209.932C72.501 210.137 72.8837 210.24 73.285 210.24C73.6957 210.24 74.0783 210.137 74.433 209.932C74.7877 209.727 75.0723 209.428 75.287 209.036C75.511 208.635 75.623 208.168 75.623 207.636ZM83.2213 203.66C83.828 203.66 84.3693 203.786 84.8453 204.038C85.3306 204.29 85.7086 204.663 85.9793 205.158C86.25 205.653 86.3853 206.25 86.3853 206.95V211.5H84.8033V207.188C84.8033 206.497 84.6306 205.97 84.2853 205.606C83.94 205.233 83.4686 205.046 82.8713 205.046C82.274 205.046 81.798 205.233 81.4433 205.606C81.098 205.97 80.9253 206.497 80.9253 207.188V211.5H79.3293V203.786H80.9253V204.668C81.1866 204.351 81.518 204.103 81.9193 203.926C82.33 203.749 82.764 203.66 83.2213 203.66ZM34.646 217.77V227.5H33.05V217.77H34.646ZM40.6334 219.66C41.2401 219.66 41.7814 219.786 42.2574 220.038C42.7427 220.29 43.1207 220.663 43.3914 221.158C43.6621 221.653 43.7974 222.25 43.7974 222.95V227.5H42.2154V223.188C42.2154 222.497 42.0427 221.97 41.6974 221.606C41.3521 221.233 40.8807 221.046 40.2834 221.046C39.6861 221.046 39.2101 221.233 38.8554 221.606C38.5101 221.97 38.3374 222.497 38.3374 223.188V227.5H36.7414V219.786H38.3374V220.668C38.5987 220.351 38.9301 220.103 39.3314 219.926C39.7421 219.749 40.1761 219.66 40.6334 219.66ZM49.0672 221.088H47.6392V227.5H46.0292V221.088H45.1192V219.786H46.0292V219.24C46.0292 218.353 46.2625 217.709 46.7292 217.308C47.2052 216.897 47.9472 216.692 48.9552 216.692V218.022C48.4699 218.022 48.1292 218.115 47.9332 218.302C47.7372 218.479 47.6392 218.792 47.6392 219.24V219.786H49.0672V221.088ZM53.8276 227.626C53.0996 227.626 52.4416 227.463 51.8536 227.136C51.2656 226.8 50.8036 226.333 50.4676 225.736C50.1316 225.129 49.9636 224.429 49.9636 223.636C49.9636 222.852 50.1363 222.157 50.4816 221.55C50.827 220.943 51.2983 220.477 51.8956 220.15C52.493 219.823 53.1603 219.66 53.8976 219.66C54.635 219.66 55.3023 219.823 55.8996 220.15C56.497 220.477 56.9683 220.943 57.3136 221.55C57.659 222.157 57.8316 222.852 57.8316 223.636C57.8316 224.42 57.6543 225.115 57.2996 225.722C56.945 226.329 56.4596 226.8 55.8436 227.136C55.237 227.463 54.565 227.626 53.8276 227.626ZM53.8276 226.24C54.2383 226.24 54.621 226.142 54.9756 225.946C55.3396 225.75 55.6336 225.456 55.8576 225.064C56.0816 224.672 56.1936 224.196 56.1936 223.636C56.1936 223.076 56.0863 222.605 55.8716 222.222C55.657 221.83 55.3723 221.536 55.0176 221.34C54.663 221.144 54.2803 221.046 53.8696 221.046C53.459 221.046 53.0763 221.144 52.7216 221.34C52.3763 221.536 52.101 221.83 51.8956 222.222C51.6903 222.605 51.5876 223.076 51.5876 223.636C51.5876 224.467 51.7976 225.111 52.2176 225.568C52.647 226.016 53.1836 226.24 53.8276 226.24ZM61.0054 220.906C61.2387 220.514 61.5467 220.211 61.9294 219.996C62.3214 219.772 62.7834 219.66 63.3154 219.66V221.312H62.9094C62.284 221.312 61.808 221.471 61.4814 221.788C61.164 222.105 61.0054 222.656 61.0054 223.44V227.5H59.4094V219.786H61.0054V220.906ZM74.1204 219.66C74.7271 219.66 75.2684 219.786 75.7444 220.038C76.2298 220.29 76.6078 220.663 76.8784 221.158C77.1584 221.653 77.2984 222.25 77.2984 222.95V227.5H75.7164V223.188C75.7164 222.497 75.5438 221.97 75.1984 221.606C74.8531 221.233 74.3818 221.046 73.7844 221.046C73.1871 221.046 72.7111 221.233 72.3564 221.606C72.0111 221.97 71.8384 222.497 71.8384 223.188V227.5H70.2564V223.188C70.2564 222.497 70.0838 221.97 69.7384 221.606C69.3931 221.233 68.9218 221.046 68.3244 221.046C67.7271 221.046 67.2511 221.233 66.8964 221.606C66.5511 221.97 66.3784 222.497 66.3784 223.188V227.5H64.7824V219.786H66.3784V220.668C66.6398 220.351 66.9711 220.103 67.3724 219.926C67.7738 219.749 68.2031 219.66 68.6604 219.66C69.2764 219.66 69.8271 219.791 70.3124 220.052C70.7978 220.313 71.1711 220.691 71.4324 221.186C71.6658 220.719 72.0298 220.351 72.5244 220.08C73.0191 219.8 73.5511 219.66 74.1204 219.66ZM78.7973 223.608C78.7973 222.833 78.956 222.147 79.2733 221.55C79.6 220.953 80.0386 220.491 80.5893 220.164C81.1493 219.828 81.7653 219.66 82.4373 219.66C83.044 219.66 83.5713 219.781 84.0193 220.024C84.4766 220.257 84.8406 220.551 85.1113 220.906V219.786H86.7213V227.5H85.1113V226.352C84.8406 226.716 84.472 227.019 84.0053 227.262C83.5386 227.505 83.0066 227.626 82.4093 227.626C81.7466 227.626 81.14 227.458 80.5893 227.122C80.0386 226.777 79.6 226.301 79.2733 225.694C78.956 225.078 78.7973 224.383 78.7973 223.608ZM85.1113 223.636C85.1113 223.104 84.9993 222.642 84.7753 222.25C84.5606 221.858 84.276 221.559 83.9213 221.354C83.5666 221.149 83.184 221.046 82.7733 221.046C82.3626 221.046 81.98 221.149 81.6253 221.354C81.2706 221.55 80.9813 221.844 80.7573 222.236C80.5426 222.619 80.4353 223.076 80.4353 223.608C80.4353 224.14 80.5426 224.607 80.7573 225.008C80.9813 225.409 81.2706 225.717 81.6253 225.932C81.9893 226.137 82.372 226.24 82.7733 226.24C83.184 226.24 83.5666 226.137 83.9213 225.932C84.276 225.727 84.5606 225.428 84.7753 225.036C84.9993 224.635 85.1113 224.168 85.1113 223.636ZM90.6796 221.088V225.358C90.6796 225.647 90.7449 225.857 90.8756 225.988C91.0156 226.109 91.2489 226.17 91.5756 226.17H92.5556V227.5H91.2956C90.5769 227.5 90.0262 227.332 89.6436 226.996C89.2609 226.66 89.0696 226.114 89.0696 225.358V221.088H88.1596V219.786H89.0696V217.868H90.6796V219.786H92.5556V221.088H90.6796ZM94.8386 218.764C94.5492 218.764 94.3066 218.666 94.1106 218.47C93.9146 218.274 93.8166 218.031 93.8166 217.742C93.8166 217.453 93.9146 217.21 94.1106 217.014C94.3066 216.818 94.5492 216.72 94.8386 216.72C95.1186 216.72 95.3566 216.818 95.5526 217.014C95.7486 217.21 95.8466 217.453 95.8466 217.742C95.8466 218.031 95.7486 218.274 95.5526 218.47C95.3566 218.666 95.1186 218.764 94.8386 218.764ZM95.6226 219.786V227.5H94.0266V219.786H95.6226ZM101.064 227.626C100.336 227.626 99.678 227.463 99.09 227.136C98.502 226.8 98.04 226.333 97.704 225.736C97.368 225.129 97.2 224.429 97.2 223.636C97.2 222.852 97.3726 222.157 97.718 221.55C98.0633 220.943 98.5346 220.477 99.132 220.15C99.7293 219.823 100.397 219.66 101.134 219.66C101.871 219.66 102.539 219.823 103.136 220.15C103.733 220.477 104.205 220.943 104.55 221.55C104.895 222.157 105.068 222.852 105.068 223.636C105.068 224.42 104.891 225.115 104.536 225.722C104.181 226.329 103.696 226.8 103.08 227.136C102.473 227.463 101.801 227.626 101.064 227.626ZM101.064 226.24C101.475 226.24 101.857 226.142 102.212 225.946C102.576 225.75 102.87 225.456 103.094 225.064C103.318 224.672 103.43 224.196 103.43 223.636C103.43 223.076 103.323 222.605 103.108 222.222C102.893 221.83 102.609 221.536 102.254 221.34C101.899 221.144 101.517 221.046 101.106 221.046C100.695 221.046 100.313 221.144 99.958 221.34C99.6126 221.536 99.3373 221.83 99.132 222.222C98.9266 222.605 98.824 223.076 98.824 223.636C98.824 224.467 99.034 225.111 99.454 225.568C99.8833 226.016 100.42 226.24 101.064 226.24ZM110.538 219.66C111.144 219.66 111.686 219.786 112.162 220.038C112.647 220.29 113.025 220.663 113.296 221.158C113.566 221.653 113.702 222.25 113.702 222.95V227.5H112.12V223.188C112.12 222.497 111.947 221.97 111.602 221.606C111.256 221.233 110.785 221.046 110.188 221.046C109.59 221.046 109.114 221.233 108.76 221.606C108.414 221.97 108.242 222.497 108.242 223.188V227.5H106.646V219.786H108.242V220.668C108.503 220.351 108.834 220.103 109.236 219.926C109.646 219.749 110.08 219.66 110.538 219.66Z" fill="#252525"/>
<g clip-path="url(#clip1_37_5205)">
<mask id="mask0_37_5205" style="mask-type:luminance" maskUnits="userSpaceOnUse" x="153" y="204" width="23" height="23">
<path d="M153 204H176V227H153V204Z" fill="white"/>
</mask>
<g mask="url(#mask0_37_5205)">
<path d="M156.594 215.5C156.594 210.101 160.629 205.645 165.848 204.983C165.406 204.927 164.957 204.898 164.5 204.898C158.645 204.898 153.898 209.645 153.898 215.5C153.898 221.355 158.645 226.102 164.5 226.102C164.957 226.102 165.406 226.073 165.848 226.017C160.629 225.355 156.594 220.899 156.594 215.5Z" fill="#C6E1F2"/>
<path d="M153.898 215.5C153.898 221.355 158.645 226.102 164.5 226.102C170.355 226.102 175.102 221.355 175.102 215.5C175.102 209.645 170.355 204.898 164.5 204.898C158.645 204.898 153.898 209.645 153.898 215.5Z" stroke="#00499B" stroke-width="1.5" stroke-miterlimit="10" stroke-linecap="round" stroke-linejoin="round"/>
<path d="M159.379 215.5H165.848M165.848 211.367L168.87 214.308C169.572 215.007 169.572 216.141 168.87 216.84L165.848 219.812" stroke="#F3C521" stroke-width="1.5" stroke-miterlimit="10" stroke-linecap="round" stroke-linejoin="round"/>
</g>
</g>
</g>
</g>
<defs>
<filter id="filter0_d_37_5205" x="-1" y="0" width="207" height="259" filterUnits="userSpaceOnUse" color-interpolation-filters="sRGB">
<feFlood flood-opacity="0" result="BackgroundImageFix"/>
<feColorMatrix in="SourceAlpha" type="matrix" values="0 0 0 0 0 0 0 0 0 0 0 0 0 0 0 0 0 0 127 0" result="hardAlpha"/>
<feMorphology radius="1" operator="dilate" in="SourceAlpha" result="effect1_dropShadow_37_5205"/>
<feOffset dy="4"/>
<feGaussianBlur stdDeviation="8"/>
<feComposite in2="hardAlpha" operator="out"/>
<feColorMatrix type="matrix" values="0 0 0 0 0 0 0 0 0 0 0 0 0 0 0 0 0 0 0.15 0"/>
<feBlend mode="normal" in2="BackgroundImageFix" result="effect1_dropShadow_37_5205"/>
<feBlend mode="normal" in="SourceGraphic" in2="effect1_dropShadow_37_5205" result="shape"/>
</filter>
<clipPath id="clip0_37_5205">
<path d="M16 28C16 19.7157 22.7157 13 31 13H174C182.284 13 189 19.7157 189 28V238H31C22.7157 238 16 231.284 16 223V28Z" fill="white"/>
</clipPath>
<clipPath id="clip1_37_5205">
<rect width="23" height="23" fill="white" transform="translate(153 204)"/>
</clipPath>
</defs>
</svg>
