<svg width="231" height="193" viewBox="0 0 231 193" fill="none" xmlns="http://www.w3.org/2000/svg">
<g filter="url(#filter0_d_136_59592)">
<path d="M64.7878 154.998L72.9566 94.7591L55.6032 96.5048L54.8602 97.3377C54.1113 98.1774 52.9815 98.5756 51.8695 98.3879C49.6376 98.0114 45.8641 97.0057 43.2285 94.356C42.4865 93.6101 42.1205 92.5737 42.2474 91.5304C42.6254 88.4243 44.8712 81.7565 57.0019 79.8735L73.5071 71.6102L80.2892 65.1133C80.2892 63.0998 81.1978 61.1921 82.7701 59.9255C86.1943 57.1662 93.3017 52.2105 104.935 47.5197C105.748 47.1927 106.679 47.491 107.146 48.23L109.127 51.3648L123.707 48.3713C123.707 48.3713 137.315 58.5533 134.967 80.6441L139.195 155H64.7878V154.998Z" fill="#F9A21B"/>
<path d="M104.97 48.4241L99.944 53.2977C98.9946 54.2194 98.459 55.4831 98.459 56.803V61.89C98.459 61.89 92.7731 65.1414 88.2438 63.7898L86.7796 55.1412L86.6824 54.5712L86.4622 53.268L85.4653 47.3778L85.4375 47.2168L85.4563 47.2148L104.425 44.8486L104.828 47.4934L104.97 48.4241Z" fill="#FFC89F"/>
<path d="M98.4624 154.997H72.4531C72.4531 154.997 76.9814 112.978 83.4034 82.6505C83.4153 82.5942 83.4222 82.5616 83.4242 82.5498C83.4242 82.5468 83.4242 82.5458 83.4242 82.5458C84.938 75.4068 86.5568 68.9208 88.2462 63.7894C88.2462 63.7894 91.9997 65.1379 98.4614 61.8895C98.4614 61.8895 87.3068 93.5053 98.4614 154.997H98.4624Z" fill="#1F4168"/>
<path d="M104.836 47.4934L89.5044 53.9902L88.3487 54.4793L86.7874 55.1412L86.6902 54.5711L86.47 53.268L85.473 47.3778L85.4641 47.2148L84.8828 35.8078L104.19 34.8307L104.836 47.4934Z" fill="#FFC89F"/>
<path d="M92.4939 54.431C99.5954 54.0714 105.061 48.0468 104.7 40.974L103.902 25.3286C103.541 18.2558 97.4924 12.8121 90.391 13.1717C83.2895 13.5314 77.8238 19.556 78.1849 26.6288L78.9824 42.2741C79.3435 49.347 85.3925 54.7906 92.4939 54.431Z" fill="#FFC89F"/>
<path d="M91.9632 53.7114C90.8076 54.155 89.4744 54.3734 88.3475 54.4791C87.7028 54.5393 87.1264 54.563 86.689 54.5709L86.4688 53.2678C87.4131 53.6749 88.418 53.9446 89.5032 53.99C90.2789 54.0226 91.0972 53.9406 91.9632 53.7114Z" fill="#FF9A6C"/>
<path d="M101.142 25.7206L100.893 22.157C90.6331 17.9137 81.5468 20.4834 81.5468 20.4834C81.5468 20.4834 79.7563 23.3268 79.6839 27.8714C79.6839 27.8714 81.5408 27.3705 81.5418 25.7166C81.5418 25.7166 82.4524 25.9577 82.3135 27.2302C82.3135 27.2302 82.624 26.675 82.3056 25.4084L82.876 25.7156C83.3531 25.9725 83.6666 26.4576 83.6953 26.997C83.8749 30.4342 78.7812 31.5743 76.5245 30.4529C71.5031 30.525 69.2613 27.0751 71.3722 23.0649C68.3368 18.0323 74.8133 15.7985 74.8133 15.7985C70.6858 11.157 73.9374 4.72246 73.9374 4.72246C73.8491 6.6964 74.1785 8.42632 74.1785 8.42632C73.3244 3.57642 77.9906 0 77.9906 0C79.4805 14.0172 98.3665 6.75074 98.3665 6.75074C107.671 17.0542 114.088 15.7086 114.088 15.7086C113.326 16.6333 111.983 16.9682 111.983 16.9682L112.942 17.154C118.738 27.4268 114.245 34.4976 114.245 34.4976C114.178 33.1876 113.791 31.1435 113.791 31.1435C113.799 31.2344 113.805 31.3253 113.81 31.4142C114.007 34.7012 112.353 37.8103 109.594 39.6252C104.289 43.1156 104.834 47.4943 104.834 47.4943L103.845 30.4588L102.462 28.884C101.688 28.0018 101.223 26.8913 101.142 25.7216V25.7206Z" fill="#1B1A2E"/>
<path d="M105.259 40.4394L105.928 40.4056C107.249 40.3387 108.266 39.2176 108.199 37.9016L107.982 33.649C107.914 32.3329 106.789 31.3203 105.468 31.3872L104.799 31.4211C103.477 31.488 102.461 32.609 102.528 33.9251L102.745 38.1777C102.812 39.4937 103.938 40.5063 105.259 40.4394Z" fill="#FFC89F"/>
<path d="M104.473 32.8517C104.704 32.8734 104.927 32.9139 105.139 32.986C105.352 33.0582 105.548 33.1629 105.728 33.2854C105.909 33.4099 106.069 33.561 106.204 33.73C106.341 33.8969 106.455 34.0827 106.532 34.2842C106.614 34.4828 106.673 34.6922 106.69 34.9086C106.715 35.1289 106.724 35.3631 106.75 35.5893C106.794 36.0458 106.846 36.5022 106.926 36.9567C106.959 36.4963 106.965 36.0369 106.961 35.5784C106.961 35.3473 106.957 35.124 106.946 34.8879C106.935 34.6458 106.871 34.4077 106.783 34.1815C106.599 33.731 106.26 33.3466 105.843 33.1076C105.633 32.988 105.407 32.903 105.174 32.8576C104.94 32.8181 104.702 32.8131 104.474 32.8507L104.473 32.8517Z" fill="#FF9A6C"/>
<path d="M105.606 37.687C105.557 37.5526 105.5 37.436 105.449 37.3194L105.297 36.9766L105.153 36.6308C105.104 36.5133 105.058 36.3917 104.994 36.2633C104.945 36.3977 104.935 36.5389 104.945 36.6783C104.957 36.8176 104.991 36.9549 105.047 37.0833C105.103 37.2118 105.178 37.3313 105.271 37.436C105.365 37.5388 105.475 37.6297 105.606 37.687Z" fill="#FF9A6C"/>
<path d="M79.6823 27.8724C79.1804 27.9988 78.6447 27.9978 78.1626 27.8249C77.9256 27.734 77.6954 27.6165 77.502 27.4505C77.3006 27.2954 77.1369 27.0968 76.9951 26.8884C76.7253 26.4606 76.5557 25.9676 76.5269 25.4607C76.4942 24.9549 76.5775 24.4441 76.758 23.9709C76.9346 23.4947 77.2074 23.0561 77.5437 22.6727C77.8799 22.2894 78.2737 21.9555 78.7033 21.6729C78.8074 21.5978 78.9225 21.5395 79.0316 21.4714L79.1973 21.3736C79.2528 21.3419 79.3123 21.3153 79.3689 21.2856L79.7151 21.1137L80.0722 20.9655C80.3073 20.8578 80.5562 20.7867 80.7993 20.6988C81.0453 20.6197 81.2962 20.5575 81.5452 20.4834C80.5304 20.6879 79.5325 21.0337 78.6457 21.585C78.2003 21.8577 77.7996 22.2025 77.4504 22.5907C77.1032 22.981 76.8175 23.4315 76.631 23.9225C76.4475 24.4145 76.3652 24.945 76.4039 25.4696C76.4396 25.9933 76.6142 26.51 76.9088 26.9457C77.0616 27.1591 77.2361 27.3606 77.4494 27.5167C77.6538 27.6837 77.8948 27.8002 78.1418 27.8862C78.6447 28.0423 79.1893 28.0265 79.6833 27.8714L79.6823 27.8724Z" fill="#1F4168"/>
<path d="M76.3086 27.0594C76.5248 27.7204 76.994 28.2786 77.5416 28.7084C78.0931 29.1371 78.7458 29.4454 79.4412 29.5679C79.7894 29.6232 80.1495 29.6252 80.4976 29.5501C80.8438 29.476 81.1791 29.3229 81.446 29.0867C81.7148 28.8536 81.9162 28.5542 82.053 28.2341C82.187 27.9111 82.2673 27.5722 82.3129 27.2304C82.2376 27.5673 82.1443 27.9002 81.9925 28.2065C81.8457 28.5147 81.6414 28.7953 81.3785 29.0077C81.1156 29.2181 80.8032 29.3644 80.4729 29.4296C80.1425 29.4967 79.7983 29.4908 79.464 29.4345C78.7915 29.3278 78.1566 29.0275 77.6051 28.6264C77.3283 28.4248 77.0744 28.1926 76.8532 27.9308C76.629 27.672 76.4425 27.3786 76.3096 27.0604L76.3086 27.0594Z" fill="#1F4168"/>
<path d="M71.3711 23.0651C71.6022 22.7085 71.8651 22.3735 72.1448 22.0554C72.4226 21.7343 72.7202 21.432 73.0326 21.1465C73.3471 20.8629 73.6715 20.5903 74.0127 20.3393C74.3539 20.0894 74.712 19.8611 75.08 19.6527C75.8121 19.2269 76.5997 18.9009 77.4112 18.6558C78.2256 18.4167 79.0657 18.2676 79.9159 18.1945C79.4893 18.2073 79.0628 18.2369 78.6392 18.2982L78.3218 18.3466L78.0073 18.4098C77.796 18.4474 77.5907 18.5067 77.3824 18.5561C76.5571 18.7833 75.7585 19.1143 75.0126 19.5361C74.2706 19.9649 73.5772 20.4776 72.9612 21.0714C72.3482 21.6652 71.7917 22.3251 71.3711 23.0661V23.0651Z" fill="#1F4168"/>
<path d="M71.918 20.5631C72.0271 20.3102 72.1878 20.0849 72.3763 19.8893C72.4635 19.7846 72.5727 19.7016 72.6709 19.6077C72.78 19.5267 72.8861 19.4417 73.0002 19.3686C73.1192 19.3024 73.2313 19.2254 73.3523 19.1641C73.4753 19.1068 73.5964 19.0446 73.7214 18.9902L74.1052 18.8519C74.2332 18.8045 74.3681 18.7808 74.4991 18.7442L74.6965 18.6909C74.7629 18.6751 74.8304 18.6662 74.8978 18.6533L75.3016 18.5822C75.5733 18.5516 75.8461 18.5289 76.1199 18.5052C76.3937 18.5002 76.6685 18.4844 76.9432 18.4874C77.218 18.4943 77.4928 18.5052 77.7696 18.5071C77.4958 18.4745 77.221 18.4498 76.9452 18.4212C76.6695 18.4044 76.3927 18.4083 76.115 18.4014C75.9761 18.3994 75.8382 18.4152 75.6993 18.4251C75.5614 18.437 75.4226 18.4429 75.2847 18.4607L74.873 18.5269C74.8046 18.5387 74.7351 18.5466 74.6677 18.5625L74.4653 18.6138C73.9257 18.7482 73.399 18.9616 72.9417 19.2837C72.8276 19.3647 72.7224 19.4566 72.6143 19.5445C72.5181 19.6453 72.41 19.7342 72.3267 19.8468C72.1511 20.0612 71.9983 20.2993 71.918 20.5641V20.5631Z" fill="#1F4168"/>
<path d="M74.8125 15.7978C75.0883 15.7365 75.365 15.6891 75.6448 15.6614C75.7836 15.6436 75.9245 15.6357 76.0644 15.6219L76.4849 15.6041C77.0454 15.5932 77.6059 15.6338 78.1544 15.7405C78.4312 15.78 78.699 15.861 78.9708 15.9282C79.2327 16.023 79.5025 16.1011 79.7554 16.2216C79.8824 16.2799 80.0143 16.3283 80.1383 16.3945L80.5064 16.598C80.6333 16.6593 80.7484 16.7403 80.8645 16.8183C80.9805 16.8974 81.0986 16.9744 81.2166 17.0515C81.1075 16.9635 80.9964 16.8756 80.8843 16.7897C80.7732 16.7027 80.6631 16.6128 80.5401 16.5417L80.178 16.3194C80.056 16.2473 79.9251 16.1919 79.7981 16.1277L79.6067 16.0339C79.5432 16.0013 79.4737 15.9825 79.4083 15.9568L79.0075 15.8106C78.7327 15.7385 78.4609 15.6515 78.1792 15.6071C77.6188 15.5103 77.0484 15.4668 76.481 15.5004C75.9146 15.534 75.3501 15.6219 74.8125 15.7978Z" fill="#1F4168"/>
<path d="M74.1758 8.42677C74.2184 8.73205 74.3176 9.02844 74.4436 9.31099C74.5706 9.59355 74.7303 9.86129 74.9168 10.1103C75.2898 10.6092 75.7798 11.0152 76.3194 11.3274C76.859 11.6426 77.4572 11.8501 78.0643 11.9854C78.6733 12.1188 79.2953 12.1879 79.9173 12.2047C80.5392 12.2107 81.1622 12.184 81.7782 12.1089L82.2404 12.0556L82.6997 11.9815C82.8525 11.9558 83.0062 11.933 83.159 11.9054L83.6143 11.8086C84.8275 11.5497 86.0168 11.196 87.1824 10.7831L86.2926 11.0468C85.998 11.1407 85.6954 11.2089 85.3978 11.2909C85.2481 11.3294 85.1003 11.3739 84.9495 11.4094L84.4981 11.5141L84.0468 11.6189L83.5925 11.7068C82.3813 11.94 81.1513 12.099 79.9192 12.0694C79.3042 12.0565 78.6902 11.9923 78.0901 11.8659C77.4899 11.7384 76.9067 11.5319 76.369 11.2375C75.8343 10.9421 75.3463 10.5529 74.9684 10.0697C74.5874 9.59158 74.2988 9.03041 74.1758 8.42578V8.42677Z" fill="#1F4168"/>
<path d="M103.471 16.8368C103.787 17.0226 104.125 17.1668 104.468 17.3031C104.641 17.3644 104.814 17.4266 104.989 17.481C105.167 17.5294 105.342 17.5896 105.521 17.6292C106.235 17.807 106.972 17.9028 107.709 17.9117C108.445 17.9117 109.187 17.8564 109.904 17.6835C110.267 17.6163 110.615 17.4948 110.965 17.3851C111.142 17.3347 111.307 17.2527 111.478 17.1846L111.983 16.9682L111.465 17.151C111.292 17.2103 111.124 17.2824 110.944 17.3219C110.591 17.4177 110.243 17.5264 109.882 17.5808C109.169 17.7309 108.437 17.7862 107.71 17.7754C107.529 17.7695 107.346 17.7734 107.165 17.7586L106.62 17.7102C106.44 17.6865 106.26 17.6568 106.08 17.6301C105.899 17.6025 105.722 17.559 105.543 17.5264C104.831 17.3703 104.131 17.148 103.469 16.8348L103.471 16.8368Z" fill="#1F4168"/>
<path d="M100.559 13.432C100.706 14.1957 100.945 14.9426 101.252 15.6608C101.559 16.3781 101.956 17.0638 102.466 17.6654C102.983 18.2542 103.656 18.7463 104.439 18.9162C104.828 19.0002 105.231 18.9942 105.619 18.934L105.907 18.8757L106.188 18.7887C106.282 18.763 106.373 18.7255 106.463 18.687L106.732 18.5714C106.009 18.8549 105.213 18.9972 104.462 18.8144C103.714 18.6297 103.067 18.1584 102.568 17.5765C102.061 16.9956 101.672 16.3198 101.347 15.6184C101.184 15.2676 101.039 14.907 100.909 14.5425C100.775 14.1779 100.66 13.8074 100.56 13.432H100.559Z" fill="#1F4168"/>
<path d="M113.811 31.4132C113.788 30.6327 113.698 29.8542 113.574 29.0816C113.447 28.31 113.272 27.5453 113.054 26.7925C112.825 26.0436 112.552 25.3046 112.196 24.6052C112.014 24.2574 111.821 23.9156 111.598 23.5925C111.371 23.2724 111.126 22.9642 110.852 22.6855C111.359 23.2803 111.769 23.9491 112.102 24.6506C112.436 25.353 112.708 26.0841 112.925 26.83C113.153 27.574 113.325 28.3337 113.472 29.0984C113.546 29.4807 113.611 29.8651 113.666 30.2514C113.725 30.6367 113.773 31.0239 113.812 31.4122L113.811 31.4132Z" fill="#1F4168"/>
<path d="M98.4644 61.8923C98.4644 61.8923 98.4644 61.8958 98.4644 61.8993C98.4644 61.8993 98.4644 61.9027 98.4609 61.9045L98.4661 61.8923H98.4644Z" fill="#1F4168"/>
<g style="mix-blend-mode:multiply" opacity="0.4">
<path d="M72.9582 94.759L67.2227 95.3359L69.3157 94.1385C70.7342 93.3274 71.8244 92.05 72.4007 90.5246L74.34 85.3901L72.9582 94.759Z" fill="#A65B3C"/>
</g>
<g style="mix-blend-mode:multiply" opacity="0.4">
<path d="M82.1121 65.1107C82.1121 65.1107 83.2955 66.4257 83.8093 68.949C83.8093 68.949 82.4553 67.7891 81.625 69.1663C81.625 69.1663 82.4969 67.2279 82.1111 65.1107H82.1121Z" fill="#A65B3C"/>
</g>
<g style="mix-blend-mode:multiply" opacity="0.4">
<path d="M83.4034 82.6508C83.0691 84.3086 78.9356 105.699 78.3107 154.997H72.4531C72.4531 154.997 76.9814 112.978 83.4034 82.6508Z" fill="#1F4168"/>
</g>
<g style="mix-blend-mode:multiply" opacity="0.4">
<path d="M98.4624 61.8976C98.4624 61.8976 98.4571 61.9135 98.4531 61.9254C98.4558 61.9162 98.4584 61.9082 98.4597 61.9016L98.4637 61.8923C98.4637 61.8923 98.4637 61.895 98.4637 61.8976H98.4624Z" fill="#A65B3C"/>
</g>
<g style="mix-blend-mode:multiply" opacity="0.4">
<path d="M105.714 154.997H98.4617C87.5392 94.7866 98.0064 63.2202 98.4478 61.9309C98.0292 63.2251 88.0947 95.0849 105.714 154.997Z" fill="#A65B3C"/>
</g>
<g style="mix-blend-mode:multiply" opacity="0.4">
<path d="M121.696 154.997L118.078 113.656L125.243 154.997H121.696Z" fill="#A65B3C"/>
</g>
<g style="mix-blend-mode:multiply" opacity="0.4">
<path d="M57.9185 82.0941L59.1386 85.4453C59.6892 86.9569 59.584 88.6285 58.85 90.06L57.0664 93.5367C57.0664 93.5367 59.6306 87.2286 57.9195 82.0941H57.9185Z" fill="#A65B3C"/>
</g>
<g style="mix-blend-mode:multiply" opacity="0.4">
<path d="M87.404 58.8132C85.5719 61.7672 86.4627 66.7851 86.4627 66.7851L83.9917 70.9345C79.9465 77.7268 77.5886 85.3825 77.1124 93.2654L74.3359 139.218V139.212C76.2435 124.206 79.4674 101.234 83.4025 82.6518C83.4144 82.5954 83.4213 82.5628 83.4233 82.551C83.4233 82.548 83.4233 82.547 83.4233 82.547C84.937 75.408 86.5559 68.9221 88.2452 63.7906L87.4031 58.8142L87.404 58.8132Z" fill="#A65B3C"/>
</g>
<path d="M55.6026 96.5039C55.9686 95.8775 56.286 95.2245 56.5777 94.5616C56.8703 93.8986 57.1341 93.2239 57.3643 92.5372C57.5944 91.8506 57.7978 91.1561 57.9644 90.4516C58.1311 89.7472 58.2551 89.0339 58.3424 88.3167C58.3612 88.1368 58.389 87.958 58.4019 87.7782L58.4445 87.2378C58.4584 86.8772 58.4812 86.5156 58.4723 86.154C58.4773 85.7924 58.4505 85.4318 58.4316 85.0712L58.3771 84.5318C58.3632 84.351 58.3344 84.1731 58.3066 83.9943L58.266 83.7266C58.2531 83.6367 58.2382 83.5478 58.2184 83.4598L58.1073 82.9293C58.0706 82.7525 58.016 82.5796 57.9714 82.4047L57.9009 82.1429C57.8771 82.0559 57.8454 81.971 57.8176 81.885L57.648 81.3693L57.4486 80.8645L57.3484 80.6115L57.2323 80.3655L57.0002 79.8735L57.2433 80.3606L57.3643 80.6046L57.4704 80.8556L57.6817 81.3575L57.8632 81.8712C57.892 81.9571 57.9257 82.0421 57.9505 82.1291L58.0249 82.3909C58.0725 82.5657 58.1281 82.7396 58.1678 82.9165L58.2858 83.449C58.3076 83.5369 58.3235 83.6268 58.3374 83.7167L58.382 83.9854C58.4495 84.3431 58.4773 84.7057 58.5169 85.0672C58.5368 85.4298 58.5655 85.7924 58.5616 86.156C58.5725 86.5196 58.5517 86.8821 58.5388 87.2457L58.4981 87.7891C58.4862 87.9709 58.4594 88.1507 58.4406 88.3315C58.263 89.7739 57.9158 91.1936 57.4357 92.5649C56.9536 93.9342 56.3555 95.266 55.6016 96.5078L55.6026 96.5039Z" fill="#A65B3C"/>
<path d="M61.5216 87.4759C61.4621 87.1429 61.3857 86.8139 61.2964 86.4889C61.2092 86.1629 61.1119 85.8398 61.0008 85.5217C60.7796 84.8854 60.5227 84.26 60.2083 83.6643C59.9017 83.0646 59.5417 82.4926 59.13 81.9591C59.0298 81.8227 58.9197 81.6963 58.8126 81.5649C58.6995 81.4394 58.5914 81.31 58.4723 81.1904C58.2452 80.9405 57.9912 80.7162 57.7383 80.491C58.2769 80.902 58.7669 81.3801 59.1905 81.9117C59.4078 82.1735 59.6002 82.454 59.7857 82.7386C59.9712 83.0231 60.1388 83.3185 60.2975 83.6189C60.607 84.2235 60.8669 84.8518 61.0742 85.498C61.2786 86.1441 61.4413 86.804 61.5226 87.4759H61.5216Z" fill="#A65B3C"/>
<path d="M97.1373 66.7147C96.3893 67.0447 95.6007 67.2818 94.8042 67.4675C94.0057 67.6503 93.1913 67.7659 92.3729 67.8183C91.5545 67.8617 90.7302 67.843 89.9178 67.7313C89.1044 67.6256 88.3049 67.4241 87.5391 67.1395C87.9299 67.2581 88.3207 67.3767 88.7215 67.4557C88.9199 67.5041 89.1212 67.5347 89.3216 67.5733L89.6242 67.6177C89.7244 67.6335 89.8255 67.6464 89.9277 67.6562C90.7371 67.7511 91.5545 67.7709 92.3679 67.7195C93.1813 67.675 93.9908 67.5594 94.7893 67.3935C95.1881 67.3105 95.5849 67.2117 95.9767 67.099C96.3695 66.9884 96.7584 66.8619 97.1393 66.7147H97.1373Z" fill="#1B1A2E"/>
<path d="M72.957 94.7593L73.2477 92.6213L73.5492 90.4844L74.1672 86.2134L74.808 81.9464L75.1364 79.8134L75.4746 77.6824L75.184 79.8203L74.8834 81.9573L74.2654 86.2282L73.6236 90.4952L73.2953 92.6283L72.957 94.7593Z" fill="#A65B3C"/>
<path d="M80.1221 71.6036C80.3116 71.3803 80.4861 71.1452 80.6478 70.9021C80.8115 70.6611 80.9643 70.4121 81.1041 70.1562C81.3839 69.6455 81.6219 69.112 81.7975 68.5577C81.8868 68.2811 81.9632 68.0005 82.0227 67.716C82.0792 67.4314 82.1239 67.1439 82.1506 66.8545C82.1774 66.565 82.1903 66.2736 82.1804 65.9831C82.1804 65.6916 82.1467 65.4012 82.1139 65.1107C82.228 65.6837 82.2677 66.2745 82.227 66.8614C82.1883 67.4482 82.0673 68.0282 81.8917 68.5883C81.7053 69.1465 81.4662 69.687 81.1696 70.1938C80.871 70.6996 80.5298 71.1817 80.1211 71.6036H80.1221Z" fill="#A65B3C"/>
<path d="M80.2888 65.1106C80.2947 65.652 80.2908 66.1934 80.2848 66.7348C80.2789 67.2762 80.264 67.8176 80.2541 68.358C80.2362 68.8994 80.2223 69.4398 80.2005 69.9813L80.1658 70.7924C80.1509 71.0631 80.139 71.3328 80.1202 71.6035C80.1162 71.3328 80.1182 71.0621 80.1172 70.7914L80.1241 69.9793C80.1301 69.4379 80.145 68.8965 80.1549 68.3561C80.1727 67.8146 80.1866 67.2742 80.2084 66.7328C80.2303 66.1924 80.2541 65.651 80.2888 65.1106Z" fill="#A65B3C"/>
<path d="M81.7383 64.6012C81.9238 64.8403 82.1073 65.0823 82.2898 65.3264L82.5378 65.7087L82.6618 65.9004L82.7233 65.9962L82.7788 66.096L82.9981 66.4961C83.0328 66.5633 83.0735 66.6285 83.1042 66.6986L83.1984 66.9061C83.26 67.0454 83.3264 67.1828 83.3849 67.323L83.5437 67.7508C83.7341 68.3288 83.8779 68.9255 83.9256 69.5331C83.9682 70.1387 83.9454 70.7592 83.7569 71.3381C83.8343 71.0447 83.869 70.7434 83.8799 70.442C83.8819 70.367 83.8869 70.2919 83.8869 70.2158L83.8819 69.9895C83.8829 69.8384 83.8611 69.6892 83.8502 69.539C83.7877 68.9403 83.6468 68.3505 83.4504 67.7815L83.2976 67.3566C83.2411 67.2173 83.1766 67.08 83.1171 66.9417C83.005 66.6611 82.8463 66.4023 82.7134 66.1316L82.6618 66.0308L82.6033 65.934L82.4862 65.7403L82.2511 65.3521L81.7393 64.6002L81.7383 64.6012Z" fill="#A65B3C"/>
<path d="M86.4637 66.7841L84.0978 70.7962C83.704 71.465 83.3191 72.1388 82.9521 72.8225C82.5861 73.5061 82.2359 74.1987 81.8996 74.8972C80.5625 77.6971 79.4902 80.6205 78.6996 83.6189C77.908 86.6164 77.4021 89.688 77.1878 92.7803L76.6284 102.068L75.4906 120.644L74.9202 129.932L74.3359 139.218L74.8736 129.929L75.4251 120.64L76.5311 102.063L77.1005 92.7754C77.3198 89.6791 77.8326 86.6026 78.6301 83.6021C79.4267 80.6017 80.5059 77.6753 81.8491 74.8755C82.1863 74.176 82.5385 73.4844 82.9055 72.7998C83.2735 72.1161 83.6634 71.4433 84.0611 70.7774L86.4607 66.786L86.4637 66.7841Z" fill="#A65B3C"/>
<path d="M107.361 60.3125C106.929 60.3204 106.495 60.2868 106.07 60.193C105.645 60.1011 105.236 59.944 104.854 59.7365C104.472 59.5271 104.125 59.2584 103.813 58.956C103.502 58.6527 103.225 58.3178 102.97 57.9681C102.717 57.6174 102.487 57.2518 102.255 56.8892C102.022 56.5276 101.789 56.166 101.507 55.845C101.366 55.6859 101.208 55.5397 101.028 55.43C100.937 55.3767 100.84 55.3322 100.74 55.3006C100.639 55.271 100.534 55.2542 100.429 55.2502C100.216 55.2453 100.004 55.2907 99.8038 55.3678C99.6034 55.4458 99.413 55.5486 99.2305 55.6622C99.408 55.5397 99.5945 55.428 99.7939 55.3431C99.9933 55.2581 100.209 55.2038 100.43 55.2008C100.54 55.2018 100.65 55.2176 100.756 55.2463C100.862 55.2769 100.963 55.3223 101.06 55.3757C101.25 55.4863 101.416 55.6335 101.564 55.7936C101.86 56.1137 102.093 56.4812 102.331 56.8398C102.566 57.2014 102.799 57.563 103.052 57.9098C103.301 58.2576 103.572 58.5915 103.878 58.8918C104.182 59.1922 104.524 59.454 104.894 59.6703C105.637 60.1011 106.502 60.2928 107.363 60.3125H107.361Z" fill="#A65B3C"/>
<path d="M109.123 51.3623C108.996 52.1122 108.858 52.8601 108.718 53.6069L108.288 55.8467L107.835 58.0824L107.6 59.1988L107.355 60.3132L107.553 59.1899L107.76 58.0686L108.191 55.8289L108.644 53.5931C108.799 52.8492 108.956 52.1043 109.123 51.3623Z" fill="#A65B3C"/>
<path d="M117.242 103.731L117.822 110.137L118.389 116.545L119.52 129.36L120.617 142.179L121.165 148.588L121.699 154.998L121.118 148.592L120.551 142.184L119.421 129.369L118.323 116.55L117.775 110.141L117.242 103.731Z" fill="#A65B3C"/>
<path d="M98.4644 61.8895C98.1698 62.8281 97.9327 63.7834 97.7135 64.7428C97.4913 65.7011 97.3008 66.6663 97.1193 67.6325C96.7632 69.567 96.4825 71.5142 96.2424 73.4665C95.7762 77.3719 95.5004 81.299 95.3863 85.2301C95.2723 89.1612 95.3179 93.0973 95.4885 97.0264C95.6611 100.956 95.9408 104.881 96.3644 108.791L96.5122 110.258C96.5668 110.747 96.6283 111.234 96.6868 111.722L97.0409 114.651L97.4526 117.572L97.6579 119.032L97.892 120.488L98.3612 123.401C98.5259 124.37 98.7084 125.336 98.882 126.305L99.1449 127.756L99.2768 128.482L99.4226 129.205L100.005 132.098C100.103 132.58 100.196 133.062 100.299 133.543L100.618 134.984L101.257 137.865L101.417 138.585L101.591 139.302L101.938 140.736L102.633 143.604C103.12 145.51 103.625 147.411 104.119 149.315L105.719 154.997L104.096 149.322C103.593 147.42 103.081 145.52 102.586 143.616L101.887 140.749L101.537 139.315L101.363 138.598L101.201 137.878L100.558 134.998L100.237 133.557C100.135 133.076 100.04 132.593 99.9414 132.112L99.3542 129.219L99.2074 128.496L99.0745 127.77L98.8096 126.318C98.635 125.35 98.4505 124.384 98.2849 123.414L97.8117 120.5L97.5756 119.044L97.3683 117.583L96.9526 114.661L96.5946 111.732C96.536 111.244 96.4735 110.756 96.418 110.267L96.2682 108.799C95.8506 104.887 95.5758 100.958 95.4092 97.0283C95.2445 93.0973 95.2028 89.1602 95.3229 85.2271C95.4429 81.2941 95.7226 77.3659 96.1968 73.4595C96.4438 71.5073 96.7334 69.561 97.0975 67.6276C97.283 66.6614 97.4774 65.6971 97.7036 64.7398C97.9268 63.7815 98.1688 62.8271 98.4664 61.8895H98.4644Z" fill="#A65B3C"/>
<path d="M170.7 35.4638L166.806 117.977C166.789 118.35 166.735 118.713 166.65 119.063C166.444 119.904 166.053 120.668 165.522 121.313C164.417 122.657 162.709 123.482 160.831 123.394L127.669 121.842C125.791 121.754 124.169 120.773 123.195 119.331C122.727 118.639 122.409 117.842 122.283 116.986C122.231 116.631 122.212 116.263 122.229 115.891L126.122 33.3772C126.125 33.3061 126.13 33.2359 126.137 33.1658C126.139 33.1381 126.142 33.1085 126.145 33.0808C126.442 30.0863 129.046 27.8179 132.099 27.9602L165.261 29.5123C168.312 29.6555 170.693 32.1571 170.707 35.1664C170.707 35.195 170.707 35.2247 170.707 35.2523C170.707 35.3235 170.704 35.3936 170.701 35.4648L170.7 35.4638Z" fill="white"/>
<path d="M133.369 86.5992L133.28 88.0245L134.957 88.1293L134.916 88.779L133.239 88.6742L133.146 90.1623L135.033 90.2802L134.992 90.9299L132.309 90.7623L132.613 85.8997L135.296 86.0674L135.255 86.7171L133.369 86.5992ZM137.744 89.1451L138.865 91.172L137.964 91.1157L137.215 89.7573L136.35 91.0148L135.519 90.9628L136.881 89.1473L135.76 87.1134L136.661 87.1697L137.411 88.5281L138.275 87.2705L139.106 87.3225L137.744 89.1451ZM139.315 89.2643C139.339 88.8684 139.44 88.5264 139.617 88.2382C139.799 87.9456 140.037 87.7267 140.331 87.5814C140.626 87.4362 140.957 87.3751 141.325 87.3981C141.791 87.4272 142.168 87.563 142.457 87.8054C142.75 88.0436 142.938 88.3709 143.019 88.7875L142.16 88.7338C142.102 88.5384 142 88.3824 141.853 88.2657C141.706 88.1489 141.516 88.0833 141.283 88.0687C140.957 88.0484 140.689 88.1485 140.479 88.3692C140.273 88.5854 140.158 88.9009 140.132 89.3154C140.106 89.7299 140.181 90.0596 140.358 90.3044C140.539 90.5495 140.792 90.6822 141.118 90.7026C141.579 90.7314 141.897 90.5479 142.072 90.152L142.931 90.2057C142.795 90.5899 142.566 90.8889 142.244 91.1026C141.922 91.3116 141.533 91.4018 141.076 91.3733C140.708 91.3503 140.388 91.2484 140.114 91.0676C139.84 90.8822 139.631 90.6354 139.487 90.3271C139.347 90.0144 139.29 89.6602 139.315 89.2643ZM147.303 89.6724C147.294 89.8168 147.276 89.9466 147.25 90.0619L144.309 89.878C144.313 90.1869 144.412 90.4409 144.605 90.64C144.799 90.8391 145.044 90.948 145.342 90.9666C145.771 90.9934 146.085 90.833 146.284 90.4854L147.144 90.5391C147.005 90.8858 146.775 91.1637 146.453 91.3727C146.136 91.5773 145.752 91.6655 145.3 91.6373C144.932 91.6143 144.607 91.5121 144.324 91.3308C144.045 91.145 143.832 90.8979 143.683 90.5893C143.539 90.2764 143.479 89.922 143.504 89.5261C143.528 89.1302 143.629 88.7882 143.806 88.5C143.988 88.2074 144.229 87.9887 144.528 87.8437C144.831 87.699 145.172 87.6385 145.549 87.662C145.912 87.6847 146.231 87.7842 146.505 87.9603C146.779 88.1364 146.987 88.3738 147.127 88.6724C147.268 88.9665 147.326 89.2998 147.303 89.6724ZM146.487 89.3689C146.501 89.0752 146.411 88.8334 146.217 88.6436C146.023 88.4538 145.775 88.3495 145.472 88.3306C145.197 88.3134 144.956 88.3872 144.75 88.5519C144.543 88.712 144.412 88.94 144.356 89.2357L146.487 89.3689ZM149.08 86.6203L148.757 91.7902L147.96 91.7404L148.284 86.5705L149.08 86.6203ZM150.922 86.7354L150.599 91.9053L149.803 91.8555L150.126 86.6856L150.922 86.7354ZM155.299 90.1721C155.29 90.3165 155.273 90.4463 155.247 90.5616L152.305 90.3778C152.309 90.6866 152.408 90.9406 152.601 91.1397C152.795 91.3388 153.04 91.4477 153.338 91.4663C153.767 91.4931 154.081 91.3327 154.28 90.9851L155.14 91.0389C155.001 91.3856 154.771 91.6634 154.449 91.8724C154.133 92.0771 153.748 92.1653 153.297 92.137C152.929 92.114 152.603 92.0119 152.32 91.8305C152.041 91.6448 151.828 91.3976 151.679 91.0891C151.535 90.7761 151.475 90.4217 151.5 90.0258C151.524 89.6299 151.625 89.2879 151.802 88.9997C151.984 88.7072 152.225 88.4884 152.524 88.3434C152.827 88.1988 153.168 88.1382 153.545 88.1618C153.908 88.1845 154.227 88.2839 154.501 88.46C154.775 88.6361 154.983 88.8735 155.123 89.1722C155.264 89.4662 155.322 89.7995 155.299 90.1721ZM154.483 89.8686C154.497 89.5749 154.407 89.3332 154.213 89.1434C154.019 88.9536 153.771 88.8492 153.468 88.8303C153.193 88.8131 152.953 88.8869 152.746 89.0517C152.54 89.2118 152.408 89.4397 152.353 89.7355L154.483 89.8686ZM158.143 88.4492C158.446 88.4681 158.712 88.5479 158.942 88.6885C159.176 88.8293 159.353 89.0274 159.473 89.2827C159.593 89.538 159.641 89.8403 159.62 90.1896L159.478 92.4602L158.688 92.4109L158.823 90.2591C158.844 89.9144 158.775 89.6459 158.614 89.4535C158.453 89.2564 158.224 89.1485 157.925 89.1299C157.627 89.1113 157.384 89.1896 157.195 89.3648C157.012 89.5357 156.909 89.7935 156.888 90.1381L156.753 92.2899L155.957 92.2402L156.197 88.3907L156.994 88.4404L156.966 88.8806C157.106 88.7304 157.279 88.6173 157.485 88.5413C157.696 88.4656 157.915 88.4349 158.143 88.4492ZM132.94 95.605L132.806 97.7358C132.797 97.8802 132.823 97.987 132.885 98.0563C132.951 98.1212 133.065 98.1588 133.228 98.169L133.717 98.1995L133.676 98.8633L133.047 98.824C132.688 98.8015 132.419 98.7005 132.238 98.5209C132.058 98.3413 131.979 98.0629 132.003 97.6856L132.136 95.5548L131.682 95.5264L131.723 94.8767L132.177 94.905L132.237 93.9479L133.04 93.9981L132.98 94.9553L133.916 95.0138L133.876 95.6635L132.94 95.605ZM135.712 94.116L135.41 97.4988L134.746 97.4573L134.867 94.0632L135.712 94.116ZM135.008 98.9956C134.863 98.9866 134.745 98.9301 134.653 98.8262C134.562 98.7222 134.52 98.5981 134.529 98.4537C134.538 98.3093 134.595 98.1913 134.699 98.0996C134.803 98.0079 134.927 97.9666 135.071 97.9756C135.211 97.9843 135.327 98.0406 135.418 98.1446C135.51 98.2485 135.551 98.3726 135.542 98.517C135.533 98.6614 135.477 98.7794 135.373 98.8711C135.269 98.9628 135.147 99.0043 135.008 98.9956Z" fill="#252525"/>
<path d="M144.317 74.4082L141.588 79.4801L140.357 79.3884L143.093 74.4524L140.13 74.2314L140.211 73.2214L144.388 73.5328L144.317 74.4082Z" fill="#023874"/>
<path d="M145.939 76.5361C145.385 76.2012 145.133 75.7279 145.182 75.1163C145.207 74.8133 145.307 74.5441 145.483 74.3089C145.665 74.0684 145.921 73.8871 146.251 73.7649C146.586 73.6375 146.985 73.5911 147.447 73.6255C147.909 73.66 148.293 73.7648 148.599 73.94C148.91 74.11 149.134 74.3271 149.27 74.5913C149.411 74.8502 149.47 75.1312 149.445 75.4342C149.42 75.7428 149.32 76.0092 149.145 76.2332C148.971 76.4517 148.748 76.6157 148.478 76.7254C148.785 76.8838 149.017 77.0987 149.175 77.3702C149.333 77.6416 149.398 77.9541 149.37 78.3076C149.339 78.6892 149.211 79.0155 148.985 79.2866C148.766 79.5526 148.477 79.7484 148.118 79.874C147.759 79.9997 147.363 80.0463 146.93 80.014C146.497 79.9817 146.113 79.8769 145.779 79.6995C145.45 79.5226 145.196 79.2863 145.017 78.9907C144.844 78.6899 144.772 78.3487 144.803 77.9671C144.832 77.6136 144.946 77.3144 145.146 77.0697C145.347 76.8193 145.611 76.6414 145.939 76.5361ZM148.253 75.5147C148.276 75.2397 148.206 75.02 148.045 74.8556C147.89 74.6916 147.665 74.5986 147.37 74.5766C147.082 74.5551 146.844 74.6136 146.659 74.7522C146.479 74.8912 146.378 75.101 146.355 75.3816C146.335 75.6341 146.405 75.8426 146.566 76.007C146.733 76.1719 146.955 76.2646 147.232 76.2853C147.509 76.306 147.744 76.2472 147.935 76.1091C148.127 75.9653 148.233 75.7672 148.253 75.5147ZM147.163 77.1438C146.833 77.1193 146.558 77.1806 146.337 77.3278C146.122 77.4755 146.002 77.7008 145.977 78.0038C145.954 78.2844 146.034 78.5218 146.216 78.716C146.404 78.905 146.668 79.0122 147.009 79.0377C147.35 79.0631 147.626 78.9933 147.837 78.8284C148.048 78.6635 148.164 78.4436 148.187 78.1686C148.211 77.8712 148.128 77.6336 147.939 77.4558C147.751 77.2724 147.492 77.1684 147.163 77.1438Z" fill="#023874"/>
<path d="M150.442 76.9735C150.52 76.0027 150.761 75.2557 151.163 74.7325C151.572 74.2097 152.195 73.9796 153.032 74.042C153.87 74.1045 154.446 74.4241 154.759 75.0007C155.079 75.5777 155.199 76.3516 155.121 77.3224C155.041 78.2988 154.798 79.0511 154.389 79.5795C153.986 80.1083 153.365 80.3415 152.528 80.2791C151.69 80.2166 151.112 79.894 150.793 79.3114C150.48 78.7291 150.363 77.9498 150.442 76.9735ZM153.925 77.2332C153.958 76.818 153.958 76.4679 153.923 76.183C153.894 75.893 153.803 75.6519 153.65 75.4599C153.503 75.2683 153.267 75.1604 152.944 75.1363C152.62 75.1121 152.368 75.1836 152.186 75.3507C152.009 75.5182 151.881 75.7429 151.8 76.0247C151.725 76.3014 151.671 76.6474 151.637 77.0626C151.603 77.4891 151.6 77.8502 151.628 78.1458C151.657 78.4359 151.748 78.6769 151.901 78.869C152.054 79.0554 152.293 79.1607 152.616 79.1848C152.94 79.209 153.192 79.1403 153.374 78.9788C153.556 78.8118 153.684 78.5871 153.76 78.3048C153.835 78.0169 153.89 77.6597 153.925 77.2332Z" fill="#023874"/>
<path d="M147.992 65.531C148.455 65.551 148.912 65.5938 149.361 65.6582M145.391 65.6645C144.512 65.7944 143.66 66.0086 142.845 66.2986C141.243 66.8682 139.784 67.7303 138.537 68.821C135.991 71.0489 134.334 74.2307 134.179 77.8217C134.067 80.4132 134.752 82.8598 136.024 84.9378M153.055 66.7398C152.641 66.5509 152.215 66.3821 151.779 66.2346M155.003 67.8337C155.296 68.0326 155.581 68.2426 155.857 68.4631C156.307 68.8232 156.731 69.2112 157.128 69.6243C158.528 71.0797 159.582 72.8461 160.172 74.7971C160.412 75.591 160.575 76.4155 160.653 77.2621" stroke="#00AB5E" stroke-width="2" stroke-linecap="round"/>
<path opacity="0.3" d="M160.699 79.7968C160.587 82.3883 159.693 84.7666 158.247 86.7272" stroke="#00AB5E" stroke-width="2" stroke-linecap="round"/>
<path d="M167.556 39.6461L128.849 37.8342C128.23 37.8056 127.753 37.2819 127.783 36.6655L127.884 34.5562C127.914 33.9407 128.438 33.4654 129.055 33.4951L167.759 35.307C168.377 35.3357 168.854 35.8583 168.825 36.4728L168.728 38.5821C168.699 39.1986 168.174 39.6748 167.556 39.6451V39.6461Z" fill="#F0F2F5"/>
<path d="M165.518 121.313C164.413 122.658 162.705 123.483 160.827 123.395L127.665 121.843C125.787 121.755 124.166 120.774 123.191 119.332L165.517 121.312L165.518 121.313Z" fill="#F0F2F5"/>
<path d="M165.239 29.5113C168.392 29.6585 170.827 32.3241 170.678 35.4628L166.785 117.976C166.637 121.116 163.962 123.542 160.809 123.393L127.647 121.841C124.495 121.694 122.059 119.029 122.208 115.89L126.102 33.3762C126.249 30.2365 128.926 27.811 132.077 27.9592L165.239 29.5113ZM165.307 28.0758L132.145 26.5237C128.203 26.339 124.845 29.3829 124.659 33.3091L120.766 115.823C120.58 119.749 123.637 123.093 127.579 123.278L160.741 124.83C164.683 125.015 168.041 121.971 168.226 118.045L172.12 35.531C172.305 31.6048 169.249 28.2606 165.307 28.0758Z" fill="#1F4168"/>
<path d="M165.22 29.8701C168.168 30.0084 170.455 32.5099 170.316 35.4461L166.422 117.96C166.283 120.896 163.772 123.173 160.824 123.035L127.661 121.483C124.713 121.344 122.427 118.843 122.566 115.907L126.459 33.3932C126.598 30.4569 129.11 28.1797 132.058 28.318L165.22 29.8701ZM165.237 29.5115L132.075 27.9594C128.922 27.8122 126.247 30.2376 126.099 33.3764L122.206 115.89C122.058 119.03 124.493 121.694 127.645 121.841L160.807 123.393C163.959 123.541 166.635 121.115 166.782 117.976L170.676 35.4629C170.824 32.3232 168.388 29.6587 165.237 29.5115Z" fill="#1B1A2E"/>
<path d="M137.5 43.5204L130.984 43.1496C129.392 43.059 128.031 44.2013 127.945 45.701L127.59 51.84C127.504 53.3397 128.724 54.6288 130.315 54.7194L136.831 55.0902C138.423 55.1808 139.784 54.0385 139.87 52.5388L140.225 46.3998C140.311 44.9001 139.091 43.611 137.5 43.5204Z" fill="#FFBE17"/>
<path d="M166.015 47.0238L143.559 46.0453C142.875 46.0155 142.297 46.5136 142.269 47.1578L142.249 47.6188C142.221 48.2631 142.752 48.8095 143.436 48.8393L165.892 49.8178C166.577 49.8476 167.154 49.3495 167.182 48.7053L167.203 48.2442C167.231 47.6 166.699 47.0536 166.015 47.0238Z" fill="#E0E0E0"/>
<path d="M153.439 51.9792L143.313 51.538C142.629 51.5082 142.051 52.0063 142.023 52.6505L142.003 53.1115C141.974 53.7557 142.506 54.3022 143.19 54.332L153.316 54.7732C154 54.803 154.578 54.3049 154.606 53.6607L154.626 53.1996C154.654 52.5554 154.123 52.009 153.439 51.9792Z" fill="#E0E0E0"/>
<path d="M163.712 31.5537L163.645 32.9788L166.567 33.1155L166.634 31.6905L163.712 31.5537Z" fill="#1F4168"/>
<path d="M163.139 31.8057L163.098 32.6742L163.54 32.6949L163.581 31.8264L163.139 31.8057Z" fill="#1F4168"/>
<path d="M132.561 30.8104L132.527 31.5229L132.967 31.5435L133.001 30.831L132.561 30.8104Z" fill="#1F4168"/>
<path d="M131.756 30.535L131.711 31.4854L132.151 31.5059L132.196 30.5556L131.756 30.535Z" fill="#1F4168"/>
<path d="M130.954 30.2583L130.898 31.4465L131.338 31.4671L131.394 30.2789L130.954 30.2583Z" fill="#1F4168"/>
<path d="M130.145 29.9825L130.078 31.4076L130.518 31.4282L130.585 30.0031L130.145 29.9825Z" fill="#1F4168"/>
<path d="M156.669 32.6663L140.674 31.9174C140.275 31.8987 139.966 31.5618 139.985 31.1646C140.004 30.7675 140.342 30.4602 140.741 30.479L156.736 31.2278C157.135 31.2466 157.444 31.5835 157.425 31.9807C157.406 32.3778 157.068 32.6851 156.669 32.6663Z" fill="#F0F2F5"/>
<path d="M166.407 36.4672C166.401 36.5874 166.298 36.6808 166.178 36.6749C166.057 36.6689 165.963 36.5665 165.969 36.4463C165.975 36.326 166.078 36.2326 166.199 36.2386C166.319 36.2445 166.413 36.3469 166.407 36.4672Z" fill="#D2D9E1"/>
<path d="M166.364 37.416C166.358 37.5363 166.255 37.6297 166.135 37.6237C166.014 37.6178 165.92 37.5154 165.926 37.3951C165.932 37.2749 166.035 37.1814 166.156 37.1874C166.276 37.1934 166.37 37.2957 166.364 37.416Z" fill="#D2D9E1"/>
<path d="M166.317 38.3667C166.311 38.4869 166.208 38.5804 166.088 38.5744C165.967 38.5685 165.873 38.4661 165.879 38.3458C165.885 38.2256 165.988 38.1321 166.109 38.1381C166.229 38.1441 166.323 38.2464 166.317 38.3667Z" fill="#D2D9E1"/>
<path d="M131.368 35.7771C131.349 36.1861 131 36.5022 130.589 36.4835C130.178 36.4647 129.861 36.1169 129.88 35.7079C129.899 35.2989 130.248 34.9828 130.658 35.0015C131.069 35.0203 131.386 35.3681 131.368 35.7771Z" fill="#D2D9E1"/>
<path d="M151.388 120.753L137.808 120.118C137.752 120.115 137.709 120.068 137.711 120.012C137.713 119.957 137.762 119.914 137.817 119.916L151.397 120.551C151.454 120.554 151.496 120.601 151.494 120.657C151.492 120.712 151.444 120.755 151.388 120.753Z" fill="#1F4168"/>
<path d="M56.9991 79.8716C56.9991 79.8716 55.7393 90.6532 43.3785 92.8831C43.3785 92.8831 42.1504 77.4956 48.7956 63.7817L49.3392 60.554C49.5445 59.3358 50.0941 58.2017 50.9244 57.2838L59.4661 47.8468C59.7588 47.5406 60.1248 47.3143 60.5295 47.1879L62.4777 46.5803L63.2842 44.6073L63.7921 40.5478C63.9002 39.6843 64.661 39.052 65.533 39.0994C66.275 39.1399 66.9039 39.6655 67.0636 40.3877C67.3532 41.7027 67.503 43.9543 66.2035 46.5516L68.7201 46.9241C69.4413 47.0308 69.976 47.6473 69.976 48.3734C69.976 49.1835 69.3153 49.8405 68.5019 49.8396L65.9734 49.8791L65.0826 50.6131C64.7126 50.9184 64.5559 51.4114 64.6839 51.8728L67.7867 53.9159C69.2737 54.8949 69.606 56.9647 68.4424 58.3103C68.126 58.6769 67.7133 59.0098 67.1776 59.2637C67.1776 59.2637 66.4208 61.9105 63.5381 61.2792C63.5381 61.2792 63.7554 62.3402 62.6841 62.9864C61.8756 63.4744 60.8529 63.4418 60.0454 62.9528L58.5287 62.033C58.5287 62.033 58.0377 63.0516 56.4228 63.9674C56.4228 63.9674 54.4895 72.4421 56.9991 79.8706V79.8716Z" fill="#FFC89F"/>
<path d="M168.724 107.553L175.232 103.461C175.232 103.461 183.548 100.167 187.328 97.1797C188.293 96.416 188.837 95.2335 188.774 94.0074C188.771 93.9432 188.766 93.879 188.76 93.8138C188.587 91.8428 186.898 90.346 184.911 90.346H184.679C184.679 90.346 181.888 89.2919 180.38 91.9119C180.38 91.9119 176.273 93.8286 172.36 94.3403L177.011 91.1769L181.586 88.9638C184.983 87.3209 185.836 82.8385 183.217 80.1295C182.686 79.5812 182.057 79.0576 181.311 78.5883L182.358 77.7544C184.616 75.9554 184.895 72.621 182.94 70.4998C182.912 70.4682 182.883 70.4376 182.853 70.406C181.329 68.7917 178.246 68.188 176.085 68.7116C176.085 68.7116 175.117 63.9467 170.822 63.1188L170.33 73.6139C170.33 73.6139 166.943 81.2311 169.781 85.0308C169.781 85.0308 166.368 90.425 169.365 94.042L168.726 107.554L168.724 107.553Z" fill="#FFC89F"/>
<path d="M121.273 105.154C121.273 105.154 119.032 102.073 118.497 88.1291L115.963 82.6627C115.963 82.6627 114.699 81.5216 113.7 79.7897C111.764 76.4356 113.564 72.1172 117.349 71.2528C117.412 71.2379 117.475 71.2251 117.54 71.2123C119.414 69.753 122.189 70.5365 122.985 72.7703C123.525 74.2878 123.695 76.1313 122.511 78.9164L121.273 105.155V105.154Z" fill="#FFC89F"/>
<path d="M61.2422 54.5658C61.7907 54.9136 62.3324 55.2712 62.873 55.6298C63.4146 55.9885 63.9502 56.354 64.4889 56.7146L66.0919 57.8192C66.3577 58.0069 66.6236 58.1896 66.8894 58.3803C67.1533 58.5868 67.2723 58.9523 67.1791 59.2655C67.2128 59.1075 67.1999 58.9405 67.1434 58.7923C67.0868 58.6431 66.9866 58.5117 66.8597 58.4198L66.0492 57.8834L64.4333 56.7976C63.8987 56.4291 63.362 56.0645 62.8303 55.6931C62.2986 55.3216 61.7669 54.9491 61.2422 54.5668V54.5658Z" fill="#FF9A6C"/>
<path d="M63.5432 61.2808C63.3994 61.1277 63.2506 60.9795 63.0969 60.8382C62.9451 60.694 62.7884 60.5547 62.6296 60.4183C62.3122 60.1456 61.9859 59.8828 61.6496 59.6329C61.3153 59.38 60.9721 59.1399 60.6229 58.9077C60.2757 58.6726 59.9186 58.4533 59.5625 58.229C59.75 58.3238 59.9355 58.4226 60.121 58.5234C60.3015 58.6301 60.487 58.7319 60.6646 58.8445C60.8441 58.9542 61.0207 59.0698 61.1933 59.1893C61.3689 59.3059 61.5375 59.4314 61.7091 59.5539C62.0424 59.8117 62.3707 60.0755 62.6802 60.362C62.9877 60.6485 63.2863 60.9479 63.5432 61.2808Z" fill="#FF9A6C"/>
<path d="M58.5303 62.0334C58.3518 61.9405 58.1713 61.8555 57.9917 61.7696C57.8112 61.6856 57.6296 61.6036 57.4451 61.5285C57.0781 61.3734 56.7041 61.241 56.3242 61.1077C56.5226 61.1383 56.721 61.1778 56.9144 61.2361C57.1089 61.2904 57.2983 61.3606 57.4838 61.4376C57.6693 61.5157 57.8518 61.6036 58.0274 61.7014C58.203 61.7992 58.3736 61.9079 58.5313 62.0334H58.5303Z" fill="#FF9A6C"/>
<path d="M55.9295 64.1649C55.7579 64.238 55.5754 64.2815 55.3919 64.321C55.2074 64.3516 55.0209 64.3744 54.8334 64.3803C54.6459 64.3902 54.4574 64.3763 54.271 64.3576L53.9912 64.318L53.7155 64.2568C53.6232 64.238 53.5359 64.2005 53.4466 64.1728L53.3127 64.1283C53.2681 64.1125 53.2264 64.0918 53.1828 64.074L52.9249 63.9614C52.8425 63.9169 52.7602 63.8705 52.6789 63.8241L52.5568 63.7549C52.5172 63.7302 52.4795 63.7016 52.4408 63.6759L52.2116 63.5148C52.1343 63.4615 52.0688 63.3943 51.9974 63.335C51.9269 63.2738 51.8575 63.2125 51.7891 63.1503C51.9428 63.257 52.0847 63.3755 52.2404 63.4763L52.4755 63.6245C52.5152 63.6482 52.5529 63.6749 52.5935 63.6966L52.7165 63.7589C52.7989 63.8003 52.8812 63.8428 52.9626 63.8853L53.2175 63.991C53.2601 64.0078 53.3018 64.0286 53.3455 64.0424L53.4774 64.0839C53.5657 64.1096 53.651 64.1442 53.7422 64.1619C54.0964 64.2627 54.4654 64.3003 54.8334 64.3052C55.2014 64.3082 55.5724 64.2667 55.9315 64.1659L55.9295 64.1649Z" fill="#FF9A6C"/>
<path d="M64.6883 51.8738C64.3986 51.7295 64.1179 51.5685 63.8412 51.4025C63.5634 51.2375 63.2926 51.0607 63.0248 50.8799C62.7579 50.6971 62.4941 50.5104 62.2391 50.3118C61.9822 50.1152 61.7332 49.9097 61.4922 49.6943L62.2838 50.2506C62.5486 50.4343 62.8125 50.6181 63.0803 50.7979L63.8818 51.3383L64.6883 51.8738Z" fill="#FF9A6C"/>
<path d="M66.2063 46.5524L65.2738 46.5366C64.9634 46.5337 64.6529 46.5287 64.3424 46.5287C64.0319 46.5277 63.7224 46.5327 63.4119 46.5376C63.2572 46.5426 63.1014 46.5455 62.9467 46.5554C62.791 46.5584 62.6372 46.5732 62.4805 46.5801C62.786 46.5208 63.0965 46.4862 63.408 46.4615C63.7194 46.4388 64.0309 46.4309 64.3424 46.4299C64.6539 46.4319 64.9653 46.4398 65.2758 46.4615C65.5863 46.4813 65.8968 46.508 66.2053 46.5524H66.2063Z" fill="#FF9A6C"/>
<path d="M181.309 78.5858C180.33 79.141 179.346 79.6884 178.362 80.2337C177.637 80.6378 176.909 81.036 176.18 81.4341C175.672 81.7127 175.242 82.1178 174.935 82.6088L174.378 83.497L173.855 84.3219L173.592 84.7339C173.5 84.8712 173.4 85.0046 173.281 85.1202C173.049 85.3563 172.77 85.547 172.464 85.6715C172.158 85.7969 171.828 85.8661 171.497 85.8562C170.838 85.8424 170.189 85.5371 169.777 85.0283C169.993 85.2733 170.259 85.4699 170.556 85.6033C170.852 85.7367 171.175 85.8039 171.498 85.8058C171.822 85.8108 172.143 85.7387 172.439 85.6112C172.735 85.4857 173.003 85.2961 173.224 85.0649C173.337 84.9513 173.433 84.8218 173.522 84.6885L173.782 84.2755L174.301 83.4476L174.874 82.5347C175.184 82.0417 175.616 81.6357 176.129 81.358C176.795 80.9964 177.738 80.4857 178.328 80.1715C179.32 79.639 180.313 79.1084 181.31 78.5858H181.309Z" fill="#FF9A6C"/>
<path d="M176.083 68.7104C176.236 69.4187 176.167 70.1755 175.895 70.8542C175.62 71.534 175.117 72.1129 174.509 72.5209C174.436 72.5763 174.353 72.6177 174.276 72.6662C174.198 72.7136 174.119 72.761 174.036 72.7995L173.791 72.922L173.538 73.0278L173.411 73.0801L173.281 73.1246L173.022 73.2135C172.847 73.2639 172.671 73.3143 172.494 73.3558C171.782 73.5188 171.054 73.5948 170.328 73.6116L170.871 73.5613C171.051 73.5435 171.231 73.5138 171.41 73.4911C171.59 73.4694 171.767 73.4299 171.946 73.4002C172.125 73.3696 172.299 73.3202 172.476 73.2817C172.564 73.2619 172.649 73.2323 172.737 73.2076C172.823 73.1819 172.91 73.1591 172.996 73.1315L173.251 73.0416L173.379 72.9961L173.503 72.9428L173.751 72.8361L173.991 72.7136C174.073 72.675 174.149 72.6276 174.226 72.5802C174.301 72.5328 174.381 72.4903 174.453 72.436C175.053 72.0428 175.54 71.4796 175.824 70.8216C175.967 70.4936 176.055 70.1409 176.099 69.7853C176.142 69.4286 176.142 69.0641 176.082 68.7074L176.083 68.7104Z" fill="#FF9A6C"/>
<path d="M180.38 91.9102C180.273 92.2115 180.209 92.5247 180.174 92.8408C180.138 93.156 180.136 93.4751 180.166 93.7893C180.226 94.4196 180.426 95.0331 180.752 95.5755C180.913 95.8472 181.106 96.1001 181.314 96.3382C181.425 96.4518 181.529 96.5714 181.649 96.6751C181.708 96.7285 181.765 96.7838 181.825 96.8352L182.008 96.9873C182.502 97.3884 183.055 97.7174 183.627 98.0039L183.19 97.8044L182.763 97.5801C182.626 97.4961 182.487 97.4161 182.354 97.3272L182.155 97.1899L182.056 97.1207L181.961 97.0466L181.77 96.8974C181.709 96.846 181.65 96.7897 181.59 96.7364C181.467 96.6317 181.36 96.5111 181.246 96.3965C181.03 96.1564 180.832 95.9006 180.664 95.6239C180.34 95.0657 180.133 94.4374 180.089 93.7932C180.045 93.1521 180.133 92.499 180.379 91.9072L180.38 91.9102Z" fill="#FF9A6C"/>
<path d="M169.364 94.0411C169.564 94.2229 169.794 94.3642 170.038 94.466C170.283 94.5657 170.542 94.63 170.806 94.6477C170.938 94.6497 171.069 94.6596 171.201 94.6418C171.267 94.6349 171.334 94.6339 171.399 94.6211C171.464 94.6082 171.529 94.5954 171.595 94.5845C171.662 94.5756 171.725 94.5549 171.789 94.5361L171.981 94.4798C172.108 94.4363 172.231 94.384 172.36 94.3395C172.242 94.4037 172.121 94.466 171.999 94.5252L171.807 94.5964C171.744 94.6201 171.681 94.6448 171.613 94.6586C171.547 94.6754 171.48 94.6922 171.414 94.707C171.347 94.7228 171.278 94.7258 171.21 94.7357C171.074 94.7574 170.936 94.7485 170.799 94.7475C170.524 94.7268 170.253 94.6566 170.006 94.5361C169.882 94.4768 169.767 94.4037 169.656 94.3247C169.55 94.2387 169.447 94.1498 169.363 94.0431L169.364 94.0411Z" fill="#FF9A6C"/>
<path d="M117.574 82.5474C117.831 82.4782 118.084 82.3982 118.333 82.3073C118.583 82.2194 118.83 82.1216 119.072 82.0159C119.557 81.8035 120.027 81.5584 120.467 81.266C120.687 81.1208 120.899 80.9647 121.103 80.7967C121.305 80.6268 121.491 80.4411 121.671 80.2484C121.848 80.0528 122.005 79.8414 122.148 79.6201C122.291 79.3978 122.406 79.1597 122.51 78.9156C122.428 79.1676 122.321 79.4116 122.191 79.6448C122.055 79.874 121.902 80.0943 121.73 80.2978C121.557 80.5013 121.365 80.689 121.163 80.8639C120.96 81.0368 120.746 81.1978 120.523 81.347C120.074 81.6365 119.599 81.8855 119.104 82.084C118.609 82.2816 118.099 82.4456 117.576 82.5464L117.574 82.5474Z" fill="#FF9A6C"/>
</g>
<path d="M19.8874 175.436L15.2794 188H12.2194L7.61138 175.436H10.3114L13.7674 185.426L17.2054 175.436H19.8874ZM22.6763 176.84C22.2323 176.84 21.8603 176.702 21.5603 176.426C21.2723 176.138 21.1283 175.784 21.1283 175.364C21.1283 174.944 21.2723 174.596 21.5603 174.32C21.8603 174.032 22.2323 173.888 22.6763 173.888C23.1203 173.888 23.4863 174.032 23.7743 174.32C24.0743 174.596 24.2243 174.944 24.2243 175.364C24.2243 175.784 24.0743 176.138 23.7743 176.426C23.4863 176.702 23.1203 176.84 22.6763 176.84ZM23.9183 178.028V188H21.3983V178.028H23.9183ZM35.678 182.798C35.678 183.158 35.654 183.482 35.606 183.77H28.316C28.376 184.49 28.628 185.054 29.072 185.462C29.516 185.87 30.062 186.074 30.71 186.074C31.646 186.074 32.312 185.672 32.708 184.868H35.426C35.138 185.828 34.586 186.62 33.77 187.244C32.954 187.856 31.952 188.162 30.764 188.162C29.804 188.162 28.94 187.952 28.172 187.532C27.416 187.1 26.822 186.494 26.39 185.714C25.97 184.934 25.76 184.034 25.76 183.014C25.76 181.982 25.97 181.076 26.39 180.296C26.81 179.516 27.398 178.916 28.154 178.496C28.91 178.076 29.78 177.866 30.764 177.866C31.712 177.866 32.558 178.07 33.302 178.478C34.058 178.886 34.64 179.468 35.048 180.224C35.468 180.968 35.678 181.826 35.678 182.798ZM33.068 182.078C33.056 181.43 32.822 180.914 32.366 180.53C31.91 180.134 31.352 179.936 30.692 179.936C30.068 179.936 29.54 180.128 29.108 180.512C28.688 180.884 28.43 181.406 28.334 182.078H33.068ZM51.3414 178.028L48.4254 188H45.7074L43.8894 181.034L42.0714 188H39.3354L36.4014 178.028H38.9574L40.7214 185.624L42.6294 178.028H45.2934L47.1654 185.606L48.9294 178.028H51.3414ZM59.514 179.468C59.838 179.012 60.282 178.634 60.846 178.334C61.422 178.022 62.076 177.866 62.808 177.866C63.66 177.866 64.428 178.076 65.112 178.496C65.808 178.916 66.354 179.516 66.75 180.296C67.158 181.064 67.362 181.958 67.362 182.978C67.362 183.998 67.158 184.904 66.75 185.696C66.354 186.476 65.808 187.082 65.112 187.514C64.428 187.946 63.66 188.162 62.808 188.162C62.076 188.162 61.428 188.012 60.864 187.712C60.312 187.412 59.862 187.034 59.514 186.578V192.752H56.994V178.028H59.514V179.468ZM64.788 182.978C64.788 182.378 64.662 181.862 64.41 181.43C64.17 180.986 63.846 180.65 63.438 180.422C63.042 180.194 62.61 180.08 62.142 180.08C61.686 180.08 61.254 180.2 60.846 180.44C60.45 180.668 60.126 181.004 59.874 181.448C59.634 181.892 59.514 182.414 59.514 183.014C59.514 183.614 59.634 184.136 59.874 184.58C60.126 185.024 60.45 185.366 60.846 185.606C61.254 185.834 61.686 185.948 62.142 185.948C62.61 185.948 63.042 185.828 63.438 185.588C63.846 185.348 64.17 185.006 64.41 184.562C64.662 184.118 64.788 183.59 64.788 182.978ZM71.7132 179.576C72.0372 179.048 72.4572 178.634 72.9732 178.334C73.5012 178.034 74.1012 177.884 74.7732 177.884V180.53H74.1072C73.3152 180.53 72.7152 180.716 72.3072 181.088C71.9112 181.46 71.7132 182.108 71.7132 183.032V188H69.1932V178.028H71.7132V179.576ZM85.7405 182.798C85.7405 183.158 85.7165 183.482 85.6685 183.77H78.3785C78.4385 184.49 78.6905 185.054 79.1345 185.462C79.5785 185.87 80.1245 186.074 80.7725 186.074C81.7085 186.074 82.3745 185.672 82.7705 184.868H85.4885C85.2005 185.828 84.6485 186.62 83.8325 187.244C83.0165 187.856 82.0145 188.162 80.8265 188.162C79.8665 188.162 79.0025 187.952 78.2345 187.532C77.4785 187.1 76.8845 186.494 76.4525 185.714C76.0325 184.934 75.8225 184.034 75.8225 183.014C75.8225 181.982 76.0325 181.076 76.4525 180.296C76.8725 179.516 77.4605 178.916 78.2165 178.496C78.9725 178.076 79.8425 177.866 80.8265 177.866C81.7745 177.866 82.6205 178.07 83.3645 178.478C84.1205 178.886 84.7025 179.468 85.1105 180.224C85.5305 180.968 85.7405 181.826 85.7405 182.798ZM83.1305 182.078C83.1185 181.43 82.8845 180.914 82.4285 180.53C81.9725 180.134 81.4145 179.936 80.7545 179.936C80.1305 179.936 79.6025 180.128 79.1705 180.512C78.7505 180.884 78.4925 181.406 78.3965 182.078H83.1305ZM91.7379 185.678L94.2579 178.028H96.9399L93.2499 188H90.1899L86.5179 178.028H89.2179L91.7379 185.678ZM99.6333 176.84C99.1893 176.84 98.8173 176.702 98.5173 176.426C98.2293 176.138 98.0853 175.784 98.0853 175.364C98.0853 174.944 98.2293 174.596 98.5173 174.32C98.8173 174.032 99.1893 173.888 99.6333 173.888C100.077 173.888 100.443 174.032 100.731 174.32C101.031 174.596 101.181 174.944 101.181 175.364C101.181 175.784 101.031 176.138 100.731 176.426C100.443 176.702 100.077 176.84 99.6333 176.84ZM100.875 178.028V188H98.3553V178.028H100.875ZM107.793 188.162C106.833 188.162 105.969 187.952 105.201 187.532C104.433 187.1 103.827 186.494 103.383 185.714C102.951 184.934 102.735 184.034 102.735 183.014C102.735 181.994 102.957 181.094 103.401 180.314C103.857 179.534 104.475 178.934 105.255 178.514C106.035 178.082 106.905 177.866 107.865 177.866C108.825 177.866 109.695 178.082 110.475 178.514C111.255 178.934 111.867 179.534 112.311 180.314C112.767 181.094 112.995 181.994 112.995 183.014C112.995 184.034 112.761 184.934 112.293 185.714C111.837 186.494 111.213 187.1 110.421 187.532C109.641 187.952 108.765 188.162 107.793 188.162ZM107.793 185.966C108.249 185.966 108.675 185.858 109.071 185.642C109.479 185.414 109.803 185.078 110.043 184.634C110.283 184.19 110.403 183.65 110.403 183.014C110.403 182.066 110.151 181.34 109.647 180.836C109.155 180.32 108.549 180.062 107.829 180.062C107.109 180.062 106.503 180.32 106.011 180.836C105.531 181.34 105.291 182.066 105.291 183.014C105.291 183.962 105.525 184.694 105.993 185.21C106.473 185.714 107.073 185.966 107.793 185.966ZM124.258 178.028V188H121.72V186.74C121.396 187.172 120.97 187.514 120.442 187.766C119.926 188.006 119.362 188.126 118.75 188.126C117.97 188.126 117.28 187.964 116.68 187.64C116.08 187.304 115.606 186.818 115.258 186.182C114.922 185.534 114.754 184.766 114.754 183.878V178.028H117.274V183.518C117.274 184.31 117.472 184.922 117.868 185.354C118.264 185.774 118.804 185.984 119.488 185.984C120.184 185.984 120.73 185.774 121.126 185.354C121.522 184.922 121.72 184.31 121.72 183.518V178.028H124.258ZM130.56 188.162C129.744 188.162 129.012 188.018 128.364 187.73C127.716 187.43 127.2 187.028 126.816 186.524C126.444 186.02 126.24 185.462 126.204 184.85H128.742C128.79 185.234 128.976 185.552 129.3 185.804C129.636 186.056 130.05 186.182 130.542 186.182C131.022 186.182 131.394 186.086 131.658 185.894C131.934 185.702 132.072 185.456 132.072 185.156C132.072 184.832 131.904 184.592 131.568 184.436C131.244 184.268 130.722 184.088 130.002 183.896C129.258 183.716 128.646 183.53 128.166 183.338C127.698 183.146 127.29 182.852 126.942 182.456C126.606 182.06 126.438 181.526 126.438 180.854C126.438 180.302 126.594 179.798 126.906 179.342C127.23 178.886 127.686 178.526 128.274 178.262C128.874 177.998 129.576 177.866 130.38 177.866C131.568 177.866 132.516 178.166 133.224 178.766C133.932 179.354 134.322 180.152 134.394 181.16H131.982C131.946 180.764 131.778 180.452 131.478 180.224C131.19 179.984 130.8 179.864 130.308 179.864C129.852 179.864 129.498 179.948 129.246 180.116C129.006 180.284 128.886 180.518 128.886 180.818C128.886 181.154 129.054 181.412 129.39 181.592C129.726 181.76 130.248 181.934 130.956 182.114C131.676 182.294 132.27 182.48 132.738 182.672C133.206 182.864 133.608 183.164 133.944 183.572C134.292 183.968 134.472 184.496 134.484 185.156C134.484 185.732 134.322 186.248 133.998 186.704C133.686 187.16 133.23 187.52 132.63 187.784C132.042 188.036 131.352 188.162 130.56 188.162ZM144.658 188.162C143.842 188.162 143.11 188.018 142.462 187.73C141.814 187.43 141.298 187.028 140.914 186.524C140.542 186.02 140.338 185.462 140.302 184.85H142.84C142.888 185.234 143.074 185.552 143.398 185.804C143.734 186.056 144.148 186.182 144.64 186.182C145.12 186.182 145.492 186.086 145.756 185.894C146.032 185.702 146.17 185.456 146.17 185.156C146.17 184.832 146.002 184.592 145.666 184.436C145.342 184.268 144.82 184.088 144.1 183.896C143.356 183.716 142.744 183.53 142.264 183.338C141.796 183.146 141.388 182.852 141.04 182.456C140.704 182.06 140.536 181.526 140.536 180.854C140.536 180.302 140.692 179.798 141.004 179.342C141.328 178.886 141.784 178.526 142.372 178.262C142.972 177.998 143.674 177.866 144.478 177.866C145.666 177.866 146.614 178.166 147.322 178.766C148.03 179.354 148.42 180.152 148.492 181.16H146.08C146.044 180.764 145.876 180.452 145.576 180.224C145.288 179.984 144.898 179.864 144.406 179.864C143.95 179.864 143.596 179.948 143.344 180.116C143.104 180.284 142.984 180.518 142.984 180.818C142.984 181.154 143.152 181.412 143.488 181.592C143.824 181.76 144.346 181.934 145.054 182.114C145.774 182.294 146.368 182.48 146.836 182.672C147.304 182.864 147.706 183.164 148.042 183.572C148.39 183.968 148.57 184.496 148.582 185.156C148.582 185.732 148.42 186.248 148.096 186.704C147.784 187.16 147.328 187.52 146.728 187.784C146.14 188.036 145.45 188.162 144.658 188.162ZM159.92 182.798C159.92 183.158 159.896 183.482 159.848 183.77H152.558C152.618 184.49 152.87 185.054 153.314 185.462C153.758 185.87 154.304 186.074 154.952 186.074C155.888 186.074 156.554 185.672 156.95 184.868H159.668C159.38 185.828 158.828 186.62 158.012 187.244C157.196 187.856 156.194 188.162 155.006 188.162C154.046 188.162 153.182 187.952 152.414 187.532C151.658 187.1 151.064 186.494 150.632 185.714C150.212 184.934 150.002 184.034 150.002 183.014C150.002 181.982 150.212 181.076 150.632 180.296C151.052 179.516 151.64 178.916 152.396 178.496C153.152 178.076 154.022 177.866 155.006 177.866C155.954 177.866 156.8 178.07 157.544 178.478C158.3 178.886 158.882 179.468 159.29 180.224C159.71 180.968 159.92 181.826 159.92 182.798ZM157.31 182.078C157.298 181.43 157.064 180.914 156.608 180.53C156.152 180.134 155.594 179.936 154.934 179.936C154.31 179.936 153.782 180.128 153.35 180.512C152.93 180.884 152.672 181.406 152.576 182.078H157.31ZM161.112 182.978C161.112 181.97 161.31 181.076 161.706 180.296C162.114 179.516 162.66 178.916 163.344 178.496C164.04 178.076 164.814 177.866 165.666 177.866C166.41 177.866 167.058 178.016 167.61 178.316C168.174 178.616 168.624 178.994 168.96 179.45V178.028H171.498V188H168.96V186.542C168.636 187.01 168.186 187.4 167.61 187.712C167.046 188.012 166.392 188.162 165.648 188.162C164.808 188.162 164.04 187.946 163.344 187.514C162.66 187.082 162.114 186.476 161.706 185.696C161.31 184.904 161.112 183.998 161.112 182.978ZM168.96 183.014C168.96 182.402 168.84 181.88 168.6 181.448C168.36 181.004 168.036 180.668 167.628 180.44C167.22 180.2 166.782 180.08 166.314 180.08C165.846 180.08 165.414 180.194 165.018 180.422C164.622 180.65 164.298 180.986 164.046 181.43C163.806 181.862 163.686 182.378 163.686 182.978C163.686 183.578 163.806 184.106 164.046 184.562C164.298 185.006 164.622 185.348 165.018 185.588C165.426 185.828 165.858 185.948 166.314 185.948C166.782 185.948 167.22 185.834 167.628 185.606C168.036 185.366 168.36 185.03 168.6 184.598C168.84 184.154 168.96 183.626 168.96 183.014ZM176.479 179.576C176.803 179.048 177.223 178.634 177.739 178.334C178.267 178.034 178.867 177.884 179.539 177.884V180.53H178.873C178.081 180.53 177.481 180.716 177.073 181.088C176.677 181.46 176.479 182.108 176.479 183.032V188H173.959V178.028H176.479V179.576ZM180.588 183.014C180.588 181.982 180.798 181.082 181.218 180.314C181.638 179.534 182.22 178.934 182.964 178.514C183.708 178.082 184.56 177.866 185.52 177.866C186.756 177.866 187.776 178.178 188.58 178.802C189.396 179.414 189.942 180.278 190.218 181.394H187.5C187.356 180.962 187.11 180.626 186.762 180.386C186.426 180.134 186.006 180.008 185.502 180.008C184.782 180.008 184.212 180.272 183.792 180.8C183.372 181.316 183.162 182.054 183.162 183.014C183.162 183.962 183.372 184.7 183.792 185.228C184.212 185.744 184.782 186.002 185.502 186.002C186.522 186.002 187.188 185.546 187.5 184.634H190.218C189.942 185.714 189.396 186.572 188.58 187.208C187.764 187.844 186.744 188.162 185.52 188.162C184.56 188.162 183.708 187.952 182.964 187.532C182.22 187.1 181.638 186.5 181.218 185.732C180.798 184.952 180.588 184.046 180.588 183.014ZM197.68 177.884C198.436 177.884 199.108 178.052 199.696 178.388C200.284 178.712 200.74 179.198 201.064 179.846C201.4 180.482 201.568 181.25 201.568 182.15V188H199.048V182.492C199.048 181.7 198.85 181.094 198.454 180.674C198.058 180.242 197.518 180.026 196.834 180.026C196.138 180.026 195.586 180.242 195.178 180.674C194.782 181.094 194.584 181.7 194.584 182.492V188H192.064V174.68H194.584V179.27C194.908 178.838 195.34 178.502 195.88 178.262C196.42 178.01 197.02 177.884 197.68 177.884ZM213.235 182.798C213.235 183.158 213.211 183.482 213.163 183.77H205.873C205.933 184.49 206.185 185.054 206.629 185.462C207.073 185.87 207.619 186.074 208.267 186.074C209.203 186.074 209.869 185.672 210.265 184.868H212.983C212.695 185.828 212.143 186.62 211.327 187.244C210.511 187.856 209.509 188.162 208.321 188.162C207.361 188.162 206.497 187.952 205.729 187.532C204.973 187.1 204.379 186.494 203.947 185.714C203.527 184.934 203.317 184.034 203.317 183.014C203.317 181.982 203.527 181.076 203.947 180.296C204.367 179.516 204.955 178.916 205.711 178.496C206.467 178.076 207.337 177.866 208.321 177.866C209.269 177.866 210.115 178.07 210.859 178.478C211.615 178.886 212.197 179.468 212.605 180.224C213.025 180.968 213.235 181.826 213.235 182.798ZM210.625 182.078C210.613 181.43 210.379 180.914 209.923 180.53C209.467 180.134 208.909 179.936 208.249 179.936C207.625 179.936 207.097 180.128 206.665 180.512C206.245 180.884 205.987 181.406 205.891 182.078H210.625ZM218.89 188.162C218.074 188.162 217.342 188.018 216.694 187.73C216.046 187.43 215.53 187.028 215.146 186.524C214.774 186.02 214.57 185.462 214.534 184.85H217.072C217.12 185.234 217.306 185.552 217.63 185.804C217.966 186.056 218.38 186.182 218.872 186.182C219.352 186.182 219.724 186.086 219.988 185.894C220.264 185.702 220.402 185.456 220.402 185.156C220.402 184.832 220.234 184.592 219.898 184.436C219.574 184.268 219.052 184.088 218.332 183.896C217.588 183.716 216.976 183.53 216.496 183.338C216.028 183.146 215.62 182.852 215.272 182.456C214.936 182.06 214.768 181.526 214.768 180.854C214.768 180.302 214.924 179.798 215.236 179.342C215.56 178.886 216.016 178.526 216.604 178.262C217.204 177.998 217.906 177.866 218.71 177.866C219.898 177.866 220.846 178.166 221.554 178.766C222.262 179.354 222.652 180.152 222.724 181.16H220.312C220.276 180.764 220.108 180.452 219.808 180.224C219.52 179.984 219.13 179.864 218.638 179.864C218.182 179.864 217.828 179.948 217.576 180.116C217.336 180.284 217.216 180.518 217.216 180.818C217.216 181.154 217.384 181.412 217.72 181.592C218.056 181.76 218.578 181.934 219.286 182.114C220.006 182.294 220.6 182.48 221.068 182.672C221.536 182.864 221.938 183.164 222.274 183.572C222.622 183.968 222.802 184.496 222.814 185.156C222.814 185.732 222.652 186.248 222.328 186.704C222.016 187.16 221.56 187.52 220.96 187.784C220.372 188.036 219.682 188.162 218.89 188.162Z" fill="white"/>
<defs>
<filter id="filter0_d_136_59592" x="41.2227" y="0" width="148.555" height="160" filterUnits="userSpaceOnUse" color-interpolation-filters="sRGB">
<feFlood flood-opacity="0" result="BackgroundImageFix"/>
<feColorMatrix in="SourceAlpha" type="matrix" values="0 0 0 0 0 0 0 0 0 0 0 0 0 0 0 0 0 0 127 0" result="hardAlpha"/>
<feOffset dy="4"/>
<feGaussianBlur stdDeviation="0.5"/>
<feComposite in2="hardAlpha" operator="out"/>
<feColorMatrix type="matrix" values="0 0 0 0 0 0 0 0 0 0 0 0 0 0 0 0 0 0 0.05 0"/>
<feBlend mode="normal" in2="BackgroundImageFix" result="effect1_dropShadow_136_59592"/>
<feBlend mode="normal" in="SourceGraphic" in2="effect1_dropShadow_136_59592" result="shape"/>
</filter>
</defs>
</svg>
