<svg width="206" height="259" viewBox="0 0 206 259" fill="none" xmlns="http://www.w3.org/2000/svg">
<g filter="url(#filter0_d_37_5327)">
<g clip-path="url(#clip0_37_5327)">
<path d="M17 28C17 19.7157 23.7157 13 32 13H175C183.284 13 190 19.7157 190 28V238H32C23.7157 238 17 231.284 17 223V28Z" fill="#D8F3FF"/>
<g filter="url(#filter1_d_37_5327)">
<path d="M55.2752 214.882L64.3866 147.693L45.0309 149.64L44.2022 150.569C43.3668 151.505 42.1066 151.95 40.8663 151.74C38.3769 151.32 34.1681 150.199 31.2283 147.243C30.4007 146.411 29.9925 145.255 30.1341 144.091C30.5556 140.627 33.0606 133.19 46.5909 131.09L65.0006 121.873L72.5652 114.626C72.5652 112.381 73.5787 110.253 75.3324 108.84C79.1517 105.762 87.0792 100.235 100.055 95.0027C100.961 94.6379 102 94.9707 102.52 95.795L104.73 99.2915L120.993 95.9526C120.993 95.9526 136.171 107.309 133.552 131.949L138.268 214.884H55.2752V214.882Z" fill="#F9A21B"/>
<path d="M100.098 96.0114L94.4918 101.447C93.4329 102.475 92.8355 103.885 92.8355 105.357V111.031C92.8355 111.031 86.4935 114.658 81.4416 113.15L79.8085 103.504L79.7001 102.868L79.4545 101.414L78.3425 94.8444L78.3115 94.6648L78.3325 94.6626L99.4895 92.0234L99.9398 94.9734L100.098 96.0114Z" fill="#FFC89F"/>
<path d="M92.8355 214.881H63.8252C63.8252 214.881 68.876 168.014 76.0389 134.187C76.0522 134.124 76.06 134.088 76.0622 134.075C76.0622 134.071 76.0622 134.07 76.0622 134.07C77.7506 126.107 79.5562 118.873 81.4405 113.15C81.4405 113.15 85.6272 114.654 92.8344 111.031C92.8344 111.031 80.3927 146.294 92.8344 214.881H92.8355Z" fill="#1F4168"/>
<path d="M99.9402 94.9734L82.8394 102.22L81.5504 102.765L79.8089 103.504L79.7005 102.868L79.4548 101.414L78.3429 94.8444L78.3329 94.6626L77.6846 81.9394L99.2199 80.8496L99.9402 94.9734Z" fill="#FFC89F"/>
<path d="M86.1762 102.712C94.097 102.31 100.193 95.5907 99.7907 87.7018L98.9011 70.2512C98.4984 62.3623 91.7514 56.2905 83.8306 56.6916C75.9098 57.0927 69.8134 63.8125 70.2161 71.7014L71.1057 89.1519C71.5084 97.0408 78.2554 103.113 86.1762 102.712Z" fill="#FFC89F"/>
<path d="M85.5835 101.909C84.2945 102.404 82.8075 102.647 81.5506 102.765C80.8315 102.832 80.1886 102.859 79.7007 102.868L79.4551 101.414C80.5084 101.868 81.6292 102.169 82.8396 102.22C83.7048 102.256 84.6176 102.164 85.5835 101.909Z" fill="#FF9A6C"/>
<path d="M95.8217 70.6883L95.544 66.7136C84.1003 61.9807 73.9655 64.8468 73.9655 64.8468C73.9655 64.8468 71.9684 68.0183 71.8877 73.0873C71.8877 73.0873 73.9589 72.5286 73.96 70.6839C73.96 70.6839 74.9757 70.9528 74.8208 72.3721C74.8208 72.3721 75.1671 71.7528 74.8119 70.3401L75.4481 70.6828C75.9803 70.9693 76.3299 71.5104 76.362 72.112C76.5623 75.9457 70.8808 77.2174 68.3637 75.9667C62.763 76.0471 60.2625 72.1991 62.617 67.7262C59.2314 62.1129 66.4552 59.6214 66.4552 59.6214C61.8514 54.4444 65.4782 47.2673 65.4782 47.2673C65.3797 49.4691 65.7471 51.3986 65.7471 51.3986C64.7944 45.9891 69.999 42 69.999 42C71.6609 57.6345 92.7259 49.5297 92.7259 49.5297C103.104 61.022 110.262 59.5211 110.262 59.5211C109.412 60.5525 107.914 60.9261 107.914 60.9261L108.984 61.1333C115.448 72.5914 110.436 80.4781 110.436 80.4781C110.362 79.0169 109.931 76.7369 109.931 76.7369C109.94 76.8383 109.946 76.9397 109.952 77.0389C110.171 80.7051 108.326 84.1729 105.249 86.1972C99.3323 90.0904 99.9398 94.9743 99.9398 94.9743L98.8367 75.9733L97.2943 74.2168C96.4302 73.2327 95.9124 71.9941 95.8217 70.6894V70.6883Z" fill="#1B1A2E"/>
<path d="M100.415 87.1055L101.161 87.0677C102.634 86.9931 103.768 85.7427 103.693 84.2748L103.451 79.5315C103.376 78.0637 102.121 76.9342 100.647 77.0088L99.9013 77.0466C98.4275 77.1212 97.2935 78.3716 97.3684 79.8395L97.6105 84.5828C97.6854 86.0506 98.9409 87.1801 100.415 87.1055Z" fill="#FFC89F"/>
<path d="M99.5361 78.6422C99.7939 78.6665 100.043 78.7116 100.28 78.7921C100.516 78.8725 100.735 78.9893 100.937 79.126C101.138 79.2648 101.316 79.4334 101.467 79.6219C101.62 79.8081 101.747 80.0153 101.833 80.2401C101.925 80.4615 101.99 80.6952 102.009 80.9365C102.038 81.1822 102.048 81.4434 102.076 81.6957C102.125 82.2048 102.184 82.7139 102.272 83.2208C102.309 82.7073 102.317 82.1949 102.312 81.6836C102.312 81.4258 102.307 81.1767 102.294 80.9133C102.282 80.6434 102.211 80.3778 102.113 80.1254C101.908 79.623 101.53 79.1943 101.064 78.9276C100.831 78.7943 100.578 78.6995 100.318 78.6488C100.057 78.6048 99.7917 78.5992 99.5372 78.6411L99.5361 78.6422Z" fill="#FF9A6C"/>
<path d="M100.803 84.0354C100.748 83.8856 100.685 83.7555 100.627 83.6255L100.458 83.2431L100.298 82.8574C100.242 82.7263 100.192 82.5908 100.121 82.4475C100.065 82.5974 100.054 82.755 100.065 82.9103C100.079 83.0657 100.117 83.2189 100.179 83.3621C100.241 83.5054 100.325 83.6387 100.429 83.7555C100.535 83.8701 100.656 83.9715 100.803 84.0354Z" fill="#FF9A6C"/>
<path d="M71.8869 73.0884C71.327 73.2295 70.7296 73.2284 70.1918 73.0356C69.9274 72.9342 69.6707 72.803 69.455 72.6179C69.2304 72.4449 69.0478 72.2234 68.8896 71.9909C68.5886 71.5138 68.3994 70.9639 68.3674 70.3986C68.3308 69.8344 68.4238 69.2647 68.6252 68.7368C68.8221 68.2057 69.1264 67.7164 69.5014 67.2889C69.8765 66.8613 70.3158 66.4888 70.7948 66.1737C70.911 66.0899 71.0394 66.0249 71.1611 65.9489L71.3458 65.8398C71.4078 65.8045 71.4742 65.7748 71.5372 65.7417L71.9234 65.55L72.3217 65.3847C72.5839 65.2646 72.8616 65.1852 73.1327 65.0871C73.4071 64.999 73.687 64.9296 73.9647 64.8469C72.8329 65.075 71.7198 65.4607 70.7307 66.0756C70.2339 66.3797 69.7869 66.7643 69.3974 67.1974C69.0102 67.6327 68.6915 68.1352 68.4835 68.6828C68.2788 69.2316 68.187 69.8234 68.2302 70.4085C68.27 70.9925 68.4647 71.5689 68.7933 72.0548C68.9637 72.2928 69.1584 72.5176 69.3963 72.6917C69.6242 72.878 69.8931 73.008 70.1686 73.1039C70.7296 73.278 71.337 73.2604 71.888 73.0873L71.8869 73.0884Z" fill="#1F4168"/>
<path d="M68.124 72.1816C68.3652 72.9188 68.8886 73.5415 69.4993 74.0208C70.1145 74.499 70.8425 74.8429 71.6181 74.9795C72.0064 75.0412 72.4081 75.0434 72.7964 74.9597C73.1826 74.877 73.5565 74.7062 73.8542 74.4429C74.154 74.1828 74.3786 73.8489 74.5313 73.4919C74.6807 73.1315 74.7703 72.7536 74.8212 72.3723C74.7371 72.748 74.6331 73.1194 74.4638 73.461C74.3 73.8048 74.0721 74.1178 73.7789 74.3547C73.4857 74.5894 73.1372 74.7525 72.7688 74.8252C72.4003 74.9002 72.0164 74.8936 71.6435 74.8307C70.8934 74.7117 70.1853 74.3767 69.5701 73.9293C69.2614 73.7045 68.9782 73.4456 68.7314 73.1536C68.4814 72.8649 68.2734 72.5376 68.1251 72.1827L68.124 72.1816Z" fill="#1F4168"/>
<path d="M62.6162 67.7263C62.874 67.3285 63.1672 66.955 63.4792 66.6001C63.789 66.242 64.1209 65.9048 64.4695 65.5863C64.8202 65.2701 65.182 64.9659 65.5626 64.686C65.9432 64.4073 66.3426 64.1527 66.7531 63.9202C67.5696 63.4452 68.4481 63.0816 69.3532 62.8083C70.2616 62.5416 71.1987 62.3752 72.1469 62.2937C71.6711 62.308 71.1954 62.3411 70.7229 62.4094L70.3689 62.4634L70.0181 62.5339C69.7825 62.5758 69.5534 62.6419 69.3211 62.697C68.4006 62.9505 67.5099 63.3196 66.6779 63.7902C65.8503 64.2684 65.0769 64.8403 64.3898 65.5026C63.706 66.1649 63.0853 66.901 62.6162 67.7274V67.7263Z" fill="#1F4168"/>
<path d="M63.2256 64.9357C63.3473 64.6536 63.5265 64.4023 63.7368 64.1841C63.8341 64.0673 63.9558 63.9748 64.0654 63.8701C64.1871 63.7797 64.3054 63.685 64.4327 63.6034C64.5655 63.5296 64.6905 63.4436 64.8255 63.3753C64.9627 63.3114 65.0976 63.242 65.2371 63.1814L65.6652 63.0271C65.808 62.9742 65.9584 62.9478 66.1045 62.907L66.3247 62.8475C66.3988 62.8298 66.474 62.8199 66.5493 62.8056L66.9996 62.7263C67.3027 62.6921 67.607 62.6668 67.9124 62.6403C68.2177 62.6348 68.5242 62.6172 68.8307 62.6205C69.1372 62.6282 69.4437 62.6403 69.7523 62.6425C69.447 62.6061 69.1405 62.5786 68.8329 62.5466C68.5253 62.5279 68.2166 62.5323 67.9068 62.5246C67.7519 62.5224 67.5981 62.54 67.4432 62.5511C67.2895 62.5643 67.1346 62.5709 66.9808 62.5907L66.5216 62.6646C66.4453 62.6778 66.3678 62.6866 66.2926 62.7042L66.0669 62.7615C65.465 62.9114 64.8775 63.1494 64.3674 63.5086C64.2402 63.599 64.1229 63.7015 64.0023 63.7996C63.895 63.912 63.7744 64.0111 63.6814 64.1368C63.4856 64.3759 63.3152 64.6415 63.2256 64.9368V64.9357Z" fill="#1F4168"/>
<path d="M66.4541 59.6206C66.7617 59.5523 67.0704 59.4994 67.3824 59.4685C67.5373 59.4487 67.6944 59.4399 67.8504 59.4244L68.3195 59.4046C68.9446 59.3925 69.5698 59.4377 70.1816 59.5567C70.4903 59.6008 70.789 59.6911 71.0922 59.7661C71.3843 59.8718 71.6852 59.9589 71.9674 60.0933C72.109 60.1583 72.2562 60.2123 72.3945 60.2862L72.8049 60.5132C72.9466 60.5815 73.0749 60.6719 73.2044 60.7589C73.3338 60.8471 73.4655 60.933 73.5971 61.019C73.4754 60.9209 73.3515 60.8228 73.2265 60.727C73.1026 60.63 72.9798 60.5297 72.8426 60.4504L72.4387 60.2024C72.3026 60.122 72.1566 60.0603 72.015 59.9886L71.8014 59.884C71.7306 59.8476 71.6532 59.8267 71.5801 59.798L71.1331 59.6349C70.8267 59.5545 70.5235 59.4575 70.2093 59.4079C69.5842 59.2999 68.948 59.2514 68.3151 59.2889C67.6833 59.3264 67.0538 59.4244 66.4541 59.6206Z" fill="#1F4168"/>
<path d="M65.7461 51.3991C65.7937 51.7396 65.9043 52.0701 66.0448 52.3853C66.1864 52.7005 66.3646 52.9991 66.5726 53.2768C66.9886 53.8333 67.5352 54.2862 68.1371 54.6344C68.739 54.9859 69.4061 55.2173 70.0833 55.3683C70.7626 55.5171 71.4563 55.5942 72.15 55.6129C72.8438 55.6195 73.5386 55.5898 74.2257 55.506L74.7413 55.4465L75.2535 55.3639C75.4239 55.3352 75.5954 55.3099 75.7658 55.279L76.2737 55.171C77.6268 54.8823 78.9534 54.4878 80.2534 54.0272L79.261 54.3214C78.9324 54.4261 78.5949 54.5022 78.263 54.5936C78.0959 54.6366 77.9311 54.6862 77.7629 54.7259L77.2595 54.8427L76.7561 54.9595L76.2493 55.0575C74.8984 55.3176 73.5264 55.495 72.1523 55.462C71.4663 55.4476 70.7814 55.376 70.112 55.235C69.4426 55.0928 68.7921 54.8625 68.1924 54.5341C67.596 54.2046 67.0517 53.7705 66.6301 53.2316C66.2053 52.6983 65.8833 52.0723 65.7461 51.3979V51.3991Z" fill="#1F4168"/>
<path d="M98.4172 60.7795C98.7702 60.9867 99.1475 61.1476 99.5292 61.2997C99.7228 61.368 99.9153 61.4374 100.111 61.498C100.309 61.552 100.504 61.6192 100.704 61.6633C101.501 61.8617 102.323 61.9686 103.145 61.9785C103.966 61.9785 104.794 61.9168 105.592 61.7239C105.997 61.649 106.386 61.5135 106.776 61.3911C106.973 61.3349 107.158 61.2435 107.348 61.1674L107.911 60.9261L107.334 61.13C107.141 61.1961 106.953 61.2765 106.753 61.3206C106.359 61.4275 105.971 61.5487 105.568 61.6093C104.773 61.7768 103.957 61.8385 103.146 61.8264C102.944 61.8198 102.74 61.8242 102.538 61.8077L101.93 61.7537C101.729 61.7272 101.528 61.6942 101.327 61.6644C101.126 61.6336 100.929 61.5851 100.729 61.5487C99.9341 61.3746 99.1541 61.1267 98.415 60.7773L98.4172 60.7795Z" fill="#1F4168"/>
<path d="M95.1709 56.9817C95.3358 57.8335 95.6024 58.6666 95.9443 59.4677C96.2873 60.2677 96.7298 61.0325 97.2985 61.7036C97.875 62.3603 98.6262 62.9091 99.4992 63.0986C99.9329 63.1923 100.382 63.1857 100.815 63.1185L101.137 63.0535L101.45 62.9565C101.555 62.9278 101.657 62.886 101.756 62.843L102.056 62.7141C101.251 63.0303 100.362 63.189 99.5246 62.9851C98.6904 62.7791 97.969 62.2534 97.4125 61.6044C96.8471 60.9564 96.4123 60.2027 96.0505 59.4203C95.8679 59.0291 95.7064 58.6269 95.5615 58.2203C95.4121 57.8137 95.2838 57.4004 95.172 56.9817H95.1709Z" fill="#1F4168"/>
<path d="M109.952 77.0377C109.926 76.1671 109.826 75.2988 109.687 74.437C109.546 73.5764 109.351 72.7235 109.108 71.8838C108.852 71.0485 108.548 70.2243 108.151 69.4441C107.948 69.0562 107.732 68.6749 107.483 68.3146C107.231 67.9575 106.958 67.6137 106.651 67.303C107.218 67.9664 107.675 68.7124 108.047 69.4948C108.418 70.2783 108.721 71.0937 108.964 71.9257C109.218 72.7555 109.41 73.6029 109.575 74.4558C109.656 74.8822 109.729 75.3109 109.79 75.7418C109.857 76.1715 109.91 76.6035 109.953 77.0366L109.952 77.0377Z" fill="#1F4168"/>
<path d="M92.8368 111.034C92.8368 111.034 92.8368 111.037 92.8368 111.041C92.8368 111.041 92.8368 111.045 92.833 111.047L92.8387 111.034H92.8368Z" fill="#1F4168"/>
<g style="mix-blend-mode:multiply" opacity="0.4">
<path d="M64.3866 147.693L57.9893 148.336L60.3238 147C61.906 146.096 63.1219 144.671 63.7648 142.97L65.9278 137.243L64.3866 147.693Z" fill="#A65B3C"/>
</g>
<g style="mix-blend-mode:multiply" opacity="0.4">
<path d="M74.5989 114.623C74.5989 114.623 75.9189 116.09 76.492 118.904C76.492 118.904 74.9817 117.611 74.0557 119.147C74.0557 119.147 75.0282 116.985 74.5978 114.623H74.5989Z" fill="#A65B3C"/>
</g>
<g style="mix-blend-mode:multiply" opacity="0.4">
<path d="M76.0389 134.187C75.6661 136.036 71.0556 159.895 70.3586 214.881H63.8252C63.8252 214.881 68.876 168.014 76.0389 134.187Z" fill="#1F4168"/>
</g>
<g style="mix-blend-mode:multiply" opacity="0.4">
<path d="M92.8364 111.04C92.8364 111.04 92.8305 111.057 92.8262 111.07C92.8291 111.06 92.832 111.051 92.8335 111.044L92.8378 111.034C92.8378 111.034 92.8378 111.037 92.8378 111.04H92.8364Z" fill="#A65B3C"/>
</g>
<g style="mix-blend-mode:multiply" opacity="0.4">
<path d="M100.924 214.881H92.8355C80.6527 147.723 92.3276 112.515 92.82 111.077C92.3531 112.52 81.2723 148.056 100.924 214.881Z" fill="#A65B3C"/>
</g>
<g style="mix-blend-mode:multiply" opacity="0.4">
<path d="M118.752 214.881L114.717 168.77L122.708 214.881H118.752Z" fill="#A65B3C"/>
</g>
<g style="mix-blend-mode:multiply" opacity="0.4">
<path d="M47.6096 133.566L48.9705 137.304C49.5845 138.99 49.4673 140.855 48.6485 142.451L46.6592 146.329C46.6592 146.329 49.5193 139.293 47.6107 133.566H47.6096Z" fill="#A65B3C"/>
</g>
<g style="mix-blend-mode:multiply" opacity="0.4">
<path d="M80.5027 107.599C78.4591 110.894 79.4527 116.491 79.4527 116.491L76.6966 121.119C72.1847 128.695 69.5547 137.234 69.0236 146.027L65.9268 197.281V197.274C68.0544 180.538 71.6503 154.915 76.0394 134.188C76.0527 134.126 76.0604 134.089 76.0626 134.076C76.0626 134.073 76.0626 134.072 76.0626 134.072C77.751 126.109 79.5567 118.875 81.4409 113.151L80.5016 107.6L80.5027 107.599Z" fill="#A65B3C"/>
</g>
<path d="M45.0304 149.639C45.4387 148.94 45.7927 148.212 46.118 147.472C46.4444 146.733 46.7387 145.98 46.9954 145.214C47.2521 144.449 47.4789 143.674 47.6648 142.888C47.8507 142.103 47.989 141.307 48.0863 140.507C48.1073 140.306 48.1383 140.107 48.1527 139.906L48.2003 139.304C48.2158 138.901 48.2412 138.498 48.2313 138.095C48.2368 137.691 48.2069 137.289 48.1859 136.887L48.1251 136.285C48.1096 136.084 48.0775 135.885 48.0465 135.686L48.0011 135.387C47.9868 135.287 47.9702 135.188 47.948 135.09L47.8241 134.498C47.7832 134.301 47.7223 134.108 47.6725 133.913L47.594 133.621C47.5674 133.524 47.532 133.429 47.501 133.333L47.3118 132.758L47.0894 132.195L46.9777 131.913L46.8482 131.638L46.5893 131.09L46.8604 131.633L46.9954 131.905L47.1138 132.185L47.3495 132.745L47.5519 133.318C47.584 133.414 47.6216 133.508 47.6493 133.605L47.7323 133.897C47.7854 134.092 47.8473 134.286 47.8916 134.484L48.0233 135.078C48.0476 135.176 48.0653 135.276 48.0808 135.376L48.1306 135.676C48.2058 136.075 48.2368 136.479 48.2811 136.883C48.3032 137.287 48.3353 137.691 48.3308 138.097C48.343 138.502 48.3198 138.907 48.3054 139.312L48.26 139.918C48.2468 140.121 48.2169 140.322 48.1959 140.523C47.9978 142.132 47.6106 143.716 47.0751 145.245C46.5373 146.773 45.8702 148.258 45.0293 149.643L45.0304 149.639Z" fill="#A65B3C"/>
<path d="M51.6291 139.569C51.5627 139.198 51.4775 138.831 51.3779 138.468C51.2805 138.105 51.1721 137.744 51.0482 137.389C50.8015 136.68 50.5149 135.982 50.1642 135.318C49.8223 134.649 49.4206 134.011 48.9615 133.416C48.8497 133.264 48.7269 133.123 48.6074 132.976C48.4813 132.836 48.3607 132.692 48.2279 132.559C47.9746 132.28 47.6913 132.03 47.4092 131.778C48.01 132.237 48.5565 132.77 49.029 133.363C49.2713 133.655 49.4859 133.968 49.6928 134.285C49.8997 134.603 50.0867 134.932 50.2637 135.267C50.6089 135.942 50.8988 136.642 51.1301 137.363C51.358 138.084 51.5394 138.82 51.6302 139.569H51.6291Z" fill="#A65B3C"/>
<path d="M91.361 116.413C90.5267 116.781 89.6471 117.045 88.7587 117.252C87.868 117.456 86.9596 117.585 86.0468 117.643C85.1341 117.692 84.2146 117.671 83.3085 117.547C82.4012 117.429 81.5094 117.204 80.6553 116.886C81.0912 117.019 81.5271 117.151 81.9741 117.239C82.1954 117.293 82.42 117.327 82.6435 117.37L82.981 117.42C83.0927 117.437 83.2056 117.452 83.3195 117.463C84.2224 117.569 85.1341 117.591 86.0413 117.533C86.9486 117.484 87.8514 117.355 88.7421 117.17C89.1869 117.077 89.6294 116.967 90.0665 116.841C90.5046 116.718 90.9383 116.577 91.3632 116.413H91.361Z" fill="#1B1A2E"/>
<path d="M64.3867 147.693L64.7109 145.308L65.0473 142.925L65.7365 138.161L66.4513 133.402L66.8175 131.022L67.1948 128.646L66.8706 131.03L66.5354 133.414L65.8461 138.177L65.1302 142.937L64.764 145.316L64.3867 147.693Z" fill="#A65B3C"/>
<path d="M72.3761 121.865C72.5874 121.616 72.7822 121.354 72.9625 121.083C73.1451 120.814 73.3155 120.536 73.4715 120.251C73.7835 119.681 74.049 119.086 74.2448 118.468C74.3444 118.159 74.4296 117.847 74.496 117.529C74.5591 117.212 74.6089 116.891 74.6387 116.568C74.6686 116.245 74.683 115.92 74.6719 115.596C74.6719 115.271 74.6343 114.947 74.5978 114.623C74.725 115.262 74.7693 115.921 74.7239 116.576C74.6808 117.231 74.5458 117.877 74.35 118.502C74.1419 119.125 73.8753 119.728 73.5445 120.293C73.2115 120.857 72.8308 121.395 72.375 121.865H72.3761Z" fill="#A65B3C"/>
<path d="M72.5654 114.623C72.5721 115.227 72.5676 115.831 72.561 116.435C72.5544 117.039 72.5378 117.643 72.5267 118.245C72.5068 118.849 72.4913 119.452 72.467 120.056L72.4282 120.961C72.4116 121.263 72.3984 121.563 72.3773 121.865C72.3729 121.563 72.3751 121.261 72.374 120.96L72.3818 120.054C72.3884 119.45 72.405 118.846 72.4161 118.243C72.436 117.639 72.4515 117.037 72.4758 116.433C72.5002 115.83 72.5267 115.226 72.5654 114.623Z" fill="#A65B3C"/>
<path d="M74.1797 114.055C74.3866 114.322 74.5913 114.592 74.7949 114.864L75.0715 115.29L75.2098 115.504L75.2784 115.611L75.3403 115.722L75.5848 116.169C75.6236 116.244 75.6689 116.316 75.7032 116.395L75.8083 116.626C75.8769 116.781 75.9511 116.934 76.0163 117.091L76.1934 117.568C76.4058 118.213 76.5662 118.878 76.6193 119.556C76.6669 120.232 76.6415 120.924 76.4312 121.569C76.5175 121.242 76.5563 120.906 76.5684 120.57C76.5707 120.486 76.5762 120.402 76.5762 120.317L76.5707 120.065C76.5718 119.897 76.5474 119.73 76.5353 119.563C76.4655 118.895 76.3084 118.237 76.0894 117.602L75.919 117.128C75.8559 116.973 75.784 116.82 75.7176 116.666C75.5926 116.353 75.4156 116.064 75.2673 115.762L75.2098 115.65L75.1445 115.542L75.0139 115.326L74.7517 114.893L74.1808 114.054L74.1797 114.055Z" fill="#A65B3C"/>
<path d="M79.4528 116.49L76.814 120.965C76.3748 121.711 75.9455 122.462 75.5361 123.225C75.1279 123.987 74.7373 124.76 74.3622 125.539C72.8708 128.662 71.6747 131.923 70.7929 135.267C69.91 138.61 69.3457 142.036 69.1067 145.486L68.4827 155.845L67.2137 176.564L66.5775 186.923L65.9258 197.282L66.5255 186.92L67.1406 176.56L68.3743 155.839L69.0094 145.48C69.2539 142.026 69.8259 138.595 70.7155 135.248C71.6039 131.902 72.8077 128.638 74.3058 125.515C74.682 124.735 75.0747 123.963 75.4841 123.2C75.8946 122.437 76.3294 121.687 76.7731 120.944L79.4495 116.492L79.4528 116.49Z" fill="#A65B3C"/>
<path d="M102.759 109.272C102.277 109.28 101.793 109.243 101.319 109.138C100.846 109.036 100.389 108.861 99.9627 108.629C99.5367 108.396 99.1495 108.096 98.8021 107.759C98.4547 107.42 98.146 107.047 97.8616 106.657C97.5795 106.265 97.3228 105.858 97.0639 105.453C96.8039 105.05 96.5439 104.647 96.2297 104.289C96.0725 104.111 95.8966 103.948 95.6953 103.826C95.5935 103.766 95.4861 103.717 95.3744 103.681C95.2615 103.648 95.1443 103.63 95.027 103.625C94.7902 103.62 94.5534 103.67 94.3299 103.756C94.1064 103.843 93.894 103.958 93.6904 104.085C93.8885 103.948 94.0965 103.824 94.3189 103.729C94.5413 103.634 94.7814 103.573 95.0281 103.57C95.1509 103.571 95.2737 103.589 95.3921 103.621C95.5105 103.655 95.6233 103.706 95.7307 103.765C95.9431 103.889 96.1279 104.053 96.2927 104.231C96.6235 104.588 96.8836 104.998 97.1491 105.398C97.4113 105.802 97.6702 106.205 97.9524 106.592C98.2312 106.98 98.5332 107.352 98.874 107.687C99.2137 108.022 99.5943 108.314 100.007 108.555C100.836 109.036 101.8 109.25 102.761 109.272H102.759Z" fill="#A65B3C"/>
<path d="M104.728 99.2886C104.587 100.125 104.433 100.959 104.277 101.792L103.797 104.29L103.291 106.784L103.03 108.029L102.757 109.272L102.977 108.019L103.208 106.769L103.688 104.271L104.194 101.777C104.367 100.947 104.541 100.116 104.728 99.2886Z" fill="#A65B3C"/>
<path d="M113.78 157.7L114.428 164.845L115.059 171.992L116.321 186.286L117.544 200.584L118.156 207.732L118.751 214.882L118.103 207.736L117.471 200.589L116.21 186.296L114.986 171.998L114.374 164.849L113.78 157.7Z" fill="#A65B3C"/>
<path d="M92.8358 111.031C92.5072 112.077 92.2428 113.143 91.9983 114.213C91.7504 115.282 91.538 116.358 91.3355 117.436C90.9383 119.594 90.6252 121.766 90.3574 123.943C89.8374 128.299 89.5298 132.68 89.4026 137.064C89.2754 141.449 89.3263 145.839 89.5166 150.222C89.7091 154.604 90.0211 158.982 90.4935 163.344L90.6584 164.98C90.7192 165.526 90.7878 166.069 90.8531 166.613L91.2481 169.879L91.7073 173.138L91.9363 174.767L92.1974 176.391L92.7207 179.639C92.9044 180.72 93.108 181.798 93.3016 182.878L93.5948 184.497L93.742 185.307L93.9046 186.113L94.5541 189.34C94.6636 189.878 94.7676 190.415 94.8816 190.952L95.2378 192.559L95.9504 195.772L96.1296 196.575L96.3232 197.375L96.7105 198.974L97.485 202.173C98.0282 204.299 98.5914 206.42 99.1424 208.544L100.927 214.881L99.1169 208.551C98.556 206.43 97.9851 204.311 97.433 202.186L96.653 198.989L96.2635 197.39L96.0688 196.59L95.8884 195.786L95.1715 192.574L94.813 190.967C94.699 190.431 94.5928 189.892 94.4833 189.355L93.8283 186.129L93.6645 185.322L93.5163 184.512L93.2208 182.893C93.0261 181.814 92.8203 180.736 92.6356 179.654L92.1078 176.404L91.8445 174.78L91.6132 173.15L91.1496 169.891L90.7502 166.624C90.6849 166.08 90.6152 165.535 90.5533 164.99L90.3862 163.352C89.9204 158.989 89.6139 154.607 89.428 150.224C89.2444 145.839 89.1979 141.448 89.3318 137.061C89.4657 132.674 89.7777 128.293 90.3065 123.936C90.582 121.758 90.9051 119.587 91.3112 117.431C91.5181 116.353 91.7349 115.277 91.9872 114.21C92.2361 113.141 92.5061 112.076 92.838 111.031H92.8358Z" fill="#A65B3C"/>
<path d="M173.408 81.5556L169.065 173.59C169.045 174.005 168.985 174.411 168.89 174.801C168.661 175.739 168.224 176.59 167.632 177.31C166.4 178.81 164.494 179.73 162.4 179.632L125.411 177.901C123.317 177.803 121.508 176.708 120.421 175.1C119.899 174.328 119.545 173.439 119.404 172.485C119.346 172.088 119.325 171.678 119.344 171.263L123.686 79.2283C123.69 79.149 123.695 79.0707 123.703 78.9925C123.705 78.9616 123.708 78.9286 123.712 78.8977C124.043 75.5577 126.948 73.0276 130.352 73.1863L167.341 74.9174C170.744 75.0772 173.4 77.8674 173.415 81.2239C173.415 81.2559 173.415 81.289 173.415 81.3198C173.415 81.3991 173.412 81.4774 173.409 81.5567L173.408 81.5556Z" fill="white"/>
<path d="M131.351 142.83L131.262 144.255L132.939 144.36L132.898 145.009L131.221 144.905L131.128 146.393L133.015 146.511L132.974 147.16L130.291 146.993L130.595 142.13L133.278 142.298L133.237 142.948L131.351 142.83ZM135.726 145.376L136.847 147.402L135.946 147.346L135.196 145.988L134.332 147.245L133.501 147.193L134.863 145.378L133.742 143.344L134.643 143.4L135.393 144.759L136.257 143.501L137.088 143.553L135.726 145.376ZM137.296 145.495C137.321 145.099 137.422 144.757 137.599 144.469C137.781 144.176 138.019 143.957 138.313 143.812C138.608 143.667 138.939 143.606 139.307 143.629C139.773 143.658 140.15 143.793 140.439 144.036C140.732 144.274 140.92 144.601 141.001 145.018L140.142 144.964C140.084 144.769 139.982 144.613 139.835 144.496C139.688 144.379 139.498 144.314 139.265 144.299C138.939 144.279 138.671 144.379 138.461 144.6C138.255 144.816 138.14 145.131 138.114 145.546C138.088 145.96 138.163 146.29 138.34 146.535C138.521 146.78 138.774 146.913 139.1 146.933C139.561 146.962 139.879 146.778 140.053 146.382L140.913 146.436C140.777 146.82 140.547 147.119 140.226 147.333C139.904 147.542 139.515 147.632 139.058 147.604C138.69 147.581 138.369 147.479 138.096 147.298C137.822 147.113 137.613 146.866 137.469 146.558C137.329 146.245 137.272 145.891 137.296 145.495ZM145.285 145.903C145.276 146.047 145.258 146.177 145.232 146.292L142.291 146.109C142.295 146.417 142.394 146.671 142.587 146.87C142.781 147.07 143.026 147.178 143.324 147.197C143.753 147.224 144.067 147.063 144.266 146.716L145.125 146.77C144.987 147.116 144.757 147.394 144.435 147.603C144.118 147.808 143.734 147.896 143.282 147.868C142.914 147.845 142.589 147.743 142.306 147.561C142.027 147.376 141.814 147.128 141.665 146.82C141.52 146.507 141.461 146.152 141.486 145.757C141.51 145.361 141.611 145.019 141.788 144.73C141.97 144.438 142.211 144.219 142.509 144.074C142.813 143.93 143.154 143.869 143.531 143.893C143.894 143.915 144.213 144.015 144.487 144.191C144.761 144.367 144.969 144.604 145.109 144.903C145.249 145.197 145.308 145.53 145.285 145.903ZM144.469 145.599C144.483 145.306 144.393 145.064 144.199 144.874C144.005 144.684 143.757 144.58 143.454 144.561C143.179 144.544 142.938 144.618 142.732 144.782C142.525 144.943 142.394 145.17 142.338 145.466L144.469 145.599ZM147.062 142.851L146.739 148.021L145.942 147.971L146.266 142.801L147.062 142.851ZM148.904 142.966L148.581 148.136L147.785 148.086L148.108 142.916L148.904 142.966ZM153.281 146.403C153.272 146.547 153.254 146.677 153.229 146.792L150.287 146.608C150.291 146.917 150.39 147.171 150.583 147.37C150.777 147.569 151.022 147.678 151.32 147.697C151.749 147.724 152.063 147.563 152.262 147.216L153.122 147.269C152.983 147.616 152.753 147.894 152.431 148.103C152.115 148.308 151.73 148.396 151.278 148.368C150.911 148.345 150.585 148.242 150.302 148.061C150.023 147.875 149.81 147.628 149.661 147.32C149.517 147.007 149.457 146.652 149.482 146.256C149.506 145.86 149.607 145.518 149.784 145.23C149.966 144.938 150.207 144.719 150.506 144.574C150.809 144.429 151.15 144.369 151.527 144.392C151.89 144.415 152.209 144.514 152.483 144.691C152.757 144.867 152.965 145.104 153.105 145.403C153.246 145.697 153.304 146.03 153.281 146.403ZM152.465 146.099C152.479 145.805 152.389 145.564 152.195 145.374C152.001 145.184 151.753 145.08 151.45 145.061C151.175 145.044 150.935 145.117 150.728 145.282C150.521 145.442 150.39 145.67 150.334 145.966L152.465 146.099ZM156.125 144.68C156.428 144.699 156.694 144.778 156.924 144.919C157.158 145.06 157.335 145.258 157.455 145.513C157.575 145.769 157.623 146.071 157.602 146.42L157.46 148.691L156.67 148.641L156.805 146.49C156.826 146.145 156.757 145.876 156.596 145.684C156.435 145.487 156.205 145.379 155.907 145.36C155.609 145.342 155.366 145.42 155.177 145.595C154.994 145.766 154.891 146.024 154.869 146.369L154.735 148.52L153.939 148.471L154.179 144.621L154.976 144.671L154.948 145.111C155.088 144.961 155.261 144.848 155.467 144.772C155.678 144.696 155.897 144.665 156.125 144.68ZM159.605 145.613L159.472 147.743C159.463 147.888 159.489 147.995 159.55 148.064C159.616 148.129 159.73 148.166 159.893 148.177L160.382 148.207L160.341 148.871L159.712 148.831C159.354 148.809 159.084 148.708 158.904 148.528C158.723 148.349 158.645 148.07 158.668 147.693L158.801 145.562L158.347 145.534L158.388 144.884L158.842 144.913L158.902 143.955L159.705 144.006L159.645 144.963L160.582 145.021L160.541 145.671L159.605 145.613ZM162.378 144.124L162.075 147.506L161.411 147.465L161.532 144.071L162.378 144.124ZM161.673 149.003C161.528 148.994 161.41 148.938 161.319 148.834C161.227 148.73 161.186 148.606 161.195 148.461C161.204 148.317 161.26 148.199 161.364 148.107C161.468 148.015 161.592 147.974 161.737 147.983C161.876 147.992 161.992 148.048 162.084 148.152C162.175 148.256 162.217 148.38 162.208 148.525C162.199 148.669 162.142 148.787 162.038 148.879C161.934 148.97 161.813 149.012 161.673 149.003Z" fill="#252525"/>
<path d="M143.987 124.994L140.943 130.651L139.571 130.548L142.622 125.043L139.317 124.796L139.408 123.67L144.066 124.017L143.987 124.994Z" fill="#023874"/>
<path d="M145.797 127.367C145.179 126.993 144.897 126.466 144.953 125.783C144.98 125.445 145.092 125.145 145.288 124.883C145.491 124.615 145.777 124.412 146.144 124.276C146.519 124.134 146.964 124.082 147.479 124.121C147.994 124.159 148.422 124.276 148.763 124.471C149.111 124.661 149.36 124.903 149.511 125.198C149.669 125.487 149.735 125.8 149.707 126.138C149.68 126.482 149.568 126.779 149.373 127.029C149.178 127.273 148.93 127.456 148.628 127.578C148.971 127.755 149.23 127.994 149.406 128.297C149.583 128.6 149.655 128.949 149.623 129.343C149.589 129.769 149.446 130.133 149.194 130.435C148.95 130.732 148.628 130.95 148.227 131.09C147.827 131.23 147.385 131.282 146.902 131.246C146.419 131.21 145.991 131.093 145.618 130.895C145.252 130.698 144.968 130.435 144.768 130.105C144.575 129.769 144.495 129.389 144.53 128.963C144.562 128.569 144.689 128.235 144.912 127.962C145.136 127.683 145.431 127.484 145.797 127.367ZM148.378 126.228C148.403 125.921 148.325 125.676 148.146 125.493C147.973 125.31 147.722 125.206 147.393 125.181C147.071 125.157 146.806 125.223 146.599 125.377C146.399 125.532 146.286 125.766 146.261 126.079C146.238 126.361 146.316 126.593 146.496 126.777C146.682 126.961 146.93 127.064 147.239 127.087C147.548 127.11 147.809 127.045 148.023 126.891C148.237 126.73 148.355 126.509 148.378 126.228ZM147.161 128.045C146.794 128.017 146.487 128.086 146.24 128.25C146 128.415 145.867 128.666 145.839 129.004C145.814 129.317 145.903 129.582 146.105 129.798C146.315 130.009 146.61 130.129 146.99 130.157C147.37 130.186 147.678 130.108 147.913 129.924C148.149 129.74 148.279 129.495 148.304 129.188C148.33 128.856 148.238 128.591 148.028 128.393C147.817 128.188 147.529 128.072 147.161 128.045Z" fill="#023874"/>
<path d="M150.819 127.855C150.906 126.772 151.175 125.939 151.624 125.355C152.079 124.772 152.774 124.515 153.709 124.585C154.643 124.655 155.285 125.011 155.635 125.654C155.991 126.298 156.125 127.161 156.037 128.244C155.949 129.333 155.677 130.172 155.221 130.762C154.772 131.351 154.08 131.612 153.145 131.542C152.211 131.472 151.566 131.112 151.21 130.462C150.861 129.813 150.731 128.944 150.819 127.855ZM154.704 128.145C154.741 127.681 154.74 127.291 154.701 126.973C154.669 126.65 154.568 126.381 154.397 126.167C154.233 125.953 153.971 125.833 153.61 125.806C153.249 125.779 152.967 125.858 152.764 126.045C152.567 126.232 152.424 126.482 152.334 126.797C152.25 127.105 152.19 127.491 152.152 127.954C152.114 128.43 152.11 128.833 152.142 129.162C152.174 129.486 152.276 129.755 152.446 129.969C152.617 130.177 152.883 130.294 153.244 130.321C153.605 130.348 153.887 130.272 154.089 130.092C154.292 129.905 154.436 129.655 154.52 129.34C154.604 129.019 154.665 128.62 154.704 128.145Z" fill="#023874"/>
<path d="M148.085 115.092C148.602 115.114 149.111 115.162 149.612 115.234M145.184 115.241C144.203 115.386 143.253 115.625 142.344 115.948C140.558 116.584 138.93 117.545 137.539 118.762C134.699 121.247 132.851 124.796 132.678 128.801C132.553 131.691 133.318 134.42 134.736 136.738M153.732 116.44C153.27 116.23 152.795 116.041 152.309 115.877M155.905 117.66C156.232 117.882 156.55 118.117 156.857 118.363C157.359 118.764 157.833 119.197 158.276 119.658C159.836 121.281 161.012 123.251 161.67 125.427C161.938 126.313 162.12 127.233 162.207 128.177" stroke="#00AB5E" stroke-width="2" stroke-linecap="round"/>
<path opacity="0.3" d="M162.254 131.004C162.129 133.894 161.132 136.547 159.519 138.734" stroke="#00AB5E" stroke-width="2" stroke-linecap="round"/>
<path d="M169.907 86.2206L126.734 84.1997C126.043 84.1677 125.511 83.5837 125.544 82.896L125.657 80.5434C125.69 79.8568 126.276 79.3268 126.964 79.3599L170.133 81.3809C170.822 81.4128 171.355 81.9957 171.322 82.6812L171.214 85.0338C171.182 85.7215 170.597 86.2526 169.907 86.2195V86.2206Z" fill="#F0F2F5"/>
<path d="M167.633 177.311C166.4 178.811 164.495 179.731 162.4 179.633L125.412 177.902C123.317 177.803 121.508 176.709 120.422 175.1L167.632 177.31L167.633 177.311Z" fill="#F0F2F5"/>
<path d="M167.319 74.9164C170.835 75.0806 173.552 78.0537 173.386 81.5546L169.043 173.589C168.878 177.091 165.894 179.796 162.378 179.631L125.389 177.9C121.873 177.735 119.157 174.762 119.323 171.261L123.665 79.2273C123.83 75.7252 126.815 73.0199 130.331 73.1852L167.319 74.9164ZM167.394 73.3153L130.406 71.5841C126.009 71.378 122.264 74.7732 122.057 79.1523L117.714 171.187C117.507 175.566 120.916 179.296 125.313 179.502L162.302 181.233C166.698 181.439 170.444 178.044 170.651 173.665L174.993 81.6306C175.2 77.2515 171.791 73.5213 167.394 73.3153Z" fill="#1F4168"/>
<path d="M167.3 75.3165C170.588 75.4708 173.139 78.2609 172.984 81.5359L168.641 173.57C168.486 176.845 165.685 179.385 162.397 179.231L125.408 177.5C122.12 177.345 119.569 174.555 119.724 171.28L124.067 79.2461C124.222 75.9711 127.023 73.4311 130.311 73.5853L167.3 75.3165ZM167.319 74.9165L130.33 73.1853C126.814 73.0211 123.83 75.7264 123.665 79.2273L119.323 171.262C119.158 174.764 121.874 177.736 125.389 177.9L162.378 179.631C165.894 179.795 168.878 177.09 169.043 173.589L173.385 81.5547C173.55 78.0527 170.834 75.0807 167.319 74.9165Z" fill="#1B1A2E"/>
<path d="M136.379 90.5421L129.111 90.1285C127.336 90.0275 125.818 91.3016 125.722 92.9743L125.326 99.8216C125.229 101.494 126.59 102.932 128.366 103.033L135.633 103.447C137.409 103.548 138.926 102.274 139.023 100.601L139.419 93.7537C139.515 92.081 138.154 90.6431 136.379 90.5421Z" fill="#FFBE17"/>
<path d="M168.183 94.4494L143.135 93.358C142.372 93.3248 141.728 93.8804 141.697 94.5989L141.674 95.1131C141.643 95.8317 142.236 96.4412 142.999 96.4744L168.046 97.5658C168.809 97.599 169.453 97.0435 169.485 96.3249L169.507 95.8107C169.539 95.0921 168.946 94.4827 168.183 94.4494Z" fill="#E0E0E0"/>
<path d="M154.16 99.9766L142.866 99.4845C142.103 99.4513 141.459 100.007 141.427 100.725L141.405 101.24C141.373 101.958 141.966 102.568 142.729 102.601L154.023 103.093C154.786 103.126 155.43 102.571 155.462 101.852L155.484 101.338C155.516 100.619 154.923 100.01 154.16 99.9766Z" fill="#E0E0E0"/>
<path d="M165.609 77.1945L165.534 78.7839L168.793 78.9364L168.868 77.347L165.609 77.1945Z" fill="#1F4168"/>
<path d="M164.972 77.4757L164.927 78.4443L165.42 78.4674L165.465 77.4987L164.972 77.4757Z" fill="#1F4168"/>
<path d="M130.87 76.3654L130.833 77.1602L131.324 77.1831L131.361 76.3884L130.87 76.3654Z" fill="#1F4168"/>
<path d="M129.972 76.0581L129.922 77.1182L130.413 77.1411L130.463 76.0811L129.972 76.0581Z" fill="#1F4168"/>
<path d="M129.076 75.7497L129.014 77.075L129.504 77.0979L129.567 75.7726L129.076 75.7497Z" fill="#1F4168"/>
<path d="M128.177 75.442L128.102 77.0315L128.592 77.0545L128.667 75.465L128.177 75.442Z" fill="#1F4168"/>
<path d="M157.76 78.4353L139.919 77.6C139.474 77.579 139.13 77.2033 139.151 76.7603C139.172 76.3173 139.55 75.9746 139.994 75.9955L157.835 76.8308C158.28 76.8518 158.624 77.2275 158.603 77.6705C158.582 78.1135 158.205 78.4562 157.76 78.4353Z" fill="#F0F2F5"/>
<path d="M168.624 82.6747C168.617 82.8089 168.502 82.9131 168.368 82.9064C168.233 82.8998 168.128 82.7856 168.135 82.6514C168.142 82.5173 168.256 82.4131 168.391 82.4197C168.526 82.4264 168.63 82.5406 168.624 82.6747Z" fill="#D2D9E1"/>
<path d="M168.573 83.7331C168.566 83.8672 168.452 83.9714 168.317 83.9648C168.182 83.9581 168.078 83.8439 168.084 83.7098C168.091 83.5756 168.206 83.4714 168.34 83.4781C168.475 83.4847 168.58 83.5989 168.573 83.7331Z" fill="#D2D9E1"/>
<path d="M168.522 84.7936C168.515 84.9277 168.401 85.032 168.266 85.0253C168.131 85.0187 168.027 84.9045 168.034 84.7703C168.04 84.6362 168.155 84.532 168.29 84.5386C168.424 84.5453 168.529 84.6595 168.522 84.7936Z" fill="#D2D9E1"/>
<path d="M129.537 81.905C129.516 82.3612 129.127 82.7138 128.669 82.6929C128.211 82.6719 127.857 82.2841 127.878 81.8278C127.899 81.3716 128.288 81.019 128.746 81.0399C129.204 81.0609 129.558 81.4488 129.537 81.905Z" fill="#D2D9E1"/>
<path d="M151.867 176.686L136.72 175.978C136.657 175.974 136.609 175.921 136.611 175.86C136.614 175.798 136.668 175.75 136.73 175.752L151.877 176.46C151.94 176.464 151.987 176.517 151.985 176.578C151.983 176.64 151.929 176.688 151.867 176.686Z" fill="#1F4168"/>
<path d="M46.5908 131.087C46.5908 131.087 45.1856 143.113 31.3986 145.6C31.3986 145.6 30.0288 128.437 37.4407 113.141L38.047 109.541C38.2761 108.182 38.889 106.917 39.8151 105.893L49.3425 95.3674C49.6689 95.0258 50.0771 94.7735 50.5285 94.6324L52.7015 93.9547L53.6011 91.7541L54.1675 87.2262C54.2881 86.2631 55.1368 85.5578 56.1093 85.6107C56.9369 85.6559 57.6384 86.2421 57.8165 87.0476C58.1396 88.5143 58.3067 91.0257 56.8572 93.9227L59.6642 94.3382C60.4686 94.4572 61.065 95.1448 61.065 95.9548C61.065 96.8584 60.3281 97.5912 59.4208 97.5901L56.6006 97.6341L55.607 98.4529C55.1943 98.7934 55.0195 99.3433 55.1622 99.8579L58.6231 102.137C60.2816 103.229 60.6523 105.537 59.3544 107.038C59.0015 107.447 58.5412 107.818 57.9438 108.102C57.9438 108.102 57.0996 111.054 53.8843 110.35C53.8843 110.35 54.1266 111.533 52.9317 112.254C52.0299 112.798 50.8892 112.762 49.9886 112.216L48.2969 111.19C48.2969 111.19 47.7492 112.327 45.948 113.348C45.948 113.348 43.7916 122.801 46.5908 131.086V131.087Z" fill="#FFC89F"/>
<path d="M171.204 161.963L178.462 157.399C178.462 157.399 187.738 153.725 191.954 150.393C193.03 149.541 193.637 148.222 193.567 146.854C193.563 146.783 193.558 146.711 193.551 146.638C193.358 144.44 191.475 142.77 189.258 142.77H189C189 142.77 185.886 141.595 184.204 144.517C184.204 144.517 179.624 146.655 175.259 147.226L180.447 143.697L185.55 141.229C189.338 139.396 190.29 134.397 187.369 131.375C186.777 130.763 186.075 130.179 185.242 129.656L186.41 128.726C188.929 126.719 189.241 123 187.06 120.634C187.028 120.599 186.996 120.565 186.963 120.53C185.263 118.729 181.824 118.056 179.414 118.64C179.414 118.64 178.334 113.325 173.544 112.402L172.995 124.108C172.995 124.108 169.217 132.604 172.382 136.842C172.382 136.842 168.575 142.859 171.919 146.893L171.206 161.964L171.204 161.963Z" fill="#FFC89F"/>
<path d="M118.277 159.287C118.277 159.287 115.777 155.851 115.18 140.298L112.354 134.201C112.354 134.201 110.944 132.928 109.83 130.996C107.671 127.255 109.678 122.438 113.9 121.474C113.97 121.458 114.041 121.443 114.112 121.429C116.204 119.801 119.298 120.675 120.186 123.167C120.789 124.859 120.978 126.916 119.658 130.022L118.277 159.288V159.287Z" fill="#FFC89F"/>
<path d="M51.3213 102.862C51.9331 103.25 52.5372 103.649 53.1402 104.049C53.7443 104.449 54.3418 104.856 54.9426 105.259L56.7306 106.491C57.0271 106.7 57.3236 106.904 57.6201 107.116C57.9144 107.347 58.0472 107.754 57.9432 108.104C57.9808 107.928 57.9664 107.741 57.9034 107.576C57.8403 107.41 57.7286 107.263 57.5869 107.161L56.683 106.562L54.8806 105.351C54.2843 104.94 53.6857 104.533 53.0927 104.119C52.4996 103.705 51.9066 103.289 51.3213 102.863V102.862Z" fill="#FF9A6C"/>
<path d="M53.8844 110.352C53.724 110.181 53.558 110.016 53.3865 109.858C53.2172 109.697 53.0424 109.542 52.8654 109.39C52.5113 109.086 52.1473 108.792 51.7722 108.514C51.3994 108.232 51.0166 107.964 50.6271 107.705C50.2399 107.443 49.8415 107.198 49.4443 106.948C49.6534 107.054 49.8603 107.164 50.0672 107.276C50.2686 107.395 50.4755 107.509 50.6736 107.634C50.8738 107.757 51.0708 107.886 51.2633 108.019C51.4591 108.149 51.6472 108.289 51.8386 108.425C52.2104 108.713 52.5766 109.007 52.9218 109.327C53.2648 109.646 53.5978 109.98 53.8844 110.352Z" fill="#FF9A6C"/>
<path d="M48.2976 111.191C48.0984 111.087 47.8971 110.993 47.6968 110.897C47.4954 110.803 47.293 110.712 47.0872 110.628C46.6778 110.455 46.2607 110.307 45.8369 110.158C46.0582 110.193 46.2795 110.237 46.4952 110.302C46.7121 110.362 46.9234 110.441 47.1303 110.526C47.3372 110.614 47.5408 110.712 47.7366 110.821C47.9325 110.93 48.1228 111.051 48.2987 111.191H48.2976Z" fill="#FF9A6C"/>
<path d="M45.3985 113.568C45.2071 113.65 45.0035 113.699 44.7988 113.743C44.593 113.777 44.385 113.802 44.1759 113.809C43.9668 113.82 43.7565 113.804 43.5485 113.783L43.2365 113.739L42.9289 113.671C42.826 113.65 42.7287 113.608 42.6291 113.577L42.4797 113.528C42.4299 113.51 42.3835 113.487 42.3348 113.467L42.0471 113.341C41.9553 113.292 41.8635 113.24 41.7727 113.188L41.6366 113.111C41.5924 113.084 41.5503 113.052 41.5072 113.023L41.2516 112.843C41.1653 112.784 41.0923 112.709 41.0126 112.643C40.9341 112.575 40.8566 112.506 40.7803 112.437C40.9518 112.556 41.11 112.688 41.2837 112.8L41.5459 112.966C41.5902 112.992 41.6322 113.022 41.6776 113.046L41.8148 113.116C41.9066 113.162 41.9984 113.209 42.0892 113.257L42.3735 113.375C42.4211 113.393 42.4676 113.416 42.5162 113.432L42.6634 113.478C42.7619 113.507 42.857 113.545 42.9588 113.565C43.3538 113.678 43.7654 113.719 44.1759 113.725C44.5864 113.728 45.0001 113.682 45.4007 113.57L45.3985 113.568Z" fill="#FF9A6C"/>
<path d="M55.1616 99.8591C54.8385 99.6983 54.5254 99.5186 54.2167 99.3335C53.9069 99.1495 53.6048 98.9522 53.3061 98.7506C53.0085 98.5467 52.7142 98.3384 52.4298 98.1169C52.1432 97.8977 51.8655 97.6684 51.5967 97.4282L52.4796 98.0486C52.775 98.2536 53.0693 98.4585 53.3681 98.6591L54.262 99.2619L55.1616 99.8591Z" fill="#FF9A6C"/>
<path d="M56.8569 93.9238L55.8168 93.9061C55.4705 93.9028 55.1242 93.8973 54.7779 93.8973C54.4316 93.8962 54.0864 93.9017 53.7401 93.9072C53.5675 93.9127 53.3938 93.916 53.2212 93.9271C53.0475 93.9304 52.876 93.9469 52.7012 93.9546C53.0419 93.8885 53.3883 93.8499 53.7357 93.8224C54.0831 93.797 54.4305 93.7882 54.7779 93.7871C55.1253 93.7893 55.4727 93.7981 55.8191 93.8224C56.1654 93.8444 56.5117 93.8742 56.8558 93.9238H56.8569Z" fill="#FF9A6C"/>
<path d="M185.242 129.653C184.15 130.273 183.052 130.883 181.955 131.491C181.146 131.942 180.334 132.386 179.522 132.83C178.954 133.141 178.475 133.593 178.132 134.14L177.511 135.131L176.928 136.051L176.635 136.511C176.532 136.664 176.421 136.813 176.288 136.942C176.029 137.205 175.718 137.418 175.376 137.557C175.035 137.696 174.667 137.774 174.298 137.763C173.563 137.747 172.839 137.407 172.38 136.839C172.62 137.112 172.918 137.332 173.248 137.481C173.578 137.629 173.939 137.704 174.3 137.706C174.66 137.712 175.019 137.631 175.348 137.489C175.679 137.349 175.978 137.138 176.225 136.88C176.351 136.753 176.457 136.609 176.557 136.46L176.846 135.999L177.425 135.076L178.065 134.058C178.41 133.508 178.892 133.055 179.464 132.745C180.208 132.342 181.259 131.772 181.917 131.422C183.024 130.828 184.131 130.236 185.243 129.653H185.242Z" fill="#FF9A6C"/>
<path d="M179.412 118.638C179.582 119.428 179.505 120.273 179.201 121.03C178.895 121.788 178.334 122.433 177.656 122.889C177.574 122.95 177.482 122.997 177.396 123.051C177.308 123.103 177.221 123.156 177.128 123.199L176.855 123.336L176.573 123.454L176.431 123.512L176.286 123.562L175.997 123.661C175.801 123.717 175.606 123.773 175.407 123.82C174.614 124.002 173.802 124.086 172.992 124.105L173.597 124.049C173.799 124.029 173.999 123.996 174.199 123.971C174.4 123.946 174.598 123.902 174.797 123.869C174.996 123.835 175.191 123.78 175.388 123.737C175.486 123.715 175.581 123.682 175.679 123.654C175.775 123.626 175.872 123.6 175.968 123.57L176.253 123.469L176.396 123.419L176.534 123.359L176.81 123.24L177.078 123.103C177.169 123.06 177.254 123.008 177.339 122.955C177.423 122.902 177.513 122.854 177.593 122.794C178.262 122.355 178.805 121.727 179.122 120.993C179.282 120.627 179.38 120.234 179.429 119.837C179.477 119.439 179.477 119.033 179.411 118.635L179.412 118.638Z" fill="#FF9A6C"/>
<path d="M184.203 144.515C184.085 144.851 184.013 145.2 183.974 145.553C183.933 145.905 183.931 146.261 183.966 146.611C184.032 147.314 184.255 147.998 184.618 148.603C184.799 148.906 185.013 149.188 185.246 149.454C185.37 149.581 185.486 149.714 185.62 149.83C185.685 149.889 185.749 149.951 185.815 150.008L186.02 150.178C186.571 150.625 187.187 150.992 187.826 151.312L187.338 151.089L186.862 150.839C186.709 150.745 186.555 150.656 186.405 150.557L186.184 150.404L186.073 150.327L185.967 150.244L185.755 150.078C185.686 150.02 185.621 149.958 185.553 149.898C185.416 149.781 185.297 149.647 185.169 149.519C184.929 149.251 184.708 148.966 184.521 148.657C184.159 148.035 183.928 147.334 183.879 146.615C183.831 145.9 183.928 145.172 184.202 144.512L184.203 144.515Z" fill="#FF9A6C"/>
<path d="M171.916 146.892C172.139 147.095 172.395 147.252 172.667 147.366C172.941 147.477 173.229 147.549 173.524 147.568C173.671 147.571 173.818 147.582 173.965 147.562C174.038 147.554 174.113 147.553 174.185 147.539C174.258 147.524 174.33 147.51 174.404 147.498C174.479 147.488 174.549 147.465 174.62 147.444L174.835 147.381C174.976 147.333 175.114 147.274 175.258 147.225C175.126 147.296 174.991 147.366 174.855 147.432L174.641 147.511C174.57 147.538 174.5 147.565 174.424 147.581C174.35 147.599 174.276 147.618 174.202 147.635C174.128 147.652 174.05 147.656 173.975 147.667C173.824 147.691 173.669 147.681 173.516 147.68C173.21 147.657 172.908 147.578 172.632 147.444C172.494 147.378 172.365 147.296 172.241 147.208C172.123 147.112 172.008 147.013 171.915 146.894L171.916 146.892Z" fill="#FF9A6C"/>
<path d="M114.153 134.072C114.44 133.995 114.722 133.905 115 133.804C115.279 133.706 115.554 133.597 115.824 133.479C116.365 133.242 116.889 132.969 117.38 132.643C117.625 132.481 117.862 132.306 118.089 132.119C118.315 131.93 118.523 131.722 118.723 131.508C118.92 131.289 119.096 131.054 119.255 130.807C119.414 130.559 119.543 130.293 119.659 130.021C119.567 130.302 119.448 130.574 119.303 130.834C119.151 131.09 118.981 131.336 118.788 131.563C118.596 131.79 118.381 131.999 118.156 132.194C117.93 132.387 117.691 132.567 117.443 132.733C116.941 133.056 116.412 133.333 115.859 133.555C115.307 133.775 114.739 133.958 114.156 134.071L114.153 134.072Z" fill="#FF9A6C"/>
</g>
<path d="M17 203C17 197.477 21.4772 193 27 193H180C185.523 193 190 197.477 190 203V238H27C21.4771 238 17 233.523 17 228V203Z" fill="#A9E4FF"/>
<path d="M33.518 206.614C33.518 205.662 33.7373 204.808 34.176 204.052C34.624 203.296 35.226 202.708 35.982 202.288C36.7473 201.859 37.5827 201.644 38.488 201.644C39.524 201.644 40.4433 201.901 41.246 202.414C42.058 202.918 42.646 203.637 43.01 204.57H41.092C40.84 204.057 40.49 203.674 40.042 203.422C39.594 203.17 39.076 203.044 38.488 203.044C37.844 203.044 37.27 203.189 36.766 203.478C36.262 203.767 35.8653 204.183 35.576 204.724C35.296 205.265 35.156 205.895 35.156 206.614C35.156 207.333 35.296 207.963 35.576 208.504C35.8653 209.045 36.262 209.465 36.766 209.764C37.27 210.053 37.844 210.198 38.488 210.198C39.076 210.198 39.594 210.072 40.042 209.82C40.49 209.568 40.84 209.185 41.092 208.672H43.01C42.646 209.605 42.058 210.324 41.246 210.828C40.4433 211.332 39.524 211.584 38.488 211.584C37.5733 211.584 36.738 211.374 35.982 210.954C35.226 210.525 34.624 209.932 34.176 209.176C33.7373 208.42 33.518 207.566 33.518 206.614ZM48.8681 203.66C49.4561 203.66 49.9788 203.786 50.4361 204.038C50.9028 204.29 51.2668 204.663 51.5281 205.158C51.7988 205.653 51.9341 206.25 51.9341 206.95V211.5H50.3521V207.188C50.3521 206.497 50.1795 205.97 49.8341 205.606C49.4888 205.233 49.0175 205.046 48.4201 205.046C47.8228 205.046 47.3468 205.233 46.9921 205.606C46.6468 205.97 46.4741 206.497 46.4741 207.188V211.5H44.8781V201.14H46.4741V204.682C46.7448 204.355 47.0855 204.103 47.4961 203.926C47.9161 203.749 48.3735 203.66 48.8681 203.66ZM61.0399 207.454C61.0399 207.743 61.0213 208.005 60.9839 208.238H55.0899C55.1366 208.854 55.3653 209.349 55.7759 209.722C56.1866 210.095 56.6906 210.282 57.2879 210.282C58.1466 210.282 58.7533 209.923 59.1079 209.204H60.8299C60.5966 209.913 60.1719 210.497 59.5559 210.954C58.9493 211.402 58.1933 211.626 57.2879 211.626C56.5506 211.626 55.8879 211.463 55.2999 211.136C54.7213 210.8 54.2639 210.333 53.9279 209.736C53.6013 209.129 53.4379 208.429 53.4379 207.636C53.4379 206.843 53.5966 206.147 53.9139 205.55C54.2406 204.943 54.6933 204.477 55.2719 204.15C55.8599 203.823 56.5319 203.66 57.2879 203.66C58.0159 203.66 58.6646 203.819 59.2339 204.136C59.8033 204.453 60.2466 204.901 60.5639 205.48C60.8813 206.049 61.0399 206.707 61.0399 207.454ZM59.3739 206.95C59.3646 206.362 59.1546 205.891 58.7439 205.536C58.3333 205.181 57.8246 205.004 57.2179 205.004C56.6673 205.004 56.1959 205.181 55.8039 205.536C55.4119 205.881 55.1786 206.353 55.1039 206.95H59.3739ZM62.0785 207.636C62.0785 206.843 62.2372 206.147 62.5545 205.55C62.8812 204.943 63.3292 204.477 63.8985 204.15C64.4679 203.823 65.1212 203.66 65.8585 203.66C66.7919 203.66 67.5619 203.884 68.1685 204.332C68.7845 204.771 69.1999 205.401 69.4145 206.222H67.6925C67.5525 205.839 67.3285 205.541 67.0205 205.326C66.7125 205.111 66.3252 205.004 65.8585 205.004C65.2052 205.004 64.6825 205.237 64.2905 205.704C63.9079 206.161 63.7165 206.805 63.7165 207.636C63.7165 208.467 63.9079 209.115 64.2905 209.582C64.6825 210.049 65.2052 210.282 65.8585 210.282C66.7825 210.282 67.3939 209.876 67.6925 209.064H69.4145C69.1905 209.848 68.7705 210.473 68.1545 210.94C67.5385 211.397 66.7732 211.626 65.8585 211.626C65.1212 211.626 64.4679 211.463 63.8985 211.136C63.3292 210.8 62.8812 210.333 62.5545 209.736C62.2372 209.129 62.0785 208.429 62.0785 207.636ZM74.0571 207.65L77.6131 211.5H75.4571L72.6011 208.182V211.5H71.0051V201.14H72.6011V207.16L75.4011 203.786H77.6131L74.0571 207.65ZM33.518 222.614C33.518 221.662 33.7373 220.808 34.176 220.052C34.624 219.296 35.226 218.708 35.982 218.288C36.7473 217.859 37.5827 217.644 38.488 217.644C39.524 217.644 40.4433 217.901 41.246 218.414C42.058 218.918 42.646 219.637 43.01 220.57H41.092C40.84 220.057 40.49 219.674 40.042 219.422C39.594 219.17 39.076 219.044 38.488 219.044C37.844 219.044 37.27 219.189 36.766 219.478C36.262 219.767 35.8653 220.183 35.576 220.724C35.296 221.265 35.156 221.895 35.156 222.614C35.156 223.333 35.296 223.963 35.576 224.504C35.8653 225.045 36.262 225.465 36.766 225.764C37.27 226.053 37.844 226.198 38.488 226.198C39.076 226.198 39.594 226.072 40.042 225.82C40.49 225.568 40.84 225.185 41.092 224.672H43.01C42.646 225.605 42.058 226.324 41.246 226.828C40.4433 227.332 39.524 227.584 38.488 227.584C37.5733 227.584 36.738 227.374 35.982 226.954C35.226 226.525 34.624 225.932 34.176 225.176C33.7373 224.42 33.518 223.566 33.518 222.614ZM46.4741 220.906C46.7075 220.514 47.0155 220.211 47.3981 219.996C47.7901 219.772 48.2521 219.66 48.7841 219.66V221.312H48.3781C47.7528 221.312 47.2768 221.471 46.9501 221.788C46.6328 222.105 46.4741 222.656 46.4741 223.44V227.5H44.8781V219.786H46.4741V220.906ZM57.3212 223.454C57.3212 223.743 57.3025 224.005 57.2652 224.238H51.3712C51.4178 224.854 51.6465 225.349 52.0572 225.722C52.4678 226.095 52.9718 226.282 53.5692 226.282C54.4278 226.282 55.0345 225.923 55.3892 225.204H57.1112C56.8778 225.913 56.4532 226.497 55.8372 226.954C55.2305 227.402 54.4745 227.626 53.5692 227.626C52.8318 227.626 52.1692 227.463 51.5812 227.136C51.0025 226.8 50.5452 226.333 50.2092 225.736C49.8825 225.129 49.7192 224.429 49.7192 223.636C49.7192 222.843 49.8778 222.147 50.1952 221.55C50.5218 220.943 50.9745 220.477 51.5532 220.15C52.1412 219.823 52.8132 219.66 53.5692 219.66C54.2972 219.66 54.9458 219.819 55.5152 220.136C56.0845 220.453 56.5278 220.901 56.8452 221.48C57.1625 222.049 57.3212 222.707 57.3212 223.454ZM55.6552 222.95C55.6458 222.362 55.4358 221.891 55.0252 221.536C54.6145 221.181 54.1058 221.004 53.4992 221.004C52.9485 221.004 52.4772 221.181 52.0852 221.536C51.6932 221.881 51.4598 222.353 51.3852 222.95H55.6552ZM58.3598 223.608C58.3598 222.833 58.5185 222.147 58.8358 221.55C59.1625 220.953 59.6011 220.491 60.1518 220.164C60.7118 219.828 61.3325 219.66 62.0138 219.66C62.5178 219.66 63.0125 219.772 63.4978 219.996C63.9925 220.211 64.3845 220.5 64.6738 220.864V217.14H66.2838V227.5H64.6738V226.338C64.4125 226.711 64.0485 227.019 63.5818 227.262C63.1245 227.505 62.5971 227.626 61.9998 227.626C61.3278 227.626 60.7118 227.458 60.1518 227.122C59.6011 226.777 59.1625 226.301 58.8358 225.694C58.5185 225.078 58.3598 224.383 58.3598 223.608ZM64.6738 223.636C64.6738 223.104 64.5618 222.642 64.3378 222.25C64.1231 221.858 63.8385 221.559 63.4838 221.354C63.1291 221.149 62.7465 221.046 62.3358 221.046C61.9251 221.046 61.5425 221.149 61.1878 221.354C60.8331 221.55 60.5438 221.844 60.3198 222.236C60.1051 222.619 59.9978 223.076 59.9978 223.608C59.9978 224.14 60.1051 224.607 60.3198 225.008C60.5438 225.409 60.8331 225.717 61.1878 225.932C61.5518 226.137 61.9345 226.24 62.3358 226.24C62.7465 226.24 63.1291 226.137 63.4838 225.932C63.8385 225.727 64.1231 225.428 64.3378 225.036C64.5618 224.635 64.6738 224.168 64.6738 223.636ZM69.1921 218.764C68.9027 218.764 68.6601 218.666 68.4641 218.47C68.2681 218.274 68.1701 218.031 68.1701 217.742C68.1701 217.453 68.2681 217.21 68.4641 217.014C68.6601 216.818 68.9027 216.72 69.1921 216.72C69.4721 216.72 69.7101 216.818 69.9061 217.014C70.1021 217.21 70.2001 217.453 70.2001 217.742C70.2001 218.031 70.1021 218.274 69.9061 218.47C69.7101 218.666 69.4721 218.764 69.1921 218.764ZM69.9761 219.786V227.5H68.3801V219.786H69.9761ZM73.9335 221.088V225.358C73.9335 225.647 73.9988 225.857 74.1295 225.988C74.2695 226.109 74.5028 226.17 74.8295 226.17H75.8095V227.5H74.5495C73.8308 227.5 73.2802 227.332 72.8975 226.996C72.5148 226.66 72.3235 226.114 72.3235 225.358V221.088H71.4135V219.786H72.3235V217.868H73.9335V219.786H75.8095V221.088H73.9335ZM84.1232 227.598C83.4699 227.598 82.8819 227.486 82.3592 227.262C81.8365 227.029 81.4259 226.702 81.1272 226.282C80.8285 225.862 80.6792 225.372 80.6792 224.812H82.3872C82.4245 225.232 82.5879 225.577 82.8772 225.848C83.1759 226.119 83.5912 226.254 84.1232 226.254C84.6739 226.254 85.1032 226.123 85.4112 225.862C85.7192 225.591 85.8732 225.246 85.8732 224.826C85.8732 224.499 85.7752 224.233 85.5792 224.028C85.3925 223.823 85.1545 223.664 84.8652 223.552C84.5852 223.44 84.1932 223.319 83.6892 223.188C83.0545 223.02 82.5365 222.852 82.1352 222.684C81.7432 222.507 81.4072 222.236 81.1272 221.872C80.8472 221.508 80.7072 221.023 80.7072 220.416C80.7072 219.856 80.8472 219.366 81.1272 218.946C81.4072 218.526 81.7992 218.204 82.3032 217.98C82.8072 217.756 83.3905 217.644 84.0532 217.644C84.9959 217.644 85.7659 217.882 86.3632 218.358C86.9699 218.825 87.3059 219.469 87.3712 220.29H85.6072C85.5792 219.935 85.4112 219.632 85.1032 219.38C84.7952 219.128 84.3892 219.002 83.8852 219.002C83.4279 219.002 83.0545 219.119 82.7652 219.352C82.4759 219.585 82.3312 219.921 82.3312 220.36C82.3312 220.659 82.4199 220.906 82.5972 221.102C82.7839 221.289 83.0172 221.438 83.2972 221.55C83.5772 221.662 83.9599 221.783 84.4452 221.914C85.0892 222.091 85.6119 222.269 86.0132 222.446C86.4239 222.623 86.7692 222.899 87.0492 223.272C87.3385 223.636 87.4832 224.126 87.4832 224.742C87.4832 225.237 87.3479 225.703 87.0772 226.142C86.8159 226.581 86.4285 226.935 85.9152 227.206C85.4112 227.467 84.8139 227.598 84.1232 227.598ZM88.8344 223.636C88.8344 222.843 88.9931 222.147 89.3104 221.55C89.6371 220.943 90.0851 220.477 90.6544 220.15C91.2237 219.823 91.8771 219.66 92.6144 219.66C93.5477 219.66 94.3177 219.884 94.9244 220.332C95.5404 220.771 95.9557 221.401 96.1704 222.222H94.4484C94.3084 221.839 94.0844 221.541 93.7764 221.326C93.4684 221.111 93.0811 221.004 92.6144 221.004C91.9611 221.004 91.4384 221.237 91.0464 221.704C90.6637 222.161 90.4724 222.805 90.4724 223.636C90.4724 224.467 90.6637 225.115 91.0464 225.582C91.4384 226.049 91.9611 226.282 92.6144 226.282C93.5384 226.282 94.1497 225.876 94.4484 225.064H96.1704C95.9464 225.848 95.5264 226.473 94.9104 226.94C94.2944 227.397 93.5291 227.626 92.6144 227.626C91.8771 227.626 91.2237 227.463 90.6544 227.136C90.0851 226.8 89.6371 226.333 89.3104 225.736C88.9931 225.129 88.8344 224.429 88.8344 223.636ZM101.107 227.626C100.379 227.626 99.7209 227.463 99.1329 227.136C98.5449 226.8 98.0829 226.333 97.7469 225.736C97.4109 225.129 97.2429 224.429 97.2429 223.636C97.2429 222.852 97.4156 222.157 97.7609 221.55C98.1063 220.943 98.5776 220.477 99.1749 220.15C99.7723 219.823 100.44 219.66 101.177 219.66C101.914 219.66 102.582 219.823 103.179 220.15C103.776 220.477 104.248 220.943 104.593 221.55C104.938 222.157 105.111 222.852 105.111 223.636C105.111 224.42 104.934 225.115 104.579 225.722C104.224 226.329 103.739 226.8 103.123 227.136C102.516 227.463 101.844 227.626 101.107 227.626ZM101.107 226.24C101.518 226.24 101.9 226.142 102.255 225.946C102.619 225.75 102.913 225.456 103.137 225.064C103.361 224.672 103.473 224.196 103.473 223.636C103.473 223.076 103.366 222.605 103.151 222.222C102.936 221.83 102.652 221.536 102.297 221.34C101.942 221.144 101.56 221.046 101.149 221.046C100.738 221.046 100.356 221.144 100.001 221.34C99.6556 221.536 99.3803 221.83 99.1749 222.222C98.9696 222.605 98.8669 223.076 98.8669 223.636C98.8669 224.467 99.0769 225.111 99.4969 225.568C99.9263 226.016 100.463 226.24 101.107 226.24ZM108.285 220.906C108.518 220.514 108.826 220.211 109.209 219.996C109.601 219.772 110.063 219.66 110.595 219.66V221.312H110.189C109.563 221.312 109.087 221.471 108.761 221.788C108.443 222.105 108.285 222.656 108.285 223.44V227.5H106.689V219.786H108.285V220.906ZM119.132 223.454C119.132 223.743 119.113 224.005 119.076 224.238H113.182C113.228 224.854 113.457 225.349 113.868 225.722C114.278 226.095 114.782 226.282 115.38 226.282C116.238 226.282 116.845 225.923 117.2 225.204H118.922C118.688 225.913 118.264 226.497 117.648 226.954C117.041 227.402 116.285 227.626 115.38 227.626C114.642 227.626 113.98 227.463 113.392 227.136C112.813 226.8 112.356 226.333 112.02 225.736C111.693 225.129 111.53 224.429 111.53 223.636C111.53 222.843 111.688 222.147 112.006 221.55C112.332 220.943 112.785 220.477 113.364 220.15C113.952 219.823 114.624 219.66 115.38 219.66C116.108 219.66 116.756 219.819 117.326 220.136C117.895 220.453 118.338 220.901 118.656 221.48C118.973 222.049 119.132 222.707 119.132 223.454ZM117.466 222.95C117.456 222.362 117.246 221.891 116.836 221.536C116.425 221.181 115.916 221.004 115.31 221.004C114.759 221.004 114.288 221.181 113.896 221.536C113.504 221.881 113.27 222.353 113.196 222.95H117.466Z" fill="#252525"/>
<g clip-path="url(#clip1_37_5327)">
<mask id="mask0_37_5327" style="mask-type:luminance" maskUnits="userSpaceOnUse" x="158" y="204" width="23" height="23">
<path d="M158 204H181V227H158V204Z" fill="white"/>
</mask>
<g mask="url(#mask0_37_5327)">
<path d="M161.594 215.5C161.594 210.101 165.629 205.645 170.848 204.983C170.406 204.927 169.957 204.898 169.5 204.898C163.645 204.898 158.898 209.645 158.898 215.5C158.898 221.355 163.645 226.102 169.5 226.102C169.957 226.102 170.406 226.073 170.848 226.017C165.629 225.355 161.594 220.899 161.594 215.5Z" fill="#C6E1F2"/>
<path d="M158.898 215.5C158.898 221.355 163.645 226.102 169.5 226.102C175.355 226.102 180.102 221.355 180.102 215.5C180.102 209.645 175.355 204.898 169.5 204.898C163.645 204.898 158.898 209.645 158.898 215.5Z" stroke="#00499B" stroke-width="1.5" stroke-miterlimit="10" stroke-linecap="round" stroke-linejoin="round"/>
<path d="M164.379 215.5H170.848M170.848 211.367L173.87 214.308C174.572 215.007 174.572 216.141 173.87 216.84L170.848 219.812" stroke="#F3C521" stroke-width="1.5" stroke-miterlimit="10" stroke-linecap="round" stroke-linejoin="round"/>
</g>
</g>
</g>
</g>
<defs>
<filter id="filter0_d_37_5327" x="0" y="0" width="207" height="259" filterUnits="userSpaceOnUse" color-interpolation-filters="sRGB">
<feFlood flood-opacity="0" result="BackgroundImageFix"/>
<feColorMatrix in="SourceAlpha" type="matrix" values="0 0 0 0 0 0 0 0 0 0 0 0 0 0 0 0 0 0 127 0" result="hardAlpha"/>
<feMorphology radius="1" operator="dilate" in="SourceAlpha" result="effect1_dropShadow_37_5327"/>
<feOffset dy="4"/>
<feGaussianBlur stdDeviation="8"/>
<feComposite in2="hardAlpha" operator="out"/>
<feColorMatrix type="matrix" values="0 0 0 0 0 0 0 0 0 0 0 0 0 0 0 0 0 0 0.15 0"/>
<feBlend mode="normal" in2="BackgroundImageFix" result="effect1_dropShadow_37_5327"/>
<feBlend mode="normal" in="SourceGraphic" in2="effect1_dropShadow_37_5327" result="shape"/>
</filter>
<filter id="filter1_d_37_5327" x="29.1064" y="42" width="165.466" height="177.885" filterUnits="userSpaceOnUse" color-interpolation-filters="sRGB">
<feFlood flood-opacity="0" result="BackgroundImageFix"/>
<feColorMatrix in="SourceAlpha" type="matrix" values="0 0 0 0 0 0 0 0 0 0 0 0 0 0 0 0 0 0 127 0" result="hardAlpha"/>
<feOffset dy="4"/>
<feGaussianBlur stdDeviation="0.5"/>
<feComposite in2="hardAlpha" operator="out"/>
<feColorMatrix type="matrix" values="0 0 0 0 0 0 0 0 0 0 0 0 0 0 0 0 0 0 0.05 0"/>
<feBlend mode="normal" in2="BackgroundImageFix" result="effect1_dropShadow_37_5327"/>
<feBlend mode="normal" in="SourceGraphic" in2="effect1_dropShadow_37_5327" result="shape"/>
</filter>
<clipPath id="clip0_37_5327">
<path d="M17 28C17 19.7157 23.7157 13 32 13H175C183.284 13 190 19.7157 190 28V238H32C23.7157 238 17 231.284 17 223V28Z" fill="white"/>
</clipPath>
<clipPath id="clip1_37_5327">
<rect width="23" height="23" fill="white" transform="translate(158 204)"/>
</clipPath>
</defs>
</svg>
