<svg width="217" height="228" viewBox="0 0 217 228" fill="none" xmlns="http://www.w3.org/2000/svg">
<path d="M203.158 12.0371C203.158 12.0372 203.158 12.0374 203.158 12.0375L203.158 12.0489V12.0494L201.703 73.6258L201.477 83.1507L201.477 83.1507V83.1625C201.477 84.1273 200.684 84.915 199.711 84.915H77.2531C76.2804 84.915 75.4876 84.1274 75.4876 83.1625L75.4875 83.1553L75.3494 73.6248L74.4688 12.7984C74.4688 12.7973 74.4688 12.7962 74.4688 12.7951C74.4701 12.3291 74.7658 11.5308 75.4006 10.8625C76.0185 10.2119 76.9177 9.72782 78.0882 9.80765L78.1116 9.80925L78.1351 9.80864L197.815 6.7116C197.815 6.7116 197.815 6.71159 197.815 6.71159C199.242 6.676 200.621 7.22399 201.63 8.23173L201.63 8.23213C202.639 9.23781 203.192 10.6138 203.158 12.0371Z" fill="#00499B" stroke="#F3C521"/>
<path opacity="0.2" d="M198.983 81.2478C198.983 82.4088 198.012 83.359 196.826 83.359H80.1711C78.9845 83.359 78.0137 82.4088 78.0137 81.2478L77.043 15.5747C77.043 14.4137 78.4393 12.1467 80.9986 12.317L195.007 9.42719C196.495 9.38964 197.935 9.95087 198.989 10.9802C200.044 12.0096 200.62 13.4169 200.585 14.8738L198.983 81.2478Z" fill="#91B3FA"/>
<path d="M176.286 19.6815C176.256 20.7634 175.681 21.6536 175.001 21.6576L134.538 21.8984C133.772 21.9029 133.153 20.9552 133.158 19.8041C133.163 18.6516 133.791 17.6974 134.559 17.6974H175.105C175.787 17.6974 176.315 18.5986 176.285 19.6815H176.286Z" fill="#F3C521"/>
<path d="M175.85 66.4117C175.821 67.4936 175.255 68.3467 174.583 68.3507L134.686 68.573C133.93 68.5776 133.321 67.6944 133.326 66.5439C133.331 65.3914 133.951 64.5017 134.708 64.5017H174.687C175.359 64.5017 175.879 65.3288 175.85 66.4117Z" fill="#F3C521"/>
<path d="M175.855 58.9287C175.825 60.0106 175.256 60.8562 174.582 60.8602L134.525 61.079C133.767 61.0835 133.155 60.2134 133.16 59.0624C133.165 57.9098 133.787 57.0332 134.547 57.0332H174.687C175.361 57.0332 175.884 57.8453 175.855 58.9287Z" fill="#F3C521"/>
<path d="M176.283 27.9789C176.253 28.8831 175.254 29.6231 174.049 29.6331L135.452 29.955C134.179 29.9655 133.152 29.22 133.16 28.2888L133.161 28.1842C133.17 27.252 134.213 26.4895 135.489 26.4815L174.155 26.2507C175.362 26.2437 176.316 26.9721 176.286 27.8768L176.283 27.9784V27.9789Z" fill="#F3C521"/>
<path d="M176.137 36.1029C176.102 36.999 175.1 37.732 173.898 37.741L135.406 38.0314C134.136 38.0409 133.116 37.3014 133.131 36.3782L133.133 36.2741C133.147 35.3499 134.192 34.5949 135.465 34.5884L174.025 34.3876C175.229 34.3811 176.175 35.1041 176.14 36.0012L176.136 36.1024L176.137 36.1029Z" fill="#F3C521"/>
<path d="M196.755 83.7554H183.633C183.541 83.7554 183.467 83.6813 183.467 83.5892C183.467 83.4971 183.541 83.423 183.633 83.423H196.755C198.369 83.423 199.733 81.9225 199.733 80.1467V39.7713C199.733 39.6797 199.807 39.6051 199.899 39.6051C199.991 39.6051 200.065 39.6792 200.065 39.7713V80.1467C200.065 82.1023 198.549 83.7549 196.755 83.7549V83.7554Z" fill="#BDD0FB"/>
<path d="M77.2443 39.7719C77.1527 39.7719 77.0781 39.6978 77.0781 39.6057V16.2641C77.0781 13.864 78.8705 12.0536 81.2471 12.0536H91.6843C91.7759 12.0536 91.8505 12.1277 91.8505 12.2198C91.8505 12.3119 91.7764 12.386 91.6843 12.386H81.2471C79.0242 12.386 77.4101 14.0172 77.4101 16.2646V39.6062C77.4101 39.6978 77.336 39.7724 77.2438 39.7724L77.2443 39.7719Z" fill="#BDD0FB"/>
<path d="M193.033 37.4972L184.299 37.5753C182.693 37.5898 181.371 36.2666 181.367 34.6354L181.346 25.7378C181.342 24.1066 182.657 22.7854 184.263 22.8014L192.996 22.89C194.56 22.9061 195.837 24.2288 195.841 25.8294L195.862 34.5613C195.866 36.1619 194.595 37.4831 193.032 37.4972H193.033Z" fill="#00499B"/>
<path d="M192.421 36.6587L184.918 36.7173C183.435 36.7288 182.221 35.5117 182.218 34.0037L182.199 26.3692C182.196 24.8612 183.403 23.6457 184.887 23.6587L192.389 23.7268C193.838 23.7398 195.016 24.9569 195.02 26.4398L195.038 33.9482C195.042 35.4311 193.87 36.6467 192.421 36.6582V36.6587ZM184.888 24.0377C183.611 24.0267 182.572 25.0735 182.575 26.3717L182.593 34.0027C182.596 35.3004 183.641 36.3488 184.918 36.3393L192.42 36.2842C193.668 36.2752 194.678 35.2283 194.675 33.9507L194.657 26.4388C194.654 25.1611 193.638 24.1128 192.391 24.1023L184.888 24.0382L184.888 24.0377Z" fill="#F3C521"/>
<path d="M194.84 27.5581L182.39 27.5076L182.389 27.1281L194.839 27.1846L194.84 27.5581Z" fill="#F3C521"/>
<path d="M194.848 30.3824L182.397 30.3779L182.396 29.9984L194.847 30.0089L194.848 30.3824Z" fill="#F3C521"/>
<path d="M194.854 33.2058L182.403 33.2473L182.402 32.8678L194.853 32.8323L194.854 33.2058Z" fill="#F3C521"/>
<path d="M190.421 35.1253L186.943 35.1454C186.055 35.1504 185.325 34.4144 185.323 33.5102L185.307 26.8685C185.305 25.9638 186.031 25.2289 186.919 25.2354L190.398 25.2599C191.276 25.2659 191.994 26.0049 191.996 26.9016L192.012 33.4857C192.014 34.3824 191.299 35.1203 190.421 35.1253Z" fill="#F3C521"/>
<path d="M190.421 35.3123L186.942 35.3333C185.949 35.3393 185.138 34.5212 185.135 33.5099L185.119 26.8667C185.117 25.8554 185.924 25.0383 186.917 25.0458L190.396 25.0709C191.377 25.0779 192.176 25.8989 192.178 26.9013L192.194 33.4839C192.197 34.4862 191.402 35.3063 190.421 35.3123ZM186.918 25.4228C186.13 25.4173 185.49 26.0662 185.492 26.8682L185.508 33.5084C185.51 34.311 186.153 34.9598 186.941 34.9558L190.42 34.9363C191.199 34.9318 191.83 34.2809 191.828 33.4849L191.812 26.8993C191.81 26.1032 191.176 25.4519 190.397 25.4464L186.918 25.4228Z" fill="#F3C521"/>
<path d="M127.76 19.3927H83.0988C82.767 19.3927 82.498 19.6617 82.498 19.9935V68.2918C82.498 68.6236 82.767 68.8925 83.0988 68.8925H127.76C128.092 68.8925 128.361 68.6236 128.361 68.2918V19.9935C128.361 19.6617 128.092 19.3927 127.76 19.3927Z" fill="white"/>
<mask id="mask0_233_7062" style="mask-type:luminance" maskUnits="userSpaceOnUse" x="82" y="19" width="47" height="50">
<path d="M127.743 19.3911H83.0813C82.7495 19.3911 82.4805 19.6601 82.4805 19.9919V68.2902C82.4805 68.622 82.7495 68.8909 83.0813 68.8909H127.743C128.075 68.8909 128.344 68.622 128.344 68.2902V19.9919C128.344 19.6601 128.075 19.3911 127.743 19.3911Z" fill="white"/>
</mask>
<g mask="url(#mask0_233_7062)">
<path d="M132.385 66.9546C131.012 58.9621 127.349 51.6636 127.349 51.6636L122.553 68.2944C122.553 68.2944 122.635 68.4816 122.773 68.8987L130.759 68.8816C131.78 68.8796 132.558 67.9604 132.385 66.9541L132.385 66.9546Z" fill="#00499B"/>
<path d="M90.8677 68.8992C91.3934 67.0217 91.7975 65.8126 91.7975 65.8126L83.9582 51.6636C83.9582 51.6636 82.1773 53.7849 80.2698 65.9903C80.032 67.5123 81.1665 68.8992 82.7065 68.8992H90.8672H90.8677Z" fill="#00499B"/>
<path d="M117.867 68.8987L115.741 46.616C106.246 43.1069 94.2744 47.034 94.2744 47.034L93.2891 68.8987H117.867Z" fill="#F3C521"/>
<path d="M100.495 39.5878L100.317 45.468C100.299 46.0497 100.66 46.5734 101.209 46.7672C102.712 47.2974 105.825 48.1039 108.775 47.0475C109.369 46.8343 109.728 46.2255 109.636 45.6001L108.752 39.5878H100.495Z" fill="#F3C521"/>
<path d="M97.4878 28.8542C97.4878 28.8542 98.5196 39.381 100.791 42.0645C100.791 42.0645 107.602 42.6838 110.079 41.2389C110.079 41.2389 111.833 35.9755 111.627 28.9573C111.627 28.9573 111.965 22.571 104.919 22.0428C96.6622 21.4235 97.4878 28.8542 97.4878 28.8542Z" fill="#EBF4FF"/>
<path d="M110.904 32.1564C110.904 32.1564 111.524 30.2985 112.555 30.2985C113.587 30.2985 112.349 35.2525 110.904 35.2525V32.1564Z" fill="#EBF4FF"/>
<path d="M98.4276 32.6449C98.4276 32.6449 97.5634 30.8876 96.5406 31.0268C95.5178 31.166 97.4132 35.9077 98.8446 35.7129L98.4271 32.6449H98.4276Z" fill="#EBF4FF"/>
<path d="M97.6221 30.1682C97.6221 30.1682 98.4327 40.294 101.198 43.8256C101.452 44.1495 101.819 44.3383 102.206 44.3588C103.618 44.4339 107.227 44.5686 109.261 44.1195C109.768 44.0079 110.185 43.6123 110.351 43.0711C110.648 42.1089 110.912 41.3429 110.927 41.0039C110.996 39.4339 111.355 35.0812 111.816 29.1474C111.675 28.9246 111.535 28.7013 111.394 28.4785C111.266 29.8508 110.425 38.5883 109.094 38.7905C108.808 38.8341 108.496 38.7715 108.496 38.7715C107.689 38.6088 107.441 37.9719 106.88 37.5584C105.899 36.8365 104.215 36.9807 103.274 37.7356C102.884 38.0491 102.637 38.4561 101.954 38.7465C101.518 38.9322 101.109 38.9833 100.977 38.9778C100.005 38.9367 99.0369 35.1087 98.4937 29.8974L97.6211 30.1672L97.6221 30.1682Z" fill="#00499B"/>
<path d="M108.841 26.2249C108.841 26.2249 103.582 30.7879 97.8523 30.7704C97.8523 30.7704 94.5991 23.4388 100.998 22.2197C107.397 21.0006 107.603 22.5682 107.603 22.5682C107.603 22.5682 115.085 21.0176 111.757 29.9774L108.842 26.2249H108.841Z" fill="#00499B"/>
<path d="M90.8475 68.8993H96.4814L99.1854 45.8606C91.7812 46.534 83.959 51.6637 83.959 51.6637L89.7836 65.7957C90.2007 66.8075 90.5556 67.8559 90.848 68.8993H90.8475Z" fill="#00499B"/>
<path d="M122.956 68.8991C123.274 67.5778 123.653 66.3592 124.092 65.1196L127.349 51.6635C120.861 46.5953 110.713 45.4103 110.713 45.4103L114.505 68.8991H122.956Z" fill="#00499B"/>
</g>
<path d="M130.456 128.01C127.956 128.01 125.428 127.909 122.876 127.705C122.747 127.695 122.651 127.582 122.661 127.453C122.671 127.324 122.782 127.227 122.913 127.238C138.721 128.503 153.642 125.808 166.064 119.448C166.179 119.388 166.32 119.434 166.38 119.55C166.439 119.665 166.393 119.806 166.278 119.865C155.786 125.238 143.525 128.011 130.457 128.011L130.456 128.01Z" fill="#F3C521"/>
<path d="M127.658 123.737C127.53 123.737 127.425 123.633 127.424 123.504C127.423 123.375 127.527 123.269 127.656 123.268C144.395 123.1 159.824 118.934 172.273 111.219C172.383 111.15 172.528 111.184 172.596 111.294C172.665 111.405 172.63 111.549 172.52 111.617C159.998 119.378 144.485 123.569 127.662 123.737H127.66H127.658Z" fill="#F3C521"/>
<path d="M82.8771 8.53653C81.5523 8.53653 80.4237 7.5097 80.3168 6.16309C80.2628 5.47784 80.4777 4.81232 80.9221 4.29008C81.3664 3.76784 81.9883 3.45014 82.6715 3.39718C84.0846 3.28298 85.3201 4.34822 85.4322 5.76336C85.4862 6.44861 85.2713 7.11413 84.8269 7.63637C84.3826 8.15861 83.7606 8.47631 83.0775 8.52926C83.01 8.53445 82.9435 8.53653 82.8771 8.53653ZM82.7079 3.8644C82.1503 3.908 81.6426 4.16653 81.2792 4.59429C80.9158 5.02101 80.7404 5.56505 80.784 6.12571C80.8753 7.28232 81.8876 8.15445 83.0401 8.06101C83.5976 8.0174 84.1053 7.75888 84.4687 7.33112C84.8321 6.9044 85.0076 6.36035 84.964 5.7997C84.8726 4.64309 83.8614 3.77303 82.7079 3.8644Z" fill="#00499B"/>
<path d="M92.6116 2.16993C92.5171 2.16993 92.4279 2.11283 92.3926 2.01835L91.7457 0.317693C91.7 0.196218 91.7603 0.061245 91.8817 0.015562C92.0032 -0.0311593 92.1382 0.0300975 92.1839 0.151573L92.8307 1.85223C92.8764 1.9737 92.8162 2.10868 92.6947 2.15436C92.6677 2.16474 92.6386 2.16993 92.6116 2.16993Z" fill="#00499B"/>
<path d="M94.1194 6.13191C94.025 6.13191 93.9357 6.07481 93.9004 5.98033L93.2535 4.27967C93.2079 4.1582 93.2681 4.02322 93.3896 3.97754C93.511 3.93186 93.646 3.99208 93.6917 4.11355L94.3385 5.81421C94.3842 5.93568 94.324 6.07066 94.2025 6.11634C94.1755 6.12672 94.1464 6.13191 94.1194 6.13191Z" fill="#00499B"/>
<path d="M90.2109 4.37728C90.1164 4.37728 90.0271 4.32018 89.9918 4.2257C89.9461 4.10422 90.0064 3.96925 90.1278 3.92357L91.8285 3.27674C91.95 3.23105 92.0849 3.29127 92.1306 3.41275C92.1763 3.53422 92.1161 3.66919 91.9946 3.71488L90.294 4.36171C90.267 4.37209 90.2379 4.37728 90.2109 4.37728Z" fill="#00499B"/>
<path d="M94.1738 2.87075C94.0793 2.87075 93.99 2.81364 93.9547 2.71916C93.909 2.59769 93.9692 2.46271 94.0907 2.41703L95.7914 1.7702C95.9129 1.72348 96.0478 1.78474 96.0935 1.90621C96.1392 2.02769 96.079 2.16266 95.9575 2.20834L94.2568 2.85517C94.2298 2.86556 94.2008 2.87075 94.1738 2.87075Z" fill="#00499B"/>
<path d="M70.8745 67.3464C70.447 66.2198 68.9437 61.7082 68.214 55.4475L68.2139 55.4474C68.0452 53.9973 68.0239 52.362 68.2501 50.3816C68.2501 50.3815 68.2502 50.3815 68.2502 50.3814L68.7469 50.4382L70.8745 67.3464ZM70.8745 67.3464L70.8739 67.3468C71.9912 70.2958 73.1323 76.5489 72.8904 83.5569C72.6486 90.5631 71.0269 98.2394 66.6993 104.089C62.3696 109.942 54.4102 115.129 46.0704 117.349C37.7278 119.569 29.1458 118.79 23.4387 112.929C21.2865 110.718 19.7981 107.412 18.9057 103.438C18.0146 99.471 17.7272 94.8809 17.9439 90.1505C18.3779 80.6804 20.828 70.7331 24.4046 64.2037C25.4302 62.3317 26.4762 61.1108 27.5831 60.1811C28.6974 59.245 29.8871 58.5911 31.2415 57.8575L31.335 57.8069C34.0371 56.3437 37.2425 54.608 41.2359 49.8609C45.2527 45.0861 46.207 40.5964 46.995 36.8886L47.0175 36.7825C47.8132 33.0404 48.4508 30.2584 51.7006 28.4752L51.46 28.0369L51.7006 28.4752C55.7448 26.2559 60.7516 26.0084 65.0318 26.9405C67.168 27.4058 69.1025 28.1607 70.6257 29.0916C72.1568 30.0274 73.2311 31.1149 73.7156 32.2249L70.8745 67.3464Z" fill="#FFF9E4" stroke="#F3C521"/>
<path d="M47.2024 23.5703L47.2321 23.6141C47.8129 24.4713 48.3871 26.4031 48.447 28.3881C48.5076 30.3945 48.038 32.1979 46.8173 33.025L46.8172 33.0251C46.2091 33.4373 45.4243 33.6052 44.5281 33.569C43.6327 33.5329 42.6589 33.2937 41.7146 32.9297C40.7721 32.5664 39.8769 32.0857 39.1421 31.5823C38.3988 31.0731 37.8536 30.5639 37.5777 30.1569C37.0484 29.3757 37.0105 28.2951 37.4907 27.1205C37.9694 25.9499 38.9452 24.7455 40.3224 23.8119C41.6996 22.8783 43.1798 22.418 44.4443 22.4072C45.6898 22.3965 46.6663 22.8161 47.2024 23.5703Z" stroke="#F3C521"/>
<path d="M40.3377 87.755C40.3377 87.755 34.0729 72.0099 37.7639 68.6875C37.957 68.5141 40.4509 68.2587 43.0039 70.5948C45.4147 72.8 47.8982 77.5999 47.8982 77.5999L48.7174 88.4693L40.3377 87.755Z" fill="white"/>
<path d="M48.7167 88.704C48.7104 88.704 48.7032 88.704 48.6969 88.704L40.3172 87.9897C40.229 87.9824 40.1521 87.9253 40.1189 87.8433C39.8604 87.1944 33.8364 71.9072 37.6063 68.5152C37.9521 68.2037 40.5788 68.0615 43.161 70.4245C45.5749 72.6329 48.0034 77.2967 48.1051 77.495C48.1197 77.5231 48.129 77.5542 48.1311 77.5854L48.9503 88.4548C48.9555 88.5233 48.9305 88.5908 48.8817 88.6396C48.8371 88.6832 48.7779 88.7071 48.7167 88.7071V88.704ZM40.5031 87.5339L48.4623 88.2119L47.667 77.6663C47.4157 77.1908 45.0776 72.8115 42.8443 70.7682C40.4449 68.5723 38.1753 68.7633 37.9053 68.8744C34.5829 71.9186 39.9081 85.9993 40.502 87.5339H40.5031Z" fill="#00499B"/>
<path d="M87.9866 59.1751C87.9866 59.1751 90.4275 59.7015 92.3473 62.6646C96.1774 68.5775 102.095 79.3327 111.565 80.9389C125.781 83.3508 134.393 66.0545 133.172 62.1808C133.172 62.1808 131.131 59.4689 127.777 58.6508C127.777 58.6508 127.741 55.9482 130.658 57.2284C133.574 58.5085 134.741 57.7267 136.045 57.4215C138.338 56.8837 143.207 51.3789 145.021 50.6791C146.836 49.9793 146.269 51.492 146.269 51.492C146.269 51.492 148.047 49.4913 149.271 50.4943L146.659 53.9454C146.659 53.9454 148.772 51.1535 149.996 52.5562L144.532 58.9508L148.536 55.806C148.536 55.806 149.093 56.4196 148.046 57.5087C147 58.5968 142.741 64.5345 138.665 64.5345C138.665 64.5345 140.861 97.2883 116.335 98.6183C95.2637 99.7614 86.6836 82.7631 86.6836 82.7631L87.9876 59.1761L87.9866 59.1751Z" fill="#FFFCF1"/>
<path d="M114.348 98.9069C104.462 98.9069 97.5754 94.838 93.4546 91.2965C88.6953 87.2069 86.4952 82.9116 86.4744 82.868C86.4558 82.8317 86.4475 82.7901 86.4495 82.7496L87.7536 59.1626C87.7577 59.0941 87.791 59.0308 87.8449 58.9893C87.8989 58.9477 87.9695 58.9322 88.037 58.9467C88.1408 58.9685 90.5953 59.5281 92.5451 62.538C92.9064 63.0966 93.2875 63.6977 93.6872 64.3311C97.4488 70.2802 103.132 79.2715 111.605 80.7095C119.438 82.0405 125.026 77.1659 127.659 74.1425C131.741 69.4569 133.486 64.1141 132.96 62.2919C132.721 61.9908 130.758 59.6205 127.72 58.8802C127.616 58.8553 127.542 58.7619 127.54 58.6549C127.54 58.6062 127.534 57.4506 128.348 56.9117C128.921 56.5317 129.729 56.567 130.751 57.0145C133.102 58.0465 134.234 57.706 135.328 57.3779C135.544 57.3135 135.766 57.246 135.991 57.1931C137.22 56.9045 139.331 55.0273 141.192 53.3702C142.753 51.9811 144.102 50.7819 144.936 50.46C145.634 50.1911 146.105 50.1922 146.378 50.4621C146.496 50.5773 146.552 50.7227 146.575 50.8691C147.235 50.3022 148.446 49.5142 149.418 50.3116C149.516 50.3915 149.533 50.5337 149.457 50.6345L148.293 52.1721C148.565 52.0309 148.846 51.9375 149.125 51.9281C149.538 51.9125 149.885 52.0735 150.171 52.4016C150.248 52.4888 150.249 52.6196 150.173 52.7078L146.242 57.3073L148.39 55.6212C148.486 55.5454 148.625 55.5568 148.708 55.6482C148.737 55.6793 149.399 56.4383 148.214 57.6707C148.06 57.8306 147.828 58.1067 147.534 58.4556C145.851 60.4573 142.392 64.5719 138.909 64.7609C139.004 66.9122 139.396 82.7185 131.182 91.9942C127.445 96.2137 122.454 98.5207 116.346 98.8519C115.667 98.8893 115 98.9069 114.347 98.9069H114.348ZM86.9209 82.7112C87.1898 83.2179 89.3691 87.1726 93.7754 90.9539C98.1008 94.6667 105.519 98.9692 116.322 98.3836C122.299 98.0597 127.18 95.8057 130.831 91.6848C139.483 81.9159 138.441 64.7225 138.43 64.5491C138.425 64.4847 138.448 64.4204 138.492 64.3736C138.537 64.3259 138.599 64.2989 138.663 64.2989C142.009 64.2989 145.499 60.149 147.176 58.1535C147.475 57.7974 147.712 57.516 147.877 57.3447C148.411 56.7892 148.475 56.3988 148.442 56.1766L144.676 59.1346C144.581 59.2094 144.445 59.199 144.362 59.1128C144.279 59.0256 144.275 58.8896 144.353 58.7982L149.675 52.5708C149.518 52.4472 149.348 52.3891 149.143 52.3964C148.286 52.4265 147.195 53.6267 146.847 54.0856C146.768 54.1884 146.621 54.2092 146.518 54.1313C146.414 54.0534 146.394 53.906 146.472 53.8022L148.933 50.5504C147.902 50.0312 146.459 51.6291 146.444 51.6457C146.369 51.7298 146.243 51.7485 146.148 51.6904C146.051 51.6322 146.01 51.5128 146.049 51.4079C146.101 51.2678 146.174 50.9169 146.049 50.7943C146.005 50.7507 145.803 50.6272 145.107 50.8961C144.351 51.1878 142.969 52.4171 141.506 53.7191C139.509 55.4955 137.445 57.3322 136.1 57.6478C135.89 57.6966 135.683 57.7589 135.465 57.8243C134.345 58.1607 133.074 58.5428 130.565 57.4412C129.7 57.0612 129.043 57.0135 128.611 57.3C128.169 57.5928 128.053 58.1773 128.023 58.4701C131.307 59.3495 133.278 61.9275 133.362 62.0386C133.377 62.0604 133.39 62.0833 133.398 62.1092C134.073 64.248 132.028 69.8421 128.015 74.4478C125.63 77.1846 120.878 81.401 114.245 81.401C113.371 81.401 112.467 81.3283 111.53 81.1694C102.85 79.6961 97.0989 70.599 93.2937 64.5792C92.895 63.948 92.515 63.3478 92.1547 62.7913C90.6814 60.5176 88.879 59.715 88.2083 59.4835L86.924 82.7091L86.9209 82.7112Z" fill="#00499B"/>
<path d="M141.685 56.3968C141.626 56.3968 141.567 56.375 141.521 56.3293C141.429 56.239 141.428 56.0905 141.518 55.9981L146.1 51.3281C146.191 51.2357 146.34 51.2336 146.431 51.3249C146.524 51.4153 146.525 51.5637 146.434 51.6561L141.852 56.3262C141.807 56.3729 141.746 56.3968 141.685 56.3968Z" fill="#00499B"/>
<path d="M143.551 57.3415C143.491 57.3415 143.432 57.3187 143.386 57.274C143.294 57.1837 143.293 57.0352 143.383 56.9428L146.491 53.7803C146.581 53.6879 146.73 53.6869 146.822 53.7772C146.914 53.8675 146.916 54.016 146.825 54.1084L143.718 57.2709C143.672 57.3176 143.611 57.3415 143.551 57.3415Z" fill="#00499B"/>
<path d="M135.375 62.4268C135.343 62.4268 135.31 62.4206 135.279 62.4061C135.16 62.3531 135.108 62.214 135.161 62.0956C135.218 61.97 136.581 59.0131 138.809 59.4678C140.788 59.8727 142.188 59.364 142.203 59.3588C142.324 59.3142 142.459 59.3754 142.505 59.4969C142.55 59.6184 142.488 59.7533 142.367 59.799C142.305 59.8219 140.825 60.3597 138.714 59.9278C136.851 59.5478 135.602 62.2628 135.589 62.2898C135.55 62.376 135.465 62.4279 135.375 62.4279V62.4268Z" fill="#00499B"/>
<path d="M37.7637 68.6876C37.7637 68.6876 80.9176 56.592 89.6389 58.0466L92.6892 78.3797L98.4598 93.9337C100.119 98.4055 99.1804 103.449 95.9618 106.969C92.3653 110.903 86.386 115.06 77.021 115.483C58.8371 116.302 49.9922 120.783 49.0277 112.748C48.0631 104.713 46.9179 85.4377 46.9179 85.4377C44.0108 77.7692 40.4735 68.9098 37.7637 68.6887V68.6876Z" fill="#E6F2FF"/>
<path d="M55.3708 117.698C53.2797 117.698 51.6933 117.386 50.5865 116.519C49.5898 115.738 49.0042 114.513 48.7955 112.775C47.8611 104.988 46.7429 86.4271 46.6868 85.4865C44.5148 79.7564 40.4864 69.1454 37.7454 68.9222C37.6322 68.9129 37.5419 68.8236 37.5305 68.7104C37.5191 68.5972 37.5907 68.4924 37.7008 68.4623C39.4648 67.9681 81.0083 56.3729 89.6777 57.815C89.7784 57.8316 89.8563 57.9105 89.8708 58.0112L92.917 78.3194L98.6793 93.8517C100.387 98.4553 99.4123 103.542 96.1346 107.127C92.7727 110.804 86.7291 115.279 77.0308 115.716C71.6941 115.956 67.0937 116.522 63.3964 116.976C60.1768 117.371 57.5085 117.698 55.3697 117.698H55.3708ZM38.5625 68.7094C41.1997 70.1847 44.2345 77.6944 47.1374 85.3525C47.1457 85.3743 47.1509 85.3982 47.152 85.4221C47.1634 85.6152 48.3086 104.782 49.2607 112.719C49.4558 114.35 49.9687 115.44 50.8751 116.149C52.962 117.784 57.0901 117.278 63.3393 116.509C67.0449 116.055 71.6557 115.488 77.01 115.247C86.5474 114.817 92.4862 110.421 95.7888 106.81C98.9472 103.356 99.8868 98.4532 98.2402 94.0147L92.4696 78.4596C92.4633 78.444 92.4602 78.4284 92.4571 78.4129L89.4327 58.2511C81.1454 57.0934 44.2521 67.1375 38.5625 68.7083V68.7094Z" fill="#F3C521"/>
<path d="M67.0267 54.8435C68.5841 55.0927 70.0937 54.8362 70.86 54.1468C71.8048 53.2965 71.7248 52.0755 71.8318 50.57C71.8764 49.9409 71.8816 49.2172 72.353 48.4748C72.6032 48.0813 72.9199 47.7865 73.2365 47.5633C73.6259 47.2892 73.7432 46.7628 73.52 46.3423L73.3435 46.1024C71.9584 44.2139 71.3095 40.8478 71.5328 37.3469L70.5641 35.559C67.8781 35.1634 65.7393 35.2922 65.4974 35.7604C65.4081 35.9328 65.2482 36.0698 65.4206 36.7613C66.2501 40.0951 63.1634 40.4606 60.5024 40.4388C57.8413 40.417 59.8244 44.8721 59.8244 44.8721C59.8244 44.8721 57.7873 43.2234 56.4646 45.385C55.5167 46.9341 58.4217 48.4177 60.1452 49.1341C60.1452 49.1341 60.167 59.9683 57.9732 61.4146L51.8828 65.2914C51.8828 65.2914 65.2108 68.539 74.3921 60.7522C74.3921 60.7522 70.3107 60.9692 68.5156 59.58C66.7205 58.1908 67.2105 55.1965 67.0278 54.8445L67.0267 54.8435Z" fill="white"/>
<path d="M58.4664 66.177C54.6311 66.177 51.887 65.5323 51.8268 65.5167C51.7355 65.4949 51.6659 65.4201 51.6514 65.3267C51.6368 65.2332 51.6773 65.1408 51.7562 65.091L57.8466 61.2142C59.5275 60.1064 59.9034 52.3786 59.9106 49.2878C58.3574 48.6285 56.4969 47.6172 56.1158 46.443C55.984 46.0349 56.0338 45.6373 56.2643 45.2604C56.6838 44.5752 57.2174 44.1723 57.8497 44.0643C58.4228 43.9647 58.9627 44.1297 59.3541 44.3146C59.0292 43.3926 58.5786 41.7241 59.1683 40.8239C59.4414 40.4066 59.8878 40.2083 60.5024 40.2031C62.1294 40.2176 64.0979 40.0982 64.9212 39.0527C65.3438 38.517 65.4321 37.786 65.1902 36.8173C65.0292 36.1715 65.1299 35.9224 65.2576 35.7043C65.268 35.6867 65.2784 35.669 65.2867 35.6514C65.6522 34.9454 68.2956 34.9869 70.5963 35.3264C70.669 35.3368 70.7334 35.3814 70.7687 35.4468L71.7374 37.2347C71.7581 37.2742 71.7685 37.3178 71.7654 37.3614C71.5411 40.8769 72.217 44.1733 73.5304 45.9643L73.7069 46.2042C73.7132 46.2135 73.7194 46.2229 73.7246 46.2332C74.0049 46.7617 73.8523 47.4158 73.3695 47.7553C73.03 47.9941 72.7538 48.2786 72.5493 48.6015C72.1527 49.2255 72.1132 49.8287 72.0758 50.4122L72.0644 50.5866C72.0499 50.7974 72.0385 51.0019 72.027 51.2013C71.9585 52.4482 71.8993 53.5259 71.0147 54.3212C70.2527 55.0075 68.85 55.3055 67.303 55.1196C67.3082 55.2193 67.3113 55.3397 67.3144 55.4882C67.3362 56.5078 67.3788 58.4057 68.6558 59.3941C70.3627 60.7148 74.3361 60.5196 74.3766 60.5165C74.4742 60.5082 74.5697 60.5705 74.6071 60.6639C74.6445 60.7573 74.6175 60.8643 74.5406 60.9297C69.4947 65.2094 63.1604 66.177 58.4644 66.177H58.4664ZM52.4955 65.1772C55.0496 65.662 65.8287 67.2256 73.7173 60.9982C72.4548 60.9961 69.7782 60.8529 68.3703 59.7637C66.9168 58.6393 66.8711 56.595 66.8472 55.4976C66.842 55.2671 66.8368 55.0075 66.814 54.9442C66.7735 54.8653 66.7818 54.7749 66.8337 54.7023C66.8856 54.6306 66.9749 54.5984 67.0632 54.6119C68.5738 54.8538 70.0025 54.6026 70.7033 53.9724C71.4435 53.3058 71.4955 52.3651 71.5609 51.1743C71.5723 50.9729 71.5837 50.7652 71.5982 50.5524L71.6097 50.3811C71.6491 49.7685 71.6938 49.0739 72.1558 48.3482C72.3935 47.9744 72.7123 47.6453 73.1016 47.3701C73.3871 47.1687 73.4796 46.7825 73.3197 46.4658L73.1535 46.2405C71.7664 44.3478 71.0718 41.0461 71.294 37.3977L70.4136 35.7718C67.5823 35.3679 65.8453 35.615 65.7051 35.8653C65.6927 35.8902 65.6781 35.9141 65.6646 35.9379C65.593 36.0605 65.5193 36.1871 65.648 36.7011C65.9221 37.8037 65.8027 38.6914 65.2919 39.3403C64.3419 40.5457 62.2259 40.6879 60.5004 40.6692C60.0467 40.6641 59.7445 40.8001 59.5618 41.0783C58.9908 41.9494 59.7123 44.0405 60.0384 44.7735C60.083 44.8721 60.0529 44.9884 59.9667 45.0548C59.8805 45.1213 59.7611 45.1192 59.676 45.0517C59.6677 45.0444 58.8174 44.3696 57.9265 44.5253C57.4334 44.6115 57.0087 44.9406 56.664 45.5044C56.5062 45.7629 56.472 46.0225 56.5612 46.2976C56.825 47.1095 58.129 48.0388 60.2335 48.915C60.3208 48.9514 60.3779 49.0365 60.3779 49.131C60.3779 49.5785 60.3737 60.1084 58.0999 61.6077L52.4934 65.1761L52.4955 65.1772Z" fill="#00499B"/>
<path d="M67.0265 55.0781C67.0182 55.0781 67.0109 55.0781 67.0026 55.077C63.9844 54.7697 61.9235 51.1961 61.8373 51.0434C61.7729 50.9313 61.8134 50.788 61.9256 50.7236C62.0387 50.6593 62.182 50.6987 62.2453 50.8119C62.2651 50.8472 64.2751 54.3274 67.0504 54.6098C67.1791 54.6233 67.2726 54.7386 67.2601 54.8673C67.2476 54.9877 67.1459 55.0781 67.0265 55.0781Z" fill="#00499B"/>
<path d="M87.5362 88.5203C85.6092 87.0761 79.3143 82.8743 77.0873 84.1846C75.6057 85.0567 74.1459 86.4043 72.9613 90.2261L47.765 99.1125L47.8356 91.4461C47.8688 87.7831 47.0455 84.1638 45.4289 80.8767L40.7236 71.3051C37.7853 73.2445 35.4877 76.027 34.2096 79.3069C29.0329 92.5913 30.4937 116.507 35.469 117.762C48.8385 121.133 74.6858 94.3148 74.6858 94.3148C74.6858 94.3148 81.7189 94.2816 83.0967 94.1424C88.8071 93.5672 88.8268 89.488 87.5362 88.5213V88.5203Z" fill="#FFFCF1"/>
<path d="M37.9963 118.293C37.0796 118.293 36.2188 118.191 35.4132 117.989C34.6054 117.785 33.8724 117.055 33.2339 115.816C29.8762 109.304 29.6405 90.3891 33.9928 79.2217C35.2813 75.9149 37.5644 73.1095 40.5961 71.1088C40.6522 71.0725 40.7228 71.0611 40.7872 71.0787C40.8526 71.0964 40.9066 71.141 40.9367 71.2012L45.642 80.7729C47.2658 84.0766 48.1068 87.7676 48.0726 91.4482L48.0051 98.7803L72.7746 90.0444C73.9967 86.1707 75.5135 84.8407 76.9713 83.9831C79.6842 82.3873 87.3538 88.0894 87.6787 88.3334C88.363 88.8463 88.6433 89.9946 88.3453 91.064C88.1055 91.9258 87.116 93.9742 83.1219 94.376C81.8209 94.5068 75.6786 94.5442 74.7868 94.5494C74.0662 95.2887 67.8429 101.612 60.2357 107.489C50.9392 114.672 43.4762 118.294 37.9963 118.294V118.293ZM40.6325 71.6487C37.7928 73.5851 35.6509 76.2565 34.4289 79.392C32.4323 84.5158 31.256 91.7991 31.202 99.3721C31.1522 106.357 32.0908 112.577 33.6502 115.601C34.2244 116.714 34.8567 117.365 35.5274 117.534C48.6135 120.834 74.2604 94.4196 74.5179 94.1518C74.5615 94.1061 74.6227 94.0801 74.685 94.0801C74.7556 94.0801 81.7223 94.0448 83.0731 93.9088C86.7796 93.535 87.6777 91.7067 87.8916 90.9373C88.1698 89.9396 87.8428 89.0436 87.3953 88.7082C85.2503 87.101 79.2378 83.1899 77.2059 84.387C75.8157 85.2052 74.3652 86.4864 73.1847 90.2957C73.1629 90.3663 73.109 90.4224 73.0384 90.4473L47.8421 99.3337C47.7704 99.3586 47.6905 99.3472 47.6272 99.3036C47.5638 99.26 47.5285 99.1873 47.5285 99.1105L47.5991 91.444C47.6323 87.8361 46.808 84.2178 45.2163 80.9805L40.6293 71.6498L40.6325 71.6487Z" fill="#00499B"/>
<path d="M88.227 90.4514C88.2021 90.4514 88.1761 90.4473 88.1512 90.439L79.3718 87.4281C79.2493 87.3855 79.1838 87.2526 79.2254 87.1301C79.2679 87.0076 79.4008 86.9421 79.5234 86.9837L88.3028 89.9946C88.4253 90.0372 88.4907 90.1701 88.4492 90.2926C88.416 90.3902 88.3246 90.4514 88.227 90.4514Z" fill="#00499B"/>
<path d="M87.7325 92.0982C87.7107 92.0982 87.6879 92.0951 87.6661 92.0888L79.0995 89.542C78.9749 89.5046 78.9043 89.3748 78.9416 89.2502C78.979 89.1267 79.1078 89.0561 79.2334 89.0924L87.8 91.6393C87.9246 91.6766 87.9952 91.8064 87.9578 91.931C87.9277 92.0328 87.8343 92.0982 87.7325 92.0982Z" fill="#00499B"/>
<path d="M86.0994 93.5517C86.0786 93.5517 86.0568 93.5486 86.036 93.5434C83.2369 92.7637 78.9614 91.5936 78.6562 91.5624C78.5264 91.5624 78.4277 91.4576 78.4277 91.3278C78.4277 91.198 78.5388 91.0931 78.6676 91.0931C78.9614 91.0931 84.4776 92.6225 86.1617 93.0907C86.2863 93.126 86.3589 93.2548 86.3247 93.3794C86.2956 93.4832 86.2011 93.5507 86.0983 93.5507L86.0994 93.5517Z" fill="#00499B"/>
<path d="M40.8361 103.23C40.754 103.23 40.6741 103.188 40.6315 103.111C40.5682 102.998 40.6087 102.854 40.7208 102.791L47.6511 98.9069C47.7653 98.8425 47.9076 98.884 47.9709 98.9962C48.0343 99.1093 47.9938 99.2526 47.8816 99.316L40.9513 103.2C40.915 103.221 40.8755 103.23 40.8371 103.23H40.8361Z" fill="#00499B"/>
<path d="M60.867 112.888L60.8668 112.888C60.0962 113.272 59.4607 113.881 59.0434 114.635C57.197 117.972 52.2875 127.226 49.7801 135.576L49.7801 135.576C48.9161 138.453 43.9172 157.004 42.8523 161.326C43.055 161.389 43.3306 161.47 43.6789 161.565C44.4486 161.775 45.5679 162.054 47.031 162.363C49.9569 162.982 54.2547 163.721 59.8779 164.28C71.0311 165.388 87.398 165.787 108.614 163.124C105.133 145.428 94.8137 112.706 92.3545 106.77C92.0297 105.987 91.2691 105.472 90.4285 105.472L60.867 112.888ZM60.867 112.888C70.8897 107.895 80.7396 105.474 90.4284 105.472L60.867 112.888Z" fill="#FFF9E4" stroke="#F3C521"/>
<path d="M12.528 210.436L7.92 223H4.86L0.252 210.436H2.952L6.408 220.426L9.846 210.436H12.528ZM15.3169 211.84C14.8729 211.84 14.5009 211.702 14.2009 211.426C13.9129 211.138 13.7689 210.784 13.7689 210.364C13.7689 209.944 13.9129 209.596 14.2009 209.32C14.5009 209.032 14.8729 208.888 15.3169 208.888C15.7609 208.888 16.1269 209.032 16.4149 209.32C16.7149 209.596 16.8649 209.944 16.8649 210.364C16.8649 210.784 16.7149 211.138 16.4149 211.426C16.1269 211.702 15.7609 211.84 15.3169 211.84ZM16.5589 213.028V223H14.0389V213.028H16.5589ZM28.3186 217.798C28.3186 218.158 28.2946 218.482 28.2466 218.77H20.9566C21.0166 219.49 21.2686 220.054 21.7126 220.462C22.1566 220.87 22.7026 221.074 23.3506 221.074C24.2866 221.074 24.9526 220.672 25.3486 219.868H28.0666C27.7786 220.828 27.2266 221.62 26.4106 222.244C25.5946 222.856 24.5926 223.162 23.4046 223.162C22.4446 223.162 21.5806 222.952 20.8126 222.532C20.0566 222.1 19.4626 221.494 19.0306 220.714C18.6106 219.934 18.4006 219.034 18.4006 218.014C18.4006 216.982 18.6106 216.076 19.0306 215.296C19.4506 214.516 20.0386 213.916 20.7946 213.496C21.5506 213.076 22.4206 212.866 23.4046 212.866C24.3526 212.866 25.1986 213.07 25.9426 213.478C26.6986 213.886 27.2806 214.468 27.6886 215.224C28.1086 215.968 28.3186 216.826 28.3186 217.798ZM25.7086 217.078C25.6966 216.43 25.4626 215.914 25.0066 215.53C24.5506 215.134 23.9926 214.936 23.3326 214.936C22.7086 214.936 22.1806 215.128 21.7486 215.512C21.3286 215.884 21.0706 216.406 20.9746 217.078H25.7086ZM43.982 213.028L41.066 223H38.348L36.53 216.034L34.712 223H31.976L29.042 213.028H31.598L33.362 220.624L35.27 213.028H37.934L39.806 220.606L41.57 213.028H43.982ZM52.1546 214.468C52.4786 214.012 52.9226 213.634 53.4866 213.334C54.0626 213.022 54.7166 212.866 55.4486 212.866C56.3006 212.866 57.0686 213.076 57.7526 213.496C58.4486 213.916 58.9946 214.516 59.3906 215.296C59.7986 216.064 60.0026 216.958 60.0026 217.978C60.0026 218.998 59.7986 219.904 59.3906 220.696C58.9946 221.476 58.4486 222.082 57.7526 222.514C57.0686 222.946 56.3006 223.162 55.4486 223.162C54.7166 223.162 54.0686 223.012 53.5046 222.712C52.9526 222.412 52.5026 222.034 52.1546 221.578V227.752H49.6346V213.028H52.1546V214.468ZM57.4286 217.978C57.4286 217.378 57.3026 216.862 57.0506 216.43C56.8106 215.986 56.4866 215.65 56.0786 215.422C55.6826 215.194 55.2506 215.08 54.7826 215.08C54.3266 215.08 53.8946 215.2 53.4866 215.44C53.0906 215.668 52.7666 216.004 52.5146 216.448C52.2746 216.892 52.1546 217.414 52.1546 218.014C52.1546 218.614 52.2746 219.136 52.5146 219.58C52.7666 220.024 53.0906 220.366 53.4866 220.606C53.8946 220.834 54.3266 220.948 54.7826 220.948C55.2506 220.948 55.6826 220.828 56.0786 220.588C56.4866 220.348 56.8106 220.006 57.0506 219.562C57.3026 219.118 57.4286 218.59 57.4286 217.978ZM64.3538 214.576C64.6778 214.048 65.0978 213.634 65.6138 213.334C66.1418 213.034 66.7418 212.884 67.4138 212.884V215.53H66.7478C65.9558 215.53 65.3558 215.716 64.9478 216.088C64.5518 216.46 64.3538 217.108 64.3538 218.032V223H61.8338V213.028H64.3538V214.576ZM78.3811 217.798C78.3811 218.158 78.3571 218.482 78.3091 218.77H71.0191C71.0791 219.49 71.3311 220.054 71.7751 220.462C72.2191 220.87 72.7651 221.074 73.4131 221.074C74.3491 221.074 75.0151 220.672 75.4111 219.868H78.1291C77.8411 220.828 77.2891 221.62 76.4731 222.244C75.6571 222.856 74.6551 223.162 73.4671 223.162C72.5071 223.162 71.6431 222.952 70.8751 222.532C70.1191 222.1 69.5251 221.494 69.0931 220.714C68.6731 219.934 68.4631 219.034 68.4631 218.014C68.4631 216.982 68.6731 216.076 69.0931 215.296C69.5131 214.516 70.1011 213.916 70.8571 213.496C71.6131 213.076 72.4831 212.866 73.4671 212.866C74.4151 212.866 75.2611 213.07 76.0051 213.478C76.7611 213.886 77.3431 214.468 77.7511 215.224C78.1711 215.968 78.3811 216.826 78.3811 217.798ZM75.7711 217.078C75.7591 216.43 75.5251 215.914 75.0691 215.53C74.6131 215.134 74.0551 214.936 73.3951 214.936C72.7711 214.936 72.2431 215.128 71.8111 215.512C71.3911 215.884 71.1331 216.406 71.0371 217.078H75.7711ZM84.3785 220.678L86.8985 213.028H89.5805L85.8905 223H82.8305L79.1585 213.028H81.8585L84.3785 220.678ZM92.2739 211.84C91.8299 211.84 91.4579 211.702 91.1579 211.426C90.8699 211.138 90.7259 210.784 90.7259 210.364C90.7259 209.944 90.8699 209.596 91.1579 209.32C91.4579 209.032 91.8299 208.888 92.2739 208.888C92.7179 208.888 93.0839 209.032 93.3719 209.32C93.6719 209.596 93.8219 209.944 93.8219 210.364C93.8219 210.784 93.6719 211.138 93.3719 211.426C93.0839 211.702 92.7179 211.84 92.2739 211.84ZM93.5159 213.028V223H90.9959V213.028H93.5159ZM100.434 223.162C99.4737 223.162 98.6097 222.952 97.8417 222.532C97.0737 222.1 96.4677 221.494 96.0237 220.714C95.5917 219.934 95.3757 219.034 95.3757 218.014C95.3757 216.994 95.5977 216.094 96.0417 215.314C96.4977 214.534 97.1157 213.934 97.8957 213.514C98.6757 213.082 99.5457 212.866 100.506 212.866C101.466 212.866 102.336 213.082 103.116 213.514C103.896 213.934 104.508 214.534 104.952 215.314C105.408 216.094 105.636 216.994 105.636 218.014C105.636 219.034 105.402 219.934 104.934 220.714C104.478 221.494 103.854 222.1 103.062 222.532C102.282 222.952 101.406 223.162 100.434 223.162ZM100.434 220.966C100.89 220.966 101.316 220.858 101.712 220.642C102.12 220.414 102.444 220.078 102.684 219.634C102.924 219.19 103.044 218.65 103.044 218.014C103.044 217.066 102.792 216.34 102.288 215.836C101.796 215.32 101.19 215.062 100.47 215.062C99.7497 215.062 99.1437 215.32 98.6517 215.836C98.1717 216.34 97.9317 217.066 97.9317 218.014C97.9317 218.962 98.1657 219.694 98.6337 220.21C99.1137 220.714 99.7137 220.966 100.434 220.966ZM116.898 213.028V223H114.36V221.74C114.036 222.172 113.61 222.514 113.082 222.766C112.566 223.006 112.002 223.126 111.39 223.126C110.61 223.126 109.92 222.964 109.32 222.64C108.72 222.304 108.246 221.818 107.898 221.182C107.562 220.534 107.394 219.766 107.394 218.878V213.028H109.914V218.518C109.914 219.31 110.112 219.922 110.508 220.354C110.904 220.774 111.444 220.984 112.128 220.984C112.824 220.984 113.37 220.774 113.766 220.354C114.162 219.922 114.36 219.31 114.36 218.518V213.028H116.898ZM123.201 223.162C122.385 223.162 121.653 223.018 121.005 222.73C120.357 222.43 119.841 222.028 119.457 221.524C119.085 221.02 118.881 220.462 118.845 219.85H121.383C121.431 220.234 121.617 220.552 121.941 220.804C122.277 221.056 122.691 221.182 123.183 221.182C123.663 221.182 124.035 221.086 124.299 220.894C124.575 220.702 124.713 220.456 124.713 220.156C124.713 219.832 124.545 219.592 124.209 219.436C123.885 219.268 123.363 219.088 122.643 218.896C121.899 218.716 121.287 218.53 120.807 218.338C120.339 218.146 119.931 217.852 119.583 217.456C119.247 217.06 119.079 216.526 119.079 215.854C119.079 215.302 119.235 214.798 119.547 214.342C119.871 213.886 120.327 213.526 120.915 213.262C121.515 212.998 122.217 212.866 123.021 212.866C124.209 212.866 125.157 213.166 125.865 213.766C126.573 214.354 126.963 215.152 127.035 216.16H124.623C124.587 215.764 124.419 215.452 124.119 215.224C123.831 214.984 123.441 214.864 122.949 214.864C122.493 214.864 122.139 214.948 121.887 215.116C121.647 215.284 121.527 215.518 121.527 215.818C121.527 216.154 121.695 216.412 122.031 216.592C122.367 216.76 122.889 216.934 123.597 217.114C124.317 217.294 124.911 217.48 125.379 217.672C125.847 217.864 126.249 218.164 126.585 218.572C126.933 218.968 127.113 219.496 127.125 220.156C127.125 220.732 126.963 221.248 126.639 221.704C126.327 222.16 125.871 222.52 125.271 222.784C124.683 223.036 123.993 223.162 123.201 223.162ZM137.298 223.162C136.482 223.162 135.75 223.018 135.102 222.73C134.454 222.43 133.938 222.028 133.554 221.524C133.182 221.02 132.978 220.462 132.942 219.85H135.48C135.528 220.234 135.714 220.552 136.038 220.804C136.374 221.056 136.788 221.182 137.28 221.182C137.76 221.182 138.132 221.086 138.396 220.894C138.672 220.702 138.81 220.456 138.81 220.156C138.81 219.832 138.642 219.592 138.306 219.436C137.982 219.268 137.46 219.088 136.74 218.896C135.996 218.716 135.384 218.53 134.904 218.338C134.436 218.146 134.028 217.852 133.68 217.456C133.344 217.06 133.176 216.526 133.176 215.854C133.176 215.302 133.332 214.798 133.644 214.342C133.968 213.886 134.424 213.526 135.012 213.262C135.612 212.998 136.314 212.866 137.118 212.866C138.306 212.866 139.254 213.166 139.962 213.766C140.67 214.354 141.06 215.152 141.132 216.16H138.72C138.684 215.764 138.516 215.452 138.216 215.224C137.928 214.984 137.538 214.864 137.046 214.864C136.59 214.864 136.236 214.948 135.984 215.116C135.744 215.284 135.624 215.518 135.624 215.818C135.624 216.154 135.792 216.412 136.128 216.592C136.464 216.76 136.986 216.934 137.694 217.114C138.414 217.294 139.008 217.48 139.476 217.672C139.944 217.864 140.346 218.164 140.682 218.572C141.03 218.968 141.21 219.496 141.222 220.156C141.222 220.732 141.06 221.248 140.736 221.704C140.424 222.16 139.968 222.52 139.368 222.784C138.78 223.036 138.09 223.162 137.298 223.162ZM152.561 217.798C152.561 218.158 152.537 218.482 152.489 218.77H145.199C145.259 219.49 145.511 220.054 145.955 220.462C146.399 220.87 146.945 221.074 147.593 221.074C148.529 221.074 149.195 220.672 149.591 219.868H152.309C152.021 220.828 151.469 221.62 150.653 222.244C149.837 222.856 148.835 223.162 147.647 223.162C146.687 223.162 145.823 222.952 145.055 222.532C144.299 222.1 143.705 221.494 143.273 220.714C142.853 219.934 142.643 219.034 142.643 218.014C142.643 216.982 142.853 216.076 143.273 215.296C143.693 214.516 144.281 213.916 145.037 213.496C145.793 213.076 146.663 212.866 147.647 212.866C148.595 212.866 149.441 213.07 150.185 213.478C150.941 213.886 151.523 214.468 151.931 215.224C152.351 215.968 152.561 216.826 152.561 217.798ZM149.951 217.078C149.939 216.43 149.705 215.914 149.249 215.53C148.793 215.134 148.235 214.936 147.575 214.936C146.951 214.936 146.423 215.128 145.991 215.512C145.571 215.884 145.313 216.406 145.217 217.078H149.951ZM153.752 217.978C153.752 216.97 153.95 216.076 154.346 215.296C154.754 214.516 155.3 213.916 155.984 213.496C156.68 213.076 157.454 212.866 158.306 212.866C159.05 212.866 159.698 213.016 160.25 213.316C160.814 213.616 161.264 213.994 161.6 214.45V213.028H164.138V223H161.6V221.542C161.276 222.01 160.826 222.4 160.25 222.712C159.686 223.012 159.032 223.162 158.288 223.162C157.448 223.162 156.68 222.946 155.984 222.514C155.3 222.082 154.754 221.476 154.346 220.696C153.95 219.904 153.752 218.998 153.752 217.978ZM161.6 218.014C161.6 217.402 161.48 216.88 161.24 216.448C161 216.004 160.676 215.668 160.268 215.44C159.86 215.2 159.422 215.08 158.954 215.08C158.486 215.08 158.054 215.194 157.658 215.422C157.262 215.65 156.938 215.986 156.686 216.43C156.446 216.862 156.326 217.378 156.326 217.978C156.326 218.578 156.446 219.106 156.686 219.562C156.938 220.006 157.262 220.348 157.658 220.588C158.066 220.828 158.498 220.948 158.954 220.948C159.422 220.948 159.86 220.834 160.268 220.606C160.676 220.366 161 220.03 161.24 219.598C161.48 219.154 161.6 218.626 161.6 218.014ZM169.119 214.576C169.443 214.048 169.863 213.634 170.379 213.334C170.907 213.034 171.507 212.884 172.179 212.884V215.53H171.513C170.721 215.53 170.121 215.716 169.713 216.088C169.317 216.46 169.119 217.108 169.119 218.032V223H166.599V213.028H169.119V214.576ZM173.229 218.014C173.229 216.982 173.439 216.082 173.859 215.314C174.279 214.534 174.861 213.934 175.605 213.514C176.349 213.082 177.201 212.866 178.161 212.866C179.397 212.866 180.417 213.178 181.221 213.802C182.037 214.414 182.583 215.278 182.859 216.394H180.141C179.997 215.962 179.751 215.626 179.403 215.386C179.067 215.134 178.647 215.008 178.143 215.008C177.423 215.008 176.853 215.272 176.433 215.8C176.013 216.316 175.803 217.054 175.803 218.014C175.803 218.962 176.013 219.7 176.433 220.228C176.853 220.744 177.423 221.002 178.143 221.002C179.163 221.002 179.829 220.546 180.141 219.634H182.859C182.583 220.714 182.037 221.572 181.221 222.208C180.405 222.844 179.385 223.162 178.161 223.162C177.201 223.162 176.349 222.952 175.605 222.532C174.861 222.1 174.279 221.5 173.859 220.732C173.439 219.952 173.229 219.046 173.229 218.014ZM190.321 212.884C191.077 212.884 191.749 213.052 192.337 213.388C192.925 213.712 193.381 214.198 193.705 214.846C194.041 215.482 194.209 216.25 194.209 217.15V223H191.689V217.492C191.689 216.7 191.491 216.094 191.095 215.674C190.699 215.242 190.159 215.026 189.475 215.026C188.779 215.026 188.227 215.242 187.819 215.674C187.423 216.094 187.225 216.7 187.225 217.492V223H184.705V209.68H187.225V214.27C187.549 213.838 187.981 213.502 188.521 213.262C189.061 213.01 189.661 212.884 190.321 212.884ZM205.875 217.798C205.875 218.158 205.851 218.482 205.803 218.77H198.513C198.573 219.49 198.825 220.054 199.269 220.462C199.713 220.87 200.259 221.074 200.907 221.074C201.843 221.074 202.509 220.672 202.905 219.868H205.623C205.335 220.828 204.783 221.62 203.967 222.244C203.151 222.856 202.149 223.162 200.961 223.162C200.001 223.162 199.137 222.952 198.369 222.532C197.613 222.1 197.019 221.494 196.587 220.714C196.167 219.934 195.957 219.034 195.957 218.014C195.957 216.982 196.167 216.076 196.587 215.296C197.007 214.516 197.595 213.916 198.351 213.496C199.107 213.076 199.977 212.866 200.961 212.866C201.909 212.866 202.755 213.07 203.499 213.478C204.255 213.886 204.837 214.468 205.245 215.224C205.665 215.968 205.875 216.826 205.875 217.798ZM203.265 217.078C203.253 216.43 203.019 215.914 202.563 215.53C202.107 215.134 201.549 214.936 200.889 214.936C200.265 214.936 199.737 215.128 199.305 215.512C198.885 215.884 198.627 216.406 198.531 217.078H203.265ZM211.531 223.162C210.715 223.162 209.983 223.018 209.335 222.73C208.687 222.43 208.171 222.028 207.787 221.524C207.415 221.02 207.211 220.462 207.175 219.85H209.713C209.761 220.234 209.947 220.552 210.271 220.804C210.607 221.056 211.021 221.182 211.513 221.182C211.993 221.182 212.365 221.086 212.629 220.894C212.905 220.702 213.043 220.456 213.043 220.156C213.043 219.832 212.875 219.592 212.539 219.436C212.215 219.268 211.693 219.088 210.973 218.896C210.229 218.716 209.617 218.53 209.137 218.338C208.669 218.146 208.261 217.852 207.913 217.456C207.577 217.06 207.409 216.526 207.409 215.854C207.409 215.302 207.565 214.798 207.877 214.342C208.201 213.886 208.657 213.526 209.245 213.262C209.845 212.998 210.547 212.866 211.351 212.866C212.539 212.866 213.487 213.166 214.195 213.766C214.903 214.354 215.293 215.152 215.365 216.16H212.953C212.917 215.764 212.749 215.452 212.449 215.224C212.161 214.984 211.771 214.864 211.279 214.864C210.823 214.864 210.469 214.948 210.217 215.116C209.977 215.284 209.857 215.518 209.857 215.818C209.857 216.154 210.025 216.412 210.361 216.592C210.697 216.76 211.219 216.934 211.927 217.114C212.647 217.294 213.241 217.48 213.709 217.672C214.177 217.864 214.579 218.164 214.915 218.572C215.263 218.968 215.443 219.496 215.455 220.156C215.455 220.732 215.293 221.248 214.969 221.704C214.657 222.16 214.201 222.52 213.601 222.784C213.013 223.036 212.323 223.162 211.531 223.162Z" fill="white"/>
</svg>
