<svg width="217" height="244" viewBox="0 0 217 244" fill="none" xmlns="http://www.w3.org/2000/svg">
<path d="M203.408 12.043C203.408 12.0431 203.408 12.0433 203.408 12.0435L203.408 12.0489V12.0494L201.953 73.6317L201.727 83.1566H201.727V83.1625C201.727 84.2672 200.82 85.165 199.711 85.165H77.2531C76.1441 85.165 75.2376 84.2673 75.2376 83.1625L75.2376 83.1589L75.0994 73.6284L74.2188 12.7984C74.2188 12.7978 74.2188 12.7972 74.2188 12.7966C74.2195 12.2527 74.5506 11.3944 75.2193 10.6903C75.8795 9.99514 76.8483 9.4725 78.1052 9.55823L78.1169 9.55903L78.1287 9.55873L197.809 6.46168C199.303 6.42433 200.748 6.99846 201.806 8.05483L201.806 8.05503C202.864 9.10904 203.443 10.5512 203.408 12.043Z" fill="#00499B" stroke="#F3C521" stroke-width="0.5"/>
<path opacity="0.2" d="M198.983 81.2476C198.983 82.4087 198.012 83.3589 196.826 83.3589H80.1711C78.9845 83.3589 78.0137 82.4087 78.0137 81.2476L77.043 15.5746C77.043 14.4136 78.4393 12.1466 80.9986 12.3168L195.007 9.42706C196.495 9.38951 197.935 9.95075 198.989 10.9801C200.044 12.0094 200.62 13.4168 200.585 14.8737L198.983 81.2476Z" fill="#91B3FA"/>
<path d="M176.286 19.6814C176.256 20.7633 175.681 21.6534 175.001 21.6575L134.538 21.8983C133.772 21.9028 133.153 20.955 133.158 19.804C133.163 18.6515 133.791 17.6973 134.559 17.6973H175.105C175.787 17.6973 176.315 18.5984 176.285 19.6814H176.286Z" fill="#F3C521"/>
<path d="M175.85 66.4115C175.821 67.4934 175.255 68.3465 174.583 68.3505L134.686 68.5728C133.93 68.5773 133.321 67.6941 133.326 66.5436C133.331 65.3911 133.951 64.5015 134.708 64.5015H174.687C175.359 64.5015 175.879 65.3285 175.85 66.4115Z" fill="#F3C521"/>
<path d="M175.855 58.9287C175.825 60.0106 175.256 60.8562 174.582 60.8602L134.525 61.079C133.767 61.0835 133.155 60.2134 133.16 59.0624C133.165 57.9098 133.787 57.0332 134.547 57.0332H174.687C175.361 57.0332 175.884 57.8453 175.855 58.9287Z" fill="#F3C521"/>
<path d="M176.283 27.9788C176.253 28.883 175.254 29.623 174.049 29.633L135.452 29.9549C134.179 29.9654 133.152 29.2199 133.16 28.2887L133.161 28.1841C133.17 27.2518 134.213 26.4894 135.489 26.4813L174.155 26.2505C175.362 26.2435 176.316 26.972 176.286 27.8767L176.283 27.9783V27.9788Z" fill="#F3C521"/>
<path d="M176.137 36.1027C176.102 36.9989 175.1 37.7319 173.898 37.7409L135.406 38.0313C134.136 38.0408 133.116 37.3013 133.131 36.3781L133.133 36.274C133.147 35.3498 134.192 34.5948 135.465 34.5883L174.025 34.3875C175.229 34.381 176.175 35.1039 176.14 36.0011L176.136 36.1022L176.137 36.1027Z" fill="#F3C521"/>
<path d="M196.755 83.7556H183.633C183.541 83.7556 183.467 83.6815 183.467 83.5893C183.467 83.4972 183.541 83.4231 183.633 83.4231H196.755C198.369 83.4231 199.733 81.9226 199.733 80.1468V39.7714C199.733 39.6798 199.807 39.6052 199.899 39.6052C199.991 39.6052 200.065 39.6793 200.065 39.7714V80.1468C200.065 82.1024 198.549 83.7551 196.755 83.7551V83.7556Z" fill="#BDD0FB"/>
<path d="M77.2443 39.7718C77.1527 39.7718 77.0781 39.6977 77.0781 39.6056V16.264C77.0781 13.8638 78.8705 12.0535 81.2471 12.0535H91.6843C91.7759 12.0535 91.8505 12.1276 91.8505 12.2197C91.8505 12.3118 91.7764 12.3859 91.6843 12.3859H81.2471C79.0242 12.3859 77.4101 14.017 77.4101 16.2645V39.6061C77.4101 39.6977 77.336 39.7723 77.2438 39.7723L77.2443 39.7718Z" fill="#BDD0FB"/>
<path d="M193.033 37.4972L184.299 37.5753C182.693 37.5898 181.371 36.2666 181.367 34.6354L181.346 25.7378C181.342 24.1066 182.657 22.7854 184.263 22.8014L192.996 22.89C194.56 22.9061 195.837 24.2288 195.841 25.8294L195.862 34.5613C195.866 36.1619 194.595 37.4831 193.032 37.4972H193.033Z" fill="#00499B"/>
<path d="M192.421 36.6586L184.918 36.7172C183.435 36.7287 182.221 35.5116 182.218 34.0036L182.199 26.3691C182.196 24.8611 183.403 23.6455 184.887 23.6586L192.389 23.7266C193.838 23.7397 195.016 24.9568 195.02 26.4397L195.038 33.948C195.042 35.431 193.87 36.6466 192.421 36.6581V36.6586ZM184.888 24.0376C183.611 24.0265 182.572 25.0734 182.575 26.3716L182.593 34.0026C182.596 35.3003 183.641 36.3487 184.918 36.3392L192.42 36.2841C193.668 36.2751 194.678 35.2282 194.675 33.9505L194.657 26.4387C194.654 25.161 193.638 24.1127 192.391 24.1021L184.888 24.0381L184.888 24.0376Z" fill="#F3C521"/>
<path d="M194.84 27.558L182.39 27.5074L182.389 27.1279L194.839 27.1845L194.84 27.558Z" fill="#F3C521"/>
<path d="M194.848 30.3823L182.397 30.3778L182.396 29.9983L194.847 30.0088L194.848 30.3823Z" fill="#F3C521"/>
<path d="M194.854 33.2058L182.403 33.2473L182.402 32.8678L194.853 32.8323L194.854 33.2058Z" fill="#F3C521"/>
<path d="M190.421 35.1253L186.943 35.1454C186.055 35.1504 185.325 34.4144 185.323 33.5102L185.307 26.8685C185.305 25.9638 186.031 25.2289 186.919 25.2354L190.398 25.2599C191.276 25.2659 191.994 26.0049 191.996 26.9016L192.012 33.4857C192.014 34.3824 191.299 35.1203 190.421 35.1253Z" fill="#F3C521"/>
<path d="M190.421 35.3122L186.942 35.3332C185.949 35.3392 185.138 34.5211 185.135 33.5098L185.119 26.8666C185.117 25.8553 185.924 25.0382 186.917 25.0457L190.396 25.0707C191.377 25.0777 192.176 25.8988 192.178 26.9011L192.194 33.4838C192.197 34.4861 191.402 35.3061 190.421 35.3122ZM186.918 25.4227C186.13 25.4172 185.49 26.066 185.492 26.8681L185.508 33.5083C185.51 34.3108 186.153 34.9597 186.941 34.9557L190.42 34.9362C191.199 34.9317 191.83 34.2808 191.828 33.4848L191.812 26.8991C191.81 26.1031 191.176 25.4517 190.397 25.4462L186.918 25.4227Z" fill="#F3C521"/>
<path d="M127.76 19.3928H83.0988C82.767 19.3928 82.498 19.6618 82.498 19.9936V68.2919C82.498 68.6237 82.767 68.8927 83.0988 68.8927H127.76C128.092 68.8927 128.361 68.6237 128.361 68.2919V19.9936C128.361 19.6618 128.092 19.3928 127.76 19.3928Z" fill="white"/>
<mask id="mask0_83_29831" style="mask-type:luminance" maskUnits="userSpaceOnUse" x="82" y="19" width="47" height="50">
<path d="M127.743 19.3911H83.0813C82.7495 19.3911 82.4805 19.6601 82.4805 19.9919V68.2902C82.4805 68.622 82.7495 68.8909 83.0813 68.8909H127.743C128.075 68.8909 128.344 68.622 128.344 68.2902V19.9919C128.344 19.6601 128.075 19.3911 127.743 19.3911Z" fill="white"/>
</mask>
<g mask="url(#mask0_83_29831)">
<path d="M132.385 66.9546C131.012 58.9621 127.349 51.6636 127.349 51.6636L122.553 68.2944C122.553 68.2944 122.635 68.4816 122.773 68.8987L130.759 68.8816C131.78 68.8796 132.558 67.9604 132.385 66.9541L132.385 66.9546Z" fill="#00499B"/>
<path d="M90.8677 68.8992C91.3934 67.0217 91.7975 65.8126 91.7975 65.8126L83.9582 51.6636C83.9582 51.6636 82.1773 53.7849 80.2698 65.9903C80.032 67.5123 81.1665 68.8992 82.7065 68.8992H90.8672H90.8677Z" fill="#00499B"/>
<path d="M117.867 68.8988L115.741 46.6161C106.246 43.107 94.2744 47.0341 94.2744 47.0341L93.2891 68.8988H117.867Z" fill="#F3C521"/>
<path d="M100.495 39.5879L100.317 45.4681C100.299 46.0499 100.66 46.5735 101.209 46.7673C102.712 47.2975 105.825 48.104 108.775 47.0477C109.369 46.8344 109.728 46.2256 109.636 45.6003L108.752 39.5879H100.495Z" fill="#F3C521"/>
<path d="M97.4878 28.8544C97.4878 28.8544 98.5196 39.3812 100.791 42.0647C100.791 42.0647 107.602 42.6841 110.079 41.2392C110.079 41.2392 111.833 35.9758 111.627 28.9576C111.627 28.9576 111.965 22.5712 104.919 22.043C96.6622 21.4237 97.4878 28.8544 97.4878 28.8544Z" fill="#EBF4FF"/>
<path d="M110.904 32.1565C110.904 32.1565 111.524 30.2986 112.555 30.2986C113.587 30.2986 112.349 35.2526 110.904 35.2526V32.1565Z" fill="#EBF4FF"/>
<path d="M98.4276 32.645C98.4276 32.645 97.5634 30.8877 96.5406 31.0269C95.5178 31.1661 97.4132 35.9078 98.8446 35.713L98.4271 32.645H98.4276Z" fill="#EBF4FF"/>
<path d="M97.6221 30.1685C97.6221 30.1685 98.4327 40.2942 101.198 43.8259C101.452 44.1498 101.819 44.3385 102.206 44.3591C103.618 44.4342 107.227 44.5688 109.261 44.1197C109.768 44.0081 110.185 43.6126 110.351 43.0714C110.648 42.1091 110.912 41.3431 110.927 41.0042C110.996 39.4341 111.355 35.0814 111.816 29.1476C111.675 28.9248 111.535 28.7016 111.394 28.4788C111.266 29.8511 110.425 38.5885 109.094 38.7908C108.808 38.8343 108.496 38.7717 108.496 38.7717C107.689 38.609 107.441 37.9722 106.88 37.5587C105.899 36.8367 104.215 36.9809 103.274 37.7359C102.884 38.0493 102.637 38.4563 101.954 38.7467C101.518 38.9324 101.109 38.9835 100.977 38.978C100.005 38.937 99.0369 35.1089 98.4937 29.8976L97.6211 30.1675L97.6221 30.1685Z" fill="#00499B"/>
<path d="M108.841 26.2251C108.841 26.2251 103.582 30.788 97.8523 30.7705C97.8523 30.7705 94.5991 23.4389 100.998 22.2198C107.397 21.0007 107.603 22.5683 107.603 22.5683C107.603 22.5683 115.085 21.0177 111.757 29.9775L108.842 26.2251H108.841Z" fill="#00499B"/>
<path d="M90.8475 68.8995H96.4814L99.1854 45.8608C91.7812 46.5342 83.959 51.6639 83.959 51.6639L89.7836 65.796C90.2007 66.8078 90.5556 67.8562 90.848 68.8995H90.8475Z" fill="#00499B"/>
<path d="M122.956 68.8992C123.274 67.5779 123.653 66.3593 124.092 65.1197L127.349 51.6636C120.861 46.5955 110.713 45.4104 110.713 45.4104L114.505 68.8992H122.956Z" fill="#00499B"/>
</g>
<path d="M130.456 128.01C127.956 128.01 125.428 127.909 122.876 127.705C122.747 127.695 122.651 127.582 122.661 127.453C122.671 127.324 122.782 127.227 122.913 127.238C138.721 128.503 153.642 125.808 166.064 119.448C166.179 119.388 166.32 119.434 166.38 119.55C166.439 119.665 166.393 119.806 166.278 119.865C155.786 125.238 143.525 128.011 130.457 128.011L130.456 128.01Z" fill="#F3C521"/>
<path d="M127.658 123.737C127.53 123.737 127.425 123.633 127.424 123.504C127.423 123.375 127.527 123.269 127.656 123.268C144.395 123.1 159.824 118.934 172.273 111.219C172.383 111.15 172.528 111.184 172.596 111.294C172.665 111.405 172.63 111.549 172.52 111.617C159.998 119.378 144.485 123.569 127.662 123.737H127.66H127.658Z" fill="#F3C521"/>
<path d="M82.8771 8.53665C81.5523 8.53665 80.4237 7.50982 80.3168 6.16321C80.2628 5.47796 80.4777 4.81244 80.9221 4.2902C81.3664 3.76796 81.9883 3.45026 82.6715 3.39731C84.0846 3.2831 85.3201 4.34834 85.4322 5.76348C85.4862 6.44873 85.2713 7.11425 84.8269 7.63649C84.3826 8.15873 83.7606 8.47643 83.0775 8.52938C83.01 8.53457 82.9435 8.53665 82.8771 8.53665ZM82.7079 3.86452C82.1503 3.90813 81.6426 4.16665 81.2792 4.59441C80.9158 5.02113 80.7404 5.56518 80.784 6.12583C80.8753 7.28244 81.8876 8.15457 83.0401 8.06113C83.5976 8.01753 84.1053 7.759 84.4687 7.33124C84.8321 6.90452 85.0076 6.36048 84.964 5.79982C84.8726 4.64321 83.8614 3.77315 82.7079 3.86452Z" fill="#00499B"/>
<path d="M92.6116 2.17006C92.5171 2.17006 92.4279 2.11295 92.3926 2.01847L91.7457 0.317815C91.7 0.19634 91.7603 0.0613671 91.8817 0.015684C92.0032 -0.0310373 92.1382 0.0302196 92.1839 0.151695L92.8307 1.85235C92.8764 1.97383 92.8162 2.1088 92.6947 2.15448C92.6677 2.16486 92.6386 2.17006 92.6116 2.17006Z" fill="#00499B"/>
<path d="M94.1194 6.13204C94.025 6.13204 93.9357 6.07493 93.9004 5.98045L93.2535 4.27979C93.2079 4.15832 93.2681 4.02335 93.3896 3.97766C93.511 3.93198 93.646 3.9922 93.6917 4.11367L94.3385 5.81433C94.3842 5.93581 94.324 6.07078 94.2025 6.11646C94.1755 6.12684 94.1464 6.13204 94.1194 6.13204Z" fill="#00499B"/>
<path d="M90.2109 4.37728C90.1164 4.37728 90.0271 4.32018 89.9918 4.2257C89.9461 4.10422 90.0064 3.96925 90.1278 3.92357L91.8285 3.27674C91.95 3.23105 92.0849 3.29127 92.1306 3.41275C92.1763 3.53422 92.1161 3.66919 91.9946 3.71488L90.294 4.36171C90.267 4.37209 90.2379 4.37728 90.2109 4.37728Z" fill="#00499B"/>
<path d="M94.1738 2.87087C94.0793 2.87087 93.99 2.81377 93.9547 2.71928C93.909 2.59781 93.9692 2.46284 94.0907 2.41715L95.7914 1.77032C95.9129 1.7236 96.0478 1.78486 96.0935 1.90633C96.1392 2.02781 96.079 2.16278 95.9575 2.20846L94.2568 2.8553C94.2298 2.86568 94.2008 2.87087 94.1738 2.87087Z" fill="#00499B"/>
<path d="M70.8745 67.3468C70.447 66.2202 68.9437 61.7086 68.214 55.4479L68.2139 55.4478C68.0452 53.9977 68.0239 52.3624 68.2501 50.3819C68.2501 50.3819 68.2502 50.3819 68.2502 50.3818L68.7469 50.4386L70.8745 67.3468ZM70.8745 67.3468L70.8739 67.3471C71.9912 70.2961 73.1323 76.5492 72.8904 83.5572C72.6486 90.5635 71.0269 98.2398 66.6993 104.09C62.3696 109.942 54.4102 115.13 46.0704 117.349C37.7278 119.57 29.1458 118.79 23.4387 112.929C21.2865 110.719 19.7981 107.412 18.9057 103.438C18.0146 99.4714 17.7272 94.8812 17.9439 90.1508C18.3779 80.6808 20.828 70.7335 24.4046 64.2041C25.4302 62.332 26.4762 61.1112 27.5831 60.1814C28.6974 59.2453 29.8871 58.5914 31.2415 57.8579L31.335 57.8072C34.0371 56.3441 37.2425 54.6084 41.2359 49.8613C45.2527 45.0865 46.207 40.5968 46.995 36.889L47.0175 36.7829C47.8132 33.0407 48.4508 30.2588 51.7006 28.4756L51.46 28.0373L51.7006 28.4756C55.7448 26.2562 60.7516 26.0088 65.0318 26.9409C67.168 27.4061 69.1025 28.1611 70.6257 29.092C72.1568 30.0277 73.2311 31.1152 73.7156 32.2252L70.8745 67.3468Z" fill="#FFF9E4" stroke="#F3C521"/>
<path d="M47.2024 23.5706L47.2321 23.6144C47.8129 24.4715 48.3871 26.4033 48.447 28.3884C48.5076 30.3947 48.038 32.1982 46.8173 33.0252L46.8172 33.0253C46.2091 33.4376 45.4243 33.6054 44.5281 33.5693C43.6327 33.5331 42.6589 33.2939 41.7146 32.9299C40.7721 32.5666 39.8769 32.0859 39.1421 31.5826C38.3988 31.0733 37.8536 30.5642 37.5777 30.1571C37.0484 29.376 37.0105 28.2953 37.4907 27.1208C37.9694 25.9502 38.9452 24.7457 40.3224 23.8121C41.6996 22.8785 43.1798 22.4183 44.4443 22.4074C45.6898 22.3967 46.6663 22.8163 47.2024 23.5706Z" stroke="#F3C521"/>
<path d="M40.3377 87.7554C40.3377 87.7554 34.0729 72.0103 37.7639 68.6879C37.957 68.5145 40.4509 68.2591 43.0039 70.5952C45.4147 72.8004 47.8982 77.6002 47.8982 77.6002L48.7174 88.4697L40.3377 87.7554Z" fill="white"/>
<path d="M48.7167 88.7043C48.7104 88.7043 48.7032 88.7043 48.6969 88.7043L40.3172 87.99C40.229 87.9828 40.1521 87.9257 40.1189 87.8436C39.8604 87.1947 33.8364 71.9075 37.6063 68.5156C37.9521 68.2041 40.5788 68.0618 43.161 70.4249C45.5749 72.6333 48.0034 77.2971 48.1051 77.4954C48.1197 77.5234 48.129 77.5546 48.1311 77.5857L48.9503 88.4552C48.9555 88.5237 48.9305 88.5912 48.8817 88.64C48.8371 88.6836 48.7779 88.7075 48.7167 88.7075V88.7043ZM40.5031 87.5343L48.4623 88.2122L47.667 77.6667C47.4157 77.1912 45.0776 72.8118 42.8443 70.7686C40.4449 68.5727 38.1753 68.7637 37.9053 68.8748C34.5829 71.9189 39.9081 85.9997 40.502 87.5343H40.5031Z" fill="#00499B"/>
<path d="M87.9866 59.1753C87.9866 59.1753 90.4275 59.7017 92.3473 62.6649C96.1774 68.5777 102.095 79.333 111.565 80.9392C125.781 83.351 134.393 66.0548 133.172 62.1811C133.172 62.1811 131.131 59.4691 127.777 58.651C127.777 58.651 127.741 55.9484 130.658 57.2286C133.574 58.5088 134.741 57.727 136.045 57.4217C138.338 56.8839 143.207 51.3791 145.021 50.6793C146.836 49.9795 146.269 51.4923 146.269 51.4923C146.269 51.4923 148.047 49.4916 149.271 50.4945L146.659 53.9456C146.659 53.9456 148.772 51.1538 149.996 52.5565L144.532 58.9511L148.536 55.8062C148.536 55.8062 149.093 56.4198 148.046 57.5089C147 58.597 142.741 64.5348 138.665 64.5348C138.665 64.5348 140.861 97.2885 116.335 98.6185C95.2637 99.7616 86.6836 82.7634 86.6836 82.7634L87.9876 59.1764L87.9866 59.1753Z" fill="#FFFCF1"/>
<path d="M114.348 98.9072C104.462 98.9072 97.5754 94.8383 93.4546 91.2968C88.6953 87.2071 86.4952 82.9119 86.4744 82.8682C86.4558 82.8319 86.4475 82.7904 86.4495 82.7499L87.7536 59.1629C87.7577 59.0944 87.791 59.031 87.8449 58.9895C87.8989 58.948 87.9695 58.9324 88.037 58.9469C88.1408 58.9687 90.5953 59.5284 92.5451 62.5382C92.9064 63.0968 93.2875 63.698 93.6872 64.3313C97.4488 70.2805 103.132 79.2717 111.605 80.7097C119.438 82.0408 125.026 77.1662 127.659 74.1428C131.741 69.4572 133.486 64.1143 132.96 62.2922C132.721 61.9911 130.758 59.6208 127.72 58.8805C127.616 58.8556 127.542 58.7621 127.54 58.6552C127.54 58.6064 127.534 57.4508 128.348 56.912C128.921 56.532 129.729 56.5673 130.751 57.0148C133.102 58.0468 134.234 57.7062 135.328 57.3781C135.544 57.3138 135.766 57.2463 135.991 57.1933C137.22 56.9047 139.331 55.0275 141.192 53.3705C142.753 51.9813 144.102 50.7821 144.936 50.4603C145.634 50.1914 146.105 50.1924 146.378 50.4623C146.496 50.5776 146.552 50.7229 146.575 50.8693C147.235 50.3025 148.446 49.5144 149.418 50.3118C149.516 50.3917 149.533 50.534 149.457 50.6347L148.293 52.1724C148.565 52.0311 148.846 51.9377 149.125 51.9284C149.538 51.9128 149.885 52.0737 150.171 52.4018C150.248 52.489 150.249 52.6198 150.173 52.7081L146.242 57.3075L148.39 55.6214C148.486 55.5456 148.625 55.557 148.708 55.6484C148.737 55.6796 149.399 56.4385 148.214 57.6709C148.06 57.8308 147.828 58.107 147.534 58.4558C145.851 60.4576 142.392 64.5722 138.909 64.7611C139.004 66.9124 139.396 82.7187 131.182 91.9945C127.445 96.2139 122.454 98.5209 116.346 98.8521C115.667 98.8895 115 98.9072 114.347 98.9072H114.348ZM86.9209 82.7115C87.1898 83.2181 89.3691 87.1728 93.7754 90.9542C98.1008 94.6669 105.519 98.9695 116.322 98.3839C122.299 98.0599 127.18 95.8059 130.831 91.6851C139.483 81.9162 138.441 64.7227 138.43 64.5493C138.425 64.485 138.448 64.4206 138.492 64.3739C138.537 64.3261 138.599 64.2991 138.663 64.2991C142.009 64.2991 145.499 60.1492 147.176 58.1537C147.475 57.7976 147.712 57.5162 147.877 57.3449C148.411 56.7895 148.475 56.3991 148.442 56.1769L144.676 59.1349C144.581 59.2096 144.445 59.1992 144.362 59.1131C144.279 59.0258 144.275 58.8898 144.353 58.7985L149.675 52.571C149.518 52.4475 149.348 52.3893 149.143 52.3966C148.286 52.4267 147.195 53.6269 146.847 54.0858C146.768 54.1886 146.621 54.2094 146.518 54.1315C146.414 54.0537 146.394 53.9062 146.472 53.8024L148.933 50.5506C147.902 50.0315 146.459 51.6293 146.444 51.646C146.369 51.7301 146.243 51.7487 146.148 51.6906C146.051 51.6325 146.01 51.5131 146.049 51.4082C146.101 51.268 146.174 50.9171 146.049 50.7946C146.005 50.751 145.803 50.6274 145.107 50.8963C144.351 51.1881 142.969 52.4174 141.506 53.7193C139.509 55.4958 137.445 57.3325 136.1 57.6481C135.89 57.6969 135.683 57.7592 135.465 57.8246C134.345 58.161 133.074 58.5431 130.565 57.4415C129.7 57.0615 129.043 57.0137 128.611 57.3003C128.169 57.5931 128.053 58.1776 128.023 58.4704C131.307 59.3498 133.278 61.9278 133.362 62.0388C133.377 62.0607 133.39 62.0835 133.398 62.1095C134.073 64.2482 132.028 69.8424 128.015 74.448C125.63 77.1849 120.878 81.4012 114.245 81.4012C113.371 81.4012 112.467 81.3285 111.53 81.1697C102.85 79.6964 97.0989 70.5992 93.2937 64.5795C92.895 63.9482 92.515 63.3481 92.1547 62.7916C90.6814 60.5178 88.879 59.7152 88.2083 59.4837L86.924 82.7094L86.9209 82.7115Z" fill="#00499B"/>
<path d="M141.685 56.397C141.626 56.397 141.567 56.3752 141.521 56.3296C141.429 56.2392 141.428 56.0908 141.518 55.9984L146.1 51.3283C146.191 51.2359 146.34 51.2338 146.431 51.3252C146.524 51.4155 146.525 51.564 146.434 51.6564L141.852 56.3264C141.807 56.3732 141.746 56.397 141.685 56.397Z" fill="#00499B"/>
<path d="M143.551 57.3417C143.491 57.3417 143.432 57.3189 143.386 57.2743C143.294 57.1839 143.293 57.0355 143.383 56.9431L146.491 53.7805C146.581 53.6881 146.73 53.6871 146.822 53.7774C146.914 53.8678 146.916 54.0162 146.825 54.1086L143.718 57.2711C143.672 57.3179 143.611 57.3417 143.551 57.3417Z" fill="#00499B"/>
<path d="M135.375 62.4271C135.343 62.4271 135.31 62.4209 135.279 62.4063C135.16 62.3534 135.108 62.2142 135.161 62.0959C135.218 61.9703 136.581 59.0133 138.809 59.4681C140.788 59.873 142.188 59.3642 142.203 59.3591C142.324 59.3144 142.459 59.3757 142.505 59.4971C142.55 59.6186 142.488 59.7536 142.367 59.7993C142.305 59.8221 140.825 60.3599 138.714 59.928C136.851 59.548 135.602 62.263 135.589 62.29C135.55 62.3762 135.465 62.4281 135.375 62.4281V62.4271Z" fill="#00499B"/>
<path d="M37.7637 68.6877C37.7637 68.6877 80.9176 56.5921 89.6389 58.0467L92.6892 78.3798L98.4598 93.9339C100.119 98.4056 99.1804 103.449 95.9618 106.969C92.3653 110.903 86.386 115.06 77.021 115.483C58.8371 116.302 49.9922 120.783 49.0277 112.748C48.0631 104.713 46.9179 85.4379 46.9179 85.4379C44.0108 77.7693 40.4735 68.9099 37.7637 68.6888V68.6877Z" fill="#E6F2FF"/>
<path d="M55.3708 117.698C53.2797 117.698 51.6933 117.386 50.5865 116.519C49.5898 115.738 49.0042 114.513 48.7955 112.775C47.8611 104.988 46.7429 86.4274 46.6868 85.4867C44.5148 79.7566 40.4864 69.1457 37.7454 68.9224C37.6322 68.9131 37.5419 68.8238 37.5305 68.7106C37.5191 68.5975 37.5907 68.4926 37.7008 68.4625C39.4648 67.9683 81.0083 56.3731 89.6777 57.8152C89.7784 57.8318 89.8563 57.9108 89.8708 58.0115L92.917 78.3197L98.6793 93.8519C100.387 98.4555 99.4123 103.542 96.1346 107.127C92.7727 110.804 86.7291 115.279 77.0308 115.716C71.6941 115.956 67.0937 116.522 63.3964 116.976C60.1768 117.371 57.5085 117.698 55.3697 117.698H55.3708ZM38.5625 68.7096C41.1997 70.185 44.2345 77.6946 47.1374 85.3528C47.1457 85.3746 47.1509 85.3985 47.152 85.4223C47.1634 85.6155 48.3086 104.783 49.2607 112.719C49.4558 114.35 49.9687 115.44 50.8751 116.149C52.962 117.785 57.0901 117.278 63.3393 116.51C67.0449 116.055 71.6557 115.488 77.01 115.247C86.5474 114.817 92.4862 110.421 95.7888 106.81C98.9472 103.356 99.8868 98.4534 98.2402 94.0149L92.4696 78.4598C92.4633 78.4443 92.4602 78.4287 92.4571 78.4131L89.4327 58.2513C81.1454 57.0937 44.2521 67.1377 38.5625 68.7086V68.7096Z" fill="#F3C521"/>
<path d="M67.0267 54.8438C68.5841 55.093 70.0937 54.8366 70.86 54.1472C71.8048 53.2968 71.7248 52.0759 71.8318 50.5704C71.8764 49.9412 71.8816 49.2176 72.353 48.4752C72.6032 48.0817 72.9199 47.7868 73.2365 47.5636C73.6259 47.2895 73.7432 46.7631 73.52 46.3426L73.3435 46.1028C71.9584 44.2142 71.3095 40.8482 71.5328 37.3472L70.5641 35.5594C67.8781 35.1638 65.7393 35.2925 65.4974 35.7608C65.4081 35.9331 65.2482 36.0702 65.4206 36.7617C66.2501 40.0955 63.1634 40.4609 60.5024 40.4391C57.8413 40.4173 59.8244 44.8725 59.8244 44.8725C59.8244 44.8725 57.7873 43.2237 56.4646 45.3854C55.5167 46.9344 58.4217 48.4181 60.1452 49.1345C60.1452 49.1345 60.167 59.9686 57.9732 61.4149L51.8828 65.2918C51.8828 65.2918 65.2108 68.5394 74.3921 60.7525C74.3921 60.7525 70.3107 60.9695 68.5156 59.5803C66.7205 58.1912 67.2105 55.1968 67.0278 54.8449L67.0267 54.8438Z" fill="white"/>
<path d="M58.4664 66.1774C54.6311 66.1774 51.887 65.5326 51.8268 65.517C51.7355 65.4952 51.6659 65.4205 51.6514 65.327C51.6368 65.2336 51.6773 65.1412 51.7562 65.0914L57.8466 61.2145C59.5275 60.1067 59.9034 52.379 59.9106 49.2881C58.3574 48.6289 56.4969 47.6176 56.1158 46.4433C55.984 46.0353 56.0338 45.6377 56.2643 45.2608C56.6838 44.5755 57.2174 44.1727 57.8497 44.0647C58.4228 43.965 58.9627 44.1301 59.3541 44.3149C59.0292 43.393 58.5786 41.7245 59.1683 40.8243C59.4414 40.4069 59.8878 40.2086 60.5024 40.2034C62.1294 40.218 64.0979 40.0986 64.9212 39.0531C65.3438 38.5173 65.4321 37.7864 65.1902 36.8177C65.0292 36.1719 65.1299 35.9227 65.2576 35.7047C65.268 35.687 65.2784 35.6694 65.2867 35.6518C65.6522 34.9457 68.2956 34.9873 70.5963 35.3268C70.669 35.3372 70.7334 35.3818 70.7687 35.4472L71.7374 37.2351C71.7581 37.2745 71.7685 37.3181 71.7654 37.3617C71.5411 40.8773 72.217 44.1737 73.5304 45.9647L73.7069 46.2045C73.7132 46.2139 73.7194 46.2232 73.7246 46.2336C74.0049 46.7621 73.8523 47.4162 73.3695 47.7557C73.03 47.9945 72.7538 48.279 72.5493 48.6019C72.1527 49.2258 72.1132 49.8291 72.0758 50.4126L72.0644 50.587C72.0499 50.7978 72.0385 51.0023 72.027 51.2016C71.9585 52.4486 71.8993 53.5263 71.0147 54.3216C70.2527 55.0079 68.85 55.3058 67.303 55.12C67.3082 55.2197 67.3113 55.3401 67.3144 55.4886C67.3362 56.5081 67.3788 58.4061 68.6558 59.3945C70.3627 60.7151 74.3361 60.5199 74.3766 60.5168C74.4742 60.5085 74.5697 60.5708 74.6071 60.6643C74.6445 60.7577 74.6175 60.8646 74.5406 60.9301C69.4947 65.2097 63.1604 66.1774 58.4644 66.1774H58.4664ZM52.4955 65.1775C55.0496 65.6624 65.8287 67.226 73.7173 60.9986C72.4548 60.9965 69.7782 60.8532 68.3703 59.7641C66.9168 58.6397 66.8711 56.5954 66.8472 55.4979C66.842 55.2674 66.8368 55.0079 66.814 54.9445C66.7735 54.8656 66.7818 54.7753 66.8337 54.7026C66.8856 54.631 66.9749 54.5988 67.0632 54.6123C68.5738 54.8542 70.0025 54.6029 70.7033 53.9727C71.4435 53.3062 71.4955 52.3655 71.5609 51.1746C71.5723 50.9732 71.5837 50.7656 71.5982 50.5527L71.6097 50.3814C71.6491 49.7689 71.6938 49.0743 72.1558 48.3485C72.3935 47.9748 72.7123 47.6456 73.1016 47.3705C73.3871 47.1691 73.4796 46.7828 73.3197 46.4662L73.1535 46.2409C71.7664 44.3481 71.0718 41.0465 71.294 37.3981L70.4136 35.7722C67.5823 35.3683 65.8453 35.6154 65.7051 35.8656C65.6927 35.8905 65.6781 35.9144 65.6646 35.9383C65.593 36.0608 65.5193 36.1875 65.648 36.7014C65.9221 37.804 65.8027 38.6917 65.2919 39.3407C64.3419 40.5461 62.2259 40.6883 60.5004 40.6696C60.0467 40.6644 59.7445 40.8004 59.5618 41.0787C58.9908 41.9498 59.7123 44.0408 60.0384 44.7738C60.083 44.8725 60.0529 44.9887 59.9667 45.0552C59.8805 45.1216 59.7611 45.1196 59.676 45.0521C59.6677 45.0448 58.8174 44.3699 57.9265 44.5257C57.4334 44.6119 57.0087 44.941 56.664 45.5048C56.5062 45.7633 56.472 46.0228 56.5612 46.298C56.825 47.1099 58.129 48.0391 60.2335 48.9154C60.3208 48.9518 60.3779 49.0369 60.3779 49.1314C60.3779 49.5788 60.3737 60.1088 58.0999 61.608L52.4934 65.1765L52.4955 65.1775Z" fill="#00499B"/>
<path d="M67.0265 55.0784C67.0182 55.0784 67.0109 55.0784 67.0026 55.0774C63.9844 54.7701 61.9235 51.1964 61.8373 51.0438C61.7729 50.9317 61.8134 50.7884 61.9256 50.724C62.0387 50.6596 62.182 50.6991 62.2453 50.8123C62.2651 50.8476 64.2751 54.3278 67.0504 54.6102C67.1791 54.6237 67.2726 54.7389 67.2601 54.8677C67.2476 54.9881 67.1459 55.0784 67.0265 55.0784Z" fill="#00499B"/>
<path d="M87.5362 88.5204C85.6092 87.0762 79.3143 82.8744 77.0873 84.1847C75.6057 85.0568 74.1459 86.4045 72.9613 90.2263L47.765 99.1127L47.8356 91.4462C47.8688 87.7833 47.0455 84.1639 45.4289 80.8768L40.7236 71.3052C37.7853 73.2446 35.4877 76.0271 34.2096 79.307C29.0329 92.5914 30.4937 116.508 35.469 117.762C48.8385 121.133 74.6858 94.3149 74.6858 94.3149C74.6858 94.3149 81.7189 94.2817 83.0967 94.1425C88.8071 93.5674 88.8268 89.4881 87.5362 88.5215V88.5204Z" fill="#FFFCF1"/>
<path d="M37.9963 118.293C37.0796 118.293 36.2188 118.192 35.4132 117.989C34.6054 117.786 33.8724 117.055 33.2339 115.816C29.8762 109.304 29.6405 90.3894 33.9928 79.222C35.2813 75.9151 37.5644 73.1098 40.5961 71.1091C40.6522 71.0727 40.7228 71.0613 40.7872 71.079C40.8526 71.0966 40.9066 71.1413 40.9367 71.2015L45.642 80.7731C47.2658 84.0768 48.1068 87.7678 48.0726 91.4484L48.0051 98.7805L72.7746 90.0447C73.9967 86.171 75.5135 84.841 76.9713 83.9834C79.6842 82.3876 87.3538 88.0897 87.6787 88.3337C88.363 88.8466 88.6433 89.9949 88.3453 91.0643C88.1055 91.926 87.116 93.9745 83.1219 94.3763C81.8209 94.5071 75.6786 94.5445 74.7868 94.5497C74.0662 95.2889 67.8429 101.612 60.2357 107.489C50.9392 114.672 43.4762 118.294 37.9963 118.294V118.293ZM40.6325 71.649C37.7928 73.5853 35.6509 76.2567 34.4289 79.3922C32.4323 84.516 31.256 91.7993 31.202 99.3723C31.1522 106.358 32.0908 112.577 33.6502 115.601C34.2244 116.714 34.8567 117.365 35.5274 117.534C48.6135 120.834 74.2604 94.4199 74.5179 94.152C74.5615 94.1063 74.6227 94.0804 74.685 94.0804C74.7556 94.0804 81.7223 94.0451 83.0731 93.9091C86.7796 93.5353 87.6777 91.7069 87.8916 90.9376C88.1698 89.9398 87.8428 89.0438 87.3953 88.7085C85.2503 87.1013 79.2378 83.1902 77.2059 84.3873C75.8157 85.2054 74.3652 86.4866 73.1847 90.296C73.1629 90.3666 73.109 90.4226 73.0384 90.4475L47.8421 99.3339C47.7704 99.3588 47.6905 99.3474 47.6272 99.3038C47.5638 99.2602 47.5285 99.1875 47.5285 99.1107L47.5991 91.4443C47.6323 87.8363 46.808 84.218 45.2163 80.9808L40.6293 71.65L40.6325 71.649Z" fill="#00499B"/>
<path d="M88.227 90.4517C88.2021 90.4517 88.1761 90.4475 88.1512 90.4392L79.3718 87.4283C79.2493 87.3857 79.1838 87.2528 79.2254 87.1303C79.2679 87.0078 79.4008 86.9424 79.5234 86.9839L88.3028 89.9949C88.4253 90.0374 88.4907 90.1703 88.4492 90.2928C88.416 90.3904 88.3246 90.4517 88.227 90.4517Z" fill="#00499B"/>
<path d="M87.7325 92.0983C87.7107 92.0983 87.6879 92.0952 87.6661 92.0889L79.0995 89.5421C78.9749 89.5047 78.9043 89.3749 78.9416 89.2504C78.979 89.1268 79.1078 89.0562 79.2334 89.0926L87.8 91.6394C87.9246 91.6768 87.9952 91.8065 87.9578 91.9311C87.9277 92.0329 87.8343 92.0983 87.7325 92.0983Z" fill="#00499B"/>
<path d="M86.0994 93.5518C86.0786 93.5518 86.0568 93.5487 86.036 93.5435C83.2369 92.7638 78.9614 91.5937 78.6562 91.5626C78.5264 91.5626 78.4277 91.4577 78.4277 91.3279C78.4277 91.1981 78.5388 91.0933 78.6676 91.0933C78.9614 91.0933 84.4776 92.6226 86.1617 93.0909C86.2863 93.1262 86.3589 93.2549 86.3247 93.3795C86.2956 93.4833 86.2011 93.5508 86.0983 93.5508L86.0994 93.5518Z" fill="#00499B"/>
<path d="M40.8361 103.23C40.754 103.23 40.6741 103.188 40.6315 103.111C40.5682 102.998 40.6087 102.855 40.7208 102.791L47.6511 98.9071C47.7653 98.8428 47.9076 98.8843 47.9709 98.9964C48.0343 99.1096 47.9938 99.2529 47.8816 99.3162L40.9513 103.2C40.915 103.221 40.8755 103.23 40.8371 103.23H40.8361Z" fill="#00499B"/>
<path d="M60.867 112.888L60.8668 112.888C60.0962 113.272 59.4607 113.881 59.0434 114.635C57.197 117.972 52.2875 127.226 49.7801 135.577L49.7801 135.577C48.9161 138.453 43.9172 157.004 42.8523 161.326C43.055 161.389 43.3306 161.47 43.6789 161.565C44.4486 161.776 45.5679 162.054 47.031 162.364C49.9569 162.982 54.2547 163.721 59.8779 164.28C71.0311 165.389 87.398 165.787 108.614 163.124C105.133 145.429 94.8137 112.706 92.3545 106.77C92.0297 105.987 91.2691 105.473 90.4285 105.473L60.867 112.888ZM60.867 112.888C70.8897 107.896 80.7396 105.475 90.4284 105.473L60.867 112.888Z" fill="#FFF9E4" stroke="#F3C521"/>
<path d="M47.08 208.66L44.32 213.976V217H42.952V213.976L40.18 208.66H41.704L43.636 212.752L45.568 208.66H47.08ZM51.0336 217.108C50.4096 217.108 49.8456 216.968 49.3416 216.688C48.8376 216.4 48.4416 216 48.1536 215.488C47.8656 214.968 47.7216 214.368 47.7216 213.688C47.7216 213.016 47.8696 212.42 48.1656 211.9C48.4616 211.38 48.8656 210.98 49.3776 210.7C49.8896 210.42 50.4616 210.28 51.0936 210.28C51.7256 210.28 52.2976 210.42 52.8096 210.7C53.3216 210.98 53.7256 211.38 54.0216 211.9C54.3176 212.42 54.4656 213.016 54.4656 213.688C54.4656 214.36 54.3136 214.956 54.0096 215.476C53.7056 215.996 53.2896 216.4 52.7616 216.688C52.2416 216.968 51.6656 217.108 51.0336 217.108ZM51.0336 215.92C51.3856 215.92 51.7136 215.836 52.0176 215.668C52.3296 215.5 52.5816 215.248 52.7736 214.912C52.9656 214.576 53.0616 214.168 53.0616 213.688C53.0616 213.208 52.9696 212.804 52.7856 212.476C52.6016 212.14 52.3576 211.888 52.0536 211.72C51.7496 211.552 51.4216 211.468 51.0696 211.468C50.7176 211.468 50.3896 211.552 50.0856 211.72C49.7896 211.888 49.5536 212.14 49.3776 212.476C49.2016 212.804 49.1136 213.208 49.1136 213.688C49.1136 214.4 49.2936 214.952 49.6536 215.344C50.0216 215.728 50.4816 215.92 51.0336 215.92ZM61.806 210.388V217H60.438V216.22C60.222 216.492 59.938 216.708 59.586 216.868C59.242 217.02 58.874 217.096 58.482 217.096C57.962 217.096 57.494 216.988 57.078 216.772C56.67 216.556 56.346 216.236 56.106 215.812C55.874 215.388 55.758 214.876 55.758 214.276V210.388H57.114V214.072C57.114 214.664 57.262 215.12 57.558 215.44C57.854 215.752 58.258 215.908 58.77 215.908C59.282 215.908 59.686 215.752 59.982 215.44C60.286 215.12 60.438 214.664 60.438 214.072V210.388H61.806ZM70.0641 210.28C70.5841 210.28 71.0481 210.388 71.4561 210.604C71.8721 210.82 72.1961 211.14 72.4281 211.564C72.6601 211.988 72.7761 212.5 72.7761 213.1V217H71.4201V213.304C71.4201 212.712 71.2721 212.26 70.9761 211.948C70.6801 211.628 70.2761 211.468 69.7641 211.468C69.2521 211.468 68.8441 211.628 68.5401 211.948C68.2441 212.26 68.0961 212.712 68.0961 213.304V217H66.7281V210.388H68.0961V211.144C68.3201 210.872 68.6041 210.66 68.9481 210.508C69.3001 210.356 69.6721 210.28 70.0641 210.28ZM80.5811 213.532C80.5811 213.78 80.5651 214.004 80.5331 214.204H75.4811C75.5211 214.732 75.7171 215.156 76.0691 215.476C76.4211 215.796 76.8531 215.956 77.3651 215.956C78.1011 215.956 78.6211 215.648 78.9251 215.032H80.4011C80.2011 215.64 79.8371 216.14 79.3091 216.532C78.7891 216.916 78.1411 217.108 77.3651 217.108C76.7331 217.108 76.1651 216.968 75.6611 216.688C75.1651 216.4 74.7731 216 74.4851 215.488C74.2051 214.968 74.0651 214.368 74.0651 213.688C74.0651 213.008 74.2011 212.412 74.4731 211.9C74.7531 211.38 75.1411 210.98 75.6371 210.7C76.1411 210.42 76.7171 210.28 77.3651 210.28C77.9891 210.28 78.5451 210.416 79.0331 210.688C79.5211 210.96 79.9011 211.344 80.1731 211.84C80.4451 212.328 80.5811 212.892 80.5811 213.532ZM79.1531 213.1C79.1451 212.596 78.9651 212.192 78.6131 211.888C78.2611 211.584 77.8251 211.432 77.3051 211.432C76.8331 211.432 76.4291 211.584 76.0931 211.888C75.7571 212.184 75.5571 212.588 75.4931 213.1H79.1531ZM87.9873 213.532C87.9873 213.78 87.9713 214.004 87.9393 214.204H82.8873C82.9273 214.732 83.1233 215.156 83.4753 215.476C83.8273 215.796 84.2593 215.956 84.7713 215.956C85.5073 215.956 86.0273 215.648 86.3313 215.032H87.8073C87.6073 215.64 87.2433 216.14 86.7153 216.532C86.1953 216.916 85.5473 217.108 84.7713 217.108C84.1393 217.108 83.5713 216.968 83.0673 216.688C82.5713 216.4 82.1793 216 81.8913 215.488C81.6113 214.968 81.4713 214.368 81.4713 213.688C81.4713 213.008 81.6073 212.412 81.8793 211.9C82.1593 211.38 82.5473 210.98 83.0433 210.7C83.5473 210.42 84.1233 210.28 84.7713 210.28C85.3953 210.28 85.9513 210.416 86.4393 210.688C86.9273 210.96 87.3073 211.344 87.5793 211.84C87.8513 212.328 87.9873 212.892 87.9873 213.532ZM86.5593 213.1C86.5513 212.596 86.3713 212.192 86.0193 211.888C85.6673 211.584 85.2313 211.432 84.7113 211.432C84.2393 211.432 83.8353 211.584 83.4993 211.888C83.1633 212.184 82.9633 212.588 82.8993 213.1H86.5593ZM88.8776 213.664C88.8776 213 89.0136 212.412 89.2856 211.9C89.5656 211.388 89.9416 210.992 90.4136 210.712C90.8936 210.424 91.4256 210.28 92.0096 210.28C92.4416 210.28 92.8656 210.376 93.2816 210.568C93.7056 210.752 94.0416 211 94.2896 211.312V208.12H95.6696V217H94.2896V216.004C94.0656 216.324 93.7536 216.588 93.3536 216.796C92.9616 217.004 92.5096 217.108 91.9976 217.108C91.4216 217.108 90.8936 216.964 90.4136 216.676C89.9416 216.38 89.5656 215.972 89.2856 215.452C89.0136 214.924 88.8776 214.328 88.8776 213.664ZM94.2896 213.688C94.2896 213.232 94.1936 212.836 94.0016 212.5C93.8176 212.164 93.5736 211.908 93.2696 211.732C92.9656 211.556 92.6376 211.468 92.2856 211.468C91.9336 211.468 91.6056 211.556 91.3016 211.732C90.9976 211.9 90.7496 212.152 90.5576 212.488C90.3736 212.816 90.2816 213.208 90.2816 213.664C90.2816 214.12 90.3736 214.52 90.5576 214.864C90.7496 215.208 90.9976 215.472 91.3016 215.656C91.6136 215.832 91.9416 215.92 92.2856 215.92C92.6376 215.92 92.9656 215.832 93.2696 215.656C93.5736 215.48 93.8176 215.224 94.0016 214.888C94.1936 214.544 94.2896 214.144 94.2896 213.688ZM102.18 211.504V215.164C102.18 215.412 102.236 215.592 102.348 215.704C102.468 215.808 102.668 215.86 102.948 215.86H103.788V217H102.708C102.092 217 101.62 216.856 101.292 216.568C100.964 216.28 100.8 215.812 100.8 215.164V211.504H100.02V210.388H100.8V208.744H102.18V210.388H103.788V211.504H102.18ZM107.916 217.108C107.292 217.108 106.728 216.968 106.224 216.688C105.72 216.4 105.324 216 105.036 215.488C104.748 214.968 104.604 214.368 104.604 213.688C104.604 213.016 104.752 212.42 105.048 211.9C105.344 211.38 105.748 210.98 106.26 210.7C106.772 210.42 107.344 210.28 107.976 210.28C108.608 210.28 109.18 210.42 109.692 210.7C110.204 210.98 110.608 211.38 110.904 211.9C111.2 212.42 111.348 213.016 111.348 213.688C111.348 214.36 111.196 214.956 110.892 215.476C110.588 215.996 110.172 216.4 109.644 216.688C109.124 216.968 108.548 217.108 107.916 217.108ZM107.916 215.92C108.268 215.92 108.596 215.836 108.9 215.668C109.212 215.5 109.464 215.248 109.656 214.912C109.848 214.576 109.944 214.168 109.944 213.688C109.944 213.208 109.852 212.804 109.668 212.476C109.484 212.14 109.24 211.888 108.936 211.72C108.632 211.552 108.304 211.468 107.952 211.468C107.6 211.468 107.272 211.552 106.968 211.72C106.672 211.888 106.436 212.14 106.26 212.476C106.084 212.804 105.996 213.208 105.996 213.688C105.996 214.4 106.176 214.952 106.536 215.344C106.904 215.728 107.364 215.92 107.916 215.92ZM121.878 213.532C121.878 213.78 121.862 214.004 121.83 214.204H116.778C116.818 214.732 117.014 215.156 117.366 215.476C117.718 215.796 118.15 215.956 118.662 215.956C119.398 215.956 119.918 215.648 120.222 215.032H121.698C121.498 215.64 121.134 216.14 120.606 216.532C120.086 216.916 119.438 217.108 118.662 217.108C118.03 217.108 117.462 216.968 116.958 216.688C116.462 216.4 116.07 216 115.782 215.488C115.502 214.968 115.362 214.368 115.362 213.688C115.362 213.008 115.498 212.412 115.77 211.9C116.05 211.38 116.438 210.98 116.934 210.7C117.438 210.42 118.014 210.28 118.662 210.28C119.286 210.28 119.842 210.416 120.33 210.688C120.818 210.96 121.198 211.344 121.47 211.84C121.742 212.328 121.878 212.892 121.878 213.532ZM120.45 213.1C120.442 212.596 120.262 212.192 119.91 211.888C119.558 211.584 119.122 211.432 118.602 211.432C118.13 211.432 117.726 211.584 117.39 211.888C117.054 212.184 116.854 212.588 116.79 213.1H120.45ZM126.56 210.28C127.08 210.28 127.544 210.388 127.952 210.604C128.368 210.82 128.692 211.14 128.924 211.564C129.156 211.988 129.272 212.5 129.272 213.1V217H127.916V213.304C127.916 212.712 127.768 212.26 127.472 211.948C127.176 211.628 126.772 211.468 126.26 211.468C125.748 211.468 125.34 211.628 125.036 211.948C124.74 212.26 124.592 212.712 124.592 213.304V217H123.224V210.388H124.592V211.144C124.816 210.872 125.1 210.66 125.444 210.508C125.796 210.356 126.168 210.28 126.56 210.28ZM132.613 211.504V215.164C132.613 215.412 132.669 215.592 132.781 215.704C132.901 215.808 133.101 215.86 133.381 215.86H134.221V217H133.141C132.525 217 132.053 216.856 131.725 216.568C131.397 216.28 131.233 215.812 131.233 215.164V211.504H130.453V210.388H131.233V208.744H132.613V210.388H134.221V211.504H132.613ZM141.542 213.532C141.542 213.78 141.526 214.004 141.494 214.204H136.442C136.482 214.732 136.678 215.156 137.03 215.476C137.382 215.796 137.814 215.956 138.326 215.956C139.062 215.956 139.582 215.648 139.886 215.032H141.362C141.162 215.64 140.798 216.14 140.27 216.532C139.75 216.916 139.102 217.108 138.326 217.108C137.694 217.108 137.126 216.968 136.622 216.688C136.126 216.4 135.734 216 135.446 215.488C135.166 214.968 135.026 214.368 135.026 213.688C135.026 213.008 135.162 212.412 135.434 211.9C135.714 211.38 136.102 210.98 136.598 210.7C137.102 210.42 137.678 210.28 138.326 210.28C138.95 210.28 139.506 210.416 139.994 210.688C140.482 210.96 140.862 211.344 141.134 211.84C141.406 212.328 141.542 212.892 141.542 213.532ZM140.114 213.1C140.106 212.596 139.926 212.192 139.574 211.888C139.222 211.584 138.786 211.432 138.266 211.432C137.794 211.432 137.39 211.584 137.054 211.888C136.718 212.184 136.518 212.588 136.454 213.1H140.114ZM144.256 211.348C144.456 211.012 144.72 210.752 145.048 210.568C145.384 210.376 145.78 210.28 146.236 210.28V211.696H145.888C145.352 211.696 144.944 211.832 144.664 212.104C144.392 212.376 144.256 212.848 144.256 213.52V217H142.888V210.388H144.256V211.348ZM156.563 210.388L152.507 220.108H151.091L152.435 216.892L149.831 210.388H151.355L153.215 215.428L155.147 210.388H156.563ZM160.463 217.108C159.839 217.108 159.275 216.968 158.771 216.688C158.267 216.4 157.871 216 157.583 215.488C157.295 214.968 157.151 214.368 157.151 213.688C157.151 213.016 157.299 212.42 157.595 211.9C157.891 211.38 158.295 210.98 158.807 210.7C159.319 210.42 159.891 210.28 160.523 210.28C161.155 210.28 161.727 210.42 162.239 210.7C162.751 210.98 163.155 211.38 163.451 211.9C163.747 212.42 163.895 213.016 163.895 213.688C163.895 214.36 163.743 214.956 163.439 215.476C163.135 215.996 162.719 216.4 162.191 216.688C161.671 216.968 161.095 217.108 160.463 217.108ZM160.463 215.92C160.815 215.92 161.143 215.836 161.447 215.668C161.759 215.5 162.011 215.248 162.203 214.912C162.395 214.576 162.491 214.168 162.491 213.688C162.491 213.208 162.399 212.804 162.215 212.476C162.031 212.14 161.787 211.888 161.483 211.72C161.179 211.552 160.851 211.468 160.499 211.468C160.147 211.468 159.819 211.552 159.515 211.72C159.219 211.888 158.983 212.14 158.807 212.476C158.631 212.804 158.543 213.208 158.543 213.688C158.543 214.4 158.723 214.952 159.083 215.344C159.451 215.728 159.911 215.92 160.463 215.92ZM171.236 210.388V217H169.868V216.22C169.652 216.492 169.368 216.708 169.016 216.868C168.672 217.02 168.304 217.096 167.912 217.096C167.392 217.096 166.924 216.988 166.508 216.772C166.1 216.556 165.776 216.236 165.536 215.812C165.304 215.388 165.188 214.876 165.188 214.276V210.388H166.544V214.072C166.544 214.664 166.692 215.12 166.988 215.44C167.284 215.752 167.688 215.908 168.2 215.908C168.712 215.908 169.116 215.752 169.412 215.44C169.716 215.12 169.868 214.664 169.868 214.072V210.388H171.236ZM174.409 211.348C174.609 211.012 174.873 210.752 175.201 210.568C175.537 210.376 175.933 210.28 176.389 210.28V211.696H176.041C175.505 211.696 175.097 211.832 174.817 212.104C174.545 212.376 174.409 212.848 174.409 213.52V217H173.041V210.388H174.409V211.348Z" fill="white"/>
<path d="M5.634 226.436C6.954 226.436 8.112 226.694 9.108 227.21C10.116 227.726 10.89 228.464 11.43 229.424C11.982 230.372 12.258 231.476 12.258 232.736C12.258 233.996 11.982 235.1 11.43 236.048C10.89 236.984 10.116 237.71 9.108 238.226C8.112 238.742 6.954 239 5.634 239H1.242V226.436H5.634ZM5.544 236.858C6.864 236.858 7.884 236.498 8.604 235.778C9.324 235.058 9.684 234.044 9.684 232.736C9.684 231.428 9.324 230.408 8.604 229.676C7.884 228.932 6.864 228.56 5.544 228.56H3.762V236.858H5.544ZM16.6643 230.576C16.9883 230.048 17.4083 229.634 17.9243 229.334C18.4523 229.034 19.0523 228.884 19.7243 228.884V231.53H19.0583C18.2663 231.53 17.6663 231.716 17.2583 232.088C16.8623 232.46 16.6643 233.108 16.6643 234.032V239H14.1443V229.028H16.6643V230.576ZM22.6997 227.84C22.2557 227.84 21.8837 227.702 21.5837 227.426C21.2957 227.138 21.1517 226.784 21.1517 226.364C21.1517 225.944 21.2957 225.596 21.5837 225.32C21.8837 225.032 22.2557 224.888 22.6997 224.888C23.1437 224.888 23.5097 225.032 23.7977 225.32C24.0977 225.596 24.2477 225.944 24.2477 226.364C24.2477 226.784 24.0977 227.138 23.7977 227.426C23.5097 227.702 23.1437 227.84 22.6997 227.84ZM23.9417 229.028V239H21.4217V229.028H23.9417ZM30.5895 236.678L33.1095 229.028H35.7915L32.1015 239H29.0415L25.3695 229.028H28.0695L30.5895 236.678ZM38.4848 227.84C38.0408 227.84 37.6688 227.702 37.3688 227.426C37.0808 227.138 36.9368 226.784 36.9368 226.364C36.9368 225.944 37.0808 225.596 37.3688 225.32C37.6688 225.032 38.0408 224.888 38.4848 224.888C38.9288 224.888 39.2948 225.032 39.5828 225.32C39.8828 225.596 40.0328 225.944 40.0328 226.364C40.0328 226.784 39.8828 227.138 39.5828 227.426C39.2948 227.702 38.9288 227.84 38.4848 227.84ZM39.7268 229.028V239H37.2068V229.028H39.7268ZM47.7426 228.884C48.9306 228.884 49.8906 229.262 50.6226 230.018C51.3546 230.762 51.7206 231.806 51.7206 233.15V239H49.2006V233.492C49.2006 232.7 49.0026 232.094 48.6066 231.674C48.2106 231.242 47.6706 231.026 46.9866 231.026C46.2906 231.026 45.7386 231.242 45.3306 231.674C44.9346 232.094 44.7366 232.7 44.7366 233.492V239H42.2166V229.028H44.7366V230.27C45.0726 229.838 45.4986 229.502 46.0146 229.262C46.5426 229.01 47.1186 228.884 47.7426 228.884ZM58.023 228.866C58.767 228.866 59.421 229.016 59.985 229.316C60.549 229.604 60.993 229.982 61.317 230.45V229.028H63.855V239.072C63.855 239.996 63.669 240.818 63.297 241.538C62.925 242.27 62.367 242.846 61.623 243.266C60.879 243.698 59.979 243.914 58.923 243.914C57.507 243.914 56.343 243.584 55.431 242.924C54.531 242.264 54.021 241.364 53.901 240.224H56.403C56.535 240.68 56.817 241.04 57.249 241.304C57.693 241.58 58.227 241.718 58.851 241.718C59.583 241.718 60.177 241.496 60.633 241.052C61.089 240.62 61.317 239.96 61.317 239.072V237.524C60.993 237.992 60.543 238.382 59.967 238.694C59.403 239.006 58.755 239.162 58.023 239.162C57.183 239.162 56.415 238.946 55.719 238.514C55.023 238.082 54.471 237.476 54.063 236.696C53.667 235.904 53.469 234.998 53.469 233.978C53.469 232.97 53.667 232.076 54.063 231.296C54.471 230.516 55.017 229.916 55.701 229.496C56.397 229.076 57.171 228.866 58.023 228.866ZM61.317 234.014C61.317 233.402 61.197 232.88 60.957 232.448C60.717 232.004 60.393 231.668 59.985 231.44C59.577 231.2 59.139 231.08 58.671 231.08C58.203 231.08 57.771 231.194 57.375 231.422C56.979 231.65 56.655 231.986 56.403 232.43C56.163 232.862 56.043 233.378 56.043 233.978C56.043 234.578 56.163 235.106 56.403 235.562C56.655 236.006 56.979 236.348 57.375 236.588C57.783 236.828 58.215 236.948 58.671 236.948C59.139 236.948 59.577 236.834 59.985 236.606C60.393 236.366 60.717 236.03 60.957 235.598C61.197 235.154 61.317 234.626 61.317 234.014ZM73.1253 237.002H77.2653V239H70.6053V226.436H73.1253V237.002ZM80.145 227.84C79.701 227.84 79.329 227.702 79.029 227.426C78.741 227.138 78.597 226.784 78.597 226.364C78.597 225.944 78.741 225.596 79.029 225.32C79.329 225.032 79.701 224.888 80.145 224.888C80.589 224.888 80.955 225.032 81.243 225.32C81.543 225.596 81.693 225.944 81.693 226.364C81.693 226.784 81.543 227.138 81.243 227.426C80.955 227.702 80.589 227.84 80.145 227.84ZM81.387 229.028V239H78.867V229.028H81.387ZM83.2288 234.014C83.2288 232.982 83.4388 232.082 83.8588 231.314C84.2788 230.534 84.8608 229.934 85.6048 229.514C86.3488 229.082 87.2008 228.866 88.1608 228.866C89.3968 228.866 90.4168 229.178 91.2208 229.802C92.0368 230.414 92.5828 231.278 92.8588 232.394H90.1408C89.9968 231.962 89.7508 231.626 89.4028 231.386C89.0668 231.134 88.6468 231.008 88.1428 231.008C87.4228 231.008 86.8528 231.272 86.4328 231.8C86.0128 232.316 85.8028 233.054 85.8028 234.014C85.8028 234.962 86.0128 235.7 86.4328 236.228C86.8528 236.744 87.4228 237.002 88.1428 237.002C89.1628 237.002 89.8288 236.546 90.1408 235.634H92.8588C92.5828 236.714 92.0368 237.572 91.2208 238.208C90.4048 238.844 89.3848 239.162 88.1608 239.162C87.2008 239.162 86.3488 238.952 85.6048 238.532C84.8608 238.1 84.2788 237.5 83.8588 236.732C83.4388 235.952 83.2288 235.046 83.2288 234.014ZM103.975 233.798C103.975 234.158 103.951 234.482 103.903 234.77H96.6129C96.6729 235.49 96.9249 236.054 97.3689 236.462C97.8129 236.87 98.3589 237.074 99.0069 237.074C99.9429 237.074 100.609 236.672 101.005 235.868H103.723C103.435 236.828 102.883 237.62 102.067 238.244C101.251 238.856 100.249 239.162 99.0609 239.162C98.1009 239.162 97.2369 238.952 96.4689 238.532C95.7129 238.1 95.1189 237.494 94.6869 236.714C94.2669 235.934 94.0569 235.034 94.0569 234.014C94.0569 232.982 94.2669 232.076 94.6869 231.296C95.1069 230.516 95.6949 229.916 96.4509 229.496C97.2069 229.076 98.0769 228.866 99.0609 228.866C100.009 228.866 100.855 229.07 101.599 229.478C102.355 229.886 102.937 230.468 103.345 231.224C103.765 231.968 103.975 232.826 103.975 233.798ZM101.365 233.078C101.353 232.43 101.119 231.914 100.663 231.53C100.207 231.134 99.6489 230.936 98.9889 230.936C98.3649 230.936 97.8369 231.128 97.4049 231.512C96.9849 231.884 96.7269 232.406 96.6309 233.078H101.365ZM111.34 228.884C112.528 228.884 113.488 229.262 114.22 230.018C114.952 230.762 115.318 231.806 115.318 233.15V239H112.798V233.492C112.798 232.7 112.6 232.094 112.204 231.674C111.808 231.242 111.268 231.026 110.584 231.026C109.888 231.026 109.336 231.242 108.928 231.674C108.532 232.094 108.334 232.7 108.334 233.492V239H105.814V229.028H108.334V230.27C108.67 229.838 109.096 229.502 109.612 229.262C110.14 229.01 110.716 228.884 111.34 228.884ZM121.531 239.162C120.715 239.162 119.983 239.018 119.335 238.73C118.687 238.43 118.171 238.028 117.787 237.524C117.415 237.02 117.211 236.462 117.175 235.85H119.713C119.761 236.234 119.947 236.552 120.271 236.804C120.607 237.056 121.021 237.182 121.513 237.182C121.993 237.182 122.365 237.086 122.629 236.894C122.905 236.702 123.043 236.456 123.043 236.156C123.043 235.832 122.875 235.592 122.539 235.436C122.215 235.268 121.693 235.088 120.973 234.896C120.229 234.716 119.617 234.53 119.137 234.338C118.669 234.146 118.261 233.852 117.913 233.456C117.577 233.06 117.409 232.526 117.409 231.854C117.409 231.302 117.565 230.798 117.877 230.342C118.201 229.886 118.657 229.526 119.245 229.262C119.845 228.998 120.547 228.866 121.351 228.866C122.539 228.866 123.487 229.166 124.195 229.766C124.903 230.354 125.293 231.152 125.365 232.16H122.953C122.917 231.764 122.749 231.452 122.449 231.224C122.161 230.984 121.771 230.864 121.279 230.864C120.823 230.864 120.469 230.948 120.217 231.116C119.977 231.284 119.857 231.518 119.857 231.818C119.857 232.154 120.025 232.412 120.361 232.592C120.697 232.76 121.219 232.934 121.927 233.114C122.647 233.294 123.241 233.48 123.709 233.672C124.177 233.864 124.579 234.164 124.915 234.572C125.263 234.968 125.443 235.496 125.455 236.156C125.455 236.732 125.293 237.248 124.969 237.704C124.657 238.16 124.201 238.52 123.601 238.784C123.013 239.036 122.323 239.162 121.531 239.162ZM136.793 233.798C136.793 234.158 136.769 234.482 136.721 234.77H129.431C129.491 235.49 129.743 236.054 130.187 236.462C130.631 236.87 131.177 237.074 131.825 237.074C132.761 237.074 133.427 236.672 133.823 235.868H136.541C136.253 236.828 135.701 237.62 134.885 238.244C134.069 238.856 133.067 239.162 131.879 239.162C130.919 239.162 130.055 238.952 129.287 238.532C128.531 238.1 127.937 237.494 127.505 236.714C127.085 235.934 126.875 235.034 126.875 234.014C126.875 232.982 127.085 232.076 127.505 231.296C127.925 230.516 128.513 229.916 129.269 229.496C130.025 229.076 130.895 228.866 131.879 228.866C132.827 228.866 133.673 229.07 134.417 229.478C135.173 229.886 135.755 230.468 136.163 231.224C136.583 231.968 136.793 232.826 136.793 233.798ZM134.183 233.078C134.171 232.43 133.937 231.914 133.481 231.53C133.025 231.134 132.467 230.936 131.807 230.936C131.183 230.936 130.655 231.128 130.223 231.512C129.803 231.884 129.545 232.406 129.449 233.078H134.183ZM153.668 239H151.148L145.442 230.378V239H142.922V226.418H145.442L151.148 235.058V226.418H153.668V239ZM165.572 229.028V239H163.034V237.74C162.71 238.172 162.284 238.514 161.756 238.766C161.24 239.006 160.676 239.126 160.064 239.126C159.284 239.126 158.594 238.964 157.994 238.64C157.394 238.304 156.92 237.818 156.572 237.182C156.236 236.534 156.068 235.766 156.068 234.878V229.028H158.588V234.518C158.588 235.31 158.786 235.922 159.182 236.354C159.578 236.774 160.118 236.984 160.802 236.984C161.498 236.984 162.044 236.774 162.44 236.354C162.836 235.922 163.034 235.31 163.034 234.518V229.028H165.572ZM180.442 228.884C181.666 228.884 182.65 229.262 183.394 230.018C184.15 230.762 184.528 231.806 184.528 233.15V239H182.008V233.492C182.008 232.712 181.81 232.118 181.414 231.71C181.018 231.29 180.478 231.08 179.794 231.08C179.11 231.08 178.564 231.29 178.156 231.71C177.76 232.118 177.562 232.712 177.562 233.492V239H175.042V233.492C175.042 232.712 174.844 232.118 174.448 231.71C174.052 231.29 173.512 231.08 172.828 231.08C172.132 231.08 171.58 231.29 171.172 231.71C170.776 232.118 170.578 232.712 170.578 233.492V239H168.058V229.028H170.578V230.234C170.902 229.814 171.316 229.484 171.82 229.244C172.336 229.004 172.9 228.884 173.512 228.884C174.292 228.884 174.988 229.052 175.6 229.388C176.212 229.712 176.686 230.18 177.022 230.792C177.346 230.216 177.814 229.754 178.426 229.406C179.05 229.058 179.722 228.884 180.442 228.884ZM189.44 230.486C189.764 230.006 190.208 229.616 190.772 229.316C191.348 229.016 192.002 228.866 192.734 228.866C193.586 228.866 194.354 229.076 195.038 229.496C195.734 229.916 196.28 230.516 196.676 231.296C197.084 232.064 197.288 232.958 197.288 233.978C197.288 234.998 197.084 235.904 196.676 236.696C196.28 237.476 195.734 238.082 195.038 238.514C194.354 238.946 193.586 239.162 192.734 239.162C191.99 239.162 191.336 239.018 190.772 238.73C190.22 238.43 189.776 238.046 189.44 237.578V239H186.92V225.68H189.44V230.486ZM194.714 233.978C194.714 233.378 194.588 232.862 194.336 232.43C194.096 231.986 193.772 231.65 193.364 231.422C192.968 231.194 192.536 231.08 192.068 231.08C191.612 231.08 191.18 231.2 190.772 231.44C190.376 231.668 190.052 232.004 189.8 232.448C189.56 232.892 189.44 233.414 189.44 234.014C189.44 234.614 189.56 235.136 189.8 235.58C190.052 236.024 190.376 236.366 190.772 236.606C191.18 236.834 191.612 236.948 192.068 236.948C192.536 236.948 192.968 236.828 193.364 236.588C193.772 236.348 194.096 236.006 194.336 235.562C194.588 235.118 194.714 234.59 194.714 233.978ZM208.389 233.798C208.389 234.158 208.365 234.482 208.317 234.77H201.027C201.087 235.49 201.339 236.054 201.783 236.462C202.227 236.87 202.773 237.074 203.421 237.074C204.357 237.074 205.023 236.672 205.419 235.868H208.137C207.849 236.828 207.297 237.62 206.481 238.244C205.665 238.856 204.663 239.162 203.475 239.162C202.515 239.162 201.651 238.952 200.883 238.532C200.127 238.1 199.533 237.494 199.101 236.714C198.681 235.934 198.471 235.034 198.471 234.014C198.471 232.982 198.681 232.076 199.101 231.296C199.521 230.516 200.109 229.916 200.865 229.496C201.621 229.076 202.491 228.866 203.475 228.866C204.423 228.866 205.269 229.07 206.013 229.478C206.769 229.886 207.351 230.468 207.759 231.224C208.179 231.968 208.389 232.826 208.389 233.798ZM205.779 233.078C205.767 232.43 205.533 231.914 205.077 231.53C204.621 231.134 204.063 230.936 203.403 230.936C202.779 230.936 202.251 231.128 201.819 231.512C201.399 231.884 201.141 232.406 201.045 233.078H205.779ZM212.748 230.576C213.072 230.048 213.492 229.634 214.008 229.334C214.536 229.034 215.136 228.884 215.808 228.884V231.53H215.142C214.35 231.53 213.75 231.716 213.342 232.088C212.946 232.46 212.748 233.108 212.748 234.032V239H210.228V229.028H212.748V230.576Z" fill="white"/>
</svg>
