<svg width="20" height="20" viewBox="0 0 20 20" fill="none" xmlns="http://www.w3.org/2000/svg">
<g clip-path="url(#clip0_179_4510)">
<path d="M10.9174 0.833252C8.90215 0.84306 6.94711 1.5211 5.35856 2.76115C3.77001 4.00119 2.6377 5.73318 2.13903 7.68575L1.52903 6.76325C1.47128 6.66667 1.39457 6.58279 1.30352 6.51666C1.21248 6.45053 1.10898 6.40353 0.999274 6.37848C0.889568 6.35344 0.775926 6.35087 0.665201 6.37094C0.554476 6.391 0.448963 6.43329 0.355023 6.49524C0.261083 6.55719 0.180663 6.63752 0.118612 6.7314C0.056562 6.82527 0.0141667 6.93074 -0.00601685 7.04144C-0.0262004 7.15215 -0.0237541 7.26579 0.0011745 7.37552C0.0261031 7.48525 0.0729976 7.5888 0.13903 7.67992L1.97236 10.4583C2.09971 10.6365 2.28747 10.7623 2.5007 10.8124C2.71842 10.8556 2.9444 10.8123 3.1307 10.6916L5.8807 8.83909C5.97551 8.77987 6.05745 8.70219 6.12162 8.61066C6.1858 8.51913 6.2309 8.41563 6.25425 8.30631C6.2776 8.19699 6.27871 8.08409 6.25753 7.97433C6.23634 7.86456 6.19329 7.76019 6.13094 7.66741C6.06858 7.57463 5.98819 7.49535 5.89457 7.43428C5.80094 7.3732 5.69598 7.33159 5.58594 7.31192C5.47589 7.29225 5.36302 7.29492 5.25403 7.31978C5.14504 7.34463 5.04217 7.39115 4.95153 7.45659L3.7007 8.29992C4.0336 6.94858 4.73964 5.71802 5.73827 4.74864C6.73689 3.77926 7.98789 3.11011 9.34853 2.81751C10.7092 2.52492 12.1247 2.62068 13.4335 3.09385C14.7423 3.56703 15.8918 4.39858 16.7508 5.49362C17.6098 6.58866 18.1436 7.9031 18.2915 9.28697C18.4394 10.6708 18.1953 12.0684 17.5871 13.3202C16.9788 14.572 16.031 15.6277 14.8517 16.3667C13.6724 17.1057 12.3091 17.4984 10.9174 17.4999C9.72431 17.4967 8.54968 17.2055 7.49332 16.6509C6.43696 16.0964 5.53011 15.295 4.84986 14.3149C4.78894 14.2214 4.70984 14.141 4.61726 14.0786C4.52468 14.0162 4.42051 13.9731 4.31093 13.9517C4.20135 13.9304 4.0886 13.9313 3.97937 13.9543C3.87014 13.9774 3.76666 14.0222 3.67507 14.086C3.58348 14.1498 3.50565 14.2314 3.4462 14.3259C3.38675 14.4204 3.3469 14.5259 3.329 14.6361C3.3111 14.7463 3.31553 14.859 3.34202 14.9674C3.36851 15.0759 3.41652 15.1779 3.4832 15.2674C4.58909 16.8617 6.17723 18.0592 8.01421 18.684C9.85119 19.3087 11.8401 19.3277 13.6887 18.7382C15.5373 18.1487 17.148 16.9817 18.2842 15.4088C19.4203 13.836 20.022 11.9401 20.0007 9.99992C20.0089 7.58068 19.0572 5.25696 17.3544 3.53849C15.6515 1.82002 13.3366 0.847141 10.9174 0.833252Z" fill="white"/>
<path d="M10.8333 4.95825C10.6123 4.95825 10.4004 5.04605 10.2441 5.20233C10.0878 5.35861 10 5.57057 10 5.79159V9.99992C10.0035 10.2202 10.0909 10.4309 10.2442 10.5891L12.7442 13.1116C12.901 13.266 13.112 13.353 13.3321 13.3541C13.5523 13.3552 13.7641 13.2703 13.9225 13.1174C14.0794 12.9618 14.1681 12.7503 14.169 12.5293C14.1699 12.3083 14.0831 12.096 13.9275 11.9391L11.6667 9.65742V5.79159C11.6667 5.57057 11.5789 5.35861 11.4226 5.20233C11.2663 5.04605 11.0543 4.95825 10.8333 4.95825Z" fill="#F3C521"/>
</g>
<defs>
<clipPath id="clip0_179_4510">
<rect width="20" height="20" fill="white"/>
</clipPath>
</defs>
</svg>
