<svg width="21" height="20" viewBox="0 0 21 20" fill="none" xmlns="http://www.w3.org/2000/svg">
<path d="M10.5099 18.949C9.98486 18.949 9.4682 18.774 9.05986 18.424L7.74323 17.299C7.6099 17.1823 7.27656 17.0657 7.10156 17.0657H5.64323C4.4099 17.0657 3.4099 16.0657 3.4099 14.8323V13.4073C3.4099 13.2323 3.29323 12.899 3.1849 12.774L2.05156 11.4406C1.36823 10.6323 1.36823 9.36565 2.05156 8.54898L3.1849 7.21563C3.29323 7.09063 3.4099 6.75729 3.4099 6.58229V5.16563C3.4099 3.93229 4.4099 2.93229 5.64323 2.93229H7.0849C7.2599 2.93229 7.5849 2.80729 7.72656 2.69063L9.0432 1.56563C9.85986 0.873958 11.1349 0.873958 11.9515 1.56563L13.2682 2.69063C13.4015 2.80729 13.7432 2.92396 13.9182 2.92396H15.3349C16.5682 2.92396 17.5682 3.92396 17.5682 5.15729V6.57396C17.5682 6.74896 17.6932 7.07396 17.8099 7.21563L18.9349 8.53232C19.6349 9.35732 19.6265 10.6323 18.9349 11.4406L17.8099 12.7573C17.6932 12.899 17.5765 13.224 17.5765 13.399V14.8156C17.5765 16.049 16.5765 17.049 15.3432 17.049H13.9265C13.7515 17.049 13.4265 17.174 13.2765 17.2906L11.9599 18.4156C11.5515 18.774 11.0265 18.949 10.5099 18.949ZM5.64323 4.18229C5.10156 4.18229 4.6599 4.62396 4.6599 5.16563V6.58229C4.6599 7.05729 4.44323 7.65729 4.1349 8.02396L3.00156 9.35732C2.71823 9.69898 2.71823 10.299 3.00156 10.6323L4.12656 11.9573C4.42656 12.299 4.65156 12.924 4.65156 13.399V14.824C4.65156 15.3657 5.09323 15.8073 5.6349 15.8073H7.0849C7.55156 15.8073 8.16823 16.0323 8.5349 16.3407L9.85986 17.474C10.2015 17.7657 10.8015 17.7657 11.1432 17.474L12.4599 16.349C12.8349 16.0323 13.4432 15.8157 13.9099 15.8157H15.3265C15.8682 15.8157 16.3099 15.374 16.3099 14.8323V13.4157C16.3099 12.949 16.5349 12.3407 16.8432 11.9657L17.9765 10.6406C18.2682 10.299 18.2682 9.69898 17.9765 9.35732L16.8515 8.04063C16.5349 7.66563 16.3182 7.05729 16.3182 6.59063V5.16563C16.3182 4.62396 15.8765 4.18229 15.3349 4.18229H13.9182C13.4432 4.18229 12.8265 3.95729 12.4599 3.64896L11.1349 2.51563C10.7932 2.22396 10.2015 2.22396 9.85153 2.51563L8.54323 3.64896C8.16823 3.95729 7.5599 4.18229 7.0849 4.18229H5.64323Z" fill="#003E83"/>
<path d="M10.5052 14.0573C10.0469 14.0573 9.67188 13.6823 9.67188 13.224C9.67188 12.7656 10.0385 12.3906 10.5052 12.3906C10.9635 12.3906 11.3385 12.7656 11.3385 13.224C11.3385 13.6823 10.9719 14.0573 10.5052 14.0573Z" fill="#003E83"/>
<path d="M10.5 11.4318C10.1583 11.4318 9.875 11.1485 9.875 10.8068V6.77344C9.875 6.43177 10.1583 6.14844 10.5 6.14844C10.8417 6.14844 11.125 6.43177 11.125 6.77344V10.7985C11.125 11.1485 10.85 11.4318 10.5 11.4318Z" fill="#003E83"/>
</svg>
