<svg width="40" height="40" viewBox="0 0 40 40" fill="none" xmlns="http://www.w3.org/2000/svg">
<path d="M6.25 26.3672V13.6328C6.25 9.31805 9.74773 5.82031 14.0625 5.82031H9.375C5.06023 5.82031 1.5625 9.31805 1.5625 13.6328V26.3672C1.5625 30.6819 5.06023 34.1797 9.375 34.1797H14.0625C9.74773 34.1797 6.25 30.6819 6.25 26.3672Z" fill="#CEE1F2"/>
<path d="M30.625 35.7422H9.375C4.20563 35.7422 0 31.5366 0 26.3672V13.6328C0 8.46344 4.20563 4.25781 9.375 4.25781H30.625C35.7944 4.25781 40 8.46344 40 13.6328V26.3672C40 31.5366 35.7944 35.7422 30.625 35.7422ZM9.375 7.38281C5.92875 7.38281 3.125 10.1866 3.125 13.6328V26.3672C3.125 29.8134 5.92875 32.6172 9.375 32.6172H30.625C34.0713 32.6172 36.875 29.8134 36.875 26.3672V13.6328C36.875 10.1866 34.0713 7.38281 30.625 7.38281H9.375ZM12.7344 20.1172C10.1066 20.1172 7.96875 17.9794 7.96875 15.3516C7.96875 12.7238 10.1066 10.5859 12.7344 10.5859C15.3622 10.5859 17.5 12.7238 17.5 15.3516C17.5 17.9794 15.3622 20.1172 12.7344 20.1172ZM12.7344 13.7109C11.8297 13.7109 11.0938 14.4469 11.0938 15.3516C11.0938 16.2563 11.8297 16.9922 12.7344 16.9922C13.6391 16.9922 14.375 16.2563 14.375 15.3516C14.375 14.4469 13.6391 13.7109 12.7344 13.7109ZM33.8281 12.2266C33.8281 11.3636 33.1286 10.6641 32.2656 10.6641H21.7188C20.8558 10.6641 20.1562 11.3636 20.1562 12.2266C20.1562 13.0895 20.8558 13.7891 21.7188 13.7891H32.2656C33.1286 13.7891 33.8281 13.0895 33.8281 12.2266ZM33.8281 18.5547C33.8281 17.6917 33.1286 16.9922 32.2656 16.9922H21.7188C20.8558 16.9922 20.1562 17.6917 20.1562 18.5547C20.1562 19.4177 20.8558 20.1172 21.7188 20.1172H32.2656C33.1286 20.1172 33.8281 19.4177 33.8281 18.5547ZM33.8281 27.8516C33.8281 26.9886 33.1286 26.2891 32.2656 26.2891H24.5312C23.6683 26.2891 22.9688 26.9886 22.9688 27.8516C22.9688 28.7145 23.6683 29.4141 24.5312 29.4141H32.2656C33.1286 29.4141 33.8281 28.7145 33.8281 27.8516Z" fill="#023874"/>
<path d="M17.8907 29.4922C17.0277 29.4922 16.3282 28.7927 16.3282 27.9297C16.3282 26.2649 14.9852 24.9609 13.2708 24.9609H12.4152C10.7266 24.9609 9.45312 26.2372 9.45312 27.9297C9.45312 28.7927 8.75359 29.4922 7.89062 29.4922C7.02766 29.4922 6.32812 28.7927 6.32812 27.9297C6.32812 24.5127 9.00187 21.8359 12.4152 21.8359H13.2708C14.9198 21.8359 16.4671 22.458 17.6275 23.5877C18.8048 24.7337 19.4532 26.2759 19.4532 27.9297C19.4532 28.7927 18.7537 29.4922 17.8907 29.4922Z" fill="#F3C521"/>
</svg>
