<svg width="102" height="25" viewBox="0 0 102 25" fill="none" xmlns="http://www.w3.org/2000/svg">
<g clip-path="url(#clip0_83_22508)">
<path d="M0.37199 19.9008C0.305863 19.906 0.23961 19.8922 0.181477 19.861C0.123343 19.8298 0.0758956 19.7825 0.0450385 19.7253C0.0137172 19.6623 -0.00167848 19.5929 0.000145024 19.523C0.00196853 19.453 0.0209579 19.3846 0.0555177 19.3234L6.51406 6.44253C6.57994 6.29664 6.6905 6.17424 6.83053 6.09221C6.9639 6.01207 7.11741 5.96957 7.27401 5.96943H8.45606C8.59965 5.97045 8.73811 6.02171 8.84632 6.11389C8.90242 6.15589 8.94916 6.20862 8.9837 6.26884C9.01821 6.32908 9.03978 6.39557 9.04709 6.46422L10.8621 19.386C10.8717 19.4523 10.8662 19.5199 10.8462 19.5841C10.8261 19.6482 10.7919 19.7073 10.746 19.7572C10.6985 19.8054 10.641 19.8434 10.5773 19.8682C10.5136 19.8932 10.4452 19.9046 10.3767 19.9017H9.49058C9.34689 19.9004 9.20835 19.8492 9.09991 19.7572C9.04391 19.7151 8.99724 19.6623 8.96272 19.602C8.92821 19.5418 8.90658 19.4754 8.89913 19.4068L8.47703 16.1503H3.64318L2.01849 19.4473C1.96245 19.5844 1.86244 19.6999 1.73344 19.7768C1.60428 19.8573 1.45413 19.8999 1.30087 19.8996L0.37199 19.9008ZM4.4245 14.5005H8.28714L7.73845 10.1934C7.63953 9.50615 7.56966 8.75733 7.52887 7.94698C6.99428 9.19715 6.66371 9.94596 6.53712 10.1934L4.4245 14.5005ZM13.1013 19.9008C13.0333 19.9094 12.9645 19.8944 12.9066 19.8587C12.8487 19.8229 12.8055 19.7684 12.7844 19.7048C12.7663 19.6296 12.7683 19.5513 12.7903 19.4772C12.8124 19.4032 12.8536 19.3358 12.9102 19.282L16.8784 14.4375L14.8522 9.86357C14.8175 9.80233 14.7985 9.73386 14.7966 9.66391C14.7947 9.59398 14.81 9.52462 14.8413 9.46167C14.8758 9.40279 14.9271 9.35496 14.9889 9.32395C15.0507 9.29293 15.1204 9.28007 15.1896 9.28691H16.1185C16.2755 9.2835 16.4301 9.32627 16.5619 9.40971C16.6938 9.49931 16.7905 9.63008 16.8361 9.7805L18.2294 12.8909L20.8048 9.73957C20.8956 9.60126 21.0205 9.48733 21.1682 9.40814C21.3156 9.32893 21.4811 9.28698 21.6494 9.2861H22.4723C22.5401 9.27772 22.6087 9.29127 22.6679 9.32469C22.7269 9.3581 22.7732 9.40953 22.7995 9.47109C22.8217 9.54202 22.8244 9.61731 22.8078 9.68964C22.7911 9.76195 22.7555 9.82879 22.7044 9.88362L19.0719 14.3557L21.3304 19.3225C21.3584 19.3841 21.3729 19.4508 21.3729 19.5184C21.3729 19.5858 21.3584 19.6525 21.3304 19.7141C21.2943 19.7794 21.2383 19.8322 21.1706 19.8654C21.1026 19.8987 21.0259 19.9108 20.9507 19.8999H20.002C19.8446 19.9004 19.6911 19.853 19.5624 19.7644C19.4339 19.6758 19.3369 19.5501 19.2849 19.4051L17.7222 15.9023L14.8094 19.4677C14.7238 19.6001 14.6054 19.7091 14.4651 19.7848C14.3249 19.8604 14.1674 19.9004 14.0071 19.9008H13.1013ZM24.2038 19.3646L26.6945 5.45334C26.7156 5.30543 26.7843 5.16788 26.8906 5.06045C26.9969 4.95302 27.1353 4.88122 27.286 4.85541L28.1092 4.6696C28.5311 4.60084 28.7071 4.77955 28.6369 5.20574L26.1026 19.3646C26.076 19.5129 25.9979 19.6475 25.8814 19.7461C25.7689 19.8463 25.6219 19.9015 25.4697 19.9008H24.6246C24.558 19.9051 24.4912 19.8932 24.4305 19.8663C24.3698 19.8392 24.3168 19.798 24.2764 19.7461C24.2373 19.6911 24.2106 19.6287 24.1979 19.563C24.1853 19.4973 24.1869 19.4298 24.2025 19.3646M30.0289 15.5933L30.4301 13.3882C30.521 12.8588 30.6806 12.343 30.905 11.853C31.1379 11.3366 31.4591 10.8628 31.8549 10.4517C32.2729 10.0207 32.7707 9.67091 33.3219 9.42074C33.9303 9.14631 34.594 9.00896 35.264 9.01884C35.6836 9.02107 36.1001 9.08721 36.4989 9.2149C36.8962 9.33603 37.2654 9.53224 37.5854 9.79236C38.08 10.2083 38.4098 10.7802 38.5179 11.4088C38.6259 12.0374 38.5053 12.6831 38.1767 13.2339C37.8961 13.6646 37.5118 14.0217 37.0572 14.2738C36.4511 14.6043 35.7961 14.8406 35.1157 14.9745C34.0798 15.1816 33.0284 15.3056 31.9718 15.3453L31.9082 15.7574C31.5564 17.5854 32.2459 18.4994 33.9771 18.4994C34.7721 18.4853 35.5611 18.3603 36.3198 18.1282C36.4585 18.0853 36.6085 18.0927 36.742 18.1491C36.7972 18.176 36.8442 18.217 36.8778 18.2679C36.9111 18.3186 36.9301 18.3773 36.9323 18.4377L36.9741 19.1175C36.9906 19.2596 36.9528 19.4027 36.8681 19.5194C36.7814 19.6377 36.6541 19.7218 36.5092 19.7563C35.5977 20.0222 34.6522 20.1604 33.7009 20.1672C33.0989 20.1775 32.5009 20.0727 31.9404 19.8582C31.4461 19.666 31.0101 19.3537 30.6736 18.9513C30.3317 18.5286 30.1032 18.0291 30.0088 17.4984C29.8966 16.867 29.9038 16.2209 30.0303 15.592M32.2027 13.9873C33.1204 13.9625 34.0314 13.8275 34.9152 13.5854C35.4365 13.4706 35.9152 13.2175 36.2985 12.8541C36.5041 12.625 36.6226 12.3338 36.6338 12.0294C36.6441 11.8421 36.6094 11.6551 36.5325 11.4833C36.4556 11.3114 36.3386 11.1596 36.1908 11.0398C35.8433 10.7905 35.4179 10.6668 34.9873 10.6899C34.5286 10.6879 34.0799 10.8207 33.6997 11.0709C33.3093 11.3213 32.9957 11.6702 32.7922 12.0805C32.5916 12.4698 32.4426 12.8824 32.3486 13.3083L32.2027 13.9873ZM40.4135 19.3646L41.5537 12.9756C41.7164 11.867 42.273 10.8494 43.1258 10.1005C43.9806 9.37295 45.0846 8.98657 46.218 9.01845C46.5009 9.01421 46.7834 9.03502 47.0623 9.08065C47.1294 9.09238 47.193 9.11767 47.2495 9.1549C47.3057 9.1921 47.3535 9.24043 47.3897 9.29674C47.4275 9.35227 47.4518 9.41545 47.4611 9.48153C47.4702 9.5476 47.4638 9.61484 47.4425 9.67817L47.2522 10.3375C47.2386 10.4046 47.2111 10.4683 47.1715 10.5247C47.1318 10.5812 47.0808 10.6291 47.0217 10.6657C46.9625 10.7023 46.8962 10.7268 46.8271 10.7376C46.7579 10.7484 46.6872 10.7454 46.6192 10.7288L46.0277 10.6878C45.4015 10.6797 44.7962 10.9085 44.3389 11.3263C43.8569 11.7592 43.5436 12.3419 43.4524 12.9752L42.3127 19.3642C42.2861 19.5123 42.2078 19.6472 42.0913 19.7456C41.9788 19.8456 41.8319 19.9008 41.6798 19.9004H40.8359C40.7693 19.9048 40.7027 19.8929 40.6418 19.8658C40.5811 19.8389 40.5281 19.7975 40.4877 19.7456C40.4484 19.6908 40.4218 19.6284 40.4089 19.5627C40.3961 19.497 40.3977 19.4292 40.4135 19.3642M51.5801 20.1672C51.1009 20.1699 50.6264 20.0751 50.1868 19.8889C49.7483 19.7015 49.3613 19.4156 49.0575 19.0544C48.7241 18.6473 48.4992 18.1658 48.4032 17.653C48.2836 17.0122 48.2874 16.3552 48.414 15.7156L48.8149 13.4487C48.9864 12.1994 49.5933 11.0458 50.5335 10.182C51.4371 9.40217 52.6099 8.98605 53.8155 9.01762C54.3547 9.02471 54.8866 9.1405 55.3778 9.35772C55.9057 9.57831 56.3569 9.94333 56.6771 10.4087C56.9957 10.8523 57.1986 11.3653 57.2677 11.9029C57.3316 12.4171 57.3209 12.9374 57.2363 13.4487L56.1804 19.3634C56.1598 19.5127 56.0841 19.6494 55.9676 19.748C55.8511 19.8468 55.7018 19.9006 55.5475 19.8996H54.9775C54.9014 19.9051 54.825 19.8941 54.7538 19.8673C54.6826 19.8406 54.6184 19.7987 54.5658 19.7448C54.5183 19.6856 54.4833 19.6177 54.4634 19.5451C54.4434 19.4723 54.4388 19.3965 54.4498 19.322L54.4916 18.8273C54.1315 19.2154 53.7023 19.5367 53.2248 19.7756C52.7176 20.037 52.1519 20.1715 51.5783 20.1672M52.0429 18.477C52.9014 18.477 53.7807 17.9961 54.681 17.0347L55.3148 13.5514C55.399 13.0992 55.4095 12.6368 55.3463 12.1812C55.2971 11.7606 55.086 11.3739 54.7557 11.0996C54.4095 10.8193 53.9703 10.6726 53.5209 10.687C53.1871 10.6896 52.8572 10.7575 52.5507 10.8867C52.2443 11.0159 51.9677 11.2038 51.7368 11.4392C51.1695 12.0186 50.8039 12.7581 50.6923 13.5523L50.3336 15.6125C50.2207 16.1494 50.2169 16.7027 50.3226 17.241C50.3544 17.4349 50.4272 17.6203 50.5362 17.7853C50.6455 17.9503 50.7885 18.0913 50.9564 18.1994C51.2857 18.3886 51.6621 18.4851 52.0441 18.4782L52.0429 18.477ZM60.0246 19.3442L61.5865 10.6678H60.6371C60.3414 10.6678 60.1724 10.5028 60.1303 10.173L60.0883 9.78172C60.0781 9.71839 60.0814 9.65372 60.0978 9.59164C60.1141 9.52957 60.1433 9.47141 60.1834 9.42074C60.224 9.37579 60.2746 9.34041 60.3312 9.31731C60.3878 9.29419 60.4492 9.28395 60.5105 9.28733H61.8404L62.3049 6.77281C62.3254 6.6191 62.396 6.47591 62.5062 6.36445C62.6165 6.25298 62.7607 6.17919 62.9173 6.154L63.6768 5.99029C63.755 5.9725 63.836 5.9716 63.9144 5.98765C63.9927 6.00371 64.0667 6.03631 64.1309 6.08321C64.1866 6.1416 64.2248 6.21376 64.2417 6.29188C64.2584 6.37 64.253 6.4511 64.226 6.52643L63.7402 9.28815H65.3657C65.42 9.28524 65.4744 9.29386 65.5251 9.31343C65.5757 9.333 65.6215 9.36305 65.6592 9.40152C65.696 9.44562 65.7225 9.49702 65.7369 9.55214C65.7514 9.60724 65.7535 9.66477 65.743 9.72074L65.6373 10.2155C65.633 10.2786 65.616 10.3402 65.5873 10.3968C65.5585 10.4534 65.5184 10.5039 65.4696 10.5454C65.3763 10.6254 65.2561 10.6691 65.1319 10.6682H63.4854L61.9239 19.3446C61.8998 19.502 61.8168 19.6451 61.6913 19.7465C61.5741 19.8458 61.4242 19.9006 61.2692 19.9011H60.4668C60.3988 19.9048 60.3309 19.8925 60.2686 19.8656C60.2061 19.8387 60.1513 19.798 60.1081 19.7465C60.0652 19.6894 60.0356 19.6239 60.0212 19.5544C60.0066 19.4851 60.0078 19.4136 60.0243 19.3446M66.673 15.5933L67.0743 13.3882C67.1648 12.8588 67.3244 12.3428 67.5491 11.853C67.7821 11.3366 68.1033 10.8628 68.499 10.4517C68.9171 10.0207 69.4148 9.67091 69.966 9.42074C70.5742 9.14629 71.2378 9.00895 71.9076 9.01884C72.3272 9.02096 72.7439 9.08712 73.1425 9.2149C73.5401 9.33591 73.9093 9.53212 74.2294 9.79236C74.724 10.2083 75.054 10.7802 75.162 11.4088C75.2701 12.0374 75.1493 12.6831 74.8209 13.2339C74.5404 13.6647 74.1564 14.022 73.702 14.2746C73.0961 14.6051 72.4411 14.8415 71.7605 14.9753C70.7248 15.1824 69.6732 15.3064 68.6168 15.3461L68.553 15.7582C68.2012 17.5863 68.8907 18.5003 70.6217 18.5003C71.4167 18.4861 72.2059 18.3611 72.9648 18.1291C73.1035 18.0861 73.2533 18.0936 73.3868 18.1499C73.4422 18.1768 73.4892 18.2179 73.5226 18.2687C73.5561 18.3194 73.5749 18.378 73.5771 18.4386L73.6191 19.1182C73.6353 19.2604 73.5974 19.4034 73.5131 19.5201C73.4262 19.6386 73.2991 19.7225 73.1542 19.7572C72.2427 20.0234 71.2972 20.162 70.3459 20.1692C69.7439 20.1796 69.1459 20.0746 68.5854 19.8603C68.0911 19.668 67.6551 19.3558 67.3186 18.9534C66.9767 18.5306 66.7482 18.0311 66.6538 17.5004C66.5404 16.869 66.5466 16.2225 66.6722 15.5933H66.673ZM68.8465 13.9873C69.764 13.9625 70.675 13.8275 71.5588 13.5854C72.0803 13.471 72.5591 13.2177 72.9421 12.8537C73.1489 12.6253 73.2683 12.334 73.28 12.0294C73.2903 11.8421 73.2557 11.655 73.1787 11.4832C73.1016 11.3113 72.9844 11.1595 72.8365 11.0398C72.4893 10.7902 72.064 10.6664 71.6335 10.6895C71.1748 10.6879 70.7263 10.8208 70.3459 11.0709C69.9554 11.3211 69.6417 11.6701 69.4384 12.0805C69.2378 12.4698 69.0888 12.8824 68.9948 13.3083L68.8465 13.9873Z" fill="#00499B"/>
<path d="M92.2626 1.8726L89.6263 6.15432L84.1879 6.14649C84.0307 6.14694 83.8768 6.1893 83.7428 6.26901C83.6088 6.3487 83.4999 6.46273 83.4275 6.5988C83.355 6.73487 83.3222 6.88782 83.3321 7.04118C83.3423 7.19454 83.3949 7.34251 83.4844 7.46913L87.8831 13.6178L84.4814 13.617C84.3749 13.6163 84.2703 13.5891 84.1776 13.5379C84.0847 13.4866 84.0066 13.4131 83.9508 13.3243L80.4283 7.73206C80.3716 7.64106 80.3397 7.53727 80.3363 7.43087C80.3327 7.32449 80.3576 7.21917 80.4084 7.12523L83.5567 1.27669C83.6072 1.17794 83.6852 1.09514 83.7815 1.03765C83.878 0.980158 83.989 0.950286 84.1022 0.951417L91.722 0.941895C91.8328 0.943229 91.9414 0.97306 92.0369 1.02839C92.1323 1.08371 92.2113 1.16258 92.2659 1.25706C92.3204 1.35153 92.3484 1.45827 92.3474 1.56654C92.3465 1.67481 92.3163 1.78079 92.26 1.87379" fill="#27529A"/>
<path d="M92.3278 13.6453L87.8886 13.6378L83.4235 7.45904C83.3328 7.33159 83.2794 7.18242 83.2693 7.02776C83.2593 6.87311 83.2929 6.7189 83.3663 6.58193C83.4398 6.44497 83.5504 6.33052 83.686 6.25102C83.8217 6.17154 83.9773 6.13005 84.1357 6.13112L89.6502 6.14381L89.1542 6.93931C89.0914 7.04049 89.0599 7.15737 89.0635 7.27588C89.0671 7.3944 89.1057 7.50952 89.1745 7.6074L92.8439 12.6886C92.9101 12.7805 92.949 12.8884 92.9566 13.0004C92.9642 13.1123 92.9399 13.224 92.8864 13.3231C92.8331 13.4222 92.7525 13.5048 92.654 13.5618C92.5554 13.6188 92.4425 13.6479 92.3278 13.6461" fill="#FFCC6F"/>
<path d="M90.4374 12.5915L88.8525 10.534C88.8136 10.4911 88.7594 10.4647 88.7011 10.4606L87.3849 10.4088C87.3309 10.4069 87.3097 10.4357 87.3402 10.476L88.9251 12.5335C88.964 12.5762 89.0183 12.6024 89.0765 12.6065L90.3926 12.6583C90.4466 12.6606 90.4678 12.6315 90.4375 12.5932" fill="white"/>
<path d="M100.451 14.25L95.6105 6.56559C95.5338 6.44219 95.4259 6.34009 95.2972 6.26911C95.1687 6.19812 95.0236 6.16068 94.8762 6.16037L89.625 6.15576L89.1362 6.94657C89.0741 7.04742 89.0429 7.16361 89.0464 7.28145C89.0498 7.3993 89.0877 7.51388 89.1553 7.61169L92.7696 12.6671C92.8352 12.7584 92.8737 12.8655 92.8813 12.9766C92.8889 13.0877 92.865 13.1986 92.8123 13.2971C92.7597 13.3956 92.6802 13.4779 92.5828 13.535C92.4854 13.5922 92.3736 13.622 92.2597 13.6212L87.8818 13.6172L88.4523 14.4191C88.5433 14.554 88.5942 14.7108 88.5994 14.8719C88.6047 15.0331 88.564 15.1923 88.4821 15.3318L84.1823 22.3069C84.105 22.4346 84.0637 22.5803 84.0625 22.7291C84.0615 22.8779 84.1005 23.0245 84.1759 23.1541C84.2513 23.2836 84.3602 23.3915 84.4916 23.4671C84.623 23.5426 84.7726 23.5827 84.9246 23.5838L95.3963 23.571C95.5525 23.5724 95.7058 23.5314 95.8395 23.4527C95.973 23.3741 96.0816 23.2608 96.1533 23.1255L100.483 15.086C100.547 14.9546 100.577 14.8099 100.572 14.6642C100.566 14.5185 100.525 14.376 100.452 14.249" fill="#00499B"/>
</g>
<defs>
<clipPath id="clip0_83_22508">
<rect width="101.852" height="25" fill="white"/>
</clipPath>
</defs>
</svg>
