<svg width="27" height="26" viewBox="0 0 27 26" fill="none" xmlns="http://www.w3.org/2000/svg">
<mask id="mask0_164_4583" style="mask-type:luminance" maskUnits="userSpaceOnUse" x="0" y="0" width="27" height="26">
<path d="M0.5 1.90735e-06H26.5V26H0.5V1.90735e-06Z" fill="white"/>
</mask>
<g mask="url(#mask0_164_4583)">
<path d="M4.61328 19.9063V6.09375C4.61328 3.28915 6.88681 1.01563 9.69141 1.01563H6.59375C3.78915 1.01563 1.51562 3.28915 1.51562 6.09375V19.9063C1.51562 22.7108 3.78915 24.9844 6.59375 24.9844H9.69141C6.88681 24.9844 4.61328 22.7108 4.61328 19.9063Z" fill="#C6E1F2"/>
<path d="M25.4844 10.8672V6.09375C25.4844 3.28915 23.2108 1.01563 20.4062 1.01563H6.59375C3.78915 1.01563 1.51562 3.28915 1.51562 6.09375V19.9063C1.51562 22.7108 3.78915 24.9844 6.59375 24.9844H17.5625" stroke="#00499B" stroke-width="2" stroke-miterlimit="10" stroke-linecap="round" stroke-linejoin="round"/>
<path d="M9.64062 19.957V10.334C9.64062 7.96413 11.5618 6.04297 13.9316 6.04297C16.3015 6.04297 18.2227 7.96413 18.2227 10.334V10.4355C18.2227 12.8054 16.3015 14.7266 13.9316 14.7266H9.70771" stroke="#47D355" stroke-width="2" stroke-miterlimit="10" stroke-linecap="round" stroke-linejoin="round"/>
<path d="M19 14.9993H21.408C21.506 14.9993 21.632 15.0039 21.786 15.0133C21.9447 15.0179 22.0893 15.0319 22.22 15.0553C22.7987 15.1439 23.277 15.3399 23.655 15.6433C24.0377 15.9419 24.32 16.3176 24.502 16.7703C24.6887 17.2229 24.782 17.7269 24.782 18.2823C24.782 19.0943 24.5883 19.7826 24.201 20.3473C23.8183 20.9073 23.2327 21.2783 22.444 21.4603C22.2527 21.5023 22.0847 21.5303 21.94 21.5443C21.7953 21.5536 21.6157 21.5583 21.401 21.5583H19V19.9833H21.338C21.436 19.9833 21.541 19.9786 21.653 19.9693C21.7697 19.9599 21.8793 19.9413 21.982 19.9133C22.2573 19.8386 22.4743 19.7149 22.633 19.5423C22.7963 19.3649 22.9107 19.1643 22.976 18.9403C23.046 18.7163 23.081 18.4969 23.081 18.2823C23.081 18.0676 23.046 17.8483 22.976 17.6243C22.9107 17.3956 22.7963 17.1926 22.633 17.0153C22.4743 16.8379 22.2573 16.7143 21.982 16.6443C21.8793 16.6163 21.7697 16.5999 21.653 16.5953C21.541 16.5859 21.436 16.5813 21.338 16.5813H19V14.9993ZM19 21.5583L20.834 21.1383L25.272 25.0793H22.92L19 21.5583ZM19.049 18.9193V17.6453H25.972V18.9193H19.049ZM21.198 16.2733V14.9993H25.93V16.2733H21.198Z" fill="#F3C521"/>
</g>
</svg>
