<svg width="40" height="40" viewBox="0 0 40 40" fill="none" xmlns="http://www.w3.org/2000/svg">
<path d="M18.4564 19.0944C12.8067 21.0223 6.59054 16.5467 6.69866 10.5469C6.59023 4.54834 12.8074 0.0698987 18.4564 1.99951C10.2233 4.70115 10.2285 16.3959 18.4564 19.0944ZM27.0705 33.7501V31.6408C27.0705 29.0519 29.1691 26.9533 31.758 26.9533H27.0705C24.4816 26.9533 22.383 29.0519 22.383 31.6408V33.7501C22.383 36.339 24.4816 38.4376 27.0705 38.4376H31.758C29.1691 38.4376 27.0705 36.339 27.0705 33.7501Z" fill="#CEE1F2"/>
<path d="M34.4917 25.7314V23.6719C34.2552 17.4603 25.3509 17.465 25.1167 23.6719V25.7049C22.6243 26.5271 20.8198 28.8764 20.8198 31.6406V33.75C20.8198 37.1963 23.6236 40 27.0698 40H32.4604C35.9067 40 38.7104 37.1963 38.7104 33.75V31.6406C38.7104 28.9054 36.9435 26.5766 34.4917 25.7314ZM29.8042 22.1094C30.6657 22.1094 31.3667 22.8103 31.3667 23.6719V25.3907H28.2417V23.6719C28.2417 22.8103 28.9427 22.1094 29.8042 22.1094ZM35.5854 33.75C35.5854 35.4731 34.1835 36.875 32.4604 36.875H27.0698C25.3467 36.875 23.9448 35.4731 23.9448 33.75V31.6406C23.9448 29.9175 25.3467 28.5156 27.0698 28.5156H32.4604C34.1835 28.5156 35.5854 29.9175 35.5854 31.6406V33.75ZM27.0698 10.5469C27.0698 4.73132 22.3385 0 16.5229 0C2.55031 0.530233 2.55414 20.5657 16.5231 21.0937C22.3386 21.0937 27.0698 16.3624 27.0698 10.5469ZM16.5229 17.9687C12.4305 17.9687 9.10108 14.6393 9.10108 10.5469C9.4742 0.714295 23.5732 0.716952 23.9448 10.5469C23.9448 14.6393 20.6154 17.9687 16.5229 17.9687Z" fill="#023874"/>
<path d="M29.4215 36C28.6062 36 27.8404 35.6547 27.2652 35.0276L25.234 32.8021C24.5153 31.954 25.6108 30.8046 26.3852 31.5929L28.4149 33.8169C28.9459 34.4195 29.8983 34.4192 30.4296 33.8153L34.6209 29.2573C34.9334 28.9176 35.4434 28.9138 35.7602 29.249C36.0769 29.5842 36.0804 30.1313 35.7679 30.4711L31.5772 35.0283C31.0026 35.6547 30.2368 36 29.4215 36Z" fill="#F3C521"/>
<path d="M2.85156 40C1.98859 40 1.28906 39.3005 1.28906 38.4375V36.7969C1.28906 31.1242 4.63063 25.9933 9.80219 23.7254C11.7298 22.9644 12.9217 25.6865 11.0572 26.5874C7.02164 28.3571 4.41406 32.3646 4.41406 36.7969V38.4375C4.41406 39.3005 3.71453 40 2.85156 40Z" fill="#F3C521"/>
</svg>
