<svg width="27" height="26" viewBox="0 0 27 26" fill="none" xmlns="http://www.w3.org/2000/svg">
<g clip-path="url(#clip0_164_4642)">
<path d="M4.5625 14.8281V5.07812C4.5625 2.83446 6.38133 1.01562 8.625 1.01562H5.57812C3.33446 1.01562 1.51562 2.83446 1.51562 5.07812V14.8281C1.51562 17.0718 3.33446 18.8906 5.57812 18.8906H8.625C6.38133 18.8906 4.5625 17.0718 4.5625 14.8281Z" fill="#CEE1F2"/>
<path d="M9.23438 18.8906H5.57812C3.33446 18.8906 1.51562 17.0718 1.51562 14.8281V5.07812C1.51562 2.83446 3.33446 1.01562 5.57812 1.01562H15.3281C17.5718 1.01562 19.3906 2.83446 19.3906 5.07812V8.73438" stroke="#00499B" stroke-width="2" stroke-miterlimit="10" stroke-linecap="round" stroke-linejoin="round"/>
<path d="M19.3906 24.9844C22.7561 24.9844 25.4844 22.2561 25.4844 18.8906C25.4844 15.5251 22.7561 12.7969 19.3906 12.7969C16.0251 12.7969 13.2969 15.5251 13.2969 18.8906C13.2969 22.2561 16.0251 24.9844 19.3906 24.9844Z" stroke="#00499B" stroke-width="2" stroke-miterlimit="10" stroke-linecap="round" stroke-linejoin="round"/>
<path d="M19.3906 16.8594V18.8906L21.4219 20.9219" stroke="#FF535D" stroke-width="2" stroke-miterlimit="10" stroke-linecap="round" stroke-linejoin="round"/>
<path d="M7 5H9.408C9.506 5 9.632 5.00467 9.786 5.014C9.94467 5.01867 10.0893 5.03267 10.22 5.056C10.7987 5.14467 11.277 5.34067 11.655 5.644C12.0377 5.94267 12.32 6.31833 12.502 6.771C12.6887 7.22367 12.782 7.72767 12.782 8.283C12.782 9.095 12.5883 9.78333 12.201 10.348C11.8183 10.908 11.2327 11.279 10.444 11.461C10.2527 11.503 10.0847 11.531 9.94 11.545C9.79533 11.5543 9.61567 11.559 9.401 11.559H7V9.984H9.338C9.436 9.984 9.541 9.97933 9.653 9.97C9.76967 9.96067 9.87933 9.942 9.982 9.914C10.2573 9.83933 10.4743 9.71567 10.633 9.543C10.7963 9.36567 10.9107 9.165 10.976 8.941C11.046 8.717 11.081 8.49767 11.081 8.283C11.081 8.06833 11.046 7.849 10.976 7.625C10.9107 7.39633 10.7963 7.19333 10.633 7.016C10.4743 6.83867 10.2573 6.715 9.982 6.645C9.87933 6.617 9.76967 6.60067 9.653 6.596C9.541 6.58667 9.436 6.582 9.338 6.582H7V5ZM7 11.559L8.834 11.139L13.272 15.08H10.92L7 11.559ZM7.049 8.92V7.646H13.972V8.92H7.049ZM9.198 6.274V5H13.93V6.274H9.198Z" fill="#F3C521"/>
</g>
<defs>
<clipPath id="clip0_164_4642">
<rect width="26" height="26" fill="white" transform="translate(0.5)"/>
</clipPath>
</defs>
</svg>
