<svg width="40" height="40" viewBox="0 0 40 40" fill="none" xmlns="http://www.w3.org/2000/svg">
<path d="M12.4998 15C13.4656 14.9955 14.4172 14.7674 15.2801 14.3337C16.143 13.9 16.8938 13.2724 17.4736 12.5H29.9998C30.3283 12.5009 30.6536 12.4366 30.957 12.3109C31.2604 12.1851 31.5358 12.0005 31.7673 11.7675L33.0173 10.5175C33.486 10.0487 33.7493 9.41293 33.7493 8.75002C33.7493 8.08711 33.486 7.45134 33.0173 6.98252L31.7673 5.73252C31.5358 5.49958 31.2604 5.31489 30.957 5.18915C30.6536 5.06342 30.3283 4.99913 29.9998 5.00002H17.4748C16.8343 4.15166 15.9877 3.481 15.0152 3.05165C14.0428 2.6223 12.9768 2.44849 11.9183 2.54672C10.8598 2.64494 9.84402 3.01193 8.96718 3.61289C8.09035 4.21385 7.38157 5.02885 6.90808 5.98059C6.43459 6.93232 6.21209 7.98924 6.26168 9.0511C6.31126 10.1129 6.63129 11.1445 7.19142 12.048C7.75154 12.9515 8.53318 13.6969 9.4622 14.2135C10.3912 14.7301 11.4368 15.0009 12.4998 15ZM8.85609 7.83377C9.01705 7.18094 9.35159 6.58381 9.82427 6.10563C10.297 5.62744 10.8902 5.28602 11.5411 5.11752C11.8548 5.0401 12.1767 5.00065 12.4998 5.00002C13.1559 4.99766 13.8007 5.17013 14.368 5.49968C14.9352 5.82922 15.4044 6.30395 15.7273 6.87502C15.8368 7.06467 15.9942 7.22223 16.1838 7.33192C16.3733 7.44161 16.5884 7.49958 16.8073 7.50002H29.9998L31.2498 8.75002L29.9998 10H27.4998C27.4998 9.6685 27.3681 9.35056 27.1337 9.11614C26.8993 8.88171 26.5814 8.75002 26.2498 8.75002C25.9183 8.75002 25.6004 8.88171 25.366 9.11614C25.1315 9.35056 24.9998 9.6685 24.9998 10H22.4998C22.4998 9.6685 22.3681 9.35056 22.1337 9.11614C21.8993 8.88171 21.5814 8.75002 21.2498 8.75002C20.9183 8.75002 20.6004 8.88171 20.366 9.11614C20.1315 9.35056 19.9998 9.6685 19.9998 10H16.8061C16.5871 10.0005 16.3721 10.0584 16.1825 10.1681C15.993 10.2778 15.8356 10.4354 15.7261 10.625C15.4232 11.1551 14.9947 11.6027 14.4783 11.9285C13.9619 12.2542 13.3735 12.4482 12.7646 12.4934C12.1558 12.5386 11.5451 12.4336 10.9863 12.1875C10.4275 11.9415 9.93769 11.5621 9.55984 11.0825C9.20071 10.6315 8.95039 10.1038 8.82833 9.54038C8.70628 8.97694 8.71578 8.39294 8.85609 7.83377Z" fill="#023874"/>
<path d="M29.375 30C30.0654 30 30.625 29.4404 30.625 28.75C30.625 28.0596 30.0654 27.5 29.375 27.5C28.6846 27.5 28.125 28.0596 28.125 28.75C28.125 29.4404 28.6846 30 29.375 30Z" fill="#F3C521"/>
<path d="M10.625 30C11.3154 30 11.875 29.4404 11.875 28.75C11.875 28.0596 11.3154 27.5 10.625 27.5C9.93464 27.5 9.375 28.0596 9.375 28.75C9.375 29.4404 9.93464 30 10.625 30Z" fill="#F3C521"/>
<path d="M33.4363 25H33.75C34.0815 25 34.3995 24.8683 34.6339 24.6339C34.8683 24.3995 35 24.0815 35 23.75C35 23.4185 34.8683 23.1006 34.6339 22.8661C34.3995 22.6317 34.0815 22.5 33.75 22.5H31.5625L31.0625 21.8413L29.3038 18.3225C28.9946 17.699 28.5171 17.1744 27.9253 16.8081C27.3335 16.4418 26.651 16.2485 25.955 16.25H14.045C13.3482 16.2476 12.6646 16.4405 12.0718 16.8068C11.479 17.1731 11.0008 17.6982 10.6913 18.3225L8.9325 21.8413L8.4375 22.5H6.25C5.91848 22.5 5.60054 22.6317 5.36612 22.8661C5.1317 23.1006 5 23.4185 5 23.75C5 24.0815 5.1317 24.3995 5.36612 24.6339C5.60054 24.8683 5.91848 25 6.25 25H6.5625L5.75125 26.0825C5.26602 26.7325 5.00304 27.5214 5.00125 28.3325V33.75C5.00125 34.7446 5.39634 35.6984 6.0996 36.4017C6.80286 37.1049 7.75669 37.5 8.75125 37.5H10C10.9946 37.5 11.9484 37.1049 12.6517 36.4017C13.3549 35.6984 13.75 34.7446 13.75 33.75H26.25C26.25 34.7446 26.6451 35.6984 27.3483 36.4017C28.0516 37.1049 29.0054 37.5 30 37.5H31.25C32.2446 37.5 33.1984 37.1049 33.9017 36.4017C34.6049 35.6984 35 34.7446 35 33.75V28.3338C34.9987 27.5226 34.7356 26.7335 34.25 26.0838L33.4363 25ZM11.125 23.0588L12.9338 19.4413C13.037 19.2346 13.1955 19.0606 13.3917 18.9386C13.5878 18.8166 13.814 18.7513 14.045 18.75H25.955C26.1871 18.7501 26.4145 18.8149 26.6119 18.937C26.8093 19.059 26.9688 19.2337 27.0725 19.4413L28.8812 23.0588C28.9155 23.1257 28.9552 23.1897 29 23.25L29.0413 23.3038L28.6862 23.54C28.4831 23.676 28.2444 23.749 28 23.75H12.0062C11.7597 23.7503 11.5186 23.6772 11.3137 23.54L10.9588 23.3038L11 23.25C11.047 23.1899 11.0888 23.1259 11.125 23.0588ZM32.5 33.75C32.5 34.0815 32.3683 34.3995 32.1339 34.6339C31.8995 34.8683 31.5815 35 31.25 35H30C29.6685 35 29.3505 34.8683 29.1161 34.6339C28.8817 34.3995 28.75 34.0815 28.75 33.75V32.5C28.75 32.1685 28.6183 31.8506 28.3839 31.6161C28.1495 31.3817 27.8315 31.25 27.5 31.25H12.5C12.1685 31.25 11.8505 31.3817 11.6161 31.6161C11.3817 31.8506 11.25 32.1685 11.25 32.5V33.75C11.25 34.0815 11.1183 34.3995 10.8839 34.6339C10.6495 34.8683 10.3315 35 10 35H8.75C8.41848 35 8.10054 34.8683 7.86612 34.6339C7.6317 34.3995 7.5 34.0815 7.5 33.75V28.3338C7.50098 28.0635 7.5886 27.8006 7.75 27.5838L9.4575 25.3088L9.92625 25.6213C10.5425 26.0308 11.2664 26.2483 12.0062 26.2463H28C28.7399 26.2483 29.4638 26.0308 30.08 25.6213L30.5487 25.3088L32.25 27.5838C32.4118 27.8004 32.4995 28.0634 32.5 28.3338V33.75Z" fill="#023874"/>
</svg>
