<svg width="28" height="25" viewBox="0 0 28 25" fill="none" xmlns="http://www.w3.org/2000/svg">
<path d="M24.7188 0.46875C22.9095 0.46875 21.4375 1.94072 21.4375 3.75V16.875C21.4375 18.6843 22.9095 20.1562 24.7188 20.1562C25.3218 20.1562 25.8125 20.6469 25.8125 21.25C25.8125 21.8531 25.3218 22.3438 24.7188 22.3438H3.28125C2.67816 22.3438 2.1875 21.8531 2.1875 21.25V8.125C2.1875 7.52191 2.67816 7.03125 3.28125 7.03125H18.375C18.9791 7.03125 19.4688 6.54158 19.4688 5.9375C19.4688 5.33342 18.9791 4.84375 18.375 4.84375H3.28125C1.47197 4.84375 0 6.31572 0 8.125V21.25C0 23.0593 1.47197 24.5312 3.28125 24.5312H24.7188C26.528 24.5312 28 23.0593 28 21.25V3.75C28 1.94072 26.528 0.46875 24.7188 0.46875ZM25.8125 18.1562C25.4703 18.0348 25.1021 17.9688 24.7188 17.9688C24.1157 17.9688 23.625 17.4781 23.625 16.875V3.75C23.625 3.14691 24.1157 2.65625 24.7188 2.65625C25.3218 2.65625 25.8125 3.14691 25.8125 3.75V18.1562Z" fill="#00499B"/>
<path d="M4.375 10.3125V19.0625C4.375 19.6666 4.86467 20.1562 5.46875 20.1562C6.07283 20.1562 6.5625 19.6666 6.5625 19.0625V10.3125C6.5625 9.70842 6.07283 9.21875 5.46875 9.21875C4.86467 9.21875 4.375 9.70842 4.375 10.3125Z" fill="#00499B"/>
<path d="M8.53125 10.3125V14.6875C8.53125 15.2916 9.02092 15.7812 9.625 15.7812C10.2291 15.7812 10.7188 15.2916 10.7188 14.6875V10.3125C10.7188 9.70842 10.2291 9.21875 9.625 9.21875C9.02092 9.21875 8.53125 9.70842 8.53125 10.3125Z" fill="#00499B"/>
<path d="M12.9062 10.3125V19.0625C12.9062 19.6666 13.3959 20.1562 14 20.1562C14.6041 20.1562 15.0938 19.6666 15.0938 19.0625V10.3125C15.0938 9.70842 14.6041 9.21875 14 9.21875C13.3959 9.21875 12.9062 9.70842 12.9062 10.3125Z" fill="#00499B"/>
<path d="M18.375 9.21875C17.7709 9.21875 17.2812 9.70842 17.2812 10.3125V14.6875C17.2812 15.2916 17.7709 15.7812 18.375 15.7812C18.9791 15.7812 19.4688 15.2916 19.4688 14.6875V10.3125C19.4688 9.70842 18.9791 9.21875 18.375 9.21875Z" fill="#00499B"/>
</svg>
