<svg width="274" height="245" viewBox="0 0 274 245" fill="none" xmlns="http://www.w3.org/2000/svg">
<path d="M88.8479 179.873H197.656C200.649 179.873 203.076 177.457 203.076 174.479L203.069 23.5092C202.99 19.4665 201.035 17.1475 197.656 17.1475L88.8479 17.6113C86.1579 17.6113 83.8649 19.5623 83.4355 22.2182L83.4297 174.479C83.4297 177.459 85.8554 179.873 88.8491 179.873H88.8479Z" fill="#F3C521"/>
<path d="M84.73 180.142H193.553C196.547 180.142 198.974 177.727 198.973 174.748L198.966 23.8391C198.887 19.7975 196.932 17.4993 193.552 17.4993H84.7276C83.4946 17.4993 82.3447 17.91 81.4199 18.6103C80.0575 19.6418 79.314 21.2882 79.314 22.9853L79.3105 174.75C79.3105 177.729 81.7374 180.143 84.73 180.143V180.142Z" fill="white"/>
<path d="M193.554 180.398H84.7304C83.2145 180.398 81.7886 179.811 80.7172 178.744C79.6447 177.677 79.0547 176.258 79.0547 174.748L79.0582 22.9843C79.0582 21.1637 79.8836 19.4515 81.2656 18.405C82.2701 17.6447 83.4673 17.2421 84.7281 17.2421H193.553C197.075 17.2421 199.142 19.6442 199.223 23.8334L199.23 174.747C199.23 176.256 198.64 177.676 197.567 178.743C196.496 179.81 195.07 180.397 193.554 180.397V180.398ZM84.7281 17.7555C83.5805 17.7555 82.4906 18.1212 81.575 18.8146C80.3201 19.7653 79.5708 21.324 79.5708 22.9854L79.5673 174.75C79.5673 176.121 80.1042 177.411 81.0786 178.382C82.0542 179.352 83.3507 179.886 84.7304 179.886H193.554C194.934 179.886 196.23 179.352 197.206 178.382C198.181 177.411 198.717 176.121 198.717 174.75L198.71 23.8404C198.634 19.9188 196.803 17.7566 193.553 17.7566H84.7281V17.7555Z" fill="#F3C521"/>
<path d="M165.82 13.7681H115.204C113.896 13.7681 112.836 14.8275 112.836 16.1344V27.9523C112.836 29.2592 113.896 30.3186 115.204 30.3186H165.82C167.128 30.3186 168.188 29.2592 168.188 27.9523V16.1344C168.188 14.8275 167.128 13.7681 165.82 13.7681Z" fill="white"/>
<path d="M165.821 30.5758H115.205C113.758 30.5758 112.58 29.399 112.58 27.9522V16.1344C112.58 14.6876 113.758 13.5107 115.205 13.5107H165.821C167.268 13.5107 168.446 14.6876 168.446 16.1344V27.9522C168.446 29.399 167.268 30.5758 165.821 30.5758ZM115.205 14.0242C114.041 14.0242 113.094 14.9714 113.094 16.1344V27.9522C113.094 29.1164 114.042 30.0624 115.205 30.0624H165.821C166.985 30.0624 167.932 29.1152 167.932 27.9522V16.1344C167.932 14.9702 166.984 14.0242 165.821 14.0242H115.205Z" fill="#F3C521"/>
<path d="M140.317 0.764282C135.083 0.764282 130.861 5.02969 130.861 10.2908V24.5696C130.861 25.8526 131.896 26.8932 133.173 26.8932H147.461C148.738 26.8932 149.773 25.8526 149.773 24.5696V10.2908C149.773 5.02969 145.551 0.764282 140.317 0.764282ZM140.846 13.8132C138.328 14.1328 136.209 12.003 136.527 9.47163C136.743 7.74677 138.129 6.3542 139.845 6.13614C142.363 5.8177 144.48 7.94637 144.164 10.4777C143.948 12.2026 142.563 13.5951 140.846 13.8132Z" fill="white"/>
<path d="M147.461 27.1505H133.172C131.756 27.1505 130.604 25.9933 130.604 24.5707V10.2919C130.604 4.89699 134.961 0.509277 140.317 0.509277C145.673 0.509277 150.03 4.89814 150.03 10.2919V24.5707C150.03 25.9933 148.878 27.1505 147.462 27.1505H147.461ZM140.317 1.02154C135.244 1.02154 131.117 5.18081 131.117 10.2919V24.5707C131.117 25.7106 132.04 26.6382 133.172 26.6382H147.461C148.595 26.6382 149.516 25.7106 149.516 24.5707V10.2919C149.516 5.17966 145.389 1.02154 140.317 1.02154ZM140.347 14.1016C139.261 14.1016 138.229 13.6793 137.451 12.9029C136.539 11.9937 136.11 10.7315 136.272 9.4393C136.502 7.6083 137.99 6.11304 139.812 5.88229C141.086 5.72076 142.335 6.14534 143.238 7.04642C144.149 7.95558 144.579 9.21778 144.418 10.51C144.188 12.341 142.7 13.8362 140.878 14.0681C140.7 14.0912 140.523 14.1016 140.347 14.1016ZM140.342 6.36225C140.189 6.36225 140.033 6.37148 139.877 6.39225C138.284 6.59415 136.982 7.9025 136.781 9.50506C136.639 10.638 137.016 11.7456 137.814 12.5417C138.604 13.3309 139.698 13.7024 140.813 13.5605C142.406 13.3586 143.708 12.0491 143.908 10.4477C144.05 9.31469 143.674 8.20709 142.875 7.41101C142.195 6.7326 141.291 6.36225 140.341 6.36225H140.342Z" fill="#F3C521"/>
<path d="M185.729 58.3169C185.729 58.7714 185.224 59.8306 184.415 59.8306H178.405C177.597 59.8306 176.788 59.2756 175.652 59.2756H142.38C141.66 59.2756 139.943 58.821 139.185 58.3169C138.428 57.8115 138.352 57.6858 138.352 57.3581V55.3644C138.352 55.0621 139.26 54.7333 139.26 54.2037V51.2767C139.26 50.5198 146.079 45.6741 148.251 45.1445C150.422 44.6149 159.944 44.5642 162.494 44.7915C165.045 45.0187 170.525 47.7185 173.985 50.2683C177.698 50.2683 181.687 51.2005 183.431 52.2481C185.173 53.2969 185.729 55.0887 185.729 55.8455V58.3192V58.3169Z" fill="white"/>
<path d="M150.902 59.5317H142.381C142.219 59.5317 142.012 59.511 141.763 59.4694C141.656 59.4521 141.571 59.3679 141.552 59.2606C141.505 58.9837 141.48 58.7045 141.48 58.4299C141.48 55.7417 143.668 53.5553 146.358 53.5553C149.048 53.5553 151.236 55.7417 151.236 58.4299C151.236 58.7252 151.209 59.0252 151.153 59.3217C151.13 59.4429 151.025 59.5317 150.902 59.5317ZM142.03 58.9918C142.169 59.0102 142.289 59.0195 142.381 59.0195H150.683C150.71 58.8222 150.724 58.6249 150.724 58.4299C150.724 56.0243 148.766 54.0676 146.358 54.0676C143.951 54.0676 141.993 56.0243 141.993 58.4299C141.993 58.6156 142.006 58.8037 142.03 58.9918Z" fill="#003E83"/>
<path d="M180.614 60.0867H178.406C177.996 60.0867 177.604 59.9632 177.188 59.8328C176.717 59.6852 176.23 59.5317 175.653 59.5317H171.665C171.541 59.5317 171.435 59.444 171.413 59.3217C171.358 59.0252 171.33 58.7252 171.33 58.4299C171.33 55.7417 173.518 53.5553 176.208 53.5553C178.898 53.5553 181.086 55.7417 181.086 58.4299C181.086 58.9329 181.009 59.4302 180.857 59.9078C180.824 60.014 180.725 60.0867 180.613 60.0867H180.614ZM171.884 59.0195H175.653C176.308 59.0195 176.857 59.1914 177.342 59.3437C177.735 59.4671 178.075 59.5744 178.405 59.5744H180.421C180.523 59.2017 180.573 58.8175 180.573 58.4299C180.573 56.0243 178.615 54.0676 176.208 54.0676C173.801 54.0676 171.843 56.0243 171.843 58.4299C171.843 58.6249 171.857 58.8222 171.883 59.0195H171.884Z" fill="#003E83"/>
<path d="M182.888 53.2486C183.146 53.319 183.37 53.4759 183.526 53.6916C183.646 53.8578 183.771 54.0504 183.813 54.1773C183.902 54.4427 183.813 54.745 183.447 54.745H181.301C180.96 54.745 180.329 54.2281 179.976 53.8116C179.622 53.3951 179.091 52.7132 179.244 52.6255C179.386 52.5436 181.101 52.7582 182.89 53.2486H182.888Z" fill="#003E83"/>
<path d="M183.303 57.597C183.429 57.3467 183.736 57.1425 183.987 57.1425H185.729V58.3158C185.729 58.4416 185.69 58.6123 185.617 58.7958H183.153C182.901 58.7958 182.801 58.5927 182.928 58.3412L183.303 57.597Z" fill="#003E83"/>
<path d="M170.112 50.0779C170.332 50.2498 170.579 50.7217 170.112 50.7471C169.644 50.7725 160.553 50.4194 160.124 50.4125C159.694 50.4056 159.569 50.1541 159.492 49.8633C159.416 49.5726 158.886 46.9236 158.861 46.6963C158.835 46.469 158.835 46.2544 159.227 46.2544C159.618 46.2544 162.636 46.3675 164.328 46.9109C166.02 47.4531 168.267 48.6392 170.111 50.0779H170.112Z" fill="#003E83"/>
<path d="M157.737 46.7206C157.737 46.7206 157.851 49.7238 157.851 49.8749C157.851 50.0261 157.774 50.2787 157.485 50.2787C157.195 50.2787 148.001 50.0641 147.622 50.0515C147.244 50.0388 147.067 49.913 147.129 49.6476C147.193 49.3823 149.25 46.8844 150.943 46.4425C152.635 46.0006 157.042 46.2533 157.256 46.2533C157.47 46.2533 157.721 46.3433 157.736 46.7206H157.737Z" fill="#003E83"/>
<path d="M146.008 46.2267C146.541 46.3801 147.194 47.3331 146.632 47.6516C146.215 47.8892 144.878 49.0141 144.346 49.5068C143.817 49.9994 143.462 50.1506 143.083 50.1506H140.471C141.753 49.1087 144.331 47.2166 146.007 46.2267H146.008Z" fill="#003E83"/>
<path d="M139.261 54.2039V51.5029H141.42C141.735 51.5029 141.901 51.6229 141.735 52.074C141.572 52.5252 140.763 53.7366 140.536 53.9131C140.308 54.0896 140.106 54.2292 139.817 54.2292H139.258C139.258 54.2212 139.26 54.2131 139.26 54.2039H139.261Z" fill="#003E83"/>
<path d="M178.405 60.0866C177.997 60.0866 177.602 59.962 177.188 59.8328C176.717 59.6851 176.23 59.5317 175.653 59.5317H142.38C141.58 59.5317 139.818 59.046 139.044 58.5291C138.286 58.0249 138.096 57.8334 138.096 57.3569V55.3632C138.096 55.1094 138.317 54.9317 138.553 54.7436C138.755 54.5821 139.005 54.3814 139.005 54.2025V51.2743C139.005 50.2106 146.272 45.3613 148.191 44.8929C150.373 44.361 159.928 44.3034 162.518 44.5329C164.636 44.721 168.43 46.492 171.251 48.1626C173.091 49.2529 175.117 49.9475 177.272 50.2267C179.867 50.5624 182.278 51.2512 183.563 52.0242C185.328 53.0857 185.985 54.9282 185.985 55.8408V58.3145C185.985 58.7287 185.689 59.4094 185.214 59.789C184.897 60.0416 184.536 60.1339 184.171 60.0601L178.725 60.0578C178.618 60.0763 178.512 60.0843 178.405 60.0843V60.0866ZM138.608 55.384V57.3569C138.608 57.5565 138.608 57.6234 139.328 58.1022C140.01 58.5568 141.678 59.0183 142.38 59.0183H175.653C176.309 59.0183 176.857 59.1902 177.342 59.3425C177.827 59.4948 178.247 59.6263 178.655 59.5501C178.67 59.5478 178.686 59.5455 178.702 59.5455L184.199 59.5478C184.218 59.5478 184.237 59.5502 184.255 59.5548C184.478 59.6055 184.693 59.5502 184.894 59.3898C185.253 59.1048 185.472 58.5718 185.472 58.3156V55.842C185.472 55.1671 184.941 53.4526 183.298 52.465C182.07 51.7266 179.735 51.0643 177.205 50.7367C174.981 50.4482 172.889 49.7317 170.989 48.6045C167.659 46.6316 164.237 45.201 162.471 45.0441C159.905 44.8156 150.457 44.8675 148.312 45.3913C146.175 45.9128 139.726 50.5578 139.515 51.2962L139.517 54.2025C139.517 54.6271 139.159 54.9132 138.873 55.144C138.78 55.2178 138.642 55.3286 138.608 55.384Z" fill="#003E83"/>
<path d="M176.847 62.3447C179.015 61.993 180.488 59.9513 180.136 57.7845C179.784 55.6177 177.741 54.1463 175.572 54.498C173.404 54.8498 171.932 56.8914 172.284 59.0582C172.636 61.225 174.679 62.6964 176.847 62.3447Z" fill="#003E83"/>
<path d="M178.809 59.5065C179.404 58.0713 178.722 56.4259 177.286 55.8314C175.85 55.2369 174.203 55.9184 173.608 57.3537C173.014 58.7889 173.696 60.4343 175.132 61.0288C176.568 61.6233 178.215 60.9418 178.809 59.5065Z" fill="white"/>
<path d="M147.271 62.3053C149.409 61.8011 150.733 59.6604 150.228 57.5239C149.723 55.3875 147.581 54.0643 145.443 54.5685C143.305 55.0728 141.981 57.2135 142.486 59.3499C142.991 61.4864 145.133 62.8096 147.271 62.3053Z" fill="#003E83"/>
<path d="M148.958 59.5079C149.553 58.0726 148.871 56.4272 147.435 55.8327C145.998 55.2382 144.352 55.9198 143.757 57.355C143.162 58.7902 143.844 60.4357 145.28 61.0302C146.716 61.6247 148.363 60.9431 148.958 59.5079Z" fill="white"/>
<path d="M186.203 68.3128H137.879C136.156 68.3128 134.756 66.9122 134.756 65.192V41.8747C134.756 40.1533 136.157 38.7538 137.879 38.7538H186.203C187.926 38.7538 189.326 40.1533 189.326 41.8747V65.192C189.326 66.9133 187.925 68.3128 186.203 68.3128ZM137.879 39.266C136.439 39.266 135.268 40.436 135.268 41.8747V65.192C135.268 66.6307 136.439 67.8006 137.879 67.8006H186.203C187.643 67.8006 188.814 66.6307 188.814 65.192V41.8747C188.814 40.436 187.643 39.266 186.203 39.266H137.879Z" fill="#003E83"/>
<path d="M119.993 79.8076H102.442C101.257 79.8076 100.293 78.8442 100.293 77.6604C100.293 76.4767 101.257 75.5133 102.442 75.5133H119.294C119.436 75.5133 119.551 75.6275 119.551 75.7694C119.551 75.9114 119.436 76.0256 119.294 76.0256H102.442C101.54 76.0256 100.806 76.7594 100.806 77.6604C100.806 78.5615 101.54 79.2953 102.442 79.2953H119.993C120.135 79.2953 120.249 79.4095 120.249 79.5514C120.249 79.6933 120.135 79.8076 119.993 79.8076Z" fill="#F3C521"/>
<path d="M167.792 79.8076H138.538C138.396 79.8076 138.281 79.6933 138.281 79.5514C138.281 79.4095 138.396 79.2953 138.538 79.2953H167.792C168.694 79.2953 169.428 78.5615 169.428 77.6604C169.428 76.7594 168.694 76.0256 167.792 76.0256H138.756C138.614 76.0256 138.499 75.9114 138.499 75.7694C138.499 75.6275 138.614 75.5133 138.756 75.5133H167.792C168.977 75.5133 169.941 76.4767 169.941 77.6604C169.941 78.8442 168.977 79.8076 167.792 79.8076Z" fill="#003E83"/>
<path d="M167.792 88.7077H154.129C152.945 88.7077 151.98 87.7443 151.98 86.5606C151.98 85.3768 152.945 84.4135 154.129 84.4135H167.792C168.976 84.4135 169.94 85.3768 169.94 86.5606C169.94 87.7443 168.976 88.7077 167.792 88.7077ZM154.129 84.9269C153.227 84.9269 152.493 85.6607 152.493 86.5617C152.493 87.4628 153.227 88.1966 154.129 88.1966H167.792C168.694 88.1966 169.428 87.4628 169.428 86.5617C169.428 85.6607 168.694 84.9269 167.792 84.9269H154.129Z" fill="#003E83"/>
<path d="M167.792 98.3044H102.442C101.257 98.3044 100.293 97.341 100.293 96.1573C100.293 94.9735 101.257 94.0101 102.442 94.0101H167.792C168.977 94.0101 169.941 94.9735 169.941 96.1573C169.941 97.341 168.977 98.3044 167.792 98.3044ZM102.442 94.5236C101.54 94.5236 100.806 95.2573 100.806 96.1584C100.806 97.0595 101.54 97.7933 102.442 97.7933H167.792C168.694 97.7933 169.428 97.0595 169.428 96.1584C169.428 95.2573 168.694 94.5236 167.792 94.5236H102.442Z" fill="#003E83"/>
<path d="M167.793 107.205H160.979C159.794 107.205 158.83 106.241 158.83 105.057C158.83 103.874 159.794 102.91 160.979 102.91H167.793C168.977 102.91 169.941 103.874 169.941 105.057C169.941 106.241 168.977 107.205 167.793 107.205ZM160.979 103.424C160.077 103.424 159.343 104.157 159.343 105.059C159.343 105.96 160.077 106.693 160.979 106.693H167.793C168.694 106.693 169.429 105.96 169.429 105.059C169.429 104.157 168.694 103.424 167.793 103.424H160.979Z" fill="#003E83"/>
<path d="M167.792 116.321H155.912C154.728 116.321 153.764 115.358 153.764 114.174C153.764 112.991 154.728 112.027 155.912 112.027H167.792C168.977 112.027 169.941 112.991 169.941 114.174C169.941 115.358 168.977 116.321 167.792 116.321ZM155.912 112.541C155.011 112.541 154.276 113.274 154.276 114.176C154.276 115.077 155.011 115.81 155.912 115.81H167.792C168.694 115.81 169.428 115.077 169.428 114.176C169.428 113.274 168.694 112.541 167.792 112.541H155.912Z" fill="#003E83"/>
<path d="M127.106 42.6892H103.117C101.933 42.6892 100.969 41.7258 100.969 40.542C100.969 39.3583 101.933 38.3949 103.117 38.3949H127.106C128.291 38.3949 129.255 39.3583 129.255 40.542C129.255 41.7258 128.291 42.6892 127.106 42.6892ZM103.117 38.9083C102.216 38.9083 101.481 39.6421 101.481 40.5432C101.481 41.4443 102.216 42.178 103.117 42.178H127.106C128.008 42.178 128.742 41.4443 128.742 40.5432C128.742 39.6421 128.008 38.9083 127.106 38.9083H103.117Z" fill="#F3C521"/>
<path d="M127.106 50.7021H103.117C101.933 50.7021 100.969 49.7387 100.969 48.555C100.969 47.3712 101.933 46.4078 103.117 46.4078H127.106C128.291 46.4078 129.255 47.3712 129.255 48.555C129.255 49.7387 128.291 50.7021 127.106 50.7021ZM103.117 46.9213C102.216 46.9213 101.481 47.655 101.481 48.5561C101.481 49.4572 102.216 50.191 103.117 50.191H127.106C128.008 50.191 128.742 49.4572 128.742 48.5561C128.742 47.655 128.008 46.9213 127.106 46.9213H103.117Z" fill="#F3C521"/>
<path d="M116.269 58.7137H103.117C101.933 58.7137 100.969 57.7503 100.969 56.5666C100.969 55.3828 101.933 54.4194 103.117 54.4194H116.269C117.453 54.4194 118.417 55.3828 118.417 56.5666C118.417 57.7503 117.453 58.7137 116.269 58.7137ZM103.117 54.9329C102.216 54.9329 101.481 55.6666 101.481 56.5677C101.481 57.4688 102.216 58.2026 103.117 58.2026H116.269C117.17 58.2026 117.905 57.4688 117.905 56.5677C117.905 55.6666 117.17 54.9329 116.269 54.9329H103.117Z" fill="#F3C521"/>
<path d="M186.612 88.3961H179.151C177.654 88.3961 176.436 87.1789 176.436 85.6825V78.2269C176.436 76.7305 177.654 75.5133 179.151 75.5133H186.612C188.109 75.5133 189.327 76.7305 189.327 78.2269V85.6825C189.327 87.1789 188.109 88.3961 186.612 88.3961ZM179.151 76.0256C177.936 76.0256 176.948 77.0132 176.948 78.2258V85.6813C176.948 86.895 177.936 87.8827 179.151 87.8827H186.612C187.826 87.8827 188.815 86.895 188.815 85.6813V78.2258C188.815 77.012 187.826 76.0256 186.612 76.0256H179.151Z" fill="#F3C521"/>
<path d="M181.861 84.742C181.823 84.742 181.786 84.7385 181.748 84.7316C181.529 84.6901 181.349 84.5332 181.279 84.3209L180.117 81.29C180.066 81.1573 180.132 81.0096 180.265 80.9589C180.397 80.9081 180.545 80.9739 180.596 81.1065L181.763 84.1501C181.784 84.2113 181.822 84.2251 181.844 84.2297C181.864 84.2332 181.901 84.2344 181.932 84.2032L185.145 79.0771C185.22 78.9571 185.379 78.9213 185.498 78.9963C185.618 79.0713 185.654 79.2294 185.579 79.3494L182.354 84.494C182.348 84.5032 182.342 84.5124 182.335 84.5205C182.217 84.6636 182.043 84.7443 181.861 84.7443V84.742Z" fill="#F3C521"/>
<path d="M186.612 106.764H179.151C177.654 106.764 176.436 105.547 176.436 104.05V96.5946C176.436 95.0982 177.654 93.881 179.151 93.881H186.612C188.109 93.881 189.327 95.0982 189.327 96.5946V104.05C189.327 105.547 188.109 106.764 186.612 106.764ZM179.151 94.3932C177.936 94.3932 176.948 95.3809 176.948 96.5946V104.05C176.948 105.264 177.936 106.251 179.151 106.251H186.612C187.826 106.251 188.815 105.264 188.815 104.05V96.5946C188.815 95.3809 187.826 94.3932 186.612 94.3932H179.151Z" fill="#F3C521"/>
<path d="M181.822 103.309C181.783 103.309 181.744 103.306 181.704 103.298C181.476 103.255 181.29 103.091 181.217 102.871L179.976 99.6381C179.925 99.5054 179.991 99.3578 180.124 99.307C180.257 99.2562 180.404 99.322 180.455 99.4547L181.7 102.7C181.724 102.775 181.777 102.791 181.799 102.795C181.819 102.798 181.868 102.802 181.909 102.761L185.337 97.2926C185.412 97.1726 185.571 97.1368 185.69 97.2118C185.81 97.2868 185.846 97.4448 185.771 97.5648L182.333 103.051C182.327 103.06 182.32 103.069 182.313 103.077C182.191 103.226 182.009 103.309 181.821 103.309H181.822Z" fill="#F3C521"/>
<path d="M186.612 125.13H179.151C177.654 125.13 176.436 123.913 176.436 122.417V114.961C176.436 113.465 177.654 112.247 179.151 112.247H186.612C188.109 112.247 189.327 113.465 189.327 114.961V122.417C189.327 123.913 188.109 125.13 186.612 125.13ZM179.151 112.76C177.936 112.76 176.948 113.747 176.948 114.961V122.417C176.948 123.63 177.936 124.618 179.151 124.618H186.612C187.826 124.618 188.815 123.63 188.815 122.417V114.961C188.815 113.747 187.826 112.76 186.612 112.76H179.151Z" fill="#003E83"/>
<path d="M181.813 121.721C181.774 121.721 181.733 121.718 181.694 121.71C181.464 121.666 181.276 121.502 181.203 121.279L179.945 118C179.894 117.869 179.96 117.72 180.093 117.669C180.225 117.618 180.373 117.684 180.424 117.817L181.686 121.107C181.711 121.185 181.767 121.202 181.789 121.205C181.811 121.21 181.861 121.213 181.904 121.17L185.38 115.625C185.456 115.505 185.615 115.469 185.734 115.544C185.854 115.619 185.89 115.777 185.815 115.897L182.328 121.459C182.322 121.468 182.315 121.478 182.308 121.486C182.185 121.636 182.002 121.72 181.813 121.72V121.721Z" fill="#003E83"/>
<path d="M82.877 54.4497L83.8779 58.752C83.9472 59.0497 84.1354 59.3058 84.3998 59.4604L86.3475 60.6038C86.6107 60.7584 86.8001 61.0145 86.8694 61.3122L87.3843 63.5239C87.4559 63.8343 87.3924 64.1597 87.2088 64.4204L85.985 66.1522C85.8014 66.4118 85.7379 66.7383 85.8095 67.0486L86.1593 68.5508C86.299 69.1508 86.8982 69.5234 87.4986 69.3838C88.0989 69.2442 88.6981 69.618 88.8378 70.2168L89.153 71.5736C89.2927 72.1736 88.9187 72.7724 88.3195 72.912C87.7191 73.0516 87.3462 73.6504 87.4859 74.2503L87.8184 75.6798C87.8923 75.9971 88.1012 76.2659 88.3899 76.4159L90.2037 77.3597C90.4923 77.5097 90.7013 77.7785 90.7752 78.0958L91.3224 80.446C91.3928 80.7506 91.3328 81.0713 91.155 81.3298L89.9231 83.1227C89.7453 83.3811 89.6853 83.7019 89.7557 84.0065L90.2302 86.0463C90.3226 86.4409 90.6205 86.7547 91.0107 86.8654L94.6567 87.9061C95.0285 88.0123 95.4291 87.9188 95.7154 87.6581L98.4921 85.1279C98.79 84.8556 98.9181 84.4449 98.8269 84.0514L91.4725 52.4491L82.8781 54.4462L82.877 54.4497Z" fill="white"/>
<path d="M94.9665 88.2082C94.8395 88.2082 94.7125 88.1909 94.5866 88.1552L90.9406 87.1145C90.4615 86.9783 90.0943 86.5918 89.9812 86.1073L89.5067 84.0674C89.4189 83.6936 89.494 83.2967 89.7122 82.9806L90.9441 81.1877C91.0803 80.9892 91.1265 80.7412 91.0722 80.507L90.525 78.1556C90.4684 77.911 90.3079 77.7045 90.0851 77.5891L88.2713 76.6454C87.9157 76.4608 87.6594 76.1308 87.5682 75.7397L87.2357 74.309C87.1526 73.9525 87.2138 73.5845 87.4077 73.2741C87.6017 72.9626 87.9042 72.7457 88.2621 72.6638C88.7239 72.5565 89.0114 72.0938 88.904 71.6323L88.5888 70.2755C88.5369 70.0517 88.4006 69.8625 88.2055 69.7413C88.0104 69.6202 87.7806 69.5821 87.5567 69.634C87.1999 69.7171 86.8316 69.656 86.521 69.4621C86.2093 69.2683 85.9923 68.966 85.9103 68.6083L85.5605 67.1062C85.4716 66.7254 85.5501 66.3239 85.7764 66.0043L87.0002 64.2726C87.141 64.073 87.1907 63.8214 87.1353 63.5826L86.6203 61.3709C86.5672 61.1424 86.4206 60.944 86.2185 60.8251L84.2708 59.6818C83.9476 59.4926 83.7144 59.1741 83.6289 58.8107L82.6279 54.5084C82.5956 54.3711 82.681 54.2326 82.8196 54.2015C82.957 54.168 83.0955 54.2546 83.1267 54.393L84.1277 58.6953C84.1808 58.9238 84.3274 59.1222 84.5295 59.2411L86.4772 60.3844C86.8004 60.5736 87.0337 60.8921 87.1191 61.2555L87.634 63.4672C87.7229 63.848 87.6444 64.2495 87.4181 64.5691L86.1943 66.3008C86.0534 66.5004 86.0038 66.752 86.0592 66.9908L86.409 68.493C86.461 68.7168 86.5972 68.906 86.7924 69.0272C86.9875 69.1483 87.2172 69.1864 87.4412 69.1345C87.7991 69.0514 88.1663 69.1125 88.4768 69.3064C88.7886 69.5002 89.0056 69.8025 89.0876 70.1601L89.4028 71.517C89.5748 72.253 89.1141 72.9914 88.3775 73.1633C88.1536 73.2153 87.9642 73.3514 87.843 73.5464C87.7218 73.7414 87.6837 73.971 87.7356 74.1948L88.0681 75.6255C88.1247 75.87 88.2852 76.0766 88.508 76.1919L90.3218 77.1357C90.6774 77.3203 90.9337 77.6503 91.0249 78.0414L91.5721 80.3927C91.6587 80.7666 91.5848 81.1634 91.3666 81.4796L90.1347 83.2725C89.9985 83.4709 89.9512 83.719 90.0066 83.9532L90.4811 85.993C90.5515 86.2965 90.7824 86.5388 91.0826 86.6241L94.7287 87.6648C95.0173 87.7479 95.3221 87.6764 95.5438 87.4733L98.3193 84.9431C98.549 84.7343 98.6472 84.417 98.5779 84.1136L91.2235 52.5112C91.1911 52.3739 91.2766 52.2355 91.4151 52.2043C91.5525 52.1709 91.6911 52.2574 91.7222 52.3959L99.0767 83.9982C99.1886 84.4805 99.0316 84.9881 98.6645 85.3216L95.889 87.8517C95.6315 88.0859 95.3048 88.2106 94.9676 88.2106L94.9665 88.2082Z" fill="#003E83"/>
<path d="M88.2575 56.8701L94.3119 82.8849C94.432 83.4029 94.9504 83.7248 95.4688 83.6048C95.9872 83.4848 96.3093 82.9668 96.1892 82.4487L90.1348 56.434C90.0147 55.916 89.4963 55.5941 88.978 55.7141C88.4596 55.834 88.1375 56.3521 88.2575 56.8701Z" fill="#003E83"/>
<path d="M84.9855 31.919L79.6296 33.1639C74.6847 34.313 71.4705 39.1611 72.6204 44.1037L74.56 52.4384C75.0172 54.4021 77.1162 55.7058 79.0812 55.2489L95.2286 51.4958C97.1936 51.0389 98.332 48.9829 97.8748 47.0192L95.9352 38.6846C94.7852 33.7419 89.9304 30.7698 84.9855 31.919ZM88.1443 38.763C88.2644 39.281 88.0404 39.8464 87.522 39.9664L80.9077 41.5032C80.3893 41.6232 79.7681 41.2551 79.6481 40.7371L79.4922 40.0656C79.1886 38.763 80.1076 37.5273 81.4122 37.2239L85.1818 36.3482C86.4852 36.0448 87.686 36.7889 87.9896 38.0915L88.1455 38.763H88.1443Z" fill="white"/>
<path d="M78.2868 55.5939C77.5398 55.5939 76.7813 55.3793 76.1197 54.9674C75.203 54.3975 74.5438 53.4964 74.3106 52.4949L72.3709 44.1602C71.2049 39.1518 74.4353 34.1065 79.5718 32.9135L84.9277 31.6686C87.388 31.0963 89.9072 31.4978 92.0189 32.7981C94.1352 34.1019 95.6153 36.1717 96.1856 38.6257L98.1252 46.9604C98.6275 49.1179 97.354 51.2639 95.2874 51.745L79.14 55.4981C78.8618 55.5627 78.5754 55.595 78.2868 55.595V55.5939ZM85.0432 32.1682L79.6873 33.4131C77.3458 33.9576 75.3462 35.356 74.0543 37.3508C72.7531 39.3595 72.3328 41.7374 72.8697 44.046L74.8093 52.3807C75.0114 53.2506 75.5886 54.0363 76.3899 54.5348C77.1923 55.0332 78.1517 55.2028 79.0222 55.0009L95.1696 51.2477C96.9615 50.8312 98.0629 48.961 97.6242 47.0781L95.6845 38.7434C95.1442 36.4232 93.7461 34.4676 91.7476 33.2365C89.7525 32.0066 87.3707 31.6282 85.042 32.1693L85.0432 32.1682ZM80.7032 41.7824C80.4643 41.7824 80.216 41.712 79.9955 41.5793C79.6884 41.3935 79.4702 41.1086 79.3975 40.7959L79.2416 40.1244C79.0811 39.4333 79.2208 38.7226 79.6376 38.1238C80.0394 37.5469 80.649 37.1385 81.3521 36.9747L85.1217 36.099C86.5637 35.7621 87.9018 36.5951 88.2366 38.0338L88.3925 38.7053C88.4664 39.0226 88.434 39.3491 88.3024 39.6249C88.1558 39.9317 87.8983 40.1429 87.5785 40.2167L80.9642 41.7535C80.8787 41.7731 80.7921 41.7835 80.7021 41.7835L80.7032 41.7824ZM85.7647 36.5351C85.5939 36.5351 85.4172 36.5559 85.2371 36.5974L81.4676 37.4731C80.8961 37.6058 80.3823 37.9496 80.0579 38.4157C79.7254 38.8934 79.6122 39.4587 79.7404 40.0067L79.8962 40.6782C79.9378 40.8571 80.0706 41.0255 80.2599 41.1397C80.4504 41.2551 80.6651 41.2966 80.8487 41.2528L87.4631 39.716C87.6744 39.6664 87.7852 39.5175 87.8406 39.4022C87.9214 39.2337 87.9411 39.0214 87.8937 38.8195L87.7379 38.148C87.5069 37.1547 86.7161 36.534 85.7659 36.534L85.7647 36.5351Z" fill="#003E83"/>
<path d="M76.1234 34.7816C74.0649 32.5583 72.8965 29.592 72.8965 26.5565C72.8965 19.6363 78.7893 14.066 85.8239 14.5944C91.6935 15.0352 96.4318 19.7701 96.8728 25.6358C97.4004 32.6656 91.8263 38.5543 84.9025 38.5543C83.4698 38.5543 82.0681 38.3051 80.7358 37.8125C80.7358 37.8125 80.6585 37.4779 81.4112 37.2241L85.0538 36.3772L86.6286 35.9665C91.488 35.0827 94.9216 30.6269 94.4298 25.5966C93.9784 20.9735 90.1765 17.3069 85.5387 17.0058C79.9727 16.6446 75.3279 21.067 75.3279 26.553C75.3279 29.1697 76.4432 31.7461 78.3263 33.5655L78.2443 33.5978C77.4881 33.8955 76.7746 34.2935 76.1246 34.7804L76.1234 34.7816Z" fill="white"/>
<path d="M86.7527 36.1996C86.6327 36.1996 86.5253 36.1153 86.501 35.9919C86.4745 35.8534 86.5645 35.7185 86.7031 35.6919C91.0592 34.8416 94.2215 30.9985 94.2215 26.5542C94.2215 21.4189 90.0409 17.2423 84.9032 17.2423C79.7655 17.2423 75.5849 21.42 75.5849 26.5542C75.5849 28.6183 76.2418 30.5681 77.4829 32.1914C77.5695 32.3034 77.5476 32.4649 77.4356 32.5503C77.3236 32.6368 77.162 32.6149 77.0765 32.503C75.7661 30.7896 75.0723 28.7325 75.0723 26.5554C75.0723 21.1385 79.4826 16.7312 84.9032 16.7312C90.3237 16.7312 94.7341 21.1385 94.7341 26.5554C94.7341 31.2442 91.3974 35.2985 86.8012 36.1961C86.7851 36.1996 86.7677 36.2007 86.7516 36.2007L86.7527 36.1996Z" fill="#003E83"/>
<path d="M84.9018 38.8104C84.0128 38.8104 83.1262 38.7146 82.2672 38.5266C82.1286 38.4966 82.0409 38.3593 82.0721 38.222C82.1021 38.0835 82.2383 37.9958 82.3769 38.027C83.2 38.207 84.0486 38.2981 84.9018 38.2981C91.38 38.2981 96.6504 33.0312 96.6504 26.5576C96.6504 20.0839 91.38 14.817 84.9018 14.817C78.4237 14.817 73.1532 20.0839 73.1532 26.5576C73.1532 29.1604 73.9857 31.6237 75.5616 33.682C75.6482 33.7939 75.6263 33.9554 75.5143 34.0408C75.4023 34.1273 75.2407 34.1054 75.1552 33.9935C73.51 31.8452 72.6406 29.2746 72.6406 26.5576C72.6406 19.8012 78.1409 14.3036 84.903 14.3036C91.6651 14.3036 97.1654 19.8001 97.1654 26.5576C97.1654 33.3151 91.6651 38.8115 84.903 38.8115L84.9018 38.8104Z" fill="#003E83"/>
<path d="M272.06 168.697L270.96 171.335C269.417 175.036 266.354 177.891 262.554 179.174L247.057 184.403H21.8163L8.22573 180.238C4.56565 179.116 1.95236 175.888 1.61774 172.076L1.04622 165.54C0.966268 164.522 1.15875 163.501 1.60589 162.582C2.15668 161.448 2.35213 160.174 2.16705 158.929L0.958865 150.766C0.716044 149.129 1.57184 147.525 3.06578 146.812L6.1662 145.334C23.2229 137.205 41.4863 131.898 60.2443 129.616L68.1271 128.657L77.107 123.832C127.253 96.8844 186.648 93.0655 239.836 113.369L272.725 125.923L270.939 141.543L273.018 152.262C273.392 154.191 273.581 156.153 273.581 158.119V161.101C273.581 163.708 273.064 166.291 272.06 168.697Z" fill="white"/>
<path d="M238.167 120.526C238.778 120.204 238.723 119.312 238.078 119.065L229.887 115.942C182.86 98.0074 119.196 98.6999 74.1172 133.238L184.012 129.436C196.769 128.995 209.494 127.897 222.139 126.148C228.547 125.259 235.231 122.063 238.167 120.524V120.526Z" fill="white"/>
<path d="M74.1182 133.568C73.9805 133.568 73.8561 133.481 73.8087 133.351C73.7598 133.216 73.8043 133.065 73.9183 132.979C95.0037 116.824 121.744 107.005 151.246 104.586C177.67 102.421 205.641 106.344 230.006 115.636L238.197 118.759C238.619 118.92 238.898 119.299 238.924 119.75C238.951 120.2 238.72 120.608 238.322 120.817C235.008 122.554 228.505 125.598 222.186 126.475C209.583 128.218 196.743 129.325 184.024 129.764L74.13 133.568C74.13 133.568 74.1226 133.568 74.1182 133.568ZM165.077 104.598C134.822 104.598 102.547 112.213 75.1398 132.876L184.001 129.109C196.697 128.669 209.513 127.564 222.094 125.824C228.547 124.929 235.377 121.618 238.014 120.236C238.182 120.147 238.277 119.98 238.265 119.79C238.253 119.598 238.139 119.443 237.96 119.374L229.77 116.251C211.767 109.386 189.055 104.599 165.075 104.599L165.077 104.598Z" fill="#003E83"/>
<path d="M252.815 139.204C252.815 139.204 248.692 142.925 270.928 141.629L272.724 125.898C272.724 125.898 260.855 132.407 252.815 139.204Z" fill="white"/>
<path d="M262.674 142.233C256.312 142.233 252.821 141.569 252.267 140.246C252.03 139.681 252.362 139.172 252.596 138.96C252.599 138.957 252.6 138.956 252.603 138.953C260.575 132.211 272.446 125.675 272.565 125.608C272.673 125.549 272.805 125.555 272.907 125.623C273.009 125.691 273.064 125.811 273.051 125.932L271.255 141.663C271.237 141.822 271.106 141.944 270.947 141.953C267.796 142.137 265.034 142.228 262.671 142.228L262.674 142.233ZM253.036 139.45C253.003 139.482 252.76 139.729 252.876 139.996C253.105 140.531 255.07 142.203 270.634 141.317L272.325 126.497C269.885 127.873 259.971 133.588 253.036 139.45Z" fill="#003E83"/>
<path d="M254.146 141.128C256.255 141.78 260.923 142.212 270.929 141.629L271.492 136.705C271.492 136.705 272.497 130.254 266.826 132.687C260.54 135.384 254.146 141.126 254.146 141.126V141.128Z" fill="#003E83"/>
<path d="M23.1995 177.368L226.59 173.501L272.257 168.204C272.193 168.369 272.128 168.533 272.06 168.697L270.96 171.335C269.417 175.036 266.354 177.89 262.555 179.171L252.771 182.471C248.988 183.746 245.021 184.397 241.028 184.397H25.0147C22.893 184.397 20.7831 184.082 18.7547 183.461L8.22303 180.235C5.55644 179.418 3.44508 177.489 2.36719 175.022L23.1995 177.368Z" fill="white"/>
<path d="M241.026 184.727H25.0146C22.8589 184.727 20.7209 184.408 18.6584 183.776L8.12673 180.55C5.40979 179.717 3.20071 177.751 2.06656 175.154C2.01918 175.046 2.03399 174.922 2.10358 174.827C2.17316 174.732 2.28717 174.684 2.40562 174.695L23.2157 177.038L226.584 173.171L272.219 167.876C272.331 167.861 272.447 167.91 272.516 168.002C272.587 168.092 272.605 168.213 272.564 168.321C272.498 168.489 272.432 168.656 272.362 168.821L271.262 171.46C269.684 175.244 266.548 178.168 262.658 179.481L252.874 182.78C249.05 184.07 245.063 184.724 241.026 184.724V184.727ZM2.91792 175.416C4.03282 177.576 5.97243 179.204 8.31921 179.923L18.8508 183.148C20.8497 183.761 22.924 184.072 25.0146 184.072H241.026C244.991 184.072 248.908 183.43 252.664 182.162L262.448 178.862C266.158 177.61 269.151 174.821 270.655 171.211L271.745 168.597L226.627 173.83L23.2053 177.698C23.1935 177.698 23.1772 177.698 23.1624 177.696L2.91792 175.418V175.416Z" fill="#003E83"/>
<path d="M29.5156 143.849C29.754 143.674 29.6593 143.297 29.3661 143.26C27.7952 143.059 24.1069 142.69 20.0974 143.039C15.9887 143.396 9.80418 146.434 7.2057 147.795C6.50981 148.159 6.20776 148.993 6.50389 149.72L6.6786 150.147C7.02654 150.998 7.85421 151.555 8.77367 151.555H14.3171C17.342 151.555 20.2884 150.593 22.73 148.808L29.5171 143.849H29.5156Z" fill="white"/>
<path d="M7.25929 147.765C9.88887 146.389 16.0157 143.393 20.0962 143.038C21.7279 142.896 23.3047 142.872 24.7084 142.909L19.7809 146.377C17.862 147.728 15.6425 148.591 13.3135 148.891L9.74969 149.351C9.08341 149.437 8.4201 149.175 7.99368 148.657L7.25781 147.767L7.25929 147.765Z" fill="#003E83"/>
<path d="M14.3161 151.881H8.77265C7.71549 151.881 6.77381 151.248 6.37405 150.27L6.19785 149.84C5.8351 148.952 6.20229 147.947 7.05217 147.502L7.10695 147.474C9.61364 146.163 15.8959 143.072 20.0683 142.709C24.1518 142.354 27.9422 142.745 29.3814 142.928C29.6538 142.962 29.8744 143.158 29.9425 143.423C30.0106 143.687 29.9114 143.964 29.6908 144.125L22.9229 149.07C20.4073 150.908 17.4313 151.88 14.3161 151.88V151.881ZM7.41196 148.057L7.35718 148.085C6.80935 148.372 6.57245 149.02 6.80639 149.591L6.98258 150.022C7.28018 150.752 7.98348 151.224 8.77265 151.224H14.3161C17.2906 151.224 20.1334 150.297 22.535 148.542L29.3029 143.597C27.8785 143.4 24.1459 143.016 20.126 143.365C16.0736 143.717 9.88459 146.763 7.41344 148.057H7.41196Z" fill="#003E83"/>
<path d="M137.742 137.885L157.806 137.264C159.938 137.197 162.011 136.547 163.8 135.384L164.954 134.633L144.797 135.236C142.217 135.313 139.737 136.246 137.744 137.885H137.742Z" fill="white"/>
<path d="M137.742 138.212C137.605 138.212 137.482 138.127 137.434 137.999C137.383 137.867 137.423 137.719 137.533 137.629C139.57 135.951 142.146 134.985 144.785 134.905L164.942 134.301C165.099 134.301 165.222 134.391 165.266 134.532C165.311 134.672 165.256 134.825 165.132 134.905L163.977 135.656C162.138 136.853 160.007 137.521 157.814 137.589L137.75 138.21H137.74L137.742 138.212ZM163.792 134.995L144.804 135.563C142.653 135.627 140.544 136.316 138.771 137.522L157.795 136.933C159.868 136.87 161.882 136.238 163.62 135.107L163.793 134.995H163.792Z" fill="#003E83"/>
<path d="M10.234 172.82C10.1526 172.82 10.0712 172.814 9.98826 172.802C8.38031 172.566 4.57216 171.392 3.94882 165.599C3.82001 164.399 4.51886 163.233 5.65005 162.766C6.95447 162.226 9.92163 161.986 12.1811 161.879C12.6682 161.857 13.1464 162.046 13.4855 162.4C13.8186 162.748 13.9859 163.221 13.943 163.699C13.6528 166.945 12.4668 170.161 11.7842 171.788C11.5192 172.421 10.9018 172.821 10.2326 172.821L10.234 172.82ZM12.261 162.533C12.2447 162.533 12.2284 162.533 12.2121 162.533C10.4058 162.618 7.18249 162.841 5.90176 163.371C5.03856 163.727 4.50553 164.615 4.60325 165.528C5.15552 170.673 8.27519 171.886 10.0845 172.151C10.5465 172.219 10.9995 171.964 11.1802 171.532C11.8464 169.94 13.0072 166.796 13.29 163.639C13.3167 163.346 13.2175 163.067 13.0117 162.853C12.8148 162.649 12.5438 162.533 12.261 162.533Z" fill="#003E83"/>
<path d="M9.73242 172.424C9.83607 172.445 9.93675 172.461 10.0315 172.475C10.646 172.565 11.2427 172.231 11.4825 171.658C12.1147 170.147 13.3274 166.91 13.6176 163.665C13.6901 162.85 13.0135 162.165 12.1962 162.203C11.6706 162.228 11.0457 162.264 10.3869 162.313L10.3898 162.341C10.7925 165.563 10.606 168.832 9.83903 171.986L9.73242 172.423V172.424Z" fill="#003E83"/>
<path d="M76.4116 172.624C76.4116 156.751 63.5362 143.884 47.6521 143.884C31.768 143.884 18.8926 156.751 18.8926 172.624C18.8926 176.767 19.7706 180.704 21.3504 184.261L21.8153 184.403H73.8916C75.5099 180.808 76.4116 176.82 76.4116 172.622V172.624Z" fill="white"/>
<path d="M73.8922 184.732H21.8159C21.7833 184.732 21.7507 184.727 21.7196 184.717L21.2547 184.575C21.1629 184.547 21.0889 184.48 21.0504 184.394C19.401 180.678 18.5645 176.717 18.5645 172.624C18.5645 156.596 31.6131 143.556 47.6527 143.556C63.6922 143.556 76.7409 156.596 76.7409 172.624C76.7409 176.774 75.8836 180.783 74.1927 184.539C74.1394 184.658 74.0225 184.733 73.8922 184.733V184.732ZM21.8648 184.075H73.679C75.2751 180.46 76.0835 176.609 76.0835 172.623C76.0835 156.957 63.3294 144.211 47.6527 144.211C31.9759 144.211 19.2218 156.957 19.2218 172.623C19.2218 176.573 20.0184 180.398 21.5908 183.99L21.8648 184.075Z" fill="#003E83"/>
<path d="M249.48 172.624C249.48 156.745 236.599 143.872 220.709 143.872C204.819 143.872 191.938 156.745 191.938 172.624C191.938 176.822 192.838 180.809 194.456 184.405H246.96C248.579 180.809 249.479 176.822 249.479 172.624H249.48Z" fill="white"/>
<path d="M246.962 184.732H194.456C194.327 184.732 194.209 184.656 194.156 184.538C192.465 180.783 191.607 176.773 191.607 172.623C191.607 156.588 204.662 143.543 220.707 143.543C236.753 143.543 249.808 156.588 249.808 172.623C249.808 176.773 248.95 180.781 247.259 184.538C247.206 184.656 247.089 184.732 246.959 184.732H246.962ZM194.671 184.075H246.749C248.343 180.459 249.152 176.607 249.152 172.623C249.152 156.951 236.393 144.2 220.709 144.2C205.025 144.2 192.266 156.949 192.266 172.623C192.266 176.609 193.075 180.46 194.669 184.075H194.671Z" fill="#003E83"/>
<path d="M85.2305 130.225L89.6087 124.953C90.2246 124.212 91.1396 123.783 92.1035 123.783H96.0005C97.6529 123.783 99.0417 125.025 99.2238 126.668L99.5155 129.303C99.5939 130.016 99.434 130.735 99.0594 131.348C98.479 132.298 97.4515 132.882 96.3381 132.898C92.1598 132.956 82.1315 133.06 82.3492 132.734C82.5654 132.41 84.0919 131.209 84.7256 130.715C84.9107 130.57 85.0795 130.407 85.2305 130.226V130.225Z" fill="white"/>
<path d="M99.5155 129.3L99.2238 126.665C99.0417 125.023 97.6543 123.78 96.0005 123.78H92.1035C91.1396 123.78 90.2246 124.209 89.6087 124.95L85.2305 130.222C85.2305 130.222 93.4183 129.179 99.5155 129.299V129.3Z" fill="white"/>
<path d="M85.2305 130.553C85.112 130.553 85.001 130.488 84.9432 130.383C84.8781 130.265 84.8914 130.12 84.9788 130.015L89.357 124.743C90.0366 123.923 91.0389 123.453 92.105 123.453H96.002C97.8261 123.453 99.3511 124.818 99.5525 126.629L99.8442 129.265C99.8545 129.358 99.8234 129.452 99.7598 129.522C99.6961 129.592 99.6013 129.626 99.511 129.629C93.5116 129.513 85.3548 130.54 85.2734 130.55C85.2601 130.552 85.2453 130.553 85.232 130.553H85.2305ZM92.1035 124.11C91.2344 124.11 90.4171 124.493 89.8618 125.162L86.0093 129.8C88.1873 129.55 94.2711 128.911 99.1483 128.966L98.8981 126.7C98.7352 125.222 97.49 124.108 96.002 124.108H92.105L92.1035 124.11Z" fill="#003E83"/>
<path d="M85.2305 130.225L89.6087 124.953C90.2246 124.212 91.1396 123.783 92.1035 123.783H96.0005C97.6529 123.783 99.0417 125.025 99.2238 126.668L99.5155 129.303C99.5939 130.016 99.434 130.735 99.0594 131.348C98.479 132.298 97.4515 132.882 96.3381 132.898C92.1598 132.956 82.1315 133.06 82.3492 132.734C82.5654 132.41 84.0919 131.209 84.7256 130.715C84.9107 130.57 85.0795 130.407 85.2305 130.226V130.225Z" fill="white"/>
<path d="M88.3822 133.292C82.2657 133.292 82.1606 133.096 82.0585 132.907C82.0007 132.8 82.0081 132.651 82.0747 132.549C82.2524 132.281 83.0771 131.577 84.5237 130.452C84.6895 130.324 84.842 130.176 84.9767 130.013L89.3549 124.741C90.0345 123.921 91.0369 123.451 92.103 123.451H95.9999C97.8241 123.451 99.3491 124.816 99.5505 126.628L99.8421 129.263C99.928 130.044 99.7503 130.844 99.3402 131.515C98.6961 132.567 97.5753 133.206 96.342 133.222C92.9351 133.269 90.3484 133.289 88.3822 133.289V133.292ZM83.006 132.534C84.574 132.648 89.4497 132.661 96.3331 132.567C97.3399 132.553 98.2534 132.033 98.7791 131.174C99.1137 130.627 99.2588 129.974 99.1892 129.337L98.8975 126.702C98.7346 125.223 97.4894 124.109 96.0014 124.109H92.1044C91.2353 124.109 90.418 124.492 89.8628 125.161L85.4846 130.433C85.3203 130.631 85.1322 130.813 84.9279 130.972C83.9803 131.708 83.3644 132.217 83.0075 132.534H83.006Z" fill="#003E83"/>
<path d="M241.205 184.732H25.3292C22.9647 184.732 20.6194 184.381 18.3585 183.687L8.1274 180.552C4.32074 179.386 1.63638 176.07 1.28843 172.105L0.716915 165.568C0.63252 164.489 0.836845 163.408 1.30768 162.438C1.83182 161.36 2.01542 160.163 1.83922 158.976L0.631039 150.813C0.366009 149.021 1.28695 147.295 2.92155 146.515L6.02197 145.037C23.1438 136.877 41.3717 131.578 60.2007 129.288L68.0228 128.337L76.948 123.54C127.218 96.5266 186.631 92.7047 239.951 113.058L270.702 124.796C272.101 125.33 272.958 126.74 272.788 128.227L271.267 141.527L273.337 152.197C273.715 154.142 273.906 156.134 273.906 158.117V161.098C273.906 163.763 273.386 166.361 272.36 168.821L271.26 171.46C269.681 175.246 266.545 178.171 262.656 179.484L252.703 182.842C248.99 184.095 245.121 184.73 241.202 184.73L241.205 184.732ZM169.9 100.791C137.932 100.791 106.089 108.63 77.2619 124.121L68.2819 128.946C68.2464 128.965 68.2064 128.977 68.1664 128.983L60.2821 129.942C41.5242 132.223 23.3644 137.501 6.30624 145.63L3.20583 147.108C1.83182 147.762 1.05894 149.212 1.28251 150.717L2.49069 158.88C2.68614 160.197 2.48181 161.527 1.89993 162.724C1.47943 163.59 1.29732 164.554 1.37283 165.513L1.94435 172.047C2.2686 175.743 4.77084 178.835 8.32136 179.923L18.5524 183.058C20.7511 183.731 23.0313 184.073 25.3307 184.073H241.206C245.053 184.073 248.852 183.449 252.497 182.219L262.45 178.861C266.16 177.609 269.151 174.818 270.659 171.207L271.759 168.568C272.751 166.189 273.254 163.675 273.254 161.098V158.117C273.254 156.177 273.068 154.227 272.697 152.322L270.619 141.604C270.613 141.572 270.611 141.538 270.614 141.505L272.139 128.156C272.275 126.968 271.588 125.84 270.471 125.414L239.72 113.677C217.155 105.062 193.493 100.794 169.901 100.794L169.9 100.791Z" fill="#003E83"/>
<path d="M238.856 190.76C248.879 180.744 248.879 164.505 238.856 154.489C228.833 144.473 212.583 144.473 202.56 154.489C192.537 164.505 192.537 180.744 202.56 190.76C212.583 200.776 228.833 200.776 238.856 190.76Z" fill="#003E83"/>
<path d="M232.913 184.821C239.654 178.085 239.654 167.164 232.913 160.427C226.172 153.691 215.243 153.691 208.502 160.427C201.761 167.164 201.761 178.085 208.502 184.821C215.243 191.558 226.172 191.558 232.913 184.821Z" fill="white"/>
<path d="M220.709 190.202C211.009 190.202 203.119 182.316 203.119 172.624C203.119 162.933 211.011 155.046 220.709 155.046C230.407 155.046 238.299 162.931 238.299 172.624C238.299 182.317 230.407 190.202 220.709 190.202ZM220.709 155.703C211.372 155.703 203.777 163.294 203.777 172.624C203.777 181.954 211.372 189.545 220.709 189.545C230.046 189.545 237.641 181.954 237.641 172.624C237.641 163.294 230.046 155.703 220.709 155.703Z" fill="#003E83"/>
<path d="M220.708 186.467C228.359 186.467 234.561 180.269 234.561 172.624C234.561 164.979 228.359 158.781 220.708 158.781C213.058 158.781 206.855 164.979 206.855 172.624C206.855 180.269 213.058 186.467 220.708 186.467Z" fill="white"/>
<path d="M220.709 186.794C212.89 186.794 206.527 180.436 206.527 172.623C206.527 164.809 212.89 158.451 220.709 158.451C228.528 158.451 234.89 164.809 234.89 172.623C234.89 180.436 228.528 186.794 220.709 186.794ZM220.709 159.109C213.252 159.109 207.185 165.171 207.185 172.623C207.185 180.074 213.251 186.137 220.709 186.137C228.167 186.137 234.233 180.075 234.233 172.623C234.233 165.17 228.167 159.109 220.709 159.109Z" fill="#003E83"/>
<path d="M65.8012 190.759C75.824 180.743 75.824 164.504 65.8012 154.488C55.7783 144.472 39.5281 144.472 29.5053 154.488C19.4825 164.504 19.4825 180.743 29.5053 190.759C39.5282 200.775 55.7783 200.775 65.8012 190.759Z" fill="#003E83"/>
<path d="M59.8584 184.82C66.5992 178.084 66.5992 167.162 59.8584 160.426C53.1175 153.69 42.1884 153.69 35.4476 160.426C28.7067 167.162 28.7067 178.084 35.4476 184.82C42.1884 191.557 53.1175 191.557 59.8584 184.82Z" fill="white"/>
<path d="M47.6522 190.202C37.9527 190.202 30.0625 182.315 30.0625 172.624C30.0625 162.932 37.9542 155.046 47.6522 155.046C57.3503 155.046 65.242 162.931 65.242 172.624C65.242 182.317 57.3503 190.202 47.6522 190.202ZM47.6522 155.703C38.3155 155.703 30.7199 163.293 30.7199 172.624C30.7199 181.954 38.3155 189.545 47.6522 189.545C56.989 189.545 64.5846 181.954 64.5846 172.624C64.5846 163.293 56.989 155.703 47.6522 155.703Z" fill="#003E83"/>
<path d="M47.6515 186.467C55.3021 186.467 61.5041 180.269 61.5041 172.624C61.5041 164.978 55.3021 158.781 47.6515 158.781C40.0009 158.781 33.7988 164.978 33.7988 172.624C33.7988 180.269 40.0009 186.467 47.6515 186.467Z" fill="white"/>
<path d="M47.6521 186.794C39.8329 186.794 33.4707 180.436 33.4707 172.622C33.4707 164.809 39.8329 158.451 47.6521 158.451C55.4712 158.451 61.8334 164.809 61.8334 172.622C61.8334 180.436 55.4712 186.794 47.6521 186.794ZM47.6521 159.109C40.1957 159.109 34.1281 165.171 34.1281 172.622C34.1281 180.074 40.1942 186.137 47.6521 186.137C55.1099 186.137 61.176 180.075 61.176 172.622C61.176 165.17 55.1099 159.109 47.6521 159.109Z" fill="#003E83"/>
<path d="M168.409 188.207L168.055 194.716L163.7 195.449L163.312 187.774L168.409 188.207Z" fill="white"/>
<path d="M163.7 195.739C163.634 195.739 163.57 195.717 163.518 195.675C163.454 195.623 163.414 195.547 163.41 195.464L163.022 187.788C163.018 187.705 163.049 187.624 163.111 187.565C163.171 187.508 163.253 187.476 163.337 187.485L168.432 187.92C168.587 187.933 168.705 188.067 168.697 188.224L168.343 194.733C168.336 194.869 168.236 194.981 168.101 195.003L163.747 195.737C163.731 195.739 163.714 195.741 163.698 195.741L163.7 195.739ZM163.619 188.09L163.973 195.109L167.777 194.468L168.102 188.472L163.619 188.09Z" fill="#003E83"/>
<path d="M163.58 206.456C165.418 206.62 168.425 206.995 171.916 206.332C173.058 206.115 173.764 204.96 173.43 203.848C172.497 200.745 170.863 194.848 168.436 192.2L167.909 193.496L167.086 192.355C166.969 192.167 166.769 192.047 166.548 192.03L164.818 191.899C164.456 191.872 164.135 192.126 164.077 192.484L164.029 193.265L162.868 192.138L162.573 199.019C162.515 200.359 162.362 201.396 162.117 202.715L161.811 204.349C161.725 205.418 162.513 206.361 163.581 206.457L163.58 206.456Z" fill="#00499B"/>
<path d="M167.722 207C166.282 207 165.03 206.883 164.042 206.789L163.553 206.743C162.333 206.633 161.42 205.549 161.519 204.323C161.519 204.313 161.522 204.304 161.523 204.293L161.829 202.659C162.072 201.36 162.223 200.346 162.281 199.003L162.576 192.122C162.581 192.009 162.653 191.908 162.759 191.865C162.864 191.824 162.986 191.847 163.068 191.927L163.777 192.615L163.786 192.462C163.869 191.932 164.325 191.564 164.838 191.607L166.568 191.737C166.881 191.761 167.165 191.933 167.331 192.198L167.837 192.898L168.166 192.087C168.204 191.996 168.285 191.928 168.384 191.911C168.482 191.894 168.582 191.928 168.649 192.001C170.957 194.519 172.554 199.884 173.507 203.091L173.707 203.762C173.889 204.369 173.805 205.028 173.476 205.57C173.146 206.114 172.597 206.495 171.97 206.614C170.443 206.904 169.008 206.998 167.723 206.998L167.722 207ZM162.096 204.386C162.031 205.289 162.705 206.087 163.604 206.167L164.096 206.213C165.931 206.387 168.705 206.648 171.861 206.047C172.325 205.959 172.733 205.677 172.979 205.272C173.223 204.87 173.285 204.381 173.151 203.932L172.95 203.26C172.054 200.247 170.582 195.299 168.524 192.749L168.176 193.604C168.137 193.702 168.047 193.77 167.942 193.783C167.837 193.796 167.733 193.75 167.672 193.664L166.849 192.523C166.771 192.398 166.653 192.327 166.525 192.317L164.795 192.186C164.586 192.172 164.395 192.321 164.362 192.527L164.317 193.28C164.31 193.394 164.237 193.492 164.131 193.532C164.025 193.573 163.905 193.549 163.824 193.469L163.127 192.793L162.859 199.028C162.8 200.4 162.638 201.474 162.398 202.765L162.096 204.383V204.386Z" fill="#003E83"/>
<path d="M167.539 205.015C165.102 205.015 163.263 204.599 163.144 204.571C162.989 204.535 162.891 204.379 162.928 204.224C162.964 204.069 163.121 203.971 163.275 204.007C163.321 204.018 167.87 205.045 172.101 203.855C172.254 203.812 172.416 203.902 172.459 204.056C172.502 204.21 172.412 204.369 172.258 204.413C170.631 204.871 168.981 205.016 167.539 205.016V205.015Z" fill="#003E83"/>
<path d="M165.253 200.195C165.095 200.195 164.966 200.068 164.963 199.911C164.96 199.75 165.088 199.618 165.248 199.616L169.36 199.544C169.517 199.539 169.653 199.669 169.656 199.828C169.658 199.989 169.53 200.121 169.371 200.123L165.258 200.195H165.253Z" fill="#003E83"/>
<path d="M147.715 185.795L147.537 195.276L142.265 195.541L141.543 186.106L147.715 185.795Z" fill="white"/>
<path d="M142.266 195.83C142.116 195.83 141.989 195.714 141.977 195.563L141.255 186.128C141.248 186.05 141.274 185.973 141.327 185.914C141.378 185.855 141.452 185.82 141.529 185.816L147.702 185.505C147.784 185.5 147.861 185.531 147.918 185.586C147.976 185.642 148.009 185.719 148.006 185.8L147.826 195.281C147.823 195.434 147.703 195.558 147.55 195.566L142.279 195.832C142.279 195.832 142.268 195.832 142.264 195.832L142.266 195.83ZM141.856 186.38L142.534 195.237L147.252 194.999L147.421 186.099L141.856 186.38Z" fill="#003E83"/>
<path d="M149.184 200.54C149.243 201.432 148.671 202.248 147.81 202.495C144.816 203.352 138.068 205.266 136.137 205.653C133.629 206.157 130.484 205.54 129.073 204.13C127.664 202.72 131.811 198.975 133.799 197.589C136.752 195.529 139.492 191.613 140.712 191.381C141.932 191.15 144.404 194.596 144.404 194.596L148.073 192.834C148.073 192.834 148.888 196.011 149.184 200.541V200.54Z" fill="#00499B"/>
<path d="M134.318 206.117C132.152 206.117 129.978 205.444 128.868 204.334C128.587 204.053 128.464 203.692 128.503 203.26C128.669 201.381 132.031 198.467 133.632 197.35C135.081 196.34 136.465 194.888 137.685 193.608C139.001 192.227 139.954 191.228 140.656 191.095C141.88 190.863 143.844 193.349 144.495 194.229L147.947 192.571C148.025 192.535 148.116 192.534 148.195 192.57C148.273 192.607 148.332 192.677 148.353 192.761C148.361 192.793 149.178 196.016 149.472 200.52C149.539 201.543 148.873 202.491 147.888 202.773C145.021 203.594 138.142 205.545 136.191 205.936C135.585 206.058 134.951 206.115 134.317 206.115L134.318 206.117ZM140.843 191.658C140.815 191.658 140.789 191.66 140.765 191.664C140.245 191.764 139.205 192.853 138.104 194.007C136.865 195.307 135.459 196.781 133.963 197.823C131.997 199.194 129.207 201.863 129.079 203.309C129.057 203.566 129.121 203.767 129.276 203.923C130.588 205.234 133.576 205.87 136.077 205.367C138.007 204.98 144.868 203.034 147.729 202.214C148.452 202.007 148.942 201.31 148.894 200.557C148.658 196.954 148.086 194.186 147.872 193.249L144.527 194.856C144.399 194.917 144.248 194.876 144.166 194.763C143.217 193.442 141.595 191.657 140.84 191.657L140.843 191.658Z" fill="#003E83"/>
<path d="M134.151 203.686C132.832 203.686 131.687 203.498 130.883 203.028C130.745 202.947 130.699 202.77 130.78 202.632C130.861 202.493 131.039 202.448 131.177 202.528C134.838 204.672 146.918 200.26 147.039 200.214C147.188 200.16 147.357 200.235 147.412 200.387C147.467 200.537 147.391 200.704 147.239 200.759C146.837 200.907 139.223 203.687 134.151 203.687V203.686Z" fill="#003E83"/>
<path d="M140.336 198.351C140.272 198.351 140.207 198.33 140.154 198.286L137.351 196.004C137.227 195.904 137.208 195.721 137.309 195.597C137.41 195.473 137.592 195.453 137.716 195.555L140.519 197.837C140.643 197.937 140.662 198.12 140.561 198.244C140.504 198.314 140.42 198.351 140.336 198.351Z" fill="#003E83"/>
<path d="M166.621 123.095C166.621 123.095 169.745 152.547 171.113 162.7C172.482 172.853 170.456 189.386 170.456 189.386L162.299 189.369C162.299 189.369 161.147 174.697 160.261 167.066C160.044 165.194 159.526 163.374 158.74 161.661C157.504 158.971 155.567 154.338 154.682 149.999C153.326 143.36 149.323 132.967 149.323 132.967C149.323 132.967 149.168 185.855 149.105 190.012C149.105 190.012 142.739 190.618 140.379 189.294C140.379 189.294 135.356 170.266 135.409 159.773C135.463 149.279 133.512 123.313 133.512 123.313L166.622 123.095H166.621Z" fill="white"/>
<path d="M145.88 190.441C143.905 190.441 141.526 190.269 140.235 189.546C140.167 189.508 140.116 189.443 140.097 189.367C140.046 189.177 135.065 170.181 135.118 159.77C135.172 149.408 133.241 123.593 133.222 123.333C133.215 123.254 133.243 123.174 133.297 123.115C133.352 123.057 133.428 123.023 133.509 123.021L166.619 122.803H166.622C166.769 122.803 166.895 122.916 166.91 123.063C166.942 123.358 170.049 152.628 171.402 162.66C172.76 172.733 170.766 189.252 170.745 189.419C170.727 189.564 170.604 189.674 170.458 189.674L162.3 189.657C162.148 189.657 162.023 189.541 162.011 189.389C162 189.243 160.849 174.637 159.975 167.098C159.764 165.272 159.259 163.483 158.477 161.781C157.345 159.316 155.309 154.513 154.398 150.057C153.365 144.999 150.756 137.665 149.609 134.554C149.583 143.406 149.451 186.312 149.395 190.016C149.392 190.163 149.28 190.286 149.132 190.3C149.009 190.312 147.599 190.443 145.881 190.443L145.88 190.441ZM140.626 189.097C142.687 190.145 147.629 189.836 148.816 189.743C148.88 184.059 149.03 133.484 149.032 132.964C149.032 132.825 149.132 132.706 149.269 132.68C149.406 132.654 149.542 132.731 149.593 132.861C149.634 132.966 153.62 143.352 154.965 149.939C155.864 154.339 157.882 159.095 159.003 161.538C159.811 163.296 160.332 165.145 160.55 167.031C161.36 174.016 162.407 187.051 162.568 189.078L170.199 189.093C170.445 186.963 172.082 172.052 170.827 162.737C169.542 153.205 166.675 126.331 166.362 123.384L133.824 123.598C134.043 126.569 135.749 150.005 135.699 159.771C135.648 169.67 140.2 187.447 140.627 189.096L140.626 189.097Z" fill="#003E83"/>
<path d="M163.792 164.401C163.326 164.401 162.859 164.322 162.412 164.16C162.262 164.106 162.183 163.94 162.238 163.79C162.292 163.64 162.458 163.56 162.609 163.616C163.634 163.987 164.794 163.852 165.708 163.257C165.843 163.17 166.022 163.208 166.109 163.342C166.197 163.477 166.159 163.655 166.025 163.743C165.356 164.176 164.576 164.399 163.792 164.399V164.401Z" fill="#003E83"/>
<path d="M165.674 131.893C165.663 131.893 165.654 131.893 165.644 131.891C164.139 131.733 162.352 130.68 161.849 128.194C161.818 128.037 161.92 127.884 162.077 127.852C162.235 127.82 162.386 127.922 162.419 128.079C162.859 130.257 164.405 131.179 165.705 131.316C165.864 131.333 165.979 131.475 165.964 131.634C165.948 131.783 165.822 131.894 165.675 131.894L165.674 131.893Z" fill="#003E83"/>
<path d="M144.407 180.411C144.256 180.411 144.129 180.294 144.119 180.141C143.794 175.416 137.894 166.796 137.834 166.709C137.744 166.578 137.777 166.398 137.908 166.306C138.04 166.216 138.221 166.249 138.312 166.381C138.559 166.74 144.36 175.221 144.697 180.102C144.708 180.261 144.588 180.399 144.428 180.411C144.422 180.411 144.415 180.411 144.409 180.411H144.407Z" fill="#003E83"/>
<path d="M136.371 81.0809C134.586 75.9398 131.954 76.6433 130.059 78.139C128.697 79.2145 127.783 80.7624 127.476 82.4696C127.222 83.8779 126.703 85.9296 125.65 87.8443C123.682 91.427 116.404 92.8692 113.865 92.8587C112.758 92.8548 109.786 89.3022 107.88 89.9038C106.51 90.3359 109.064 92.509 108.744 92.6656C107.558 93.2451 106.433 93.1211 105.358 93.1159C103.613 93.108 102.056 92.6369 101.403 92.633C100.576 92.6277 100.299 93.4735 100.641 94.2266C101.131 95.302 102.2 96.9309 103.965 97.4999C107.122 98.5167 112.521 97.5652 114.405 97.1998C115.839 96.9218 132.745 97.9698 134.897 90.9206C135.345 89.4536 137.124 83.2448 136.371 81.0809Z" fill="white"/>
<path d="M107.587 98.2413C106.229 98.2413 104.929 98.1134 103.877 97.7754C101.828 97.115 100.747 95.1572 100.378 94.3467C100.14 93.8246 100.154 93.2516 100.414 92.851C100.626 92.5234 100.976 92.3446 101.397 92.3446H101.406C101.679 92.3459 102.061 92.4163 102.547 92.5038C103.288 92.6382 104.301 92.8222 105.36 92.8275C105.517 92.8275 105.675 92.8314 105.835 92.834C106.665 92.851 107.522 92.8679 108.396 92.5064C108.319 92.3968 108.21 92.2571 108.12 92.1423C107.636 91.5184 107.032 90.7418 107.218 90.148C107.271 89.977 107.415 89.7473 107.792 89.6285C109.097 89.2147 110.745 90.4612 112.07 91.4623C112.788 92.0065 113.531 92.5677 113.867 92.569H113.893C116.431 92.569 123.512 91.1347 125.395 87.7047C126.433 85.8174 126.943 83.7878 127.19 82.4174C127.513 80.6267 128.467 79.0253 129.879 77.9107C131.155 76.9031 132.349 76.552 133.429 76.8678C134.747 77.2515 135.83 78.6376 136.645 80.9856C137.449 83.2997 135.561 89.7381 135.173 91.0041C133.302 97.128 120.849 97.3382 116.16 97.4178C115.324 97.4321 114.664 97.4439 114.458 97.483C112.731 97.8185 110.061 98.2413 107.586 98.2413H107.587ZM101.397 92.9228C101.172 92.9228 101.006 93.0037 100.902 93.1655C100.75 93.3978 100.753 93.7672 100.907 94.1065C101.244 94.8479 102.226 96.6347 104.056 97.2233C106.903 98.1395 111.728 97.423 114.35 96.914C114.605 96.8644 115.22 96.8539 116.152 96.8383C120.725 96.7613 132.874 96.555 134.62 90.8345C134.851 90.0762 136.859 83.365 136.099 81.1749C135.348 79.0135 134.396 77.7514 133.268 77.4225C132.38 77.1628 131.362 77.4799 130.241 78.3635C128.94 79.3907 128.06 80.8669 127.762 82.5179C127.509 83.9314 126.98 86.0262 125.905 87.9814C123.877 91.6724 116.62 93.1459 113.894 93.1459H113.866C113.337 93.1433 112.623 92.6043 111.721 91.9217C110.504 91.0015 108.989 89.8556 107.969 90.178C107.8 90.2315 107.779 90.2967 107.773 90.3176C107.677 90.623 108.264 91.3787 108.579 91.7846C108.931 92.2388 109.108 92.4659 109.054 92.697C109.03 92.7961 108.965 92.8797 108.872 92.924C107.795 93.4513 106.793 93.4318 105.821 93.4109C105.666 93.407 105.511 93.4044 105.357 93.4044C104.246 93.3991 103.204 93.2099 102.443 93.0715C102.003 92.9919 101.622 92.9228 101.4 92.9214H101.395L101.397 92.9228Z" fill="#003E83"/>
<path d="M171.557 88.5518C171.557 88.5518 172.69 71.1799 162.361 67.4027C152.416 63.7665 139.265 63.6882 132.166 68.3895C128.66 70.7101 125.467 84.9038 125.467 84.9038L131.045 91.2078C131.045 91.2078 130.721 122.43 132.633 130.572C132.633 130.572 141.908 131.181 145.741 129.445C149.574 127.71 162.323 124.905 168.611 127.417L165.506 88.0662L171.555 88.5518H171.557Z" fill="#003E83"/>
<path d="M159.73 120.013C159.719 120.013 159.707 120.013 159.694 120.01C144.596 118.122 139.691 107.928 139.644 107.825C139.576 107.68 139.64 107.508 139.785 107.44C139.932 107.372 140.103 107.436 140.171 107.581C140.218 107.682 145.002 117.588 159.767 119.436C159.926 119.456 160.039 119.601 160.019 119.76C160.001 119.906 159.875 120.013 159.732 120.013H159.73Z" fill="white"/>
<path d="M131.667 102L147.393 102.504C147.897 102.52 148.263 102.029 148.102 101.55L141.657 82.3574C141.56 82.0702 141.296 81.8745 140.993 81.864L125.267 81.3602C124.763 81.3446 124.397 81.8353 124.558 82.3143L131.003 101.507C131.1 101.794 131.364 101.99 131.667 102Z" fill="white"/>
<path d="M147.416 102.794C147.406 102.794 147.396 102.794 147.384 102.794L131.657 102.29C131.236 102.277 130.863 101.999 130.729 101.6L124.283 82.407C124.178 82.0924 124.232 81.7453 124.431 81.4803C124.629 81.2141 124.94 81.0548 125.277 81.0718L141.004 81.5756C141.425 81.5886 141.799 81.8666 141.932 82.266L148.376 101.459C148.482 101.773 148.427 102.12 148.229 102.387C148.037 102.644 147.735 102.795 147.415 102.795L147.416 102.794ZM125.245 81.6513C125.106 81.6513 124.979 81.7139 124.897 81.8262C124.811 81.9423 124.789 82.0859 124.835 82.223L131.28 101.416C131.337 101.587 131.497 101.705 131.677 101.712L147.403 102.216C147.548 102.221 147.68 102.156 147.765 102.041C147.851 101.925 147.874 101.781 147.828 101.644L141.384 82.4514C141.326 82.2804 141.167 82.1616 140.985 82.1551L125.259 81.6513H125.245Z" fill="#003E83"/>
<path d="M169.794 87.6705L161.417 87.2933C161.417 87.2933 161.354 94.3426 160.598 94.4692C157.905 94.9182 152.266 94.9403 148.595 94.4979C147.317 94.3439 146.306 93.3663 146.064 92.1029C145.883 91.1488 145.366 90.0277 144.053 89.2198C142.785 88.4393 144.036 90.8943 142.85 92.4736C142.213 93.3219 140.196 92.946 137.446 92.3091C134.695 91.6722 133.996 94.6101 137.079 96.3852C140.421 98.3103 142.544 98.0936 143.61 98.3194C145.733 98.7684 164.502 101.708 167.4 100.135C169.639 98.9198 169.794 87.6718 169.794 87.6718V87.6705Z" fill="white"/>
<path d="M163.761 100.886C157.063 100.886 144.613 98.826 143.551 98.6015C143.338 98.5571 143.066 98.5284 142.752 98.4971C141.503 98.3705 139.617 98.18 136.936 96.6346C134.992 95.5161 134.513 93.9773 134.89 93.0206C135.17 92.3106 136.006 91.6763 137.513 92.0248C139.989 92.5977 142.082 93.0141 142.62 92.2975C143.146 91.5954 143.138 90.6674 143.133 89.9887C143.128 89.4222 143.125 89.0137 143.435 88.8388C143.696 88.6913 144.001 88.8427 144.208 88.9707C145.362 89.6807 146.104 90.7444 146.351 92.0456C146.571 93.2007 147.487 94.07 148.631 94.207C152.245 94.6429 157.774 94.6338 160.505 94.1887C160.856 93.7398 161.101 90.2902 161.128 87.2883C161.128 87.21 161.162 87.1343 161.218 87.0808C161.276 87.026 161.353 86.9933 161.431 87.0012L169.808 87.3783C169.965 87.3849 170.088 87.5154 170.085 87.672C170.069 88.8401 169.86 99.1249 167.539 100.386C166.885 100.741 165.522 100.883 163.762 100.883L163.761 100.886ZM136.723 92.5103C136.087 92.5103 135.614 92.7661 135.428 93.2347C135.14 93.9669 135.579 95.1859 137.224 96.1334C139.799 97.6161 141.61 97.7988 142.81 97.9202C143.142 97.9542 143.428 97.9829 143.671 98.0338C145.834 98.4906 164.486 101.385 167.263 99.878C168.926 98.9748 169.433 91.2169 169.5 87.9474L161.703 87.5963C161.693 88.1771 161.663 89.5162 161.58 90.8514C161.363 94.3454 161 94.6951 160.645 94.7539C157.886 95.2133 152.239 95.2277 148.56 94.7839C147.163 94.6155 146.045 93.5596 145.779 92.1553C145.56 91.0015 144.929 90.097 143.901 89.4653C143.823 89.417 143.769 89.3909 143.732 89.3766C143.708 89.5084 143.709 89.7786 143.712 89.9848C143.718 90.7026 143.726 91.7872 143.082 92.646C142.332 93.6471 140.245 93.2542 137.38 92.5912C137.146 92.5377 136.925 92.5103 136.721 92.5103H136.723Z" fill="#003E83"/>
<path d="M145.882 60.4147C146.74 61.1247 148.391 61.96 149.614 61.2657C150.526 60.7475 150.986 59.5024 150.884 58.1084C151.319 58.1215 151.884 58.0628 152.271 57.6856C152.867 57.1035 152.699 56.0959 152.641 55.4315C152.373 52.3644 154.136 51.8032 153.593 49.7397C153.167 48.1173 151.83 47.2063 151.579 47.0367C150.316 46.1766 149.507 46.5146 147.436 46.0826C143.95 45.3556 143.766 43.8795 141.499 43.9865C141.368 43.993 138.284 44.1822 137.344 46.3645C136.58 48.1395 137.681 50.1952 138.765 51.2498C140.169 52.615 141.09 51.8593 142.486 52.9935C144.939 54.9839 143.331 58.3094 145.88 60.4173L145.882 60.4147Z" fill="#00499B"/>
<path d="M138.821 54.6001C139.502 53.9501 140.223 52.6658 140.445 51.7522C141.256 48.4148 144.288 47.7988 144.602 51.0461C144.685 51.9114 147.85 51.7065 147.521 52.6345C146.66 55.0556 146.607 54.4186 148.034 55.2226C148.191 55.2213 148.349 55.2474 148.499 55.3088C149.225 55.6037 149.524 56.5526 149.168 57.4297C148.951 57.9622 148.542 58.3407 148.093 58.4947L148.282 62.2418C148.353 63.6462 149.267 64.8692 150.595 65.3351L151.887 65.788C151.887 65.788 146.177 69.9358 139.972 66.0099L140.754 65.6105C142.131 64.9083 142.986 63.4831 142.956 61.9377L142.926 61.2042C142.525 61.2604 142.133 61.2525 141.768 61.1664C140.067 60.7631 139.413 58.8614 139.577 56.4482L138.838 55.776C138.492 55.4615 138.485 54.9211 138.824 54.5988L138.821 54.6001Z" fill="white"/>
<path d="M145.6 67.9768C143.837 67.9768 141.848 67.5409 139.817 66.2553C139.729 66.1992 139.677 66.1013 139.682 65.9969C139.687 65.8925 139.747 65.7998 139.84 65.7515L140.621 65.3521C141.891 64.7048 142.693 63.367 142.665 61.943L142.648 61.5241C142.314 61.5423 141.995 61.5188 141.7 61.4484C140.006 61.0477 139.127 59.2726 139.279 56.5696L138.641 55.9914C138.418 55.7878 138.287 55.4981 138.283 55.1953C138.279 54.8925 138.403 54.5988 138.622 54.39C139.245 53.7948 139.951 52.5549 140.163 51.6831C140.676 49.5713 142.019 48.5428 143.094 48.6185C144.081 48.689 144.752 49.5843 144.891 51.0161C144.91 51.2223 145.738 51.409 146.182 51.5095C146.911 51.6739 147.541 51.8175 147.76 52.2156C147.846 52.3722 147.858 52.5497 147.794 52.7298C147.669 53.0822 147.56 53.3706 147.471 53.6082C147.316 54.0219 147.182 54.3796 147.202 54.467C147.227 54.497 147.389 54.574 147.533 54.6419C147.688 54.715 147.879 54.805 148.111 54.9329C148.285 54.9395 148.452 54.976 148.608 55.0387C149.48 55.3924 149.852 56.5135 149.436 57.5368C149.226 58.0549 148.852 58.4621 148.392 58.6827L148.571 62.2249C148.636 63.5184 149.468 64.6304 150.691 65.0598L151.983 65.5127C152.085 65.5479 152.158 65.638 152.173 65.7437C152.189 65.8507 152.145 65.9564 152.057 66.0204C152.018 66.0491 149.304 67.9742 145.6 67.9755V67.9768ZM140.568 66.0308C145.344 68.7639 149.778 66.6978 151.224 65.8625L150.499 65.608C149.053 65.1015 148.07 63.7859 147.993 62.2563L147.803 58.5091C147.797 58.3799 147.876 58.2611 147.999 58.2207C148.387 58.0889 148.724 57.7521 148.899 57.3214C149.194 56.5944 148.966 55.8126 148.39 55.579C148.281 55.5346 148.16 55.5177 148.037 55.5137C147.989 55.5124 147.936 55.5007 147.892 55.4759C147.648 55.3375 147.447 55.2436 147.286 55.1679C146.42 54.7607 146.518 54.5009 146.929 53.4072C147.017 53.1723 147.124 52.8877 147.248 52.5393C147.259 52.5092 147.255 52.5014 147.253 52.4988C147.159 52.3291 146.496 52.179 146.056 52.0785C145.229 51.8919 144.375 51.6974 144.315 51.0749C144.206 49.9485 143.734 49.2476 143.053 49.1993C142.238 49.1406 141.159 50.0425 140.727 51.8227C140.489 52.8016 139.724 54.142 139.023 54.8116C138.918 54.9121 138.862 55.0465 138.863 55.1901C138.865 55.3349 138.925 55.4668 139.032 55.5646L139.771 56.2368C139.836 56.2968 139.871 56.383 139.865 56.4704C139.696 58.9411 140.415 60.5517 141.833 60.8871C142.151 60.9615 142.504 60.9733 142.885 60.9198C142.966 60.908 143.048 60.9315 143.111 60.9837C143.173 61.0359 143.211 61.1129 143.215 61.1939L143.245 61.9274C143.276 63.5771 142.35 65.1224 140.885 65.8703L140.568 66.0321V66.0308Z" fill="#003E83"/>
<path d="M142.924 61.4954C142.79 61.4954 142.668 61.4014 142.641 61.2644C142.608 61.1078 142.71 60.9551 142.867 60.9224C145.004 60.4839 145.919 58.7519 145.928 58.7337C146.001 58.5914 146.175 58.5353 146.319 58.6084C146.461 58.6814 146.517 58.855 146.445 58.9973C146.404 59.0782 145.402 60.9942 142.984 61.4902C142.965 61.4941 142.945 61.4967 142.926 61.4967L142.924 61.4954Z" fill="#003E83"/>
<path d="M40.528 227.436L35.92 240H32.86L28.252 227.436H30.952L34.408 237.426L37.846 227.436H40.528ZM43.3169 228.84C42.8729 228.84 42.5009 228.702 42.2009 228.426C41.9129 228.138 41.7689 227.784 41.7689 227.364C41.7689 226.944 41.9129 226.596 42.2009 226.32C42.5009 226.032 42.8729 225.888 43.3169 225.888C43.7609 225.888 44.1269 226.032 44.4149 226.32C44.7149 226.596 44.8649 226.944 44.8649 227.364C44.8649 227.784 44.7149 228.138 44.4149 228.426C44.1269 228.702 43.7609 228.84 43.3169 228.84ZM44.5589 230.028V240H42.0389V230.028H44.5589ZM56.3186 234.798C56.3186 235.158 56.2946 235.482 56.2466 235.77H48.9566C49.0166 236.49 49.2686 237.054 49.7126 237.462C50.1566 237.87 50.7026 238.074 51.3506 238.074C52.2866 238.074 52.9526 237.672 53.3486 236.868H56.0666C55.7786 237.828 55.2266 238.62 54.4106 239.244C53.5946 239.856 52.5926 240.162 51.4046 240.162C50.4446 240.162 49.5806 239.952 48.8126 239.532C48.0566 239.1 47.4626 238.494 47.0306 237.714C46.6106 236.934 46.4006 236.034 46.4006 235.014C46.4006 233.982 46.6106 233.076 47.0306 232.296C47.4506 231.516 48.0386 230.916 48.7946 230.496C49.5506 230.076 50.4206 229.866 51.4046 229.866C52.3526 229.866 53.1986 230.07 53.9426 230.478C54.6986 230.886 55.2806 231.468 55.6886 232.224C56.1086 232.968 56.3186 233.826 56.3186 234.798ZM53.7086 234.078C53.6966 233.43 53.4626 232.914 53.0066 232.53C52.5506 232.134 51.9926 231.936 51.3326 231.936C50.7086 231.936 50.1806 232.128 49.7486 232.512C49.3286 232.884 49.0706 233.406 48.9746 234.078H53.7086ZM71.982 230.028L69.066 240H66.348L64.53 233.034L62.712 240H59.976L57.042 230.028H59.598L61.362 237.624L63.27 230.028H65.934L67.806 237.606L69.57 230.028H71.982ZM80.1546 231.468C80.4786 231.012 80.9226 230.634 81.4866 230.334C82.0626 230.022 82.7166 229.866 83.4486 229.866C84.3006 229.866 85.0686 230.076 85.7526 230.496C86.4486 230.916 86.9946 231.516 87.3906 232.296C87.7986 233.064 88.0026 233.958 88.0026 234.978C88.0026 235.998 87.7986 236.904 87.3906 237.696C86.9946 238.476 86.4486 239.082 85.7526 239.514C85.0686 239.946 84.3006 240.162 83.4486 240.162C82.7166 240.162 82.0686 240.012 81.5046 239.712C80.9526 239.412 80.5026 239.034 80.1546 238.578V244.752H77.6346V230.028H80.1546V231.468ZM85.4286 234.978C85.4286 234.378 85.3026 233.862 85.0506 233.43C84.8106 232.986 84.4866 232.65 84.0786 232.422C83.6826 232.194 83.2506 232.08 82.7826 232.08C82.3266 232.08 81.8946 232.2 81.4866 232.44C81.0906 232.668 80.7666 233.004 80.5146 233.448C80.2746 233.892 80.1546 234.414 80.1546 235.014C80.1546 235.614 80.2746 236.136 80.5146 236.58C80.7666 237.024 81.0906 237.366 81.4866 237.606C81.8946 237.834 82.3266 237.948 82.7826 237.948C83.2506 237.948 83.6826 237.828 84.0786 237.588C84.4866 237.348 84.8106 237.006 85.0506 236.562C85.3026 236.118 85.4286 235.59 85.4286 234.978ZM92.3538 231.576C92.6778 231.048 93.0978 230.634 93.6138 230.334C94.1418 230.034 94.7418 229.884 95.4138 229.884V232.53H94.7478C93.9558 232.53 93.3558 232.716 92.9478 233.088C92.5518 233.46 92.3538 234.108 92.3538 235.032V240H89.8338V230.028H92.3538V231.576ZM106.381 234.798C106.381 235.158 106.357 235.482 106.309 235.77H99.0191C99.0791 236.49 99.3311 237.054 99.7751 237.462C100.219 237.87 100.765 238.074 101.413 238.074C102.349 238.074 103.015 237.672 103.411 236.868H106.129C105.841 237.828 105.289 238.62 104.473 239.244C103.657 239.856 102.655 240.162 101.467 240.162C100.507 240.162 99.6431 239.952 98.8751 239.532C98.1191 239.1 97.5251 238.494 97.0931 237.714C96.6731 236.934 96.4631 236.034 96.4631 235.014C96.4631 233.982 96.6731 233.076 97.0931 232.296C97.5131 231.516 98.1011 230.916 98.8571 230.496C99.6131 230.076 100.483 229.866 101.467 229.866C102.415 229.866 103.261 230.07 104.005 230.478C104.761 230.886 105.343 231.468 105.751 232.224C106.171 232.968 106.381 233.826 106.381 234.798ZM103.771 234.078C103.759 233.43 103.525 232.914 103.069 232.53C102.613 232.134 102.055 231.936 101.395 231.936C100.771 231.936 100.243 232.128 99.8111 232.512C99.3911 232.884 99.1331 233.406 99.0371 234.078H103.771ZM112.379 237.678L114.899 230.028H117.581L113.891 240H110.831L107.159 230.028H109.859L112.379 237.678ZM120.274 228.84C119.83 228.84 119.458 228.702 119.158 228.426C118.87 228.138 118.726 227.784 118.726 227.364C118.726 226.944 118.87 226.596 119.158 226.32C119.458 226.032 119.83 225.888 120.274 225.888C120.718 225.888 121.084 226.032 121.372 226.32C121.672 226.596 121.822 226.944 121.822 227.364C121.822 227.784 121.672 228.138 121.372 228.426C121.084 228.702 120.718 228.84 120.274 228.84ZM121.516 230.028V240H118.996V230.028H121.516ZM128.434 240.162C127.474 240.162 126.61 239.952 125.842 239.532C125.074 239.1 124.468 238.494 124.024 237.714C123.592 236.934 123.376 236.034 123.376 235.014C123.376 233.994 123.598 233.094 124.042 232.314C124.498 231.534 125.116 230.934 125.896 230.514C126.676 230.082 127.546 229.866 128.506 229.866C129.466 229.866 130.336 230.082 131.116 230.514C131.896 230.934 132.508 231.534 132.952 232.314C133.408 233.094 133.636 233.994 133.636 235.014C133.636 236.034 133.402 236.934 132.934 237.714C132.478 238.494 131.854 239.1 131.062 239.532C130.282 239.952 129.406 240.162 128.434 240.162ZM128.434 237.966C128.89 237.966 129.316 237.858 129.712 237.642C130.12 237.414 130.444 237.078 130.684 236.634C130.924 236.19 131.044 235.65 131.044 235.014C131.044 234.066 130.792 233.34 130.288 232.836C129.796 232.32 129.19 232.062 128.47 232.062C127.75 232.062 127.144 232.32 126.652 232.836C126.172 233.34 125.932 234.066 125.932 235.014C125.932 235.962 126.166 236.694 126.634 237.21C127.114 237.714 127.714 237.966 128.434 237.966ZM144.898 230.028V240H142.36V238.74C142.036 239.172 141.61 239.514 141.082 239.766C140.566 240.006 140.002 240.126 139.39 240.126C138.61 240.126 137.92 239.964 137.32 239.64C136.72 239.304 136.246 238.818 135.898 238.182C135.562 237.534 135.394 236.766 135.394 235.878V230.028H137.914V235.518C137.914 236.31 138.112 236.922 138.508 237.354C138.904 237.774 139.444 237.984 140.128 237.984C140.824 237.984 141.37 237.774 141.766 237.354C142.162 236.922 142.36 236.31 142.36 235.518V230.028H144.898ZM151.201 240.162C150.385 240.162 149.653 240.018 149.005 239.73C148.357 239.43 147.841 239.028 147.457 238.524C147.085 238.02 146.881 237.462 146.845 236.85H149.383C149.431 237.234 149.617 237.552 149.941 237.804C150.277 238.056 150.691 238.182 151.183 238.182C151.663 238.182 152.035 238.086 152.299 237.894C152.575 237.702 152.713 237.456 152.713 237.156C152.713 236.832 152.545 236.592 152.209 236.436C151.885 236.268 151.363 236.088 150.643 235.896C149.899 235.716 149.287 235.53 148.807 235.338C148.339 235.146 147.931 234.852 147.583 234.456C147.247 234.06 147.079 233.526 147.079 232.854C147.079 232.302 147.235 231.798 147.547 231.342C147.871 230.886 148.327 230.526 148.915 230.262C149.515 229.998 150.217 229.866 151.021 229.866C152.209 229.866 153.157 230.166 153.865 230.766C154.573 231.354 154.963 232.152 155.035 233.16H152.623C152.587 232.764 152.419 232.452 152.119 232.224C151.831 231.984 151.441 231.864 150.949 231.864C150.493 231.864 150.139 231.948 149.887 232.116C149.647 232.284 149.527 232.518 149.527 232.818C149.527 233.154 149.695 233.412 150.031 233.592C150.367 233.76 150.889 233.934 151.597 234.114C152.317 234.294 152.911 234.48 153.379 234.672C153.847 234.864 154.249 235.164 154.585 235.572C154.933 235.968 155.113 236.496 155.125 237.156C155.125 237.732 154.963 238.248 154.639 238.704C154.327 239.16 153.871 239.52 153.271 239.784C152.683 240.036 151.993 240.162 151.201 240.162ZM165.298 240.162C164.482 240.162 163.75 240.018 163.102 239.73C162.454 239.43 161.938 239.028 161.554 238.524C161.182 238.02 160.978 237.462 160.942 236.85H163.48C163.528 237.234 163.714 237.552 164.038 237.804C164.374 238.056 164.788 238.182 165.28 238.182C165.76 238.182 166.132 238.086 166.396 237.894C166.672 237.702 166.81 237.456 166.81 237.156C166.81 236.832 166.642 236.592 166.306 236.436C165.982 236.268 165.46 236.088 164.74 235.896C163.996 235.716 163.384 235.53 162.904 235.338C162.436 235.146 162.028 234.852 161.68 234.456C161.344 234.06 161.176 233.526 161.176 232.854C161.176 232.302 161.332 231.798 161.644 231.342C161.968 230.886 162.424 230.526 163.012 230.262C163.612 229.998 164.314 229.866 165.118 229.866C166.306 229.866 167.254 230.166 167.962 230.766C168.67 231.354 169.06 232.152 169.132 233.16H166.72C166.684 232.764 166.516 232.452 166.216 232.224C165.928 231.984 165.538 231.864 165.046 231.864C164.59 231.864 164.236 231.948 163.984 232.116C163.744 232.284 163.624 232.518 163.624 232.818C163.624 233.154 163.792 233.412 164.128 233.592C164.464 233.76 164.986 233.934 165.694 234.114C166.414 234.294 167.008 234.48 167.476 234.672C167.944 234.864 168.346 235.164 168.682 235.572C169.03 235.968 169.21 236.496 169.222 237.156C169.222 237.732 169.06 238.248 168.736 238.704C168.424 239.16 167.968 239.52 167.368 239.784C166.78 240.036 166.09 240.162 165.298 240.162ZM180.561 234.798C180.561 235.158 180.537 235.482 180.489 235.77H173.199C173.259 236.49 173.511 237.054 173.955 237.462C174.399 237.87 174.945 238.074 175.593 238.074C176.529 238.074 177.195 237.672 177.591 236.868H180.309C180.021 237.828 179.469 238.62 178.653 239.244C177.837 239.856 176.835 240.162 175.647 240.162C174.687 240.162 173.823 239.952 173.055 239.532C172.299 239.1 171.705 238.494 171.273 237.714C170.853 236.934 170.643 236.034 170.643 235.014C170.643 233.982 170.853 233.076 171.273 232.296C171.693 231.516 172.281 230.916 173.037 230.496C173.793 230.076 174.663 229.866 175.647 229.866C176.595 229.866 177.441 230.07 178.185 230.478C178.941 230.886 179.523 231.468 179.931 232.224C180.351 232.968 180.561 233.826 180.561 234.798ZM177.951 234.078C177.939 233.43 177.705 232.914 177.249 232.53C176.793 232.134 176.235 231.936 175.575 231.936C174.951 231.936 174.423 232.128 173.991 232.512C173.571 232.884 173.313 233.406 173.217 234.078H177.951ZM181.752 234.978C181.752 233.97 181.95 233.076 182.346 232.296C182.754 231.516 183.3 230.916 183.984 230.496C184.68 230.076 185.454 229.866 186.306 229.866C187.05 229.866 187.698 230.016 188.25 230.316C188.814 230.616 189.264 230.994 189.6 231.45V230.028H192.138V240H189.6V238.542C189.276 239.01 188.826 239.4 188.25 239.712C187.686 240.012 187.032 240.162 186.288 240.162C185.448 240.162 184.68 239.946 183.984 239.514C183.3 239.082 182.754 238.476 182.346 237.696C181.95 236.904 181.752 235.998 181.752 234.978ZM189.6 235.014C189.6 234.402 189.48 233.88 189.24 233.448C189 233.004 188.676 232.668 188.268 232.44C187.86 232.2 187.422 232.08 186.954 232.08C186.486 232.08 186.054 232.194 185.658 232.422C185.262 232.65 184.938 232.986 184.686 233.43C184.446 233.862 184.326 234.378 184.326 234.978C184.326 235.578 184.446 236.106 184.686 236.562C184.938 237.006 185.262 237.348 185.658 237.588C186.066 237.828 186.498 237.948 186.954 237.948C187.422 237.948 187.86 237.834 188.268 237.606C188.676 237.366 189 237.03 189.24 236.598C189.48 236.154 189.6 235.626 189.6 235.014ZM197.119 231.576C197.443 231.048 197.863 230.634 198.379 230.334C198.907 230.034 199.507 229.884 200.179 229.884V232.53H199.513C198.721 232.53 198.121 232.716 197.713 233.088C197.317 233.46 197.119 234.108 197.119 235.032V240H194.599V230.028H197.119V231.576ZM201.229 235.014C201.229 233.982 201.439 233.082 201.859 232.314C202.279 231.534 202.861 230.934 203.605 230.514C204.349 230.082 205.201 229.866 206.161 229.866C207.397 229.866 208.417 230.178 209.221 230.802C210.037 231.414 210.583 232.278 210.859 233.394H208.141C207.997 232.962 207.751 232.626 207.403 232.386C207.067 232.134 206.647 232.008 206.143 232.008C205.423 232.008 204.853 232.272 204.433 232.8C204.013 233.316 203.803 234.054 203.803 235.014C203.803 235.962 204.013 236.7 204.433 237.228C204.853 237.744 205.423 238.002 206.143 238.002C207.163 238.002 207.829 237.546 208.141 236.634H210.859C210.583 237.714 210.037 238.572 209.221 239.208C208.405 239.844 207.385 240.162 206.161 240.162C205.201 240.162 204.349 239.952 203.605 239.532C202.861 239.1 202.279 238.5 201.859 237.732C201.439 236.952 201.229 236.046 201.229 235.014ZM218.321 229.884C219.077 229.884 219.749 230.052 220.337 230.388C220.925 230.712 221.381 231.198 221.705 231.846C222.041 232.482 222.209 233.25 222.209 234.15V240H219.689V234.492C219.689 233.7 219.491 233.094 219.095 232.674C218.699 232.242 218.159 232.026 217.475 232.026C216.779 232.026 216.227 232.242 215.819 232.674C215.423 233.094 215.225 233.7 215.225 234.492V240H212.705V226.68H215.225V231.27C215.549 230.838 215.981 230.502 216.521 230.262C217.061 230.01 217.661 229.884 218.321 229.884ZM233.875 234.798C233.875 235.158 233.851 235.482 233.803 235.77H226.513C226.573 236.49 226.825 237.054 227.269 237.462C227.713 237.87 228.259 238.074 228.907 238.074C229.843 238.074 230.509 237.672 230.905 236.868H233.623C233.335 237.828 232.783 238.62 231.967 239.244C231.151 239.856 230.149 240.162 228.961 240.162C228.001 240.162 227.137 239.952 226.369 239.532C225.613 239.1 225.019 238.494 224.587 237.714C224.167 236.934 223.957 236.034 223.957 235.014C223.957 233.982 224.167 233.076 224.587 232.296C225.007 231.516 225.595 230.916 226.351 230.496C227.107 230.076 227.977 229.866 228.961 229.866C229.909 229.866 230.755 230.07 231.499 230.478C232.255 230.886 232.837 231.468 233.245 232.224C233.665 232.968 233.875 233.826 233.875 234.798ZM231.265 234.078C231.253 233.43 231.019 232.914 230.563 232.53C230.107 232.134 229.549 231.936 228.889 231.936C228.265 231.936 227.737 232.128 227.305 232.512C226.885 232.884 226.627 233.406 226.531 234.078H231.265ZM239.531 240.162C238.715 240.162 237.983 240.018 237.335 239.73C236.687 239.43 236.171 239.028 235.787 238.524C235.415 238.02 235.211 237.462 235.175 236.85H237.713C237.761 237.234 237.947 237.552 238.271 237.804C238.607 238.056 239.021 238.182 239.513 238.182C239.993 238.182 240.365 238.086 240.629 237.894C240.905 237.702 241.043 237.456 241.043 237.156C241.043 236.832 240.875 236.592 240.539 236.436C240.215 236.268 239.693 236.088 238.973 235.896C238.229 235.716 237.617 235.53 237.137 235.338C236.669 235.146 236.261 234.852 235.913 234.456C235.577 234.06 235.409 233.526 235.409 232.854C235.409 232.302 235.565 231.798 235.877 231.342C236.201 230.886 236.657 230.526 237.245 230.262C237.845 229.998 238.547 229.866 239.351 229.866C240.539 229.866 241.487 230.166 242.195 230.766C242.903 231.354 243.293 232.152 243.365 233.16H240.953C240.917 232.764 240.749 232.452 240.449 232.224C240.161 231.984 239.771 231.864 239.279 231.864C238.823 231.864 238.469 231.948 238.217 232.116C237.977 232.284 237.857 232.518 237.857 232.818C237.857 233.154 238.025 233.412 238.361 233.592C238.697 233.76 239.219 233.934 239.927 234.114C240.647 234.294 241.241 234.48 241.709 234.672C242.177 234.864 242.579 235.164 242.915 235.572C243.263 235.968 243.443 236.496 243.455 237.156C243.455 237.732 243.293 238.248 242.969 238.704C242.657 239.16 242.201 239.52 241.601 239.784C241.013 240.036 240.323 240.162 239.531 240.162Z" fill="white"/>
</svg>
