<svg width="274" height="261" viewBox="0 0 274 261" fill="none" xmlns="http://www.w3.org/2000/svg">
<path d="M88.8479 179.873H197.656C200.649 179.873 203.076 177.457 203.076 174.479L203.069 23.5092C202.99 19.4665 201.035 17.1475 197.656 17.1475L88.8479 17.6113C86.1579 17.6113 83.8649 19.5623 83.4355 22.2182L83.4297 174.479C83.4297 177.459 85.8554 179.873 88.8491 179.873H88.8479Z" fill="#F3C521"/>
<path d="M84.73 180.142H193.553C196.547 180.142 198.974 177.728 198.973 174.749L198.966 23.8394C198.887 19.7978 196.932 17.4995 193.552 17.4995H84.7276C83.4946 17.4995 82.3447 17.9102 81.4199 18.6106C80.0575 19.642 79.314 21.2884 79.314 22.9856L79.3105 174.75C79.3105 177.729 81.7374 180.144 84.73 180.144V180.142Z" fill="white"/>
<path d="M193.554 180.398H84.7304C83.2145 180.398 81.7886 179.811 80.7172 178.744C79.6447 177.677 79.0547 176.258 79.0547 174.749L79.0582 22.9844C79.0582 21.1638 79.8836 19.4516 81.2656 18.4052C82.2701 17.6448 83.4673 17.2422 84.7281 17.2422H193.553C197.075 17.2422 199.142 19.6443 199.223 23.8336L199.23 174.747C199.23 176.257 198.64 177.676 197.567 178.743C196.496 179.81 195.07 180.397 193.554 180.397V180.398ZM84.7281 17.7556C83.5805 17.7556 82.4906 18.1213 81.575 18.8147C80.3201 19.7654 79.5708 21.3242 79.5708 22.9856L79.5673 174.75C79.5673 176.122 80.1042 177.411 81.0786 178.382C82.0542 179.352 83.3507 179.886 84.7304 179.886H193.554C194.934 179.886 196.23 179.352 197.206 178.382C198.181 177.411 198.717 176.122 198.717 174.75L198.71 23.8405C198.634 19.9189 196.803 17.7568 193.553 17.7568H84.7281V17.7556Z" fill="#F3C521"/>
<path d="M165.82 13.7681H115.204C113.896 13.7681 112.836 14.8275 112.836 16.1344V27.9523C112.836 29.2592 113.896 30.3186 115.204 30.3186H165.82C167.128 30.3186 168.188 29.2592 168.188 27.9523V16.1344C168.188 14.8275 167.128 13.7681 165.82 13.7681Z" fill="white"/>
<path d="M165.821 30.5758H115.205C113.758 30.5758 112.58 29.399 112.58 27.9522V16.1344C112.58 14.6876 113.758 13.5107 115.205 13.5107H165.821C167.268 13.5107 168.446 14.6876 168.446 16.1344V27.9522C168.446 29.399 167.268 30.5758 165.821 30.5758ZM115.205 14.0242C114.041 14.0242 113.094 14.9714 113.094 16.1344V27.9522C113.094 29.1164 114.042 30.0624 115.205 30.0624H165.821C166.985 30.0624 167.932 29.1152 167.932 27.9522V16.1344C167.932 14.9702 166.984 14.0242 165.821 14.0242H115.205Z" fill="#F3C521"/>
<path d="M140.317 0.764404C135.083 0.764404 130.861 5.02982 130.861 10.2909V24.5697C130.861 25.8527 131.896 26.8934 133.173 26.8934H147.461C148.738 26.8934 149.773 25.8527 149.773 24.5697V10.2909C149.773 5.02982 145.551 0.764404 140.317 0.764404ZM140.846 13.8133C138.328 14.1329 136.209 12.0031 136.527 9.47175C136.743 7.7469 138.129 6.35432 139.845 6.13626C142.363 5.81783 144.48 7.94649 144.164 10.4778C143.948 12.2027 142.563 13.5953 140.846 13.8133Z" fill="white"/>
<path d="M147.461 27.1505H133.172C131.756 27.1505 130.604 25.9933 130.604 24.5707V10.2919C130.604 4.89699 134.961 0.509277 140.317 0.509277C145.673 0.509277 150.03 4.89814 150.03 10.2919V24.5707C150.03 25.9933 148.878 27.1505 147.462 27.1505H147.461ZM140.317 1.02154C135.244 1.02154 131.117 5.18081 131.117 10.2919V24.5707C131.117 25.7106 132.04 26.6382 133.172 26.6382H147.461C148.595 26.6382 149.516 25.7106 149.516 24.5707V10.2919C149.516 5.17966 145.389 1.02154 140.317 1.02154ZM140.347 14.1016C139.261 14.1016 138.229 13.6793 137.451 12.9029C136.539 11.9937 136.11 10.7315 136.272 9.4393C136.502 7.6083 137.99 6.11304 139.812 5.88229C141.086 5.72076 142.335 6.14534 143.238 7.04642C144.149 7.95558 144.579 9.21778 144.418 10.51C144.188 12.341 142.7 13.8362 140.878 14.0681C140.7 14.0912 140.523 14.1016 140.347 14.1016ZM140.342 6.36225C140.189 6.36225 140.033 6.37148 139.877 6.39225C138.284 6.59415 136.982 7.9025 136.781 9.50506C136.639 10.638 137.016 11.7456 137.814 12.5417C138.604 13.3309 139.698 13.7024 140.813 13.5605C142.406 13.3586 143.708 12.0491 143.908 10.4477C144.05 9.31469 143.674 8.20709 142.875 7.41101C142.195 6.7326 141.291 6.36225 140.341 6.36225H140.342Z" fill="#F3C521"/>
<path d="M185.729 58.317C185.729 58.7716 185.224 59.8307 184.415 59.8307H178.405C177.597 59.8307 176.788 59.2757 175.652 59.2757H142.38C141.66 59.2757 139.943 58.8212 139.185 58.317C138.428 57.8116 138.352 57.6859 138.352 57.3582V55.3645C138.352 55.0623 139.26 54.7334 139.26 54.2039V51.2768C139.26 50.5199 146.079 45.6742 148.251 45.1446C150.422 44.6151 159.944 44.5643 162.494 44.7916C165.045 45.0189 170.525 47.7186 173.985 50.2684C177.698 50.2684 181.687 51.2007 183.431 52.2483C185.173 53.297 185.729 55.0888 185.729 55.8456V58.3193V58.317Z" fill="white"/>
<path d="M150.902 59.5318H142.381C142.219 59.5318 142.012 59.5111 141.763 59.4695C141.656 59.4522 141.571 59.368 141.552 59.2607C141.505 58.9838 141.48 58.7046 141.48 58.43C141.48 55.7418 143.668 53.5554 146.358 53.5554C149.048 53.5554 151.236 55.7418 151.236 58.43C151.236 58.7254 151.209 59.0253 151.153 59.3219C151.13 59.443 151.025 59.5318 150.902 59.5318ZM142.03 58.9919C142.169 59.0103 142.289 59.0196 142.381 59.0196H150.683C150.71 58.8223 150.724 58.625 150.724 58.43C150.724 56.0244 148.766 54.0677 146.358 54.0677C143.951 54.0677 141.993 56.0244 141.993 58.43C141.993 58.6158 142.006 58.8038 142.03 58.9919Z" fill="#003E83"/>
<path d="M180.614 60.0868H178.406C177.996 60.0868 177.604 59.9633 177.188 59.833C176.717 59.6853 176.23 59.5318 175.653 59.5318H171.665C171.541 59.5318 171.435 59.4442 171.413 59.3219C171.358 59.0253 171.33 58.7254 171.33 58.43C171.33 55.7418 173.518 53.5554 176.208 53.5554C178.898 53.5554 181.086 55.7418 181.086 58.43C181.086 58.933 181.009 59.4303 180.857 59.908C180.824 60.0141 180.725 60.0868 180.613 60.0868H180.614ZM171.884 59.0196H175.653C176.308 59.0196 176.857 59.1915 177.342 59.3438C177.735 59.4672 178.075 59.5745 178.405 59.5745H180.421C180.523 59.2019 180.573 58.8177 180.573 58.43C180.573 56.0244 178.615 54.0677 176.208 54.0677C173.801 54.0677 171.843 56.0244 171.843 58.43C171.843 58.625 171.857 58.8223 171.883 59.0196H171.884Z" fill="#003E83"/>
<path d="M182.888 53.2487C183.146 53.3191 183.37 53.476 183.526 53.6917C183.646 53.8579 183.771 54.0506 183.813 54.1775C183.902 54.4428 183.813 54.7451 183.447 54.7451H181.301C180.96 54.7451 180.329 54.2282 179.976 53.8117C179.622 53.3952 179.091 52.7134 179.244 52.6257C179.386 52.5438 181.101 52.7584 182.89 53.2487H182.888Z" fill="#003E83"/>
<path d="M183.303 57.5972C183.429 57.3468 183.736 57.1426 183.987 57.1426H185.729V58.3159C185.729 58.4417 185.69 58.6125 185.617 58.7959H183.153C182.901 58.7959 182.801 58.5928 182.928 58.3413L183.303 57.5972Z" fill="#003E83"/>
<path d="M170.112 50.0779C170.332 50.2498 170.579 50.7217 170.112 50.7471C169.644 50.7725 160.553 50.4194 160.124 50.4125C159.694 50.4056 159.569 50.1541 159.492 49.8633C159.416 49.5726 158.886 46.9236 158.861 46.6963C158.835 46.469 158.835 46.2544 159.227 46.2544C159.618 46.2544 162.636 46.3675 164.328 46.9109C166.02 47.4531 168.267 48.6392 170.111 50.0779H170.112Z" fill="#003E83"/>
<path d="M157.737 46.7208C157.737 46.7208 157.851 49.724 157.851 49.8752C157.851 50.0263 157.774 50.279 157.485 50.279C157.195 50.279 148.001 50.0644 147.622 50.0517C147.244 50.039 147.067 49.9132 147.129 49.6479C147.193 49.3825 149.25 46.8847 150.943 46.4428C152.635 46.0009 157.042 46.2536 157.256 46.2536C157.47 46.2536 157.721 46.3435 157.736 46.7208H157.737Z" fill="#003E83"/>
<path d="M146.008 46.2268C146.541 46.3803 147.194 47.3332 146.632 47.6517C146.215 47.8894 144.878 49.0143 144.346 49.5069C143.817 49.9996 143.462 50.1507 143.083 50.1507H140.471C141.753 49.1089 144.331 47.2167 146.007 46.2268H146.008Z" fill="#003E83"/>
<path d="M139.261 54.2039V51.5029H141.42C141.735 51.5029 141.901 51.6229 141.735 52.074C141.572 52.5252 140.763 53.7366 140.536 53.9131C140.308 54.0896 140.106 54.2292 139.817 54.2292H139.258C139.258 54.2212 139.26 54.2131 139.26 54.2039H139.261Z" fill="#003E83"/>
<path d="M178.405 60.0868C177.997 60.0868 177.602 59.9622 177.188 59.8329C176.717 59.6853 176.23 59.5318 175.653 59.5318H142.38C141.58 59.5318 139.818 59.0461 139.044 58.5292C138.286 58.025 138.096 57.8335 138.096 57.357V55.3633C138.096 55.1095 138.317 54.9318 138.553 54.7438C138.755 54.5822 139.005 54.3815 139.005 54.2026V51.2744C139.005 50.2107 146.272 45.3615 148.191 44.893C150.373 44.3612 159.928 44.3035 162.518 44.5331C164.636 44.7211 168.43 46.4921 171.251 48.1628C173.091 49.2531 175.117 49.9476 177.272 50.2268C179.867 50.5626 182.278 51.2514 183.563 52.0244C185.328 53.0858 185.985 54.9284 185.985 55.841V58.3146C185.985 58.7288 185.689 59.4095 185.214 59.7891C184.897 60.0418 184.536 60.1341 184.171 60.0602L178.725 60.0579C178.618 60.0764 178.512 60.0845 178.405 60.0845V60.0868ZM138.608 55.3841V57.357C138.608 57.5566 138.608 57.6235 139.328 58.1023C140.01 58.5569 141.678 59.0184 142.38 59.0184H175.653C176.309 59.0184 176.857 59.1903 177.342 59.3426C177.827 59.4949 178.247 59.6264 178.655 59.5503C178.67 59.548 178.686 59.5457 178.702 59.5457L184.199 59.548C184.218 59.548 184.237 59.5503 184.255 59.5549C184.478 59.6057 184.693 59.5503 184.894 59.3899C185.253 59.1049 185.472 58.5719 185.472 58.3158V55.8421C185.472 55.1672 184.941 53.4527 183.298 52.4651C182.07 51.7267 179.735 51.0644 177.205 50.7368C174.981 50.4483 172.889 49.7319 170.989 48.6047C167.659 46.6317 164.237 45.2011 162.471 45.0442C159.905 44.8157 150.457 44.8677 148.312 45.3915C146.175 45.913 139.726 50.558 139.515 51.2964L139.517 54.2026C139.517 54.6272 139.159 54.9134 138.873 55.1441C138.78 55.2179 138.642 55.3287 138.608 55.3841Z" fill="#003E83"/>
<path d="M176.847 62.3448C179.015 61.9931 180.488 59.9514 180.136 57.7846C179.784 55.6179 177.741 54.1464 175.572 54.4982C173.404 54.8499 171.932 56.8915 172.284 59.0583C172.636 61.2251 174.679 62.6965 176.847 62.3448Z" fill="#003E83"/>
<path d="M178.809 59.5065C179.404 58.0713 178.722 56.4259 177.286 55.8314C175.85 55.2369 174.203 55.9184 173.608 57.3537C173.014 58.7889 173.696 60.4343 175.132 61.0288C176.568 61.6233 178.215 60.9418 178.809 59.5065Z" fill="white"/>
<path d="M147.271 62.3052C149.409 61.8009 150.733 59.6602 150.228 57.5238C149.723 55.3873 147.581 54.0642 145.443 54.5684C143.305 55.0727 141.981 57.2134 142.486 59.3498C142.991 61.4863 145.133 62.8094 147.271 62.3052Z" fill="#003E83"/>
<path d="M148.958 59.508C149.553 58.0727 148.871 56.4273 147.435 55.8328C145.998 55.2383 144.352 55.9199 143.757 57.3551C143.162 58.7904 143.844 60.4358 145.28 61.0303C146.716 61.6248 148.363 60.9432 148.958 59.508Z" fill="white"/>
<path d="M186.203 68.313H137.879C136.156 68.313 134.756 66.9123 134.756 65.1921V41.8748C134.756 40.1534 136.157 38.7539 137.879 38.7539H186.203C187.926 38.7539 189.326 40.1534 189.326 41.8748V65.1921C189.326 66.9135 187.925 68.313 186.203 68.313ZM137.879 39.2662C136.439 39.2662 135.268 40.4361 135.268 41.8748V65.1921C135.268 66.6308 136.439 67.8007 137.879 67.8007H186.203C187.643 67.8007 188.814 66.6308 188.814 65.1921V41.8748C188.814 40.4361 187.643 39.2662 186.203 39.2662H137.879Z" fill="#003E83"/>
<path d="M119.993 79.8077H102.442C101.257 79.8077 100.293 78.8443 100.293 77.6606C100.293 76.4768 101.257 75.5134 102.442 75.5134H119.294C119.436 75.5134 119.551 75.6277 119.551 75.7696C119.551 75.9115 119.436 76.0257 119.294 76.0257H102.442C101.54 76.0257 100.806 76.7595 100.806 77.6606C100.806 78.5616 101.54 79.2954 102.442 79.2954H119.993C120.135 79.2954 120.249 79.4096 120.249 79.5516C120.249 79.6935 120.135 79.8077 119.993 79.8077Z" fill="#F3C521"/>
<path d="M167.792 79.8077H138.538C138.396 79.8077 138.281 79.6935 138.281 79.5516C138.281 79.4096 138.396 79.2954 138.538 79.2954H167.792C168.694 79.2954 169.428 78.5616 169.428 77.6606C169.428 76.7595 168.694 76.0257 167.792 76.0257H138.756C138.614 76.0257 138.499 75.9115 138.499 75.7696C138.499 75.6277 138.614 75.5134 138.756 75.5134H167.792C168.977 75.5134 169.941 76.4768 169.941 77.6606C169.941 78.8443 168.977 79.8077 167.792 79.8077Z" fill="#003E83"/>
<path d="M167.792 88.7078H154.129C152.945 88.7078 151.98 87.7444 151.98 86.5607C151.98 85.377 152.945 84.4136 154.129 84.4136H167.792C168.976 84.4136 169.94 85.377 169.94 86.5607C169.94 87.7444 168.976 88.7078 167.792 88.7078ZM154.129 84.927C153.227 84.927 152.493 85.6608 152.493 86.5619C152.493 87.4629 153.227 88.1967 154.129 88.1967H167.792C168.694 88.1967 169.428 87.4629 169.428 86.5619C169.428 85.6608 168.694 84.927 167.792 84.927H154.129Z" fill="#003E83"/>
<path d="M167.792 98.3045H102.442C101.257 98.3045 100.293 97.3411 100.293 96.1574C100.293 94.9736 101.257 94.0103 102.442 94.0103H167.792C168.977 94.0103 169.941 94.9736 169.941 96.1574C169.941 97.3411 168.977 98.3045 167.792 98.3045ZM102.442 94.5237C101.54 94.5237 100.806 95.2575 100.806 96.1585C100.806 97.0596 101.54 97.7934 102.442 97.7934H167.792C168.694 97.7934 169.428 97.0596 169.428 96.1585C169.428 95.2575 168.694 94.5237 167.792 94.5237H102.442Z" fill="#003E83"/>
<path d="M167.793 107.205H160.979C159.794 107.205 158.83 106.241 158.83 105.058C158.83 103.874 159.794 102.91 160.979 102.91H167.793C168.977 102.91 169.941 103.874 169.941 105.058C169.941 106.241 168.977 107.205 167.793 107.205ZM160.979 103.424C160.077 103.424 159.343 104.158 159.343 105.059C159.343 105.96 160.077 106.694 160.979 106.694H167.793C168.694 106.694 169.429 105.96 169.429 105.059C169.429 104.158 168.694 103.424 167.793 103.424H160.979Z" fill="#003E83"/>
<path d="M167.792 116.322H155.912C154.728 116.322 153.764 115.358 153.764 114.174C153.764 112.991 154.728 112.027 155.912 112.027H167.792C168.977 112.027 169.941 112.991 169.941 114.174C169.941 115.358 168.977 116.322 167.792 116.322ZM155.912 112.541C155.011 112.541 154.276 113.275 154.276 114.176C154.276 115.077 155.011 115.81 155.912 115.81H167.792C168.694 115.81 169.428 115.077 169.428 114.176C169.428 113.275 168.694 112.541 167.792 112.541H155.912Z" fill="#003E83"/>
<path d="M127.106 42.6893H103.117C101.933 42.6893 100.969 41.7259 100.969 40.5421C100.969 39.3584 101.933 38.395 103.117 38.395H127.106C128.291 38.395 129.255 39.3584 129.255 40.5421C129.255 41.7259 128.291 42.6893 127.106 42.6893ZM103.117 38.9084C102.216 38.9084 101.481 39.6422 101.481 40.5433C101.481 41.4444 102.216 42.1782 103.117 42.1782H127.106C128.008 42.1782 128.742 41.4444 128.742 40.5433C128.742 39.6422 128.008 38.9084 127.106 38.9084H103.117Z" fill="#F3C521"/>
<path d="M127.106 50.702H103.117C101.933 50.702 100.969 49.7386 100.969 48.5548C100.969 47.3711 101.933 46.4077 103.117 46.4077H127.106C128.291 46.4077 129.255 47.3711 129.255 48.5548C129.255 49.7386 128.291 50.702 127.106 50.702ZM103.117 46.9211C102.216 46.9211 101.481 47.6549 101.481 48.556C101.481 49.4571 102.216 50.1909 103.117 50.1909H127.106C128.008 50.1909 128.742 49.4571 128.742 48.556C128.742 47.6549 128.008 46.9211 127.106 46.9211H103.117Z" fill="#F3C521"/>
<path d="M116.269 58.7137H103.117C101.933 58.7137 100.969 57.7503 100.969 56.5666C100.969 55.3828 101.933 54.4194 103.117 54.4194H116.269C117.453 54.4194 118.417 55.3828 118.417 56.5666C118.417 57.7503 117.453 58.7137 116.269 58.7137ZM103.117 54.9329C102.216 54.9329 101.481 55.6666 101.481 56.5677C101.481 57.4688 102.216 58.2026 103.117 58.2026H116.269C117.17 58.2026 117.905 57.4688 117.905 56.5677C117.905 55.6666 117.17 54.9329 116.269 54.9329H103.117Z" fill="#F3C521"/>
<path d="M186.612 88.3962H179.151C177.654 88.3962 176.436 87.179 176.436 85.6826V78.227C176.436 76.7306 177.654 75.5134 179.151 75.5134H186.612C188.109 75.5134 189.327 76.7306 189.327 78.227V85.6826C189.327 87.179 188.109 88.3962 186.612 88.3962ZM179.151 76.0257C177.936 76.0257 176.948 77.0133 176.948 78.2259V85.6814C176.948 86.8952 177.936 87.8828 179.151 87.8828H186.612C187.826 87.8828 188.815 86.8952 188.815 85.6814V78.2259C188.815 77.0121 187.826 76.0257 186.612 76.0257H179.151Z" fill="#F3C521"/>
<path d="M181.861 84.7421C181.823 84.7421 181.786 84.7387 181.748 84.7317C181.529 84.6902 181.349 84.5333 181.279 84.321L180.117 81.2901C180.066 81.1574 180.132 81.0097 180.265 80.959C180.397 80.9082 180.545 80.974 180.596 81.1067L181.763 84.1503C181.784 84.2114 181.822 84.2253 181.844 84.2299C181.864 84.2333 181.901 84.2345 181.932 84.2033L185.145 79.0772C185.22 78.9572 185.379 78.9215 185.498 78.9965C185.618 79.0714 185.654 79.2295 185.579 79.3495L182.354 84.4941C182.348 84.5033 182.342 84.5125 182.335 84.5206C182.217 84.6637 182.043 84.7444 181.861 84.7444V84.7421Z" fill="#F3C521"/>
<path d="M186.612 106.764H179.151C177.654 106.764 176.436 105.547 176.436 104.05V96.5947C176.436 95.0983 177.654 93.8811 179.151 93.8811H186.612C188.109 93.8811 189.327 95.0983 189.327 96.5947V104.05C189.327 105.547 188.109 106.764 186.612 106.764ZM179.151 94.3934C177.936 94.3934 176.948 95.381 176.948 96.5947V104.05C176.948 105.264 177.936 106.252 179.151 106.252H186.612C187.826 106.252 188.815 105.264 188.815 104.05V96.5947C188.815 95.381 187.826 94.3934 186.612 94.3934H179.151Z" fill="#F3C521"/>
<path d="M181.822 103.31C181.783 103.31 181.744 103.306 181.704 103.298C181.476 103.255 181.29 103.092 181.217 102.871L179.976 99.6384C179.925 99.5057 179.991 99.358 180.124 99.3072C180.257 99.2565 180.404 99.3222 180.455 99.4549L181.7 102.7C181.724 102.775 181.777 102.792 181.799 102.795C181.819 102.798 181.868 102.802 181.909 102.762L185.337 97.2928C185.412 97.1728 185.571 97.137 185.69 97.212C185.81 97.287 185.846 97.4451 185.771 97.5651L182.333 103.051C182.327 103.06 182.32 103.07 182.313 103.078C182.191 103.227 182.009 103.31 181.821 103.31H181.822Z" fill="#F3C521"/>
<path d="M186.612 125.13H179.151C177.654 125.13 176.436 123.913 176.436 122.417V114.961C176.436 113.465 177.654 112.248 179.151 112.248H186.612C188.109 112.248 189.327 113.465 189.327 114.961V122.417C189.327 123.913 188.109 125.13 186.612 125.13ZM179.151 112.76C177.936 112.76 176.948 113.747 176.948 114.961V122.417C176.948 123.63 177.936 124.618 179.151 124.618H186.612C187.826 124.618 188.815 123.63 188.815 122.417V114.961C188.815 113.747 187.826 112.76 186.612 112.76H179.151Z" fill="#003E83"/>
<path d="M181.813 121.721C181.774 121.721 181.733 121.718 181.694 121.71C181.464 121.666 181.276 121.502 181.203 121.279L179.945 118C179.894 117.869 179.96 117.72 180.093 117.669C180.225 117.619 180.373 117.684 180.424 117.817L181.686 121.107C181.711 121.185 181.767 121.202 181.789 121.206C181.811 121.21 181.861 121.214 181.904 121.17L185.38 115.625C185.456 115.505 185.615 115.469 185.734 115.544C185.854 115.619 185.89 115.777 185.815 115.897L182.328 121.459C182.322 121.469 182.315 121.478 182.308 121.486C182.185 121.636 182.002 121.72 181.813 121.72V121.721Z" fill="#003E83"/>
<path d="M82.877 54.4498L83.8779 58.7522C83.9472 59.0498 84.1354 59.306 84.3998 59.4606L86.3475 60.6039C86.6107 60.7585 86.8001 61.0147 86.8694 61.3123L87.3843 63.5241C87.4559 63.8344 87.3924 64.1598 87.2088 64.4205L85.985 66.1523C85.8014 66.4119 85.7379 66.7384 85.8095 67.0488L86.1593 68.5509C86.299 69.1509 86.8982 69.5236 87.4986 69.3839C88.0989 69.2443 88.6981 69.6182 88.8378 70.217L89.153 71.5738C89.2927 72.1737 88.9187 72.7725 88.3195 72.9121C87.7191 73.0517 87.3462 73.6505 87.4859 74.2505L87.8184 75.68C87.8923 75.9972 88.1012 76.2661 88.3899 76.4161L90.2037 77.3598C90.4923 77.5098 90.7013 77.7786 90.7752 78.0959L91.3224 80.4461C91.3928 80.7507 91.3328 81.0714 91.155 81.3299L89.9231 83.1228C89.7453 83.3812 89.6853 83.702 89.7557 84.0066L90.2302 86.0464C90.3226 86.441 90.6205 86.7548 91.0107 86.8656L94.6567 87.9062C95.0285 88.0124 95.4291 87.9189 95.7154 87.6582L98.4921 85.128C98.79 84.8557 98.9181 84.445 98.8269 84.0516L91.4725 52.4492L82.8781 54.4464L82.877 54.4498Z" fill="white"/>
<path d="M94.9665 88.2084C94.8395 88.2084 94.7125 88.1911 94.5866 88.1553L90.9406 87.1146C90.4615 86.9785 90.0943 86.592 89.9812 86.1074L89.5067 84.0676C89.4189 83.6937 89.494 83.2969 89.7122 82.9807L90.9441 81.1878C91.0803 80.9894 91.1265 80.7413 91.0722 80.5071L90.525 78.1557C90.4684 77.9111 90.3079 77.7046 90.0851 77.5893L88.2713 76.6455C87.9157 76.4609 87.6594 76.1309 87.5682 75.7398L87.2357 74.3091C87.1526 73.9526 87.2138 73.5846 87.4077 73.2742C87.6017 72.9627 87.9042 72.7458 88.2621 72.6639C88.7239 72.5566 89.0114 72.0939 88.904 71.6324L88.5888 70.2756C88.5369 70.0518 88.4006 69.8626 88.2055 69.7415C88.0104 69.6203 87.7806 69.5822 87.5567 69.6342C87.1999 69.7172 86.8316 69.6561 86.521 69.4622C86.2093 69.2684 85.9923 68.9661 85.9103 68.6085L85.5605 67.1063C85.4716 66.7255 85.5501 66.324 85.7764 66.0045L87.0002 64.2727C87.141 64.0731 87.1907 63.8216 87.1353 63.5827L86.6203 61.371C86.5672 61.1426 86.4206 60.9441 86.2185 60.8253L84.2708 59.6819C83.9476 59.4927 83.7144 59.1743 83.6289 58.8108L82.6279 54.5085C82.5956 54.3712 82.681 54.2328 82.8196 54.2016C82.957 54.1681 83.0955 54.2547 83.1267 54.3931L84.1277 58.6955C84.1808 58.9239 84.3274 59.1223 84.5295 59.2412L86.4772 60.3845C86.8004 60.5738 87.0337 60.8922 87.1191 61.2556L87.634 63.4674C87.7229 63.8481 87.6444 64.2496 87.4181 64.5692L86.1943 66.301C86.0534 66.5006 86.0038 66.7521 86.0592 66.9909L86.409 68.4931C86.461 68.7169 86.5972 68.9061 86.7924 69.0273C86.9875 69.1484 87.2172 69.1865 87.4412 69.1346C87.7991 69.0515 88.1663 69.1127 88.4768 69.3065C88.7886 69.5003 89.0056 69.8026 89.0876 70.1603L89.4028 71.5171C89.5748 72.2532 89.1141 72.9916 88.3775 73.1635C88.1536 73.2154 87.9642 73.3515 87.843 73.5465C87.7218 73.7415 87.6837 73.9711 87.7356 74.1949L88.0681 75.6256C88.1247 75.8702 88.2852 76.0767 88.508 76.1921L90.3218 77.1358C90.6774 77.3204 90.9337 77.6504 91.0249 78.0415L91.5721 80.3929C91.6587 80.7667 91.5848 81.1636 91.3666 81.4797L90.1347 83.2726C89.9985 83.4711 89.9512 83.7191 90.0066 83.9533L90.4811 85.9932C90.5515 86.2966 90.7824 86.5389 91.0826 86.6243L94.7287 87.6649C95.0173 87.748 95.3221 87.6765 95.5438 87.4734L98.3193 84.9433C98.549 84.7344 98.6472 84.4171 98.5779 84.1137L91.2235 52.5114C91.1911 52.3741 91.2766 52.2356 91.4151 52.2045C91.5525 52.171 91.6911 52.2575 91.7222 52.396L99.0767 83.9983C99.1886 84.4806 99.0316 84.9882 98.6645 85.3217L95.889 87.8519C95.6315 88.0861 95.3048 88.2107 94.9676 88.2107L94.9665 88.2084Z" fill="#003E83"/>
<path d="M88.2575 56.8704L94.3119 82.8851C94.432 83.4031 94.9504 83.725 95.4688 83.605C95.9872 83.485 96.3093 82.967 96.1892 82.449L90.1348 56.4342C90.0147 55.9162 89.4963 55.5943 88.978 55.7143C88.4596 55.8343 88.1375 56.3523 88.2575 56.8704Z" fill="#003E83"/>
<path d="M84.9855 31.9191L79.6296 33.164C74.6847 34.3131 71.4705 39.1612 72.6204 44.1038L74.56 52.4385C75.0172 54.4022 77.1162 55.7059 79.0812 55.2491L95.2286 51.4959C97.1936 51.039 98.332 48.983 97.8748 47.0194L95.9352 38.6847C94.7852 33.742 89.9304 30.77 84.9855 31.9191ZM88.1443 38.7631C88.2644 39.2812 88.0404 39.8465 87.522 39.9665L80.9077 41.5033C80.3893 41.6233 79.7681 41.2552 79.6481 40.7372L79.4922 40.0657C79.1886 38.7631 80.1076 37.5275 81.4122 37.224L85.1818 36.3483C86.4852 36.0449 87.686 36.7891 87.9896 38.0917L88.1455 38.7631H88.1443Z" fill="white"/>
<path d="M78.2868 55.594C77.5398 55.594 76.7813 55.3794 76.1197 54.9675C75.203 54.3976 74.5438 53.4965 74.3106 52.495L72.3709 44.1604C71.2049 39.1519 74.4353 34.1066 79.5718 32.9136L84.9277 31.6687C87.388 31.0965 89.9072 31.498 92.0189 32.7982C94.1352 34.102 95.6153 36.1718 96.1856 38.6258L98.1252 46.9605C98.6275 49.118 97.354 51.264 95.2874 51.7451L79.14 55.4983C78.8618 55.5629 78.5754 55.5952 78.2868 55.5952V55.594ZM85.0432 32.1683L79.6873 33.4132C77.3458 33.9578 75.3462 35.3561 74.0543 37.3509C72.7531 39.3596 72.3328 41.7375 72.8697 44.0461L74.8093 52.3808C75.0114 53.2508 75.5886 54.0365 76.3899 54.5349C77.1923 55.0333 78.1517 55.2029 79.0222 55.001L95.1696 51.2478C96.9615 50.8313 98.0629 48.9611 97.6242 47.0782L95.6845 38.7435C95.1442 36.4233 93.7461 34.4677 91.7476 33.2367C89.7525 32.0068 87.3707 31.6283 85.042 32.1694L85.0432 32.1683ZM80.7032 41.7825C80.4643 41.7825 80.216 41.7121 79.9955 41.5794C79.6884 41.3937 79.4702 41.1087 79.3975 40.796L79.2416 40.1245C79.0811 39.4334 79.2208 38.7227 79.6376 38.1239C80.0394 37.5471 80.649 37.1386 81.3521 36.9748L85.1217 36.0991C86.5637 35.7622 87.9018 36.5952 88.2366 38.034L88.3925 38.7054C88.4664 39.0227 88.434 39.3492 88.3024 39.625C88.1558 39.9319 87.8983 40.143 87.5785 40.2168L80.9642 41.7536C80.8787 41.7733 80.7921 41.7836 80.7021 41.7836L80.7032 41.7825ZM85.7647 36.5352C85.5939 36.5352 85.4172 36.556 85.2371 36.5975L81.4676 37.4732C80.8961 37.6059 80.3823 37.9497 80.0579 38.4158C79.7254 38.8935 79.6122 39.4588 79.7404 40.0069L79.8962 40.6783C79.9378 40.8572 80.0706 41.0256 80.2599 41.1398C80.4504 41.2552 80.6651 41.2968 80.8487 41.2529L87.4631 39.7161C87.6744 39.6665 87.7852 39.5177 87.8406 39.4023C87.9214 39.2338 87.9411 39.0216 87.8937 38.8197L87.7379 38.1482C87.5069 37.1548 86.7161 36.5341 85.7659 36.5341L85.7647 36.5352Z" fill="#003E83"/>
<path d="M76.1234 34.7815C74.0649 32.5582 72.8965 29.5919 72.8965 26.5564C72.8965 19.6362 78.7893 14.0659 85.8239 14.5943C91.6935 15.035 96.4318 19.77 96.8728 25.6357C97.4004 32.6655 91.8263 38.5542 84.9025 38.5542C83.4698 38.5542 82.0681 38.305 80.7358 37.8124C80.7358 37.8124 80.6585 37.4778 81.4112 37.2239L85.0538 36.3771L86.6286 35.9664C91.488 35.0826 94.9216 30.6268 94.4298 25.5965C93.9784 20.9734 90.1765 17.3068 85.5387 17.0056C79.9727 16.6445 75.3279 21.0668 75.3279 26.5529C75.3279 29.1696 76.4432 31.7459 78.3263 33.5654L78.2443 33.5977C77.4881 33.8954 76.7746 34.2934 76.1246 34.7803L76.1234 34.7815Z" fill="white"/>
<path d="M86.7527 36.1996C86.6327 36.1996 86.5253 36.1153 86.501 35.9919C86.4745 35.8534 86.5645 35.7185 86.7031 35.6919C91.0592 34.8416 94.2215 30.9985 94.2215 26.5542C94.2215 21.4189 90.0409 17.2423 84.9032 17.2423C79.7655 17.2423 75.5849 21.42 75.5849 26.5542C75.5849 28.6183 76.2418 30.5681 77.4829 32.1914C77.5695 32.3034 77.5476 32.4649 77.4356 32.5503C77.3236 32.6368 77.162 32.6149 77.0765 32.503C75.7661 30.7896 75.0723 28.7325 75.0723 26.5554C75.0723 21.1385 79.4826 16.7312 84.9032 16.7312C90.3237 16.7312 94.7341 21.1385 94.7341 26.5554C94.7341 31.2442 91.3974 35.2985 86.8012 36.1961C86.7851 36.1996 86.7677 36.2007 86.7516 36.2007L86.7527 36.1996Z" fill="#003E83"/>
<path d="M84.9018 38.8103C84.0128 38.8103 83.1262 38.7145 82.2672 38.5264C82.1286 38.4964 82.0409 38.3591 82.0721 38.2218C82.1021 38.0834 82.2383 37.9957 82.3769 38.0269C83.2 38.2068 84.0486 38.298 84.9018 38.298C91.38 38.298 96.6504 33.0311 96.6504 26.5574C96.6504 20.0838 91.38 14.8169 84.9018 14.8169C78.4237 14.8169 73.1532 20.0838 73.1532 26.5574C73.1532 29.1603 73.9857 31.6236 75.5616 33.6818C75.6482 33.7938 75.6263 33.9553 75.5143 34.0407C75.4023 34.1272 75.2407 34.1053 75.1552 33.9934C73.51 31.8451 72.6406 29.2745 72.6406 26.5574C72.6406 19.8011 78.1409 14.3035 84.903 14.3035C91.6651 14.3035 97.1654 19.7999 97.1654 26.5574C97.1654 33.315 91.6651 38.8114 84.903 38.8114L84.9018 38.8103Z" fill="#003E83"/>
<path d="M272.058 168.697L270.958 171.335C269.415 175.036 266.352 177.891 262.552 179.174L247.055 184.403H21.8144L8.22378 180.238C4.5637 179.116 1.95041 175.888 1.61579 172.076L1.04427 165.54C0.964315 164.522 1.1568 163.501 1.60394 162.582C2.15473 161.448 2.35017 160.174 2.1651 158.929L0.956912 150.766C0.714091 149.129 1.56989 147.525 3.06383 146.812L6.16424 145.334C23.221 137.205 41.4844 131.898 60.2423 129.616L68.1251 128.657L77.1051 123.832C127.251 96.8844 186.646 93.0655 239.834 113.369L272.723 125.923L270.937 141.543L273.016 152.262C273.391 154.191 273.579 156.153 273.579 158.119V161.101C273.579 163.708 273.062 166.291 272.058 168.697Z" fill="white"/>
<path d="M238.167 120.525C238.778 120.204 238.723 119.312 238.078 119.065L229.887 115.942C182.86 98.0073 119.196 98.6997 74.1172 133.238L184.012 129.436C196.769 128.995 209.494 127.897 222.139 126.148C228.547 125.259 235.231 122.063 238.167 120.524V120.525Z" fill="white"/>
<path d="M74.1182 133.568C73.9805 133.568 73.8561 133.481 73.8087 133.351C73.7598 133.216 73.8043 133.065 73.9183 132.979C95.0037 116.824 121.744 107.005 151.246 104.586C177.67 102.421 205.641 106.344 230.006 115.636L238.197 118.759C238.619 118.92 238.898 119.299 238.924 119.75C238.951 120.2 238.72 120.608 238.322 120.817C235.008 122.554 228.505 125.598 222.186 126.475C209.583 128.218 196.743 129.325 184.024 129.764L74.13 133.568C74.13 133.568 74.1226 133.568 74.1182 133.568ZM165.077 104.598C134.822 104.598 102.547 112.213 75.1398 132.876L184.001 129.109C196.697 128.669 209.513 127.564 222.094 125.824C228.547 124.929 235.377 121.618 238.014 120.236C238.182 120.147 238.277 119.98 238.265 119.79C238.253 119.598 238.139 119.443 237.96 119.374L229.77 116.251C211.767 109.386 189.055 104.599 165.075 104.599L165.077 104.598Z" fill="#003E83"/>
<path d="M252.815 139.204C252.815 139.204 248.692 142.925 270.928 141.629L272.724 125.898C272.724 125.898 260.855 132.407 252.815 139.204Z" fill="white"/>
<path d="M262.674 142.233C256.312 142.233 252.821 141.569 252.267 140.246C252.03 139.681 252.362 139.172 252.596 138.96C252.599 138.957 252.6 138.956 252.603 138.953C260.575 132.211 272.446 125.675 272.565 125.608C272.673 125.549 272.805 125.555 272.907 125.623C273.009 125.691 273.064 125.811 273.051 125.932L271.255 141.663C271.237 141.822 271.106 141.944 270.947 141.953C267.796 142.137 265.034 142.228 262.671 142.228L262.674 142.233ZM253.036 139.45C253.003 139.482 252.76 139.729 252.876 139.996C253.105 140.531 255.07 142.203 270.634 141.317L272.325 126.497C269.885 127.873 259.971 133.588 253.036 139.45Z" fill="#003E83"/>
<path d="M254.146 141.128C256.255 141.78 260.923 142.212 270.929 141.629L271.492 136.705C271.492 136.705 272.497 130.254 266.826 132.686C260.54 135.384 254.146 141.126 254.146 141.126V141.128Z" fill="#003E83"/>
<path d="M23.1985 177.368L226.589 173.501L272.256 168.204C272.192 168.369 272.127 168.533 272.059 168.697L270.959 171.335C269.416 175.036 266.353 177.89 262.554 179.171L252.77 182.471C248.987 183.746 245.02 184.397 241.027 184.397H25.0137C22.892 184.397 20.7821 184.082 18.7537 183.461L8.22205 180.235C5.55546 179.418 3.4441 177.489 2.36621 175.022L23.1985 177.368Z" fill="white"/>
<path d="M241.025 184.727H25.0137C22.8579 184.727 20.7199 184.408 18.6574 183.776L8.12575 180.55C5.40882 179.717 3.19974 177.751 2.06558 175.154C2.0182 175.046 2.03301 174.922 2.1026 174.827C2.17219 174.732 2.2862 174.684 2.40465 174.695L23.2147 177.038L226.583 173.171L272.218 167.876C272.33 167.861 272.446 167.91 272.515 168.002C272.586 168.092 272.604 168.213 272.563 168.321C272.497 168.488 272.431 168.656 272.361 168.821L271.261 171.46C269.683 175.244 266.547 178.168 262.657 179.48L252.873 182.78C249.049 184.07 245.062 184.724 241.025 184.724V184.727ZM2.91694 175.416C4.03184 177.576 5.97145 179.204 8.31823 179.923L18.8499 183.148C20.8487 183.761 22.923 184.072 25.0137 184.072H241.025C244.99 184.072 248.907 183.43 252.663 182.161L262.447 178.862C266.157 177.61 269.15 174.821 270.654 171.211L271.744 168.596L226.626 173.83L23.2044 177.698C23.1925 177.698 23.1762 177.698 23.1614 177.696L2.91694 175.417V175.416Z" fill="#003E83"/>
<path d="M29.5166 143.849C29.755 143.674 29.6602 143.297 29.3671 143.26C27.7961 143.058 24.1079 142.69 20.0984 143.039C15.9897 143.396 9.80516 146.433 7.20667 147.795C6.51078 148.159 6.20874 148.993 6.50486 149.72L6.67957 150.147C7.02752 150.998 7.85518 151.554 8.77465 151.554H14.3181C17.343 151.554 20.2894 150.593 22.7309 148.808L29.5181 143.849H29.5166Z" fill="white"/>
<path d="M7.25929 147.765C9.88887 146.389 16.0157 143.393 20.0962 143.038C21.7279 142.896 23.3047 142.872 24.7084 142.909L19.7809 146.377C17.862 147.728 15.6425 148.591 13.3135 148.891L9.74969 149.351C9.08341 149.437 8.4201 149.175 7.99368 148.657L7.25781 147.767L7.25929 147.765Z" fill="#003E83"/>
<path d="M14.3161 151.881H8.77265C7.71549 151.881 6.77381 151.248 6.37405 150.27L6.19785 149.839C5.8351 148.952 6.20229 147.947 7.05217 147.502L7.10695 147.474C9.61364 146.163 15.8959 143.072 20.0683 142.709C24.1518 142.354 27.9422 142.745 29.3814 142.928C29.6538 142.962 29.8744 143.158 29.9425 143.422C30.0106 143.687 29.9114 143.964 29.6908 144.125L22.9229 149.07C20.4073 150.908 17.4313 151.88 14.3161 151.88V151.881ZM7.41196 148.057L7.35718 148.085C6.80935 148.372 6.57245 149.02 6.80639 149.591L6.98258 150.021C7.28018 150.752 7.98348 151.224 8.77265 151.224H14.3161C17.2906 151.224 20.1334 150.297 22.535 148.542L29.3029 143.597C27.8785 143.4 24.1459 143.016 20.126 143.365C16.0736 143.717 9.88459 146.763 7.41344 148.057H7.41196Z" fill="#003E83"/>
<path d="M137.742 137.885L157.806 137.264C159.938 137.197 162.011 136.547 163.8 135.384L164.954 134.633L144.797 135.236C142.217 135.313 139.737 136.246 137.744 137.885H137.742Z" fill="white"/>
<path d="M137.742 138.212C137.605 138.212 137.482 138.127 137.434 137.999C137.383 137.867 137.423 137.719 137.533 137.629C139.57 135.951 142.146 134.985 144.785 134.905L164.942 134.301C165.099 134.301 165.222 134.391 165.266 134.532C165.311 134.672 165.256 134.825 165.132 134.905L163.977 135.656C162.138 136.853 160.007 137.521 157.814 137.589L137.75 138.21H137.74L137.742 138.212ZM163.792 134.995L144.804 135.563C142.653 135.627 140.544 136.316 138.771 137.522L157.795 136.933C159.868 136.87 161.882 136.238 163.62 135.107L163.793 134.995H163.792Z" fill="#003E83"/>
<path d="M10.2331 172.819C10.1516 172.819 10.0702 172.813 9.98728 172.802C8.37933 172.566 4.57118 171.392 3.94784 165.599C3.81903 164.399 4.51788 163.233 5.64907 162.765C6.9535 162.225 9.92065 161.986 12.1801 161.879C12.6672 161.857 13.1454 162.046 13.4845 162.4C13.8176 162.748 13.9849 163.221 13.942 163.699C13.6518 166.945 12.4658 170.161 11.7833 171.788C11.5182 172.421 10.9008 172.821 10.2316 172.821L10.2331 172.819ZM12.26 162.533C12.2437 162.533 12.2275 162.533 12.2112 162.533C10.4048 162.618 7.18151 162.841 5.90078 163.371C5.03758 163.727 4.50456 164.615 4.60228 165.528C5.15455 170.672 8.27421 171.886 10.0835 172.151C10.5455 172.219 10.9985 171.964 11.1792 171.532C11.8455 169.94 13.0063 166.796 13.2891 163.638C13.3157 163.345 13.2165 163.067 13.0107 162.853C12.8138 162.649 12.5428 162.533 12.26 162.533Z" fill="#003E83"/>
<path d="M9.73145 172.424C9.83509 172.445 9.93577 172.461 10.0305 172.475C10.645 172.565 11.2417 172.23 11.4815 171.658C12.1138 170.147 13.3264 166.91 13.6166 163.665C13.6891 162.85 13.0125 162.165 12.1952 162.203C11.6696 162.228 11.0448 162.264 10.3859 162.313L10.3888 162.341C10.7916 165.563 10.605 168.832 9.83805 171.986L9.73145 172.423V172.424Z" fill="#003E83"/>
<path d="M76.4116 172.624C76.4116 156.751 63.5362 143.884 47.6521 143.884C31.768 143.884 18.8926 156.751 18.8926 172.624C18.8926 176.767 19.7706 180.704 21.3504 184.261L21.8153 184.403H73.8916C75.5099 180.808 76.4116 176.82 76.4116 172.622V172.624Z" fill="white"/>
<path d="M73.8912 184.732H21.8149C21.7823 184.732 21.7498 184.727 21.7187 184.717L21.2538 184.575C21.162 184.547 21.0879 184.48 21.0494 184.394C19.4 180.677 18.5635 176.717 18.5635 172.624C18.5635 156.595 31.6122 143.556 47.6517 143.556C63.6912 143.556 76.7399 156.595 76.7399 172.624C76.7399 176.774 75.8826 180.783 74.1918 184.539C74.1385 184.658 74.0215 184.733 73.8912 184.733V184.732ZM21.8638 184.075H73.678C75.2741 180.46 76.0825 176.609 76.0825 172.622C76.0825 156.956 63.3285 144.211 47.6517 144.211C31.9749 144.211 19.2209 156.956 19.2209 172.622C19.2209 176.573 20.0174 180.398 21.5899 183.99L21.8638 184.075Z" fill="#003E83"/>
<path d="M249.478 172.624C249.478 156.745 236.597 143.872 220.707 143.872C204.817 143.872 191.936 156.745 191.936 172.624C191.936 176.822 192.836 180.809 194.454 184.405H246.958C248.577 180.809 249.477 176.822 249.477 172.624H249.478Z" fill="white"/>
<path d="M246.96 184.732H194.454C194.325 184.732 194.207 184.656 194.154 184.538C192.463 180.783 191.605 176.773 191.605 172.623C191.605 156.588 204.66 143.542 220.706 143.542C236.751 143.542 249.806 156.588 249.806 172.623C249.806 176.773 248.948 180.781 247.257 184.538C247.204 184.656 247.087 184.732 246.957 184.732H246.96ZM194.669 184.075H246.747C248.341 180.459 249.15 176.607 249.15 172.623C249.15 156.951 236.391 144.199 220.707 144.199C205.023 144.199 192.264 156.949 192.264 172.623C192.264 176.609 193.073 180.46 194.667 184.075H194.669Z" fill="#003E83"/>
<path d="M85.2305 130.225L89.6087 124.953C90.2246 124.212 91.1396 123.782 92.1035 123.782H96.0005C97.6529 123.782 99.0417 125.025 99.2238 126.668L99.5155 129.303C99.5939 130.016 99.434 130.735 99.0594 131.348C98.479 132.298 97.4515 132.882 96.3381 132.898C92.1598 132.956 82.1315 133.06 82.3492 132.734C82.5654 132.41 84.0919 131.209 84.7256 130.714C84.9107 130.569 85.0795 130.407 85.2305 130.226V130.225Z" fill="white"/>
<path d="M99.5155 129.3L99.2238 126.665C99.0417 125.022 97.6543 123.78 96.0005 123.78H92.1035C91.1396 123.78 90.2246 124.209 89.6087 124.95L85.2305 130.222C85.2305 130.222 93.4183 129.179 99.5155 129.298V129.3Z" fill="white"/>
<path d="M85.2305 130.553C85.112 130.553 85.001 130.488 84.9432 130.383C84.8781 130.265 84.8914 130.12 84.9788 130.015L89.357 124.743C90.0366 123.923 91.0389 123.453 92.105 123.453H96.002C97.8261 123.453 99.3511 124.818 99.5525 126.629L99.8442 129.265C99.8545 129.358 99.8234 129.452 99.7598 129.522C99.6961 129.592 99.6013 129.626 99.511 129.629C93.5116 129.513 85.3548 130.54 85.2734 130.55C85.2601 130.552 85.2453 130.553 85.232 130.553H85.2305ZM92.1035 124.11C91.2344 124.11 90.4171 124.493 89.8618 125.162L86.0093 129.8C88.1873 129.55 94.2711 128.911 99.1483 128.966L98.8981 126.7C98.7352 125.222 97.49 124.108 96.002 124.108H92.105L92.1035 124.11Z" fill="#003E83"/>
<path d="M85.2305 130.225L89.6087 124.953C90.2246 124.212 91.1396 123.782 92.1035 123.782H96.0005C97.6529 123.782 99.0417 125.025 99.2238 126.668L99.5155 129.303C99.5939 130.016 99.434 130.735 99.0594 131.348C98.479 132.298 97.4515 132.882 96.3381 132.898C92.1598 132.956 82.1315 133.06 82.3492 132.734C82.5654 132.41 84.0919 131.209 84.7256 130.714C84.9107 130.569 85.0795 130.407 85.2305 130.226V130.225Z" fill="white"/>
<path d="M88.3822 133.292C82.2657 133.292 82.1606 133.096 82.0585 132.907C82.0007 132.8 82.0081 132.651 82.0747 132.549C82.2524 132.281 83.0771 131.577 84.5237 130.452C84.6895 130.323 84.842 130.175 84.9767 130.013L89.3549 124.741C90.0345 123.921 91.0369 123.451 92.103 123.451H95.9999C97.8241 123.451 99.3491 124.816 99.5505 126.627L99.8421 129.263C99.928 130.044 99.7503 130.844 99.3402 131.515C98.6961 132.567 97.5753 133.206 96.342 133.222C92.9351 133.269 90.3484 133.289 88.3822 133.289V133.292ZM83.006 132.534C84.574 132.648 89.4497 132.661 96.3331 132.567C97.3399 132.553 98.2534 132.032 98.7791 131.174C99.1137 130.627 99.2588 129.974 99.1892 129.337L98.8975 126.701C98.7346 125.223 97.4894 124.109 96.0014 124.109H92.1044C91.2353 124.109 90.418 124.492 89.8628 125.161L85.4846 130.433C85.3203 130.631 85.1322 130.813 84.9279 130.972C83.9803 131.708 83.3644 132.217 83.0075 132.534H83.006Z" fill="#003E83"/>
<path d="M241.204 184.732H25.3282C22.9637 184.732 20.6184 184.381 18.3575 183.687L8.12643 180.552C4.31976 179.386 1.6354 176.07 1.28746 172.105L0.715939 165.568C0.631543 164.489 0.835868 163.407 1.3067 162.438C1.83084 161.36 2.01444 160.163 1.83825 158.976L0.630063 150.813C0.365032 149.021 1.28598 147.295 2.92058 146.515L6.02099 145.037C23.1428 136.877 41.3707 131.578 60.1997 129.288L68.0218 128.336L76.947 123.54C127.217 96.5264 186.63 92.7046 239.95 113.058L270.701 124.796C272.1 125.33 272.957 126.74 272.787 128.227L271.266 141.527L273.336 152.197C273.714 154.142 273.905 156.134 273.905 158.116V161.098C273.905 163.763 273.385 166.361 272.359 168.821L271.259 171.46C269.68 175.246 266.544 178.171 262.655 179.483L252.702 182.842C248.989 184.095 245.12 184.73 241.201 184.73L241.204 184.732ZM169.899 100.791C137.931 100.791 106.088 108.63 77.2609 124.121L68.2809 128.946C68.2454 128.965 68.2054 128.977 68.1655 128.983L60.2812 129.942C41.5232 132.223 23.3635 137.501 6.30527 145.63L3.20486 147.108C1.83084 147.762 1.05796 149.212 1.28153 150.717L2.48972 158.88C2.68516 160.197 2.48083 161.527 1.89895 162.724C1.47846 163.589 1.29634 164.554 1.37185 165.513L1.94337 172.047C2.26763 175.743 4.76987 178.835 8.32039 179.923L18.5515 183.058C20.7502 183.731 23.0303 184.073 25.3297 184.073H241.205C245.052 184.073 248.851 183.449 252.496 182.219L262.449 178.86C266.159 177.609 269.15 174.818 270.658 171.206L271.758 168.568C272.75 166.189 273.253 163.675 273.253 161.098V158.116C273.253 156.177 273.067 154.227 272.696 152.322L270.618 141.604C270.612 141.571 270.61 141.537 270.613 141.505L272.138 128.156C272.274 126.968 271.587 125.84 270.47 125.414L239.719 113.677C217.154 105.062 193.492 100.794 169.9 100.794L169.899 100.791Z" fill="#003E83"/>
<path d="M238.856 190.76C248.879 180.744 248.879 164.505 238.856 154.489C228.833 144.473 212.583 144.473 202.56 154.489C192.537 164.505 192.537 180.744 202.56 190.76C212.583 200.776 228.833 200.776 238.856 190.76Z" fill="#003E83"/>
<path d="M232.913 184.821C239.654 178.085 239.654 167.163 232.913 160.427C226.172 153.691 215.243 153.691 208.502 160.427C201.761 167.163 201.761 178.085 208.502 184.821C215.243 191.558 226.172 191.558 232.913 184.821Z" fill="white"/>
<path d="M220.709 190.202C211.009 190.202 203.119 182.315 203.119 172.624C203.119 162.932 211.011 155.046 220.709 155.046C230.407 155.046 238.299 162.931 238.299 172.624C238.299 182.317 230.407 190.202 220.709 190.202ZM220.709 155.703C211.372 155.703 203.777 163.293 203.777 172.624C203.777 181.954 211.372 189.545 220.709 189.545C230.046 189.545 237.641 181.954 237.641 172.624C237.641 163.293 230.046 155.703 220.709 155.703Z" fill="#003E83"/>
<path d="M220.708 186.467C228.359 186.467 234.561 180.269 234.561 172.624C234.561 164.978 228.359 158.781 220.708 158.781C213.058 158.781 206.855 164.978 206.855 172.624C206.855 180.269 213.058 186.467 220.708 186.467Z" fill="white"/>
<path d="M220.709 186.794C212.89 186.794 206.527 180.436 206.527 172.622C206.527 164.809 212.89 158.451 220.709 158.451C228.528 158.451 234.89 164.809 234.89 172.622C234.89 180.436 228.528 186.794 220.709 186.794ZM220.709 159.109C213.252 159.109 207.185 165.171 207.185 172.622C207.185 180.074 213.251 186.137 220.709 186.137C228.167 186.137 234.233 180.075 234.233 172.622C234.233 165.17 228.167 159.109 220.709 159.109Z" fill="#003E83"/>
<path d="M65.8002 190.759C75.823 180.743 75.823 164.504 65.8002 154.488C55.7774 144.472 39.5272 144.472 29.5044 154.488C19.4815 164.504 19.4816 180.743 29.5044 190.759C39.5272 200.775 55.7774 200.774 65.8002 190.759Z" fill="#003E83"/>
<path d="M59.8584 184.82C66.5992 178.084 66.5992 167.162 59.8584 160.426C53.1175 153.69 42.1884 153.69 35.4476 160.426C28.7067 167.162 28.7067 178.084 35.4476 184.82C42.1884 191.556 53.1175 191.556 59.8584 184.82Z" fill="white"/>
<path d="M47.6513 190.201C37.9517 190.201 30.0615 182.315 30.0615 172.624C30.0615 162.932 37.9532 155.046 47.6513 155.046C57.3493 155.046 65.241 162.931 65.241 172.624C65.241 182.316 57.3493 190.201 47.6513 190.201ZM47.6513 155.703C38.3145 155.703 30.7189 163.293 30.7189 172.624C30.7189 181.954 38.3145 189.544 47.6513 189.544C56.988 189.544 64.5836 181.954 64.5836 172.624C64.5836 163.293 56.988 155.703 47.6513 155.703Z" fill="#003E83"/>
<path d="M47.6525 186.467C55.3031 186.467 61.5051 180.269 61.5051 172.624C61.5051 164.978 55.3031 158.781 47.6525 158.781C40.0018 158.781 33.7998 164.978 33.7998 172.624C33.7998 180.269 40.0018 186.467 47.6525 186.467Z" fill="white"/>
<path d="M47.6521 186.794C39.8329 186.794 33.4707 180.436 33.4707 172.622C33.4707 164.809 39.8329 158.451 47.6521 158.451C55.4712 158.451 61.8334 164.809 61.8334 172.622C61.8334 180.436 55.4712 186.794 47.6521 186.794ZM47.6521 159.109C40.1957 159.109 34.1281 165.171 34.1281 172.622C34.1281 180.074 40.1942 186.137 47.6521 186.137C55.1099 186.137 61.176 180.075 61.176 172.622C61.176 165.17 55.1099 159.109 47.6521 159.109Z" fill="#003E83"/>
<path d="M168.407 188.207L168.053 194.716L163.698 195.449L163.311 187.773L168.407 188.207Z" fill="white"/>
<path d="M163.698 195.739C163.632 195.739 163.568 195.717 163.516 195.675C163.452 195.623 163.412 195.547 163.408 195.464L163.02 187.788C163.016 187.704 163.047 187.624 163.109 187.565C163.169 187.507 163.251 187.476 163.335 187.485L168.43 187.92C168.585 187.933 168.703 188.067 168.695 188.224L168.341 194.733C168.334 194.869 168.234 194.981 168.099 195.003L163.745 195.737C163.729 195.739 163.712 195.74 163.696 195.74L163.698 195.739ZM163.617 188.09L163.971 195.109L167.775 194.468L168.1 188.472L163.617 188.09Z" fill="#003E83"/>
<path d="M163.578 206.456C165.417 206.621 168.423 206.995 171.914 206.332C173.056 206.115 173.762 204.96 173.428 203.848C172.495 200.745 170.862 194.848 168.434 192.2L167.907 193.496L167.084 192.355C166.967 192.167 166.767 192.047 166.546 192.03L164.816 191.899C164.454 191.872 164.133 192.127 164.075 192.484L164.027 193.265L162.866 192.138L162.571 199.019C162.513 200.36 162.36 201.396 162.115 202.715L161.809 204.35C161.723 205.418 162.511 206.361 163.579 206.457L163.578 206.456Z" fill="#00499B"/>
<path d="M167.72 207C166.28 207 165.028 206.883 164.04 206.789L163.551 206.743C162.331 206.633 161.418 205.549 161.517 204.323C161.517 204.313 161.52 204.304 161.521 204.293L161.827 202.659C162.07 201.36 162.221 200.346 162.279 199.003L162.574 192.122C162.579 192.009 162.651 191.908 162.757 191.865C162.862 191.824 162.984 191.847 163.066 191.927L163.775 192.615L163.784 192.462C163.867 191.932 164.323 191.564 164.836 191.607L166.566 191.737C166.879 191.761 167.163 191.933 167.329 192.198L167.835 192.898L168.164 192.087C168.202 191.996 168.283 191.928 168.382 191.911C168.48 191.894 168.58 191.928 168.647 192.001C170.955 194.519 172.552 199.884 173.506 203.091L173.705 203.762C173.887 204.369 173.803 205.028 173.474 205.57C173.144 206.114 172.595 206.495 171.968 206.614C170.442 206.904 169.006 206.998 167.721 206.998L167.72 207ZM162.094 204.386C162.029 205.289 162.703 206.087 163.602 206.167L164.094 206.213C165.929 206.387 168.703 206.648 171.859 206.047C172.324 205.959 172.731 205.677 172.977 205.272C173.221 204.87 173.283 204.381 173.149 203.932L172.948 203.26C172.052 200.247 170.58 195.299 168.522 192.749L168.174 193.604C168.135 193.702 168.045 193.77 167.94 193.783C167.835 193.796 167.731 193.75 167.67 193.664L166.847 192.523C166.769 192.398 166.651 192.327 166.523 192.317L164.793 192.186C164.584 192.172 164.393 192.321 164.36 192.527L164.315 193.28C164.308 193.394 164.235 193.492 164.129 193.532C164.023 193.573 163.903 193.549 163.822 193.469L163.125 192.793L162.857 199.028C162.798 200.4 162.636 201.474 162.396 202.765L162.094 204.383V204.386Z" fill="#003E83"/>
<path d="M167.537 205.015C165.1 205.015 163.261 204.598 163.142 204.571C162.987 204.535 162.889 204.379 162.926 204.224C162.962 204.069 163.119 203.971 163.273 204.007C163.319 204.018 167.868 205.045 172.099 203.855C172.252 203.811 172.414 203.901 172.457 204.056C172.5 204.21 172.41 204.369 172.256 204.413C170.629 204.871 168.979 205.016 167.537 205.016V205.015Z" fill="#003E83"/>
<path d="M165.251 200.195C165.093 200.195 164.964 200.068 164.961 199.91C164.958 199.75 165.086 199.618 165.246 199.615L169.358 199.544C169.515 199.538 169.651 199.669 169.654 199.828C169.656 199.989 169.528 200.121 169.369 200.123L165.256 200.195H165.251Z" fill="#003E83"/>
<path d="M147.713 185.795L147.535 195.276L142.263 195.541L141.541 186.106L147.713 185.795Z" fill="white"/>
<path d="M142.264 195.83C142.114 195.83 141.987 195.714 141.975 195.563L141.253 186.128C141.246 186.049 141.273 185.972 141.325 185.914C141.376 185.855 141.45 185.82 141.527 185.816L147.7 185.505C147.782 185.5 147.859 185.531 147.916 185.586C147.974 185.642 148.007 185.719 148.004 185.8L147.824 195.281C147.821 195.434 147.701 195.558 147.548 195.565L142.277 195.832C142.277 195.832 142.266 195.832 142.263 195.832L142.264 195.83ZM141.854 186.38L142.532 195.237L147.25 194.999L147.419 186.099L141.854 186.38Z" fill="#003E83"/>
<path d="M149.182 200.54C149.241 201.432 148.669 202.248 147.808 202.495C144.814 203.352 138.066 205.266 136.135 205.653C133.627 206.157 130.482 205.54 129.072 204.13C127.662 202.721 131.809 198.975 133.797 197.589C136.75 195.529 139.49 191.614 140.71 191.381C141.93 191.15 144.402 194.596 144.402 194.596L148.071 192.834C148.071 192.834 148.886 196.011 149.182 200.541V200.54Z" fill="#00499B"/>
<path d="M134.316 206.117C132.15 206.117 129.976 205.444 128.866 204.334C128.585 204.053 128.462 203.692 128.501 203.26C128.667 201.381 132.029 198.467 133.63 197.35C135.079 196.34 136.463 194.888 137.683 193.608C138.999 192.227 139.952 191.228 140.654 191.095C141.878 190.863 143.842 193.349 144.493 194.229L147.945 192.571C148.023 192.535 148.114 192.534 148.193 192.57C148.271 192.607 148.33 192.677 148.351 192.761C148.359 192.793 149.176 196.016 149.47 200.52C149.537 201.543 148.871 202.491 147.886 202.773C145.019 203.594 138.14 205.545 136.189 205.936C135.583 206.058 134.949 206.115 134.315 206.115L134.316 206.117ZM140.841 191.658C140.814 191.658 140.787 191.66 140.763 191.664C140.243 191.764 139.203 192.853 138.102 194.007C136.863 195.307 135.457 196.781 133.961 197.823C131.995 199.194 129.205 201.863 129.077 203.309C129.055 203.566 129.119 203.767 129.274 203.923C130.586 205.234 133.574 205.87 136.075 205.367C138.006 204.98 144.866 203.034 147.727 202.214C148.45 202.007 148.94 201.31 148.892 200.557C148.656 196.954 148.084 194.186 147.87 193.249L144.525 194.856C144.397 194.917 144.246 194.876 144.164 194.763C143.215 193.442 141.593 191.657 140.838 191.657L140.841 191.658Z" fill="#003E83"/>
<path d="M134.149 203.686C132.83 203.686 131.685 203.498 130.881 203.028C130.743 202.947 130.697 202.77 130.778 202.632C130.859 202.493 131.037 202.447 131.175 202.528C134.836 204.672 146.916 200.26 147.038 200.214C147.186 200.16 147.355 200.235 147.41 200.387C147.465 200.537 147.389 200.704 147.237 200.759C146.835 200.907 139.221 203.687 134.149 203.687V203.686Z" fill="#003E83"/>
<path d="M140.334 198.351C140.27 198.351 140.205 198.33 140.152 198.286L137.349 196.004C137.225 195.904 137.206 195.721 137.307 195.597C137.408 195.473 137.59 195.453 137.715 195.555L140.517 197.837C140.641 197.937 140.66 198.12 140.559 198.244C140.502 198.314 140.418 198.351 140.334 198.351Z" fill="#003E83"/>
<path d="M166.619 123.094C166.619 123.094 169.743 152.547 171.111 162.7C172.48 172.853 170.454 189.385 170.454 189.385L162.297 189.368C162.297 189.368 161.145 174.697 160.259 167.066C160.043 165.194 159.524 163.373 158.738 161.661C157.502 158.971 155.565 154.337 154.68 149.999C153.324 143.36 149.321 132.967 149.321 132.967C149.321 132.967 149.166 185.855 149.103 190.012C149.103 190.012 142.737 190.617 140.377 189.294C140.377 189.294 135.354 170.266 135.407 159.772C135.461 149.279 133.51 123.312 133.51 123.312L166.62 123.094H166.619Z" fill="white"/>
<path d="M145.878 190.441C143.903 190.441 141.524 190.269 140.233 189.546C140.165 189.508 140.114 189.443 140.095 189.367C140.044 189.176 135.063 170.181 135.116 159.77C135.17 149.408 133.239 123.593 133.22 123.333C133.213 123.253 133.241 123.174 133.295 123.115C133.35 123.056 133.426 123.022 133.507 123.021L166.617 122.803H166.62C166.767 122.803 166.893 122.915 166.908 123.063C166.94 123.358 170.047 152.628 171.4 162.659C172.758 172.733 170.764 189.252 170.743 189.419C170.725 189.564 170.602 189.674 170.456 189.674L162.298 189.657C162.146 189.657 162.021 189.541 162.009 189.389C161.998 189.243 160.847 174.637 159.973 167.098C159.762 165.272 159.257 163.483 158.475 161.781C157.343 159.315 155.307 154.512 154.396 150.057C153.363 144.999 150.754 137.665 149.607 134.554C149.581 143.405 149.449 186.312 149.393 190.016C149.39 190.163 149.278 190.286 149.13 190.3C149.007 190.312 147.597 190.443 145.879 190.443L145.878 190.441ZM140.624 189.097C142.685 190.145 147.627 189.836 148.814 189.743C148.878 184.059 149.028 133.483 149.03 132.964C149.03 132.824 149.13 132.706 149.267 132.679C149.404 132.653 149.54 132.73 149.591 132.861C149.632 132.965 153.618 143.352 154.963 149.939C155.862 154.339 157.88 159.095 159.001 161.538C159.809 163.296 160.33 165.144 160.548 167.03C161.358 174.016 162.405 187.05 162.566 189.077L170.197 189.093C170.443 186.963 172.08 172.051 170.825 162.736C169.54 153.205 166.673 126.331 166.36 123.384L133.822 123.598C134.041 126.569 135.747 150.004 135.697 159.771C135.646 169.669 140.198 187.447 140.625 189.096L140.624 189.097Z" fill="#003E83"/>
<path d="M163.79 164.4C163.324 164.4 162.857 164.322 162.41 164.16C162.26 164.105 162.181 163.94 162.236 163.79C162.29 163.639 162.456 163.56 162.607 163.616C163.632 163.987 164.792 163.852 165.706 163.257C165.841 163.17 166.02 163.207 166.107 163.342C166.195 163.476 166.157 163.655 166.023 163.743C165.354 164.176 164.574 164.399 163.79 164.399V164.4Z" fill="#003E83"/>
<path d="M165.672 131.892C165.661 131.892 165.652 131.892 165.642 131.891C164.137 131.733 162.35 130.68 161.847 128.194C161.816 128.037 161.918 127.884 162.075 127.852C162.233 127.82 162.384 127.922 162.417 128.079C162.857 130.257 164.403 131.179 165.703 131.316C165.862 131.333 165.977 131.475 165.962 131.634C165.946 131.783 165.821 131.894 165.673 131.894L165.672 131.892Z" fill="#003E83"/>
<path d="M144.406 180.411C144.254 180.411 144.127 180.293 144.117 180.141C143.792 175.416 137.892 166.795 137.832 166.709C137.742 166.577 137.775 166.397 137.907 166.306C138.038 166.216 138.219 166.249 138.31 166.38C138.557 166.739 144.359 175.22 144.695 180.102C144.706 180.261 144.586 180.399 144.426 180.411C144.42 180.411 144.413 180.411 144.407 180.411H144.406Z" fill="#003E83"/>
<path d="M136.37 81.081C134.584 75.9399 131.952 76.6434 130.057 78.1391C128.695 79.2146 127.781 80.7625 127.474 82.4697C127.221 83.878 126.701 85.9297 125.648 87.8444C123.68 91.4271 116.402 92.8693 113.863 92.8589C112.756 92.855 109.785 89.3023 107.878 89.904C106.508 90.336 109.062 92.5091 108.742 92.6657C107.556 93.2452 106.431 93.1212 105.356 93.116C103.611 93.1082 102.054 92.637 101.401 92.6331C100.574 92.6279 100.297 93.4736 100.639 94.2267C101.129 95.3022 102.198 96.931 103.963 97.5001C107.12 98.5168 112.519 97.5653 114.403 97.1999C115.837 96.9219 132.743 97.9699 134.895 90.9207C135.343 89.4537 137.122 83.245 136.37 81.081Z" fill="white"/>
<path d="M107.585 98.2415C106.227 98.2415 104.927 98.1135 103.875 97.7755C101.826 97.1151 100.745 95.1573 100.376 94.3468C100.138 93.8247 100.152 93.2518 100.412 92.8511C100.624 92.5235 100.974 92.3447 101.395 92.3447H101.404C101.677 92.346 102.059 92.4165 102.545 92.5039C103.286 92.6383 104.299 92.8224 105.358 92.8276C105.515 92.8276 105.673 92.8315 105.833 92.8341C106.663 92.8511 107.52 92.8681 108.394 92.5065C108.317 92.3969 108.208 92.2572 108.118 92.1424C107.634 91.5185 107.03 90.7419 107.216 90.1481C107.269 89.9771 107.413 89.7474 107.79 89.6286C109.095 89.2149 110.743 90.4613 112.068 91.4624C112.786 92.0066 113.529 92.5679 113.865 92.5692H113.891C116.429 92.5692 123.51 91.1348 125.394 87.7048C126.431 85.8175 126.941 83.788 127.188 82.4175C127.511 80.6268 128.465 79.0254 129.877 77.9108C131.153 76.9032 132.347 76.5521 133.427 76.8679C134.745 77.2517 135.828 78.6378 136.643 80.9858C137.447 83.2998 135.559 89.7383 135.171 91.0043C133.3 97.1281 120.847 97.3383 116.158 97.4179C115.322 97.4322 114.662 97.444 114.457 97.4831C112.729 97.8186 110.059 98.2415 107.584 98.2415H107.585ZM101.395 92.9229C101.17 92.9229 101.004 93.0038 100.9 93.1656C100.748 93.398 100.751 93.7673 100.905 94.1067C101.242 94.848 102.224 96.6348 104.054 97.2234C106.901 98.1396 111.726 97.4231 114.348 96.9141C114.603 96.8645 115.218 96.8541 116.151 96.8384C120.723 96.7614 132.872 96.5552 134.618 90.8346C134.849 90.0763 136.857 83.3651 136.097 81.175C135.346 79.0136 134.394 77.7515 133.267 77.4226C132.378 77.1629 131.36 77.4801 130.239 78.3637C128.938 79.3908 128.058 80.867 127.76 82.518C127.507 83.9315 126.978 86.0263 125.903 87.9815C123.875 91.6725 116.618 93.1461 113.892 93.1461H113.864C113.335 93.1434 112.622 92.6044 111.719 91.9218C110.502 91.0017 108.987 89.8557 107.967 90.1781C107.798 90.2316 107.777 90.2969 107.771 90.3177C107.675 90.6232 108.262 91.3788 108.577 91.7848C108.929 92.239 109.106 92.4661 109.052 92.6971C109.029 92.7963 108.963 92.8798 108.87 92.9242C107.793 93.4515 106.791 93.4319 105.82 93.411C105.664 93.4071 105.509 93.4045 105.355 93.4045C104.244 93.3993 103.202 93.21 102.441 93.0717C102.001 92.992 101.621 92.9229 101.398 92.9216H101.393L101.395 92.9229Z" fill="#003E83"/>
<path d="M171.555 88.5518C171.555 88.5518 172.688 71.1799 162.359 67.4027C152.414 63.7665 139.263 63.6882 132.164 68.3895C128.658 70.7101 125.465 84.9038 125.465 84.9038L131.043 91.2078C131.043 91.2078 130.719 122.43 132.631 130.572C132.631 130.572 141.906 131.181 145.739 129.445C149.572 127.71 162.321 124.905 168.609 127.417L165.504 88.0662L171.553 88.5518H171.555Z" fill="#003E83"/>
<path d="M159.728 120.013C159.717 120.013 159.705 120.013 159.692 120.011C144.594 118.122 139.689 107.929 139.642 107.826C139.574 107.681 139.638 107.508 139.783 107.44C139.93 107.373 140.101 107.437 140.169 107.581C140.216 107.682 145 117.588 159.765 119.436C159.924 119.456 160.037 119.601 160.017 119.76C159.999 119.906 159.873 120.013 159.73 120.013H159.728Z" fill="white"/>
<path d="M131.665 102L147.391 102.504C147.895 102.52 148.261 102.029 148.1 101.55L141.655 82.3576C141.558 82.0705 141.294 81.8747 140.991 81.8643L125.265 81.3605C124.761 81.3448 124.395 81.8356 124.556 82.3146L131.001 101.507C131.098 101.794 131.362 101.99 131.665 102Z" fill="white"/>
<path d="M147.414 102.794C147.404 102.794 147.394 102.794 147.382 102.794L131.655 102.29C131.234 102.277 130.861 101.999 130.727 101.6L124.281 82.4072C124.176 82.0927 124.23 81.7455 124.429 81.4806C124.627 81.2143 124.938 81.0551 125.275 81.072L141.002 81.5758C141.424 81.5889 141.797 81.8669 141.93 82.2663L148.374 101.459C148.48 101.773 148.425 102.121 148.227 102.387C148.035 102.644 147.733 102.795 147.413 102.795L147.414 102.794ZM125.243 81.6515C125.104 81.6515 124.978 81.7142 124.895 81.8264C124.809 81.9426 124.787 82.0862 124.833 82.2232L131.278 101.416C131.335 101.587 131.495 101.706 131.675 101.712L147.401 102.216C147.546 102.221 147.678 102.156 147.763 102.041C147.849 101.925 147.872 101.781 147.826 101.644L141.382 82.4516C141.324 82.2806 141.165 82.1619 140.983 82.1553L125.257 81.6515H125.243Z" fill="#003E83"/>
<path d="M169.792 87.6706L161.415 87.2935C161.415 87.2935 161.352 94.3427 160.596 94.4693C157.903 94.9183 152.264 94.9405 148.594 94.498C147.315 94.344 146.304 93.3664 146.062 92.103C145.881 91.1489 145.364 90.0278 144.051 89.2199C142.783 88.4394 144.034 90.8944 142.848 92.4737C142.211 93.3221 140.194 92.9462 137.444 92.3092C134.693 91.6723 133.994 94.6103 137.077 96.3853C140.419 98.3104 142.543 98.0938 143.608 98.3196C145.731 98.7685 164.5 101.708 167.398 100.135C169.637 98.9199 169.792 87.672 169.792 87.672V87.6706Z" fill="white"/>
<path d="M163.759 100.886C157.062 100.886 144.611 98.826 143.549 98.6015C143.336 98.5571 143.064 98.5284 142.75 98.4971C141.501 98.3705 139.615 98.18 136.934 96.6346C134.99 95.5161 134.511 93.9773 134.888 93.0206C135.168 92.3106 136.004 91.6763 137.511 92.0248C139.987 92.5977 142.08 93.0141 142.618 92.2975C143.144 91.5954 143.136 90.6674 143.131 89.9887C143.126 89.4222 143.123 89.0137 143.433 88.8388C143.694 88.6913 144 88.8427 144.206 88.9707C145.36 89.6807 146.102 90.7444 146.349 92.0456C146.569 93.2007 147.485 94.07 148.63 94.207C152.243 94.6429 157.772 94.6338 160.503 94.1887C160.854 93.7398 161.099 90.2902 161.126 87.2883C161.126 87.21 161.16 87.1343 161.216 87.0808C161.274 87.026 161.351 86.9933 161.429 87.0012L169.806 87.3783C169.963 87.3849 170.086 87.5154 170.083 87.672C170.067 88.8401 169.858 99.1249 167.537 100.386C166.883 100.741 165.52 100.883 163.76 100.883L163.759 100.886ZM136.721 92.5103C136.085 92.5103 135.612 92.7661 135.427 93.2347C135.138 93.9669 135.577 95.1859 137.222 96.1334C139.797 97.6161 141.608 97.7988 142.808 97.9202C143.14 97.9542 143.426 97.9829 143.669 98.0338C145.832 98.4906 164.484 101.385 167.261 99.878C168.925 98.9748 169.431 91.2169 169.498 87.9474L161.701 87.5963C161.692 88.1771 161.661 89.5162 161.578 90.8514C161.361 94.3454 160.998 94.6951 160.643 94.7539C157.884 95.2133 152.237 95.2277 148.558 94.7839C147.162 94.6155 146.044 93.5596 145.777 92.1553C145.558 91.0015 144.927 90.097 143.899 89.4653C143.821 89.417 143.767 89.3909 143.73 89.3766C143.706 89.5084 143.707 89.7786 143.71 89.9848C143.716 90.7026 143.724 91.7872 143.08 92.646C142.33 93.6471 140.243 93.2542 137.378 92.5912C137.144 92.5377 136.923 92.5103 136.72 92.5103H136.721Z" fill="#003E83"/>
<path d="M145.88 60.4147C146.738 61.1247 148.389 61.96 149.613 61.2657C150.524 60.7475 150.984 59.5024 150.882 58.1084C151.317 58.1215 151.882 58.0628 152.269 57.6856C152.865 57.1035 152.697 56.0959 152.639 55.4315C152.371 52.3644 154.134 51.8032 153.591 49.7397C153.165 48.1173 151.828 47.2063 151.577 47.0367C150.314 46.1766 149.505 46.5146 147.434 46.0826C143.948 45.3556 143.764 43.8795 141.497 43.9865C141.366 43.993 138.282 44.1822 137.342 46.3645C136.578 48.1395 137.679 50.1952 138.763 51.2498C140.167 52.615 141.088 51.8593 142.484 52.9935C144.937 54.9839 143.329 58.3094 145.878 60.4173L145.88 60.4147Z" fill="#00499B"/>
<path d="M138.819 54.5999C139.5 53.95 140.221 52.6657 140.443 51.7521C141.254 48.4147 144.286 47.7987 144.6 51.0459C144.683 51.9113 147.848 51.7064 147.519 52.6343C146.658 55.0554 146.605 54.4185 148.032 55.2225C148.189 55.2212 148.347 55.2473 148.497 55.3086C149.223 55.6036 149.522 56.5525 149.166 57.4296C148.949 57.9621 148.54 58.3406 148.091 58.4946L148.28 62.2417C148.351 63.6461 149.265 64.869 150.593 65.335L151.885 65.7879C151.885 65.7879 146.175 69.9357 139.97 66.0098L140.752 65.6104C142.129 64.9082 142.984 63.4829 142.954 61.9376L142.924 61.2041C142.523 61.2602 142.131 61.2524 141.766 61.1663C140.065 60.763 139.411 58.8613 139.575 56.4481L138.836 55.7759C138.49 55.4613 138.484 54.921 138.822 54.5986L138.819 54.5999Z" fill="white"/>
<path d="M145.598 67.9767C143.835 67.9767 141.846 67.5408 139.815 66.2552C139.727 66.1991 139.675 66.1012 139.68 65.9968C139.685 65.8924 139.745 65.7997 139.838 65.7514L140.619 65.352C141.889 64.7046 142.691 63.3668 142.663 61.9429L142.646 61.5239C142.312 61.5422 141.993 61.5187 141.698 61.4482C140.004 61.0476 139.125 59.2725 139.277 56.5695L138.639 55.9913C138.416 55.7877 138.285 55.498 138.281 55.1952C138.277 54.8924 138.401 54.5987 138.62 54.3899C139.243 53.7947 139.949 52.5548 140.161 51.6829C140.674 49.5712 142.017 48.5427 143.092 48.6184C144.079 48.6889 144.75 49.5842 144.889 51.016C144.908 51.2222 145.736 51.4088 146.18 51.5093C146.909 51.6738 147.539 51.8174 147.758 52.2155C147.844 52.3721 147.856 52.5496 147.792 52.7297C147.667 53.0821 147.558 53.3705 147.47 53.6081C147.314 54.0218 147.18 54.3794 147.2 54.4669C147.225 54.4969 147.387 54.5739 147.531 54.6418C147.686 54.7149 147.877 54.8049 148.109 54.9328C148.283 54.9393 148.45 54.9759 148.606 55.0385C149.478 55.3922 149.85 56.5134 149.434 57.5366C149.224 58.0548 148.85 58.462 148.39 58.6826L148.569 62.2248C148.635 63.5182 149.466 64.6303 150.689 65.0597L151.981 65.5126C152.083 65.5478 152.156 65.6378 152.171 65.7436C152.187 65.8506 152.143 65.9563 152.055 66.0203C152.016 66.049 149.302 67.9741 145.598 67.9754V67.9767ZM140.566 66.0307C145.342 68.7637 149.776 66.6976 151.222 65.8623L150.497 65.6078C149.051 65.1014 148.068 63.7858 147.991 62.2561L147.801 58.509C147.795 58.3798 147.874 58.261 147.997 58.2206C148.385 58.0887 148.722 57.752 148.897 57.3213C149.192 56.5943 148.964 55.8125 148.388 55.5789C148.279 55.5345 148.158 55.5175 148.035 55.5136C147.987 55.5123 147.934 55.5006 147.89 55.4758C147.646 55.3374 147.445 55.2435 147.284 55.1678C146.418 54.7605 146.516 54.5008 146.927 53.4071C147.015 53.1721 147.122 52.8876 147.246 52.5391C147.257 52.5091 147.253 52.5013 147.251 52.4987C147.157 52.329 146.494 52.1789 146.054 52.0784C145.227 51.8918 144.373 51.6973 144.313 51.0747C144.204 49.9484 143.732 49.2475 143.051 49.1992C142.236 49.1405 141.157 50.0423 140.725 51.8226C140.487 52.8015 139.722 54.1419 139.021 54.8114C138.916 54.9119 138.86 55.0464 138.861 55.1899C138.863 55.3348 138.923 55.4666 139.03 55.5645L139.769 56.2367C139.834 56.2967 139.87 56.3829 139.863 56.4703C139.695 58.941 140.413 60.5516 141.831 60.887C142.149 60.9614 142.503 60.9732 142.883 60.9197C142.964 60.9079 143.046 60.9314 143.109 60.9836C143.171 61.0358 143.209 61.1128 143.213 61.1937L143.243 61.9272C143.274 63.577 142.348 65.1223 140.883 65.8702L140.566 66.032V66.0307Z" fill="#003E83"/>
<path d="M142.922 61.4955C142.788 61.4955 142.666 61.4015 142.639 61.2645C142.606 61.1079 142.708 60.9552 142.865 60.9226C145.002 60.484 145.917 58.752 145.926 58.7338C145.999 58.5915 146.173 58.5354 146.317 58.6085C146.459 58.6816 146.515 58.8552 146.443 58.9974C146.402 59.0783 145.4 60.9943 142.982 61.4903C142.963 61.4942 142.943 61.4968 142.924 61.4968L142.922 61.4955Z" fill="#003E83"/>
<path d="M75.08 225.66L72.32 230.976V234H70.952V230.976L68.18 225.66H69.704L71.636 229.752L73.568 225.66H75.08ZM79.0336 234.108C78.4096 234.108 77.8456 233.968 77.3416 233.688C76.8376 233.4 76.4416 233 76.1536 232.488C75.8656 231.968 75.7216 231.368 75.7216 230.688C75.7216 230.016 75.8696 229.42 76.1656 228.9C76.4616 228.38 76.8656 227.98 77.3776 227.7C77.8896 227.42 78.4616 227.28 79.0936 227.28C79.7256 227.28 80.2976 227.42 80.8096 227.7C81.3216 227.98 81.7256 228.38 82.0216 228.9C82.3176 229.42 82.4656 230.016 82.4656 230.688C82.4656 231.36 82.3136 231.956 82.0096 232.476C81.7056 232.996 81.2896 233.4 80.7616 233.688C80.2416 233.968 79.6656 234.108 79.0336 234.108ZM79.0336 232.92C79.3856 232.92 79.7136 232.836 80.0176 232.668C80.3296 232.5 80.5816 232.248 80.7736 231.912C80.9656 231.576 81.0616 231.168 81.0616 230.688C81.0616 230.208 80.9696 229.804 80.7856 229.476C80.6016 229.14 80.3576 228.888 80.0536 228.72C79.7496 228.552 79.4216 228.468 79.0696 228.468C78.7176 228.468 78.3896 228.552 78.0856 228.72C77.7896 228.888 77.5536 229.14 77.3776 229.476C77.2016 229.804 77.1136 230.208 77.1136 230.688C77.1136 231.4 77.2936 231.952 77.6536 232.344C78.0216 232.728 78.4816 232.92 79.0336 232.92ZM89.806 227.388V234H88.438V233.22C88.222 233.492 87.938 233.708 87.586 233.868C87.242 234.02 86.874 234.096 86.482 234.096C85.962 234.096 85.494 233.988 85.078 233.772C84.67 233.556 84.346 233.236 84.106 232.812C83.874 232.388 83.758 231.876 83.758 231.276V227.388H85.114V231.072C85.114 231.664 85.262 232.12 85.558 232.44C85.854 232.752 86.258 232.908 86.77 232.908C87.282 232.908 87.686 232.752 87.982 232.44C88.286 232.12 88.438 231.664 88.438 231.072V227.388H89.806ZM98.0641 227.28C98.5841 227.28 99.0481 227.388 99.4561 227.604C99.8721 227.82 100.196 228.14 100.428 228.564C100.66 228.988 100.776 229.5 100.776 230.1V234H99.4201V230.304C99.4201 229.712 99.2721 229.26 98.9761 228.948C98.6801 228.628 98.2761 228.468 97.7641 228.468C97.2521 228.468 96.8441 228.628 96.5401 228.948C96.2441 229.26 96.0961 229.712 96.0961 230.304V234H94.7281V227.388H96.0961V228.144C96.3201 227.872 96.6041 227.66 96.9481 227.508C97.3001 227.356 97.6721 227.28 98.0641 227.28ZM108.581 230.532C108.581 230.78 108.565 231.004 108.533 231.204H103.481C103.521 231.732 103.717 232.156 104.069 232.476C104.421 232.796 104.853 232.956 105.365 232.956C106.101 232.956 106.621 232.648 106.925 232.032H108.401C108.201 232.64 107.837 233.14 107.309 233.532C106.789 233.916 106.141 234.108 105.365 234.108C104.733 234.108 104.165 233.968 103.661 233.688C103.165 233.4 102.773 233 102.485 232.488C102.205 231.968 102.065 231.368 102.065 230.688C102.065 230.008 102.201 229.412 102.473 228.9C102.753 228.38 103.141 227.98 103.637 227.7C104.141 227.42 104.717 227.28 105.365 227.28C105.989 227.28 106.545 227.416 107.033 227.688C107.521 227.96 107.901 228.344 108.173 228.84C108.445 229.328 108.581 229.892 108.581 230.532ZM107.153 230.1C107.145 229.596 106.965 229.192 106.613 228.888C106.261 228.584 105.825 228.432 105.305 228.432C104.833 228.432 104.429 228.584 104.093 228.888C103.757 229.184 103.557 229.588 103.493 230.1H107.153ZM115.987 230.532C115.987 230.78 115.971 231.004 115.939 231.204H110.887C110.927 231.732 111.123 232.156 111.475 232.476C111.827 232.796 112.259 232.956 112.771 232.956C113.507 232.956 114.027 232.648 114.331 232.032H115.807C115.607 232.64 115.243 233.14 114.715 233.532C114.195 233.916 113.547 234.108 112.771 234.108C112.139 234.108 111.571 233.968 111.067 233.688C110.571 233.4 110.179 233 109.891 232.488C109.611 231.968 109.471 231.368 109.471 230.688C109.471 230.008 109.607 229.412 109.879 228.9C110.159 228.38 110.547 227.98 111.043 227.7C111.547 227.42 112.123 227.28 112.771 227.28C113.395 227.28 113.951 227.416 114.439 227.688C114.927 227.96 115.307 228.344 115.579 228.84C115.851 229.328 115.987 229.892 115.987 230.532ZM114.559 230.1C114.551 229.596 114.371 229.192 114.019 228.888C113.667 228.584 113.231 228.432 112.711 228.432C112.239 228.432 111.835 228.584 111.499 228.888C111.163 229.184 110.963 229.588 110.899 230.1H114.559ZM116.878 230.664C116.878 230 117.014 229.412 117.286 228.9C117.566 228.388 117.942 227.992 118.414 227.712C118.894 227.424 119.426 227.28 120.01 227.28C120.442 227.28 120.866 227.376 121.282 227.568C121.706 227.752 122.042 228 122.29 228.312V225.12H123.67V234H122.29V233.004C122.066 233.324 121.754 233.588 121.354 233.796C120.962 234.004 120.51 234.108 119.998 234.108C119.422 234.108 118.894 233.964 118.414 233.676C117.942 233.38 117.566 232.972 117.286 232.452C117.014 231.924 116.878 231.328 116.878 230.664ZM122.29 230.688C122.29 230.232 122.194 229.836 122.002 229.5C121.818 229.164 121.574 228.908 121.27 228.732C120.966 228.556 120.638 228.468 120.286 228.468C119.934 228.468 119.606 228.556 119.302 228.732C118.998 228.9 118.75 229.152 118.558 229.488C118.374 229.816 118.282 230.208 118.282 230.664C118.282 231.12 118.374 231.52 118.558 231.864C118.75 232.208 118.998 232.472 119.302 232.656C119.614 232.832 119.942 232.92 120.286 232.92C120.638 232.92 120.966 232.832 121.27 232.656C121.574 232.48 121.818 232.224 122.002 231.888C122.194 231.544 122.29 231.144 122.29 230.688ZM130.18 228.504V232.164C130.18 232.412 130.236 232.592 130.348 232.704C130.468 232.808 130.668 232.86 130.948 232.86H131.788V234H130.708C130.092 234 129.62 233.856 129.292 233.568C128.964 233.28 128.8 232.812 128.8 232.164V228.504H128.02V227.388H128.8V225.744H130.18V227.388H131.788V228.504H130.18ZM135.916 234.108C135.292 234.108 134.728 233.968 134.224 233.688C133.72 233.4 133.324 233 133.036 232.488C132.748 231.968 132.604 231.368 132.604 230.688C132.604 230.016 132.752 229.42 133.048 228.9C133.344 228.38 133.748 227.98 134.26 227.7C134.772 227.42 135.344 227.28 135.976 227.28C136.608 227.28 137.18 227.42 137.692 227.7C138.204 227.98 138.608 228.38 138.904 228.9C139.2 229.42 139.348 230.016 139.348 230.688C139.348 231.36 139.196 231.956 138.892 232.476C138.588 232.996 138.172 233.4 137.644 233.688C137.124 233.968 136.548 234.108 135.916 234.108ZM135.916 232.92C136.268 232.92 136.596 232.836 136.9 232.668C137.212 232.5 137.464 232.248 137.656 231.912C137.848 231.576 137.944 231.168 137.944 230.688C137.944 230.208 137.852 229.804 137.668 229.476C137.484 229.14 137.24 228.888 136.936 228.72C136.632 228.552 136.304 228.468 135.952 228.468C135.6 228.468 135.272 228.552 134.968 228.72C134.672 228.888 134.436 229.14 134.26 229.476C134.084 229.804 133.996 230.208 133.996 230.688C133.996 231.4 134.176 231.952 134.536 232.344C134.904 232.728 135.364 232.92 135.916 232.92ZM149.878 230.532C149.878 230.78 149.862 231.004 149.83 231.204H144.778C144.818 231.732 145.014 232.156 145.366 232.476C145.718 232.796 146.15 232.956 146.662 232.956C147.398 232.956 147.918 232.648 148.222 232.032H149.698C149.498 232.64 149.134 233.14 148.606 233.532C148.086 233.916 147.438 234.108 146.662 234.108C146.03 234.108 145.462 233.968 144.958 233.688C144.462 233.4 144.07 233 143.782 232.488C143.502 231.968 143.362 231.368 143.362 230.688C143.362 230.008 143.498 229.412 143.77 228.9C144.05 228.38 144.438 227.98 144.934 227.7C145.438 227.42 146.014 227.28 146.662 227.28C147.286 227.28 147.842 227.416 148.33 227.688C148.818 227.96 149.198 228.344 149.47 228.84C149.742 229.328 149.878 229.892 149.878 230.532ZM148.45 230.1C148.442 229.596 148.262 229.192 147.91 228.888C147.558 228.584 147.122 228.432 146.602 228.432C146.13 228.432 145.726 228.584 145.39 228.888C145.054 229.184 144.854 229.588 144.79 230.1H148.45ZM154.56 227.28C155.08 227.28 155.544 227.388 155.952 227.604C156.368 227.82 156.692 228.14 156.924 228.564C157.156 228.988 157.272 229.5 157.272 230.1V234H155.916V230.304C155.916 229.712 155.768 229.26 155.472 228.948C155.176 228.628 154.772 228.468 154.26 228.468C153.748 228.468 153.34 228.628 153.036 228.948C152.74 229.26 152.592 229.712 152.592 230.304V234H151.224V227.388H152.592V228.144C152.816 227.872 153.1 227.66 153.444 227.508C153.796 227.356 154.168 227.28 154.56 227.28ZM160.613 228.504V232.164C160.613 232.412 160.669 232.592 160.781 232.704C160.901 232.808 161.101 232.86 161.381 232.86H162.221V234H161.141C160.525 234 160.053 233.856 159.725 233.568C159.397 233.28 159.233 232.812 159.233 232.164V228.504H158.453V227.388H159.233V225.744H160.613V227.388H162.221V228.504H160.613ZM169.542 230.532C169.542 230.78 169.526 231.004 169.494 231.204H164.442C164.482 231.732 164.678 232.156 165.03 232.476C165.382 232.796 165.814 232.956 166.326 232.956C167.062 232.956 167.582 232.648 167.886 232.032H169.362C169.162 232.64 168.798 233.14 168.27 233.532C167.75 233.916 167.102 234.108 166.326 234.108C165.694 234.108 165.126 233.968 164.622 233.688C164.126 233.4 163.734 233 163.446 232.488C163.166 231.968 163.026 231.368 163.026 230.688C163.026 230.008 163.162 229.412 163.434 228.9C163.714 228.38 164.102 227.98 164.598 227.7C165.102 227.42 165.678 227.28 166.326 227.28C166.95 227.28 167.506 227.416 167.994 227.688C168.482 227.96 168.862 228.344 169.134 228.84C169.406 229.328 169.542 229.892 169.542 230.532ZM168.114 230.1C168.106 229.596 167.926 229.192 167.574 228.888C167.222 228.584 166.786 228.432 166.266 228.432C165.794 228.432 165.39 228.584 165.054 228.888C164.718 229.184 164.518 229.588 164.454 230.1H168.114ZM172.256 228.348C172.456 228.012 172.72 227.752 173.048 227.568C173.384 227.376 173.78 227.28 174.236 227.28V228.696H173.888C173.352 228.696 172.944 228.832 172.664 229.104C172.392 229.376 172.256 229.848 172.256 230.52V234H170.888V227.388H172.256V228.348ZM184.563 227.388L180.507 237.108H179.091L180.435 233.892L177.831 227.388H179.355L181.215 232.428L183.147 227.388H184.563ZM188.463 234.108C187.839 234.108 187.275 233.968 186.771 233.688C186.267 233.4 185.871 233 185.583 232.488C185.295 231.968 185.151 231.368 185.151 230.688C185.151 230.016 185.299 229.42 185.595 228.9C185.891 228.38 186.295 227.98 186.807 227.7C187.319 227.42 187.891 227.28 188.523 227.28C189.155 227.28 189.727 227.42 190.239 227.7C190.751 227.98 191.155 228.38 191.451 228.9C191.747 229.42 191.895 230.016 191.895 230.688C191.895 231.36 191.743 231.956 191.439 232.476C191.135 232.996 190.719 233.4 190.191 233.688C189.671 233.968 189.095 234.108 188.463 234.108ZM188.463 232.92C188.815 232.92 189.143 232.836 189.447 232.668C189.759 232.5 190.011 232.248 190.203 231.912C190.395 231.576 190.491 231.168 190.491 230.688C190.491 230.208 190.399 229.804 190.215 229.476C190.031 229.14 189.787 228.888 189.483 228.72C189.179 228.552 188.851 228.468 188.499 228.468C188.147 228.468 187.819 228.552 187.515 228.72C187.219 228.888 186.983 229.14 186.807 229.476C186.631 229.804 186.543 230.208 186.543 230.688C186.543 231.4 186.723 231.952 187.083 232.344C187.451 232.728 187.911 232.92 188.463 232.92ZM199.236 227.388V234H197.868V233.22C197.652 233.492 197.368 233.708 197.016 233.868C196.672 234.02 196.304 234.096 195.912 234.096C195.392 234.096 194.924 233.988 194.508 233.772C194.1 233.556 193.776 233.236 193.536 232.812C193.304 232.388 193.188 231.876 193.188 231.276V227.388H194.544V231.072C194.544 231.664 194.692 232.12 194.988 232.44C195.284 232.752 195.688 232.908 196.2 232.908C196.712 232.908 197.116 232.752 197.412 232.44C197.716 232.12 197.868 231.664 197.868 231.072V227.388H199.236ZM202.409 228.348C202.609 228.012 202.873 227.752 203.201 227.568C203.537 227.376 203.933 227.28 204.389 227.28V228.696H204.041C203.505 228.696 203.097 228.832 202.817 229.104C202.545 229.376 202.409 229.848 202.409 230.52V234H201.041V227.388H202.409V228.348Z" fill="white"/>
<path d="M17.528 243.436L12.92 256H9.86L5.252 243.436H7.952L11.408 253.426L14.846 243.436H17.528ZM28.3089 250.798C28.3089 251.158 28.2849 251.482 28.2369 251.77H20.9469C21.0069 252.49 21.2589 253.054 21.7029 253.462C22.1469 253.87 22.6929 254.074 23.3409 254.074C24.2769 254.074 24.9429 253.672 25.3389 252.868H28.0569C27.7689 253.828 27.2169 254.62 26.4009 255.244C25.5849 255.856 24.5829 256.162 23.3949 256.162C22.4349 256.162 21.5709 255.952 20.8029 255.532C20.0469 255.1 19.4529 254.494 19.0209 253.714C18.6009 252.934 18.3909 252.034 18.3909 251.014C18.3909 249.982 18.6009 249.076 19.0209 248.296C19.4409 247.516 20.0289 246.916 20.7849 246.496C21.5409 246.076 22.4109 245.866 23.3949 245.866C24.3429 245.866 25.1889 246.07 25.9329 246.478C26.6889 246.886 27.2709 247.468 27.6789 248.224C28.0989 248.968 28.3089 249.826 28.3089 250.798ZM25.6989 250.078C25.6869 249.43 25.4529 248.914 24.9969 248.53C24.5409 248.134 23.9829 247.936 23.3229 247.936C22.6989 247.936 22.1709 248.128 21.7389 248.512C21.3189 248.884 21.0609 249.406 20.9649 250.078H25.6989ZM35.7643 245.884C36.5203 245.884 37.1923 246.052 37.7803 246.388C38.3683 246.712 38.8243 247.198 39.1483 247.846C39.4843 248.482 39.6523 249.25 39.6523 250.15V256H37.1323V250.492C37.1323 249.7 36.9343 249.094 36.5383 248.674C36.1423 248.242 35.6023 248.026 34.9183 248.026C34.2223 248.026 33.6703 248.242 33.2623 248.674C32.8663 249.094 32.6683 249.7 32.6683 250.492V256H30.1483V242.68H32.6683V247.27C32.9923 246.838 33.4243 246.502 33.9643 246.262C34.5043 246.01 35.1043 245.884 35.7643 245.884ZM43.3266 244.84C42.8826 244.84 42.5106 244.702 42.2106 244.426C41.9226 244.138 41.7786 243.784 41.7786 243.364C41.7786 242.944 41.9226 242.596 42.2106 242.32C42.5106 242.032 42.8826 241.888 43.3266 241.888C43.7706 241.888 44.1366 242.032 44.4246 242.32C44.7246 242.596 44.8746 242.944 44.8746 243.364C44.8746 243.784 44.7246 244.138 44.4246 244.426C44.1366 244.702 43.7706 244.84 43.3266 244.84ZM44.5686 246.028V256H42.0486V246.028H44.5686ZM46.4104 251.014C46.4104 249.982 46.6204 249.082 47.0404 248.314C47.4604 247.534 48.0424 246.934 48.7864 246.514C49.5304 246.082 50.3824 245.866 51.3424 245.866C52.5784 245.866 53.5984 246.178 54.4024 246.802C55.2184 247.414 55.7644 248.278 56.0404 249.394H53.3224C53.1784 248.962 52.9324 248.626 52.5844 248.386C52.2484 248.134 51.8284 248.008 51.3244 248.008C50.6044 248.008 50.0344 248.272 49.6144 248.8C49.1944 249.316 48.9844 250.054 48.9844 251.014C48.9844 251.962 49.1944 252.7 49.6144 253.228C50.0344 253.744 50.6044 254.002 51.3244 254.002C52.3444 254.002 53.0104 253.546 53.3224 252.634H56.0404C55.7644 253.714 55.2184 254.572 54.4024 255.208C53.5864 255.844 52.5664 256.162 51.3424 256.162C50.3824 256.162 49.5304 255.952 48.7864 255.532C48.0424 255.1 47.4604 254.5 47.0404 253.732C46.6204 252.952 46.4104 252.046 46.4104 251.014ZM60.4065 242.68V256H57.8865V242.68H60.4065ZM72.1663 250.798C72.1663 251.158 72.1423 251.482 72.0943 251.77H64.8043C64.8643 252.49 65.1163 253.054 65.5603 253.462C66.0043 253.87 66.5503 254.074 67.1983 254.074C68.1343 254.074 68.8003 253.672 69.1963 252.868H71.9143C71.6263 253.828 71.0743 254.62 70.2583 255.244C69.4423 255.856 68.4403 256.162 67.2523 256.162C66.2923 256.162 65.4283 255.952 64.6603 255.532C63.9043 255.1 63.3103 254.494 62.8783 253.714C62.4583 252.934 62.2483 252.034 62.2483 251.014C62.2483 249.982 62.4583 249.076 62.8783 248.296C63.2983 247.516 63.8863 246.916 64.6423 246.496C65.3983 246.076 66.2683 245.866 67.2523 245.866C68.2003 245.866 69.0463 246.07 69.7903 246.478C70.5463 246.886 71.1283 247.468 71.5363 248.224C71.9563 248.968 72.1663 249.826 72.1663 250.798ZM69.5563 250.078C69.5443 249.43 69.3103 248.914 68.8543 248.53C68.3983 248.134 67.8403 247.936 67.1803 247.936C66.5563 247.936 66.0283 248.128 65.5963 248.512C65.1763 248.884 64.9183 249.406 64.8223 250.078H69.5563ZM84.7747 256L82.0027 251.104H80.8147V256H78.2947V243.436H83.0107C83.9827 243.436 84.8107 243.61 85.4947 243.958C86.1787 244.294 86.6887 244.756 87.0247 245.344C87.3727 245.92 87.5467 246.568 87.5467 247.288C87.5467 248.116 87.3067 248.866 86.8267 249.538C86.3467 250.198 85.6327 250.654 84.6847 250.906L87.6907 256H84.7747ZM80.8147 249.214H82.9207C83.6047 249.214 84.1147 249.052 84.4507 248.728C84.7867 248.392 84.9547 247.93 84.9547 247.342C84.9547 246.766 84.7867 246.322 84.4507 246.01C84.1147 245.686 83.6047 245.524 82.9207 245.524H80.8147V249.214ZM99.096 250.798C99.096 251.158 99.072 251.482 99.024 251.77H91.734C91.794 252.49 92.046 253.054 92.49 253.462C92.934 253.87 93.48 254.074 94.128 254.074C95.064 254.074 95.73 253.672 96.126 252.868H98.844C98.556 253.828 98.004 254.62 97.188 255.244C96.372 255.856 95.37 256.162 94.182 256.162C93.222 256.162 92.358 255.952 91.59 255.532C90.834 255.1 90.24 254.494 89.808 253.714C89.388 252.934 89.178 252.034 89.178 251.014C89.178 249.982 89.388 249.076 89.808 248.296C90.228 247.516 90.816 246.916 91.572 246.496C92.328 246.076 93.198 245.866 94.182 245.866C95.13 245.866 95.976 246.07 96.72 246.478C97.476 246.886 98.058 247.468 98.466 248.224C98.886 248.968 99.096 249.826 99.096 250.798ZM96.486 250.078C96.474 249.43 96.24 248.914 95.784 248.53C95.328 248.134 94.77 247.936 94.11 247.936C93.486 247.936 92.958 248.128 92.526 248.512C92.106 248.884 91.848 249.406 91.752 250.078H96.486ZM104.841 245.866C105.585 245.866 106.239 246.016 106.803 246.316C107.367 246.604 107.811 246.982 108.135 247.45V246.028H110.673V256.072C110.673 256.996 110.487 257.818 110.115 258.538C109.743 259.27 109.185 259.846 108.441 260.266C107.697 260.698 106.797 260.914 105.741 260.914C104.325 260.914 103.161 260.584 102.249 259.924C101.349 259.264 100.839 258.364 100.719 257.224H103.221C103.353 257.68 103.635 258.04 104.067 258.304C104.511 258.58 105.045 258.718 105.669 258.718C106.401 258.718 106.995 258.496 107.451 258.052C107.907 257.62 108.135 256.96 108.135 256.072V254.524C107.811 254.992 107.361 255.382 106.785 255.694C106.221 256.006 105.573 256.162 104.841 256.162C104.001 256.162 103.233 255.946 102.537 255.514C101.841 255.082 101.289 254.476 100.881 253.696C100.485 252.904 100.287 251.998 100.287 250.978C100.287 249.97 100.485 249.076 100.881 248.296C101.289 247.516 101.835 246.916 102.519 246.496C103.215 246.076 103.989 245.866 104.841 245.866ZM108.135 251.014C108.135 250.402 108.015 249.88 107.775 249.448C107.535 249.004 107.211 248.668 106.803 248.44C106.395 248.2 105.957 248.08 105.489 248.08C105.021 248.08 104.589 248.194 104.193 248.422C103.797 248.65 103.473 248.986 103.221 249.43C102.981 249.862 102.861 250.378 102.861 250.978C102.861 251.578 102.981 252.106 103.221 252.562C103.473 253.006 103.797 253.348 104.193 253.588C104.601 253.828 105.033 253.948 105.489 253.948C105.957 253.948 106.395 253.834 106.803 253.606C107.211 253.366 107.535 253.03 107.775 252.598C108.015 252.154 108.135 251.626 108.135 251.014ZM114.413 244.84C113.969 244.84 113.597 244.702 113.297 244.426C113.009 244.138 112.865 243.784 112.865 243.364C112.865 242.944 113.009 242.596 113.297 242.32C113.597 242.032 113.969 241.888 114.413 241.888C114.857 241.888 115.223 242.032 115.511 242.32C115.811 242.596 115.961 242.944 115.961 243.364C115.961 243.784 115.811 244.138 115.511 244.426C115.223 244.702 114.857 244.84 114.413 244.84ZM115.655 246.028V256H113.135V246.028H115.655ZM121.96 256.162C121.144 256.162 120.412 256.018 119.764 255.73C119.116 255.43 118.6 255.028 118.216 254.524C117.844 254.02 117.64 253.462 117.604 252.85H120.142C120.19 253.234 120.376 253.552 120.7 253.804C121.036 254.056 121.45 254.182 121.942 254.182C122.422 254.182 122.794 254.086 123.058 253.894C123.334 253.702 123.472 253.456 123.472 253.156C123.472 252.832 123.304 252.592 122.968 252.436C122.644 252.268 122.122 252.088 121.402 251.896C120.658 251.716 120.046 251.53 119.566 251.338C119.098 251.146 118.69 250.852 118.342 250.456C118.006 250.06 117.838 249.526 117.838 248.854C117.838 248.302 117.994 247.798 118.306 247.342C118.63 246.886 119.086 246.526 119.674 246.262C120.274 245.998 120.976 245.866 121.78 245.866C122.968 245.866 123.916 246.166 124.624 246.766C125.332 247.354 125.722 248.152 125.794 249.16H123.382C123.346 248.764 123.178 248.452 122.878 248.224C122.59 247.984 122.2 247.864 121.708 247.864C121.252 247.864 120.898 247.948 120.646 248.116C120.406 248.284 120.286 248.518 120.286 248.818C120.286 249.154 120.454 249.412 120.79 249.592C121.126 249.76 121.648 249.934 122.356 250.114C123.076 250.294 123.67 250.48 124.138 250.672C124.606 250.864 125.008 251.164 125.344 251.572C125.692 251.968 125.872 252.496 125.884 253.156C125.884 253.732 125.722 254.248 125.398 254.704C125.086 255.16 124.63 255.52 124.03 255.784C123.442 256.036 122.752 256.162 121.96 256.162ZM130.887 248.098V252.922C130.887 253.258 130.965 253.504 131.121 253.66C131.289 253.804 131.565 253.876 131.949 253.876H133.119V256H131.535C129.411 256 128.349 254.968 128.349 252.904V248.098H127.161V246.028H128.349V243.562H130.887V246.028H133.119V248.098H130.887ZM137.451 247.576C137.775 247.048 138.195 246.634 138.711 246.334C139.239 246.034 139.839 245.884 140.511 245.884V248.53H139.845C139.053 248.53 138.453 248.716 138.045 249.088C137.649 249.46 137.451 250.108 137.451 251.032V256H134.931V246.028H137.451V247.576ZM141.561 250.978C141.561 249.97 141.759 249.076 142.155 248.296C142.563 247.516 143.109 246.916 143.793 246.496C144.489 246.076 145.263 245.866 146.115 245.866C146.859 245.866 147.507 246.016 148.059 246.316C148.623 246.616 149.073 246.994 149.409 247.45V246.028H151.947V256H149.409V254.542C149.085 255.01 148.635 255.4 148.059 255.712C147.495 256.012 146.841 256.162 146.097 256.162C145.257 256.162 144.489 255.946 143.793 255.514C143.109 255.082 142.563 254.476 142.155 253.696C141.759 252.904 141.561 251.998 141.561 250.978ZM149.409 251.014C149.409 250.402 149.289 249.88 149.049 249.448C148.809 249.004 148.485 248.668 148.077 248.44C147.669 248.2 147.231 248.08 146.763 248.08C146.295 248.08 145.863 248.194 145.467 248.422C145.071 248.65 144.747 248.986 144.495 249.43C144.255 249.862 144.135 250.378 144.135 250.978C144.135 251.578 144.255 252.106 144.495 252.562C144.747 253.006 145.071 253.348 145.467 253.588C145.875 253.828 146.307 253.948 146.763 253.948C147.231 253.948 147.669 253.834 148.077 253.606C148.485 253.366 148.809 253.03 149.049 252.598C149.289 252.154 149.409 251.626 149.409 251.014ZM157.342 248.098V252.922C157.342 253.258 157.42 253.504 157.576 253.66C157.744 253.804 158.02 253.876 158.404 253.876H159.574V256H157.99C155.866 256 154.804 254.968 154.804 252.904V248.098H153.616V246.028H154.804V243.562H157.342V246.028H159.574V248.098H157.342ZM162.665 244.84C162.221 244.84 161.849 244.702 161.549 244.426C161.261 244.138 161.117 243.784 161.117 243.364C161.117 242.944 161.261 242.596 161.549 242.32C161.849 242.032 162.221 241.888 162.665 241.888C163.109 241.888 163.475 242.032 163.763 242.32C164.063 242.596 164.213 242.944 164.213 243.364C164.213 243.784 164.063 244.138 163.763 244.426C163.475 244.702 163.109 244.84 162.665 244.84ZM163.907 246.028V256H161.387V246.028H163.907ZM170.824 256.162C169.864 256.162 169 255.952 168.232 255.532C167.464 255.1 166.858 254.494 166.414 253.714C165.982 252.934 165.766 252.034 165.766 251.014C165.766 249.994 165.988 249.094 166.432 248.314C166.888 247.534 167.506 246.934 168.286 246.514C169.066 246.082 169.936 245.866 170.896 245.866C171.856 245.866 172.726 246.082 173.506 246.514C174.286 246.934 174.898 247.534 175.342 248.314C175.798 249.094 176.026 249.994 176.026 251.014C176.026 252.034 175.792 252.934 175.324 253.714C174.868 254.494 174.244 255.1 173.452 255.532C172.672 255.952 171.796 256.162 170.824 256.162ZM170.824 253.966C171.28 253.966 171.706 253.858 172.102 253.642C172.51 253.414 172.834 253.078 173.074 252.634C173.314 252.19 173.434 251.65 173.434 251.014C173.434 250.066 173.182 249.34 172.678 248.836C172.186 248.32 171.58 248.062 170.86 248.062C170.14 248.062 169.534 248.32 169.042 248.836C168.562 249.34 168.322 250.066 168.322 251.014C168.322 251.962 168.556 252.694 169.024 253.21C169.504 253.714 170.104 253.966 170.824 253.966ZM183.401 245.884C184.589 245.884 185.549 246.262 186.281 247.018C187.013 247.762 187.379 248.806 187.379 250.15V256H184.859V250.492C184.859 249.7 184.661 249.094 184.265 248.674C183.869 248.242 183.329 248.026 182.645 248.026C181.949 248.026 181.397 248.242 180.989 248.674C180.593 249.094 180.395 249.7 180.395 250.492V256H177.875V246.028H180.395V247.27C180.731 246.838 181.157 246.502 181.673 246.262C182.201 246.01 182.777 245.884 183.401 245.884ZM204.81 256H202.29L196.584 247.378V256H194.064V243.418H196.584L202.29 252.058V243.418H204.81V256ZM216.715 246.028V256H214.177V254.74C213.853 255.172 213.427 255.514 212.899 255.766C212.383 256.006 211.819 256.126 211.207 256.126C210.427 256.126 209.737 255.964 209.137 255.64C208.537 255.304 208.063 254.818 207.715 254.182C207.379 253.534 207.211 252.766 207.211 251.878V246.028H209.731V251.518C209.731 252.31 209.929 252.922 210.325 253.354C210.721 253.774 211.261 253.984 211.945 253.984C212.641 253.984 213.187 253.774 213.583 253.354C213.979 252.922 214.177 252.31 214.177 251.518V246.028H216.715ZM231.585 245.884C232.809 245.884 233.793 246.262 234.537 247.018C235.293 247.762 235.671 248.806 235.671 250.15V256H233.151V250.492C233.151 249.712 232.953 249.118 232.557 248.71C232.161 248.29 231.621 248.08 230.937 248.08C230.253 248.08 229.707 248.29 229.299 248.71C228.903 249.118 228.705 249.712 228.705 250.492V256H226.185V250.492C226.185 249.712 225.987 249.118 225.591 248.71C225.195 248.29 224.655 248.08 223.971 248.08C223.275 248.08 222.723 248.29 222.315 248.71C221.919 249.118 221.721 249.712 221.721 250.492V256H219.201V246.028H221.721V247.234C222.045 246.814 222.459 246.484 222.963 246.244C223.479 246.004 224.043 245.884 224.655 245.884C225.435 245.884 226.131 246.052 226.743 246.388C227.355 246.712 227.829 247.18 228.165 247.792C228.489 247.216 228.957 246.754 229.569 246.406C230.193 246.058 230.865 245.884 231.585 245.884ZM240.582 247.486C240.906 247.006 241.35 246.616 241.914 246.316C242.49 246.016 243.144 245.866 243.876 245.866C244.728 245.866 245.496 246.076 246.18 246.496C246.876 246.916 247.422 247.516 247.818 248.296C248.226 249.064 248.43 249.958 248.43 250.978C248.43 251.998 248.226 252.904 247.818 253.696C247.422 254.476 246.876 255.082 246.18 255.514C245.496 255.946 244.728 256.162 243.876 256.162C243.132 256.162 242.478 256.018 241.914 255.73C241.362 255.43 240.918 255.046 240.582 254.578V256H238.062V242.68H240.582V247.486ZM245.856 250.978C245.856 250.378 245.73 249.862 245.478 249.43C245.238 248.986 244.914 248.65 244.506 248.422C244.11 248.194 243.678 248.08 243.21 248.08C242.754 248.08 242.322 248.2 241.914 248.44C241.518 248.668 241.194 249.004 240.942 249.448C240.702 249.892 240.582 250.414 240.582 251.014C240.582 251.614 240.702 252.136 240.942 252.58C241.194 253.024 241.518 253.366 241.914 253.606C242.322 253.834 242.754 253.948 243.21 253.948C243.678 253.948 244.11 253.828 244.506 253.588C244.914 253.348 245.238 253.006 245.478 252.562C245.73 252.118 245.856 251.59 245.856 250.978ZM259.532 250.798C259.532 251.158 259.508 251.482 259.46 251.77H252.17C252.23 252.49 252.482 253.054 252.926 253.462C253.37 253.87 253.916 254.074 254.564 254.074C255.5 254.074 256.166 253.672 256.562 252.868H259.28C258.992 253.828 258.44 254.62 257.624 255.244C256.808 255.856 255.806 256.162 254.618 256.162C253.658 256.162 252.794 255.952 252.026 255.532C251.27 255.1 250.676 254.494 250.244 253.714C249.824 252.934 249.614 252.034 249.614 251.014C249.614 249.982 249.824 249.076 250.244 248.296C250.664 247.516 251.252 246.916 252.008 246.496C252.764 246.076 253.634 245.866 254.618 245.866C255.566 245.866 256.412 246.07 257.156 246.478C257.912 246.886 258.494 247.468 258.902 248.224C259.322 248.968 259.532 249.826 259.532 250.798ZM256.922 250.078C256.91 249.43 256.676 248.914 256.22 248.53C255.764 248.134 255.206 247.936 254.546 247.936C253.922 247.936 253.394 248.128 252.962 248.512C252.542 248.884 252.284 249.406 252.188 250.078H256.922ZM263.891 247.576C264.215 247.048 264.635 246.634 265.151 246.334C265.679 246.034 266.279 245.884 266.951 245.884V248.53H266.285C265.493 248.53 264.893 248.716 264.485 249.088C264.089 249.46 263.891 250.108 263.891 251.032V256H261.371V246.028H263.891V247.576Z" fill="white"/>
</svg>
