<svg width="32" height="33" viewBox="0 0 32 33" fill="none" xmlns="http://www.w3.org/2000/svg">
<path d="M15.8201 17.1767C13.1801 17.0867 11.0801 14.9266 11.0801 12.2716C11.0801 9.55659 13.2701 7.35156 16.0001 7.35156C18.7152 7.35156 20.9202 9.55659 20.9202 12.2716C20.9052 14.9266 18.8202 17.0867 16.1801 17.1767C16.0751 17.1617 15.9401 17.1617 15.8201 17.1767Z" stroke="white" stroke-width="2" stroke-linecap="round" stroke-linejoin="round"/>
<path d="M16.0002 31.0039C12.1002 31.0039 8.56017 29.5188 5.89014 27.0738C6.04014 25.6638 6.94015 24.2838 8.54517 23.2038C12.6552 20.4737 19.3753 20.4737 23.4553 23.2038C25.0603 24.2838 25.9604 25.6638 26.1104 27.0738C23.4403 29.5188 19.9003 31.0039 16.0002 31.0039Z" stroke="white" stroke-width="2" stroke-linecap="round" stroke-linejoin="round"/>
<path fill-rule="evenodd" clip-rule="evenodd" d="M16.0002 31.0042C7.7158 31.0042 1 24.2884 1 16.0041C1 7.71971 7.7158 1.00391 16.0002 1.00391C24.2845 1.00391 31.0003 7.71971 31.0003 16.0041C31.0003 24.2884 24.2845 31.0042 16.0002 31.0042Z" stroke="white" stroke-width="2" stroke-linecap="round" stroke-linejoin="round"/>
</svg>
