<svg width="42" height="42" viewBox="0 0 42 42" fill="none" xmlns="http://www.w3.org/2000/svg">
<path fill-rule="evenodd" clip-rule="evenodd" d="M23.7474 4.235C22.0499 3.255 19.9499 3.255 18.2349 4.235L7.85736 10.2375C6.15986 11.2175 5.10986 13.0375 5.10986 15.015V26.985C5.10986 28.945 6.15986 30.765 7.85736 31.7625L18.2524 37.765C19.9499 38.745 22.0499 38.745 23.7649 37.765L34.1599 31.7625C35.8574 30.7825 36.9074 28.9625 36.9074 26.985V15.015C36.8899 13.0375 35.8399 11.235 34.1424 10.2375L23.7474 4.235ZM20.9999 12.25C21.7174 12.25 22.3124 12.845 22.3124 13.5625V22.75C22.3124 23.4675 21.7174 24.0625 20.9999 24.0625C20.2824 24.0625 19.6874 23.4675 19.6874 22.75V13.5625C19.6874 12.845 20.2824 12.25 20.9999 12.25ZM22.2424 29.68C21.9099 30.0125 21.4724 30.1875 20.9999 30.1875C20.7724 30.1875 20.5449 30.135 20.3349 30.0475C20.1074 29.96 19.9324 29.8375 19.7574 29.68C19.5999 29.505 19.4774 29.3125 19.3724 29.1025C19.2849 28.8925 19.2499 28.665 19.2499 28.4375C19.2499 27.9825 19.4249 27.5275 19.7574 27.195C19.9324 27.0375 20.1074 26.915 20.3349 26.8275C20.9824 26.5475 21.7524 26.705 22.2424 27.195C22.3999 27.37 22.5224 27.545 22.6099 27.7725C22.6974 27.9825 22.7499 28.21 22.7499 28.4375C22.7499 28.665 22.6974 28.8925 22.6099 29.1025C22.5224 29.3125 22.3999 29.505 22.2424 29.68Z" fill="#F56868"/>
</svg>
