<svg width="19" height="15" viewBox="0 0 19 15" fill="none" xmlns="http://www.w3.org/2000/svg">
<rect y="0.265625" width="12.3464" height="1.67947" rx="0.839737" fill="#009F82"/>
<path d="M0 13.75C0 13.3358 0.335786 13 0.75 13H18.25C18.6642 13 19 13.3358 19 13.75V13.75C19 14.1642 18.6642 14.5 18.25 14.5H0.750001C0.335787 14.5 0 14.1642 0 13.75V13.75Z" fill="#009F82"/>
<path d="M12.3477 7.64579C12.3477 7.2805 12.6438 6.98438 13.0091 6.98438V6.98438C13.3744 6.98438 13.6705 7.2805 13.6705 7.64579V14.042C13.6705 14.3182 13.4466 14.542 13.1705 14.542H12.8477C12.5715 14.542 12.3477 14.3182 12.3477 14.042V7.64579Z" fill="#009F82"/>
<path d="M17.6404 0.465966C17.8409 0.209021 18.2196 0.154192 18.4848 0.343728V0.343728C18.748 0.531896 18.8 0.890027 18.601 1.14512L13.4868 7.70147C13.2863 7.95842 12.9076 8.01325 12.6425 7.82371V7.82371C12.3792 7.63554 12.3273 7.27741 12.5262 7.02232L17.6404 0.465966Z" fill="#009F82"/>
<path fill-rule="evenodd" clip-rule="evenodd" d="M10.5845 0.265625H1.76562V13.7014H10.5845V0.265625ZM4.09831 11.7104C4.18611 11.8121 4.27397 11.9138 4.37534 12H4.37948C4.38149 11.9956 4.38343 11.991 4.38538 11.9864C4.38834 11.9795 4.39134 11.9724 4.39466 11.9657C4.53199 11.6978 4.66918 11.4299 4.80637 11.162C5.02714 10.7308 5.2479 10.2996 5.46918 9.86889C6.04738 8.74231 6.62603 7.61624 7.20469 6.49017C7.63236 5.65796 8.06051 4.82601 8.48862 3.99414C8.65588 3.66914 8.82313 3.34415 8.99034 3.01916L9 3C8.9862 3.0121 8.97516 3.02572 8.96504 3.04034C8.93563 3.08354 8.90621 3.1267 8.8768 3.16986C8.77882 3.31364 8.6809 3.45733 8.58326 3.60161L6.47608 6.71659C6.19447 7.13289 5.9128 7.54919 5.63114 7.96549C5.06766 8.79831 4.50419 9.63113 3.94112 10.4639C3.931 10.4796 3.92042 10.4861 3.90202 10.4861C3.6104 10.4861 3.31877 10.4871 3.02714 10.4881C3.02374 10.4881 3.02024 10.4885 3.01668 10.4889C3.013 10.4893 3.00926 10.4897 3.00552 10.4897L3 10.4982C3.00246 10.5 3.00504 10.5017 3.00765 10.5035C3.01381 10.5075 3.02013 10.5117 3.0253 10.5174C3.13295 10.6368 3.24044 10.7563 3.34793 10.8758C3.56289 11.1148 3.77784 11.3539 3.99402 11.5915C4.02932 11.6305 4.06381 11.6705 4.09831 11.7104Z" fill="#009F82"/>
</svg>
