<svg width="33" height="33" viewBox="0 0 33 33" fill="none" xmlns="http://www.w3.org/2000/svg">
<ellipse cx="16.5" cy="16.5369" rx="16" ry="15.9627" fill="#CCE6FD"/>
<path d="M3.21875 25.3018H30.0588C30.0588 25.3018 27.9952 28.4702 24.9166 30.2874C20.8817 32.669 17.2477 32.5665 17.2477 32.5665C17.2477 32.5665 12.9643 32.8054 9.03059 30.6512C5.09691 28.497 3.21875 25.3018 3.21875 25.3018Z" fill="#AEBF3E"/>
<path d="M24.7357 18.0417L22.2366 19.4258L21.3398 18.9093L22.2502 18.4602L21.6638 17.2771L19.9629 18.1162L18.8531 17.4769C18.9012 17.2873 18.9269 17.0888 18.9269 16.8844C18.9269 16.68 18.9012 16.4816 18.8531 16.2919L19.9629 15.6527L21.6638 16.4918L22.2502 15.3086L21.3398 14.8596L22.2366 14.343L24.7357 15.7271L25.3779 14.5731L23.5727 13.5734L25.0434 12.7263L24.3819 11.5833L22.9113 12.4304L22.946 10.3708L21.6232 10.3487L21.5751 13.2L20.6784 13.7166L20.7437 12.7055L19.4235 12.6206L19.3014 14.5097L18.1901 15.1498C17.9059 14.8744 17.5544 14.6678 17.163 14.5569V13.278L18.7418 12.2279L18.0079 11.1296L17.163 11.6916V10.6585L19.614 9.19133L18.9333 8.05949L17.1629 9.11924V7.42505H15.84V9.11924L14.0696 8.05949L13.3889 9.19133L15.84 10.6585V11.6915L14.995 11.1295L14.2611 12.2278L15.84 13.2779V14.5568C15.4485 14.6677 15.0971 14.8742 14.8128 15.1497L13.7016 14.5096L13.5794 12.6205L12.2592 12.7054L12.3246 13.7165L11.4278 13.1999L11.3797 10.3486L10.0569 10.3707L10.0917 12.4302L8.62104 11.5832L7.95956 12.7263L9.43019 13.5734L7.62504 14.5731L8.26719 15.7271L10.7664 14.343L11.6631 14.8596L10.7527 15.3086L11.3391 16.4918L13.0401 15.6527L14.1498 16.2919C14.1017 16.4816 14.076 16.68 14.076 16.8844C14.076 17.0888 14.1017 17.2873 14.1498 17.4769L13.0401 18.1162L11.3391 17.2771L10.7527 18.4602L11.6631 18.9093L10.7664 19.4258L8.26715 18.0417L7.625 19.1957L9.43015 20.1955L7.95952 21.0426L8.621 22.1856L10.0916 21.3386L10.0569 23.3981L11.3797 23.4203L11.4278 20.5689L12.3245 20.0524L12.2591 21.0634L13.5794 21.1484L13.7015 19.2592L14.8128 18.6191C15.097 18.8946 15.4484 19.1011 15.8399 19.212V20.4909L14.2611 21.5411L14.995 22.6393L15.8399 22.0773V23.1103L13.3889 24.5775L14.0695 25.7094L15.8399 24.6496V26.3438H17.1629V24.6496L18.9333 25.7094L19.614 24.5775L17.1629 23.1103V22.0773L18.0079 22.6393L18.7417 21.5411L17.1629 20.491V19.2121C17.5544 19.1011 17.9058 18.8946 18.1901 18.6192L19.3013 19.2593L19.4234 21.1484L20.7437 21.0635L20.6783 20.0524L21.5751 20.5689L21.6231 23.4203L22.946 23.3982L22.9112 21.3386L24.3819 22.1857L25.0433 21.0427L23.5727 20.1956L25.3779 19.1959L24.7357 18.0417ZM16.5014 17.9844C15.8935 17.9844 15.399 17.4909 15.399 16.8844C15.399 16.278 15.8936 15.7845 16.5014 15.7845C17.1093 15.7845 17.6039 16.278 17.6039 16.8844C17.6039 17.4909 17.1094 17.9844 16.5014 17.9844Z" fill="#8DB9E0"/>
<path d="M24.7421 18.0417L22.2429 19.4258L21.3462 18.9093L22.2566 18.4602L21.6701 17.2771L19.9692 18.1162L18.8595 17.4769C18.9076 17.2873 18.9333 17.0888 18.9333 16.8844C18.9333 16.68 18.9076 16.4816 18.8595 16.2919L19.9692 15.6527L21.6701 16.4918L22.2566 15.3086L21.3462 14.8596L22.2429 14.343L24.7421 15.7271L25.3843 14.5731L23.5791 13.5734L25.0497 12.7263L24.3883 11.5833L22.9176 12.4304L22.9524 10.3708L21.6296 10.3487L21.5815 13.2L20.6847 13.7165L20.7501 12.7055L19.4298 12.6205L19.3077 14.5097L18.1965 15.1498C17.9122 14.8743 17.5608 14.6678 17.1693 14.5569V13.278L18.7481 12.2278L18.0143 11.1296L17.1693 11.6916V10.6585L19.6204 9.19133L18.9397 8.05949L17.1693 9.11924V7.42505H16.5078V15.7845C17.1157 15.7845 17.6103 16.278 17.6103 16.8844C17.6103 17.4909 17.1157 17.9844 16.5078 17.9844V26.3438H17.1693V24.6496L18.9397 25.7094L19.6204 24.5775L17.1693 23.1103V22.0773L18.0143 22.6393L18.7481 21.5411L17.1693 20.491V19.2121C17.5608 19.1011 17.9121 18.8946 18.1964 18.6192L19.3077 19.2593L19.4298 21.1484L20.7501 21.0635L20.6847 20.0524L21.5814 20.5689L21.6295 23.4203L22.9523 23.3982L22.9176 21.3386L24.3882 22.1857L25.0497 21.0427L23.5791 20.1956L25.3842 19.1959L24.7421 18.0417Z" fill="#6FA0CB"/>
</svg>
