<svg width="33" height="33" viewBox="0 0 33 33" fill="none" xmlns="http://www.w3.org/2000/svg">
<ellipse cx="16.5" cy="16.5928" rx="16" ry="15.9627" fill="#CCE6FD"/>
<path d="M3.21875 25.3577H30.0588C30.0588 25.3577 27.9952 28.5261 24.9166 30.3433C20.8817 32.7249 17.2477 32.6224 17.2477 32.6224C17.2477 32.6224 12.9643 32.8613 9.03059 30.7071C5.09691 28.5529 3.21875 25.3577 3.21875 25.3577Z" fill="#AEBF3E"/>
<path d="M16.5013 26.533C21.6751 24.6021 25.1041 19.6698 25.1041 14.1587V10.8185C23.3303 10.8185 21.8924 9.3839 21.8924 7.61426H16.5013H11.1101C11.1101 9.3839 9.67222 10.8185 7.89844 10.8185V14.1587C7.89844 19.6698 11.3274 24.6021 16.5013 26.533Z" fill="#FFDB0C"/>
<path d="M16.5078 26.533C21.6817 24.6021 25.1106 19.6698 25.1106 14.1587V10.8185C23.3368 10.8185 21.8989 9.3839 21.8989 7.61426H16.5078C16.5078 7.61426 16.5078 22.3207 16.5078 26.533Z" fill="#FBBF00"/>
<path d="M15.3051 20.4095L12.4531 17.5642L14.0245 15.9965L15.3051 17.2741L18.9825 13.6052L20.5539 15.1729L15.3051 20.4095Z" fill="#F1F1F2"/>
</svg>
