<svg width="32" height="33" viewBox="0 0 32 33" fill="none" xmlns="http://www.w3.org/2000/svg">
<ellipse cx="16" cy="16.5775" rx="16" ry="15.9627" fill="#CCE6FD"/>
<path d="M2.71875 25.3422H29.5588C29.5588 25.3422 27.4952 28.5106 24.4166 30.3278C20.3817 32.7094 16.7477 32.6069 16.7477 32.6069C16.7477 32.6069 12.4643 32.8458 8.53059 30.6916C4.59691 28.5374 2.71875 25.3422 2.71875 25.3422Z" fill="#AEBF3E"/>
<path d="M6.52344 17.1626C6.52344 18.4165 6.76588 19.6351 7.24407 20.7846L7.45703 21.2965L11.222 19.7378L11.0086 19.2257C10.7216 18.5368 10.5837 17.806 10.5986 17.0535C10.6172 16.1187 10.8774 15.2188 11.3471 14.4277L9.88003 12.9793L7.83073 12.363C6.97847 13.8022 6.52344 15.4477 6.52344 17.1626H6.52344Z" fill="#7BC5B0"/>
<path d="M22.7004 10.4544C20.9143 8.67967 18.537 7.70325 16.0036 7.70325C16.0035 7.70325 16.0033 7.70325 16.0032 7.70325L15.6328 9.61434L16.0032 11.7681C17.4169 11.7679 18.7488 12.3062 19.7686 13.2946C20.1212 13.6364 20.4207 14.0167 20.6638 14.4261L23.0275 13.6252L24.1831 12.3597C23.7772 11.6719 23.2813 11.0316 22.7004 10.4544Z" fill="#FF7A63"/>
<path d="M15.9771 7.70328C13.4498 7.70986 11.0748 8.69674 9.28961 10.4821C8.71812 11.0537 8.22931 11.6856 7.82812 12.363L11.3445 14.4277C11.5706 14.0469 11.845 13.6912 12.1648 13.3692C13.149 12.378 14.4552 11.8102 15.8426 11.7702C15.896 11.7686 15.9492 11.7681 16.0023 11.7681V7.70325C15.9939 7.70325 15.9855 7.70325 15.9771 7.70328Z" fill="#FDD278"/>
<path d="M24.1834 12.3597L20.6641 14.4261C21.1511 15.2463 21.4109 16.1834 21.4109 17.1627C21.4109 17.8779 21.2722 18.5729 20.9988 19.2283L20.786 19.7384L24.5435 21.313L24.7579 20.8001C25.2422 19.6418 25.4868 18.4134 25.485 17.149C25.4825 15.4348 25.0295 13.7935 24.1834 12.3597Z" fill="#FF6058"/>
<path d="M16.0032 13.111L15.6328 17.0672L16.0032 21.2143C18.2425 21.2143 20.0643 19.3968 20.0643 17.1626C20.0643 14.9285 18.2425 13.111 16.0032 13.111Z" fill="#B9B9BE"/>
<path d="M11.9453 17.1626C11.9453 19.3968 13.7671 21.2143 16.0064 21.2143V13.111C13.7671 13.111 11.9453 14.9285 11.9453 17.1626Z" fill="#D3D3D8"/>
<path d="M14.1093 17.608C14.1498 17.7517 14.2063 17.8863 14.2758 18.0107L15.9022 17.5005L17.4373 16.1896C17.364 16.0674 17.2755 15.9514 17.171 15.8444L12.1657 10.7223L14.1093 17.608Z" fill="#474F54"/>
<path d="M16.7997 18.7222C17.7028 18.202 17.9424 17.0244 17.4421 16.1902L14.2806 18.0112C14.7546 18.8606 15.9124 19.2333 16.7997 18.7222Z" fill="#5A5F64"/>
</svg>
