<svg width="32" height="33" viewBox="0 0 32 33" fill="none" xmlns="http://www.w3.org/2000/svg">
<ellipse cx="16" cy="16.5775" rx="16" ry="15.9627" fill="#CCE6FD"/>
<path d="M2.71875 25.3423H29.5588C29.5588 25.3423 27.4952 28.5107 24.4166 30.3279C20.3817 32.7095 16.7477 32.607 16.7477 32.607C16.7477 32.607 12.4643 32.846 8.53059 30.6918C4.59691 28.5375 2.71875 25.3423 2.71875 25.3423Z" fill="#AEBF3E"/>
<path d="M7.15625 17.8196H9.37847V23.3622H7.15625V17.8196Z" fill="#819ABC"/>
<path d="M6.60156 16.7109H7.71267V24.4706H6.60156V16.7109Z" fill="#95B0D1"/>
<path d="M22.7891 17.8196H25.0113V23.3622H22.7891V17.8196Z" fill="#39577D"/>
<path d="M24.4531 16.7109H25.5642V24.4706H24.4531V16.7109Z" fill="#29476F"/>
<path d="M13.3047 12.8311H18.8602V16.1566H13.3047V12.8311Z" fill="#819ABC"/>
<path d="M21.0796 16.7111V15.6025H11.0796V16.7111H8.82031V24.4707H11.0796V25.5792H21.0796V24.4707H23.3388V16.7111H21.0796Z" fill="#6E87A6"/>
<path d="M12.1953 12.2769H19.9731V13.3854H12.1953V12.2769Z" fill="#95B0D1"/>
<path d="M23.3452 16.7111V24.4707H21.0859V25.5792H16.0859V15.6025H21.0859V16.7111H23.3452Z" fill="#4A678C"/>
<path d="M16.0804 20.0364H15.8682L16.0804 19.6131L16.5773 18.6215L16.0804 18.3736L15.5834 18.1257L14.0703 21.1449H16.0804H16.2925L16.0804 21.5682L15.5834 22.5598L16.0804 22.8077L16.5773 23.0556L18.0905 20.0364H16.0804Z" fill="#FED843"/>
<path d="M16.5829 18.6217L16.0859 18.3738V19.6133L16.5829 18.6217Z" fill="#FABE2C"/>
<path d="M18.096 20.0366H16.0859V21.1451H16.2981L16.0859 21.5684V22.8079L16.5829 23.0558L18.096 20.0366Z" fill="#FABE2C"/>
</svg>