<svg width="32" height="33" viewBox="0 0 32 33" fill="none" xmlns="http://www.w3.org/2000/svg">
<ellipse cx="16" cy="16.5775" rx="16" ry="15.9627" fill="#CCE6FD"/>
<path d="M2.71875 25.3423H29.5588C29.5588 25.3423 27.4952 28.5107 24.4166 30.3279C20.3817 32.7095 16.7477 32.607 16.7477 32.607C16.7477 32.607 12.4643 32.846 8.53059 30.6918C4.59691 28.5375 2.71875 25.3423 2.71875 25.3423Z" fill="#AEBF3E"/>
<path d="M9.63281 8.44067H21.1087V9.5492H9.63281V8.44067Z" fill="#41567F"/>
<path d="M13.4531 8.44067H21.1039V9.5492H13.4531V8.44067Z" fill="#293E65"/>
<path d="M6.60938 12.238L7.71156 12.1006L8.90731 21.6443L7.80512 21.7817L6.60938 12.238Z" fill="#41567F"/>
<path d="M17.4062 23.949L23.4878 15.0473L24.4056 15.6713L18.324 24.5731L17.4062 23.949Z" fill="#293E65"/>
<path d="M13.4528 16.0735C10.3343 16.0735 7.79688 18.605 7.79688 21.7166C7.79688 24.8279 10.3343 27.3593 13.4528 27.3593C16.5717 27.3593 19.1091 24.8279 19.1091 21.7166C19.1091 18.605 16.5717 16.0735 13.4528 16.0735V16.0735Z" fill="#CDDCEB"/>
<path d="M19.1094 21.7166C19.1094 24.8279 16.572 27.3593 13.4531 27.3593V16.0735C16.572 16.0735 19.1094 18.605 19.1094 21.7166V21.7166Z" fill="#AFC8DB"/>
<path d="M13.4571 18.6179C11.7445 18.6179 10.3516 20.008 10.3516 21.7166C10.3516 23.4248 11.7445 24.8149 13.4571 24.8149C15.1697 24.8149 16.563 23.4248 16.563 21.7166C16.563 20.008 15.1697 18.6179 13.4571 18.6179V18.6179Z" fill="#EFF3F7"/>
<path d="M21.1075 17.1821C18.6918 17.1821 16.7266 15.2214 16.7266 12.8114C16.7266 10.4014 18.6918 8.44067 21.1075 8.44067C23.5232 8.44067 25.4885 10.4014 25.4885 12.8114C25.4885 15.2215 23.5232 17.1821 21.1075 17.1821V17.1821Z" fill="#AFC8DB"/>
<path d="M21.1041 14.6377C20.0947 14.6377 19.2734 13.8184 19.2734 12.8113C19.2734 11.8042 20.0947 10.9849 21.1041 10.9849C22.1135 10.9849 22.9348 11.8042 22.9348 12.8113C22.9348 13.8184 22.1135 14.6377 21.1041 14.6377V14.6377Z" fill="#293E65"/>
<path d="M9.62925 14.6378C7.9167 14.6378 6.52344 13.2478 6.52344 11.5393C6.52344 9.83069 7.9167 8.44067 9.62925 8.44067C11.3418 8.44067 12.735 9.83069 12.735 11.5393C12.7351 13.2478 11.3418 14.6378 9.62925 14.6378Z" fill="#FDBD00"/>
<path d="M9.07812 10.9851H10.1892V12.0936H9.07812V10.9851Z" fill="#41567F"/>
<path d="M16.5591 21.7166C16.5591 23.4248 15.1657 24.8149 13.4531 24.8149V18.6179C15.1657 18.6179 16.5591 20.008 16.5591 21.7166V21.7166Z" fill="#CDDCEB"/>
</svg>
