<svg width="33" height="33" viewBox="0 0 33 33" fill="none" xmlns="http://www.w3.org/2000/svg">
<ellipse cx="16.5" cy="16.5369" rx="16" ry="15.9627" fill="#CCE6FD"/>
<path d="M3.21875 25.3018H30.0588C30.0588 25.3018 27.9952 28.4702 24.9166 30.2874C20.8817 32.669 17.2477 32.5665 17.2477 32.5665C17.2477 32.5665 12.9643 32.8054 9.03059 30.6512C5.09691 28.497 3.21875 25.3018 3.21875 25.3018Z" fill="#AEBF3E"/>
<path d="M8.03555 16.3608H20.8115C20.9649 16.3608 21.0893 16.4888 21.0893 16.6466V23.2181H8.03555C7.88215 23.2181 7.75781 23.0902 7.75781 22.9324V16.6466C7.75781 16.4888 7.88215 16.3608 8.03555 16.3608Z" fill="#96C3F0"/>
<path d="M21.1138 23.3023H8.03606C7.88238 23.3023 7.75781 23.1515 7.75781 22.9655V21.9553H21.1138V23.3023Z" fill="#7DA5D7"/>
<path d="M25.4026 20.7478L24.9253 20.2716L24.1377 17.9144H24.2502C24.4367 17.9144 24.5878 17.7636 24.5878 17.5777C24.5878 17.3917 24.4367 17.241 24.2502 17.241H21.2125C21.0261 17.241 20.875 17.3917 20.875 17.5777V24.3124L25.2628 24.3126C25.4492 24.3126 25.6003 24.1618 25.6003 23.9758V21.2241C25.6003 21.0454 25.5292 20.8741 25.4026 20.7478Z" fill="#DBD9DC"/>
<path d="M20.875 24.3124H25.2628C25.4492 24.3124 25.6003 24.1617 25.6003 23.9757V23.3022H20.875V24.3124Z" fill="#C9C6CA"/>
<path d="M21.5469 18.2513V19.935C21.5469 20.1209 21.698 20.2717 21.8844 20.2717H24.9221L24.1346 17.9146H21.8844C21.698 17.9145 21.5469 18.0653 21.5469 18.2513Z" fill="#C9C6CA"/>
<path d="M22.2266 18.9246V19.9348C22.2266 20.1208 22.3777 20.2716 22.5641 20.2716H24.9267L24.3642 18.5879H22.5641C22.3777 18.5878 22.2266 18.7386 22.2266 18.9246Z" fill="#5D5360"/>
<path d="M24.3642 18.5879H22.5641C22.3777 18.5879 22.2266 18.7386 22.2266 18.9246V19.2614H24.5892L24.3642 18.5879Z" fill="#4B3F4E"/>
<path d="M22.228 24.6492H8.872C8.71832 24.6492 8.59375 24.4984 8.59375 24.3124V23.3022H22.228V24.6492Z" fill="#6F6571"/>
<path d="M22.225 25.9962C22.9706 25.9962 23.575 25.3932 23.575 24.6493C23.575 23.9055 22.9706 23.3025 22.225 23.3025C21.4794 23.3025 20.875 23.9055 20.875 24.6493C20.875 25.3932 21.4794 25.9962 22.225 25.9962Z" fill="#4B3F4E"/>
<path d="M22.2297 25.3225C22.6025 25.3225 22.9048 25.021 22.9048 24.6491C22.9048 24.2771 22.6025 23.9756 22.2297 23.9756C21.8569 23.9756 21.5547 24.2771 21.5547 24.6491C21.5547 25.021 21.8569 25.3225 22.2297 25.3225Z" fill="#6F6571"/>
<path d="M13.4672 25.9962C14.2128 25.9962 14.8172 25.3932 14.8172 24.6493C14.8172 23.9055 14.2128 23.3025 13.4672 23.3025C12.7216 23.3025 12.1172 23.9055 12.1172 24.6493C12.1172 25.3932 12.7216 25.9962 13.4672 25.9962Z" fill="#4B3F4E"/>
<path d="M13.4641 25.3225C13.8369 25.3225 14.1391 25.021 14.1391 24.6491C14.1391 24.2771 13.8369 23.9756 13.4641 23.9756C13.0913 23.9756 12.7891 24.2771 12.7891 24.6491C12.7891 25.021 13.0913 25.3225 13.4641 25.3225Z" fill="#6F6571"/>
<path d="M10.7641 25.9962C11.5096 25.9962 12.1141 25.3932 12.1141 24.6493C12.1141 23.9055 11.5096 23.3025 10.7641 23.3025C10.0185 23.3025 9.41406 23.9055 9.41406 24.6493C9.41406 25.3932 10.0185 25.9962 10.7641 25.9962Z" fill="#4B3F4E"/>
<path d="M10.7688 25.3225C11.1416 25.3225 11.4438 25.021 11.4438 24.6491C11.4438 24.2771 11.1416 23.9756 10.7688 23.9756C10.396 23.9756 10.0938 24.2771 10.0938 24.6491C10.0938 25.021 10.396 25.3225 10.7688 25.3225Z" fill="#6F6571"/>
<path d="M25.6063 22.6286H24.9313C24.7449 22.6286 24.5938 22.4779 24.5938 22.2919V21.9551C24.5938 21.7692 24.7449 21.6184 24.9313 21.6184H25.6063V22.6286Z" fill="#FAEBC8"/>
<path d="M18.2062 26.422H17.6484V14.7369L18.2062 14.4226L18.485 21.4141L18.2062 26.422Z" fill="#E6F2FF"/>
<path d="M18.7609 26.422H18.2031V14.4226L18.7609 14.7369V26.422Z" fill="#CCE6FF"/>
<path d="M14.8594 8.05981H21.5522V14.737H14.8594V8.05981Z" fill="#FFDD70"/>
<path d="M18.2031 8.05981H21.5495V14.737H18.2031V8.05981Z" fill="#F8C045"/>
<path d="M16.0156 10.2854H17.0939V11.3983H16.0156V10.2854Z" fill="#405580"/>
<path d="M17.0938 11.3984H18.2092V12.5113H17.0938V11.3984Z" fill="#405580"/>
<path d="M18.2031 10.2854H19.3186V11.3983H18.2031V10.2854Z" fill="#283D66"/>
<path d="M19.3203 11.3984H20.4358V12.5113H19.3203V11.3984Z" fill="#283D66"/>
<path d="M17.0938 9.17261H18.2092V10.2855H17.0938V9.17261Z" fill="#405580"/>
<path d="M18.2031 12.5112H19.3186V13.6241H18.2031V12.5112Z" fill="#283D66"/>
</svg>
