<svg width="32" height="33" viewBox="0 0 32 33" fill="none" xmlns="http://www.w3.org/2000/svg">
<ellipse cx="16" cy="16.5775" rx="16" ry="15.9627" fill="#CCE6FD"/>
<path d="M2.71875 25.3423H29.5588C29.5588 25.3423 27.4952 28.5107 24.4166 30.3279C20.3817 32.7095 16.7477 32.607 16.7477 32.607C16.7477 32.607 12.4643 32.846 8.53059 30.6918C4.59691 28.5375 2.71875 25.3423 2.71875 25.3423Z" fill="#AEBF3E"/>
<path d="M7.54336 16.4014H20.3194C20.4727 16.4014 20.5971 16.5293 20.5971 16.6871V23.2587H7.54336C7.38996 23.2587 7.26562 23.1308 7.26562 22.9729V16.6871C7.26562 16.5293 7.38996 16.4014 7.54336 16.4014Z" fill="#96C3F0"/>
<path d="M20.3828 24.353H24.7706C24.957 24.353 25.1081 24.2022 25.1081 24.0162V23.3428H20.3828V24.353Z" fill="#C9C6CA"/>
<path d="M21.0547 18.2918V19.9755C21.0547 20.1615 21.2058 20.3122 21.3922 20.3122H24.4299L23.6424 17.9551H21.3922C21.2058 17.955 21.0547 18.1058 21.0547 18.2918Z" fill="#C9C6CA"/>
<path d="M21.7344 18.9652V19.9754C21.7344 20.1613 21.8855 20.3121 22.0719 20.3121H24.4345L23.872 18.6284H22.0719C21.8855 18.6284 21.7344 18.7791 21.7344 18.9652Z" fill="#5D5360"/>
<path d="M21.7328 26.0367C22.4784 26.0367 23.0828 25.4337 23.0828 24.6899C23.0828 23.946 22.4784 23.343 21.7328 23.343C20.9872 23.343 20.3828 23.946 20.3828 24.6899C20.3828 25.4337 20.9872 26.0367 21.7328 26.0367Z" fill="#4B3F4E"/>
<path d="M21.7375 25.363C22.1104 25.363 22.4126 25.0615 22.4126 24.6896C22.4126 24.3176 22.1104 24.0161 21.7375 24.0161C21.3647 24.0161 21.0625 24.3176 21.0625 24.6896C21.0625 25.0615 21.3647 25.363 21.7375 25.363Z" fill="#6F6571"/>
<path d="M25.1141 22.6691H24.4391C24.2527 22.6691 24.1016 22.5184 24.1016 22.3324V21.9957C24.1016 21.8097 24.2527 21.6589 24.4391 21.6589H25.1141V22.6691Z" fill="#FAEBC8"/>
<path d="M11.2037 16.4014H7.625L7.81827 18.8721L8.16181 19.5862L11.2037 19.2324L14.3029 18.8721L14.6536 18.158L14.7824 16.4014H11.2037Z" fill="#F2F9FF"/>
<path d="M14.653 18.158L14.7818 16.4014H11.2031V19.2324L14.3023 18.8721L14.653 18.158Z" fill="#DFE7F4"/>
<path d="M11.8728 19.5796L11.1641 19.4785L11.9668 13.8499H15.1401V14.5639H12.5875L11.8728 19.5796Z" fill="#474F54"/>
<path d="M14.2971 18.1582C12.6065 18.165 11.8723 18.3352 11.1979 18.5061C10.3039 18.7323 9.69528 18.8587 8.15603 18.8723H7.8125L8.3636 26.0368H11.1979H14.0537L14.6478 18.1582H14.2971Z" fill="#FFD480"/>
<path d="M14.6452 18.158H14.2945C12.6039 18.1648 11.8697 18.3349 11.1953 18.5059V26.0366H14.0511L14.6452 18.158Z" fill="#FABE2C"/>
<path d="M9.76562 20.3003H10.4814V21.0144H9.76562V20.3003Z" fill="#F2F9FF"/>
<path d="M9.76562 23.1565H10.4814V23.8706H9.76562V23.1565Z" fill="#F2F9FF"/>
<path d="M11.9141 20.3003H12.6298V21.0144H11.9141V20.3003Z" fill="#DFE7F4"/>
<path d="M10.8438 21.7285H11.5595V22.4426H10.8438V21.7285Z" fill="#F2F9FF"/>
<path d="M11.1953 21.7285H11.5532V22.4426H11.1953V21.7285Z" fill="#DFE7F4"/>
<path d="M11.2007 16.0159H6.90625V16.7299H11.2007H15.4951V16.0159H11.2007Z" fill="#DFE7F4"/>
<path d="M11.2031 16.0159H15.4976V16.7299H11.2031V16.0159Z" fill="#C7CFE1"/>
<path d="M13.8368 13.1357C12.9209 13.1357 12.1265 13.6342 11.6896 14.3682C11.2526 13.6342 10.4583 13.1357 9.54236 13.1357H8.46875V13.4928C8.46875 14.8707 9.59268 16.0158 10.9738 16.0158H11.6896H12.4053C13.7865 16.0158 14.9104 14.8707 14.9104 13.4928V13.1357H13.8368Z" fill="#A9E62E"/>
<path d="M14.9083 13.4928V13.1357H13.8347C12.9188 13.1357 12.1244 13.6342 11.6875 14.3682V16.0158H12.4032C13.7844 16.0158 14.9083 14.8707 14.9083 13.4928Z" fill="#7BCC29"/>
<path d="M12.3868 16.0176H11.6697H11.6641L11.9732 13.8499H15.1465V14.5639H12.5939L12.3868 16.0176Z" fill="#474F54"/>
</svg>
