<svg width="33" height="33" viewBox="0 0 33 33" fill="none" xmlns="http://www.w3.org/2000/svg">
<ellipse cx="16.5" cy="16.5928" rx="16" ry="15.9627" fill="#CCE6FD"/>
<path d="M3.21875 25.3575H30.0588C30.0588 25.3575 27.9952 28.526 24.9166 30.3432C20.8817 32.7248 17.2477 32.6223 17.2477 32.6223C17.2477 32.6223 12.9643 32.8612 9.03059 30.707C5.09691 28.5528 3.21875 25.3575 3.21875 25.3575Z" fill="#AEBF3E"/>
<path d="M7.02344 17.1781C7.02344 18.432 7.26588 19.6506 7.74407 20.8001L7.95703 21.312L11.722 19.7533L11.5086 19.2412C11.2216 18.5523 11.0837 17.8215 11.0986 17.069C11.1172 16.1342 11.3774 15.2344 11.8471 14.4432L10.38 12.9948L8.33073 12.3785C7.47847 13.8177 7.02344 15.4632 7.02344 17.1781H7.02344Z" fill="#7BC5B0"/>
<path d="M23.2082 10.4699C21.4221 8.69517 19.0448 7.71875 16.5114 7.71875C16.5113 7.71875 16.5111 7.71875 16.511 7.71875L16.1406 9.62984L16.511 11.7836C17.9247 11.7834 19.2566 12.3217 20.2764 13.3101C20.629 13.6519 20.9285 14.0322 21.1716 14.4416L23.5353 13.6407L24.6909 12.3752C24.285 11.6874 23.7891 11.0471 23.2082 10.4699Z" fill="#FF7A63"/>
<path d="M16.4849 7.71879C13.9576 7.72536 11.5826 8.71224 9.79742 10.4976C9.22594 11.0692 8.73712 11.7011 8.33594 12.3785L11.8523 14.4432C12.0785 14.0624 12.3528 13.7067 12.6726 13.3847C13.6568 12.3935 14.963 11.8257 16.3505 11.7857C16.4038 11.7841 16.457 11.7836 16.5102 11.7836V7.71875C16.5018 7.71875 16.4933 7.71875 16.4849 7.71879Z" fill="#FDD278"/>
<path d="M24.6756 12.3751L21.1562 14.4415C21.6433 15.2617 21.9031 16.1988 21.9031 17.1781C21.9031 17.8933 21.7644 18.5882 21.491 19.2437L21.2782 19.7537L25.0357 21.3284L25.2501 20.8155C25.7344 19.6572 25.979 18.4288 25.9772 17.1643C25.9747 15.4502 25.5217 13.8089 24.6756 12.3751Z" fill="#FF6058"/>
<path d="M16.511 13.1265L16.1406 17.0827L16.511 21.2298C18.7503 21.2298 20.5721 19.4123 20.5721 17.1782C20.5721 14.944 18.7503 13.1265 16.511 13.1265Z" fill="#B9B9BE"/>
<path d="M12.4531 17.1782C12.4531 19.4123 14.2749 21.2298 16.5142 21.2298V13.1265C14.2749 13.1265 12.4531 14.944 12.4531 17.1782Z" fill="#D3D3D8"/>
<path d="M16.9516 15.4146C16.8065 15.3777 16.6615 15.3592 16.5188 15.3571L16.1484 17.0174L16.5188 18.9992C16.6615 18.997 16.8065 18.9785 16.9516 18.9417L23.9005 17.1781L16.9516 15.4146Z" fill="#474F54"/>
<path d="M14.6406 17.1782C14.6406 18.2185 15.543 19.0144 16.5173 18.9993V15.3571C15.5431 15.342 14.6406 16.1561 14.6406 17.1782Z" fill="#5A5F64"/>
</svg>