<svg width="33" height="33" viewBox="0 0 33 33" fill="none" xmlns="http://www.w3.org/2000/svg">
<ellipse cx="16.5" cy="16.5369" rx="16" ry="15.9627" fill="#CCE6FD"/>
<path d="M3.21875 25.3016H30.0588C30.0588 25.3016 27.9952 28.4701 24.9166 30.2872C20.8817 32.6689 17.2477 32.5664 17.2477 32.5664C17.2477 32.5664 12.9643 32.8053 9.03059 30.6511C5.09691 28.4969 3.21875 25.3016 3.21875 25.3016Z" fill="#AEBF3E"/>
<path d="M23.8656 22.2299C23.8656 23.4739 22.8513 24.4859 21.6043 24.4859H12.125V23.3791H21.6043C22.2396 23.3791 22.7562 22.8637 22.7562 22.2299C22.7562 21.5959 22.2396 21.0802 21.6043 21.0802H18.1053C18.0716 21.0802 18.0383 21.0795 18.0051 21.078C16.7393 21.0256 15.726 19.9819 15.726 18.7068C15.726 17.4319 16.7393 16.3882 18.0051 16.3358C18.0383 16.3343 18.0716 16.3336 18.1053 16.3336H22.0584V17.4404H18.1053C18.0716 17.4404 18.0383 17.4419 18.0051 17.4444C17.3517 17.4953 16.8355 18.042 16.8355 18.7068C16.8355 19.3717 17.3517 19.9184 18.0051 19.9694C18.0383 19.972 18.0716 19.9734 18.1053 19.9734H21.6043C22.8513 19.9734 23.8656 20.9858 23.8656 22.2299Z" fill="#305895"/>
<path d="M18.1081 17.4404C18.0744 17.4404 18.0411 17.4419 18.0078 17.4444V16.3358C18.0411 16.3343 18.0744 16.3336 18.1081 16.3336H22.0612V17.4404H18.1081Z" fill="#1B3558"/>
<path d="M23.8683 22.23C23.8683 23.474 22.854 24.486 21.6071 24.486H18.0078V23.3792H21.6071C22.2423 23.3792 22.759 22.8638 22.759 22.23C22.759 21.596 22.2423 21.0803 21.6071 21.0803H18.1081C18.0744 21.0803 18.0411 21.0796 18.0078 21.0781V19.9695C18.0411 19.9721 18.0744 19.9735 18.1081 19.9735H21.6071C22.854 19.9735 23.8683 20.9859 23.8683 22.23Z" fill="#1B3558"/>
<path d="M14.8213 17.08C14.8213 17.9906 14.4991 18.8755 13.9145 19.5733L10.9222 23.3318L7.92983 19.5733C7.3452 18.8755 7.02344 17.9906 7.02344 17.08C7.02344 14.9354 8.77257 13.1903 10.9222 13.1903C13.0722 13.1903 14.8213 14.9354 14.8213 17.08Z" fill="#FC4A48"/>
<path d="M14.821 17.08C14.821 17.9906 14.4988 18.8755 13.9142 19.5733L10.9219 23.3318V13.1903C13.0719 13.1903 14.821 14.9354 14.821 17.08Z" fill="#FC1C5C"/>
<path d="M12.9693 17.0799C12.9693 18.2085 12.0493 19.1265 10.9181 19.1265C9.78733 19.1265 8.86719 18.2085 8.86719 17.0799C8.86719 15.9518 9.78733 15.0339 10.9181 15.0339C12.0493 15.0339 12.9693 15.9518 12.9693 17.0799Z" fill="white"/>
<path d="M12.7863 23.4399C12.7863 24.4667 11.9494 25.3015 10.9203 25.3015C9.89149 25.3015 9.05469 24.4667 9.05469 23.4399C9.05469 22.4136 9.89149 21.5786 10.9203 21.5786C11.9494 21.5786 12.7863 22.4136 12.7863 23.4399Z" fill="#8ADB53"/>
<path d="M12.7879 23.4399C12.7879 24.4667 11.951 25.3015 10.9219 25.3015V21.5786C11.951 21.5786 12.7879 22.4136 12.7879 23.4399Z" fill="#5DC277"/>
<path d="M10.9219 19.1265V15.0339C12.0531 15.0339 12.9731 15.9518 12.9731 17.0799C12.9731 18.2085 12.0531 19.1265 10.9219 19.1265Z" fill="#BDDFFF"/>
<path d="M25.9541 10.2725C25.9541 11.1829 25.6319 12.068 25.0473 12.7656L22.055 16.5243L19.0626 12.7656C18.478 12.068 18.1562 11.1829 18.1562 10.2725C18.1562 8.12787 19.9054 6.38281 22.055 6.38281C24.205 6.38281 25.9541 8.12787 25.9541 10.2725Z" fill="#FC4A48"/>
<path d="M25.9538 10.2725C25.9538 11.1829 25.6317 12.068 25.047 12.7656L22.0547 16.5243V6.38281C24.2047 6.38281 25.9538 8.12787 25.9538 10.2725Z" fill="#FC1C5C"/>
<path d="M24.11 10.2725C24.11 11.4011 23.19 12.3189 22.0587 12.3189C20.928 12.3189 20.0078 11.4011 20.0078 10.2725C20.0078 9.14431 20.928 8.22632 22.0587 8.22632C23.19 8.22632 24.11 9.14431 24.11 10.2725Z" fill="white"/>
<path d="M23.9269 16.6325C23.9269 17.6592 23.09 18.4942 22.0609 18.4942C21.0321 18.4942 20.1953 17.6592 20.1953 16.6325C20.1953 15.6061 21.0321 14.7712 22.0609 14.7712C23.09 14.7712 23.9269 15.6061 23.9269 16.6325Z" fill="#8ADB53"/>
<path d="M23.9207 16.6325C23.9207 17.6592 23.0838 18.4942 22.0547 18.4942V14.7712C23.0838 14.7712 23.9207 15.6061 23.9207 16.6325Z" fill="#5DC277"/>
<path d="M22.0547 12.3189V8.22632C23.1859 8.22632 24.1059 9.14431 24.1059 10.2725C24.1059 11.4011 23.1859 12.3189 22.0547 12.3189Z" fill="#BDDFFF"/>
</svg>