<svg width="592" height="145" viewBox="0 0 592 145" fill="none" xmlns="http://www.w3.org/2000/svg">
<path d="M2.16214 94.1675C1.77779 94.1981 1.3927 94.1178 1.05481 93.9368C0.716916 93.7557 0.441133 93.4818 0.26178 93.1492C0.0797296 92.7843 -0.00975594 92.3821 0.000842929 91.9765C0.0114418 91.5709 0.121815 91.1736 0.322689 90.8182L37.8621 16.1098C38.245 15.2635 38.8876 14.5537 39.7015 14.0778C40.4767 13.613 41.369 13.3665 42.2792 13.3657H49.1497C49.9843 13.3717 50.7891 13.669 51.418 14.2036C51.7441 14.4472 52.0158 14.753 52.2165 15.1024C52.4171 15.4518 52.5425 15.8374 52.585 16.2356L63.1344 91.1814C63.1901 91.5665 63.1585 91.9588 63.0419 92.3307C62.9253 92.7027 62.7266 93.0453 62.4596 93.3344C62.1836 93.6148 61.8494 93.8346 61.4792 93.9791C61.109 94.1236 60.7115 94.1895 60.3131 94.1723H55.1627C54.3275 94.1654 53.5223 93.8683 52.892 93.3344C52.5665 93.0902 52.2952 92.7843 52.0946 92.435C51.894 92.0857 51.7683 91.7004 51.725 91.3024L49.2716 72.4147H21.1755L11.7322 91.5374C11.4065 92.3322 10.8252 93.0026 10.0754 93.4483C9.32467 93.9155 8.45194 94.1627 7.56111 94.1604L2.16214 94.1675ZM25.7168 62.8461H48.1679L44.9787 37.865C44.4037 33.8787 43.9977 29.5356 43.7605 24.8356C40.6533 32.0865 38.7319 36.4297 37.9961 37.865L25.7168 62.8461ZM76.1495 94.1675C75.7545 94.2174 75.3541 94.131 75.0176 93.9233C74.6812 93.7156 74.43 93.3998 74.3076 93.0305C74.2021 92.5951 74.2139 92.1405 74.342 91.7108C74.4701 91.2812 74.71 90.8911 75.0385 90.5785L98.1035 62.4806L86.3261 35.9518C86.1249 35.5965 86.0141 35.1994 86.003 34.7938C85.992 34.3882 86.0811 33.9859 86.2628 33.6208C86.4636 33.2793 86.7618 33.0018 87.1211 32.8219C87.4804 32.6421 87.8855 32.5675 88.2874 32.6072H93.6863C94.5994 32.5873 95.4975 32.8354 96.264 33.3193C97.0305 33.839 97.5924 34.5975 97.8574 35.4699L105.956 53.5103L120.925 35.2325C121.453 34.4303 122.179 33.7695 123.037 33.3102C123.894 32.8509 124.856 32.6076 125.834 32.6024H130.617C131.011 32.5539 131.41 32.6325 131.754 32.8263C132.097 33.0201 132.366 33.3184 132.519 33.6754C132.648 34.0867 132.664 34.5235 132.567 34.9429C132.47 35.3623 132.263 35.75 131.966 36.0681L110.853 62.0058L123.98 90.8135C124.143 91.1711 124.227 91.558 124.227 91.9493C124.227 92.3405 124.143 92.7274 123.98 93.0851C123.77 93.4636 123.445 93.7699 123.051 93.9627C122.656 94.1555 122.21 94.2253 121.773 94.1628H116.259C115.344 94.1656 114.452 93.8908 113.704 93.3765C112.957 92.8622 112.393 92.134 112.091 91.2929L103.008 70.9762L86.0776 91.6561C85.5801 92.4233 84.8919 93.0557 84.0767 93.4947C83.2616 93.9338 82.3458 94.1652 81.4144 94.1675H76.1495ZM140.681 91.0579L155.158 10.3724C155.281 9.51453 155.68 8.71672 156.298 8.09361C156.916 7.47051 157.72 7.05417 158.596 6.90443L163.381 5.82675C165.833 5.42796 166.856 6.46449 166.448 8.93634L151.718 91.0579C151.563 91.9175 151.109 92.6987 150.432 93.2703C149.778 93.8513 148.924 94.1716 148.039 94.1675H143.127C142.74 94.1926 142.352 94.1238 141.999 93.9672C141.646 93.8106 141.338 93.5712 141.103 93.2703C140.876 92.9512 140.721 92.5895 140.647 92.2084C140.574 91.8273 140.583 91.4354 140.674 91.0579M174.539 69.184L176.871 56.3943C177.399 53.3243 178.327 50.3322 179.631 47.4905C180.985 44.4956 182.852 41.7471 185.152 39.3628C187.582 36.8632 190.475 34.8343 193.679 33.3834C197.215 31.7917 201.073 30.995 204.967 31.0524C207.406 31.0652 209.827 31.4488 212.145 32.1894C214.454 32.892 216.6 34.03 218.46 35.5387C221.335 37.9513 223.252 41.2681 223.88 44.9139C224.508 48.5598 223.807 52.3048 221.897 55.4995C220.266 57.9977 218.032 60.0686 215.39 61.5311C211.867 63.4478 208.06 64.8188 204.105 65.5949C198.084 66.7965 191.973 67.5157 185.832 67.7455L185.462 70.1359C183.417 80.7385 187.425 86.0399 197.487 86.0399C202.108 85.9577 206.694 85.2328 211.104 83.8869C211.91 83.6376 212.782 83.6806 213.558 84.008C213.879 84.1641 214.152 84.402 214.347 84.6965C214.541 84.9911 214.651 85.3313 214.664 85.6814L214.907 89.6242C215.003 90.4486 214.783 91.2783 214.291 91.9552C213.787 92.6422 213.047 93.1299 212.205 93.3296C206.907 94.8713 201.411 95.6737 195.882 95.7128C192.383 95.7731 188.907 95.1642 185.649 93.9207C182.776 92.8054 180.242 90.995 178.286 88.6605C176.299 86.2085 174.971 83.3121 174.422 80.2337C173.77 76.5717 173.812 72.8241 174.547 69.1769M187.174 59.8695C192.508 59.7254 197.803 58.9425 202.94 57.5385C205.97 56.8726 208.752 55.4047 210.98 53.2966C212.175 51.9683 212.864 50.2789 212.929 48.5136C212.989 47.4274 212.787 46.3427 212.34 45.3461C211.893 44.3494 211.213 43.4685 210.354 42.7739C208.334 41.3278 205.862 40.6104 203.359 40.7443C200.693 40.7331 198.085 41.5031 195.875 42.9543C193.606 44.4065 191.783 46.4301 190.6 48.8103C189.434 51.0678 188.568 53.4608 188.022 55.9315L187.174 59.8695ZM234.898 91.0579L241.525 54.0016C242.471 47.5716 245.706 41.6697 250.663 37.3262C255.631 33.1061 262.048 30.8652 268.636 31.05C270.28 31.0254 271.922 31.1462 273.543 31.4108C273.932 31.4789 274.303 31.6256 274.631 31.8414C274.958 32.0573 275.236 32.3375 275.446 32.6642C275.666 32.9862 275.807 33.3527 275.861 33.7359C275.914 34.1191 275.877 34.5091 275.753 34.8765L274.647 38.7006C274.568 39.0898 274.408 39.4592 274.178 39.7865C273.947 40.1137 273.651 40.3919 273.307 40.6042C272.963 40.8164 272.578 40.9583 272.176 41.0212C271.774 41.084 271.363 41.0666 270.968 40.9698L267.53 40.7325C263.89 40.6851 260.372 42.0121 257.714 44.4355C254.912 46.9461 253.091 50.3263 252.561 53.9993L245.937 91.0556C245.782 91.9151 245.327 92.6964 244.65 93.2679C243.996 93.8475 243.142 94.1676 242.258 94.1652H237.354C236.966 94.1902 236.579 94.1214 236.225 93.9648C235.872 93.8083 235.564 93.5688 235.329 93.2679C235.101 92.9494 234.946 92.5877 234.871 92.2065C234.797 91.8253 234.806 91.4332 234.898 91.0556M299.802 95.7128C297.017 95.7285 294.259 95.1788 291.704 94.0987C289.155 93.0119 286.906 91.3534 285.14 89.2587C283.202 86.8976 281.895 84.105 281.337 81.131C280.642 77.4139 280.664 73.6032 281.4 69.8938L283.73 56.7457C284.727 49.4996 288.254 42.8089 293.719 37.7985C298.971 33.2756 305.788 30.8622 312.795 31.0453C315.929 31.0864 319.021 31.7579 321.876 33.0178C324.944 34.2973 327.567 36.4143 329.428 39.1136C331.28 41.6867 332.459 44.6618 332.861 47.7801C333.232 50.7622 333.17 53.7802 332.678 56.7457L326.541 91.0508C326.421 91.9164 325.981 92.7095 325.304 93.2819C324.627 93.8542 323.759 94.1666 322.862 94.1604H319.549C319.107 94.1927 318.663 94.129 318.249 93.9739C317.835 93.8187 317.462 93.5759 317.156 93.2631C316.88 92.9201 316.677 92.526 316.561 92.1045C316.445 91.683 316.418 91.243 316.482 90.8111L316.725 87.9412C314.632 90.1925 312.137 92.0559 309.362 93.4412C306.414 94.9572 303.126 95.7377 299.792 95.7128M302.492 85.9093C307.482 85.9093 312.593 83.121 317.826 77.5443L321.51 57.3415C321.999 54.7181 322.06 52.0362 321.693 49.3942C321.407 46.9544 320.18 44.7118 318.26 43.1204C316.248 41.4952 313.695 40.6441 311.083 40.7277C309.143 40.7426 307.225 41.1363 305.444 41.8857C303.663 42.6351 302.055 43.7249 300.713 45.0906C297.415 48.451 295.291 52.74 294.642 57.3462L292.556 69.2956C291.901 72.4095 291.879 75.6186 292.493 78.7407C292.678 79.8654 293.101 80.9405 293.735 81.8975C294.37 82.8545 295.201 83.6727 296.177 84.2999C298.091 85.3971 300.279 85.9566 302.499 85.9164L302.492 85.9093ZM348.885 90.9393L357.963 40.6162H352.445C350.726 40.6162 349.744 39.6595 349.499 37.7463L349.255 35.477C349.196 35.1098 349.215 34.7346 349.31 34.3746C349.405 34.0146 349.575 33.6773 349.808 33.3834C350.044 33.1226 350.338 32.9175 350.667 32.7834C350.996 32.6494 351.353 32.5899 351.709 32.6096H359.439L362.139 18.0254C362.258 17.1339 362.668 16.3033 363.309 15.6569C363.95 15.0104 364.788 14.5824 365.698 14.4363L370.113 13.4868C370.567 13.3836 371.038 13.3784 371.494 13.4714C371.949 13.5645 372.379 13.7537 372.752 14.0256C373.076 14.3643 373.298 14.7828 373.396 15.2359C373.493 15.689 373.462 16.1594 373.305 16.5964L370.481 32.6143H379.929C380.245 32.5974 380.561 32.6475 380.856 32.761C381.15 32.8745 381.416 33.0488 381.635 33.2718C381.849 33.5277 382.003 33.8257 382.087 34.1454C382.171 34.4651 382.183 34.7988 382.122 35.1233L381.508 37.9932C381.483 38.3589 381.384 38.7163 381.217 39.0446C381.05 39.373 380.817 39.6659 380.533 39.9064C379.991 40.3703 379.292 40.6237 378.57 40.6185H369L359.924 90.9416C359.784 91.8546 359.302 92.6848 358.572 93.2726C357.891 93.8484 357.02 94.1668 356.119 94.1699H351.455C351.06 94.1904 350.665 94.1199 350.303 93.964C349.94 93.8081 349.621 93.5713 349.37 93.2726C349.121 92.9413 348.949 92.5614 348.865 92.1591C348.78 91.7567 348.787 91.3414 348.883 90.9416M387.528 69.184L389.86 56.3943C390.386 53.3238 391.314 50.3315 392.62 47.4905C393.974 44.4956 395.841 41.7471 398.141 39.3628C400.571 36.8632 403.464 34.8343 406.668 33.3834C410.203 31.7916 414.06 30.9949 417.953 31.0524C420.392 31.0647 422.814 31.4483 425.131 32.1894C427.442 32.8913 429.588 34.0294 431.448 35.5387C434.323 37.9513 436.241 41.2681 436.869 44.9139C437.497 48.5598 436.795 52.3048 434.886 55.4995C433.256 57.9981 431.024 60.0705 428.383 61.5358C424.861 63.4525 421.054 64.8235 417.098 65.5997C411.078 66.8012 404.966 67.5205 398.826 67.7503L398.455 70.1406C396.41 80.7433 400.418 86.0446 410.479 86.0446C415.1 85.9627 419.687 85.2377 424.098 83.8916C424.904 83.6424 425.775 83.6854 426.551 84.0127C426.873 84.1691 427.146 84.407 427.34 84.7015C427.535 84.996 427.644 85.3361 427.657 85.6862L427.901 89.629C427.995 90.4532 427.775 91.2824 427.285 91.96C426.78 92.6463 426.041 93.1339 425.199 93.3344C419.901 94.8783 414.405 95.6831 408.876 95.7247C405.377 95.7849 401.901 95.176 398.643 93.9325C395.77 92.8172 393.236 91.0069 391.28 88.6723C389.293 86.2204 387.965 83.324 387.416 80.2456C386.757 76.583 386.793 72.8338 387.523 69.184H387.528ZM400.161 59.8695C405.494 59.7254 410.789 58.9425 415.926 57.5385C418.957 56.8747 421.74 55.4056 423.966 53.2943C425.168 51.9696 425.862 50.2803 425.93 48.5136C425.99 47.4272 425.789 46.3421 425.341 45.3454C424.893 44.3486 424.212 43.4679 423.352 42.7739C421.334 41.3264 418.862 40.608 416.36 40.742C413.694 40.733 411.087 41.5037 408.876 42.9543C406.606 44.4057 404.783 46.4295 403.601 48.8103C402.435 51.0679 401.569 53.4609 401.023 55.9315L400.161 59.8695Z" fill="#00499B"/>
<path d="M536.262 10.8606L520.939 35.6946L489.329 35.6492C488.415 35.6518 487.521 35.8975 486.742 36.3598C485.963 36.822 485.33 37.4834 484.909 38.2726C484.488 39.0618 484.297 39.9489 484.355 40.8384C484.414 41.7279 484.72 42.5861 485.24 43.3205L510.807 78.983L491.035 78.9783C490.416 78.9743 489.808 78.8162 489.269 78.5191C488.729 78.222 488.275 77.7956 487.951 77.2805L467.477 44.8455C467.147 44.3177 466.962 43.7157 466.942 43.0986C466.921 42.4816 467.066 41.8707 467.361 41.3259L485.66 7.40435C485.954 6.83162 486.407 6.35133 486.967 6.01789C487.528 5.68446 488.173 5.5112 488.831 5.51776L533.12 5.46253C533.764 5.47027 534.395 5.64329 534.95 5.96419C535.505 6.28508 535.964 6.74253 536.281 7.29047C536.598 7.83842 536.761 8.45753 536.755 9.08548C536.75 9.71344 536.574 10.3281 536.247 10.8675" fill="#27529A"/>
<path d="M536.645 79.1423L510.843 79.0983L484.89 43.2617C484.363 42.5225 484.053 41.6573 483.994 40.7603C483.936 39.8633 484.131 38.9689 484.558 38.1745C484.985 37.3801 485.628 36.7163 486.416 36.2552C487.205 35.7942 488.109 35.5536 489.03 35.5598L521.082 35.6334L518.199 40.2473C517.834 40.8341 517.651 41.512 517.672 42.1994C517.693 42.8868 517.917 43.5545 518.317 44.1222L539.645 73.593C540.03 74.1261 540.256 74.752 540.3 75.4014C540.344 76.0509 540.203 76.6987 539.892 77.2734C539.582 77.848 539.114 78.327 538.541 78.6576C537.968 78.9881 537.312 79.1573 536.645 79.1464" fill="#FFCC6F"/>
<path d="M525.654 73.0306L516.442 61.0972C516.216 60.8484 515.901 60.6956 515.562 60.6716L507.912 60.3711C507.598 60.3601 507.475 60.527 507.652 60.7612L516.864 72.6945C517.09 72.9419 517.406 73.0939 517.744 73.1181L525.394 73.4186C525.708 73.4316 525.831 73.2627 525.655 73.041" fill="white"/>
<path d="M583.859 82.6489L555.726 38.0795C555.28 37.3638 554.653 36.7716 553.905 36.3599C553.158 35.9482 552.315 35.731 551.458 35.7292L520.936 35.7025L518.095 40.2892C517.734 40.8741 517.553 41.548 517.573 42.2315C517.593 42.915 517.813 43.5796 518.206 44.1469L539.214 73.4681C539.595 73.9979 539.819 74.619 539.863 75.2634C539.907 75.9079 539.768 76.5508 539.462 77.1221C539.156 77.6933 538.694 78.1707 538.128 78.5023C537.562 78.8338 536.912 79.0066 536.25 79.0018L510.804 78.9786L514.12 83.6301C514.649 84.4123 514.945 85.3215 514.975 86.2563C515.006 87.191 514.769 88.1146 514.293 88.9237L489.301 129.379C488.852 130.12 488.612 130.965 488.605 131.828C488.599 132.691 488.826 133.541 489.264 134.293C489.702 135.044 490.335 135.67 491.099 136.108C491.863 136.546 492.732 136.779 493.616 136.785L554.481 136.711C555.389 136.719 556.28 136.481 557.057 136.025C557.833 135.569 558.464 134.912 558.881 134.127L584.044 87.4976C584.416 86.7358 584.595 85.8967 584.564 85.0515C584.532 84.2063 584.292 83.3801 583.864 82.6431" fill="#00499B"/>
<path d="M1.26 130.008V117.048H9.18V119.496H3.708V122.304H8.1V124.752H3.708V130.008H1.26ZM14.6749 130.008V117.048H17.1229V130.008H14.6749ZM23.5111 130.008V117.048H25.9951L31.6291 125.688V117.048H34.1131V130.008H31.6291L25.9951 121.368V130.008H23.5111ZM43.3204 130.008V119.334H39.2344V117.048H49.8544V119.334H45.7684V130.008H43.3204ZM54.9907 130.008V117.048H63.4507V119.334H57.4387V122.106H62.3707V124.392H57.4387V127.722H63.4507V130.008H54.9907ZM74.4029 130.278C73.1069 130.278 71.9879 129.996 71.0459 129.432C70.1099 128.868 69.3869 128.079 68.8769 127.065C68.3729 126.051 68.1209 124.872 68.1209 123.528C68.1209 122.184 68.3729 121.005 68.8769 119.991C69.3869 118.977 70.1099 118.188 71.0459 117.624C71.9879 117.06 73.1069 116.778 74.4029 116.778C75.8909 116.778 77.1389 117.147 78.1469 117.885C79.1609 118.623 79.8749 119.622 80.2889 120.882L77.8229 121.566C77.5829 120.78 77.1779 120.171 76.6079 119.739C76.0379 119.301 75.3029 119.082 74.4029 119.082C73.5809 119.082 72.8939 119.265 72.3419 119.631C71.7959 119.997 71.3849 120.513 71.1089 121.179C70.8329 121.845 70.6949 122.628 70.6949 123.528C70.6949 124.428 70.8329 125.211 71.1089 125.877C71.3849 126.543 71.7959 127.059 72.3419 127.425C72.8939 127.791 73.5809 127.974 74.4029 127.974C75.3029 127.974 76.0379 127.755 76.6079 127.317C77.1779 126.879 77.5829 126.27 77.8229 125.49L80.2889 126.174C79.8749 127.434 79.1609 128.433 78.1469 129.171C77.1389 129.909 75.8909 130.278 74.4029 130.278ZM85.9605 130.008V117.048H88.4085V122.376H94.2045V117.048H96.6525V130.008H94.2045V124.662H88.4085V130.008H85.9605ZM110.163 130.008V117.048H118.083V119.496H112.611V122.304H117.003V124.752H112.611V130.008H110.163ZM128.96 130.278C127.664 130.278 126.545 129.996 125.603 129.432C124.667 128.868 123.944 128.079 123.434 127.065C122.93 126.051 122.678 124.872 122.678 123.528C122.678 122.184 122.93 121.005 123.434 119.991C123.944 118.977 124.667 118.188 125.603 117.624C126.545 117.06 127.664 116.778 128.96 116.778C130.256 116.778 131.372 117.06 132.308 117.624C133.25 118.188 133.973 118.977 134.477 119.991C134.987 121.005 135.242 122.184 135.242 123.528C135.242 124.872 134.987 126.051 134.477 127.065C133.973 128.079 133.25 128.868 132.308 129.432C131.372 129.996 130.256 130.278 128.96 130.278ZM128.96 127.974C129.782 127.986 130.466 127.809 131.012 127.443C131.558 127.077 131.966 126.558 132.236 125.886C132.512 125.214 132.65 124.428 132.65 123.528C132.65 122.628 132.512 121.848 132.236 121.188C131.966 120.528 131.558 120.015 131.012 119.649C130.466 119.283 129.782 119.094 128.96 119.082C128.138 119.07 127.454 119.247 126.908 119.613C126.362 119.979 125.951 120.498 125.675 121.17C125.405 121.842 125.27 122.628 125.27 123.528C125.27 124.428 125.405 125.208 125.675 125.868C125.951 126.528 126.362 127.041 126.908 127.407C127.454 127.773 128.138 127.962 128.96 127.974ZM140.728 130.008V117.048H146.2C146.326 117.048 146.494 117.054 146.704 117.066C146.92 117.072 147.112 117.09 147.28 117.12C148.054 117.24 148.687 117.495 149.179 117.885C149.677 118.275 150.043 118.767 150.277 119.361C150.511 119.949 150.628 120.606 150.628 121.332C150.628 122.418 150.358 123.348 149.818 124.122C149.278 124.89 148.432 125.364 147.28 125.544L146.2 125.616H143.176V130.008H140.728ZM148.036 130.008L145.48 124.734L148 124.248L150.808 130.008H148.036ZM143.176 123.33H146.092C146.218 123.33 146.356 123.324 146.506 123.312C146.656 123.3 146.794 123.276 146.92 123.24C147.25 123.15 147.505 123 147.685 122.79C147.865 122.574 147.988 122.337 148.054 122.079C148.126 121.815 148.162 121.566 148.162 121.332C148.162 121.098 148.126 120.852 148.054 120.594C147.988 120.33 147.865 120.093 147.685 119.883C147.505 119.667 147.25 119.514 146.92 119.424C146.794 119.388 146.656 119.364 146.506 119.352C146.356 119.34 146.218 119.334 146.092 119.334H143.176V123.33ZM163.95 130.008V117.048H166.398V127.722H171.978V130.008H163.95ZM182.409 130.278C181.113 130.278 179.994 129.996 179.052 129.432C178.116 128.868 177.393 128.079 176.883 127.065C176.379 126.051 176.127 124.872 176.127 123.528C176.127 122.184 176.379 121.005 176.883 119.991C177.393 118.977 178.116 118.188 179.052 117.624C179.994 117.06 181.113 116.778 182.409 116.778C183.705 116.778 184.821 117.06 185.757 117.624C186.699 118.188 187.422 118.977 187.926 119.991C188.436 121.005 188.691 122.184 188.691 123.528C188.691 124.872 188.436 126.051 187.926 127.065C187.422 128.079 186.699 128.868 185.757 129.432C184.821 129.996 183.705 130.278 182.409 130.278ZM182.409 127.974C183.231 127.986 183.915 127.809 184.461 127.443C185.007 127.077 185.415 126.558 185.685 125.886C185.961 125.214 186.099 124.428 186.099 123.528C186.099 122.628 185.961 121.848 185.685 121.188C185.415 120.528 185.007 120.015 184.461 119.649C183.915 119.283 183.231 119.094 182.409 119.082C181.587 119.07 180.903 119.247 180.357 119.613C179.811 119.979 179.4 120.498 179.124 121.17C178.854 121.842 178.719 122.628 178.719 123.528C178.719 124.428 178.854 125.208 179.124 125.868C179.4 126.528 179.811 127.041 180.357 127.407C180.903 127.773 181.587 127.962 182.409 127.974ZM199.578 130.278C198.762 130.278 197.985 130.134 197.247 129.846C196.509 129.552 195.855 129.12 195.285 128.55C194.721 127.98 194.274 127.275 193.944 126.435C193.62 125.595 193.458 124.626 193.458 123.528C193.458 122.094 193.731 120.876 194.277 119.874C194.829 118.866 195.567 118.098 196.491 117.57C197.421 117.042 198.45 116.778 199.578 116.778C201.246 116.778 202.557 117.165 203.511 117.939C204.465 118.713 205.104 119.808 205.428 121.224L202.926 121.584C202.692 120.828 202.308 120.225 201.774 119.775C201.246 119.319 200.568 119.088 199.74 119.082C198.918 119.07 198.234 119.247 197.688 119.613C197.142 119.979 196.731 120.498 196.455 121.17C196.185 121.842 196.05 122.628 196.05 123.528C196.05 124.428 196.185 125.208 196.455 125.868C196.731 126.528 197.142 127.041 197.688 127.407C198.234 127.773 198.918 127.962 199.74 127.974C200.298 127.986 200.802 127.89 201.252 127.686C201.708 127.482 202.092 127.161 202.404 126.723C202.716 126.285 202.938 125.724 203.07 125.04H201.018V123.15H205.68C205.692 123.228 205.701 123.366 205.707 123.564C205.713 123.762 205.716 123.876 205.716 123.906C205.716 125.148 205.464 126.249 204.96 127.209C204.456 128.169 203.745 128.922 202.827 129.468C201.909 130.008 200.826 130.278 199.578 130.278ZM211.39 130.008V117.048H213.838V130.008H211.39ZM225.122 130.278C224.162 130.278 223.295 130.11 222.521 129.774C221.753 129.432 221.12 128.946 220.622 128.316C220.13 127.68 219.818 126.924 219.686 126.048L222.242 125.67C222.422 126.414 222.794 126.987 223.358 127.389C223.922 127.791 224.564 127.992 225.284 127.992C225.686 127.992 226.076 127.929 226.454 127.803C226.832 127.677 227.141 127.491 227.381 127.245C227.627 126.999 227.75 126.696 227.75 126.336C227.75 126.204 227.729 126.078 227.687 125.958C227.651 125.832 227.588 125.715 227.498 125.607C227.408 125.499 227.279 125.397 227.111 125.301C226.949 125.205 226.742 125.118 226.49 125.04L223.124 124.05C222.872 123.978 222.578 123.876 222.242 123.744C221.912 123.612 221.591 123.423 221.279 123.177C220.967 122.931 220.706 122.607 220.496 122.205C220.292 121.797 220.19 121.284 220.19 120.666C220.19 119.796 220.409 119.073 220.847 118.497C221.285 117.921 221.87 117.492 222.602 117.21C223.334 116.928 224.144 116.79 225.032 116.796C225.926 116.808 226.724 116.961 227.426 117.255C228.128 117.549 228.716 117.978 229.19 118.542C229.664 119.1 230.006 119.784 230.216 120.594L227.57 121.044C227.474 120.624 227.297 120.27 227.039 119.982C226.781 119.694 226.472 119.475 226.112 119.325C225.758 119.175 225.386 119.094 224.996 119.082C224.612 119.07 224.249 119.124 223.907 119.244C223.571 119.358 223.295 119.526 223.079 119.748C222.869 119.97 222.764 120.234 222.764 120.54C222.764 120.822 222.851 121.053 223.025 121.233C223.199 121.407 223.418 121.548 223.682 121.656C223.946 121.764 224.216 121.854 224.492 121.926L226.742 122.538C227.078 122.628 227.45 122.748 227.858 122.898C228.266 123.042 228.656 123.246 229.028 123.51C229.406 123.768 229.715 124.11 229.955 124.536C230.201 124.962 230.324 125.502 230.324 126.156C230.324 126.852 230.177 127.461 229.883 127.983C229.595 128.499 229.205 128.928 228.713 129.27C228.221 129.606 227.663 129.858 227.039 130.026C226.421 130.194 225.782 130.278 225.122 130.278ZM238.998 130.008V119.334H234.912V117.048H245.532V119.334H241.446V130.008H238.998ZM250.848 130.008V117.048H253.296V130.008H250.848ZM265.246 130.278C263.95 130.278 262.831 129.996 261.889 129.432C260.953 128.868 260.23 128.079 259.72 127.065C259.216 126.051 258.964 124.872 258.964 123.528C258.964 122.184 259.216 121.005 259.72 119.991C260.23 118.977 260.953 118.188 261.889 117.624C262.831 117.06 263.95 116.778 265.246 116.778C266.734 116.778 267.982 117.147 268.99 117.885C270.004 118.623 270.718 119.622 271.132 120.882L268.666 121.566C268.426 120.78 268.021 120.171 267.451 119.739C266.881 119.301 266.146 119.082 265.246 119.082C264.424 119.082 263.737 119.265 263.185 119.631C262.639 119.997 262.228 120.513 261.952 121.179C261.676 121.845 261.538 122.628 261.538 123.528C261.538 124.428 261.676 125.211 261.952 125.877C262.228 126.543 262.639 127.059 263.185 127.425C263.737 127.791 264.424 127.974 265.246 127.974C266.146 127.974 266.881 127.755 267.451 127.317C268.021 126.879 268.426 126.27 268.666 125.49L271.132 126.174C270.718 127.434 270.004 128.433 268.99 129.171C267.982 129.909 266.734 130.278 265.246 130.278ZM282.245 130.278C281.285 130.278 280.418 130.11 279.644 129.774C278.876 129.432 278.243 128.946 277.745 128.316C277.253 127.68 276.941 126.924 276.809 126.048L279.365 125.67C279.545 126.414 279.917 126.987 280.481 127.389C281.045 127.791 281.687 127.992 282.407 127.992C282.809 127.992 283.199 127.929 283.577 127.803C283.955 127.677 284.264 127.491 284.504 127.245C284.75 126.999 284.873 126.696 284.873 126.336C284.873 126.204 284.852 126.078 284.81 125.958C284.774 125.832 284.711 125.715 284.621 125.607C284.531 125.499 284.402 125.397 284.234 125.301C284.072 125.205 283.865 125.118 283.613 125.04L280.247 124.05C279.995 123.978 279.701 123.876 279.365 123.744C279.035 123.612 278.714 123.423 278.402 123.177C278.09 122.931 277.829 122.607 277.619 122.205C277.415 121.797 277.313 121.284 277.313 120.666C277.313 119.796 277.532 119.073 277.97 118.497C278.408 117.921 278.993 117.492 279.725 117.21C280.457 116.928 281.267 116.79 282.155 116.796C283.049 116.808 283.847 116.961 284.549 117.255C285.251 117.549 285.839 117.978 286.313 118.542C286.787 119.1 287.129 119.784 287.339 120.594L284.693 121.044C284.597 120.624 284.42 120.27 284.162 119.982C283.904 119.694 283.595 119.475 283.235 119.325C282.881 119.175 282.509 119.094 282.119 119.082C281.735 119.07 281.372 119.124 281.03 119.244C280.694 119.358 280.418 119.526 280.202 119.748C279.992 119.97 279.887 120.234 279.887 120.54C279.887 120.822 279.974 121.053 280.148 121.233C280.322 121.407 280.541 121.548 280.805 121.656C281.069 121.764 281.339 121.854 281.615 121.926L283.865 122.538C284.201 122.628 284.573 122.748 284.981 122.898C285.389 123.042 285.779 123.246 286.151 123.51C286.529 123.768 286.838 124.11 287.078 124.536C287.324 124.962 287.447 125.502 287.447 126.156C287.447 126.852 287.3 127.461 287.006 127.983C286.718 128.499 286.328 128.928 285.836 129.27C285.344 129.606 284.786 129.858 284.162 130.026C283.544 130.194 282.905 130.278 282.245 130.278ZM300.409 130.008V117.048H308.869V119.334H302.857V122.106H307.789V124.392H302.857V127.722H308.869V130.008H300.409ZM319.821 130.278C318.525 130.278 317.406 129.996 316.464 129.432C315.528 128.868 314.805 128.079 314.295 127.065C313.791 126.051 313.539 124.872 313.539 123.528C313.539 122.184 313.791 121.005 314.295 119.991C314.805 118.977 315.528 118.188 316.464 117.624C317.406 117.06 318.525 116.778 319.821 116.778C321.309 116.778 322.557 117.147 323.565 117.885C324.579 118.623 325.293 119.622 325.707 120.882L323.241 121.566C323.001 120.78 322.596 120.171 322.026 119.739C321.456 119.301 320.721 119.082 319.821 119.082C318.999 119.082 318.312 119.265 317.76 119.631C317.214 119.997 316.803 120.513 316.527 121.179C316.251 121.845 316.113 122.628 316.113 123.528C316.113 124.428 316.251 125.211 316.527 125.877C316.803 126.543 317.214 127.059 317.76 127.425C318.312 127.791 318.999 127.974 319.821 127.974C320.721 127.974 321.456 127.755 322.026 127.317C322.596 126.879 323.001 126.27 323.241 125.49L325.707 126.174C325.293 127.434 324.579 128.433 323.565 129.171C322.557 129.909 321.309 130.278 319.821 130.278ZM336.941 130.278C335.645 130.278 334.526 129.996 333.584 129.432C332.648 128.868 331.925 128.079 331.415 127.065C330.911 126.051 330.659 124.872 330.659 123.528C330.659 122.184 330.911 121.005 331.415 119.991C331.925 118.977 332.648 118.188 333.584 117.624C334.526 117.06 335.645 116.778 336.941 116.778C338.237 116.778 339.353 117.06 340.289 117.624C341.231 118.188 341.954 118.977 342.458 119.991C342.968 121.005 343.223 122.184 343.223 123.528C343.223 124.872 342.968 126.051 342.458 127.065C341.954 128.079 341.231 128.868 340.289 129.432C339.353 129.996 338.237 130.278 336.941 130.278ZM336.941 127.974C337.763 127.986 338.447 127.809 338.993 127.443C339.539 127.077 339.947 126.558 340.217 125.886C340.493 125.214 340.631 124.428 340.631 123.528C340.631 122.628 340.493 121.848 340.217 121.188C339.947 120.528 339.539 120.015 338.993 119.649C338.447 119.283 337.763 119.094 336.941 119.082C336.119 119.07 335.435 119.247 334.889 119.613C334.343 119.979 333.932 120.498 333.656 121.17C333.386 121.842 333.251 122.628 333.251 123.528C333.251 124.428 333.386 125.208 333.656 125.868C333.932 126.528 334.343 127.041 334.889 127.407C335.435 127.773 336.119 127.962 336.941 127.974ZM353.605 130.278C352.645 130.278 351.778 130.11 351.004 129.774C350.236 129.432 349.603 128.946 349.105 128.316C348.613 127.68 348.301 126.924 348.169 126.048L350.725 125.67C350.905 126.414 351.277 126.987 351.841 127.389C352.405 127.791 353.047 127.992 353.767 127.992C354.169 127.992 354.559 127.929 354.937 127.803C355.315 127.677 355.624 127.491 355.864 127.245C356.11 126.999 356.233 126.696 356.233 126.336C356.233 126.204 356.212 126.078 356.17 125.958C356.134 125.832 356.071 125.715 355.981 125.607C355.891 125.499 355.762 125.397 355.594 125.301C355.432 125.205 355.225 125.118 354.973 125.04L351.607 124.05C351.355 123.978 351.061 123.876 350.725 123.744C350.395 123.612 350.074 123.423 349.762 123.177C349.45 122.931 349.189 122.607 348.979 122.205C348.775 121.797 348.673 121.284 348.673 120.666C348.673 119.796 348.892 119.073 349.33 118.497C349.768 117.921 350.353 117.492 351.085 117.21C351.817 116.928 352.627 116.79 353.515 116.796C354.409 116.808 355.207 116.961 355.909 117.255C356.611 117.549 357.199 117.978 357.673 118.542C358.147 119.1 358.489 119.784 358.699 120.594L356.053 121.044C355.957 120.624 355.78 120.27 355.522 119.982C355.264 119.694 354.955 119.475 354.595 119.325C354.241 119.175 353.869 119.094 353.479 119.082C353.095 119.07 352.732 119.124 352.39 119.244C352.054 119.358 351.778 119.526 351.562 119.748C351.352 119.97 351.247 120.234 351.247 120.54C351.247 120.822 351.334 121.053 351.508 121.233C351.682 121.407 351.901 121.548 352.165 121.656C352.429 121.764 352.699 121.854 352.975 121.926L355.225 122.538C355.561 122.628 355.933 122.748 356.341 122.898C356.749 123.042 357.139 123.246 357.511 123.51C357.889 123.768 358.198 124.11 358.438 124.536C358.684 124.962 358.807 125.502 358.807 126.156C358.807 126.852 358.66 127.461 358.366 127.983C358.078 128.499 357.688 128.928 357.196 129.27C356.704 129.606 356.146 129.858 355.522 130.026C354.904 130.194 354.265 130.278 353.605 130.278ZM367.098 130.008V124.734L362.67 117.048H365.532L368.34 121.926L371.148 117.048H374.01L369.582 124.734V130.008H367.098ZM383.309 130.278C382.349 130.278 381.482 130.11 380.708 129.774C379.94 129.432 379.307 128.946 378.809 128.316C378.317 127.68 378.005 126.924 377.873 126.048L380.429 125.67C380.609 126.414 380.981 126.987 381.545 127.389C382.109 127.791 382.751 127.992 383.471 127.992C383.873 127.992 384.263 127.929 384.641 127.803C385.019 127.677 385.328 127.491 385.568 127.245C385.814 126.999 385.937 126.696 385.937 126.336C385.937 126.204 385.916 126.078 385.874 125.958C385.838 125.832 385.775 125.715 385.685 125.607C385.595 125.499 385.466 125.397 385.298 125.301C385.136 125.205 384.929 125.118 384.677 125.04L381.311 124.05C381.059 123.978 380.765 123.876 380.429 123.744C380.099 123.612 379.778 123.423 379.466 123.177C379.154 122.931 378.893 122.607 378.683 122.205C378.479 121.797 378.377 121.284 378.377 120.666C378.377 119.796 378.596 119.073 379.034 118.497C379.472 117.921 380.057 117.492 380.789 117.21C381.521 116.928 382.331 116.79 383.219 116.796C384.113 116.808 384.911 116.961 385.613 117.255C386.315 117.549 386.903 117.978 387.377 118.542C387.851 119.1 388.193 119.784 388.403 120.594L385.757 121.044C385.661 120.624 385.484 120.27 385.226 119.982C384.968 119.694 384.659 119.475 384.299 119.325C383.945 119.175 383.573 119.094 383.183 119.082C382.799 119.07 382.436 119.124 382.094 119.244C381.758 119.358 381.482 119.526 381.266 119.748C381.056 119.97 380.951 120.234 380.951 120.54C380.951 120.822 381.038 121.053 381.212 121.233C381.386 121.407 381.605 121.548 381.869 121.656C382.133 121.764 382.403 121.854 382.679 121.926L384.929 122.538C385.265 122.628 385.637 122.748 386.045 122.898C386.453 123.042 386.843 123.246 387.215 123.51C387.593 123.768 387.902 124.11 388.142 124.536C388.388 124.962 388.511 125.502 388.511 126.156C388.511 126.852 388.364 127.461 388.07 127.983C387.782 128.499 387.392 128.928 386.9 129.27C386.408 129.606 385.85 129.858 385.226 130.026C384.608 130.194 383.969 130.278 383.309 130.278ZM397.186 130.008V119.334H393.1V117.048H403.72V119.334H399.634V130.008H397.186ZM408.856 130.008V117.048H417.316V119.334H411.304V122.106H416.236V124.392H411.304V127.722H417.316V130.008H408.856ZM423.163 130.008V117.048H425.359L429.643 125.652L433.927 117.048H436.123V130.008H433.837V122.268L430.075 130.008H429.211L425.449 122.268V130.008H423.163Z" fill="#00499B"/>
</svg>
