<svg width="20" height="16" viewBox="0 0 20 16" fill="none" xmlns="http://www.w3.org/2000/svg">
<path opacity="0.4" d="M10.93 0.790039H5.35C1.25 0.790039 0 2.04004 0 6.14004V9.86004C0 13.96 1.25 15.21 5.35 15.21H10.93C15.03 15.21 16.28 13.96 16.28 9.86004V6.14004C16.28 2.04004 15.03 0.790039 10.93 0.790039Z" fill="#809FB8"/>
<path d="M18.4231 4.99998C18.2831 4.98998 18.1031 4.97998 17.9031 4.97998C17.5131 4.97998 17.2031 5.28998 17.2031 5.67998V10.33C17.2031 10.72 17.5131 11.03 17.9031 11.03C18.1031 11.03 18.2731 11.02 18.4431 11.01C20.0031 10.83 20.0031 9.72998 20.0031 8.92998V7.06998C20.0031 6.26998 20.0031 5.16998 18.4231 4.99998Z" fill="#809FB8"/>
<path d="M4.37763 10.7501C4.31763 10.7501 4.25763 10.7401 4.19763 10.7301C3.79763 10.6301 3.54763 10.2201 3.64763 9.8201C3.94763 8.6301 3.94763 7.3701 3.64763 6.1801C3.54763 5.7801 3.78763 5.3701 4.19763 5.2701C4.59763 5.1701 4.99763 5.4201 5.09763 5.8201C5.45763 7.2501 5.45763 8.7601 5.09763 10.1801C5.01763 10.5201 4.70763 10.7501 4.37763 10.7501Z" fill="#809FB8"/>
<path d="M7.87763 10.7502C7.81763 10.7502 7.75763 10.7402 7.69763 10.7302C7.29763 10.6302 7.04763 10.2202 7.14763 9.82019C7.44763 8.63019 7.44763 7.37019 7.14763 6.18019C7.04763 5.78019 7.28763 5.37019 7.69763 5.27019C8.09763 5.17019 8.50763 5.41019 8.60763 5.82019C8.96763 7.25019 8.96763 8.76019 8.60763 10.1802C8.51763 10.5202 8.20763 10.7502 7.87763 10.7502Z" fill="#809FB8"/>
<path d="M11.3776 10.7502C11.3176 10.7502 11.2576 10.7402 11.1976 10.7302C10.7976 10.6302 10.5476 10.2202 10.6476 9.82019C10.9476 8.63019 10.9476 7.37019 10.6476 6.18019C10.5476 5.78019 10.7876 5.37019 11.1976 5.27019C11.5976 5.17019 12.0076 5.41019 12.1076 5.82019C12.4676 7.25019 12.4676 8.76019 12.1076 10.1802C12.0176 10.5202 11.7076 10.7502 11.3776 10.7502Z" fill="#809FB8"/>
</svg>
