<svg width="18" height="17" viewBox="0 0 18 17" fill="none" xmlns="http://www.w3.org/2000/svg">
<path d="M6.75 7.5625C5.61 7.5625 4.6875 6.64 4.6875 5.5C4.6875 4.36 5.61 3.4375 6.75 3.4375C7.89 3.4375 8.8125 4.36 8.8125 5.5C8.8125 6.64 7.89 7.5625 6.75 7.5625ZM6.75 4.5625C6.2325 4.5625 5.8125 4.9825 5.8125 5.5C5.8125 6.0175 6.2325 6.4375 6.75 6.4375C7.2675 6.4375 7.6875 6.0175 7.6875 5.5C7.6875 4.9825 7.2675 4.5625 6.75 4.5625Z" fill="white"/>
<path d="M11.25 16.5625H6.75C2.6775 16.5625 0.9375 14.8225 0.9375 10.75V6.25C0.9375 2.1775 2.6775 0.4375 6.75 0.4375H9.75C10.0575 0.4375 10.3125 0.6925 10.3125 1C10.3125 1.3075 10.0575 1.5625 9.75 1.5625H6.75C3.2925 1.5625 2.0625 2.7925 2.0625 6.25V10.75C2.0625 14.2075 3.2925 15.4375 6.75 15.4375H11.25C14.7075 15.4375 15.9375 14.2075 15.9375 10.75V7C15.9375 6.6925 16.1925 6.4375 16.5 6.4375C16.8075 6.4375 17.0625 6.6925 17.0625 7V10.75C17.0625 14.8225 15.3225 16.5625 11.25 16.5625Z" fill="white"/>
<path d="M15.9375 3.8125H11.8125C11.505 3.8125 11.25 3.5575 11.25 3.25C11.25 2.9425 11.505 2.6875 11.8125 2.6875H15.9375C16.245 2.6875 16.5 2.9425 16.5 3.25C16.5 3.5575 16.245 3.8125 15.9375 3.8125Z" fill="white"/>
<path d="M13.875 5.875C13.5675 5.875 13.3125 5.62 13.3125 5.3125V1.1875C13.3125 0.88 13.5675 0.625 13.875 0.625C14.1825 0.625 14.4375 0.88 14.4375 1.1875V5.3125C14.4375 5.62 14.1825 5.875 13.875 5.875Z" fill="white"/>
<path d="M2.00248 14.2749C1.82248 14.2749 1.64248 14.1849 1.53748 14.0274C1.36498 13.7724 1.43248 13.4199 1.68748 13.2474L5.38498 10.7649C6.19498 10.2249 7.31248 10.2849 8.04747 10.9074L8.29498 11.1249C8.66998 11.4474 9.30748 11.4474 9.67498 11.1249L12.795 8.44742C13.5975 7.76492 14.8425 7.76492 15.645 8.44742L16.8675 9.49742C17.1 9.69992 17.13 10.0524 16.9275 10.2924C16.725 10.5249 16.3725 10.5549 16.1325 10.3524L14.91 9.30242C14.535 8.97992 13.8975 8.97992 13.53 9.30242L10.41 11.9799C9.61498 12.6624 8.36248 12.6624 7.55998 11.9799L7.31248 11.7624C6.96748 11.4699 6.39748 11.4399 6.01498 11.7024L2.32498 14.1849C2.21998 14.2449 2.10748 14.2749 2.00248 14.2749Z" fill="white"/>
</svg>
