<svg enable-background="new 0 0 64 64" viewBox="0 0 64 64" xmlns="http://www.w3.org/2000/svg"><path d="m32.75 35.469c-7.456 0-13.5-6.044-13.5-13.5s6.044-13.5 13.5-13.5 13.5 6.044 13.5 13.5c0 7.455-6.044 13.5-13.5 13.5z" fill="#ffd740"/><path d="m32.75 35.969c-7.72 0-14-6.28-14-14s6.28-14 14-14 14 6.28 14 14-6.28 14-14 14zm0-27c-7.168 0-13 5.832-13 13s5.832 13 13 13 13-5.832 13-13-5.832-13-13-13z" fill="#263238"/><path d="m57 11h-4c-.276 0-.5-.224-.5-.5s.224-.5.5-.5h4c.276 0 .5.224.5.5s-.224.5-.5.5z" fill="#263238"/><path d="m51.5 5.5h-4c-.276 0-.5-.224-.5-.5s.224-.5.5-.5h4c.276 0 .5.224.5.5s-.224.5-.5.5z" fill="#263238"/><path d="m49.5 7.5c-.276 0-.5-.224-.5-.5v-4c0-.276.224-.5.5-.5s.5.224.5.5v4c0 .276-.224.5-.5.5z" fill="#263238"/><path d="m55 13c-.276 0-.5-.224-.5-.5v-4c0-.276.224-.5.5-.5s.5.224.5.5v4c0 .276-.224.5-.5.5z" fill="#263238"/><path d="m36.816 61.5c-1.82 0-3.652-.473-5.306-1.441l-5.492-3.22c-1.455-.854-3.117-1.305-4.805-1.305h-2.785c-.276 0-.5-.224-.5-.5s.224-.5.5-.5h2.785c1.865 0 3.702.499 5.311 1.441l5.492 3.22c3.728 2.188 8.466 1.578 11.521-1.478l10.447-10.447c.779-.779.779-2.049 0-2.828-.756-.756-2.072-.756-2.828 0l-4.243 4.242c-.195.195-.512.195-.707 0s-.195-.512 0-.707l4.243-4.242c1.133-1.133 3.109-1.133 4.242 0 1.17 1.17 1.17 3.072 0 4.242l-10.446 10.448c-2.022 2.022-4.712 3.075-7.429 3.075z" fill="#263238"/><path d="m8.929 42.034v14.5c0 .552.448 1 1 1h5.5c.552 0 1-.448 1-1v-14.5c0-.552-.448-1-1-1h-5.5c-.552 0-1 .448-1 1z" fill="#40c4ff"/><g fill="#263238"><path d="m15.429 58.034h-5.5c-.827 0-1.5-.673-1.5-1.5v-14.5c0-.827.673-1.5 1.5-1.5h5.5c.827 0 1.5.673 1.5 1.5v14.5c0 .827-.673 1.5-1.5 1.5zm-5.5-16.5c-.275 0-.5.225-.5.5v14.5c0 .275.225.5.5.5h5.5c.275 0 .5-.225.5-.5v-14.5c0-.275-.225-.5-.5-.5z"/><path d="m41.429 53.034h-6.5c-.276 0-.5-.224-.5-.5s.224-.5.5-.5h6.5c1.103 0 2-.897 2-2s-.897-2-2-2h-7c-.061 0-.121-.011-.178-.033l-7.92-3.018c-1.655-.63-3.393-.949-5.162-.949h-2.74c-.276 0-.5-.224-.5-.5s.224-.5.5-.5h2.74c1.892 0 3.748.342 5.518 1.015l7.834 2.985h6.908c1.654 0 3 1.346 3 3s-1.346 3-3 3z"/><path d="m19 33.875h-10c-.276 0-.5-.224-.5-.5s.224-.5.5-.5h10c.276 0 .5.224.5.5s-.224.5-.5.5z"/><path d="m7 33.875h-1c-.276 0-.5-.224-.5-.5s.224-.5.5-.5h1c.276 0 .5.224.5.5s-.224.5-.5.5z"/><path d="m55 33.875h-10c-.276 0-.5-.224-.5-.5s.224-.5.5-.5h10c.276 0 .5.224.5.5s-.224.5-.5.5z"/><path d="m58 33.875h-1c-.276 0-.5-.224-.5-.5s.224-.5.5-.5h1c.276 0 .5.224.5.5s-.224.5-.5.5z"/><path d="m29.25 21.469c-1.654 0-3-1.346-3-3s1.346-3 3-3 3 1.346 3 3-1.346 3-3 3zm0-5c-1.103 0-2 .897-2 2s.897 2 2 2 2-.897 2-2-.897-2-2-2z"/><path d="m36.25 28.469c-1.654 0-3-1.346-3-3s1.346-3 3-3 3 1.346 3 3-1.346 3-3 3zm0-5c-1.103 0-2 .897-2 2s.897 2 2 2 2-.897 2-2-.897-2-2-2z"/><path d="m26.75 28.469c-.128 0-.256-.049-.354-.146-.195-.195-.195-.512 0-.707l12-12c.195-.195.512-.195.707 0s.195.512 0 .707l-12 12c-.097.097-.225.146-.353.146z"/></g></svg>