<svg width="101" height="83" viewBox="0 0 101 83" fill="none" xmlns="http://www.w3.org/2000/svg">
<g clip-path="url(#clip0_3986_58214)">
<path d="M80.064 76.6452V61.9959C80.064 57.0968 76.3408 53.0674 71.5697 52.583C71.2516 52.5507 70.9288 52.6293 70.6023 52.6293C65.3767 52.6293 61.3555 56.8355 61.3555 62.0612L61.3557 76.5835L80.064 76.6452Z" fill="#855B51"/>
<path d="M71.6253 52.5891C66.8806 53.099 63.1862 57.1154 63.1862 61.9956V76.5366L61.1416 76.5839V61.9956C61.1416 56.7703 65.3778 52.5342 70.603 52.5342C70.948 52.5342 71.2892 52.5521 71.6253 52.5891Z" fill="#724D44"/>
<path d="M73.2431 81.975V72.0613L72.8512 70.9029L73.2431 67.5H67.9619L68.1855 72.8829L67.9619 74.672V81.975L70.6016 82.3725L73.2431 81.975Z" fill="#C48958"/>
<path d="M67.8661 73.1328L62.6758 75.1875L63.3062 82.373H70.6085L70.2274 81.9538C68.4083 79.9521 68.0539 77.3665 67.9851 74.6725C67.97 74.0797 67.8661 73.7311 67.8661 73.1328Z" fill="#FFD163"/>
<path d="M67.9803 74.6728L67.9637 74.6792L62.8112 76.7967L62.6592 75.0638L67.9637 72.8838L68.1866 73.7749L67.9803 74.6728Z" fill="#FFB65F"/>
<path d="M78.6622 75.1171L73.2421 72.8838C73.2421 76.1567 73.2067 79.5227 70.9639 81.9761L70.6006 82.3736H79.3627C80.0693 82.3736 80.6419 81.8008 80.6419 81.0944V78.074C80.6419 76.7783 79.8602 75.6107 78.6622 75.1171Z" fill="#FFD163"/>
<path d="M67.9629 67.5011H67.9619C67.9619 67.5011 67.9626 72.0546 67.9629 72.0547C67.9629 72.0547 67.9642 74.0796 67.9795 74.6726L69.3074 74.1268C69.4991 74.0479 69.6242 73.8612 69.6242 73.654V73.0865C69.6242 72.9283 69.7665 72.8093 69.9226 72.8356C70.15 72.8741 70.3765 72.8936 70.6007 72.8936C71.508 72.8936 72.4038 72.5869 73.2421 72.0617V67.501H67.9629V67.5011Z" fill="#B27A49"/>
<path d="M64.9357 63.138C64.9471 63.5983 64.7702 63.954 64.8669 64.424C65.5659 67.8197 68.3187 71.2322 70.6036 71.2322C73.2451 71.2322 76.5078 66.6773 76.5078 62.8556C76.5078 60.4902 75.71 58.402 74.1958 57.1541C73.8807 56.8944 73.6214 56.9184 73.2451 56.7366C73.1265 56.6792 72.987 56.7459 72.955 56.8737C72.2489 59.6949 69.8555 62.0091 66.9368 62.616L65.0973 62.9347C65.002 62.955 64.9357 63.138 64.9357 63.138Z" fill="#C48958"/>
<path d="M67.3221 63.8802C70.693 63.1533 73.4147 60.4189 74.1958 57.1552C73.8807 56.8956 73.5354 56.6713 73.159 56.4895C73.0405 56.4322 72.9009 56.4988 72.869 56.6266C72.1628 59.4477 69.8123 61.7796 66.8937 62.3864L64.8638 62.8207C64.7686 62.841 64.701 62.9259 64.7022 63.0231V63.024C64.7135 63.4843 64.7717 63.954 64.8684 64.4241L67.3221 63.8802Z" fill="#B27A49"/>
<path d="M40.6884 75.9326L33.2886 73.2962C31.8956 74.9042 29.4818 74.7198 28.0894 73.1113L22.7479 75.3311C21.55 75.8248 20.7354 76.7781 20.7354 78.0737V80.9663C20.7354 81.6729 21.3081 82.2455 22.0145 82.2455L22.2688 82.3733H28.0065L30.5635 82.0456L33.288 82.3733H38.0084L40.6884 81.8988V75.9326Z" fill="#BAE6EF"/>
<path d="M33.1033 68.7803H28.2637L28.2854 72.6222C28.7452 73.1529 29.0482 73.7723 29.6688 73.9526C30.9277 74.3183 32.3543 73.9631 33.2873 72.887L33.2889 72.8851V70.8561L33.1033 68.7803Z" fill="#F2D1A5"/>
<path d="M29.1777 73.9706L23.6129 76.4891L23.2205 76.6535C22.6429 76.8912 22.2698 77.4483 22.2698 78.0732V82.3733H21.8876C21.1809 82.3733 20.6084 81.8008 20.6084 81.0941V78.0732C20.6084 76.7787 21.3905 75.6107 22.5878 75.1175L27.7639 73.1113C28.1246 73.4718 29.1777 73.9706 29.1777 73.9706Z" fill="#94D8E6"/>
<path d="M39.3245 75.3693L33.2904 82.3733H28.0089L23.6148 76.4889L22.7627 75.1887L25.6556 74.1828L28.0102 72.8838C29.4018 74.4926 31.8975 74.4926 33.2904 72.8851V72.8838L39.3245 75.3693Z" fill="#F8F7F7"/>
<path d="M29.67 68.7803H28.0088V70.8568V72.8861V73.1451L29.3288 73.9663C29.3288 73.9663 29.627 73.9317 29.67 73.9493V71.8136C29.67 71.6568 29.81 71.5381 29.9648 71.5621C30.1926 71.5975 30.4204 71.6159 30.6476 71.6159C31.5332 71.6159 32.4315 71.3399 33.289 70.8555V68.7803H29.67Z" fill="#F2BB88"/>
<path d="M29.6628 73.9498V73.9511L23.6056 76.4877L22.582 75.1165L28.0015 72.8828C28.0896 72.9265 28.4405 73.5624 29.6628 73.9498Z" fill="#E8E8E8"/>
<path d="M36.7311 61.616C36.7311 57.5966 34.6686 55.1455 30.6493 55.1455C26.63 55.1455 24.5674 57.5966 24.5674 61.616C24.5674 62.4648 24.5927 63.3271 24.8604 64.1592C25.8603 67.2673 28.4593 69.9554 30.6492 69.9554C32.8207 69.9554 35.3914 67.316 36.4105 64.244C36.6953 63.3858 36.7311 62.4937 36.7311 61.616Z" fill="#F2D1A5"/>
<path d="M34.0807 55.9512C33.653 55.9991 33.2534 56.106 32.9168 56.2515L32.9119 56.2644C32.8814 55.948 32.7997 55.6517 32.6649 55.3863C32.0551 55.2282 31.3829 55.1455 30.649 55.1455C26.6296 55.1455 24.4395 57.5966 24.4395 61.616C24.4395 62.4648 24.5939 63.3266 24.8617 64.1588C24.9507 64.0779 25.0471 63.9873 25.1521 63.8801C25.9481 63.0676 27.2866 61.7198 28.8653 61.0307C29.8307 60.6092 30.6478 60.4929 31.2794 59.9433C31.4027 59.836 31.5898 59.8648 31.6721 60.006C31.9602 60.5003 32.6006 61.18 33.8936 61.9482C34.9959 62.6031 35.9327 63.5306 36.4104 64.244C36.6951 63.3858 36.8588 62.4938 36.8588 61.6162C36.8586 58.9541 35.897 56.9811 34.0807 55.9512Z" fill="#F2BB88"/>
<path d="M32.9215 54.7281C33.3756 54.5312 33.9363 54.2662 34.5355 54.2609C35.4574 54.2529 36.4473 54.5312 37.1859 55.2791C39.6037 57.7272 38.3343 61.5021 37.4056 63.1592C37.3191 63.3134 37.1077 63.3374 36.9907 63.2049C36.5261 62.6792 35.3825 61.4766 33.8476 60.494C33.3482 60.1743 32.9176 59.7987 32.5658 59.3925C32.1563 58.9198 32.028 58.3035 31.8486 57.7882L32.9215 54.7281Z" fill="#8E868E"/>
<path d="M34.2781 56.6593C33.9344 57.6752 33.3427 58.6068 32.5671 59.3914C32.1556 58.9199 31.8527 58.4062 31.6738 57.8912L32.9108 54.5892C33.3657 54.3924 33.9357 54.2659 34.535 54.2607C34.6398 55.0172 34.5554 55.8389 34.2781 56.6593Z" fill="#766D78"/>
<path d="M32.5617 53.5432C32.139 52.8829 31.3835 52.4664 30.4563 52.3187C28.9719 52.0823 27.1178 52.768 25.4145 54.0129C22.2035 56.3597 22.8603 60.9576 23.8675 62.9988C23.9535 63.1733 24.1917 63.1947 24.3057 63.0372C24.4813 62.7948 24.7597 62.6162 25.1507 62.2172C25.9466 61.4047 27.2051 60.4013 28.9916 59.7511C32.2125 58.5789 33.6609 55.2604 32.5617 53.5432Z" fill="#8E868E"/>
<path d="M30.469 52.322C29.3444 52.483 28.1253 52.9596 27.0033 53.78C24.2176 55.8157 24.3952 59.8512 25.1491 62.2178C24.7581 62.6165 24.4783 62.9692 24.3032 63.212C24.1895 63.3692 23.9505 63.3475 23.8649 63.1737C22.8579 61.1317 22.1308 56.1275 25.3421 53.78C27.0519 52.5303 28.9828 52.0792 30.469 52.322Z" fill="#766D78"/>
<path d="M37.0864 43.6267L34.1173 43.6102C33.7577 43.6102 33.4124 43.7515 33.1559 44.0038L31.156 45.9693C30.8879 46.233 30.4574 46.2315 30.1912 45.9658L28.2319 44.0107C27.9749 43.7542 27.6267 43.6102 27.2636 43.6102H24.1801C22.8175 43.6102 21.7129 42.5056 21.7129 41.143V32.5051C21.7129 31.4247 22.2796 30.3786 23.2466 30.0447C23.4991 29.9576 23.7703 29.9102 24.0524 29.9102H39.759V41.2709C39.759 41.5533 39.7116 41.8247 39.6241 42.0774C39.2899 43.0438 38.1666 43.6267 37.0864 43.6267Z" fill="#F8F7F7"/>
<path d="M39.6232 42.0771C39.2897 43.0432 38.3722 43.7384 37.2923 43.7384H34.2459C33.8855 43.7384 33.5405 43.8802 33.2836 44.132L31.156 46.2251C30.8889 46.4884 30.4582 46.4871 30.1912 46.2213L28.1044 44.1383C27.8475 43.8828 27.4987 43.7384 27.1358 43.7384H24.0522C22.69 43.7384 21.5859 42.633 21.5859 41.2708V32.378C21.5859 31.2969 22.2798 30.3781 23.2472 30.0459V41.2708C23.2472 41.7155 23.6075 42.0771 24.0522 42.0771H27.1358C27.9447 42.0771 28.705 42.3915 29.2775 42.9627L30.3215 44.0054C30.5209 44.2035 30.8416 44.2048 31.0422 44.008L32.1195 42.9474C32.6856 42.3902 33.4498 42.0771 34.2459 42.0771H39.6232Z" fill="#E8E8E8"/>
<path d="M30.4677 34.947C30.5816 35.0543 30.7602 35.0511 30.8747 34.9444C31.2825 34.5642 31.8347 34.3313 32.4385 34.3331C33.677 34.3368 34.6877 35.3537 34.67 36.576C34.6469 38.19 32.9247 39.571 31.7478 40.3277C31.332 40.5951 30.9851 40.6173 30.8043 40.7116C30.72 40.7556 30.6197 40.7566 30.5344 40.7145C29.8298 40.3668 26.7979 38.8225 26.8433 36.5709C26.8616 35.6632 27.3056 34.9034 28.0886 34.5589C28.1697 34.5232 28.2511 34.441 28.3395 34.4159C28.5234 34.3633 28.7161 34.3345 28.9143 34.3331C29.5183 34.3288 30.0638 34.5661 30.4677 34.947Z" fill="#DF646E"/>
<path d="M31.7467 40.3275C31.3314 40.5946 30.9826 40.7837 30.8024 40.8783C30.7181 40.923 30.6184 40.9243 30.5328 40.8821C29.8274 40.5345 26.6225 38.8273 26.6685 36.5756C26.6889 35.5738 27.3969 34.6856 28.3386 34.416C28.023 34.8032 27.8301 35.2914 27.8186 35.8089C27.7815 37.6324 30.382 39.4981 31.7467 40.3275Z" fill="#DC4955"/>
<path d="M77.0447 43.6103H73.9981C73.6385 43.6103 73.2932 43.7516 73.0368 44.0039L71.0369 46.0972C70.7688 46.3609 70.3383 46.3594 70.0721 46.0937L68.1127 44.0108C67.8557 43.7543 67.5075 43.6103 67.1445 43.6103H64.061C62.6983 43.6103 61.5938 42.5057 61.5938 41.1431L61.7567 30.1628L64.245 29.9102H77.1725C78.5351 29.9102 79.6397 31.0148 79.6397 32.3774V41.2708C79.6397 41.5532 79.5923 41.8245 79.5049 42.0772C79.1708 43.0439 78.1249 43.6103 77.0447 43.6103Z" fill="#F8F7F7"/>
<path d="M70.3632 34.947C70.4771 35.0543 70.6557 35.0511 70.7702 34.9444C71.178 34.5642 71.7302 34.3313 72.334 34.3331C73.5725 34.3368 74.5832 35.3537 74.5655 36.576C74.5424 38.19 72.8202 39.571 71.6433 40.3277C71.2275 40.5951 70.8806 40.6173 70.6998 40.7116C70.6155 40.7556 70.5152 40.7566 70.4299 40.7145C69.7253 40.3668 66.6934 38.8225 66.7388 36.5709C66.7571 35.6632 67.2011 34.9034 67.9841 34.5589C68.0652 34.5232 68.1466 34.441 68.2351 34.4159C68.4189 34.3633 68.6116 34.3345 68.8098 34.3331C69.4138 34.3288 69.9593 34.5661 70.3632 34.947Z" fill="#DF646E"/>
<path d="M71.6423 40.3275C71.2269 40.5946 70.8781 40.7837 70.6979 40.8783C70.6136 40.923 70.5139 40.9243 70.4283 40.8821C69.7229 40.5345 66.518 38.8273 66.564 36.5756C66.5844 35.5738 67.2924 34.6856 68.2342 34.416C67.9185 34.8032 67.7256 35.2914 67.7141 35.8089C67.677 37.6324 70.2775 39.4981 71.6423 40.3275Z" fill="#DC4955"/>
<path d="M74.1346 42.077C73.3346 42.077 72.5794 42.3862 72.0082 42.9472L70.7507 44.1855C70.6511 44.2839 70.49 44.2826 70.3904 44.1842L69.1674 42.9625C68.5988 42.3952 67.8295 42.077 67.0257 42.077H63.9422C63.4969 42.077 63.1359 41.716 63.1359 41.2706V36.797C63.1359 36.7362 63.1585 36.6779 63.1978 36.6315C63.3201 36.4874 63.4304 36.3355 63.5269 36.1756C64.0023 35.3846 64.254 34.4773 64.254 33.5521V29.9102H61.4746V41.2705C61.4746 42.6334 62.5793 43.7381 63.9422 43.7381H67.0257C67.3886 43.7381 67.7375 43.8825 67.9943 44.1381L70.0811 46.221C70.3469 46.4868 70.7776 46.4881 71.0459 46.2248L73.1736 44.1317C73.4304 43.8799 73.7755 43.7381 74.1346 43.7381H77.181C78.2621 43.7381 79.1796 43.0429 79.5132 42.0768H74.1346V42.077Z" fill="#E8E8E8"/>
<path d="M58.7667 36.6779L55.0732 36.803C54.4882 36.803 53.9309 37.0521 53.5409 37.488L51.3961 39.8484C51.0126 40.277 50.3408 40.2743 49.9608 39.8426L47.977 37.4406C47.5866 36.9972 47.0245 36.7432 46.4337 36.7432L42.1997 36.9801C40.3072 36.9801 38.7725 35.4453 38.7725 33.5528V22.2896C38.7725 21.043 39.4384 19.9513 40.4337 19.3517C40.9495 19.041 41.5536 18.8623 42.1996 18.8623H59.1576C61.0501 18.8623 62.5843 20.3965 62.5843 22.2891V33.5529C62.5843 34.1988 62.4057 34.8029 62.095 35.3187C61.4953 36.314 60.0134 36.6779 58.7667 36.6779Z" fill="#F8F7F7"/>
<path d="M62.095 35.3187C61.4944 36.3141 60.4031 36.9799 59.1572 36.9799H55.0718C54.4865 36.9799 53.9294 37.2291 53.5384 37.6648L51.3992 40.0558C51.0158 40.4851 50.3437 40.4826 49.9641 40.0506L47.8748 37.6776C47.485 37.2342 46.9228 36.9799 46.3311 36.9799H42.1997C40.3072 36.9799 38.7725 35.4452 38.7725 33.5526V22.2894C38.7725 21.0435 39.4382 19.9522 40.4337 19.3516V33.5526C40.4337 34.5277 41.2247 35.3187 42.1997 35.3187H46.3311C47.3994 35.3187 48.4166 35.7774 49.122 36.5799L50.4037 38.0354C50.5545 38.2079 50.8229 38.2079 50.9762 38.0367L52.3014 36.5569C53.0055 35.7685 54.0137 35.3187 55.0718 35.3187H62.095Z" fill="#E8E8E8"/>
<path d="M50.3743 24.4633C50.549 24.6279 50.8231 24.623 50.9987 24.4595C51.6244 23.8762 52.4715 23.5188 53.3978 23.5215C55.2979 23.5271 56.8485 25.0873 56.8215 26.9626C56.7842 29.5582 53.8828 31.7611 52.0829 32.8797C51.5592 33.2051 51.1678 33.2943 50.9283 33.4192C50.799 33.4867 50.6451 33.4883 50.5141 33.4237C49.4331 32.8903 44.7133 30.6136 44.783 27.1594C44.8129 25.6765 45.5893 24.1572 46.9581 23.6955C47.2849 23.5853 47.632 23.5241 47.991 23.5216C48.9177 23.5149 49.7546 23.8792 50.3743 24.4633Z" fill="#DF646E"/>
<path d="M52.0806 32.8791C51.5567 33.205 51.126 33.4388 50.8871 33.5628C50.758 33.6305 50.6034 33.6318 50.473 33.5679C49.392 33.0338 44.4747 30.4167 44.5437 26.9625C44.5731 25.4789 45.5864 24.1563 46.9563 23.6963C46.3493 24.3212 45.9672 25.1646 45.9494 26.068C45.8906 29.0212 50.1638 31.8006 52.0806 32.8791Z" fill="#DC4955"/>
<path d="M53.9849 63.6406H47.333L47.6475 68.0756L47.333 70.4204L47.334 70.4217C47.6341 70.768 47.8438 71.1776 48.2183 71.4253C49.642 72.3673 51.6255 72.4499 53.0308 71.6047C53.4172 71.3723 53.6691 70.7845 53.9828 70.4227L53.9849 70.4204V67.6032L53.716 67.1621L53.9849 63.6406Z" fill="#E3A76F"/>
<path d="M60.9248 73.2813L57.4454 71.8477L53.9798 70.7939C52.2251 72.8193 49.0823 73.002 47.3284 70.9762L40.6392 73.2813C39.2018 73.8736 38.2637 75.2748 38.2637 76.8295L38.3915 82.1167L39.6688 82.3723H48.0645L50.782 81.7565L53.1901 82.3724H63.3004V76.8296C63.3004 75.2748 62.3623 73.8738 60.9248 73.2813Z" fill="#CCF49F"/>
<path d="M48.9943 63.6406H47.333V67.6033V70.4211C47.5416 70.6619 47.4478 71.0678 47.6908 71.2514C47.9676 71.4605 48.5857 71.439 48.8946 71.5737H48.8959L48.8947 68.4198C48.8947 68.255 49.0479 68.1334 49.2083 68.1708C49.6704 68.2786 50.1889 68.3919 50.658 68.3919C51.8746 68.3919 52.9876 68.1082 53.9844 67.6035V63.6408H48.9943V63.6406Z" fill="#D6995C"/>
<path d="M48.7451 71.5731L44.8981 73.2188L41.0182 74.8177C40.1991 75.155 39.67 75.9448 39.67 76.8291V82.3725H38.0088V76.8291C38.0088 75.2752 38.9468 73.8733 40.3844 73.2817L43.8461 71.8556L45.4253 71.3678L47.2606 70.5439C47.7065 71.0589 48.165 71.3201 48.7451 71.5731Z" fill="#B3E59F"/>
<path d="M57.4519 71.8483C57.3689 71.9454 57.3127 72.0093 57.3075 72.0157C54.8885 74.8973 53.4484 78.4754 53.1966 82.2311V82.3729H48.071V82.2809C47.8679 79.0155 46.7662 75.8819 44.9034 73.2193C44.5873 72.7673 44.3928 72.3715 44.0335 71.9482L43.9951 71.8984L47.3349 70.5525C47.7811 71.068 48.3173 71.3207 48.8977 71.5738C50.5978 72.3152 52.677 71.9312 53.9851 70.4222L53.9863 70.4209L57.4519 71.8483Z" fill="#F8F7F7"/>
<path d="M48.8888 71.5735L44.8954 73.2195C44.5798 72.7671 44.2412 72.3288 43.8821 71.9058L43.8438 71.856L47.3272 70.4209C47.6339 70.7749 47.9828 71.0675 48.3598 71.2975C48.3943 71.3192 48.4288 71.3397 48.4633 71.3589C48.6026 71.4394 48.7444 71.5096 48.8888 71.5735Z" fill="#E8E8E8"/>
<path d="M57.8935 56.1336C57.8935 51.32 55.4725 47.4629 50.659 47.4629C45.8455 47.4629 43.663 51.3534 43.663 56.167C43.663 56.9706 43.2956 57.8113 43.4398 58.6353C44.1592 62.7476 46.6489 66.7292 50.659 66.7292C54.9289 66.7292 57.4751 62.2149 57.9958 57.8352C58.062 57.2776 57.8935 56.6772 57.8935 56.1336Z" fill="#E3A76F"/>
<path d="M58.0888 56.1785C58.0888 52.6587 56.6847 49.6284 54.0488 48.2526C53.9653 48.3571 53.7938 48.2913 53.8226 48.1384C52.9048 47.7039 51.8462 47.4629 50.6523 47.4629C45.8388 47.4629 43.2158 51.365 43.2158 56.1785C43.2158 56.9821 43.2893 57.8112 43.4334 58.6351C43.5453 58.4868 43.6985 58.3783 43.8444 58.241C45.1036 57.0562 46.9103 57.0138 47.1027 55.7747C47.1268 55.62 47.2732 55.5189 47.4241 55.5608C48.8565 55.9584 51.1821 55.0509 51.96 53.4759C52.035 53.324 52.2318 53.2886 52.3592 53.4003C53.0864 54.0381 54.0442 54.0216 54.46 53.9776C54.5791 53.9651 54.6913 54.0358 54.73 54.149C55.4532 56.2629 57.4358 55.4873 57.9886 57.8352C58.0551 57.2775 58.0888 56.7221 58.0888 56.1785Z" fill="#D6995C"/>
<path d="M58.7511 49.6331C58.6841 49.6138 58.5589 49.5901 58.455 49.5719C58.3732 49.5576 58.3252 49.4697 58.3606 49.3945C58.5561 48.9795 58.6487 48.5064 58.6043 48.0079C58.49 46.7276 57.453 45.692 56.1725 45.5803C55.3403 45.5078 54.5787 45.8156 54.0415 46.349C53.9684 46.4216 53.8458 46.3854 53.826 46.2843C53.5338 44.7849 52.2137 43.653 50.6286 43.653C49.8533 43.653 49.1418 43.9243 48.5824 44.3766C48.5268 44.4214 48.4477 44.4134 48.4018 44.3587C47.9098 43.772 47.1734 43.3975 46.3477 43.3975C44.9878 43.3975 43.8651 44.4093 43.6891 45.721C43.6808 45.7827 43.6312 45.8294 43.569 45.833C43.2689 45.8502 42.978 45.902 42.7003 45.9843C41.1148 46.4541 40.1309 47.9905 40.1309 49.7285C40.1309 50.7148 40.4976 51.4634 41.1097 52.1429C41.1322 52.1678 41.1438 52.1995 41.1418 52.233C41.1253 52.493 41.0523 53.7106 41.262 54.8291C41.6454 56.8737 43.2199 57.4365 43.2199 57.4365C43.2199 56.8338 43.512 56.6031 43.8486 56.3249C44.63 55.6789 45.9793 55.5624 46.3196 54.3712C46.3374 54.3091 46.3967 54.2686 46.4602 54.2797C46.6659 54.3158 47.1063 54.3872 47.37 54.3872C49.3294 54.3872 51.0018 53.1617 51.6647 51.4358C51.6989 51.347 51.8169 51.3313 51.876 51.4061C52.4494 52.1321 53.3375 52.5983 54.3345 52.5983C54.6284 52.5983 54.9126 52.5573 55.1822 52.4815C55.2482 52.463 55.3165 52.5003 55.3366 52.5657C56.121 55.1277 58.0831 54.3011 58.0831 56.6924C59.3683 56.112 60.1366 54.1281 60.5029 52.8097C60.8873 51.4257 60.0814 50.0175 58.7511 49.6331Z" fill="#855B51"/>
<path d="M43.843 56.3247C43.5069 56.6032 43.2877 56.9912 43.2877 57.5944C43.2877 57.5944 41.4866 56.9432 41.1032 54.8986C40.8936 53.7804 40.9537 52.5741 40.9703 52.3134C40.9729 52.2802 40.9601 52.2482 40.9384 52.224C40.3263 51.5441 39.9531 50.6458 39.9531 49.6593C39.9531 47.9213 41.1096 46.4543 42.6955 45.9854C41.8763 46.6882 41.3588 47.7297 41.3588 48.8925C41.3588 49.879 41.7319 50.7774 42.344 51.4572C42.3658 51.4815 42.3785 51.5135 42.376 51.5467C42.3594 51.8074 42.2993 53.0137 42.5089 54.1318C42.7146 55.227 43.3229 55.9183 43.843 56.3247Z" fill="#724D44"/>
</g>
<defs>
<clipPath id="clip0_3986_58214">
<rect width="100" height="82" fill="white" transform="translate(0.625 0.373047)"/>
</clipPath>
</defs>
</svg>
