<svg width="44" height="44" viewBox="0 0 44 44" fill="none" xmlns="http://www.w3.org/2000/svg">
<g clip-path="url(#clip0_3233_51448)">
<path d="M11 44L0.578188 40.1456C0.230742 40.0172 0 39.6858 0 39.3153V10.992C0 10.3756 0.614281 9.9479 1.19238 10.1617L11 13.7889V44Z" fill="#BDD8FC"/>
<path d="M0 23.3797V10.992C0 10.3756 0.614281 9.9479 1.19238 10.1617L11 13.7889L10.8185 29.5834L0 23.3797Z" fill="#B3E59F"/>
<path d="M11 44.0001L22 39.9319V9.7207L11 13.7889V44.0001Z" fill="#9DC7FB"/>
<path d="M11 26.7365H22V9.7207L11 13.7889V26.7365Z" fill="#B3E59F"/>
<path d="M33 44.0001L22 39.9319V9.7207L33 13.7889V44.0001Z" fill="#BDD8FC"/>
<path d="M33 27.9801L22 25.3242V9.7207L33 13.7889V27.9801Z" fill="#B3E59F"/>
<path d="M33 44L43.4218 40.1456C43.7693 40.0171 44 39.6858 44 39.3153V10.992C44 10.3756 43.3857 9.9479 42.8076 10.1617L33 13.7889V44Z" fill="#9DC7FB"/>
<path d="M43.4187 40.1456C43.7662 40.0172 43.9969 39.6859 43.9969 39.3153V10.992C43.9969 10.3756 43.3826 9.9479 42.8045 10.1617L41.2969 10.7193C41.3244 10.8047 41.341 10.8956 41.341 10.992V40.9141L43.4187 40.1456Z" fill="#80B5FB"/>
<path d="M44 33.4906V10.992C44 10.3756 43.3857 9.9479 42.8076 10.1617L33 13.7889V28.0644L44 33.4906Z" fill="#B3E59F"/>
<path d="M42.8045 10.1617L41.2969 10.7192C41.3244 10.8047 41.341 10.8956 41.341 10.992V32.1804L43.9969 33.4906V10.992C43.9969 10.3756 43.3826 9.94795 42.8045 10.1617Z" fill="#B3E59F"/>
<path d="M0 24.732L3.66077 28.499C4.99761 29.8756 6.92759 30.5175 8.82389 30.2147L11 29.8677L25.6803 27.5243C26.3141 27.4225 26.9578 27.5101 27.5412 27.7775L33 30.2732L44 35.3027V31.0541L33 26.0246L28.6461 24.0335C27.5846 23.5484 26.4142 23.389 25.2615 23.5731L11 25.8502L8.40512 26.2645C7.36218 26.43 6.30077 26.0777 5.56505 25.3208L0 19.5928V24.732Z" fill="#FAD064"/>
<path d="M41.3438 34.0884L43.9996 35.3028V31.0541L41.3438 29.8398V34.0884Z" fill="#FFC250"/>
<path d="M12.7468 36.5191H6.45302C6.08632 36.5191 5.78906 36.2218 5.78906 35.8551C5.78906 35.4884 6.08632 35.1912 6.45302 35.1912H12.7468C14.2192 35.1912 15.417 33.9933 15.417 32.521V21.3521C15.417 19.1475 17.2105 17.354 19.4151 17.354H21.3929C21.7596 17.354 22.0569 17.6513 22.0569 18.018C22.0569 18.3847 21.7596 18.6819 21.3929 18.6819H19.4151C17.9428 18.6819 16.745 19.8798 16.745 21.352V32.5209C16.7449 34.7255 14.9514 36.5191 12.7468 36.5191Z" fill="#F7F6F7"/>
<path d="M29.6752 7.67748C29.6752 12.2476 23.974 17.617 22.3975 19.0144C22.1692 19.2169 21.8263 19.217 21.5978 19.0147C20.0193 17.6178 14.3094 12.248 14.3203 7.67748C14.3304 3.43733 17.7576 0 21.9977 0C26.2379 0 29.6752 3.43733 29.6752 7.67748Z" fill="#D87B7B"/>
<path d="M22.0008 0C21.5478 0 21.1042 0.0395312 20.673 0.114812C24.2801 0.743875 27.0223 3.8903 27.0223 7.67748C27.0223 11.5784 22.8687 16.0613 20.6719 18.1596C21.0494 18.5197 21.3696 18.8101 21.6008 19.0147C21.8293 19.2169 22.1721 19.2168 22.4005 19.0144C23.977 17.617 29.6782 12.2476 29.6782 7.67748C29.6783 3.43733 26.241 0 22.0008 0V0Z" fill="#D06161"/>
<path d="M22.0006 11.7884C24.1972 11.7884 25.9778 10.0077 25.9778 7.81117C25.9778 5.61463 24.1972 3.83398 22.0006 3.83398C19.8041 3.83398 18.0234 5.61463 18.0234 7.81117C18.0234 10.0077 19.8041 11.7884 22.0006 11.7884Z" fill="white"/>
<path d="M5.30187 37.7585C6.3531 37.7585 7.2053 36.9063 7.2053 35.8551C7.2053 34.8039 6.3531 33.9517 5.30187 33.9517C4.25063 33.9517 3.39844 34.8039 3.39844 35.8551C3.39844 36.9063 4.25063 37.7585 5.30187 37.7585Z" fill="#D87B7B"/>
</g>
<defs>
<clipPath id="clip0_3233_51448">
<rect width="44" height="44" fill="white"/>
</clipPath>
</defs>
</svg>
