<svg width="53" height="57" viewBox="0 0 53 57" fill="none" xmlns="http://www.w3.org/2000/svg">
<path opacity="0.4" d="M43.3945 48.0525H41.1958C38.8814 48.0525 36.6828 48.9366 35.0627 50.5336L30.1157 55.3531C27.8592 57.549 24.1852 57.549 21.9287 55.3531L16.9817 50.5336C15.3616 48.9366 13.1341 48.0525 10.8486 48.0525H8.67889C3.87657 48.0525 0 44.2597 0 39.5828V8.46972C0 3.79279 3.87657 0 8.67889 0H43.3945C48.1968 0 52.0734 3.79279 52.0734 8.46972V39.5828C52.0734 44.2312 48.1968 48.0525 43.3945 48.0525Z" fill="#53C1FF"/>
<path d="M26.0366 23.9553C29.7593 23.9553 32.7772 20.9805 32.7772 17.3107C32.7772 13.641 29.7593 10.666 26.0366 10.666C22.3138 10.666 19.2959 13.641 19.2959 17.3107C19.2959 20.9805 22.3138 23.9553 26.0366 23.9553Z" fill="#53C1FF"/>
<path d="M33.7894 37.2168C36.1327 37.2168 37.4924 34.6501 36.1906 32.7394C34.2234 29.8591 30.4047 27.9199 26.0363 27.9199C21.6679 27.9199 17.8492 29.8591 15.8819 32.7394C14.5801 34.6501 15.9399 37.2168 18.2832 37.2168H33.7894Z" fill="#53C1FF"/>
</svg>
