<svg width="101" height="82" viewBox="0 0 101 82" fill="none" xmlns="http://www.w3.org/2000/svg">
<path d="M90.5677 57.2647L79.9459 53.0938H71.9116L61.2897 57.2647C61.2897 57.2647 57.3594 58.8805 57.3594 63.3615C57.3594 71.1114 57.3594 72.5855 57.3594 80.554C57.3594 81.2167 57.8966 81.7542 58.5596 81.7542H93.3764C93.996 81.7542 94.4982 81.252 94.4982 80.6324C94.4982 78.7715 94.4982 65.1964 94.4982 63.3617C94.4982 58.8805 90.5677 57.2647 90.5677 57.2647Z" fill="#85C2EF"/>
<path d="M75.4432 81.5283V79.3732C75.4432 77.5443 75.4432 61.3424 75.4432 59.5181C75.4432 55.9753 73.3075 53.9895 71.9717 53.0938H71.9117L61.2899 57.2647C61.2899 57.2647 57.3594 58.8805 57.3594 63.3615C57.3594 71.1114 57.3594 72.5855 57.3594 80.554C57.3594 81.2167 57.8966 81.7542 58.5596 81.7542H75.4224C75.4351 81.6808 75.4432 81.6055 75.4432 81.5283Z" fill="#69AFEB"/>
<path d="M76.1243 26.3364C70.7135 26.2276 66.3136 30.6954 66.3136 36.1073C66.3136 36.1247 66.3074 40.0775 66.3247 40.0775H85.541V40.0774C85.541 38.1536 85.541 37.821 85.541 35.9482C85.5412 30.7045 81.3434 26.4413 76.1243 26.3364Z" fill="#585A60"/>
<path d="M69.8507 36.1073C69.8507 31.3662 73.2274 27.3503 77.7023 26.5004C77.1893 26.4047 76.6626 26.3471 76.1243 26.3364C70.7135 26.2276 66.3136 30.6954 66.3136 36.1073C66.3136 36.1247 66.3074 40.0775 66.3247 40.0775H69.8617C69.8459 40.0775 69.8507 36.1231 69.8507 36.1073Z" fill="#4C4F56"/>
<path d="M68.8176 38.7191C66.6312 38.3463 65.2188 39.7846 65.2188 41.4144C65.2188 42.9288 66.4461 44.1561 67.9604 44.1561C68.1332 44.1561 68.6658 44.1382 68.8298 44.1076C68.8296 44.097 68.8279 38.7208 68.8176 38.7191Z" fill="#E8AD7C"/>
<path d="M83.877 38.6724C83.8359 38.6724 83.0114 38.6889 83.0114 38.7298C83.0114 44.8639 83.0128 43.8414 83.0078 44.1071C85.1411 44.5062 86.6187 43.0778 86.6187 41.4141C86.6187 39.8999 85.391 38.6724 83.877 38.6724Z" fill="#E8AD7C"/>
<path d="M71.9156 49.8333C71.9082 49.8286 71.8988 49.8338 71.8988 49.8426C71.8988 49.8505 71.8967 54.6048 71.9026 54.6099C71.9141 54.6201 75.9146 58.1477 75.9261 58.1378L79.9348 54.6099C79.9372 54.6079 79.9386 54.6048 79.9386 54.6015C79.9386 54.5708 79.9479 49.817 79.9217 49.8333C77.5984 51.2899 74.3995 51.3906 71.9156 49.8333Z" fill="#E8AD7C"/>
<path d="M75.4435 50.9417C74.1557 50.8753 72.9542 50.4797 71.9234 49.8333C71.9161 49.8286 71.9066 49.8338 71.9066 49.8426C71.9066 49.8505 71.9045 54.6048 71.9104 54.6099L75.4435 57.7193V50.9417Z" fill="#DD9E6F"/>
<path d="M80.4854 34.2704C80.3825 34.1595 80.2123 34.1447 80.092 34.236C77.6253 36.1015 73.0456 37.7226 68.7913 37.2052C68.6144 37.1845 68.4609 37.3214 68.4609 37.4979V43.9514C68.4609 48.0209 71.76 51.32 75.8296 51.32C80.3398 51.32 83.3804 47.8272 83.3804 43.9514V37.5022C83.3802 37.3254 83.5011 37.512 80.4854 34.2704Z" fill="#F9C795"/>
<path d="M71.9979 43.9509C71.9979 41.6453 71.9979 39.8888 71.9979 37.2359C69.2204 37.5106 68.4609 36.8932 68.4609 37.4973V43.9508C68.4609 48.6506 72.8309 52.2568 77.6891 51.1254C74.428 50.3659 71.9979 47.443 71.9979 43.9509Z" fill="#E8AD7C"/>
<path d="M39.7083 57.2647L29.0865 53.0938H21.0524L10.4305 57.2647C10.4305 57.2647 6.5 58.8805 6.5 63.3615C6.5 65.1859 6.5 78.6978 6.5 80.554C6.5 81.2167 7.03727 81.7542 7.70018 81.7542H42.517C43.1366 81.7542 43.6388 81.252 43.6388 80.6324C43.6388 78.7715 43.6388 65.1964 43.6388 63.3617C43.6388 58.8805 39.7083 57.2647 39.7083 57.2647Z" fill="#85C2EF"/>
<path d="M12.4144 56.4854L10.4305 57.2644C10.4305 57.2644 6.5 58.8802 6.5 63.3612C6.5 65.1857 6.5 78.6975 6.5 80.5537C6.5 81.2164 7.03727 81.7539 7.70018 81.7539H10.0371C10.0369 60.4784 9.22399 59.1664 12.4144 56.4854Z" fill="#69AFEB"/>
<path d="M67.2963 53.5818L55.0771 48.7837H45.8345L33.6153 53.5818C33.6153 53.5818 29.0938 55.4408 29.0938 60.5956C29.0938 61.6871 29.0938 79.2969 29.0938 80.3606C29.0938 81.1302 29.7176 81.7541 30.4873 81.7541H70.5144C71.2342 81.7541 71.8179 81.1706 71.8179 80.4507C71.8179 78.2772 71.8179 62.7546 71.8179 60.5956C71.8179 55.4408 67.2963 53.5818 67.2963 53.5818Z" fill="#5091D7"/>
<path d="M32.6309 58.6829C32.6309 55.874 33.9732 54.0456 35.195 52.9614L33.6153 53.5817C33.6153 53.5817 29.0938 55.4407 29.0938 60.5954C29.0938 61.687 29.0938 79.2968 29.0938 80.3605C29.0938 81.1301 29.7176 81.754 30.4873 81.754H32.6309C32.6309 78.0158 32.6309 61.2312 32.6309 58.6829Z" fill="#4B82C8"/>
<path d="M87.9339 81.7539V71.9372C87.9339 71.2047 87.3401 70.6108 86.6076 70.6108C85.8751 70.6108 85.2812 71.2047 85.2812 71.9372V81.7539H87.9339Z" fill="#69AFEB"/>
<path d="M15.7464 81.7539V71.9372C15.7464 71.2047 15.1526 70.6108 14.4201 70.6108C13.6876 70.6108 13.0938 71.2047 13.0938 71.9372V81.7539H15.7464Z" fill="#69AFEB"/>
<path d="M39.0589 81.7538V69.0905C39.0589 68.358 38.4651 67.7642 37.7326 67.7642C37.0001 67.7642 36.4062 68.358 36.4062 69.0905V81.7536H39.0589V81.7538Z" fill="#4B82C8"/>
<path d="M62.6701 67.7642C61.9376 67.7642 61.3438 68.358 61.3438 69.0905V81.7536H63.9966V69.0905C63.9964 68.358 63.4026 67.7642 62.6701 67.7642Z" fill="#4B82C8"/>
<path d="M50.6785 18.0022C44.4541 17.8771 39.3924 23.0168 39.3924 29.2426C39.3924 29.2646 39.3835 33.8099 39.4053 33.8099H61.5114V33.8098C61.5114 31.5967 61.5114 31.2142 61.5114 29.0596C61.5114 23.0271 56.6824 18.1229 50.6785 18.0022Z" fill="#585A60"/>
<path d="M41.8687 29.2431C41.8687 23.508 46.1648 18.6982 51.7074 18.0728C45.0218 17.3166 39.3906 22.6776 39.3906 29.2431C39.3906 30.8243 39.3906 32.1551 39.3906 33.7975C39.3906 33.8174 41.8616 33.8104 41.8816 33.8104C41.8625 33.8104 41.8687 29.2621 41.8687 29.2431Z" fill="#4C4F56"/>
<path d="M42.2805 32.2476C39.7653 31.8188 38.1406 33.4732 38.1406 35.3481C38.1406 37.0902 39.5526 38.5022 41.2946 38.5022C41.4933 38.5022 42.1062 38.4815 42.2946 38.4463C42.2942 38.4343 42.2924 32.2496 42.2805 32.2476Z" fill="#E8AD7C"/>
<path d="M42.2903 38.0641C40.2173 36.8415 40.2173 33.8551 42.2903 32.6324C42.2903 32.6162 42.2965 32.2503 42.2805 32.2476C39.7653 31.8188 38.1406 33.4732 38.1406 35.3481C38.1406 37.0902 39.5525 38.5022 41.2946 38.5022C41.4933 38.5022 42.1062 38.4815 42.2946 38.4463C42.2911 38.2694 42.2903 38.4604 42.2903 38.0641Z" fill="#DD9E6F"/>
<path d="M58.6157 32.2476C58.6005 32.2501 58.6059 38.2639 58.6059 38.2794C58.6059 38.3354 58.6028 38.3906 58.6016 38.4464C58.7899 38.4817 59.4027 38.5023 59.6015 38.5023C61.3433 38.5023 62.7555 37.0904 62.7555 35.3483C62.7557 33.4926 61.1556 31.8146 58.6157 32.2476Z" fill="#E8AD7C"/>
<path d="M61.5072 32.8389C60.9775 32.4358 60.3186 32.1938 59.6017 32.1938C59.5544 32.1938 58.6059 32.2128 58.6059 32.2598V38.2788C58.6059 38.3348 58.6028 38.39 58.6016 38.4458C58.7899 38.4811 59.4028 38.5017 59.6015 38.5017C60.3184 38.5017 60.9772 38.2597 61.5071 37.8568V32.8389H61.5072Z" fill="#DD9E6F"/>
<path d="M50.3321 46.324C48.6859 46.324 47.149 45.8498 45.8478 45.0332C45.8394 45.0279 45.8285 45.0339 45.8285 45.0439C45.8285 45.0528 45.8261 50.5223 45.8328 50.5283C45.8461 50.54 50.445 54.5982 50.4582 54.5865C50.4649 54.5805 55.0709 50.5276 55.0709 50.5185V45.0439C55.0709 45.0339 55.0601 45.0279 55.0517 45.0332C53.5155 45.9971 52.0004 46.324 50.3321 46.324Z" fill="#E8AD7C"/>
<path d="M49.3686 46.2677C48.0882 46.1209 46.8939 45.6871 45.8509 45.0328C45.8183 45.0123 45.8279 50.5206 45.836 50.5278L49.3686 53.6387V46.2677Z" fill="#DD9E6F"/>
<path d="M55.7001 27.1293C55.5817 27.0017 55.3861 26.9847 55.2474 27.0897C52.4098 29.2359 47.1412 31.1005 42.2472 30.5055C42.0442 30.4816 41.8672 30.6392 41.8672 30.8422V38.2662C41.8672 42.9478 45.6625 46.7429 50.3439 46.7429H50.5534C55.235 46.7429 59.0301 42.9476 59.0301 38.2662V30.8472C59.0301 30.6514 59.2054 30.8974 55.7001 27.1293Z" fill="#F9C795"/>
<path d="M45.4041 38.2684C45.4041 32.5588 45.4041 33.1502 45.4041 30.5864C42.5777 30.7794 41.8672 30.1885 41.8672 30.8425V38.2665C41.8672 43.5601 46.6875 47.6761 52.212 46.5799C48.3297 45.8046 45.4041 42.3785 45.4041 38.2684Z" fill="#E8AD7C"/>
<path d="M25.265 26.3364C19.8541 26.2276 15.4542 30.6954 15.4542 36.1073C15.4542 36.1247 15.448 40.0775 15.4654 40.0775H34.6816V40.0774C34.6816 38.2048 34.6816 37.8693 34.6816 35.9482C34.6818 30.7045 30.484 26.4413 25.265 26.3364Z" fill="#585A60"/>
<path d="M18.9911 36.1073C18.9911 31.3662 22.3679 27.3503 26.8427 26.5004C26.3297 26.4047 25.8031 26.3471 25.2648 26.3364C19.8539 26.2276 15.454 30.6954 15.454 36.1073C15.454 36.124 15.4485 40.0775 15.4652 40.0775H19.0021C18.9835 40.0775 18.9911 36.1262 18.9911 36.1073Z" fill="#4C4F56"/>
<path d="M17.966 38.7196C15.7796 38.3468 14.3672 39.785 14.3672 41.4149C14.3672 43.0583 15.8219 44.5113 17.978 44.1079C17.978 44.098 17.9758 38.7213 17.966 38.7196Z" fill="#E8AD7C"/>
<path d="M32.1683 38.7195C32.155 38.7218 32.1599 43.9494 32.1599 43.9628C32.1599 44.0114 32.1571 44.0596 32.1562 44.108C32.32 44.1386 32.8527 44.1565 33.0256 44.1565C34.5396 44.1565 35.7673 42.9292 35.7673 41.4148C35.7671 39.8018 34.3761 38.3431 32.1683 38.7195Z" fill="#E8AD7C"/>
<path d="M25.1692 50.9553H24.9645C23.5325 50.9553 22.1957 50.5429 21.0637 49.8333C21.0563 49.8286 21.0469 49.8338 21.0469 49.8426V54.6017C21.0469 54.605 21.0482 54.6079 21.0507 54.6101L25.0594 58.1379C25.0637 58.1417 25.0699 58.1417 25.0742 58.1379L29.0829 54.6101C29.0853 54.608 29.0867 54.605 29.0867 54.6017V49.8427C29.0867 49.834 29.0772 49.8288 29.0698 49.8335C27.9381 50.5433 26.6012 50.9553 25.1692 50.9553Z" fill="#E8AD7C"/>
<path d="M24.5838 50.9417C23.296 50.8753 22.0944 50.4797 21.0637 49.8333C21.0563 49.8286 21.0469 49.8338 21.0469 49.8426V54.6017C21.0469 54.6049 21.0483 54.6079 21.0507 54.6101L24.5838 57.7194V50.9417Z" fill="#DD9E6F"/>
<path d="M29.6262 34.2704C29.5233 34.1595 29.3531 34.1447 29.2328 34.236C26.7661 36.1015 22.1864 37.7226 17.9319 37.2052C17.755 37.1845 17.6016 37.3214 17.6016 37.4979V43.9514C17.6016 48.0209 20.9006 51.32 24.9702 51.32H25.1524C29.222 51.32 32.521 48.0209 32.521 43.9514V37.5022C32.521 37.3254 32.6419 37.512 29.6262 34.2704Z" fill="#F9C795"/>
<path d="M21.1405 43.9513C21.1405 40.959 21.1405 40.557 21.1405 37.5022V37.2363C20.0591 37.3432 18.9916 37.3337 17.9339 37.2052C17.8502 37.1954 17.766 37.2211 17.7027 37.2772C17.548 37.4142 17.6034 37.0694 17.6034 43.9513C17.6034 48.0209 20.9025 51.3199 24.972 51.3199H25.1542C25.7315 51.3199 26.2925 51.2514 26.8317 51.1259C23.5706 50.3662 21.1405 47.4434 21.1405 43.9513Z" fill="#E8AD7C"/>
</svg>
