<svg width="55" height="54" viewBox="0 0 55 54" fill="none" xmlns="http://www.w3.org/2000/svg">
<path d="M35.7095 2.94862V27.1307C35.7095 30.0863 33.2373 32.5045 30.2157 32.5045H0V11.0093C0 5.07126 4.91692 0.261719 10.9875 0.261719H32.9626C34.4734 0.261719 35.7095 1.47082 35.7095 2.94862Z" fill="#1AD598"/>
<path opacity="0.4" d="M54.9377 32.5043V40.565C54.9377 45.0253 51.2569 48.6257 46.697 48.6257H43.9501C43.9501 45.6701 41.4779 43.2519 38.4564 43.2519C35.4348 43.2519 32.9626 45.6701 32.9626 48.6257H21.9751C21.9751 45.6701 19.5029 43.2519 16.4813 43.2519C13.4597 43.2519 10.9875 45.6701 10.9875 48.6257H8.24065C3.68082 48.6257 0 45.0253 0 40.565V32.5043H30.2157C33.2373 32.5043 35.7095 30.0861 35.7095 27.1305V8.32227H40.7637C42.7415 8.32227 44.5544 9.37018 45.5433 11.0361L50.2405 19.0699H46.697C45.1862 19.0699 43.9501 20.279 43.9501 21.7568V29.8174C43.9501 31.2952 45.1862 32.5043 46.697 32.5043H54.9377Z" fill="#1AD598"/>
<path d="M16.4811 53.9995C19.5152 53.9995 21.9748 51.5936 21.9748 48.6257C21.9748 45.6579 19.5152 43.252 16.4811 43.252C13.4469 43.252 10.9873 45.6579 10.9873 48.6257C10.9873 51.5936 13.4469 53.9995 16.4811 53.9995Z" fill="#1AD598"/>
<path d="M38.4567 53.9995C41.4908 53.9995 43.9504 51.5936 43.9504 48.6257C43.9504 45.6579 41.4908 43.252 38.4567 43.252C35.4225 43.252 32.9629 45.6579 32.9629 48.6257C32.9629 51.5936 35.4225 53.9995 38.4567 53.9995Z" fill="#1AD598"/>
<path d="M54.9377 28.5551V32.5048H46.6971C45.1863 32.5048 43.9502 31.2957 43.9502 29.8179V21.7572C43.9502 20.2794 45.1863 19.0703 46.6971 19.0703H50.2406L54.2235 25.895C54.6905 26.701 54.9377 27.6147 54.9377 28.5551Z" fill="#1AD598"/>
</svg>
