<svg width="73" height="50" viewBox="0 0 73 50" fill="none" xmlns="http://www.w3.org/2000/svg">
<path d="M36.4033 47.9945C36.4033 47.9945 31.9908 47.9945 27.5784 45.8365C20.9597 42.5994 18.7534 39.3623 18.7534 39.3623" stroke="#3A36DB" stroke-width="3" stroke-linecap="round" stroke-linejoin="round"/>
<path d="M60.7139 1.23184C61.6866 0.708461 62.914 1.06466 63.4554 2.02743L71.9574 17.1457C72.4988 18.1085 72.1492 19.3132 71.1765 19.8366L63.1249 24.1689L52.6623 5.56413L60.7139 1.23184Z" fill="#C2C1FE"/>
<path d="M1.76115 18.6998C0.788492 18.1763 0.438985 16.9715 0.9805 16.0088L9.00487 1.74281C9.54638 0.780088 10.7739 0.424001 11.7465 0.947468L19.7977 5.28048L9.81231 23.0328L1.76115 18.6998Z" fill="#3A36DB"/>
<path d="M42.3032 4.20248C36.5943 -2.87727 24.463 1.84256 19.1109 5.08745L9.29883 22.7875C13.1642 27.2124 23.3926 36.947 33.3831 40.4869C43.3736 44.0268 53.0073 33.7021 56.5753 28.0973C54.1967 23.0823 48.0121 11.2822 42.3032 4.20248Z" fill="#C2C1FE"/>
<path d="M38.0932 6.13577C41.1189 3.17615 49.4396 4.28601 53.2217 5.21089L63.6224 23.7088L57.9493 29.2581L44.7118 20.0093C41.8752 21.859 38.0932 25.5586 33.3655 24.6337C25.8013 22.414 25.8013 18.7761 26.7468 17.2346L38.0932 6.13577Z" fill="#3A36DB"/>
</svg>
