<svg width="16" height="16" viewBox="0 0 16 16" fill="none" xmlns="http://www.w3.org/2000/svg">
<path d="M4.25 6.5C5.75 6.5 6.5 5.75 6.5 4.25V2.75C6.5 1.25 5.75 0.5 4.25 0.5H2.75C1.25 0.5 0.5 1.25 0.5 2.75V4.25C0.5 5.75 1.25 6.5 2.75 6.5H4.25Z" stroke="white" stroke-linecap="round" stroke-linejoin="round"/>
<path d="M13.25 6.5C14.75 6.5 15.5 5.75 15.5 4.25V2.75C15.5 1.25 14.75 0.5 13.25 0.5H11.75C10.25 0.5 9.5 1.25 9.5 2.75V4.25C9.5 5.75 10.25 6.5 11.75 6.5H13.25Z" stroke="white" stroke-linecap="round" stroke-linejoin="round"/>
<path d="M13.25 15.5C14.75 15.5 15.5 14.75 15.5 13.25V11.75C15.5 10.25 14.75 9.5 13.25 9.5H11.75C10.25 9.5 9.5 10.25 9.5 11.75V13.25C9.5 14.75 10.25 15.5 11.75 15.5H13.25Z" stroke="white" stroke-linecap="round" stroke-linejoin="round"/>
<path d="M4.25 15.5C5.75 15.5 6.5 14.75 6.5 13.25V11.75C6.5 10.25 5.75 9.5 4.25 9.5H2.75C1.25 9.5 0.5 10.25 0.5 11.75V13.25C0.5 14.75 1.25 15.5 2.75 15.5H4.25Z" stroke="white" stroke-linecap="round" stroke-linejoin="round"/>
</svg>