<svg width="100" height="82" viewBox="0 0 100 82" fill="none" xmlns="http://www.w3.org/2000/svg">
<path d="M32.9896 55.8169C31.1648 56.5243 29.5428 57.1532 28.9348 57.3889C26.8183 58.2598 23.9844 61.0004 23.9844 65.0672V79.8614C23.9844 80.7725 24.7229 81.5111 25.634 81.5111H32.9896V55.8169Z" fill="#8479C2"/>
<path d="M65.833 57.3889C65.2543 57.1646 63.4888 56.4801 61.4609 55.6938V81.5111H69.1337C70.0447 81.5111 70.7834 80.7726 70.7834 79.8615C70.7834 79.2794 70.7834 65.6526 70.7834 65.0672C70.7834 61.0005 67.9495 58.2599 65.833 57.3889Z" fill="#8479C2"/>
<path d="M29.1411 79.861C29.1411 79.2789 29.1411 63.3698 29.1411 62.7844C29.1411 59.6281 30.8482 57.2713 32.602 55.9668C30.8791 56.6347 29.4451 57.1907 28.9348 57.3885C26.8183 58.2595 23.9844 61 23.9844 65.0668V79.861C23.9844 80.7721 24.7229 81.5107 25.634 81.5107H30.7907C29.8797 81.5107 29.1411 80.7721 29.1411 79.861Z" fill="#6E60B8"/>
<path d="M53.4905 54.1971C53.6689 53.7486 53.7949 53.264 53.86 52.7449C53.5817 52.6371 53.4049 52.5685 53.3599 52.5511C53.0935 52.4478 52.4688 52.279 52.4688 51.5785V48.3442C52.4595 48.3503 52.4496 48.3556 52.4401 48.3615L52.44 48.2861C51.0107 49.2364 49.2972 49.7918 47.4559 49.7918C45.4773 49.7918 43.7377 49.2504 42.3136 48.3442L42.3137 51.5785C42.3137 52.279 41.6889 52.4478 41.4225 52.5511C41.371 52.571 41.1477 52.6577 40.7969 52.7937C40.8633 53.2944 40.9863 53.7629 41.1588 54.1971H53.4905Z" fill="#FFCEBE"/>
<path d="M47.3219 54.1975V49.79C45.3977 49.7667 43.7029 49.2308 42.3102 48.3447L42.3104 51.579C42.3104 52.2795 41.6855 52.4483 41.4192 52.5516C41.3676 52.5715 39.515 53.2898 39.1641 53.4259C39.2001 53.6973 39.2665 53.9537 39.3557 54.1976H47.3219V54.1975Z" fill="#FFB1A0"/>
<path d="M58.2461 34.1541C57.9482 34.3983 57.5682 34.5455 57.1553 34.5455C56.9221 34.5455 56.1807 34.1123 55.9609 34.0654L56.4751 41.0191C56.4751 41.1053 56.471 41.1905 56.4686 41.276C58.6903 41.4018 60.717 39.7583 60.717 37.7628C60.717 36.2127 59.7137 34.6388 58.2461 34.1541Z" fill="#FFCEBE"/>
<path d="M59.2247 34.6848C58.9307 34.4546 58.6024 34.2717 58.2461 34.1541C57.9482 34.3983 57.5682 34.5455 57.1553 34.5455C56.922 34.5455 56.1807 34.1122 55.9609 34.0654L56.4752 41.0191C56.4752 41.1053 56.4711 41.1905 56.4687 41.276C57.4875 41.3337 58.4646 41.0186 59.2248 40.4689V34.6848H59.2247Z" fill="#FFB1A0"/>
<path d="M38.1638 41.0187L38.8446 34.2915L37.0357 34.5451C36.6927 34.5451 36.3659 34.4784 36.0645 34.361C34.8465 34.9556 33.9219 36.3546 33.9219 37.7624C33.9219 39.7554 35.9451 41.4016 38.1701 41.2755C38.1676 41.1899 38.1638 41.1046 38.1638 41.0187Z" fill="#FFCEBE"/>
<path d="M38.2033 40.6295C37.1218 39.9687 36.3833 38.8719 36.3833 37.6487C36.3833 36.3655 37.1279 35.0904 38.1674 34.3867L37.0357 34.5453C36.6927 34.5453 36.3659 34.4785 36.0645 34.3613C34.8466 34.9558 33.9219 36.3549 33.9219 37.7627C33.9219 39.7557 35.9452 41.4019 38.1701 41.2758C38.1676 41.1902 38.1638 41.1048 38.1638 41.0189L38.2033 40.6295Z" fill="#FFB1A0"/>
<path d="M53.8594 31C53.8594 30.8235 53.6232 30.7628 53.5401 30.9184C52.4669 32.9258 50.3517 34.2921 47.9164 34.2921H38.1562V41.0193C38.1562 45.737 41.8529 50.046 47.4443 50.046C47.9872 50.046 48.4569 49.7968 48.9736 49.7045C49.441 49.621 49.9581 49.7025 50.3977 49.5499C53.9292 48.3238 56.4711 44.9627 56.4711 41.0193V34.2204C54.9842 33.9048 53.8594 32.5776 53.8594 31Z" fill="#FFDECF"/>
<path d="M44.2508 41.0187V34.2915H38.1562V41.0187C38.1562 45.7365 41.8529 50.0455 47.4443 50.0455C48.4783 50.0455 49.4711 49.8685 50.397 49.547C46.6056 48.2842 44.2508 44.7829 44.2508 41.0187Z" fill="#FFCEBE"/>
<path d="M55.8925 22.6628C55.03 22.7292 54.2386 22.1869 54.0726 21.3379C53.7929 19.9081 53.085 18.4893 50.3201 18.4893H40.7266C37.2058 18.4893 34.3516 21.3435 34.3516 24.8643V31.8608C34.3516 33.3433 35.5533 34.545 37.0358 34.545H47.9239C50.3592 34.545 52.4744 33.1787 53.5476 31.1714C53.6308 31.0158 53.8669 31.0765 53.8669 31.253C53.8669 33.0635 55.3483 34.545 57.1589 34.545C58.1079 34.545 58.8845 33.7685 58.8845 32.8194C58.8845 31.9813 58.8845 26.4403 58.8845 25.5183C58.8846 23.7983 57.3839 22.5481 55.8925 22.6628Z" fill="#695D67"/>
<path d="M40.785 31.8608V24.8643C40.785 21.3435 43.6392 18.4893 47.1602 18.4893H40.7188C37.1979 18.4893 34.3438 21.3435 34.3438 24.8643V31.8608C34.3438 33.3433 35.5456 34.545 37.0281 34.545H43.4694C41.9869 34.5452 40.785 33.3433 40.785 31.8608Z" fill="#544E55"/>
<path d="M51.9621 53.2754H33.8203C32.4073 53.2754 31.2578 54.4249 31.2578 55.8379V75.1319C31.2578 76.2703 32.0266 77.3971 33.0953 77.7153H61.6714C62.74 77.3971 63.5088 76.2703 63.5088 75.1319V63.1564C57.4994 63.0622 52.9181 59.0362 51.9621 53.2754Z" fill="#DFEBFA"/>
<path d="M37.2176 75.1319V55.8379C37.2176 54.4249 38.3671 53.2754 39.78 53.2754H33.8203C32.4073 53.2754 31.2578 54.4249 31.2578 55.8379V75.1319C31.2578 76.2703 32.0266 77.3971 33.0953 77.7153H39.055C37.9864 77.3971 37.2176 76.2705 37.2176 75.1319Z" fill="#BED8FB"/>
<path d="M48.7759 67.3458H45.8729C45.3476 67.3458 44.9219 66.9201 44.9219 66.3948C44.9219 65.8696 45.3476 65.4438 45.8729 65.4438H48.7759C49.3011 65.4438 49.7269 65.8696 49.7269 66.3948C49.7269 66.9201 49.3011 67.3458 48.7759 67.3458Z" fill="#BED8FB"/>
<path d="M65.2269 77.5879H29.545C29.3087 77.5879 29.1172 77.7813 29.1172 78.0199V79.5059C29.1172 80.6085 30.0106 81.5106 31.1025 81.5106H63.6695C64.7614 81.5106 65.6548 80.6085 65.6548 79.5059V78.0199C65.6548 77.7814 65.4633 77.5879 65.2269 77.5879Z" fill="#BED8FB"/>
<path d="M36.3557 79.5059V78.0199C36.3557 77.7814 36.5472 77.5879 36.7836 77.5879H29.545C29.3087 77.5879 29.1172 77.7813 29.1172 78.0199V79.5059C29.1172 80.6084 30.0106 81.5106 31.1025 81.5106H38.341C37.2491 81.5106 36.3557 80.6085 36.3557 79.5059Z" fill="#9DC6FB"/>
<path d="M63.7125 63.5392C70.5004 63.5392 76.0031 58.0365 76.0031 51.2486C76.0031 44.4607 70.5004 38.958 63.7125 38.958C56.9246 38.958 51.4219 44.4607 51.4219 51.2486C51.4219 58.0365 56.9246 63.5392 63.7125 63.5392Z" fill="#FF656F"/>
<path d="M56.7962 51.2486C56.7962 45.3838 60.9043 40.4793 66.3996 39.2534C65.5347 39.0605 64.6356 38.958 63.7125 38.958C56.9246 38.958 51.4219 44.4607 51.4219 51.2486C51.4219 58.0365 56.9246 63.5392 63.7125 63.5392C64.6355 63.5392 65.5346 63.4367 66.3996 63.2438C60.9042 62.0179 56.7962 57.1134 56.7962 51.2486Z" fill="#FF4756"/>
<path d="M70.5022 49.0589C70.4099 48.6209 69.8686 48.4593 69.5522 48.7758L65.6094 52.7186C65.4875 52.8404 65.3098 52.8881 65.1434 52.8435L62.8922 52.2402C62.7256 52.1957 62.5956 52.0656 62.551 51.899L61.9478 49.6479C61.9031 49.4813 61.9508 49.3037 62.0726 49.1818L66.0665 45.188C66.3814 44.8731 66.2219 44.3407 65.7882 44.2395C63.6623 43.7436 61.3283 44.3667 59.7252 46.1088C57.5249 48.4999 57.5298 52.2356 59.7359 54.6213C62.1722 57.2559 66.2849 57.3164 68.7984 54.803C70.3584 53.243 70.9255 51.0676 70.5022 49.0589Z" fill="#FFE181"/>
<path d="M59.7375 54.6214C59.0677 53.8972 58.6021 53.0482 58.3382 52.1504L52.9219 57.5667C53.4294 58.4123 54.0469 59.2104 54.776 59.9394C55.505 60.6683 56.303 61.2858 57.1486 61.7935L62.5609 56.3812C61.5166 56.0709 60.5367 55.4855 59.7375 54.6214Z" fill="#FEC458"/>
</svg>
