<svg width="70" height="70" viewBox="0 0 70 70" fill="none" xmlns="http://www.w3.org/2000/svg">
<g clip-path="url(#clip0_3539_51988)">
<path d="M27.1921 56.6497C41.1053 56.6497 52.3842 45.4713 52.3842 31.682C52.3842 17.8928 41.1053 6.71436 27.1921 6.71436C13.2789 6.71436 2 17.8928 2 31.682C2 45.4713 13.2789 56.6497 27.1921 56.6497Z" fill="#EEE6E3"/>
<path d="M47.7128 26.621L46.246 24.1533C46.0322 23.7938 45.5654 23.676 45.2049 23.8866L39.0619 27.4737C38.7002 27.6849 38.5797 28.1468 38.7929 28.5054C39.0061 28.8642 39.4724 28.9832 39.8339 28.7721L42.3084 27.3271L43.2729 28.9495C43.4147 29.188 43.6683 29.3206 43.9287 29.3206C44.5119 29.3206 44.8828 28.6885 44.5831 28.1844L43.6187 26.5621L45.3219 25.5675L46.4028 27.3859C46.616 27.7446 47.0822 27.8639 47.4438 27.6526C47.8055 27.4414 47.926 26.9795 47.7128 26.621Z" fill="#30B0D8"/>
<path d="M15.3695 26.1787C15.0028 25.9764 14.5395 26.1071 14.3354 26.4708L13.2471 28.4093L11.4664 27.4273L12.4474 25.6802C12.6515 25.3166 12.5196 24.8577 12.1527 24.6553C11.786 24.453 11.3227 24.5837 11.1186 24.9474L10.1377 26.6945L8.35703 25.7124L9.44541 23.7738C9.6495 23.4102 9.51764 22.9513 9.15068 22.749C8.78402 22.5467 8.32072 22.6774 8.11662 23.0411L6.65853 25.6382C6.45444 26.0018 6.5863 26.4608 6.95326 26.6631L10.0623 28.3776C10.0624 28.3777 10.0626 28.3778 10.0627 28.3779C10.0628 28.378 10.0629 28.378 10.0631 28.3781L13.1723 30.0928C13.5384 30.2948 14.0019 30.165 14.2063 29.8007L15.6644 27.2037C15.8684 26.84 15.7365 26.3811 15.3695 26.1787Z" fill="#E04955"/>
<path d="M27.2603 11.5879C26.8403 11.5879 26.5 11.9252 26.5 12.3414V17.4574C26.5 17.8737 26.8404 18.211 27.2603 18.211C27.6802 18.211 28.0206 17.8736 28.0206 17.4574V12.3414C28.0206 11.9252 27.6803 11.5879 27.2603 11.5879Z" fill="#766D78"/>
<path d="M36.5505 14.209C36.1866 14.0009 35.7217 14.1243 35.5119 14.4849L32.931 18.9155C32.6371 19.4199 33.0091 20.0459 33.5888 20.0459C33.8515 20.0459 34.1072 19.9108 34.2479 19.6691L36.8288 15.2384C37.0388 14.878 36.9141 14.4172 36.5505 14.209Z" fill="#766D78"/>
<path d="M43.4284 20.8329C43.2185 20.4725 42.7532 20.3491 42.3898 20.5571L37.9194 23.115C37.5557 23.3232 37.4311 23.784 37.6411 24.1444C37.7819 24.3862 38.0374 24.5212 38.3002 24.5212C38.5845 24.5212 38.3074 24.6332 43.1501 21.8622C43.5137 21.6541 43.6384 21.1933 43.4284 20.8329Z" fill="#30B0D8"/>
<path d="M18.997 14.4848C18.7871 14.1244 18.3219 14.0009 17.9584 14.209C17.5948 14.4171 17.4701 14.8779 17.6801 15.2383L20.261 19.6689C20.4709 20.0295 20.9362 20.1526 21.2996 19.9447C21.6632 19.7366 21.7879 19.2757 21.5779 18.9154L18.997 14.4848Z" fill="#766D78"/>
<path d="M16.5954 23.1151L12.125 20.5572C11.7611 20.349 11.2962 20.4725 11.0864 20.833C10.8764 21.1934 11.0011 21.6543 11.3647 21.8623L15.8351 24.4202C16.1993 24.6285 16.6641 24.5045 16.8737 24.1444C17.0837 23.784 16.959 23.3232 16.5954 23.1151Z" fill="#E04955"/>
<path d="M28.9662 56.5885C28.3803 56.6296 27.7881 56.6497 27.1921 56.6497C13.2792 56.6497 2 45.471 2 31.682C2 17.8931 13.2792 6.71436 27.1921 6.71436C27.7881 6.71436 28.3803 6.73445 28.9662 6.7756C15.8815 7.67785 5.54815 18.4839 5.54815 31.682C5.54815 44.8802 15.8815 55.6861 28.9662 56.5885Z" fill="#E9DEDA"/>
</g>
<path d="M68.0014 60.677C68.0014 62.1468 66.7882 63.3492 65.3052 63.3492H20.3134C18.8304 63.3492 17.6172 62.1468 17.6172 60.677V34.3543C17.6172 32.8845 18.8304 31.6821 20.3134 31.6821H65.3052C66.788 31.6821 68.0014 32.8845 68.0014 34.3543V60.677Z" fill="#61B8CC"/>
<path d="M68.0033 36.1763H32.7344C32.7344 36.1763 33.2382 36.6756 33.7421 37.6743C34.2459 38.673 34.2459 39.6717 34.2459 39.6717H68.0033V36.1763Z" fill="#333E48"/>
<path d="M63.7741 48.7174C63.7741 49.3054 63.2889 49.7863 62.6956 49.7863H56.8988C56.3057 49.7863 55.8203 49.3052 55.8203 48.7174V45.2436C55.8203 44.6557 56.3057 44.1748 56.8988 44.1748H62.6956C63.2889 44.1748 63.7741 44.6558 63.7741 45.2436V48.7174Z" fill="#FED771"/>
<path d="M59.791 49.0348C61.4274 49.0348 62.7539 48.1155 62.7539 46.9815C62.7539 45.8475 61.4274 44.9282 59.791 44.9282C58.1547 44.9282 56.8281 45.8475 56.8281 46.9815C56.8281 48.1155 58.1547 49.0348 59.791 49.0348Z" fill="#E5AB46"/>
<path d="M24.0984 57.4978C24.0984 57.608 24.0104 57.6905 23.8994 57.6905H22.4689C22.3578 57.6905 22.2745 57.608 22.2745 57.4978C22.2745 57.3877 22.3578 57.3005 22.4689 57.3005H23.0199V54.9747L22.5477 55.204C22.5152 55.2178 22.4875 55.2315 22.4412 55.2315C22.3255 55.2315 22.2422 55.1489 22.2422 55.0343C22.2422 54.9471 22.2793 54.8875 22.3626 54.8461L22.9921 54.5204C23.0291 54.502 23.0754 54.4883 23.1217 54.4883H23.219C23.3394 54.4883 23.4412 54.5892 23.4412 54.7084V57.3005H23.8995C24.0104 57.3004 24.0984 57.3877 24.0984 57.4978Z" fill="white"/>
<path d="M27.0906 57.4978C27.0906 57.608 27.0027 57.6905 26.8915 57.6905H25.1047C24.9612 57.6905 24.8594 57.5941 24.8594 57.452C24.8594 56.484 26.711 56.1536 26.711 55.4059C26.711 55.0801 26.5166 54.8368 25.9797 54.8368C25.6648 54.8368 25.3964 54.9102 25.1881 55.002C25.1789 55.0067 25.1371 55.025 25.1001 55.025C24.9983 55.025 24.9242 54.947 24.9242 54.8461C24.9242 54.768 24.9567 54.7132 25.0261 54.6764C25.2853 54.5479 25.6279 54.4424 26.0537 54.4424C26.6463 54.4424 27.1184 54.8139 27.1184 55.3737C27.1184 56.3188 25.5307 56.7638 25.2806 57.3007H26.8915C27.0027 57.3004 27.0906 57.3877 27.0906 57.4978Z" fill="white"/>
<path d="M27.6875 55.4839C27.6875 54.9057 28.1226 54.4424 28.8309 54.4424C29.9742 54.4424 30.0992 55.4564 30.0992 56.0848C30.0992 56.8006 29.7751 57.7365 28.7568 57.7365C28.3726 57.7365 28.1226 57.6355 27.9375 57.5393C27.8818 57.5118 27.8402 57.4429 27.8402 57.3741C27.8402 57.2777 27.9142 57.1859 28.03 57.1859C28.0577 57.1859 28.0856 57.1905 28.1087 57.1998C28.2661 57.273 28.4697 57.3327 28.7244 57.3327C29.5206 57.3327 29.6733 56.5712 29.6965 56.1582C29.5437 56.351 29.2568 56.5621 28.7476 56.5621C28.1179 56.5621 27.6875 56.14 27.6875 55.4839ZM28.1087 55.4929C28.1087 55.8967 28.3356 56.1811 28.7984 56.1811C29.3447 56.1811 29.5761 55.8555 29.6733 55.6764C29.6084 55.2314 29.4048 54.8322 28.8262 54.8322C28.3864 54.8323 28.1087 55.1397 28.1087 55.4929Z" fill="white"/>
<path d="M32.3682 55.9748C32.7802 56.1123 33.0579 56.3738 33.0579 56.8418C33.0579 57.2502 32.7431 57.7365 31.8219 57.7365C30.9008 57.7365 30.5859 57.2502 30.5859 56.8418C30.5859 56.3738 30.8637 56.1125 31.2757 55.9748C30.9887 55.8783 30.7386 55.6536 30.7386 55.2773C30.7386 54.9195 31.0117 54.4424 31.8218 54.4424C32.6319 54.4424 32.905 54.9195 32.905 55.2773C32.9051 55.6536 32.6551 55.8785 32.3682 55.9748ZM32.6366 56.7961C32.6366 56.3831 32.2478 56.1766 31.8219 56.1766C31.3961 56.1766 31.0073 56.3831 31.0073 56.7961C31.0073 57.0025 31.2017 57.3695 31.8219 57.3695C32.4423 57.3695 32.6366 57.0024 32.6366 56.7961ZM31.8219 55.8004C32.3266 55.8004 32.4839 55.5161 32.4839 55.3049C32.4839 55.0343 32.271 54.8096 31.8219 54.8096C31.3728 54.8096 31.16 55.0345 31.16 55.3049C31.16 55.5161 31.3173 55.8004 31.8219 55.8004Z" fill="white"/>
<path d="M34.7031 55.4839C34.7031 54.9057 35.1382 54.4424 35.8465 54.4424C36.9899 54.4424 37.1148 55.4564 37.1148 56.0848C37.1148 56.8006 36.7907 57.7365 35.7724 57.7365C35.3882 57.7365 35.1382 57.6355 34.9531 57.5393C34.8974 57.5118 34.8558 57.4429 34.8558 57.3741C34.8558 57.2777 34.9299 57.1859 35.0456 57.1859C35.0733 57.1859 35.1012 57.1905 35.1243 57.1998C35.2817 57.273 35.4853 57.3327 35.74 57.3327C36.5362 57.3327 36.6889 56.5712 36.7121 56.1582C36.5593 56.351 36.2724 56.5621 35.7632 56.5621C35.1335 56.5621 34.7031 56.14 34.7031 55.4839ZM35.1243 55.4929C35.1243 55.8967 35.3512 56.1811 35.8141 56.1811C36.3603 56.1811 36.5918 55.8555 36.6889 55.6764C36.624 55.2314 36.4204 54.8322 35.8418 54.8322C35.4021 54.8323 35.1243 55.1397 35.1243 55.4929Z" fill="white"/>
<path d="M39.3838 55.9748C39.7958 56.1123 40.0736 56.3738 40.0736 56.8418C40.0736 57.2502 39.7587 57.7365 38.8376 57.7365C37.9164 57.7365 37.6016 57.2502 37.6016 56.8418C37.6016 56.3738 37.8793 56.1125 38.2913 55.9748C38.0044 55.8783 37.7542 55.6536 37.7542 55.2773C37.7542 54.9195 38.0273 54.4424 38.8374 54.4424C39.6475 54.4424 39.9206 54.9195 39.9206 55.2773C39.9207 55.6536 39.6708 55.8785 39.3838 55.9748ZM39.6522 56.7961C39.6522 56.3831 39.2634 56.1766 38.8376 56.1766C38.4117 56.1766 38.0229 56.3831 38.0229 56.7961C38.0229 57.0025 38.2174 57.3695 38.8376 57.3695C39.4579 57.3695 39.6522 57.0024 39.6522 56.7961ZM38.8376 55.8004C39.3422 55.8004 39.4995 55.5161 39.4995 55.3049C39.4995 55.0343 39.2867 54.8096 38.8376 54.8096C38.3885 54.8096 38.1756 55.0345 38.1756 55.3049C38.1756 55.5161 38.3331 55.8004 38.8376 55.8004Z" fill="white"/>
<path d="M42.8571 56.8508C42.8571 57.4335 42.334 57.7364 41.6582 57.7364C41.2462 57.7364 40.9176 57.6446 40.6907 57.5528C40.6213 57.5253 40.5703 57.4656 40.5703 57.3785C40.5703 57.282 40.6444 57.1857 40.7556 57.1857C40.7833 57.1857 40.8204 57.1949 40.8435 57.2041C41.0286 57.2775 41.2786 57.3372 41.5796 57.3372C41.9822 57.3372 42.4359 57.2316 42.4359 56.8279C42.4359 56.4884 42.1767 56.2499 41.4129 56.2499H41.3388C41.2323 56.2499 41.1443 56.1627 41.1443 56.0572C41.1443 55.9516 41.2323 55.8644 41.3388 55.8644H41.3666C41.9729 55.8644 42.3201 55.681 42.3201 55.3094C42.3201 55.025 42.084 54.8323 41.5888 54.8323C41.2972 54.8323 41.0611 54.8966 40.8713 54.9836C40.8482 54.9928 40.825 55.002 40.788 55.002C40.6955 55.002 40.6168 54.9332 40.6168 54.8323C40.6168 54.768 40.6492 54.7084 40.7093 54.6764C40.9268 54.5617 41.237 54.4424 41.6259 54.4424C42.3387 54.4424 42.7415 54.7452 42.7415 55.2683C42.7415 55.7317 42.4452 55.938 42.1813 56.0344C42.4404 56.0939 42.8571 56.2867 42.8571 56.8508Z" fill="white"/>
<path d="M45.7311 57.4978C45.7311 57.608 45.6431 57.6905 45.5321 57.6905H43.7453C43.6018 57.6905 43.5 57.5941 43.5 57.452C43.5 56.484 45.3517 56.1536 45.3517 55.4059C45.3517 55.0801 45.1572 54.8368 44.6203 54.8368C44.3054 54.8368 44.0371 54.9102 43.8287 55.002C43.8195 55.0067 43.7779 55.025 43.7408 55.025C43.6389 55.025 43.5649 54.947 43.5649 54.8461C43.5649 54.768 43.5973 54.7132 43.6667 54.6764C43.9259 54.5479 44.2685 54.4424 44.6944 54.4424C45.2869 54.4424 45.759 54.8139 45.759 55.3737C45.759 56.3188 44.1713 56.7638 43.9212 57.3007H45.5322C45.6431 57.3004 45.7311 57.3877 45.7311 57.4978Z" fill="white"/>
<path d="M47.5391 55.4839C47.5391 54.9057 47.9741 54.4424 48.6824 54.4424C49.8258 54.4424 49.9507 55.4564 49.9507 56.0848C49.9507 56.8006 49.6267 57.7365 48.6084 57.7365C48.2241 57.7365 47.9741 57.6355 47.789 57.5393C47.7334 57.5118 47.6917 57.4429 47.6917 57.3741C47.6917 57.2777 47.7658 57.1859 47.8815 57.1859C47.9093 57.1859 47.9372 57.1905 47.9603 57.1998C48.1176 57.273 48.3213 57.3327 48.5759 57.3327C49.3722 57.3327 49.5248 56.5712 49.5481 56.1582C49.3953 56.351 49.1083 56.5621 48.5992 56.5621C47.9695 56.5621 47.5391 56.14 47.5391 55.4839ZM47.9603 55.4929C47.9603 55.8967 48.1872 56.1811 48.65 56.1811C49.1963 56.1811 49.4277 55.8555 49.5248 55.6764C49.46 55.2314 49.2563 54.8322 48.6778 54.8322C48.238 54.8323 47.9603 55.1397 47.9603 55.4929Z" fill="white"/>
<path d="M52.2198 55.9748C52.6318 56.1123 52.9095 56.3738 52.9095 56.8418C52.9095 57.2502 52.5947 57.7365 51.6735 57.7365C50.7523 57.7365 50.4375 57.2502 50.4375 56.8418C50.4375 56.3738 50.7152 56.1125 51.1272 55.9748C50.8403 55.8783 50.5902 55.6536 50.5902 55.2773C50.5902 54.9195 50.8632 54.4424 51.6734 54.4424C52.4835 54.4424 52.7565 54.9195 52.7565 55.2773C52.7567 55.6536 52.5067 55.8785 52.2198 55.9748ZM52.4881 56.7961C52.4881 56.3831 52.0994 56.1766 51.6735 56.1766C51.2476 56.1766 50.8588 56.3831 50.8588 56.7961C50.8588 57.0025 51.0533 57.3695 51.6735 57.3695C52.2938 57.3695 52.4881 57.0024 52.4881 56.7961ZM51.6735 55.8004C52.1781 55.8004 52.3355 55.5161 52.3355 55.3049C52.3355 55.0343 52.1226 54.8096 51.6735 54.8096C51.2244 54.8096 51.0115 55.0345 51.0115 55.3049C51.0115 55.5161 51.1689 55.8004 51.6735 55.8004Z" fill="white"/>
<path d="M55.7688 56.6995C55.7688 57.2868 55.38 57.7364 54.5004 57.7364C54.0698 57.7364 53.7459 57.6171 53.5145 57.4703C53.4682 57.4381 53.4219 57.4015 53.4219 57.3052C53.4219 57.1996 53.4959 57.1078 53.6071 57.1078C53.6441 57.1078 53.6765 57.1169 53.7043 57.1308C53.9034 57.2364 54.1532 57.3236 54.4449 57.3236C54.9911 57.3236 55.3476 57.1721 55.3476 56.6766C55.3476 56.3004 55.0745 56.0619 54.6301 56.0619C54.3153 56.0619 54.07 56.1674 53.9172 56.2592C53.8755 56.282 53.8292 56.3142 53.7551 56.3142C53.5839 56.3142 53.4496 56.2133 53.4496 56.048C53.4496 56.0159 53.4543 55.9655 53.4588 55.938L53.6672 54.7176C53.6856 54.5754 53.7829 54.4883 53.9125 54.4883H55.3985C55.5096 54.4883 55.5976 54.5754 55.5976 54.6855C55.5976 54.7955 55.5096 54.8782 55.3985 54.8782H54.0559L53.9078 55.8508C54.0976 55.7499 54.3476 55.6627 54.6902 55.6627C55.3892 55.6626 55.7688 56.1031 55.7688 56.6995Z" fill="white"/>
<path d="M58.7917 56.6996C58.7917 56.8051 58.7084 56.883 58.6019 56.883H58.2501V57.507C58.2501 57.6216 58.1528 57.7134 58.0372 57.7134C57.9215 57.7134 57.8289 57.6218 57.8289 57.507V56.883H56.417C56.2688 56.883 56.1484 56.7685 56.1484 56.6217V56.5804C56.1484 56.5206 56.1717 56.4564 56.2041 56.4152L57.6576 54.5755C57.7085 54.5112 57.7964 54.4653 57.8891 54.4653H57.9817C58.1437 54.4653 58.2502 54.5848 58.2502 54.7315V56.5116H58.602C58.7084 56.5115 58.7917 56.594 58.7917 56.6996ZM57.8289 56.5115V54.9378L56.5975 56.5115H57.8289Z" fill="white"/>
<path d="M27.1041 22.2206L24.1172 39.9074H31.3455L28.3585 22.2206C28.2401 21.5189 27.2226 21.5189 27.1041 22.2206Z" fill="#FED22B"/>
<path d="M27.7251 45.6357C30.5245 45.6357 32.7939 43.3866 32.7939 40.6121C32.7939 37.8376 30.5245 35.5884 27.7251 35.5884C24.9256 35.5884 22.6562 37.8376 22.6562 40.6121C22.6562 43.3866 24.9256 45.6357 27.7251 45.6357Z" fill="#E04955"/>
<path d="M29.4992 45.3182C28.9467 45.5242 28.3485 45.6357 27.7251 45.6357C24.9261 45.6357 22.6562 43.3861 22.6562 40.6121C22.6562 37.838 24.9261 35.5884 27.7251 35.5884C28.3486 35.5884 28.9467 35.6999 29.4992 35.9058C27.575 36.6182 26.2044 38.4568 26.2044 40.6121C26.2044 42.7672 27.575 44.6058 29.4992 45.3182Z" fill="#C62430"/>
<defs>
<clipPath id="clip0_3539_51988">
<rect width="50.3842" height="49.9354" fill="white" transform="translate(2 6.71436)"/>
</clipPath>
</defs>
</svg>
