<svg width="16" height="16" viewBox="0 0 16 16" fill="none" xmlns="http://www.w3.org/2000/svg">
<path fill-rule="evenodd" clip-rule="evenodd" d="M14.1601 5.28849C13.8867 5.15549 13.5468 5.25894 13.4138 5.53233C13.2734 5.81311 13.3842 6.14561 13.6576 6.27861L14.8325 6.86233V10.4016L12.0616 10.409V2.82799C12.0616 1.35022 11.0715 0.611328 9.84497 0.611328H3.93385C2.7073 0.611328 1.71719 1.35022 1.71719 2.82799V14.8349H0.608854C0.30591 14.8349 0.0546875 15.0862 0.0546875 15.3891C0.0546875 15.6921 0.30591 15.9433 0.608854 15.9433H13.17C13.4729 15.9433 13.7241 15.6921 13.7241 15.3891C13.7241 15.0862 13.4729 14.8349 13.17 14.8349H12.0616V11.5173L15.3866 11.5099C15.697 11.5099 15.9408 11.2587 15.9408 10.9558V6.52244C15.9408 6.31555 15.8226 6.12344 15.6379 6.02738L14.1601 5.28849ZM4.96091 2.82799H8.8253C9.58635 2.82799 10.2144 3.19744 10.2144 4.22449V5.13333C10.2144 6.15299 9.58635 6.52244 8.81791 6.52244H4.96091C4.19247 6.52244 3.56441 6.15299 3.56441 5.12594V4.22449C3.56441 3.19744 4.19247 2.82799 4.96091 2.82799ZM6.15052 8.18494C6.45347 8.18494 6.70469 8.43616 6.70469 8.73911C6.70469 9.04205 6.45347 9.29327 6.15052 9.29327H3.93385C3.63091 9.29327 3.37969 9.04205 3.37969 8.73911C3.37969 8.43616 3.63091 8.18494 3.93385 8.18494H6.15052Z" fill="#FF6669"/>
</svg>