<svg width="109" height="108" viewBox="0 0 109 108" fill="none" xmlns="http://www.w3.org/2000/svg">
<circle cx="54.3359" cy="54" r="54" fill="#CCE6FD"/>
<path d="M9.03125 83.4243H99.6164C99.6164 83.4243 92.6519 94.1427 82.2615 100.29C68.6438 108.347 56.3789 108 56.3789 108C56.3789 108 41.9224 108.808 28.6462 101.521C15.37 94.2335 9.03125 83.4243 9.03125 83.4243Z" fill="#AEBF3E"/>
<path d="M79.7988 53.4603H74.6049C73.6883 43.7599 65.9484 35.9945 56.2481 35.1034V29.9095C56.2481 28.8656 55.3824 28 54.3385 28C53.2947 28 52.429 28.8656 52.429 29.9095V35.1034C42.7287 36.02 34.9633 43.7599 34.0722 53.4603H28.8783C27.8344 53.4603 26.9688 54.3259 26.9688 55.3698C26.9688 56.4137 27.8344 57.2793 28.8783 57.2793H34.0722C34.9887 66.9797 42.7287 74.745 52.429 75.6362V80.83C52.429 81.8739 53.2947 82.7396 54.3385 82.7396C55.3824 82.7396 56.2481 81.8739 56.2481 80.83V75.6362C65.9484 74.7196 73.7138 66.9797 74.6049 57.2793H79.7988C80.8427 57.2793 81.7083 56.4137 81.7083 55.3698C81.7083 54.3259 80.8427 53.4603 79.7988 53.4603ZM54.3385 63.3134C49.9594 63.3134 46.3949 59.749 46.3949 55.3698C46.3949 50.9906 49.9594 47.4262 54.3385 47.4262C58.7177 47.4262 62.2821 50.9906 62.2821 55.3698C62.2821 59.749 58.7177 63.3134 54.3385 63.3134Z" fill="#004F9F"/>
</svg>