<svg width="109" height="109" viewBox="0 0 109 109" fill="none" xmlns="http://www.w3.org/2000/svg">
<circle cx="54.5625" cy="54.25" r="54" fill="#CCE6FD"/>
<path fill-rule="evenodd" clip-rule="evenodd" d="M99.849 83.6719C90.2168 98.4654 73.5322 108.246 54.5632 108.246C35.5941 108.246 18.9095 98.4654 9.27734 83.6719H99.849Z" fill="#AEBF3E"/>
<rect x="26.3242" y="41.6719" width="37.4733" height="5.09748" rx="2.54874" fill="#004F9F"/>
<path d="M26.3242 82.6045C26.3242 81.3473 27.3434 80.3281 28.6006 80.3281H81.7159C82.9731 80.3281 83.9923 81.3473 83.9923 82.6045V82.6045C83.9923 83.8617 82.9731 84.8809 81.7159 84.8809H28.6006C27.3434 84.8809 26.3242 83.8617 26.3242 82.6045V82.6045Z" fill="#004F9F"/>
<rect x="31.6836" y="41.6719" width="26.7667" height="40.7798" fill="#004F9F"/>
<path d="M53.9966 62.7338C53.8216 63.5395 53.7736 64.3727 52.5935 64.4313C51.1356 64.5036 50.6107 63.9837 50.7617 62.4824C51.0224 59.8622 49.8869 57.8342 47.6022 56.605C45.5783 55.5169 43.496 55.6822 41.6367 57.0767C39.5098 58.6743 38.7826 60.871 39.3589 63.4465C39.8186 65.5124 41.129 66.9069 43.0912 67.685C43.1701 67.716 43.2422 67.7608 43.3588 67.8228C42.5389 68.8247 42.6075 69.8026 43.496 70.87C41.8768 70.6221 40.5904 70.0195 39.4481 69.0967C36.6797 66.8552 35.5717 63.9079 36.148 60.4579C36.7895 56.6084 39.1874 54.2189 42.9163 53.1687C43.2113 53.0861 43.52 53.0551 43.8219 53C44.6212 53 45.4171 53 46.2163 53C47.7806 53.2617 49.2214 53.8057 50.4769 54.8077C52.5283 56.4432 53.6672 58.5814 54 61.174V62.7372L53.9966 62.7338Z" fill="#F0FFFC"/>
<path d="M53.9927 69.5687C53.883 69.7168 53.7732 69.8648 53.6634 70.0094C52.8058 71.1147 51.9962 71.311 50.9259 70.1541C48.8402 67.9057 46.6447 65.764 44.511 63.5639C43.7083 62.7375 44.3018 62.1246 44.8884 61.5324C45.4715 60.9436 46.0753 60.8679 46.6859 61.4807C48.9603 63.7567 51.2312 66.0326 53.4953 68.3189C53.6874 68.5117 53.8315 68.7527 53.9962 68.9731V69.5756L53.9927 69.5687Z" fill="#F0FFFC"/>
<path d="M43.6017 69.2448C43.612 68.6663 45.5982 66.3904 46.0236 66.5729C46.8812 66.9482 47.5879 67.6093 47.9172 68.5045C48.0716 68.928 45.7423 71.0008 45.2277 70.9973C44.6343 70.9939 43.588 69.868 43.6017 69.2448Z" fill="#F0FFFC"/>
<rect x="63.7891" y="62.0703" width="4.015" height="22.9386" rx="2.0075" fill="#004F9F"/>
<path d="M79.8499 42.2893C80.4582 41.5094 81.6077 41.343 82.4126 41.9183V41.9183C83.2116 42.4894 83.3693 43.5764 82.7653 44.3506L67.2429 64.2502C66.6346 65.0301 65.4851 65.1965 64.6802 64.6212V64.6212C63.8812 64.0501 63.7236 62.9631 64.3275 62.1889L79.8499 42.2893Z" fill="#004F9F"/>
</svg>
