<svg width="24" height="33" viewBox="0 0 24 33" fill="none" xmlns="http://www.w3.org/2000/svg">
<path d="M24 12.375C24 21.6562 16 33 12 33C8 33 0 21.6562 0 12.375C0 5.54048 5.37258 0 12 0C18.6274 0 24 5.54048 24 12.375Z" fill="#00499B"/>
<path d="M12 20C16.4183 20 20 16.4183 20 12C20 7.58172 16.4183 4 12 4C7.58172 4 4 7.58172 4 12C4 16.4183 7.58172 20 12 20Z" fill="white"/>
<path d="M12.9021 7.83655L11.7311 9.72495L9.32244 9.71682C9.25284 9.71688 9.18466 9.73545 9.12525 9.77053C9.06584 9.80561 9.01745 9.85587 8.98529 9.91589C8.95313 9.97591 8.93842 10.0434 8.94275 10.1111C8.94708 10.1789 8.97028 10.2443 9.00985 10.3002L10.9531 13.0191L9.44654 13.0158C9.3994 13.0154 9.35309 13.0033 9.31201 12.9806C9.27092 12.9579 9.23641 12.9254 9.21175 12.8861L7.65611 10.4137C7.631 10.3735 7.61702 10.3276 7.61555 10.2806C7.61408 10.2337 7.62518 10.1872 7.64775 10.1457L9.04673 7.56593C9.0692 7.52237 9.10377 7.48587 9.14652 7.46057C9.18927 7.43526 9.23849 7.42217 9.2886 7.42277L12.6634 7.42511C12.7124 7.4258 12.7605 7.43906 12.8027 7.46358C12.845 7.48809 12.8799 7.52298 12.904 7.56475C12.928 7.60651 12.9404 7.65367 12.9399 7.70148C12.9394 7.74928 12.9259 7.79605 12.9009 7.83707" fill="#27529A"/>
<path d="M12.9233 13.0351L10.9572 13.0279L8.98448 10.2958C8.94441 10.2394 8.92093 10.1735 8.91659 10.1052C8.91225 10.0369 8.92722 9.96884 8.95987 9.90843C8.99251 9.84802 9.04158 9.79757 9.10174 9.76258C9.16189 9.7276 9.23081 9.70942 9.30099 9.71002L11.7434 9.72038L11.523 10.0712C11.4951 10.1158 11.4811 10.1674 11.4826 10.2198C11.4841 10.2721 11.5011 10.323 11.5315 10.3662L13.1526 12.6131C13.1819 12.6537 13.199 12.7014 13.2023 12.7509C13.2055 12.8003 13.1947 12.8496 13.171 12.8933C13.1472 12.937 13.1115 12.9734 13.0678 12.9985C13.0241 13.0236 12.9741 13.0364 12.9233 13.0354" fill="#FFCC6F"/>
<path d="M12.0832 12.5679L11.3829 11.658C11.3658 11.6391 11.3417 11.6274 11.3159 11.6255L10.7331 11.6015C10.7091 11.6006 10.6997 11.6133 10.7132 11.6312L11.4135 12.541C11.4307 12.5599 11.4547 12.5715 11.4805 12.5734L12.0634 12.5974C12.0873 12.5985 12.0967 12.5856 12.0833 12.5687" fill="white"/>
<path d="M16.519 13.309L14.3813 9.91164C14.3474 9.85708 14.2997 9.8119 14.2428 9.78044C14.1859 9.74899 14.1217 9.73233 14.0564 9.73207L11.7307 9.72552L11.5135 10.0743C11.486 10.1188 11.4721 10.1701 11.4736 10.2221C11.475 10.2741 11.4916 10.3248 11.5215 10.368L13.1183 12.6034C13.1473 12.6438 13.1643 12.6911 13.1675 12.7402C13.1708 12.7893 13.1601 12.8382 13.1367 12.8816C13.1133 12.9251 13.0781 12.9614 13.0349 12.9865C12.9917 13.0117 12.9421 13.0247 12.8917 13.0243L10.9528 13.0187L11.2048 13.3734C11.245 13.433 11.2674 13.5022 11.2696 13.5734C11.2718 13.6446 11.2537 13.7149 11.2172 13.7764L9.30737 16.8526C9.27305 16.909 9.25465 16.9733 9.25404 17.039C9.25342 17.1047 9.27062 17.1694 9.30389 17.2267C9.33716 17.284 9.38532 17.3318 9.44349 17.3652C9.50167 17.3986 9.5678 17.4165 9.6352 17.4171L14.273 17.4205C14.3422 17.4212 14.4102 17.4033 14.4694 17.3687C14.5286 17.3341 14.5768 17.2841 14.6086 17.2244L16.5323 13.6781C16.5609 13.6202 16.5746 13.5563 16.5723 13.492C16.57 13.4276 16.5519 13.3647 16.5193 13.3085" fill="#00499B"/>
</svg>
