<svg width="18" height="13" viewBox="0 0 18 13" fill="none" xmlns="http://www.w3.org/2000/svg">
<path d="M15.1876 6.43182L16.9255 5.56284C16.9923 5.52943 17.0518 5.48305 17.1005 5.4264C17.1492 5.36975 17.1862 5.30397 17.2092 5.2329C17.2322 5.16183 17.2408 5.08689 17.2345 5.01245C17.2282 4.93802 17.2072 4.86557 17.1726 4.79936L15.4434 1.48785C15.3751 1.35713 15.2583 1.25844 15.118 1.21304C14.9777 1.16763 14.8251 1.17915 14.6932 1.2451L12.9376 2.12293L15.1876 6.43182ZM15.1876 6.43182L14.0626 7.74793C14.0626 7.74793 11.7284 10.1368 11 10.501C8.74178 11.6301 5.5 9.50098 2.81257 6.35646M2.81257 6.35646L1.07461 5.48748C1.0078 5.45407 0.948309 5.40769 0.899613 5.35104C0.850918 5.2944 0.813993 5.22862 0.790994 5.15754C0.767996 5.08647 0.759384 5.01153 0.765662 4.93709C0.771939 4.86266 0.79298 4.79022 0.827557 4.724L2.55675 1.41249C2.62501 1.28177 2.74187 1.18308 2.88218 1.13768C3.02249 1.09227 3.17502 1.10379 3.30692 1.16974L5.06257 2.04756L2.81257 6.35646Z" stroke="white" stroke-linecap="round" stroke-linejoin="round"/>
<path d="M14.0616 7.74833L10.9679 5.49833L10.0679 6.17333C9.6784 6.46543 9.2047 6.62333 8.71786 6.62333C8.23103 6.62333 7.75733 6.46543 7.36786 6.17333L6.98672 5.88747C6.92225 5.83911 6.86892 5.77747 6.83034 5.70671C6.79177 5.63595 6.76885 5.55773 6.76313 5.47734C6.75742 5.39696 6.76905 5.31628 6.79723 5.24078L6.92647 4.98362C6.92647 4.98362 8.99902 2.49884 9.8606 2.16614C10.7222 1.83345 12.8627 2.2164 12.9366 2.2164V2.12333" stroke="white" stroke-linecap="round" stroke-linejoin="round"/>
<path d="M5.10269 2.04808C5.10269 2.04808 7.49981 0.996094 8.71113 0.996094C9.92245 0.996094 10.8775 1.94465 10.9998 2M8.5 12.5C8.5 12.5 7.5 12.5 6.5 12C5 11.25 4.5 10.5 4.5 10.5" stroke="white" stroke-linecap="round" stroke-linejoin="round"/>
</svg>