<svg width="25" height="25" viewBox="0 0 25 25" fill="none" xmlns="http://www.w3.org/2000/svg">
<path fill-rule="evenodd" clip-rule="evenodd" d="M18.53 8.9375C17.26 8.9375 16.5 8.1775 16.5 6.9075V3.9675C16.5 2.6975 17.26 1.9375 18.53 1.9375H21.47C22.74 1.9375 23.5 2.6975 23.5 3.9675V6.9075C23.5 8.1775 22.74 8.9375 21.47 8.9375H18.53ZM21.25 5.4475C21.09 5.4475 20.93 5.5075 20.81 5.6275L20.63 5.8075V3.5675C20.63 3.2175 20.35 2.9375 20 2.9375C19.65 2.9375 19.37 3.2175 19.37 3.5675V5.8075L19.19 5.6275C18.95 5.3875 18.55 5.3875 18.31 5.6275C18.07 5.8675 18.07 6.2675 18.31 6.5075L19.56 7.7575C19.61 7.8075 19.68 7.8475 19.75 7.8775C19.77 7.8875 19.79 7.8875 19.81 7.8975C19.86 7.9175 19.91 7.9275 19.97 7.9275C19.99 7.9275 20.01 7.9275 20.03 7.9275C20.1 7.9275 20.16 7.9175 20.23 7.8875C20.24 7.8875 20.24 7.8875 20.25 7.8875C20.32 7.8575 20.38 7.8175 20.43 7.7675C20.44 7.7575 20.44 7.7575 20.45 7.7575L21.7 6.5075C21.94 6.2675 21.94 5.8675 21.69 5.6275C21.57 5.5075 21.41 5.4475 21.25 5.4475Z" fill="white"/>
<path opacity="0.4" d="M22.5 9.93594H2.5V8.47594C2.5 6.18594 4.36 4.33594 6.65 4.33594H16.5V6.90594C16.5 8.17594 17.26 8.93594 18.53 8.93594H21.47C21.87 8.93594 22.21 8.86594 22.5 8.70594V9.93594Z" fill="white"/>
<path fill-rule="evenodd" clip-rule="evenodd" d="M2.5 17.3975C2.5 19.6875 4.36 21.5375 6.65 21.5375H18.35C20.64 21.5375 22.5 19.6875 22.5 17.3975V9.9375H2.5V17.3975ZM6.5 18.1875C6.09 18.1875 5.75 17.8475 5.75 17.4375C5.75 17.0275 6.09 16.6875 6.5 16.6875H8.5C8.91 16.6875 9.25 17.0275 9.25 17.4375C9.25 17.8475 8.91 18.1875 8.5 18.1875H6.5ZM11 18.1875C10.59 18.1875 10.25 17.8475 10.25 17.4375C10.25 17.0275 10.59 16.6875 11 16.6875H15C15.41 16.6875 15.75 17.0275 15.75 17.4375C15.75 17.8475 15.41 18.1875 15 18.1875H11Z" fill="white"/>
</svg>