<svg width="108" height="108" viewBox="0 0 108 108" fill="none" xmlns="http://www.w3.org/2000/svg">
<circle cx="54" cy="54" r="54" fill="#CCE6FD"/>
<path fill-rule="evenodd" clip-rule="evenodd" d="M99.2904 83.4219C89.6582 98.2154 72.9736 107.996 54.0046 107.996C35.0355 107.996 18.3509 98.2154 8.71875 83.4219H99.2904Z" fill="#AEBF3E"/>
<path d="M77.0195 55.0847H31.97C30.2806 55.0847 28.8984 53.7025 28.8984 52.0131V51.9875C28.8984 46.1259 33.6338 41.3906 39.4953 41.3906H69.4686C75.3302 41.3906 80.0911 46.1515 80.0911 52.0131C80.0911 53.7025 78.7089 55.0847 77.0195 55.0847Z" fill="#004F9F"/>
<path fill-rule="evenodd" clip-rule="evenodd" d="M28.8984 74.825C28.8984 80.6866 33.6338 85.4219 39.4953 85.4219H69.4686C75.3302 85.4219 80.0911 80.661 80.0911 74.7994V62.0012C80.0911 60.3119 78.7089 58.9297 77.0195 58.9297H31.97C30.2806 58.9297 28.8984 60.3119 28.8984 62.0012V74.825ZM39.137 76.8471C38.0875 76.8471 37.2172 75.9768 37.2172 74.9274C37.2172 73.8779 38.0875 73.0077 39.137 73.0077H44.2562C45.3057 73.0077 46.176 73.8779 46.176 74.9274C46.176 75.9768 45.3057 76.8471 44.2562 76.8471H39.137ZM50.6553 76.8471C49.6059 76.8471 48.7356 75.9768 48.7356 74.9274C48.7356 73.8779 49.6059 73.0077 50.6553 73.0077H60.8939C61.9433 73.0077 62.8136 73.8779 62.8136 74.9274C62.8136 75.9768 61.9433 76.8471 60.8939 76.8471H50.6553Z" fill="#004F9F"/>
<path opacity="0.01" fill-rule="evenodd" clip-rule="evenodd" d="M85.2124 32.6953V94.1265H23.7812V32.6953H85.2124Z" fill="white"/>
</svg>
