<svg width="16" height="18" viewBox="0 0 16 18" fill="none" xmlns="http://www.w3.org/2000/svg">
<path fill-rule="evenodd" clip-rule="evenodd" d="M12.6193 6.2601C12.4406 6.40275 12.2084 6.51645 11.9282 6.60895C11.9406 6.7377 11.9469 6.86815 11.9469 7C11.9469 9.20915 10.1804 11 8.00131 11C5.82223 11 4.05575 9.20915 4.05575 7C4.05575 6.86815 4.06206 6.7377 4.07439 6.60895C3.79426 6.51645 3.56201 6.40275 3.38328 6.2601C3.15123 6.07505 2.99612 5.82785 2.97782 5.5312C2.96086 5.25545 3.06813 5.0217 3.17594 4.85665C3.28607 4.68815 3.42653 4.54535 3.55037 4.4358C3.61932 4.37475 3.68788 4.31995 3.75081 4.27255C3.73212 4.1699 3.71145 4.046 3.69093 3.90235C3.62633 3.45005 3.56256 2.80095 3.56256 2C3.56256 1.84316 3.62859 1.72602 3.65937 1.67626C3.69784 1.61416 3.74336 1.56053 3.7842 1.51745C3.86691 1.43011 3.97319 1.34124 4.09008 1.25534C4.32681 1.08137 4.65281 0.88617 5.03933 0.7032C5.81014 0.338355 6.86864 0 8.00131 0C9.13398 0 10.1925 0.338355 10.9632 0.7032C11.3498 0.88617 11.6758 1.08137 11.9125 1.25534C12.0294 1.34124 12.1357 1.43011 12.2184 1.51745C12.2593 1.56053 12.3048 1.61416 12.3432 1.67626C12.374 1.72602 12.4401 1.84316 12.4401 2C12.4401 2.80105 12.3763 3.45015 12.3117 3.9024C12.2911 4.04605 12.2705 4.1699 12.2518 4.2726C12.3147 4.31995 12.3833 4.37475 12.4522 4.4358C12.5761 4.54535 12.7165 4.68815 12.8266 4.85665C12.9345 5.0217 13.0418 5.25545 13.0247 5.5312C13.0065 5.82785 12.8513 6.07505 12.6193 6.2601ZM4.54983 2.1592C4.55753 2.833 4.61272 3.3779 4.66717 3.75895C4.67994 3.84855 4.69271 3.92905 4.7048 4H11.2978C11.3099 3.9291 11.3227 3.8486 11.3355 3.759C11.3899 3.378 11.4451 2.8331 11.4528 2.1592C11.4229 2.13335 11.3836 2.1017 11.3336 2.06495C11.1557 1.93426 10.8856 1.77008 10.5459 1.6093C9.86431 1.28665 8.95007 1 8.00131 1C7.05255 1 6.13832 1.28665 5.45667 1.6093C5.11701 1.77008 4.84689 1.93426 4.66904 2.06495C4.61903 2.1017 4.57967 2.13335 4.54983 2.1592ZM4.44444 5L4.44266 5.0012C4.37362 5.04815 4.28459 5.11345 4.19893 5.1892C4.11089 5.26715 4.0413 5.3431 3.99824 5.40895C3.98532 5.4288 3.97694 5.44425 3.97161 5.45565C3.97714 5.46085 3.98424 5.46705 3.99326 5.47425C4.06675 5.5329 4.22571 5.61975 4.53548 5.70495C4.59654 5.72175 4.66214 5.7381 4.73237 5.75395L4.73656 5.75485C4.98424 5.8105 5.28889 5.8596 5.66061 5.89895C6.18699 5.95465 6.84921 5.99105 7.67654 5.99855C7.78208 5.9995 7.89034 6 8.00131 6C9.59265 6 10.622 5.8995 11.266 5.75485L11.2703 5.75395C11.3405 5.7381 11.406 5.72175 11.4671 5.70495C11.7769 5.61975 11.9359 5.5329 12.0094 5.47425C12.0184 5.46705 12.0255 5.46085 12.031 5.45565C12.0256 5.44425 12.0173 5.4288 12.0043 5.40895C11.9613 5.3431 11.8917 5.26715 11.8036 5.1892C11.718 5.11345 11.629 5.04815 11.56 5.0012L11.5582 5H4.44444ZM7.86686 7C9.17028 7 10.1798 6.9301 10.9545 6.80785C10.9584 6.87135 10.9604 6.9354 10.9604 7C10.9604 8.65685 9.63556 10 8.00126 10C6.36696 10 5.04209 8.65685 5.04209 7C5.04209 6.9471 5.04342 6.89455 5.04609 6.84235C5.76738 6.94325 6.69227 7 7.86686 7ZM4.09427 16.4387C4.06887 16.6221 4.05575 16.8095 4.05575 17V17.5C4.05575 17.7761 3.83495 18 3.56256 18C3.38081 18 3.22205 17.9004 3.13649 17.752C2.81556 17.9279 2.43023 17.9846 2.04998 17.8813C1.26066 17.667 0.792424 16.8444 1.00392 16.0442L1.38686 14.5953C1.59836 13.7951 2.40969 13.3202 3.199 13.5346C3.53062 13.6247 3.80545 13.8222 3.99716 14.0802C4.89265 12.8202 6.35251 12 8.00131 12C9.64957 12 11.1089 12.8197 12.0045 14.079C12.1962 13.8218 12.4707 13.6249 12.8016 13.535C13.5909 13.3206 14.4019 13.7956 14.6134 14.5958L14.9964 16.0447C15.2079 16.8449 14.7394 17.6674 13.9501 17.8818C13.5705 17.9848 13.186 17.9286 12.8654 17.7533C12.7797 17.9009 12.6213 18 12.4401 18C12.1677 18 11.9469 17.7761 11.9469 17.5V17C11.9469 16.8095 11.9337 16.6221 11.9083 16.4387L9.34177 17.1359C9.10572 17.6464 8.59423 18 8.00131 18C7.40839 18 6.8969 17.6464 6.66086 17.1359L4.09427 16.4387ZM6.58081 16.0788C6.71422 15.6157 7.06207 15.2451 7.50811 15.0854V13.031C6.07755 13.2118 4.88481 14.1691 4.35315 15.4737L6.58081 16.0788ZM11.6495 15.4737C11.1178 14.1691 9.92507 13.2118 8.49451 13.031V15.0854C8.9405 15.2451 9.2884 15.6157 9.42176 16.0788L11.6495 15.4737ZM12.7081 15.1133C12.6376 14.8467 12.7938 14.5724 13.0569 14.501C13.32 14.4295 13.5902 14.5879 13.6607 14.8546L14.0436 16.3034C14.1141 16.5702 13.958 16.8443 13.6949 16.9158C13.4317 16.9874 13.1616 16.829 13.0911 16.5623L12.7081 15.1133ZM2.94367 14.5006C2.6806 14.4291 2.41013 14.5874 2.33965 14.8541L1.9567 16.303C1.8862 16.5697 2.04234 16.844 2.30543 16.9154C2.5685 16.9869 2.83884 16.8286 2.90932 16.5618L3.29229 15.1129C3.36276 14.8462 3.20674 14.572 2.94367 14.5006ZM8.49451 16.5C8.49451 16.7761 8.2737 17 8.00131 17C7.72892 17 7.50811 16.7761 7.50811 16.5C7.50811 16.2239 7.72892 16 8.00131 16C8.2737 16 8.49451 16.2239 8.49451 16.5Z" fill="white"/>
</svg>