<svg width="109" height="109" viewBox="0 0 109 109" fill="none" xmlns="http://www.w3.org/2000/svg">
<circle cx="54.1875" cy="54.6846" r="54" fill="#CCE6FD"/>
<path d="M8.88281 84.1089H99.468C99.468 84.1089 92.5034 94.8273 82.1131 100.975C68.4954 109.031 56.2304 108.685 56.2304 108.685C56.2304 108.685 41.7739 109.493 28.4978 102.206C15.2216 94.9181 8.88281 84.1089 8.88281 84.1089Z" fill="#AEBF3E"/>
<rect x="25.9531" y="42.1084" width="37.4733" height="5.09748" rx="2.54874" fill="#004F9F"/>
<path d="M25.9531 83.0415C25.9531 81.7843 26.9723 80.7651 28.2295 80.7651H81.3448C82.602 80.7651 83.6212 81.7843 83.6212 83.0415V83.0415C83.6212 84.2987 82.602 85.3179 81.3448 85.3179H28.2295C26.9723 85.3179 25.9531 84.2987 25.9531 83.0415V83.0415Z" fill="#004F9F"/>
<rect x="31.3125" y="42.1084" width="26.7667" height="40.7798" fill="#004F9F"/>
<rect x="36.6719" y="49.7559" width="16.06" height="15.2924" rx="5" fill="#CCE6FD"/>
<rect x="39.3281" y="59.9521" width="10.7067" height="7.64622" rx="2" fill="#004F9F"/>
<rect x="63.4219" y="62.5015" width="4.015" height="22.9386" rx="2.0075" fill="#004F9F"/>
<path d="M79.4827 42.7229C80.0911 41.943 81.2405 41.7766 82.0454 42.3519V42.3519C82.8444 42.923 83.0021 44.01 82.3981 44.7842L66.8757 64.6838C66.2674 65.4637 65.1179 65.6301 64.3131 65.0548V65.0548C63.514 64.4837 63.3564 63.3967 63.9603 62.6225L79.4827 42.7229Z" fill="#004F9F"/>
</svg>