<svg width="17" height="17" viewBox="0 0 17 17" fill="none" xmlns="http://www.w3.org/2000/svg">
<path d="M0.875 8.92999V7.63251C0.875 6.08001 2.1425 4.8125 3.695 4.8125H12.305C13.8575 4.8125 15.125 6.08001 15.125 7.63251V8.71251H13.61C13.19 8.71251 12.8075 8.87749 12.53 9.16249C12.215 9.46999 12.035 9.91249 12.08 10.385C12.1475 11.195 12.89 11.7875 13.7 11.7875H15.125V12.68C15.125 14.2325 13.8575 15.5 12.305 15.5H8.195" stroke="white" stroke-linecap="round" stroke-linejoin="round"/>
<path d="M0.875 8.30748V4.88002C0.875 3.98752 1.4225 3.19248 2.255 2.87748L8.21 0.627484C9.14 0.274984 10.1375 0.965006 10.1375 1.96251V4.8125" stroke="white" stroke-linecap="round" stroke-linejoin="round"/>
<path d="M15.9191 11.0229C15.9191 11.4354 15.5891 11.7729 15.1691 11.7879H13.6991C12.8891 11.7879 12.1466 11.1954 12.0791 10.3854C12.0341 9.91288 12.2141 9.47037 12.5291 9.16287C12.8066 8.87787 13.1891 8.71289 13.6091 8.71289H15.1691C15.5891 8.72789 15.9191 9.06536 15.9191 9.47786V11.0229Z" stroke="white" stroke-linecap="round" stroke-linejoin="round"/>
<path d="M4.25 8H9.5" stroke="white" stroke-linecap="round" stroke-linejoin="round"/>
<path d="M1.25 11.375H5.255C5.735 11.375 6.125 11.765 6.125 12.245V13.205" stroke="white" stroke-linecap="round" stroke-linejoin="round"/>
<path d="M2.165 10.46L1.25 11.3749L2.165 12.2899" stroke="white" stroke-linecap="round" stroke-linejoin="round"/>
<path d="M6.125 15.3349H2.12C1.64 15.3349 1.25 14.9449 1.25 14.4649V13.5049" stroke="white" stroke-linecap="round" stroke-linejoin="round"/>
<path d="M5.21094 16.2499L6.12594 15.3349L5.21094 14.4199" stroke="white" stroke-linecap="round" stroke-linejoin="round"/>
</svg>
