<svg width="16" height="16" viewBox="0 0 16 16" fill="none" xmlns="http://www.w3.org/2000/svg">
<path opacity="0.4" d="M14.2698 8.54768C13.9923 8.54768 13.7598 8.33768 13.7298 8.06018C13.5498 6.41018 12.6648 4.92518 11.2998 3.98018C11.0523 3.80768 10.9923 3.47018 11.1648 3.22268C11.3373 2.97518 11.6748 2.91518 11.9223 3.08768C13.5498 4.22018 14.5998 5.99018 14.8173 7.94768C14.8473 8.24768 14.6298 8.51768 14.3298 8.54768C14.3073 8.54768 14.2923 8.54768 14.2698 8.54768Z" fill="#809FB8"/>
<path opacity="0.4" d="M1.80448 8.58491C1.78948 8.58491 1.76698 8.58491 1.75198 8.58491C1.45198 8.55491 1.23448 8.28491 1.26448 7.98491C1.46698 6.02741 2.50198 4.25741 4.11448 3.11741C4.35448 2.94491 4.69948 3.00491 4.87198 3.24491C5.04448 3.49241 4.98448 3.82991 4.74448 4.00241C3.39448 4.96241 2.51698 6.44741 2.35198 8.08991C2.32198 8.37491 2.08198 8.58491 1.80448 8.58491Z" fill="#809FB8"/>
<path opacity="0.4" d="M10.9934 14.8248C10.0709 15.2673 9.08093 15.4923 8.04593 15.4923C6.96593 15.4923 5.93843 15.2523 4.97843 14.7648C4.70843 14.6373 4.60343 14.3073 4.73843 14.0373C4.86593 13.7673 5.19593 13.6623 5.46593 13.7898C5.93843 14.0298 6.44093 14.1948 6.95093 14.2923C7.64093 14.4273 8.34593 14.4348 9.03593 14.3148C9.54593 14.2248 10.0484 14.0673 10.5134 13.8423C10.7909 13.7148 11.1209 13.8198 11.2409 14.0973C11.3759 14.3673 11.2709 14.6973 10.9934 14.8248Z" fill="#809FB8"/>
<path d="M8.03688 0.507324C6.87438 0.507324 5.92188 1.45232 5.92188 2.62232C5.92188 3.79232 6.86688 4.73732 8.03688 4.73732C9.20688 4.73732 10.1519 3.79232 10.1519 2.62232C10.1519 1.45232 9.20688 0.507324 8.03688 0.507324Z" fill="#809FB8"/>
<path d="M2.78688 9.40234C1.62438 9.40234 0.671875 10.3473 0.671875 11.5173C0.671875 12.6873 1.61688 13.6323 2.78688 13.6323C3.95688 13.6323 4.90187 12.6873 4.90187 11.5173C4.90187 10.3473 3.94938 9.40234 2.78688 9.40234Z" fill="#809FB8"/>
<path d="M13.2127 9.40234C12.0502 9.40234 11.0977 10.3473 11.0977 11.5173C11.0977 12.6873 12.0427 13.6323 13.2127 13.6323C14.3827 13.6323 15.3277 12.6873 15.3277 11.5173C15.3277 10.3473 14.3827 9.40234 13.2127 9.40234Z" fill="#809FB8"/>
</svg>