<svg width="100" height="100" viewBox="0 0 100 100" fill="none" xmlns="http://www.w3.org/2000/svg">
<circle cx="20.0423" cy="64.0423" r="19.0423" fill="#E9F3FF"/>
<circle cx="20.0423" cy="64.0423" r="18.5423" stroke="#00499B" stroke-opacity="0.3"/>
<path d="M27.0883 61.5198H13.1094C12.5851 61.5198 12.1562 61.0909 12.1562 60.5667V60.5587C12.1562 58.7399 13.6256 57.2705 15.4445 57.2705H24.7453C26.5641 57.2705 28.0414 58.7478 28.0414 60.5667C28.0414 61.0909 27.6125 61.5198 27.0883 61.5198Z" fill="#00499B"/>
<path fill-rule="evenodd" clip-rule="evenodd" d="M12.1562 67.6443C12.1562 69.4631 13.6256 70.9325 15.4445 70.9325H24.7453C26.5641 70.9325 28.0414 69.4552 28.0414 67.6363V63.665C28.0414 63.1408 27.6125 62.7119 27.0883 62.7119H13.1094C12.5851 62.7119 12.1562 63.1408 12.1562 63.665V67.6443ZM15.3333 68.2717C15.0076 68.2717 14.7376 68.0017 14.7376 67.676C14.7376 67.3504 15.0076 67.0803 15.3333 67.0803H16.9218C17.2475 67.0803 17.5175 67.3504 17.5175 67.676C17.5175 68.0017 17.2475 68.2717 16.9218 68.2717H15.3333ZM18.9075 68.2717C18.5818 68.2717 18.3118 68.0017 18.3118 67.676C18.3118 67.3504 18.5818 67.0803 18.9075 67.0803H22.0845C22.4101 67.0803 22.6802 67.3504 22.6802 67.676C22.6802 68.0017 22.4101 68.2717 22.0845 68.2717H18.9075Z" fill="#00499B"/>
<path opacity="0.01" fill-rule="evenodd" clip-rule="evenodd" d="M29.6325 54.5708V73.633H10.5703V54.5708H29.6325Z" fill="white"/>
<circle cx="79.9485" cy="64.0423" r="19.0423" fill="#E9F3FF"/>
<circle cx="79.9485" cy="64.0423" r="18.5423" stroke="#00499B" stroke-opacity="0.3"/>
<path d="M88.9508 63.474H87.1345C86.814 60.0819 84.1074 57.3664 80.7153 57.0548V55.2385C80.7153 54.8735 80.4126 54.5708 80.0476 54.5708C79.6825 54.5708 79.3798 54.8735 79.3798 55.2385V57.0548C75.9877 57.3753 73.2722 60.0819 72.9606 63.474H71.1443C70.7793 63.474 70.4766 63.7768 70.4766 64.1418C70.4766 64.5068 70.7793 64.8095 71.1443 64.8095H72.9606C73.2811 68.2017 75.9877 70.9172 79.3798 71.2288V73.045C79.3798 73.4101 79.6825 73.7128 80.0476 73.7128C80.4126 73.7128 80.7153 73.4101 80.7153 73.045V71.2288C84.1074 70.9083 86.8229 68.2017 87.1345 64.8095H88.9508C89.3158 64.8095 89.6185 64.5068 89.6185 64.1418C89.6185 63.7768 89.3158 63.474 88.9508 63.474ZM80.0476 66.9196C78.5162 66.9196 77.2697 65.6731 77.2697 64.1418C77.2697 62.6104 78.5162 61.364 80.0476 61.364C81.5789 61.364 82.8254 62.6104 82.8254 64.1418C82.8254 65.6731 81.5789 66.9196 80.0476 66.9196Z" fill="#00499B"/>
<circle cx="52.1206" cy="57.5278" r="25.4722" fill="#FFEEB0"/>
<circle cx="52.1206" cy="57.5278" r="24.9722" stroke="#F3C521" stroke-opacity="0.3"/>
<rect x="37.2188" y="46.5483" width="19.1714" height="2.60788" rx="1" fill="#F3C521"/>
<path d="M37.2188 67.3247C37.2188 66.7724 37.6665 66.3247 38.2188 66.3247H65.7218C66.2741 66.3247 66.7218 66.7724 66.7218 67.3247V67.6539C66.7218 68.2062 66.2741 68.6539 65.7218 68.6539H38.2187C37.6665 68.6539 37.2188 68.2062 37.2188 67.6539V67.3247Z" fill="#F3C521"/>
<rect x="39.9609" y="46.5483" width="13.6939" height="20.863" fill="#F3C521"/>
<rect x="42.7031" y="50.4604" width="8.21632" height="7.82363" rx="1" fill="#FFEEB0"/>
<rect x="44.0625" y="55.6763" width="5.47754" height="3.91181" rx="1" fill="#F3C521"/>
<path d="M56.3906 57.981C56.3906 57.4287 56.8383 56.981 57.3906 56.981H57.4447C57.997 56.981 58.4447 57.4287 58.4447 57.981V68.2164C58.4447 68.4925 58.2208 68.7164 57.9447 68.7164H56.8906C56.6145 68.7164 56.3906 68.4925 56.3906 68.2164V57.981Z" fill="#F3C521"/>
<path d="M64.7526 46.6762C64.9838 46.3798 65.4206 46.3165 65.7265 46.5352L66.1086 46.8082C66.4122 47.0253 66.4722 47.4384 66.2426 47.7327L58.0126 58.2835C57.7814 58.5799 57.3445 58.6431 57.0387 58.4245L56.6566 58.1514C56.3529 57.9344 56.293 57.5213 56.5225 57.227L64.7526 46.6762Z" fill="#F3C521"/>
<path d="M94.5 24C93.7406 28.125 93.125 28.7406 89 29.5C93.125 30.2594 93.7406 30.875 94.5 35C95.2594 30.875 95.875 30.2594 100 29.5C95.875 28.7406 95.2594 28.125 94.5 24Z" fill="#FFD644"/>
<path d="M85 35C84.5858 37.625 84.25 38.0167 82 38.5C84.25 38.9833 84.5858 39.375 85 42C85.4142 39.375 85.75 38.9833 88 38.5C85.75 38.0167 85.4142 37.625 85 35Z" fill="#FBE285"/>
</svg>
