<svg width="16" height="16" viewBox="0 0 16 16" fill="none" xmlns="http://www.w3.org/2000/svg">
<path d="M11.3335 8.93341V10.9334C11.3335 13.6001 10.2668 14.6667 7.60016 14.6667H5.06683C2.40016 14.6667 1.3335 13.6001 1.3335 10.9334V8.40008C1.3335 5.73341 2.40016 4.66675 5.06683 4.66675H7.06683" stroke="#207AD3" stroke-linecap="round" stroke-linejoin="round"/>
<path d="M9.19974 8.93341C7.59974 8.93341 7.06641 8.40008 7.06641 6.80008V4.66675L11.3331 8.93341H9.19974Z" stroke="#207AD3" stroke-linecap="round" stroke-linejoin="round"/>
<path d="M7.7334 1.33325H10.4001" stroke="#207AD3" stroke-linecap="round" stroke-linejoin="round"/>
<path d="M4.6665 3.33325C4.6665 2.22659 5.55984 1.33325 6.6665 1.33325H8.41317" stroke="#207AD3" stroke-linecap="round" stroke-linejoin="round"/>
<path d="M14.6668 5.33325V9.45992C14.6668 10.4933 13.8268 11.3333 12.7935 11.3333" stroke="#207AD3" stroke-linecap="round" stroke-linejoin="round"/>
<path d="M12.6665 5.33325C11.1665 5.33325 10.6665 4.83325 10.6665 3.33325V1.33325L14.6665 5.33325H12.6665Z" stroke="#207AD3" stroke-linecap="round" stroke-linejoin="round"/>
</svg>
