<svg width="32" height="33" viewBox="0 0 32 33" fill="none" xmlns="http://www.w3.org/2000/svg">
<path d="M8.50008 13.004C11.5001 13.004 13.0001 11.504 13.0001 8.50399V5.50395C13.0001 2.50392 11.5001 1.00391 8.50008 1.00391H5.50005C2.50002 1.00391 1 2.50392 1 5.50395V8.50399C1 11.504 2.50002 13.004 5.50005 13.004H8.50008Z" stroke="white" stroke-width="2" stroke-linecap="round" stroke-linejoin="round"/>
<path d="M26.5001 13.004C29.5001 13.004 31.0001 11.504 31.0001 8.50399V5.50395C31.0001 2.50392 29.5001 1.00391 26.5001 1.00391H23.5C20.5 1.00391 19 2.50392 19 5.50395V8.50399C19 11.504 20.5 13.004 23.5 13.004H26.5001Z" stroke="white" stroke-width="2" stroke-linecap="round" stroke-linejoin="round"/>
<path d="M26.5001 31.004C29.5001 31.004 31.0001 29.504 31.0001 26.504V23.504C31.0001 20.5039 29.5001 19.0039 26.5001 19.0039H23.5C20.5 19.0039 19 20.5039 19 23.504V26.504C19 29.504 20.5 31.004 23.5 31.004H26.5001Z" stroke="white" stroke-width="2" stroke-linecap="round" stroke-linejoin="round"/>
<path d="M8.50008 31.004C11.5001 31.004 13.0001 29.504 13.0001 26.504V23.504C13.0001 20.5039 11.5001 19.0039 8.50008 19.0039H5.50005C2.50002 19.0039 1 20.5039 1 23.504V26.504C1 29.504 2.50002 31.004 5.50005 31.004H8.50008Z" stroke="white" stroke-width="2" stroke-linecap="round" stroke-linejoin="round"/>
</svg>
