<svg width="24" height="24" viewBox="0 0 24 24" fill="none" xmlns="http://www.w3.org/2000/svg">
<path d="M20.3721 11.3721H18.6642C18.3628 8.18233 15.8177 5.62884 12.6279 5.33581V3.62791C12.6279 3.28465 12.3433 3 12 3C11.6567 3 11.3721 3.28465 11.3721 3.62791V5.33581C8.18233 5.63721 5.62884 8.18233 5.33581 11.3721H3.62791C3.28465 11.3721 3 11.6567 3 12C3 12.3433 3.28465 12.6279 3.62791 12.6279H5.33581C5.63721 15.8177 8.18233 18.3712 11.3721 18.6642V20.3721C11.3721 20.7153 11.6567 21 12 21C12.3433 21 12.6279 20.7153 12.6279 20.3721V18.6642C15.8177 18.3628 18.3712 15.8177 18.6642 12.6279H20.3721C20.7153 12.6279 21 12.3433 21 12C21 11.6567 20.7153 11.3721 20.3721 11.3721ZM12 14.6121C10.56 14.6121 9.38791 13.44 9.38791 12C9.38791 10.56 10.56 9.38791 12 9.38791C13.44 9.38791 14.6121 10.56 14.6121 12C14.6121 13.44 13.44 14.6121 12 14.6121Z" fill="#268AFF"/>
</svg>