<svg width="19" height="15" viewBox="0 0 19 15" fill="none" xmlns="http://www.w3.org/2000/svg">
<rect y="0.265625" width="12.3464" height="1.67947" rx="0.839737" fill="#009F82"/>
<path d="M0 13.75C0 13.3358 0.335786 13 0.75 13H18.25C18.6642 13 19 13.3358 19 13.75V13.75C19 14.1642 18.6642 14.5 18.25 14.5H0.750001C0.335787 14.5 0 14.1642 0 13.75V13.75Z" fill="#009F82"/>
<path d="M12.3477 7.64579C12.3477 7.2805 12.6438 6.98438 13.0091 6.98438V6.98438C13.3744 6.98438 13.6705 7.2805 13.6705 7.64579V14.042C13.6705 14.3182 13.4466 14.542 13.1705 14.542H12.8477C12.5715 14.542 12.3477 14.3182 12.3477 14.042V7.64579Z" fill="#009F82"/>
<path d="M17.6404 0.465966C17.8409 0.209021 18.2196 0.154192 18.4848 0.343728V0.343728C18.748 0.531896 18.8 0.890027 18.601 1.14512L13.4868 7.70147C13.2863 7.95842 12.9076 8.01325 12.6425 7.82371V7.82371C12.3792 7.63554 12.3273 7.27741 12.5262 7.02232L17.6404 0.465966Z" fill="#009F82"/>
<path fill-rule="evenodd" clip-rule="evenodd" d="M10.5845 0.265625H1.76562V13.7014H10.5845V0.265625ZM9.18392 7.12411C9.18894 7.09925 9.19399 7.07425 9.19941 7.04932L9.20054 7.05047V6.53191C9.09011 5.67183 8.71212 4.96252 8.03128 4.41997C7.61459 4.08759 7.13641 3.90712 6.61724 3.82031H5.82256C5.79062 3.82614 5.75844 3.83115 5.72626 3.83617L5.72626 3.83617L5.72626 3.83617C5.65749 3.84688 5.58868 3.85761 5.52199 3.87628C4.28442 4.22465 3.48859 5.01734 3.27569 6.29433C3.08441 7.43882 3.45216 8.41654 4.37094 9.16012C4.75007 9.46623 5.17701 9.66611 5.7144 9.74835C5.41952 9.39427 5.39675 9.06988 5.66886 8.7375C5.65748 8.73146 5.64739 8.72591 5.63814 8.72083C5.6159 8.70861 5.59854 8.69907 5.58005 8.69181C4.92882 8.43368 4.4939 7.97108 4.34134 7.28576C4.15007 6.43139 4.39144 5.70267 5.09732 5.17268C5.7144 4.71009 6.40548 4.65526 7.0772 5.0162C7.83546 5.42397 8.21231 6.09673 8.12578 6.96594C8.07569 7.46394 8.24988 7.63642 8.73375 7.61243C9.08888 7.59482 9.1351 7.36591 9.18392 7.12411ZM9.19815 9.31656L9.19806 9.31669C9.16166 9.36576 9.12526 9.41483 9.08886 9.46277C8.80423 9.82941 8.53554 9.89452 8.18032 9.51074C7.73533 9.03127 7.27528 8.56643 6.81531 8.10166L6.8153 8.10165C6.55974 7.84343 6.30421 7.58523 6.05129 7.32456C5.78487 7.05043 5.98184 6.84712 6.17652 6.65066C6.37007 6.45534 6.57045 6.43021 6.77311 6.63353C7.52795 7.38852 8.28165 8.14352 9.03307 8.90194C9.0777 8.94672 9.11452 8.99933 9.15134 9.05194C9.16712 9.07449 9.1829 9.09703 9.19929 9.11896V9.31885L9.19815 9.31656ZM6.55384 8.32376C6.41266 8.26322 5.75346 9.01822 5.75004 9.21011C5.74549 9.41685 6.09274 9.79035 6.2897 9.79149C6.46048 9.79263 7.23354 9.10502 7.1823 8.96453C7.073 8.66756 6.83847 8.44826 6.55384 8.32376Z" fill="#009F82"/>
</svg>
