<svg width="32" height="34" viewBox="0 0 32 34" fill="none" xmlns="http://www.w3.org/2000/svg">
<path d="M29.9999 22.2723C29.9999 23.9991 29.0748 25.6025 27.5794 26.4813L18.4214 31.7695C16.9259 32.6329 15.0758 32.6329 13.5649 31.7695L4.40687 26.4813C2.91138 25.618 1.98633 24.0145 1.98633 22.2723V11.7268C1.98633 10 2.91138 8.39655 4.40687 7.51775L13.5649 2.22957C15.0604 1.36619 16.9105 1.36619 18.4214 2.22957L27.5794 7.51775C29.0748 8.39655 29.9999 9.98461 29.9999 11.7268V22.2723Z" stroke="white" stroke-width="2" stroke-linecap="round" stroke-linejoin="round"/>
<path fill-rule="evenodd" clip-rule="evenodd" d="M16.0005 15.4579C14.0165 15.4579 12.4082 13.8496 12.4082 11.8656C12.4082 9.88169 14.0165 8.27344 16.0005 8.27344C17.9844 8.27344 19.5928 9.88169 19.5928 11.8656C19.5928 13.8496 17.9844 15.4579 16.0005 15.4579Z" stroke="white" stroke-width="2" stroke-linecap="round" stroke-linejoin="round"/>
<path d="M22.168 24.1862C22.168 21.411 19.4082 19.1602 16.001 19.1602C12.5937 19.1602 9.83398 21.411 9.83398 24.1862" stroke="white" stroke-width="2" stroke-linecap="round" stroke-linejoin="round"/>
</svg>
