<svg width="20" height="22" viewBox="0 0 20 22" fill="none" xmlns="http://www.w3.org/2000/svg">
<path d="M8.7073 17.049C8.7073 15.8944 8.24861 14.7869 7.43214 13.9705C6.61567 13.154 5.50838 12.6953 4.35365 12.6953C3.19905 12.6953 2.09163 13.154 1.27516 13.9705C0.458689 14.7869 0 15.8944 0 17.049C0 18.2035 0.458689 19.311 1.27516 20.1275C2.09163 20.9439 3.19909 21.4026 4.35365 21.4026C5.50791 21.4013 6.61453 20.9423 7.43083 20.126C8.24696 19.3098 8.70616 18.2032 8.70734 17.049H8.7073ZM3.49454 15.2928L4.24668 14.5371V14.5373C4.59289 14.1876 5.06463 13.9913 5.55678 13.9921H5.55909C6.05051 13.9921 6.52195 14.1876 6.86931 14.5355C7.21651 14.8833 7.41121 15.3551 7.41053 15.8467C7.4097 16.3383 7.21353 16.8092 6.86516 17.1561L6.10954 17.9083C6.05777 17.9625 5.98631 17.9938 5.91121 17.9946C5.83628 17.9956 5.76399 17.966 5.71106 17.9129C5.65813 17.8597 5.62902 17.7874 5.63017 17.7124C5.63133 17.6373 5.66276 17.566 5.71751 17.5146L6.47313 16.7618C6.71678 16.519 6.85391 16.1895 6.85441 15.8456C6.85474 15.5017 6.7186 15.1717 6.47561 14.9282C6.23262 14.6849 5.9028 14.5481 5.55891 14.5479H5.55742C5.21303 14.5473 4.88268 14.6847 4.64038 14.9295L3.88824 15.6851C3.83663 15.7394 3.76534 15.7705 3.69057 15.7715C3.6158 15.7725 3.54368 15.7434 3.49075 15.6906C3.43765 15.6378 3.40821 15.5659 3.40887 15.4909C3.40969 15.4162 3.44046 15.3449 3.49455 15.2931L3.49454 15.2928ZM3.40869 18.3866C3.29969 18.4927 3.12583 18.4915 3.01831 18.384C2.91096 18.2765 2.90964 18.1026 3.01567 17.9936L5.29903 15.7102C5.40804 15.6044 5.58189 15.6055 5.68941 15.713C5.79693 15.8204 5.79809 15.9944 5.69206 16.1033L3.40869 18.3866ZM3.1485 20.1058C2.65691 20.1058 2.18564 19.9103 1.83828 19.5624C1.49091 19.2145 1.29621 18.7428 1.29706 18.2512C1.29772 17.7596 1.49406 17.2885 1.84243 16.9417L2.59805 16.1896C2.64982 16.1355 2.72111 16.1044 2.79605 16.1036C2.87098 16.1028 2.9431 16.1324 2.99603 16.1855C3.0488 16.2386 3.07808 16.3107 3.07692 16.3856C3.07576 16.4605 3.0445 16.5318 2.99008 16.5833L2.23429 17.3354C1.90694 17.6628 1.77908 18.1398 1.89883 18.5871C2.01876 19.0344 2.36794 19.3836 2.81524 19.5035C3.26237 19.6233 3.73956 19.4954 4.06694 19.1681L4.81891 18.4125C4.92726 18.3038 5.10325 18.3033 5.21193 18.4116C5.32077 18.5198 5.32127 18.6958 5.21292 18.8046L4.46112 19.5603C4.11491 19.9099 3.643 20.1064 3.1509 20.1058L3.1485 20.1058Z" fill="#009F82"/>
<path d="M13.8654 11.4623C13.866 10.8528 14.1085 10.2684 14.5394 9.83749C14.9705 9.40641 15.5547 9.16393 16.1643 9.16326H19V6.74659C18.9997 6.32908 18.8336 5.9288 18.5383 5.63353C18.2431 5.33826 17.8428 5.17217 17.4253 5.17188H13.2691L13.2648 5.17618L13.2605 5.17188H7.11189L7.10759 5.17618L7.10329 5.17188H4.71143C4.29393 5.17221 3.89378 5.33828 3.59854 5.63353C3.30331 5.92878 3.13718 6.3291 3.13672 6.74659V12.2888C4.72731 11.8822 6.41589 12.2974 7.63638 13.3952C8.85712 14.4931 9.44831 16.1284 9.21193 17.753H17.4253C17.8428 17.7525 18.2431 17.5865 18.5383 17.2912C18.8336 16.996 18.9995 16.5958 19 16.1783V13.7615H16.1643C15.5547 13.7608 14.9705 13.5183 14.5394 13.0873C14.1085 12.6564 13.866 12.0717 13.8654 11.4623Z" fill="#009F82"/>
<path fill-rule="evenodd" clip-rule="evenodd" d="M11.8481 4.72045L9.17782 2.05017C9.02161 1.89396 8.76834 1.89396 8.61213 2.05017L6.0963 4.566C6.05132 4.61098 6.01929 4.66401 6.00021 4.72045L11.8481 4.72045Z" fill="#009F82"/>
<path fill-rule="evenodd" clip-rule="evenodd" d="M14.7072 4.72813L12.365 2.38598C12.2088 2.22977 11.9555 2.22977 11.7993 2.38598L11.0451 3.14024L12.633 4.72813L14.7072 4.72813Z" fill="#009F82"/>
<path d="M14.4219 11.462C14.4224 11.924 14.6061 12.3672 14.933 12.694C15.2598 13.0207 15.7028 13.2047 16.165 13.2052H19.0218L19.0219 9.71875H16.165C15.7028 9.71925 15.2599 9.90319 14.933 10.2299C14.6061 10.5567 14.4223 10.9999 14.4219 11.462ZM17.2766 11.462C17.2766 11.7366 17.1674 12.0001 16.9732 12.1943C16.779 12.3887 16.5155 12.4977 16.2407 12.4977C15.9662 12.4979 15.7027 12.3887 15.5085 12.1945C15.3141 12.0001 15.2049 11.7366 15.2049 11.462C15.2049 11.1873 15.3141 10.9238 15.5083 10.7296C15.7027 10.5354 15.966 10.4262 16.2408 10.4262C16.5153 10.4264 16.7787 10.5357 16.9729 10.7299C17.1671 10.9241 17.2762 11.1873 17.2766 11.462Z" fill="#009F82"/>
<path fill-rule="evenodd" clip-rule="evenodd" d="M17.8858 12.0741C17.6537 12.6344 17.1068 12.9999 16.5 12.9999C15.6719 12.9988 15.001 12.3281 15 11.5005C15 10.8937 15.3654 10.3468 15.9263 10.1142C16.4866 9.88212 17.1317 10.0103 17.5607 10.4393C17.9897 10.8683 18.1179 11.5138 17.8858 12.0741ZM16.4619 11.6914C16.3846 11.8781 16.2023 12 16 12C15.724 11.9996 15.5003 11.776 15.5 11.5002C15.5 11.2979 15.6218 11.1156 15.8088 11.0381C15.9955 10.9607 16.2106 11.0034 16.3536 11.1464C16.4966 11.2894 16.5393 11.5046 16.4619 11.6914Z" fill="#009F82"/>
</svg>
