<svg width="16" height="16" viewBox="0 0 16 16" fill="none" xmlns="http://www.w3.org/2000/svg">
<path d="M1.3335 5.99992V4.33325C1.3335 2.67325 2.6735 1.33325 4.3335 1.33325H6.00016" stroke="#207AD3" stroke-linecap="round" stroke-linejoin="round"/>
<path d="M10 1.33325H11.6667C13.3267 1.33325 14.6667 2.67325 14.6667 4.33325V5.99992" stroke="#207AD3" stroke-linecap="round" stroke-linejoin="round"/>
<path d="M14.6665 10.6667V11.6667C14.6665 13.3267 13.3265 14.6667 11.6665 14.6667H10.6665" stroke="#207AD3" stroke-linecap="round" stroke-linejoin="round"/>
<path d="M6.00016 14.6667H4.3335C2.6735 14.6667 1.3335 13.3267 1.3335 11.6667V10" stroke="#207AD3" stroke-linecap="round" stroke-linejoin="round"/>
<path d="M6.99984 6.00008C6.99984 6.66675 6.6665 7.00008 5.99984 7.00008H4.6665C3.99984 7.00008 3.6665 6.66675 3.6665 6.00008V4.66675C3.6665 4.00008 3.99984 3.66675 4.6665 3.66675H5.99984C6.6665 3.66675 6.99984 4.00008 6.99984 4.66675V6.00008Z" stroke="#207AD3" stroke-linecap="round" stroke-linejoin="round"/>
<path d="M12.3333 6.00008C12.3333 6.66675 12 7.00008 11.3333 7.00008H10C9.33333 7.00008 9 6.66675 9 6.00008V4.66675C9 4.00008 9.33333 3.66675 10 3.66675H11.3333C12 3.66675 12.3333 4.00008 12.3333 4.66675V6.00008Z" stroke="#207AD3" stroke-linecap="round" stroke-linejoin="round"/>
<path d="M6.99984 11.3333C6.99984 12 6.6665 12.3333 5.99984 12.3333H4.6665C3.99984 12.3333 3.6665 12 3.6665 11.3333V10C3.6665 9.33333 3.99984 9 4.6665 9H5.99984C6.6665 9 6.99984 9.33333 6.99984 10V11.3333Z" stroke="#207AD3" stroke-linecap="round" stroke-linejoin="round"/>
<path d="M12.3333 11.3333C12.3333 12 12 12.3333 11.3333 12.3333H10C9.33333 12.3333 9 12 9 11.3333V10C9 9.33333 9.33333 9 10 9H11.3333C12 9 12.3333 9.33333 12.3333 10V11.3333Z" stroke="#207AD3" stroke-linecap="round" stroke-linejoin="round"/>
</svg>
