<svg width="26" height="25" viewBox="0 0 26 25" fill="none" xmlns="http://www.w3.org/2000/svg">
<path d="M9.3885 20.5171C11.3121 22.4406 14.4352 22.4406 16.3691 20.5171L20.9091 15.9771C22.8327 14.0535 22.8327 10.9303 20.9091 8.99644L16.214 4.32201C15.2315 3.33955 13.8768 2.81212 12.491 2.88451L7.32017 3.13271C5.25184 3.22579 3.60751 4.87011 3.5041 6.92811L3.2559 12.0989C3.19385 13.4951 3.72127 14.8498 4.70373 15.8323L9.3885 20.5171Z" fill="#268AFF"/>
<path fill-rule="evenodd" clip-rule="evenodd" d="M10.2142 12.8129C8.56931 12.8129 7.23584 11.4794 7.23584 9.83448C7.23584 8.18955 8.56931 6.85608 10.2142 6.85608C11.8592 6.85608 13.1926 8.18955 13.1926 9.83448C13.1926 11.4794 11.8592 12.8129 10.2142 12.8129Z" fill="#D2E3F7"/>
</svg>
