<svg width="34" height="32" viewBox="0 0 34 32" fill="none" xmlns="http://www.w3.org/2000/svg">
<path d="M21.5002 16.0013C21.5002 17.6514 20.1501 19.0016 18.5 19.0016H1.99854V7.00052C1.99854 3.68523 4.68377 1 7.99906 1H21.5002V16.0013Z" stroke="white" stroke-width="2" stroke-linecap="round" stroke-linejoin="round"/>
<path d="M32.0011 23.5016C32.0011 25.9918 29.991 28.002 27.5008 28.002H26.0006C26.0006 26.3518 24.6505 25.0017 23.0004 25.0017C21.3502 25.0017 20.0001 26.3518 20.0001 28.002H13.9996C13.9996 26.3518 12.6495 25.0017 10.9993 25.0017C9.34917 25.0017 7.99906 26.3518 7.99906 28.002H6.49893C4.00871 28.002 1.99854 25.9918 1.99854 23.5016V19.0012H18.5C20.1501 19.0012 21.5002 17.6511 21.5002 16.0009V5.5H24.2605C25.3406 5.5 26.3306 6.08507 26.8707 7.01515L29.4359 11.5005H27.5008C26.6757 11.5005 26.0006 12.1756 26.0006 13.0007V17.501C26.0006 18.3261 26.6757 19.0012 27.5008 19.0012H32.0011V23.5016Z" stroke="white" stroke-width="2" stroke-linecap="round" stroke-linejoin="round"/>
<path fill-rule="evenodd" clip-rule="evenodd" d="M10.9993 31.0005C9.34229 31.0005 7.99902 29.6573 7.99902 28.0003C7.99902 26.3433 9.34229 25 10.9993 25C12.6563 25 13.9995 26.3433 13.9995 28.0003C13.9995 29.6573 12.6563 31.0005 10.9993 31.0005Z" stroke="white" stroke-width="2" stroke-linecap="round" stroke-linejoin="round"/>
<path fill-rule="evenodd" clip-rule="evenodd" d="M23.0003 31.0005C21.3433 31.0005 20 29.6573 20 28.0003C20 26.3433 21.3433 25 23.0003 25C24.6573 25 26.0005 26.3433 26.0005 28.0003C26.0005 29.6573 24.6573 31.0005 23.0003 31.0005Z" stroke="white" stroke-width="2" stroke-linecap="round" stroke-linejoin="round"/>
<path d="M32.0015 19.0007H27.5011C26.676 19.0007 26.001 18.3256 26.001 17.5005V13.0001C26.001 12.1751 26.676 11.5 27.5011 11.5H29.4363L32.0015 16.0004V19.0007Z" stroke="white" stroke-width="2" stroke-linecap="round" stroke-linejoin="round"/>
</svg>
