<svg width="26" height="26" viewBox="0 0 26 26" fill="none" xmlns="http://www.w3.org/2000/svg">
<path d="M16.1299 8.23184H14.5788V4.3023C14.5788 4.02309 14.3306 3.88866 14.1651 3.88866C14.1134 3.88866 14.0617 3.899 14.01 3.91968L5.80968 7.01162C5.26161 7.21843 4.91002 7.73548 4.91002 8.32491V9.01775C3.969 9.72093 3.35889 10.8481 3.35889 12.12V8.32491C3.35889 7.09434 4.11377 5.99821 5.26161 5.56389L13.4723 2.46162C13.6998 2.37889 13.9376 2.33752 14.1651 2.33752C15.1992 2.33752 16.1299 3.17514 16.1299 4.3023V8.23184Z" fill="#268AFF"/>
<path d="M23.0069 16.2452C23.0069 16.5244 22.7897 16.7519 22.5002 16.7623H20.9904C20.4424 16.7623 19.946 16.359 19.9046 15.8213C19.8736 15.5007 19.9977 15.2008 20.2045 14.994C20.3907 14.7975 20.6492 14.6941 20.9284 14.6941H22.4899C22.7897 14.7044 23.0069 14.9319 23.0069 15.2111V16.2452Z" fill="#268AFF"/>
<path fill-rule="evenodd" clip-rule="evenodd" d="M21.9725 13.6082C22.5413 13.6082 23.0066 13.1429 23.0066 12.5741V12.1191C23.0066 9.97857 21.259 8.23096 19.1184 8.23096H7.24707C6.36809 8.23096 5.5615 8.5205 4.91002 9.01687C3.969 9.72005 3.35889 10.8472 3.35889 12.1191V19.0786C3.35889 21.2191 5.1065 22.9668 7.24707 22.9668H19.1184C21.259 22.9668 23.0066 21.2191 23.0066 19.0786V18.8821C23.0066 18.3133 22.5413 17.848 21.9725 17.848H21.0729C20.0801 17.848 19.1288 17.2379 18.8702 16.2762C18.6531 15.4903 18.9116 14.7354 19.4287 14.2287C19.8113 13.8357 20.3387 13.6082 20.9177 13.6082H21.9725ZM8.0123 13.4014C7.58832 13.4014 7.23673 13.0498 7.23673 12.6258C7.23673 12.2019 7.58832 11.8503 8.0123 11.8503H15.2509C15.6749 11.8503 16.0265 12.2019 16.0265 12.6258C16.0265 13.0498 15.6749 13.4014 15.2509 13.4014H8.0123Z" fill="#268AFF"/>
</svg>
